G04 #@! TF.FileFunction,Soldermask,Bot*
%FSLAX46Y46*%
G04 Gerber Fmt 4.6, Leading zero omitted, Abs format (unit mm)*
G04 Created by KiCad (PCBNEW 4.0.4+dfsg1-stable) date Tue Mar  7 15:21:03 2017*
%MOMM*%
%LPD*%
G01*
G04 APERTURE LIST*
%ADD10C,0.100000*%
%ADD11C,2.400000*%
%ADD12R,1.900000X0.950000*%
%ADD13R,0.950000X1.900000*%
%ADD14R,1.600000X1.150000*%
%ADD15R,1.000000X0.900000*%
%ADD16R,1.150000X1.600000*%
%ADD17R,1.700000X1.000000*%
%ADD18R,2.200000X2.200000*%
%ADD19O,2.200000X2.200000*%
%ADD20C,2.200000*%
%ADD21R,1.100000X1.400000*%
%ADD22R,1.400000X1.100000*%
%ADD23R,1.600000X1.000000*%
%ADD24C,1.900000*%
%ADD25R,2.400000X2.400000*%
%ADD26R,1.400760X2.901900*%
%ADD27R,2.398980X4.400500*%
%ADD28R,1.600000X1.300000*%
%ADD29R,1.300000X1.600000*%
%ADD30R,1.100000X1.300000*%
%ADD31R,1.300000X1.300000*%
%ADD32C,2.500000*%
%ADD33C,2.600000*%
%ADD34R,1.950000X3.050000*%
%ADD35R,0.850000X1.850000*%
%ADD36R,6.000700X2.500580*%
%ADD37R,1.600000X2.300000*%
%ADD38C,0.600000*%
%ADD39R,1.000000X1.700000*%
%ADD40R,0.800000X1.750000*%
%ADD41C,1.950000*%
%ADD42R,2.300000X2.300000*%
G04 APERTURE END LIST*
D10*
D11*
X42752100Y19248800D03*
X42752100Y25751200D03*
X47247900Y19325000D03*
X47247900Y25751200D03*
D12*
X44536900Y46380100D03*
X44536900Y45580100D03*
X44536900Y44780100D03*
X44536900Y43980100D03*
X44536900Y43180100D03*
X44536900Y42380100D03*
X44536900Y41580100D03*
X44536900Y40780100D03*
X44536900Y39980100D03*
X44536900Y39180100D03*
X44536900Y38380100D03*
D13*
X42836900Y36680100D03*
X42036900Y36680100D03*
X41236900Y36680100D03*
X40436900Y36680100D03*
X39636900Y36680100D03*
X38836900Y36680100D03*
X38036900Y36680100D03*
X37236900Y36680100D03*
X36436900Y36680100D03*
X35636900Y36680100D03*
X34836900Y36680100D03*
D12*
X33136900Y38380100D03*
X33136900Y39180100D03*
X33136900Y39980100D03*
X33136900Y40780100D03*
X33136900Y41580100D03*
X33136900Y42380100D03*
X33136900Y43180100D03*
X33136900Y43980100D03*
X33136900Y44780100D03*
X33136900Y45580100D03*
X33136900Y46380100D03*
D13*
X34836900Y48080100D03*
X35636900Y48080100D03*
X36436900Y48080100D03*
X37236900Y48080100D03*
X38036900Y48080100D03*
X38836900Y48080100D03*
X39636900Y48080100D03*
X40436900Y48080100D03*
X41236900Y48080100D03*
X42036900Y48080100D03*
X42836900Y48080100D03*
D11*
X4950000Y60600000D03*
X25450000Y60600000D03*
D14*
X46700000Y45200000D03*
X48600000Y45200000D03*
X46750000Y46600000D03*
X48650000Y46600000D03*
X29750000Y46200000D03*
X27850000Y46200000D03*
X31150000Y44800000D03*
X29250000Y44800000D03*
D15*
X36250000Y50700000D03*
X35150000Y50700000D03*
X37450000Y50700000D03*
X38550000Y50700000D03*
D16*
X37200000Y34650000D03*
X37200000Y32750000D03*
D14*
X46450000Y40100000D03*
X48350000Y40100000D03*
X40150000Y50800000D03*
X42050000Y50800000D03*
X17150000Y8900000D03*
X19050000Y8900000D03*
D16*
X13650000Y59250000D03*
X13650000Y57350000D03*
X15150000Y55350000D03*
X15150000Y57250000D03*
D15*
X17500000Y62300000D03*
X18600000Y62300000D03*
X16300000Y62300000D03*
X15200000Y62300000D03*
D11*
X17580000Y40450000D03*
X20120000Y40450000D03*
X17530000Y45650000D03*
X20070000Y45650000D03*
X39280000Y29450000D03*
X41820000Y29450000D03*
D17*
X11050000Y61100000D03*
X8550000Y61100000D03*
D18*
X85850000Y48650000D03*
D19*
X88390000Y48650000D03*
X85850000Y46110000D03*
D20*
X88390000Y46110000D03*
D19*
X85850000Y43570000D03*
D20*
X88390000Y43570000D03*
X85850000Y41030000D03*
X88390000Y41030000D03*
X85850000Y38490000D03*
X88390000Y38490000D03*
X85850000Y35950000D03*
X88390000Y35950000D03*
X85850000Y33410000D03*
X88390000Y33410000D03*
D21*
X57650000Y44950000D03*
X56700000Y44950000D03*
X55750000Y44950000D03*
X55750000Y47350000D03*
X56700000Y47350000D03*
X57650000Y47350000D03*
D22*
X52850000Y57900000D03*
X52850000Y56950000D03*
X52850000Y56000000D03*
X50450000Y56000000D03*
X50450000Y56950000D03*
X50450000Y57900000D03*
D23*
X20850000Y8750000D03*
X20850000Y9700000D03*
X20850000Y10650000D03*
X23150000Y10650000D03*
X23150000Y9700000D03*
X23150000Y8750000D03*
D24*
X82400000Y11850000D03*
X88900000Y11850000D03*
D18*
X59900000Y6300000D03*
D19*
X59900000Y8840000D03*
X62440000Y6300000D03*
D20*
X62440000Y8840000D03*
D19*
X64980000Y6300000D03*
D20*
X64980000Y8840000D03*
D25*
X5350000Y23050000D03*
D11*
X5350000Y25590000D03*
D25*
X5400000Y20050000D03*
D11*
X5400000Y17510000D03*
D26*
X86251140Y16947960D03*
X84750000Y16947960D03*
X83248860Y16947960D03*
D27*
X84750000Y20900200D03*
D10*
G36*
X84049620Y17976050D02*
X83549240Y19125350D01*
X85950760Y19125350D01*
X85450380Y17976050D01*
X84049620Y17976050D01*
X84049620Y17976050D01*
G37*
D28*
X51650000Y45250000D03*
X53850000Y45250000D03*
X70050000Y57650000D03*
X72250000Y57650000D03*
D29*
X80400000Y65400000D03*
X80400000Y67600000D03*
X63000000Y65600000D03*
X63000000Y67800000D03*
D28*
X64700000Y24300000D03*
X62500000Y24300000D03*
D29*
X82000000Y65400000D03*
X82000000Y67600000D03*
X64600000Y65600000D03*
X64600000Y67800000D03*
D28*
X64700000Y25950000D03*
X62500000Y25950000D03*
X62750000Y57350000D03*
X64950000Y57350000D03*
X34100000Y61900000D03*
X36300000Y61900000D03*
X50900000Y62100000D03*
X53100000Y62100000D03*
X53950000Y47000000D03*
X51750000Y47000000D03*
X34100000Y63500000D03*
X36300000Y63500000D03*
X50900000Y63700000D03*
X53100000Y63700000D03*
X11800000Y39750000D03*
X14000000Y39750000D03*
X11850000Y42900000D03*
X14050000Y42900000D03*
X25600000Y45250000D03*
X23400000Y45250000D03*
D29*
X24000000Y55400000D03*
X24000000Y57600000D03*
X35550000Y33600000D03*
X35550000Y31400000D03*
D28*
X64600000Y33150000D03*
X62400000Y33150000D03*
D29*
X37200000Y21100000D03*
X37200000Y18900000D03*
X39550000Y21150000D03*
X39550000Y18950000D03*
X12050000Y57200000D03*
X12050000Y59400000D03*
D28*
X15000000Y52550000D03*
X17200000Y52550000D03*
D29*
X37750000Y8550000D03*
X37750000Y10750000D03*
X33650000Y10650000D03*
X33650000Y8450000D03*
D30*
X80200000Y49000000D03*
D31*
X80850000Y46500000D03*
D30*
X81500000Y49000000D03*
D32*
X67500000Y54000000D03*
D33*
X67500000Y61500000D03*
X70000000Y61500000D03*
X65000000Y61500000D03*
X70000000Y47000000D03*
X65000000Y47000000D03*
D34*
X73025000Y54000000D03*
X61975000Y54000000D03*
D25*
X42200000Y13700000D03*
D11*
X42200000Y16240000D03*
X39660000Y13700000D03*
X39660000Y16240000D03*
X37120000Y13700000D03*
X37120000Y16240000D03*
X34580000Y13700000D03*
X34580000Y16240000D03*
D35*
X16575000Y59800000D03*
X17225000Y59800000D03*
X17875000Y59800000D03*
X18525000Y59800000D03*
X18525000Y55400000D03*
X17875000Y55400000D03*
X17225000Y55400000D03*
X16575000Y55400000D03*
D36*
X32151140Y54600000D03*
X41848860Y54600000D03*
D37*
X15700000Y64100000D03*
X18200000Y64100000D03*
D16*
X25800000Y10650000D03*
X25800000Y12550000D03*
D38*
X38000000Y49100000D03*
X38000000Y49100000D03*
X18550000Y60900000D03*
X18550000Y60900000D03*
D17*
X64800000Y22200000D03*
X62300000Y22200000D03*
D39*
X35750000Y21250000D03*
X35750000Y18750000D03*
X35650000Y8550000D03*
X35650000Y11050000D03*
D11*
X52250000Y17250000D03*
X26550000Y23000000D03*
X35230000Y5750000D03*
X37770000Y5750000D03*
D29*
X42100000Y8850000D03*
X42100000Y6650000D03*
D25*
X5100000Y39150000D03*
D11*
X5100000Y36610000D03*
X5100000Y34070000D03*
X90751200Y66752100D03*
X84248800Y66752100D03*
X90675000Y71247900D03*
X84248800Y71247900D03*
X73251200Y66752100D03*
X66748800Y66752100D03*
X73175000Y71247900D03*
X66748800Y71247900D03*
X55251200Y66752100D03*
X48748800Y66752100D03*
X55175000Y71247900D03*
X48748800Y71247900D03*
X38251200Y66752100D03*
X31748800Y66752100D03*
X38175000Y71247900D03*
X31748800Y71247900D03*
X67198800Y26197900D03*
X73701200Y26197900D03*
X67275000Y21702100D03*
X73701200Y21702100D03*
X53001200Y9752100D03*
X46498800Y9752100D03*
X52925000Y14247900D03*
X46498800Y14247900D03*
X28200000Y51400000D03*
X30600000Y49600000D03*
D40*
X21627080Y6347280D03*
X22277080Y6347280D03*
X22927080Y6347280D03*
X20977080Y6347280D03*
X20327080Y6347280D03*
D41*
X24127080Y6347280D03*
X19127080Y6347280D03*
D42*
X18127080Y3647280D03*
X25127080Y3647280D03*
M02*
