G04 #@! TF.FileFunction,Soldermask,Top*
%FSLAX46Y46*%
G04 Gerber Fmt 4.6, Leading zero omitted, Abs format (unit mm)*
G04 Created by KiCad (PCBNEW 4.0.4+dfsg1-stable) date Tue Mar  7 15:21:03 2017*
%MOMM*%
%LPD*%
G01*
G04 APERTURE LIST*
%ADD10C,0.100000*%
%ADD11C,2.400000*%
%ADD12R,2.200000X2.200000*%
%ADD13O,2.200000X2.200000*%
%ADD14C,2.200000*%
%ADD15C,1.900000*%
%ADD16R,2.400000X2.400000*%
%ADD17C,2.500000*%
%ADD18C,2.600000*%
%ADD19R,1.950000X3.050000*%
%ADD20C,1.950000*%
%ADD21R,2.300000X2.300000*%
G04 APERTURE END LIST*
D10*
D11*
X42752100Y19248800D03*
X42752100Y25751200D03*
X47247900Y19325000D03*
X47247900Y25751200D03*
X4950000Y60600000D03*
X25450000Y60600000D03*
X17580000Y40450000D03*
X20120000Y40450000D03*
X17530000Y45650000D03*
X20070000Y45650000D03*
X39280000Y29450000D03*
X41820000Y29450000D03*
D12*
X85850000Y48650000D03*
D13*
X88390000Y48650000D03*
X85850000Y46110000D03*
D14*
X88390000Y46110000D03*
D13*
X85850000Y43570000D03*
D14*
X88390000Y43570000D03*
X85850000Y41030000D03*
X88390000Y41030000D03*
X85850000Y38490000D03*
X88390000Y38490000D03*
X85850000Y35950000D03*
X88390000Y35950000D03*
X85850000Y33410000D03*
X88390000Y33410000D03*
D15*
X82400000Y11850000D03*
X88900000Y11850000D03*
D12*
X59900000Y6300000D03*
D13*
X59900000Y8840000D03*
X62440000Y6300000D03*
D14*
X62440000Y8840000D03*
D13*
X64980000Y6300000D03*
D14*
X64980000Y8840000D03*
D16*
X5350000Y23050000D03*
D11*
X5350000Y25590000D03*
D16*
X5400000Y20050000D03*
D11*
X5400000Y17510000D03*
D17*
X67500000Y54000000D03*
D18*
X67500000Y61500000D03*
X70000000Y61500000D03*
X65000000Y61500000D03*
X70000000Y47000000D03*
X65000000Y47000000D03*
D19*
X73025000Y54000000D03*
X61975000Y54000000D03*
D16*
X42200000Y13700000D03*
D11*
X42200000Y16240000D03*
X39660000Y13700000D03*
X39660000Y16240000D03*
X37120000Y13700000D03*
X37120000Y16240000D03*
X34580000Y13700000D03*
X34580000Y16240000D03*
X52250000Y17250000D03*
X26550000Y23000000D03*
X35230000Y5750000D03*
X37770000Y5750000D03*
D16*
X5100000Y39150000D03*
D11*
X5100000Y36610000D03*
X5100000Y34070000D03*
X90751200Y66752100D03*
X84248800Y66752100D03*
X90675000Y71247900D03*
X84248800Y71247900D03*
X73251200Y66752100D03*
X66748800Y66752100D03*
X73175000Y71247900D03*
X66748800Y71247900D03*
X55251200Y66752100D03*
X48748800Y66752100D03*
X55175000Y71247900D03*
X48748800Y71247900D03*
X38251200Y66752100D03*
X31748800Y66752100D03*
X38175000Y71247900D03*
X31748800Y71247900D03*
X67198800Y26197900D03*
X73701200Y26197900D03*
X67275000Y21702100D03*
X73701200Y21702100D03*
X53001200Y9752100D03*
X46498800Y9752100D03*
X52925000Y14247900D03*
X46498800Y14247900D03*
X28200000Y51400000D03*
X30600000Y49600000D03*
D20*
X24127080Y6347280D03*
X19127080Y6347280D03*
D21*
X18127080Y3647280D03*
X25127080Y3647280D03*
M02*
