G04 #@! TF.FileFunction,Legend,Bot*
%FSLAX46Y46*%
G04 Gerber Fmt 4.6, Leading zero omitted, Abs format (unit mm)*
G04 Created by KiCad (PCBNEW 4.0.4+dfsg1-stable) date Tue Mar  7 15:21:03 2017*
%MOMM*%
%LPD*%
G01*
G04 APERTURE LIST*
%ADD10C,0.100000*%
%ADD11C,0.150000*%
%ADD12C,2.400000*%
%ADD13R,1.900000X0.950000*%
%ADD14R,0.950000X1.900000*%
%ADD15R,1.600000X1.150000*%
%ADD16R,1.000000X0.900000*%
%ADD17R,1.150000X1.600000*%
%ADD18R,1.700000X1.000000*%
%ADD19R,2.200000X2.200000*%
%ADD20O,2.200000X2.200000*%
%ADD21C,2.200000*%
%ADD22R,1.100000X1.400000*%
%ADD23R,1.400000X1.100000*%
%ADD24R,1.600000X1.000000*%
%ADD25C,1.900000*%
%ADD26R,2.400000X2.400000*%
%ADD27R,1.400760X2.901900*%
%ADD28R,2.398980X4.400500*%
%ADD29R,1.600000X1.300000*%
%ADD30R,1.300000X1.600000*%
%ADD31R,1.100000X1.300000*%
%ADD32R,1.300000X1.300000*%
%ADD33C,2.500000*%
%ADD34C,2.600000*%
%ADD35R,1.950000X3.050000*%
%ADD36R,0.850000X1.850000*%
%ADD37R,6.000700X2.500580*%
%ADD38R,1.600000X2.300000*%
%ADD39C,0.600000*%
%ADD40R,1.000000X1.700000*%
%ADD41R,0.800000X1.750000*%
%ADD42C,1.950000*%
%ADD43R,2.300000X2.300000*%
G04 APERTURE END LIST*
D10*
D11*
X46831620Y22500000D02*
G75*
G03X46831620Y22500000I-1831620J0D01*
G01*
X48302000Y19706000D02*
X48302000Y25294000D01*
X48302000Y25294000D02*
X41698000Y25294000D01*
X41698000Y25294000D02*
X41698000Y19706000D01*
X41698000Y19706000D02*
X48302000Y19706000D01*
X44011900Y47555100D02*
X44011900Y46980100D01*
X33661900Y47555100D02*
X33661900Y46880100D01*
X33661900Y37205100D02*
X33661900Y37880100D01*
X44011900Y37205100D02*
X44011900Y37880100D01*
X44011900Y47555100D02*
X43336900Y47555100D01*
X44011900Y37205100D02*
X43336900Y37205100D01*
X33661900Y37205100D02*
X34336900Y37205100D01*
X33661900Y47555100D02*
X34336900Y47555100D01*
X44011900Y46980100D02*
X45286900Y46980100D01*
X47300000Y44600000D02*
X48000000Y44600000D01*
X48000000Y45800000D02*
X47300000Y45800000D01*
X47350000Y46000000D02*
X48050000Y46000000D01*
X48050000Y47200000D02*
X47350000Y47200000D01*
X29150000Y46800000D02*
X28450000Y46800000D01*
X28450000Y45600000D02*
X29150000Y45600000D01*
X30550000Y45400000D02*
X29850000Y45400000D01*
X29850000Y44200000D02*
X30550000Y44200000D01*
X35450000Y51175000D02*
X35950000Y51175000D01*
X35950000Y50225000D02*
X35450000Y50225000D01*
X38250000Y50225000D02*
X37750000Y50225000D01*
X37750000Y51175000D02*
X38250000Y51175000D01*
X36600000Y34050000D02*
X36600000Y33350000D01*
X37800000Y33350000D02*
X37800000Y34050000D01*
X47050000Y39500000D02*
X47750000Y39500000D01*
X47750000Y40700000D02*
X47050000Y40700000D01*
X40750000Y50200000D02*
X41450000Y50200000D01*
X41450000Y51400000D02*
X40750000Y51400000D01*
X17750000Y8300000D02*
X18450000Y8300000D01*
X18450000Y9500000D02*
X17750000Y9500000D01*
X13050000Y58650000D02*
X13050000Y57950000D01*
X14250000Y57950000D02*
X14250000Y58650000D01*
X15750000Y55950000D02*
X15750000Y56650000D01*
X14550000Y56650000D02*
X14550000Y55950000D01*
X18300000Y61825000D02*
X17800000Y61825000D01*
X17800000Y62775000D02*
X18300000Y62775000D01*
X15500000Y62775000D02*
X16000000Y62775000D01*
X16000000Y61825000D02*
X15500000Y61825000D01*
X11050000Y62100000D02*
X11050000Y60100000D01*
X11050000Y60100000D02*
X8550000Y60100000D01*
X8550000Y60100000D02*
X8550000Y62100000D01*
X8550000Y62100000D02*
X11050000Y62100000D01*
X86649920Y19099340D02*
X86401000Y19399060D01*
X86401000Y19399060D02*
X86299400Y19548920D01*
X86299400Y19548920D02*
X86299400Y18700560D01*
X87000440Y20600480D02*
X87000440Y18799620D01*
X87000440Y20600480D02*
X86350200Y20600480D01*
X82499560Y20600480D02*
X82499560Y18799620D01*
X82499560Y20600480D02*
X83149800Y20600480D01*
X53250000Y45925000D02*
X52250000Y45925000D01*
X52250000Y44575000D02*
X53250000Y44575000D01*
X71650000Y58325000D02*
X70650000Y58325000D01*
X70650000Y56975000D02*
X71650000Y56975000D01*
X79725000Y67000000D02*
X79725000Y66000000D01*
X81075000Y66000000D02*
X81075000Y67000000D01*
X62325000Y67200000D02*
X62325000Y66200000D01*
X63675000Y66200000D02*
X63675000Y67200000D01*
X63100000Y23625000D02*
X64100000Y23625000D01*
X64100000Y24975000D02*
X63100000Y24975000D01*
X81325000Y67000000D02*
X81325000Y66000000D01*
X82675000Y66000000D02*
X82675000Y67000000D01*
X63925000Y67200000D02*
X63925000Y66200000D01*
X65275000Y66200000D02*
X65275000Y67200000D01*
X63100000Y25275000D02*
X64100000Y25275000D01*
X64100000Y26625000D02*
X63100000Y26625000D01*
X64350000Y58025000D02*
X63350000Y58025000D01*
X63350000Y56675000D02*
X64350000Y56675000D01*
X35700000Y62575000D02*
X34700000Y62575000D01*
X34700000Y61225000D02*
X35700000Y61225000D01*
X52500000Y62775000D02*
X51500000Y62775000D01*
X51500000Y61425000D02*
X52500000Y61425000D01*
X52350000Y46325000D02*
X53350000Y46325000D01*
X53350000Y47675000D02*
X52350000Y47675000D01*
X35700000Y64175000D02*
X34700000Y64175000D01*
X34700000Y62825000D02*
X35700000Y62825000D01*
X52500000Y64375000D02*
X51500000Y64375000D01*
X51500000Y63025000D02*
X52500000Y63025000D01*
X13400000Y40425000D02*
X12400000Y40425000D01*
X12400000Y39075000D02*
X13400000Y39075000D01*
X13450000Y43575000D02*
X12450000Y43575000D01*
X12450000Y42225000D02*
X13450000Y42225000D01*
X24000000Y44575000D02*
X25000000Y44575000D01*
X25000000Y45925000D02*
X24000000Y45925000D01*
X23325000Y57000000D02*
X23325000Y56000000D01*
X24675000Y56000000D02*
X24675000Y57000000D01*
X36225000Y32000000D02*
X36225000Y33000000D01*
X34875000Y33000000D02*
X34875000Y32000000D01*
X63000000Y32475000D02*
X64000000Y32475000D01*
X64000000Y33825000D02*
X63000000Y33825000D01*
X37875000Y19500000D02*
X37875000Y20500000D01*
X36525000Y20500000D02*
X36525000Y19500000D01*
X40225000Y19550000D02*
X40225000Y20550000D01*
X38875000Y20550000D02*
X38875000Y19550000D01*
X11375000Y58800000D02*
X11375000Y57800000D01*
X12725000Y57800000D02*
X12725000Y58800000D01*
X16600000Y53225000D02*
X15600000Y53225000D01*
X15600000Y51875000D02*
X16600000Y51875000D01*
X37075000Y10150000D02*
X37075000Y9150000D01*
X38425000Y9150000D02*
X38425000Y10150000D01*
X34325000Y9050000D02*
X34325000Y10050000D01*
X32975000Y10050000D02*
X32975000Y9050000D01*
X80350000Y47700000D02*
X81350000Y47700000D01*
X80850000Y47200000D02*
X80850000Y48200000D01*
X79850000Y46700000D02*
X79850000Y48700000D01*
X79850000Y48700000D02*
X81850000Y48700000D01*
X81850000Y48700000D02*
X81850000Y46700000D01*
X81850000Y46700000D02*
X79850000Y46700000D01*
X31150380Y57099360D02*
X42849620Y57099360D01*
X42849620Y52100640D02*
X31150380Y52100640D01*
X42849620Y57099360D02*
X42849620Y56251000D01*
X42849620Y52100640D02*
X42849620Y52949000D01*
X31150380Y57099360D02*
X31150380Y56251000D01*
X31150380Y52100640D02*
X31150380Y52949000D01*
X26400000Y11250000D02*
X26400000Y11950000D01*
X25200000Y11950000D02*
X25200000Y11250000D01*
X64300000Y23200000D02*
X64300000Y21200000D01*
X64800000Y23200000D02*
X64800000Y21200000D01*
X64800000Y21200000D02*
X62300000Y21200000D01*
X62300000Y21200000D02*
X62300000Y23200000D01*
X62300000Y23200000D02*
X64800000Y23200000D01*
X34750000Y20750000D02*
X36750000Y20750000D01*
X34750000Y21250000D02*
X36750000Y21250000D01*
X36750000Y21250000D02*
X36750000Y18750000D01*
X36750000Y18750000D02*
X34750000Y18750000D01*
X34750000Y18750000D02*
X34750000Y21250000D01*
X36650000Y9050000D02*
X34650000Y9050000D01*
X36650000Y8550000D02*
X34650000Y8550000D01*
X34650000Y8550000D02*
X34650000Y11050000D01*
X34650000Y11050000D02*
X36650000Y11050000D01*
X36650000Y11050000D02*
X36650000Y8550000D01*
X42775000Y7250000D02*
X42775000Y8250000D01*
X41425000Y8250000D02*
X41425000Y7250000D01*
X89331620Y69000000D02*
G75*
G03X89331620Y69000000I-1831620J0D01*
G01*
X90294000Y72302000D02*
X84706000Y72302000D01*
X84706000Y72302000D02*
X84706000Y65698000D01*
X84706000Y65698000D02*
X90294000Y65698000D01*
X90294000Y65698000D02*
X90294000Y72302000D01*
X71831620Y69000000D02*
G75*
G03X71831620Y69000000I-1831620J0D01*
G01*
X72794000Y72302000D02*
X67206000Y72302000D01*
X67206000Y72302000D02*
X67206000Y65698000D01*
X67206000Y65698000D02*
X72794000Y65698000D01*
X72794000Y65698000D02*
X72794000Y72302000D01*
X53831620Y69000000D02*
G75*
G03X53831620Y69000000I-1831620J0D01*
G01*
X54794000Y72302000D02*
X49206000Y72302000D01*
X49206000Y72302000D02*
X49206000Y65698000D01*
X49206000Y65698000D02*
X54794000Y65698000D01*
X54794000Y65698000D02*
X54794000Y72302000D01*
X36831620Y69000000D02*
G75*
G03X36831620Y69000000I-1831620J0D01*
G01*
X37794000Y72302000D02*
X32206000Y72302000D01*
X32206000Y72302000D02*
X32206000Y65698000D01*
X32206000Y65698000D02*
X37794000Y65698000D01*
X37794000Y65698000D02*
X37794000Y72302000D01*
X72281620Y23950000D02*
G75*
G03X72281620Y23950000I-1831620J0D01*
G01*
X67656000Y20648000D02*
X73244000Y20648000D01*
X73244000Y20648000D02*
X73244000Y27252000D01*
X73244000Y27252000D02*
X67656000Y27252000D01*
X67656000Y27252000D02*
X67656000Y20648000D01*
X51581620Y12000000D02*
G75*
G03X51581620Y12000000I-1831620J0D01*
G01*
X52544000Y15302000D02*
X46956000Y15302000D01*
X46956000Y15302000D02*
X46956000Y8698000D01*
X46956000Y8698000D02*
X52544000Y8698000D01*
X52544000Y8698000D02*
X52544000Y15302000D01*
X42378190Y45775619D02*
X42378190Y46775619D01*
X41330571Y45870857D02*
X41378190Y45823238D01*
X41521047Y45775619D01*
X41616285Y45775619D01*
X41759143Y45823238D01*
X41854381Y45918476D01*
X41902000Y46013714D01*
X41949619Y46204190D01*
X41949619Y46347048D01*
X41902000Y46537524D01*
X41854381Y46632762D01*
X41759143Y46728000D01*
X41616285Y46775619D01*
X41521047Y46775619D01*
X41378190Y46728000D01*
X41330571Y46680381D01*
X40378190Y45775619D02*
X40949619Y45775619D01*
X40663905Y45775619D02*
X40663905Y46775619D01*
X40759143Y46632762D01*
X40854381Y46537524D01*
X40949619Y46489905D01*
X47816666Y42942857D02*
X47864285Y42895238D01*
X48007142Y42847619D01*
X48102380Y42847619D01*
X48245238Y42895238D01*
X48340476Y42990476D01*
X48388095Y43085714D01*
X48435714Y43276190D01*
X48435714Y43419048D01*
X48388095Y43609524D01*
X48340476Y43704762D01*
X48245238Y43800000D01*
X48102380Y43847619D01*
X48007142Y43847619D01*
X47864285Y43800000D01*
X47816666Y43752381D01*
X46864285Y42847619D02*
X47435714Y42847619D01*
X47150000Y42847619D02*
X47150000Y43847619D01*
X47245238Y43704762D01*
X47340476Y43609524D01*
X47435714Y43561905D01*
X48934666Y47902857D02*
X48982285Y47855238D01*
X49125142Y47807619D01*
X49220380Y47807619D01*
X49363238Y47855238D01*
X49458476Y47950476D01*
X49506095Y48045714D01*
X49553714Y48236190D01*
X49553714Y48379048D01*
X49506095Y48569524D01*
X49458476Y48664762D01*
X49363238Y48760000D01*
X49220380Y48807619D01*
X49125142Y48807619D01*
X48982285Y48760000D01*
X48934666Y48712381D01*
X48553714Y48712381D02*
X48506095Y48760000D01*
X48410857Y48807619D01*
X48172761Y48807619D01*
X48077523Y48760000D01*
X48029904Y48712381D01*
X47982285Y48617143D01*
X47982285Y48521905D01*
X48029904Y48379048D01*
X48601333Y47807619D01*
X47982285Y47807619D01*
X28868666Y47394857D02*
X28916285Y47347238D01*
X29059142Y47299619D01*
X29154380Y47299619D01*
X29297238Y47347238D01*
X29392476Y47442476D01*
X29440095Y47537714D01*
X29487714Y47728190D01*
X29487714Y47871048D01*
X29440095Y48061524D01*
X29392476Y48156762D01*
X29297238Y48252000D01*
X29154380Y48299619D01*
X29059142Y48299619D01*
X28916285Y48252000D01*
X28868666Y48204381D01*
X28535333Y48299619D02*
X27916285Y48299619D01*
X28249619Y47918667D01*
X28106761Y47918667D01*
X28011523Y47871048D01*
X27963904Y47823429D01*
X27916285Y47728190D01*
X27916285Y47490095D01*
X27963904Y47394857D01*
X28011523Y47347238D01*
X28106761Y47299619D01*
X28392476Y47299619D01*
X28487714Y47347238D01*
X28535333Y47394857D01*
X29630666Y42822857D02*
X29678285Y42775238D01*
X29821142Y42727619D01*
X29916380Y42727619D01*
X30059238Y42775238D01*
X30154476Y42870476D01*
X30202095Y42965714D01*
X30249714Y43156190D01*
X30249714Y43299048D01*
X30202095Y43489524D01*
X30154476Y43584762D01*
X30059238Y43680000D01*
X29916380Y43727619D01*
X29821142Y43727619D01*
X29678285Y43680000D01*
X29630666Y43632381D01*
X28773523Y43394286D02*
X28773523Y42727619D01*
X29011619Y43775238D02*
X29249714Y43060952D01*
X28630666Y43060952D01*
X32424666Y50188857D02*
X32472285Y50141238D01*
X32615142Y50093619D01*
X32710380Y50093619D01*
X32853238Y50141238D01*
X32948476Y50236476D01*
X32996095Y50331714D01*
X33043714Y50522190D01*
X33043714Y50665048D01*
X32996095Y50855524D01*
X32948476Y50950762D01*
X32853238Y51046000D01*
X32710380Y51093619D01*
X32615142Y51093619D01*
X32472285Y51046000D01*
X32424666Y50998381D01*
X31519904Y51093619D02*
X31996095Y51093619D01*
X32043714Y50617429D01*
X31996095Y50665048D01*
X31900857Y50712667D01*
X31662761Y50712667D01*
X31567523Y50665048D01*
X31519904Y50617429D01*
X31472285Y50522190D01*
X31472285Y50284095D01*
X31519904Y50188857D01*
X31567523Y50141238D01*
X31662761Y50093619D01*
X31900857Y50093619D01*
X31996095Y50141238D01*
X32043714Y50188857D01*
X37504666Y51966857D02*
X37552285Y51919238D01*
X37695142Y51871619D01*
X37790380Y51871619D01*
X37933238Y51919238D01*
X38028476Y52014476D01*
X38076095Y52109714D01*
X38123714Y52300190D01*
X38123714Y52443048D01*
X38076095Y52633524D01*
X38028476Y52728762D01*
X37933238Y52824000D01*
X37790380Y52871619D01*
X37695142Y52871619D01*
X37552285Y52824000D01*
X37504666Y52776381D01*
X36647523Y52871619D02*
X36838000Y52871619D01*
X36933238Y52824000D01*
X36980857Y52776381D01*
X37076095Y52633524D01*
X37123714Y52443048D01*
X37123714Y52062095D01*
X37076095Y51966857D01*
X37028476Y51919238D01*
X36933238Y51871619D01*
X36742761Y51871619D01*
X36647523Y51919238D01*
X36599904Y51966857D01*
X36552285Y52062095D01*
X36552285Y52300190D01*
X36599904Y52395429D01*
X36647523Y52443048D01*
X36742761Y52490667D01*
X36933238Y52490667D01*
X37028476Y52443048D01*
X37076095Y52395429D01*
X37123714Y52300190D01*
X35657143Y33866666D02*
X35704762Y33914285D01*
X35752381Y34057142D01*
X35752381Y34152380D01*
X35704762Y34295238D01*
X35609524Y34390476D01*
X35514286Y34438095D01*
X35323810Y34485714D01*
X35180952Y34485714D01*
X34990476Y34438095D01*
X34895238Y34390476D01*
X34800000Y34295238D01*
X34752381Y34152380D01*
X34752381Y34057142D01*
X34800000Y33914285D01*
X34847619Y33866666D01*
X34752381Y33533333D02*
X34752381Y32866666D01*
X35752381Y33295238D01*
X47566666Y37842857D02*
X47614285Y37795238D01*
X47757142Y37747619D01*
X47852380Y37747619D01*
X47995238Y37795238D01*
X48090476Y37890476D01*
X48138095Y37985714D01*
X48185714Y38176190D01*
X48185714Y38319048D01*
X48138095Y38509524D01*
X48090476Y38604762D01*
X47995238Y38700000D01*
X47852380Y38747619D01*
X47757142Y38747619D01*
X47614285Y38700000D01*
X47566666Y38652381D01*
X46995238Y38319048D02*
X47090476Y38366667D01*
X47138095Y38414286D01*
X47185714Y38509524D01*
X47185714Y38557143D01*
X47138095Y38652381D01*
X47090476Y38700000D01*
X46995238Y38747619D01*
X46804761Y38747619D01*
X46709523Y38700000D01*
X46661904Y38652381D01*
X46614285Y38557143D01*
X46614285Y38509524D01*
X46661904Y38414286D01*
X46709523Y38366667D01*
X46804761Y38319048D01*
X46995238Y38319048D01*
X47090476Y38271429D01*
X47138095Y38223810D01*
X47185714Y38128571D01*
X47185714Y37938095D01*
X47138095Y37842857D01*
X47090476Y37795238D01*
X46995238Y37747619D01*
X46804761Y37747619D01*
X46709523Y37795238D01*
X46661904Y37842857D01*
X46614285Y37938095D01*
X46614285Y38128571D01*
X46661904Y38223810D01*
X46709523Y38271429D01*
X46804761Y38319048D01*
X41568666Y52220857D02*
X41616285Y52173238D01*
X41759142Y52125619D01*
X41854380Y52125619D01*
X41997238Y52173238D01*
X42092476Y52268476D01*
X42140095Y52363714D01*
X42187714Y52554190D01*
X42187714Y52697048D01*
X42140095Y52887524D01*
X42092476Y52982762D01*
X41997238Y53078000D01*
X41854380Y53125619D01*
X41759142Y53125619D01*
X41616285Y53078000D01*
X41568666Y53030381D01*
X41092476Y52125619D02*
X40902000Y52125619D01*
X40806761Y52173238D01*
X40759142Y52220857D01*
X40663904Y52363714D01*
X40616285Y52554190D01*
X40616285Y52935143D01*
X40663904Y53030381D01*
X40711523Y53078000D01*
X40806761Y53125619D01*
X40997238Y53125619D01*
X41092476Y53078000D01*
X41140095Y53030381D01*
X41187714Y52935143D01*
X41187714Y52697048D01*
X41140095Y52601810D01*
X41092476Y52554190D01*
X40997238Y52506571D01*
X40806761Y52506571D01*
X40711523Y52554190D01*
X40663904Y52601810D01*
X40616285Y52697048D01*
X15374857Y8532857D02*
X15422476Y8485238D01*
X15565333Y8437619D01*
X15660571Y8437619D01*
X15803429Y8485238D01*
X15898667Y8580476D01*
X15946286Y8675714D01*
X15993905Y8866190D01*
X15993905Y9009048D01*
X15946286Y9199524D01*
X15898667Y9294762D01*
X15803429Y9390000D01*
X15660571Y9437619D01*
X15565333Y9437619D01*
X15422476Y9390000D01*
X15374857Y9342381D01*
X14422476Y8437619D02*
X14993905Y8437619D01*
X14708191Y8437619D02*
X14708191Y9437619D01*
X14803429Y9294762D01*
X14898667Y9199524D01*
X14993905Y9151905D01*
X13470095Y8437619D02*
X14041524Y8437619D01*
X13755810Y8437619D02*
X13755810Y9437619D01*
X13851048Y9294762D01*
X13946286Y9199524D01*
X14041524Y9151905D01*
X13311143Y62618857D02*
X13358762Y62666476D01*
X13406381Y62809333D01*
X13406381Y62904571D01*
X13358762Y63047429D01*
X13263524Y63142667D01*
X13168286Y63190286D01*
X12977810Y63237905D01*
X12834952Y63237905D01*
X12644476Y63190286D01*
X12549238Y63142667D01*
X12454000Y63047429D01*
X12406381Y62904571D01*
X12406381Y62809333D01*
X12454000Y62666476D01*
X12501619Y62618857D01*
X13406381Y61666476D02*
X13406381Y62237905D01*
X13406381Y61952191D02*
X12406381Y61952191D01*
X12549238Y62047429D01*
X12644476Y62142667D01*
X12692095Y62237905D01*
X12406381Y61333143D02*
X12406381Y60714095D01*
X12787333Y61047429D01*
X12787333Y60904571D01*
X12834952Y60809333D01*
X12882571Y60761714D01*
X12977810Y60714095D01*
X13215905Y60714095D01*
X13311143Y60761714D01*
X13358762Y60809333D01*
X13406381Y60904571D01*
X13406381Y61190286D01*
X13358762Y61285524D01*
X13311143Y61333143D01*
X17407143Y56942857D02*
X17454762Y56990476D01*
X17502381Y57133333D01*
X17502381Y57228571D01*
X17454762Y57371429D01*
X17359524Y57466667D01*
X17264286Y57514286D01*
X17073810Y57561905D01*
X16930952Y57561905D01*
X16740476Y57514286D01*
X16645238Y57466667D01*
X16550000Y57371429D01*
X16502381Y57228571D01*
X16502381Y57133333D01*
X16550000Y56990476D01*
X16597619Y56942857D01*
X17502381Y55990476D02*
X17502381Y56561905D01*
X17502381Y56276191D02*
X16502381Y56276191D01*
X16645238Y56371429D01*
X16740476Y56466667D01*
X16788095Y56561905D01*
X16835714Y55133333D02*
X17502381Y55133333D01*
X16454762Y55371429D02*
X17169048Y55609524D01*
X17169048Y54990476D01*
X18692857Y60242857D02*
X18740476Y60195238D01*
X18883333Y60147619D01*
X18978571Y60147619D01*
X19121429Y60195238D01*
X19216667Y60290476D01*
X19264286Y60385714D01*
X19311905Y60576190D01*
X19311905Y60719048D01*
X19264286Y60909524D01*
X19216667Y61004762D01*
X19121429Y61100000D01*
X18978571Y61147619D01*
X18883333Y61147619D01*
X18740476Y61100000D01*
X18692857Y61052381D01*
X17740476Y60147619D02*
X18311905Y60147619D01*
X18026191Y60147619D02*
X18026191Y61147619D01*
X18121429Y61004762D01*
X18216667Y60909524D01*
X18311905Y60861905D01*
X16835714Y61147619D02*
X17311905Y61147619D01*
X17359524Y60671429D01*
X17311905Y60719048D01*
X17216667Y60766667D01*
X16978571Y60766667D01*
X16883333Y60719048D01*
X16835714Y60671429D01*
X16788095Y60576190D01*
X16788095Y60338095D01*
X16835714Y60242857D01*
X16883333Y60195238D01*
X16978571Y60147619D01*
X17216667Y60147619D01*
X17311905Y60195238D01*
X17359524Y60242857D01*
X16292857Y62842857D02*
X16340476Y62795238D01*
X16483333Y62747619D01*
X16578571Y62747619D01*
X16721429Y62795238D01*
X16816667Y62890476D01*
X16864286Y62985714D01*
X16911905Y63176190D01*
X16911905Y63319048D01*
X16864286Y63509524D01*
X16816667Y63604762D01*
X16721429Y63700000D01*
X16578571Y63747619D01*
X16483333Y63747619D01*
X16340476Y63700000D01*
X16292857Y63652381D01*
X15340476Y62747619D02*
X15911905Y62747619D01*
X15626191Y62747619D02*
X15626191Y63747619D01*
X15721429Y63604762D01*
X15816667Y63509524D01*
X15911905Y63461905D01*
X14483333Y63747619D02*
X14673810Y63747619D01*
X14769048Y63700000D01*
X14816667Y63652381D01*
X14911905Y63509524D01*
X14959524Y63319048D01*
X14959524Y62938095D01*
X14911905Y62842857D01*
X14864286Y62795238D01*
X14769048Y62747619D01*
X14578571Y62747619D01*
X14483333Y62795238D01*
X14435714Y62842857D01*
X14388095Y62938095D01*
X14388095Y63176190D01*
X14435714Y63271429D01*
X14483333Y63319048D01*
X14578571Y63366667D01*
X14769048Y63366667D01*
X14864286Y63319048D01*
X14911905Y63271429D01*
X14959524Y63176190D01*
X10288095Y58647619D02*
X10288095Y59647619D01*
X10050000Y59647619D01*
X9907142Y59600000D01*
X9811904Y59504762D01*
X9764285Y59409524D01*
X9716666Y59219048D01*
X9716666Y59076190D01*
X9764285Y58885714D01*
X9811904Y58790476D01*
X9907142Y58695238D01*
X10050000Y58647619D01*
X10288095Y58647619D01*
X8859523Y59647619D02*
X9050000Y59647619D01*
X9145238Y59600000D01*
X9192857Y59552381D01*
X9288095Y59409524D01*
X9335714Y59219048D01*
X9335714Y58838095D01*
X9288095Y58742857D01*
X9240476Y58695238D01*
X9145238Y58647619D01*
X8954761Y58647619D01*
X8859523Y58695238D01*
X8811904Y58742857D01*
X8764285Y58838095D01*
X8764285Y59076190D01*
X8811904Y59171429D01*
X8859523Y59219048D01*
X8954761Y59266667D01*
X9145238Y59266667D01*
X9240476Y59219048D01*
X9288095Y59171429D01*
X9335714Y59076190D01*
X58816667Y48839429D02*
X58483333Y48839429D01*
X58340476Y48315619D02*
X58816667Y48315619D01*
X58816667Y49315619D01*
X58340476Y49315619D01*
X57959524Y48363238D02*
X57816667Y48315619D01*
X57578571Y48315619D01*
X57483333Y48363238D01*
X57435714Y48410857D01*
X57388095Y48506095D01*
X57388095Y48601333D01*
X57435714Y48696571D01*
X57483333Y48744190D01*
X57578571Y48791810D01*
X57769048Y48839429D01*
X57864286Y48887048D01*
X57911905Y48934667D01*
X57959524Y49029905D01*
X57959524Y49125143D01*
X57911905Y49220381D01*
X57864286Y49268000D01*
X57769048Y49315619D01*
X57530952Y49315619D01*
X57388095Y49268000D01*
X56959524Y48315619D02*
X56959524Y49315619D01*
X56721429Y49315619D01*
X56578571Y49268000D01*
X56483333Y49172762D01*
X56435714Y49077524D01*
X56388095Y48887048D01*
X56388095Y48744190D01*
X56435714Y48553714D01*
X56483333Y48458476D01*
X56578571Y48363238D01*
X56721429Y48315619D01*
X56959524Y48315619D01*
X55435714Y48315619D02*
X56007143Y48315619D01*
X55721429Y48315619D02*
X55721429Y49315619D01*
X55816667Y49172762D01*
X55911905Y49077524D01*
X56007143Y49029905D01*
X54178571Y58416667D02*
X54178571Y58083333D01*
X54702381Y57940476D02*
X54702381Y58416667D01*
X53702381Y58416667D01*
X53702381Y57940476D01*
X54654762Y57559524D02*
X54702381Y57416667D01*
X54702381Y57178571D01*
X54654762Y57083333D01*
X54607143Y57035714D01*
X54511905Y56988095D01*
X54416667Y56988095D01*
X54321429Y57035714D01*
X54273810Y57083333D01*
X54226190Y57178571D01*
X54178571Y57369048D01*
X54130952Y57464286D01*
X54083333Y57511905D01*
X53988095Y57559524D01*
X53892857Y57559524D01*
X53797619Y57511905D01*
X53750000Y57464286D01*
X53702381Y57369048D01*
X53702381Y57130952D01*
X53750000Y56988095D01*
X54702381Y56559524D02*
X53702381Y56559524D01*
X53702381Y56321429D01*
X53750000Y56178571D01*
X53845238Y56083333D01*
X53940476Y56035714D01*
X54130952Y55988095D01*
X54273810Y55988095D01*
X54464286Y56035714D01*
X54559524Y56083333D01*
X54654762Y56178571D01*
X54702381Y56321429D01*
X54702381Y56559524D01*
X53797619Y55607143D02*
X53750000Y55559524D01*
X53702381Y55464286D01*
X53702381Y55226190D01*
X53750000Y55130952D01*
X53797619Y55083333D01*
X53892857Y55035714D01*
X53988095Y55035714D01*
X54130952Y55083333D01*
X54702381Y55654762D01*
X54702381Y55035714D01*
X19328571Y11566667D02*
X19328571Y11233333D01*
X19852381Y11090476D02*
X19852381Y11566667D01*
X18852381Y11566667D01*
X18852381Y11090476D01*
X19804762Y10709524D02*
X19852381Y10566667D01*
X19852381Y10328571D01*
X19804762Y10233333D01*
X19757143Y10185714D01*
X19661905Y10138095D01*
X19566667Y10138095D01*
X19471429Y10185714D01*
X19423810Y10233333D01*
X19376190Y10328571D01*
X19328571Y10519048D01*
X19280952Y10614286D01*
X19233333Y10661905D01*
X19138095Y10709524D01*
X19042857Y10709524D01*
X18947619Y10661905D01*
X18900000Y10614286D01*
X18852381Y10519048D01*
X18852381Y10280952D01*
X18900000Y10138095D01*
X19852381Y9709524D02*
X18852381Y9709524D01*
X18852381Y9471429D01*
X18900000Y9328571D01*
X18995238Y9233333D01*
X19090476Y9185714D01*
X19280952Y9138095D01*
X19423810Y9138095D01*
X19614286Y9185714D01*
X19709524Y9233333D01*
X19804762Y9328571D01*
X19852381Y9471429D01*
X19852381Y9709524D01*
X18852381Y8804762D02*
X18852381Y8185714D01*
X19233333Y8519048D01*
X19233333Y8376190D01*
X19280952Y8280952D01*
X19328571Y8233333D01*
X19423810Y8185714D01*
X19661905Y8185714D01*
X19757143Y8233333D01*
X19804762Y8280952D01*
X19852381Y8376190D01*
X19852381Y8661905D01*
X19804762Y8757143D01*
X19757143Y8804762D01*
X84896038Y23753641D02*
X84991276Y23801260D01*
X85086514Y23896498D01*
X85229371Y24039355D01*
X85324610Y24086974D01*
X85419848Y24086974D01*
X85372229Y23848879D02*
X85467467Y23896498D01*
X85562705Y23991736D01*
X85610324Y24182212D01*
X85610324Y24515546D01*
X85562705Y24706022D01*
X85467467Y24801260D01*
X85372229Y24848879D01*
X85181752Y24848879D01*
X85086514Y24801260D01*
X84991276Y24706022D01*
X84943657Y24515546D01*
X84943657Y24182212D01*
X84991276Y23991736D01*
X85086514Y23896498D01*
X85181752Y23848879D01*
X85372229Y23848879D01*
X83991276Y23848879D02*
X84562705Y23848879D01*
X84276991Y23848879D02*
X84276991Y24848879D01*
X84372229Y24706022D01*
X84467467Y24610784D01*
X84562705Y24563165D01*
X52916666Y42897619D02*
X53250000Y43373810D01*
X53488095Y42897619D02*
X53488095Y43897619D01*
X53107142Y43897619D01*
X53011904Y43850000D01*
X52964285Y43802381D01*
X52916666Y43707143D01*
X52916666Y43564286D01*
X52964285Y43469048D01*
X53011904Y43421429D01*
X53107142Y43373810D01*
X53488095Y43373810D01*
X51964285Y42897619D02*
X52535714Y42897619D01*
X52250000Y42897619D02*
X52250000Y43897619D01*
X52345238Y43754762D01*
X52440476Y43659524D01*
X52535714Y43611905D01*
X71316666Y55297619D02*
X71650000Y55773810D01*
X71888095Y55297619D02*
X71888095Y56297619D01*
X71507142Y56297619D01*
X71411904Y56250000D01*
X71364285Y56202381D01*
X71316666Y56107143D01*
X71316666Y55964286D01*
X71364285Y55869048D01*
X71411904Y55821429D01*
X71507142Y55773810D01*
X71888095Y55773810D01*
X70935714Y56202381D02*
X70888095Y56250000D01*
X70792857Y56297619D01*
X70554761Y56297619D01*
X70459523Y56250000D01*
X70411904Y56202381D01*
X70364285Y56107143D01*
X70364285Y56011905D01*
X70411904Y55869048D01*
X70983333Y55297619D01*
X70364285Y55297619D01*
X78938381Y66460666D02*
X78462190Y66794000D01*
X78938381Y67032095D02*
X77938381Y67032095D01*
X77938381Y66651142D01*
X77986000Y66555904D01*
X78033619Y66508285D01*
X78128857Y66460666D01*
X78271714Y66460666D01*
X78366952Y66508285D01*
X78414571Y66555904D01*
X78462190Y66651142D01*
X78462190Y67032095D01*
X77938381Y66127333D02*
X77938381Y65508285D01*
X78319333Y65841619D01*
X78319333Y65698761D01*
X78366952Y65603523D01*
X78414571Y65555904D01*
X78509810Y65508285D01*
X78747905Y65508285D01*
X78843143Y65555904D01*
X78890762Y65603523D01*
X78938381Y65698761D01*
X78938381Y65984476D01*
X78890762Y66079714D01*
X78843143Y66127333D01*
X61666381Y66968666D02*
X61190190Y67302000D01*
X61666381Y67540095D02*
X60666381Y67540095D01*
X60666381Y67159142D01*
X60714000Y67063904D01*
X60761619Y67016285D01*
X60856857Y66968666D01*
X60999714Y66968666D01*
X61094952Y67016285D01*
X61142571Y67063904D01*
X61190190Y67159142D01*
X61190190Y67540095D01*
X60999714Y66111523D02*
X61666381Y66111523D01*
X60618762Y66349619D02*
X61333048Y66587714D01*
X61333048Y65968666D01*
X63766666Y25747619D02*
X64100000Y26223810D01*
X64338095Y25747619D02*
X64338095Y26747619D01*
X63957142Y26747619D01*
X63861904Y26700000D01*
X63814285Y26652381D01*
X63766666Y26557143D01*
X63766666Y26414286D01*
X63814285Y26319048D01*
X63861904Y26271429D01*
X63957142Y26223810D01*
X64338095Y26223810D01*
X62861904Y26747619D02*
X63338095Y26747619D01*
X63385714Y26271429D01*
X63338095Y26319048D01*
X63242857Y26366667D01*
X63004761Y26366667D01*
X62909523Y26319048D01*
X62861904Y26271429D01*
X62814285Y26176190D01*
X62814285Y25938095D01*
X62861904Y25842857D01*
X62909523Y25795238D01*
X63004761Y25747619D01*
X63242857Y25747619D01*
X63338095Y25795238D01*
X63385714Y25842857D01*
X84352381Y66666666D02*
X83876190Y67000000D01*
X84352381Y67238095D02*
X83352381Y67238095D01*
X83352381Y66857142D01*
X83400000Y66761904D01*
X83447619Y66714285D01*
X83542857Y66666666D01*
X83685714Y66666666D01*
X83780952Y66714285D01*
X83828571Y66761904D01*
X83876190Y66857142D01*
X83876190Y67238095D01*
X83352381Y65809523D02*
X83352381Y66000000D01*
X83400000Y66095238D01*
X83447619Y66142857D01*
X83590476Y66238095D01*
X83780952Y66285714D01*
X84161905Y66285714D01*
X84257143Y66238095D01*
X84304762Y66190476D01*
X84352381Y66095238D01*
X84352381Y65904761D01*
X84304762Y65809523D01*
X84257143Y65761904D01*
X84161905Y65714285D01*
X83923810Y65714285D01*
X83828571Y65761904D01*
X83780952Y65809523D01*
X83733333Y65904761D01*
X83733333Y66095238D01*
X83780952Y66190476D01*
X83828571Y66238095D01*
X83923810Y66285714D01*
X64968381Y70270666D02*
X64492190Y70604000D01*
X64968381Y70842095D02*
X63968381Y70842095D01*
X63968381Y70461142D01*
X64016000Y70365904D01*
X64063619Y70318285D01*
X64158857Y70270666D01*
X64301714Y70270666D01*
X64396952Y70318285D01*
X64444571Y70365904D01*
X64492190Y70461142D01*
X64492190Y70842095D01*
X63968381Y69937333D02*
X63968381Y69270666D01*
X64968381Y69699238D01*
X63766666Y27397619D02*
X64100000Y27873810D01*
X64338095Y27397619D02*
X64338095Y28397619D01*
X63957142Y28397619D01*
X63861904Y28350000D01*
X63814285Y28302381D01*
X63766666Y28207143D01*
X63766666Y28064286D01*
X63814285Y27969048D01*
X63861904Y27921429D01*
X63957142Y27873810D01*
X64338095Y27873810D01*
X63195238Y27969048D02*
X63290476Y28016667D01*
X63338095Y28064286D01*
X63385714Y28159524D01*
X63385714Y28207143D01*
X63338095Y28302381D01*
X63290476Y28350000D01*
X63195238Y28397619D01*
X63004761Y28397619D01*
X62909523Y28350000D01*
X62861904Y28302381D01*
X62814285Y28207143D01*
X62814285Y28159524D01*
X62861904Y28064286D01*
X62909523Y28016667D01*
X63004761Y27969048D01*
X63195238Y27969048D01*
X63290476Y27921429D01*
X63338095Y27873810D01*
X63385714Y27778571D01*
X63385714Y27588095D01*
X63338095Y27492857D01*
X63290476Y27445238D01*
X63195238Y27397619D01*
X63004761Y27397619D01*
X62909523Y27445238D01*
X62861904Y27492857D01*
X62814285Y27588095D01*
X62814285Y27778571D01*
X62861904Y27873810D01*
X62909523Y27921429D01*
X63004761Y27969048D01*
X64016666Y54997619D02*
X64350000Y55473810D01*
X64588095Y54997619D02*
X64588095Y55997619D01*
X64207142Y55997619D01*
X64111904Y55950000D01*
X64064285Y55902381D01*
X64016666Y55807143D01*
X64016666Y55664286D01*
X64064285Y55569048D01*
X64111904Y55521429D01*
X64207142Y55473810D01*
X64588095Y55473810D01*
X63540476Y54997619D02*
X63350000Y54997619D01*
X63254761Y55045238D01*
X63207142Y55092857D01*
X63111904Y55235714D01*
X63064285Y55426190D01*
X63064285Y55807143D01*
X63111904Y55902381D01*
X63159523Y55950000D01*
X63254761Y55997619D01*
X63445238Y55997619D01*
X63540476Y55950000D01*
X63588095Y55902381D01*
X63635714Y55807143D01*
X63635714Y55569048D01*
X63588095Y55473810D01*
X63540476Y55426190D01*
X63445238Y55378571D01*
X63254761Y55378571D01*
X63159523Y55426190D01*
X63111904Y55473810D01*
X63064285Y55569048D01*
X35842857Y59547619D02*
X36176191Y60023810D01*
X36414286Y59547619D02*
X36414286Y60547619D01*
X36033333Y60547619D01*
X35938095Y60500000D01*
X35890476Y60452381D01*
X35842857Y60357143D01*
X35842857Y60214286D01*
X35890476Y60119048D01*
X35938095Y60071429D01*
X36033333Y60023810D01*
X36414286Y60023810D01*
X34890476Y59547619D02*
X35461905Y59547619D01*
X35176191Y59547619D02*
X35176191Y60547619D01*
X35271429Y60404762D01*
X35366667Y60309524D01*
X35461905Y60261905D01*
X34271429Y60547619D02*
X34176190Y60547619D01*
X34080952Y60500000D01*
X34033333Y60452381D01*
X33985714Y60357143D01*
X33938095Y60166667D01*
X33938095Y59928571D01*
X33985714Y59738095D01*
X34033333Y59642857D01*
X34080952Y59595238D01*
X34176190Y59547619D01*
X34271429Y59547619D01*
X34366667Y59595238D01*
X34414286Y59642857D01*
X34461905Y59738095D01*
X34509524Y59928571D01*
X34509524Y60166667D01*
X34461905Y60357143D01*
X34414286Y60452381D01*
X34366667Y60500000D01*
X34271429Y60547619D01*
X52642857Y59747619D02*
X52976191Y60223810D01*
X53214286Y59747619D02*
X53214286Y60747619D01*
X52833333Y60747619D01*
X52738095Y60700000D01*
X52690476Y60652381D01*
X52642857Y60557143D01*
X52642857Y60414286D01*
X52690476Y60319048D01*
X52738095Y60271429D01*
X52833333Y60223810D01*
X53214286Y60223810D01*
X51690476Y59747619D02*
X52261905Y59747619D01*
X51976191Y59747619D02*
X51976191Y60747619D01*
X52071429Y60604762D01*
X52166667Y60509524D01*
X52261905Y60461905D01*
X50738095Y59747619D02*
X51309524Y59747619D01*
X51023810Y59747619D02*
X51023810Y60747619D01*
X51119048Y60604762D01*
X51214286Y60509524D01*
X51309524Y60461905D01*
X53220857Y48315619D02*
X53554191Y48791810D01*
X53792286Y48315619D02*
X53792286Y49315619D01*
X53411333Y49315619D01*
X53316095Y49268000D01*
X53268476Y49220381D01*
X53220857Y49125143D01*
X53220857Y48982286D01*
X53268476Y48887048D01*
X53316095Y48839429D01*
X53411333Y48791810D01*
X53792286Y48791810D01*
X52268476Y48315619D02*
X52839905Y48315619D01*
X52554191Y48315619D02*
X52554191Y49315619D01*
X52649429Y49172762D01*
X52744667Y49077524D01*
X52839905Y49029905D01*
X51887524Y49220381D02*
X51839905Y49268000D01*
X51744667Y49315619D01*
X51506571Y49315619D01*
X51411333Y49268000D01*
X51363714Y49220381D01*
X51316095Y49125143D01*
X51316095Y49029905D01*
X51363714Y48887048D01*
X51935143Y48315619D01*
X51316095Y48315619D01*
X35842857Y61147619D02*
X36176191Y61623810D01*
X36414286Y61147619D02*
X36414286Y62147619D01*
X36033333Y62147619D01*
X35938095Y62100000D01*
X35890476Y62052381D01*
X35842857Y61957143D01*
X35842857Y61814286D01*
X35890476Y61719048D01*
X35938095Y61671429D01*
X36033333Y61623810D01*
X36414286Y61623810D01*
X34890476Y61147619D02*
X35461905Y61147619D01*
X35176191Y61147619D02*
X35176191Y62147619D01*
X35271429Y62004762D01*
X35366667Y61909524D01*
X35461905Y61861905D01*
X34557143Y62147619D02*
X33938095Y62147619D01*
X34271429Y61766667D01*
X34128571Y61766667D01*
X34033333Y61719048D01*
X33985714Y61671429D01*
X33938095Y61576190D01*
X33938095Y61338095D01*
X33985714Y61242857D01*
X34033333Y61195238D01*
X34128571Y61147619D01*
X34414286Y61147619D01*
X34509524Y61195238D01*
X34557143Y61242857D01*
X56776857Y63301619D02*
X57110191Y63777810D01*
X57348286Y63301619D02*
X57348286Y64301619D01*
X56967333Y64301619D01*
X56872095Y64254000D01*
X56824476Y64206381D01*
X56776857Y64111143D01*
X56776857Y63968286D01*
X56824476Y63873048D01*
X56872095Y63825429D01*
X56967333Y63777810D01*
X57348286Y63777810D01*
X55824476Y63301619D02*
X56395905Y63301619D01*
X56110191Y63301619D02*
X56110191Y64301619D01*
X56205429Y64158762D01*
X56300667Y64063524D01*
X56395905Y64015905D01*
X54967333Y63968286D02*
X54967333Y63301619D01*
X55205429Y64349238D02*
X55443524Y63634952D01*
X54824476Y63634952D01*
X13596857Y37647619D02*
X13930191Y38123810D01*
X14168286Y37647619D02*
X14168286Y38647619D01*
X13787333Y38647619D01*
X13692095Y38600000D01*
X13644476Y38552381D01*
X13596857Y38457143D01*
X13596857Y38314286D01*
X13644476Y38219048D01*
X13692095Y38171429D01*
X13787333Y38123810D01*
X14168286Y38123810D01*
X12644476Y37647619D02*
X13215905Y37647619D01*
X12930191Y37647619D02*
X12930191Y38647619D01*
X13025429Y38504762D01*
X13120667Y38409524D01*
X13215905Y38361905D01*
X11787333Y38647619D02*
X11977810Y38647619D01*
X12073048Y38600000D01*
X12120667Y38552381D01*
X12215905Y38409524D01*
X12263524Y38219048D01*
X12263524Y37838095D01*
X12215905Y37742857D01*
X12168286Y37695238D01*
X12073048Y37647619D01*
X11882571Y37647619D01*
X11787333Y37695238D01*
X11739714Y37742857D01*
X11692095Y37838095D01*
X11692095Y38076190D01*
X11739714Y38171429D01*
X11787333Y38219048D01*
X11882571Y38266667D01*
X12073048Y38266667D01*
X12168286Y38219048D01*
X12215905Y38171429D01*
X12263524Y38076190D01*
X13342857Y40949619D02*
X13676191Y41425810D01*
X13914286Y40949619D02*
X13914286Y41949619D01*
X13533333Y41949619D01*
X13438095Y41902000D01*
X13390476Y41854381D01*
X13342857Y41759143D01*
X13342857Y41616286D01*
X13390476Y41521048D01*
X13438095Y41473429D01*
X13533333Y41425810D01*
X13914286Y41425810D01*
X12390476Y40949619D02*
X12961905Y40949619D01*
X12676191Y40949619D02*
X12676191Y41949619D01*
X12771429Y41806762D01*
X12866667Y41711524D01*
X12961905Y41663905D01*
X12057143Y41949619D02*
X11390476Y41949619D01*
X11819048Y40949619D01*
X25142857Y46697619D02*
X25476191Y47173810D01*
X25714286Y46697619D02*
X25714286Y47697619D01*
X25333333Y47697619D01*
X25238095Y47650000D01*
X25190476Y47602381D01*
X25142857Y47507143D01*
X25142857Y47364286D01*
X25190476Y47269048D01*
X25238095Y47221429D01*
X25333333Y47173810D01*
X25714286Y47173810D01*
X24190476Y46697619D02*
X24761905Y46697619D01*
X24476191Y46697619D02*
X24476191Y47697619D01*
X24571429Y47554762D01*
X24666667Y47459524D01*
X24761905Y47411905D01*
X23619048Y47269048D02*
X23714286Y47316667D01*
X23761905Y47364286D01*
X23809524Y47459524D01*
X23809524Y47507143D01*
X23761905Y47602381D01*
X23714286Y47650000D01*
X23619048Y47697619D01*
X23428571Y47697619D01*
X23333333Y47650000D01*
X23285714Y47602381D01*
X23238095Y47507143D01*
X23238095Y47459524D01*
X23285714Y47364286D01*
X23333333Y47316667D01*
X23428571Y47269048D01*
X23619048Y47269048D01*
X23714286Y47221429D01*
X23761905Y47173810D01*
X23809524Y47078571D01*
X23809524Y46888095D01*
X23761905Y46792857D01*
X23714286Y46745238D01*
X23619048Y46697619D01*
X23428571Y46697619D01*
X23333333Y46745238D01*
X23285714Y46792857D01*
X23238095Y46888095D01*
X23238095Y47078571D01*
X23285714Y47173810D01*
X23333333Y47221429D01*
X23428571Y47269048D01*
X26352381Y57142857D02*
X25876190Y57476191D01*
X26352381Y57714286D02*
X25352381Y57714286D01*
X25352381Y57333333D01*
X25400000Y57238095D01*
X25447619Y57190476D01*
X25542857Y57142857D01*
X25685714Y57142857D01*
X25780952Y57190476D01*
X25828571Y57238095D01*
X25876190Y57333333D01*
X25876190Y57714286D01*
X26352381Y56190476D02*
X26352381Y56761905D01*
X26352381Y56476191D02*
X25352381Y56476191D01*
X25495238Y56571429D01*
X25590476Y56666667D01*
X25638095Y56761905D01*
X26352381Y55714286D02*
X26352381Y55523810D01*
X26304762Y55428571D01*
X26257143Y55380952D01*
X26114286Y55285714D01*
X25923810Y55238095D01*
X25542857Y55238095D01*
X25447619Y55285714D01*
X25400000Y55333333D01*
X25352381Y55428571D01*
X25352381Y55619048D01*
X25400000Y55714286D01*
X25447619Y55761905D01*
X25542857Y55809524D01*
X25780952Y55809524D01*
X25876190Y55761905D01*
X25923810Y55714286D01*
X25971429Y55619048D01*
X25971429Y55428571D01*
X25923810Y55333333D01*
X25876190Y55285714D01*
X25780952Y55238095D01*
X34102381Y33142857D02*
X33626190Y33476191D01*
X34102381Y33714286D02*
X33102381Y33714286D01*
X33102381Y33333333D01*
X33150000Y33238095D01*
X33197619Y33190476D01*
X33292857Y33142857D01*
X33435714Y33142857D01*
X33530952Y33190476D01*
X33578571Y33238095D01*
X33626190Y33333333D01*
X33626190Y33714286D01*
X33197619Y32761905D02*
X33150000Y32714286D01*
X33102381Y32619048D01*
X33102381Y32380952D01*
X33150000Y32285714D01*
X33197619Y32238095D01*
X33292857Y32190476D01*
X33388095Y32190476D01*
X33530952Y32238095D01*
X34102381Y32809524D01*
X34102381Y32190476D01*
X33102381Y31571429D02*
X33102381Y31476190D01*
X33150000Y31380952D01*
X33197619Y31333333D01*
X33292857Y31285714D01*
X33483333Y31238095D01*
X33721429Y31238095D01*
X33911905Y31285714D01*
X34007143Y31333333D01*
X34054762Y31380952D01*
X34102381Y31476190D01*
X34102381Y31571429D01*
X34054762Y31666667D01*
X34007143Y31714286D01*
X33911905Y31761905D01*
X33721429Y31809524D01*
X33483333Y31809524D01*
X33292857Y31761905D01*
X33197619Y31714286D01*
X33150000Y31666667D01*
X33102381Y31571429D01*
X64142857Y34597619D02*
X64476191Y35073810D01*
X64714286Y34597619D02*
X64714286Y35597619D01*
X64333333Y35597619D01*
X64238095Y35550000D01*
X64190476Y35502381D01*
X64142857Y35407143D01*
X64142857Y35264286D01*
X64190476Y35169048D01*
X64238095Y35121429D01*
X64333333Y35073810D01*
X64714286Y35073810D01*
X63761905Y35502381D02*
X63714286Y35550000D01*
X63619048Y35597619D01*
X63380952Y35597619D01*
X63285714Y35550000D01*
X63238095Y35502381D01*
X63190476Y35407143D01*
X63190476Y35311905D01*
X63238095Y35169048D01*
X63809524Y34597619D01*
X63190476Y34597619D01*
X62238095Y34597619D02*
X62809524Y34597619D01*
X62523810Y34597619D02*
X62523810Y35597619D01*
X62619048Y35454762D01*
X62714286Y35359524D01*
X62809524Y35311905D01*
X36052381Y20542857D02*
X35576190Y20876191D01*
X36052381Y21114286D02*
X35052381Y21114286D01*
X35052381Y20733333D01*
X35100000Y20638095D01*
X35147619Y20590476D01*
X35242857Y20542857D01*
X35385714Y20542857D01*
X35480952Y20590476D01*
X35528571Y20638095D01*
X35576190Y20733333D01*
X35576190Y21114286D01*
X35147619Y20161905D02*
X35100000Y20114286D01*
X35052381Y20019048D01*
X35052381Y19780952D01*
X35100000Y19685714D01*
X35147619Y19638095D01*
X35242857Y19590476D01*
X35338095Y19590476D01*
X35480952Y19638095D01*
X36052381Y20209524D01*
X36052381Y19590476D01*
X35147619Y19209524D02*
X35100000Y19161905D01*
X35052381Y19066667D01*
X35052381Y18828571D01*
X35100000Y18733333D01*
X35147619Y18685714D01*
X35242857Y18638095D01*
X35338095Y18638095D01*
X35480952Y18685714D01*
X36052381Y19257143D01*
X36052381Y18638095D01*
X38102381Y20592857D02*
X37626190Y20926191D01*
X38102381Y21164286D02*
X37102381Y21164286D01*
X37102381Y20783333D01*
X37150000Y20688095D01*
X37197619Y20640476D01*
X37292857Y20592857D01*
X37435714Y20592857D01*
X37530952Y20640476D01*
X37578571Y20688095D01*
X37626190Y20783333D01*
X37626190Y21164286D01*
X37197619Y20211905D02*
X37150000Y20164286D01*
X37102381Y20069048D01*
X37102381Y19830952D01*
X37150000Y19735714D01*
X37197619Y19688095D01*
X37292857Y19640476D01*
X37388095Y19640476D01*
X37530952Y19688095D01*
X38102381Y20259524D01*
X38102381Y19640476D01*
X37102381Y19307143D02*
X37102381Y18688095D01*
X37483333Y19021429D01*
X37483333Y18878571D01*
X37530952Y18783333D01*
X37578571Y18735714D01*
X37673810Y18688095D01*
X37911905Y18688095D01*
X38007143Y18735714D01*
X38054762Y18783333D01*
X38102381Y18878571D01*
X38102381Y19164286D01*
X38054762Y19259524D01*
X38007143Y19307143D01*
X10866381Y57030857D02*
X10390190Y57364191D01*
X10866381Y57602286D02*
X9866381Y57602286D01*
X9866381Y57221333D01*
X9914000Y57126095D01*
X9961619Y57078476D01*
X10056857Y57030857D01*
X10199714Y57030857D01*
X10294952Y57078476D01*
X10342571Y57126095D01*
X10390190Y57221333D01*
X10390190Y57602286D01*
X9961619Y56649905D02*
X9914000Y56602286D01*
X9866381Y56507048D01*
X9866381Y56268952D01*
X9914000Y56173714D01*
X9961619Y56126095D01*
X10056857Y56078476D01*
X10152095Y56078476D01*
X10294952Y56126095D01*
X10866381Y56697524D01*
X10866381Y56078476D01*
X10199714Y55221333D02*
X10866381Y55221333D01*
X9818762Y55459429D02*
X10533048Y55697524D01*
X10533048Y55078476D01*
X16742857Y50197619D02*
X17076191Y50673810D01*
X17314286Y50197619D02*
X17314286Y51197619D01*
X16933333Y51197619D01*
X16838095Y51150000D01*
X16790476Y51102381D01*
X16742857Y51007143D01*
X16742857Y50864286D01*
X16790476Y50769048D01*
X16838095Y50721429D01*
X16933333Y50673810D01*
X17314286Y50673810D01*
X16361905Y51102381D02*
X16314286Y51150000D01*
X16219048Y51197619D01*
X15980952Y51197619D01*
X15885714Y51150000D01*
X15838095Y51102381D01*
X15790476Y51007143D01*
X15790476Y50911905D01*
X15838095Y50769048D01*
X16409524Y50197619D01*
X15790476Y50197619D01*
X14885714Y51197619D02*
X15361905Y51197619D01*
X15409524Y50721429D01*
X15361905Y50769048D01*
X15266667Y50816667D01*
X15028571Y50816667D01*
X14933333Y50769048D01*
X14885714Y50721429D01*
X14838095Y50626190D01*
X14838095Y50388095D01*
X14885714Y50292857D01*
X14933333Y50245238D01*
X15028571Y50197619D01*
X15266667Y50197619D01*
X15361905Y50245238D01*
X15409524Y50292857D01*
X38202381Y10142857D02*
X37726190Y10476191D01*
X38202381Y10714286D02*
X37202381Y10714286D01*
X37202381Y10333333D01*
X37250000Y10238095D01*
X37297619Y10190476D01*
X37392857Y10142857D01*
X37535714Y10142857D01*
X37630952Y10190476D01*
X37678571Y10238095D01*
X37726190Y10333333D01*
X37726190Y10714286D01*
X37297619Y9761905D02*
X37250000Y9714286D01*
X37202381Y9619048D01*
X37202381Y9380952D01*
X37250000Y9285714D01*
X37297619Y9238095D01*
X37392857Y9190476D01*
X37488095Y9190476D01*
X37630952Y9238095D01*
X38202381Y9809524D01*
X38202381Y9190476D01*
X37202381Y8333333D02*
X37202381Y8523810D01*
X37250000Y8619048D01*
X37297619Y8666667D01*
X37440476Y8761905D01*
X37630952Y8809524D01*
X38011905Y8809524D01*
X38107143Y8761905D01*
X38154762Y8714286D01*
X38202381Y8619048D01*
X38202381Y8428571D01*
X38154762Y8333333D01*
X38107143Y8285714D01*
X38011905Y8238095D01*
X37773810Y8238095D01*
X37678571Y8285714D01*
X37630952Y8333333D01*
X37583333Y8428571D01*
X37583333Y8619048D01*
X37630952Y8714286D01*
X37678571Y8761905D01*
X37773810Y8809524D01*
X33952381Y10142857D02*
X33476190Y10476191D01*
X33952381Y10714286D02*
X32952381Y10714286D01*
X32952381Y10333333D01*
X33000000Y10238095D01*
X33047619Y10190476D01*
X33142857Y10142857D01*
X33285714Y10142857D01*
X33380952Y10190476D01*
X33428571Y10238095D01*
X33476190Y10333333D01*
X33476190Y10714286D01*
X33047619Y9761905D02*
X33000000Y9714286D01*
X32952381Y9619048D01*
X32952381Y9380952D01*
X33000000Y9285714D01*
X33047619Y9238095D01*
X33142857Y9190476D01*
X33238095Y9190476D01*
X33380952Y9238095D01*
X33952381Y9809524D01*
X33952381Y9190476D01*
X32952381Y8857143D02*
X32952381Y8190476D01*
X33952381Y8619048D01*
X81445238Y50247619D02*
X81778572Y50723810D01*
X82016667Y50247619D02*
X82016667Y51247619D01*
X81635714Y51247619D01*
X81540476Y51200000D01*
X81492857Y51152381D01*
X81445238Y51057143D01*
X81445238Y50914286D01*
X81492857Y50819048D01*
X81540476Y50771429D01*
X81635714Y50723810D01*
X82016667Y50723810D01*
X81159524Y51247619D02*
X80826191Y50247619D01*
X80492857Y51247619D01*
X79635714Y50247619D02*
X80207143Y50247619D01*
X79921429Y50247619D02*
X79921429Y51247619D01*
X80016667Y51104762D01*
X80111905Y51009524D01*
X80207143Y50961905D01*
X18711905Y61947619D02*
X18711905Y61138095D01*
X18664286Y61042857D01*
X18616667Y60995238D01*
X18521429Y60947619D01*
X18330952Y60947619D01*
X18235714Y60995238D01*
X18188095Y61042857D01*
X18140476Y61138095D01*
X18140476Y61947619D01*
X17235714Y61614286D02*
X17235714Y60947619D01*
X17473810Y61995238D02*
X17711905Y61280952D01*
X17092857Y61280952D01*
X37476191Y51067810D02*
X37476191Y50591619D01*
X37809524Y51591619D02*
X37476191Y51067810D01*
X37142857Y51591619D01*
X36285714Y50591619D02*
X36857143Y50591619D01*
X36571429Y50591619D02*
X36571429Y51591619D01*
X36666667Y51448762D01*
X36761905Y51353524D01*
X36857143Y51305905D01*
X17626191Y65923810D02*
X17626191Y65447619D01*
X17959524Y66447619D02*
X17626191Y65923810D01*
X17292857Y66447619D01*
X17007143Y66352381D02*
X16959524Y66400000D01*
X16864286Y66447619D01*
X16626190Y66447619D01*
X16530952Y66400000D01*
X16483333Y66352381D01*
X16435714Y66257143D01*
X16435714Y66161905D01*
X16483333Y66019048D01*
X17054762Y65447619D01*
X16435714Y65447619D01*
X28297143Y12072857D02*
X28344762Y12120476D01*
X28392381Y12263333D01*
X28392381Y12358571D01*
X28344762Y12501429D01*
X28249524Y12596667D01*
X28154286Y12644286D01*
X27963810Y12691905D01*
X27820952Y12691905D01*
X27630476Y12644286D01*
X27535238Y12596667D01*
X27440000Y12501429D01*
X27392381Y12358571D01*
X27392381Y12263333D01*
X27440000Y12120476D01*
X27487619Y12072857D01*
X28392381Y11120476D02*
X28392381Y11691905D01*
X28392381Y11406191D02*
X27392381Y11406191D01*
X27535238Y11501429D01*
X27630476Y11596667D01*
X27678095Y11691905D01*
X27392381Y10501429D02*
X27392381Y10406190D01*
X27440000Y10310952D01*
X27487619Y10263333D01*
X27582857Y10215714D01*
X27773333Y10168095D01*
X28011429Y10168095D01*
X28201905Y10215714D01*
X28297143Y10263333D01*
X28344762Y10310952D01*
X28392381Y10406190D01*
X28392381Y10501429D01*
X28344762Y10596667D01*
X28297143Y10644286D01*
X28201905Y10691905D01*
X28011429Y10739524D01*
X27773333Y10739524D01*
X27582857Y10691905D01*
X27487619Y10644286D01*
X27440000Y10596667D01*
X27392381Y10501429D01*
X64038095Y19747619D02*
X64038095Y20747619D01*
X63800000Y20747619D01*
X63657142Y20700000D01*
X63561904Y20604762D01*
X63514285Y20509524D01*
X63466666Y20319048D01*
X63466666Y20176190D01*
X63514285Y19985714D01*
X63561904Y19890476D01*
X63657142Y19795238D01*
X63800000Y19747619D01*
X64038095Y19747619D01*
X62514285Y19747619D02*
X63085714Y19747619D01*
X62800000Y19747619D02*
X62800000Y20747619D01*
X62895238Y20604762D01*
X62990476Y20509524D01*
X63085714Y20461905D01*
X38202381Y20488095D02*
X37202381Y20488095D01*
X37202381Y20250000D01*
X37250000Y20107142D01*
X37345238Y20011904D01*
X37440476Y19964285D01*
X37630952Y19916666D01*
X37773810Y19916666D01*
X37964286Y19964285D01*
X38059524Y20011904D01*
X38154762Y20107142D01*
X38202381Y20250000D01*
X38202381Y20488095D01*
X37202381Y19583333D02*
X37202381Y18916666D01*
X38202381Y19345238D01*
X34102381Y10788095D02*
X33102381Y10788095D01*
X33102381Y10550000D01*
X33150000Y10407142D01*
X33245238Y10311904D01*
X33340476Y10264285D01*
X33530952Y10216666D01*
X33673810Y10216666D01*
X33864286Y10264285D01*
X33959524Y10311904D01*
X34054762Y10407142D01*
X34102381Y10550000D01*
X34102381Y10788095D01*
X33530952Y9645238D02*
X33483333Y9740476D01*
X33435714Y9788095D01*
X33340476Y9835714D01*
X33292857Y9835714D01*
X33197619Y9788095D01*
X33150000Y9740476D01*
X33102381Y9645238D01*
X33102381Y9454761D01*
X33150000Y9359523D01*
X33197619Y9311904D01*
X33292857Y9264285D01*
X33340476Y9264285D01*
X33435714Y9311904D01*
X33483333Y9359523D01*
X33530952Y9454761D01*
X33530952Y9645238D01*
X33578571Y9740476D01*
X33626190Y9788095D01*
X33721429Y9835714D01*
X33911905Y9835714D01*
X34007143Y9788095D01*
X34054762Y9740476D01*
X34102381Y9645238D01*
X34102381Y9454761D01*
X34054762Y9359523D01*
X34007143Y9311904D01*
X33911905Y9264285D01*
X33721429Y9264285D01*
X33626190Y9311904D01*
X33578571Y9359523D01*
X33530952Y9454761D01*
X42552381Y8292857D02*
X42076190Y8626191D01*
X42552381Y8864286D02*
X41552381Y8864286D01*
X41552381Y8483333D01*
X41600000Y8388095D01*
X41647619Y8340476D01*
X41742857Y8292857D01*
X41885714Y8292857D01*
X41980952Y8340476D01*
X42028571Y8388095D01*
X42076190Y8483333D01*
X42076190Y8864286D01*
X41647619Y7911905D02*
X41600000Y7864286D01*
X41552381Y7769048D01*
X41552381Y7530952D01*
X41600000Y7435714D01*
X41647619Y7388095D01*
X41742857Y7340476D01*
X41838095Y7340476D01*
X41980952Y7388095D01*
X42552381Y7959524D01*
X42552381Y7340476D01*
X42552381Y6864286D02*
X42552381Y6673810D01*
X42504762Y6578571D01*
X42457143Y6530952D01*
X42314286Y6435714D01*
X42123810Y6388095D01*
X41742857Y6388095D01*
X41647619Y6435714D01*
X41600000Y6483333D01*
X41552381Y6578571D01*
X41552381Y6769048D01*
X41600000Y6864286D01*
X41647619Y6911905D01*
X41742857Y6959524D01*
X41980952Y6959524D01*
X42076190Y6911905D01*
X42123810Y6864286D01*
X42171429Y6769048D01*
X42171429Y6578571D01*
X42123810Y6483333D01*
X42076190Y6435714D01*
X41980952Y6388095D01*
X22988985Y1694899D02*
X22988985Y885375D01*
X22941366Y790137D01*
X22893747Y742518D01*
X22798509Y694899D01*
X22608032Y694899D01*
X22512794Y742518D01*
X22465175Y790137D01*
X22417556Y885375D01*
X22417556Y1694899D01*
X21988985Y1599661D02*
X21941366Y1647280D01*
X21846128Y1694899D01*
X21608032Y1694899D01*
X21512794Y1647280D01*
X21465175Y1599661D01*
X21417556Y1504423D01*
X21417556Y1409185D01*
X21465175Y1266328D01*
X22036604Y694899D01*
X21417556Y694899D01*
%LPC*%
D12*
X42752100Y19248800D03*
X42752100Y25751200D03*
X47247900Y19325000D03*
X47247900Y25751200D03*
D13*
X44536900Y46380100D03*
X44536900Y45580100D03*
X44536900Y44780100D03*
X44536900Y43980100D03*
X44536900Y43180100D03*
X44536900Y42380100D03*
X44536900Y41580100D03*
X44536900Y40780100D03*
X44536900Y39980100D03*
X44536900Y39180100D03*
X44536900Y38380100D03*
D14*
X42836900Y36680100D03*
X42036900Y36680100D03*
X41236900Y36680100D03*
X40436900Y36680100D03*
X39636900Y36680100D03*
X38836900Y36680100D03*
X38036900Y36680100D03*
X37236900Y36680100D03*
X36436900Y36680100D03*
X35636900Y36680100D03*
X34836900Y36680100D03*
D13*
X33136900Y38380100D03*
X33136900Y39180100D03*
X33136900Y39980100D03*
X33136900Y40780100D03*
X33136900Y41580100D03*
X33136900Y42380100D03*
X33136900Y43180100D03*
X33136900Y43980100D03*
X33136900Y44780100D03*
X33136900Y45580100D03*
X33136900Y46380100D03*
D14*
X34836900Y48080100D03*
X35636900Y48080100D03*
X36436900Y48080100D03*
X37236900Y48080100D03*
X38036900Y48080100D03*
X38836900Y48080100D03*
X39636900Y48080100D03*
X40436900Y48080100D03*
X41236900Y48080100D03*
X42036900Y48080100D03*
X42836900Y48080100D03*
D12*
X4950000Y60600000D03*
X25450000Y60600000D03*
D15*
X46700000Y45200000D03*
X48600000Y45200000D03*
X46750000Y46600000D03*
X48650000Y46600000D03*
X29750000Y46200000D03*
X27850000Y46200000D03*
X31150000Y44800000D03*
X29250000Y44800000D03*
D16*
X36250000Y50700000D03*
X35150000Y50700000D03*
X37450000Y50700000D03*
X38550000Y50700000D03*
D17*
X37200000Y34650000D03*
X37200000Y32750000D03*
D15*
X46450000Y40100000D03*
X48350000Y40100000D03*
X40150000Y50800000D03*
X42050000Y50800000D03*
X17150000Y8900000D03*
X19050000Y8900000D03*
D17*
X13650000Y59250000D03*
X13650000Y57350000D03*
X15150000Y55350000D03*
X15150000Y57250000D03*
D16*
X17500000Y62300000D03*
X18600000Y62300000D03*
X16300000Y62300000D03*
X15200000Y62300000D03*
D12*
X17580000Y40450000D03*
X20120000Y40450000D03*
X17530000Y45650000D03*
X20070000Y45650000D03*
X39280000Y29450000D03*
X41820000Y29450000D03*
D18*
X11050000Y61100000D03*
X8550000Y61100000D03*
D19*
X85850000Y48650000D03*
D20*
X88390000Y48650000D03*
X85850000Y46110000D03*
D21*
X88390000Y46110000D03*
D20*
X85850000Y43570000D03*
D21*
X88390000Y43570000D03*
X85850000Y41030000D03*
X88390000Y41030000D03*
X85850000Y38490000D03*
X88390000Y38490000D03*
X85850000Y35950000D03*
X88390000Y35950000D03*
X85850000Y33410000D03*
X88390000Y33410000D03*
D22*
X57650000Y44950000D03*
X56700000Y44950000D03*
X55750000Y44950000D03*
X55750000Y47350000D03*
X56700000Y47350000D03*
X57650000Y47350000D03*
D23*
X52850000Y57900000D03*
X52850000Y56950000D03*
X52850000Y56000000D03*
X50450000Y56000000D03*
X50450000Y56950000D03*
X50450000Y57900000D03*
D24*
X20850000Y8750000D03*
X20850000Y9700000D03*
X20850000Y10650000D03*
X23150000Y10650000D03*
X23150000Y9700000D03*
X23150000Y8750000D03*
D25*
X82400000Y11850000D03*
X88900000Y11850000D03*
D19*
X59900000Y6300000D03*
D20*
X59900000Y8840000D03*
X62440000Y6300000D03*
D21*
X62440000Y8840000D03*
D20*
X64980000Y6300000D03*
D21*
X64980000Y8840000D03*
D26*
X5350000Y23050000D03*
D12*
X5350000Y25590000D03*
D26*
X5400000Y20050000D03*
D12*
X5400000Y17510000D03*
D27*
X86251140Y16947960D03*
X84750000Y16947960D03*
X83248860Y16947960D03*
D28*
X84750000Y20900200D03*
D10*
G36*
X84049620Y17976050D02*
X83549240Y19125350D01*
X85950760Y19125350D01*
X85450380Y17976050D01*
X84049620Y17976050D01*
X84049620Y17976050D01*
G37*
D29*
X51650000Y45250000D03*
X53850000Y45250000D03*
X70050000Y57650000D03*
X72250000Y57650000D03*
D30*
X80400000Y65400000D03*
X80400000Y67600000D03*
X63000000Y65600000D03*
X63000000Y67800000D03*
D29*
X64700000Y24300000D03*
X62500000Y24300000D03*
D30*
X82000000Y65400000D03*
X82000000Y67600000D03*
X64600000Y65600000D03*
X64600000Y67800000D03*
D29*
X64700000Y25950000D03*
X62500000Y25950000D03*
X62750000Y57350000D03*
X64950000Y57350000D03*
X34100000Y61900000D03*
X36300000Y61900000D03*
X50900000Y62100000D03*
X53100000Y62100000D03*
X53950000Y47000000D03*
X51750000Y47000000D03*
X34100000Y63500000D03*
X36300000Y63500000D03*
X50900000Y63700000D03*
X53100000Y63700000D03*
X11800000Y39750000D03*
X14000000Y39750000D03*
X11850000Y42900000D03*
X14050000Y42900000D03*
X25600000Y45250000D03*
X23400000Y45250000D03*
D30*
X24000000Y55400000D03*
X24000000Y57600000D03*
X35550000Y33600000D03*
X35550000Y31400000D03*
D29*
X64600000Y33150000D03*
X62400000Y33150000D03*
D30*
X37200000Y21100000D03*
X37200000Y18900000D03*
X39550000Y21150000D03*
X39550000Y18950000D03*
X12050000Y57200000D03*
X12050000Y59400000D03*
D29*
X15000000Y52550000D03*
X17200000Y52550000D03*
D30*
X37750000Y8550000D03*
X37750000Y10750000D03*
X33650000Y10650000D03*
X33650000Y8450000D03*
D31*
X80200000Y49000000D03*
D32*
X80850000Y46500000D03*
D31*
X81500000Y49000000D03*
D33*
X67500000Y54000000D03*
D34*
X67500000Y61500000D03*
X70000000Y61500000D03*
X65000000Y61500000D03*
X70000000Y47000000D03*
X65000000Y47000000D03*
D35*
X73025000Y54000000D03*
X61975000Y54000000D03*
D26*
X42200000Y13700000D03*
D12*
X42200000Y16240000D03*
X39660000Y13700000D03*
X39660000Y16240000D03*
X37120000Y13700000D03*
X37120000Y16240000D03*
X34580000Y13700000D03*
X34580000Y16240000D03*
D36*
X16575000Y59800000D03*
X17225000Y59800000D03*
X17875000Y59800000D03*
X18525000Y59800000D03*
X18525000Y55400000D03*
X17875000Y55400000D03*
X17225000Y55400000D03*
X16575000Y55400000D03*
D37*
X32151140Y54600000D03*
X41848860Y54600000D03*
D38*
X15700000Y64100000D03*
X18200000Y64100000D03*
D17*
X25800000Y10650000D03*
X25800000Y12550000D03*
D39*
X38000000Y49100000D03*
X38000000Y49100000D03*
X18550000Y60900000D03*
X18550000Y60900000D03*
D18*
X64800000Y22200000D03*
X62300000Y22200000D03*
D40*
X35750000Y21250000D03*
X35750000Y18750000D03*
X35650000Y8550000D03*
X35650000Y11050000D03*
D12*
X52250000Y17250000D03*
X26550000Y23000000D03*
X35230000Y5750000D03*
X37770000Y5750000D03*
D30*
X42100000Y8850000D03*
X42100000Y6650000D03*
D26*
X5100000Y39150000D03*
D12*
X5100000Y36610000D03*
X5100000Y34070000D03*
X90751200Y66752100D03*
X84248800Y66752100D03*
X90675000Y71247900D03*
X84248800Y71247900D03*
X73251200Y66752100D03*
X66748800Y66752100D03*
X73175000Y71247900D03*
X66748800Y71247900D03*
X55251200Y66752100D03*
X48748800Y66752100D03*
X55175000Y71247900D03*
X48748800Y71247900D03*
X38251200Y66752100D03*
X31748800Y66752100D03*
X38175000Y71247900D03*
X31748800Y71247900D03*
X67198800Y26197900D03*
X73701200Y26197900D03*
X67275000Y21702100D03*
X73701200Y21702100D03*
X53001200Y9752100D03*
X46498800Y9752100D03*
X52925000Y14247900D03*
X46498800Y14247900D03*
X28200000Y51400000D03*
X30600000Y49600000D03*
D41*
X21627080Y6347280D03*
X22277080Y6347280D03*
X22927080Y6347280D03*
X20977080Y6347280D03*
X20327080Y6347280D03*
D42*
X24127080Y6347280D03*
X19127080Y6347280D03*
D43*
X18127080Y3647280D03*
X25127080Y3647280D03*
M02*
