M48
METRIC,TZ
T1C0.600
T2C0.700
T3C0.850
T4C1.000
T5C1.200
T6C1.300
T7C1.550
T8C2.100
%
G90
G05
T1
X8.25Y33.75
X13.4Y55.8
X14.65Y46.25
X15.15Y61.3
X15.55Y41.3
X16.9Y50.7
X19.2Y11.4
X19.55Y62.5
X22.9Y47.25
X23.55Y50.85
X24.45Y12.45
X26.2Y58.3
X26.55Y47.35
X27.7Y44.9
X28.3Y18.05
X29.8Y10.3
X30.45Y17.95
X34.Y50.7
X35.05Y29.95
X35.75Y23.35
X37.2Y31.4
X38.9Y51.7
X42.2Y10.85
X44.9Y50.9
X47.Y57.75
X47.2Y48.4
X48.85Y56.9
X49.95Y45.8
X50.Y40.2
X51.5Y52.3
X51.9Y39.
X54.55Y57.1
X54.65Y49.45
X54.85Y12.6
X56.75Y43.7
X59.4Y29.45
X61.Y14.75
X66.65Y10.8
X67.8Y8.45
X73.5Y14.75
X80.9Y17.25
T2
X82.4Y11.85
X88.9Y11.85
T3
X19.127Y6.347
X24.127Y6.347
T4
X4.95Y60.6
X5.1Y39.15
X5.1Y36.61
X5.1Y34.07
X5.35Y25.59
X5.35Y23.05
X5.4Y20.05
X5.4Y17.51
X17.53Y45.65
X17.58Y40.45
X20.07Y45.65
X20.12Y40.45
X25.45Y60.6
X26.55Y23.
X28.2Y51.4
X30.6Y49.6
X31.749Y71.248
X31.749Y66.752
X34.58Y16.24
X34.58Y13.7
X35.23Y5.75
X37.12Y16.24
X37.12Y13.7
X37.77Y5.75
X38.175Y71.248
X38.251Y66.752
X39.28Y29.45
X39.66Y16.24
X39.66Y13.7
X41.82Y29.45
X42.2Y16.24
X42.2Y13.7
X42.752Y25.751
X42.752Y19.249
X46.499Y14.248
X46.499Y9.752
X47.248Y25.751
X47.248Y19.325
X48.749Y71.248
X48.749Y66.752
X52.25Y17.25
X52.925Y14.248
X53.001Y9.752
X55.175Y71.248
X55.251Y66.752
X59.9Y8.84
X59.9Y6.3
X62.44Y8.84
X62.44Y6.3
X64.98Y8.84
X64.98Y6.3
X66.749Y71.248
X66.749Y66.752
X67.199Y26.198
X67.275Y21.702
X73.175Y71.248
X73.251Y66.752
X73.701Y26.198
X73.701Y21.702
X84.249Y71.248
X84.249Y66.752
X85.85Y48.65
X85.85Y46.11
X85.85Y43.57
X85.85Y41.03
X85.85Y38.49
X85.85Y35.95
X85.85Y33.41
X88.39Y48.65
X88.39Y46.11
X88.39Y43.57
X88.39Y41.03
X88.39Y38.49
X88.39Y35.95
X88.39Y33.41
X90.675Y71.248
X90.751Y66.752
T5
X65.Y61.5
X65.Y47.
X67.5Y61.5
X70.Y61.5
X70.Y47.
T6
X18.127Y3.647
X25.127Y3.647
T8
X67.5Y54.
T7
X61.975Y53.45G85X61.975Y54.55
G05
X73.025Y53.45G85X73.025Y54.55
G05
T0
M30
