G04 #@! TF.FileFunction,Other,Fab,Bot*
%FSLAX46Y46*%
G04 Gerber Fmt 4.6, Leading zero omitted, Abs format (unit mm)*
G04 Created by KiCad (PCBNEW 4.0.4+dfsg1-stable) date Sun Feb  5 22:53:45 2017*
%MOMM*%
%LPD*%
G01*
G04 APERTURE LIST*
%ADD10C,0.100000*%
%ADD11C,0.150000*%
G04 APERTURE END LIST*
D10*
D11*
X63702381Y21619047D02*
X63702381Y22190476D01*
X63702381Y21904762D02*
X62702381Y21904762D01*
X62845238Y22000000D01*
X62940476Y22095238D01*
X62988095Y22190476D01*
X62702381Y21000000D02*
X62702381Y20904761D01*
X62750000Y20809523D01*
X62797619Y20761904D01*
X62892857Y20714285D01*
X63083333Y20666666D01*
X63321429Y20666666D01*
X63511905Y20714285D01*
X63607143Y20761904D01*
X63654762Y20809523D01*
X63702381Y20904761D01*
X63702381Y21000000D01*
X63654762Y21095238D01*
X63607143Y21142857D01*
X63511905Y21190476D01*
X63321429Y21238095D01*
X63083333Y21238095D01*
X62892857Y21190476D01*
X62797619Y21142857D01*
X62750000Y21095238D01*
X62702381Y21000000D01*
X62702381Y20047619D02*
X62702381Y19952380D01*
X62750000Y19857142D01*
X62797619Y19809523D01*
X62892857Y19761904D01*
X63083333Y19714285D01*
X63321429Y19714285D01*
X63511905Y19761904D01*
X63607143Y19809523D01*
X63654762Y19857142D01*
X63702381Y19952380D01*
X63702381Y20047619D01*
X63654762Y20142857D01*
X63607143Y20190476D01*
X63511905Y20238095D01*
X63321429Y20285714D01*
X63083333Y20285714D01*
X62892857Y20238095D01*
X62797619Y20190476D01*
X62750000Y20142857D01*
X62702381Y20047619D01*
X63035714Y19285714D02*
X63702381Y19285714D01*
X63130952Y19285714D02*
X63083333Y19238095D01*
X63035714Y19142857D01*
X63035714Y18999999D01*
X63083333Y18904761D01*
X63178571Y18857142D01*
X63702381Y18857142D01*
X84202381Y12166666D02*
X84202381Y12738095D01*
X84202381Y12452381D02*
X83202381Y12452381D01*
X83345238Y12547619D01*
X83440476Y12642857D01*
X83488095Y12738095D01*
X83535714Y11309523D02*
X84202381Y11309523D01*
X83535714Y11738095D02*
X84059524Y11738095D01*
X84154762Y11690476D01*
X84202381Y11595238D01*
X84202381Y11452380D01*
X84154762Y11357142D01*
X84107143Y11309523D01*
X61297619Y8964286D02*
X61250000Y8916667D01*
X61202381Y8821429D01*
X61202381Y8583333D01*
X61250000Y8488095D01*
X61297619Y8440476D01*
X61392857Y8392857D01*
X61488095Y8392857D01*
X61630952Y8440476D01*
X62202381Y9011905D01*
X62202381Y8392857D01*
X61297619Y8011905D02*
X61250000Y7964286D01*
X61202381Y7869048D01*
X61202381Y7630952D01*
X61250000Y7535714D01*
X61297619Y7488095D01*
X61392857Y7440476D01*
X61488095Y7440476D01*
X61630952Y7488095D01*
X62202381Y8059524D01*
X62202381Y7440476D01*
X61535714Y7011905D02*
X62202381Y7011905D01*
X61630952Y7011905D02*
X61583333Y6964286D01*
X61535714Y6869048D01*
X61535714Y6726190D01*
X61583333Y6630952D01*
X61678571Y6583333D01*
X62202381Y6583333D01*
X66452381Y14869047D02*
X66452381Y15440476D01*
X66452381Y15154762D02*
X65452381Y15154762D01*
X65595238Y15250000D01*
X65690476Y15345238D01*
X65738095Y15440476D01*
X65452381Y14250000D02*
X65452381Y14154761D01*
X65500000Y14059523D01*
X65547619Y14011904D01*
X65642857Y13964285D01*
X65833333Y13916666D01*
X66071429Y13916666D01*
X66261905Y13964285D01*
X66357143Y14011904D01*
X66404762Y14059523D01*
X66452381Y14154761D01*
X66452381Y14250000D01*
X66404762Y14345238D01*
X66357143Y14392857D01*
X66261905Y14440476D01*
X66071429Y14488095D01*
X65833333Y14488095D01*
X65642857Y14440476D01*
X65547619Y14392857D01*
X65500000Y14345238D01*
X65452381Y14250000D01*
X65452381Y13297619D02*
X65452381Y13202380D01*
X65500000Y13107142D01*
X65547619Y13059523D01*
X65642857Y13011904D01*
X65833333Y12964285D01*
X66071429Y12964285D01*
X66261905Y13011904D01*
X66357143Y13059523D01*
X66404762Y13107142D01*
X66452381Y13202380D01*
X66452381Y13297619D01*
X66404762Y13392857D01*
X66357143Y13440476D01*
X66261905Y13488095D01*
X66071429Y13535714D01*
X65833333Y13535714D01*
X65642857Y13488095D01*
X65547619Y13440476D01*
X65500000Y13392857D01*
X65452381Y13297619D01*
X65785714Y12535714D02*
X66452381Y12535714D01*
X65880952Y12535714D02*
X65833333Y12488095D01*
X65785714Y12392857D01*
X65785714Y12249999D01*
X65833333Y12154761D01*
X65928571Y12107142D01*
X66452381Y12107142D01*
X58297619Y16940476D02*
X58250000Y16892857D01*
X58202381Y16797619D01*
X58202381Y16559523D01*
X58250000Y16464285D01*
X58297619Y16416666D01*
X58392857Y16369047D01*
X58488095Y16369047D01*
X58630952Y16416666D01*
X59202381Y16988095D01*
X59202381Y16369047D01*
X58297619Y15988095D02*
X58250000Y15940476D01*
X58202381Y15845238D01*
X58202381Y15607142D01*
X58250000Y15511904D01*
X58297619Y15464285D01*
X58392857Y15416666D01*
X58488095Y15416666D01*
X58630952Y15464285D01*
X59202381Y16035714D01*
X59202381Y15416666D01*
X58202381Y14797619D02*
X58202381Y14702380D01*
X58250000Y14607142D01*
X58297619Y14559523D01*
X58392857Y14511904D01*
X58583333Y14464285D01*
X58821429Y14464285D01*
X59011905Y14511904D01*
X59107143Y14559523D01*
X59154762Y14607142D01*
X59202381Y14702380D01*
X59202381Y14797619D01*
X59154762Y14892857D01*
X59107143Y14940476D01*
X59011905Y14988095D01*
X58821429Y15035714D01*
X58583333Y15035714D01*
X58392857Y14988095D01*
X58297619Y14940476D01*
X58250000Y14892857D01*
X58202381Y14797619D01*
X58535714Y14035714D02*
X59202381Y14035714D01*
X58630952Y14035714D02*
X58583333Y13988095D01*
X58535714Y13892857D01*
X58535714Y13749999D01*
X58583333Y13654761D01*
X58678571Y13607142D01*
X59202381Y13607142D01*
X53547619Y26690476D02*
X53500000Y26642857D01*
X53452381Y26547619D01*
X53452381Y26309523D01*
X53500000Y26214285D01*
X53547619Y26166666D01*
X53642857Y26119047D01*
X53738095Y26119047D01*
X53880952Y26166666D01*
X54452381Y26738095D01*
X54452381Y26119047D01*
X53547619Y25738095D02*
X53500000Y25690476D01*
X53452381Y25595238D01*
X53452381Y25357142D01*
X53500000Y25261904D01*
X53547619Y25214285D01*
X53642857Y25166666D01*
X53738095Y25166666D01*
X53880952Y25214285D01*
X54452381Y25785714D01*
X54452381Y25166666D01*
X53452381Y24547619D02*
X53452381Y24452380D01*
X53500000Y24357142D01*
X53547619Y24309523D01*
X53642857Y24261904D01*
X53833333Y24214285D01*
X54071429Y24214285D01*
X54261905Y24261904D01*
X54357143Y24309523D01*
X54404762Y24357142D01*
X54452381Y24452380D01*
X54452381Y24547619D01*
X54404762Y24642857D01*
X54357143Y24690476D01*
X54261905Y24738095D01*
X54071429Y24785714D01*
X53833333Y24785714D01*
X53642857Y24738095D01*
X53547619Y24690476D01*
X53500000Y24642857D01*
X53452381Y24547619D01*
X53785714Y23785714D02*
X54452381Y23785714D01*
X53880952Y23785714D02*
X53833333Y23738095D01*
X53785714Y23642857D01*
X53785714Y23499999D01*
X53833333Y23404761D01*
X53928571Y23357142D01*
X54452381Y23357142D01*
X50869047Y7947619D02*
X51440476Y7947619D01*
X51154762Y7947619D02*
X51154762Y8947619D01*
X51250000Y8804762D01*
X51345238Y8709524D01*
X51440476Y8661905D01*
X50250000Y8947619D02*
X50154761Y8947619D01*
X50059523Y8900000D01*
X50011904Y8852381D01*
X49964285Y8757143D01*
X49916666Y8566667D01*
X49916666Y8328571D01*
X49964285Y8138095D01*
X50011904Y8042857D01*
X50059523Y7995238D01*
X50154761Y7947619D01*
X50250000Y7947619D01*
X50345238Y7995238D01*
X50392857Y8042857D01*
X50440476Y8138095D01*
X50488095Y8328571D01*
X50488095Y8566667D01*
X50440476Y8757143D01*
X50392857Y8852381D01*
X50345238Y8900000D01*
X50250000Y8947619D01*
X49297619Y8947619D02*
X49202380Y8947619D01*
X49107142Y8900000D01*
X49059523Y8852381D01*
X49011904Y8757143D01*
X48964285Y8566667D01*
X48964285Y8328571D01*
X49011904Y8138095D01*
X49059523Y8042857D01*
X49107142Y7995238D01*
X49202380Y7947619D01*
X49297619Y7947619D01*
X49392857Y7995238D01*
X49440476Y8042857D01*
X49488095Y8138095D01*
X49535714Y8328571D01*
X49535714Y8566667D01*
X49488095Y8757143D01*
X49440476Y8852381D01*
X49392857Y8900000D01*
X49297619Y8947619D01*
X48535714Y8614286D02*
X48535714Y7947619D01*
X48535714Y8519048D02*
X48488095Y8566667D01*
X48392857Y8614286D01*
X48249999Y8614286D01*
X48154761Y8566667D01*
X48107142Y8471429D01*
X48107142Y7947619D01*
X38719286Y7617381D02*
X38671667Y7665000D01*
X38576429Y7712619D01*
X38338333Y7712619D01*
X38243095Y7665000D01*
X38195476Y7617381D01*
X38147857Y7522143D01*
X38147857Y7426905D01*
X38195476Y7284048D01*
X38766905Y6712619D01*
X38147857Y6712619D01*
X37766905Y7617381D02*
X37719286Y7665000D01*
X37624048Y7712619D01*
X37385952Y7712619D01*
X37290714Y7665000D01*
X37243095Y7617381D01*
X37195476Y7522143D01*
X37195476Y7426905D01*
X37243095Y7284048D01*
X37814524Y6712619D01*
X37195476Y6712619D01*
X36766905Y7379286D02*
X36766905Y6712619D01*
X36766905Y7284048D02*
X36719286Y7331667D01*
X36624048Y7379286D01*
X36481190Y7379286D01*
X36385952Y7331667D01*
X36338333Y7236429D01*
X36338333Y6712619D01*
X44894047Y2322619D02*
X45465476Y2322619D01*
X45179762Y2322619D02*
X45179762Y3322619D01*
X45275000Y3179762D01*
X45370238Y3084524D01*
X45465476Y3036905D01*
X44275000Y3322619D02*
X44179761Y3322619D01*
X44084523Y3275000D01*
X44036904Y3227381D01*
X43989285Y3132143D01*
X43941666Y2941667D01*
X43941666Y2703571D01*
X43989285Y2513095D01*
X44036904Y2417857D01*
X44084523Y2370238D01*
X44179761Y2322619D01*
X44275000Y2322619D01*
X44370238Y2370238D01*
X44417857Y2417857D01*
X44465476Y2513095D01*
X44513095Y2703571D01*
X44513095Y2941667D01*
X44465476Y3132143D01*
X44417857Y3227381D01*
X44370238Y3275000D01*
X44275000Y3322619D01*
X43322619Y3322619D02*
X43227380Y3322619D01*
X43132142Y3275000D01*
X43084523Y3227381D01*
X43036904Y3132143D01*
X42989285Y2941667D01*
X42989285Y2703571D01*
X43036904Y2513095D01*
X43084523Y2417857D01*
X43132142Y2370238D01*
X43227380Y2322619D01*
X43322619Y2322619D01*
X43417857Y2370238D01*
X43465476Y2417857D01*
X43513095Y2513095D01*
X43560714Y2703571D01*
X43560714Y2941667D01*
X43513095Y3132143D01*
X43465476Y3227381D01*
X43417857Y3275000D01*
X43322619Y3322619D01*
X42560714Y2989286D02*
X42560714Y2322619D01*
X42560714Y2894048D02*
X42513095Y2941667D01*
X42417857Y2989286D01*
X42274999Y2989286D01*
X42179761Y2941667D01*
X42132142Y2846429D01*
X42132142Y2322619D01*
X52702381Y24916666D02*
X52702381Y25488095D01*
X52702381Y25202381D02*
X51702381Y25202381D01*
X51845238Y25297619D01*
X51940476Y25392857D01*
X51988095Y25488095D01*
X52035714Y24059523D02*
X52702381Y24059523D01*
X52035714Y24488095D02*
X52559524Y24488095D01*
X52654762Y24440476D01*
X52702381Y24345238D01*
X52702381Y24202380D01*
X52654762Y24107142D01*
X52607143Y24059523D01*
X40299286Y10472619D02*
X40204047Y10472619D01*
X40108809Y10425000D01*
X40061190Y10377381D01*
X40013571Y10282143D01*
X39965952Y10091667D01*
X39965952Y9853571D01*
X40013571Y9663095D01*
X40061190Y9567857D01*
X40108809Y9520238D01*
X40204047Y9472619D01*
X40299286Y9472619D01*
X40394524Y9520238D01*
X40442143Y9567857D01*
X40489762Y9663095D01*
X40537381Y9853571D01*
X40537381Y10091667D01*
X40489762Y10282143D01*
X40442143Y10377381D01*
X40394524Y10425000D01*
X40299286Y10472619D01*
X39537381Y9567857D02*
X39489762Y9520238D01*
X39537381Y9472619D01*
X39585000Y9520238D01*
X39537381Y9567857D01*
X39537381Y9472619D01*
X38585000Y10472619D02*
X39061191Y10472619D01*
X39108810Y9996429D01*
X39061191Y10044048D01*
X38965953Y10091667D01*
X38727857Y10091667D01*
X38632619Y10044048D01*
X38585000Y9996429D01*
X38537381Y9901190D01*
X38537381Y9663095D01*
X38585000Y9567857D01*
X38632619Y9520238D01*
X38727857Y9472619D01*
X38965953Y9472619D01*
X39061191Y9520238D01*
X39108810Y9567857D01*
X38108810Y10139286D02*
X38108810Y9472619D01*
X38108810Y10044048D02*
X38061191Y10091667D01*
X37965953Y10139286D01*
X37823095Y10139286D01*
X37727857Y10091667D01*
X37680238Y9996429D01*
X37680238Y9472619D01*
X47245476Y10737381D02*
X47197857Y10785000D01*
X47102619Y10832619D01*
X46864523Y10832619D01*
X46769285Y10785000D01*
X46721666Y10737381D01*
X46674047Y10642143D01*
X46674047Y10546905D01*
X46721666Y10404048D01*
X47293095Y9832619D01*
X46674047Y9832619D01*
X46293095Y10737381D02*
X46245476Y10785000D01*
X46150238Y10832619D01*
X45912142Y10832619D01*
X45816904Y10785000D01*
X45769285Y10737381D01*
X45721666Y10642143D01*
X45721666Y10546905D01*
X45769285Y10404048D01*
X46340714Y9832619D01*
X45721666Y9832619D01*
X45102619Y10832619D02*
X45007380Y10832619D01*
X44912142Y10785000D01*
X44864523Y10737381D01*
X44816904Y10642143D01*
X44769285Y10451667D01*
X44769285Y10213571D01*
X44816904Y10023095D01*
X44864523Y9927857D01*
X44912142Y9880238D01*
X45007380Y9832619D01*
X45102619Y9832619D01*
X45197857Y9880238D01*
X45245476Y9927857D01*
X45293095Y10023095D01*
X45340714Y10213571D01*
X45340714Y10451667D01*
X45293095Y10642143D01*
X45245476Y10737381D01*
X45197857Y10785000D01*
X45102619Y10832619D01*
X44340714Y10499286D02*
X44340714Y9832619D01*
X44340714Y10404048D02*
X44293095Y10451667D01*
X44197857Y10499286D01*
X44054999Y10499286D01*
X43959761Y10451667D01*
X43912142Y10356429D01*
X43912142Y9832619D01*
X46952381Y24416666D02*
X46952381Y24988095D01*
X46952381Y24702381D02*
X45952381Y24702381D01*
X46095238Y24797619D01*
X46190476Y24892857D01*
X46238095Y24988095D01*
X46285714Y23559523D02*
X46952381Y23559523D01*
X46285714Y23988095D02*
X46809524Y23988095D01*
X46904762Y23940476D01*
X46952381Y23845238D01*
X46952381Y23702380D01*
X46904762Y23607142D01*
X46857143Y23559523D01*
X56697619Y10440476D02*
X56650000Y10392857D01*
X56602381Y10297619D01*
X56602381Y10059523D01*
X56650000Y9964285D01*
X56697619Y9916666D01*
X56792857Y9869047D01*
X56888095Y9869047D01*
X57030952Y9916666D01*
X57602381Y10488095D01*
X57602381Y9869047D01*
X56697619Y9488095D02*
X56650000Y9440476D01*
X56602381Y9345238D01*
X56602381Y9107142D01*
X56650000Y9011904D01*
X56697619Y8964285D01*
X56792857Y8916666D01*
X56888095Y8916666D01*
X57030952Y8964285D01*
X57602381Y9535714D01*
X57602381Y8916666D01*
X56602381Y8297619D02*
X56602381Y8202380D01*
X56650000Y8107142D01*
X56697619Y8059523D01*
X56792857Y8011904D01*
X56983333Y7964285D01*
X57221429Y7964285D01*
X57411905Y8011904D01*
X57507143Y8059523D01*
X57554762Y8107142D01*
X57602381Y8202380D01*
X57602381Y8297619D01*
X57554762Y8392857D01*
X57507143Y8440476D01*
X57411905Y8488095D01*
X57221429Y8535714D01*
X56983333Y8535714D01*
X56792857Y8488095D01*
X56697619Y8440476D01*
X56650000Y8392857D01*
X56602381Y8297619D01*
X56935714Y7535714D02*
X57602381Y7535714D01*
X57030952Y7535714D02*
X56983333Y7488095D01*
X56935714Y7392857D01*
X56935714Y7249999D01*
X56983333Y7154761D01*
X57078571Y7107142D01*
X57602381Y7107142D01*
X87761905Y11797619D02*
X87761905Y12797619D01*
X87523810Y12797619D01*
X87380952Y12750000D01*
X87285714Y12654762D01*
X87238095Y12559524D01*
X87190476Y12369048D01*
X87190476Y12226190D01*
X87238095Y12035714D01*
X87285714Y11940476D01*
X87380952Y11845238D01*
X87523810Y11797619D01*
X87761905Y11797619D01*
X24321429Y18047619D02*
X24797620Y18047619D01*
X24797620Y19047619D01*
X23607143Y18095238D02*
X23702381Y18047619D01*
X23892858Y18047619D01*
X23988096Y18095238D01*
X24035715Y18190476D01*
X24035715Y18571429D01*
X23988096Y18666667D01*
X23892858Y18714286D01*
X23702381Y18714286D01*
X23607143Y18666667D01*
X23559524Y18571429D01*
X23559524Y18476190D01*
X24035715Y18380952D01*
X22702381Y18047619D02*
X22702381Y19047619D01*
X22702381Y18095238D02*
X22797619Y18047619D01*
X22988096Y18047619D01*
X23083334Y18095238D01*
X23130953Y18142857D01*
X23178572Y18238095D01*
X23178572Y18523810D01*
X23130953Y18619048D01*
X23083334Y18666667D01*
X22988096Y18714286D01*
X22797619Y18714286D01*
X22702381Y18666667D01*
X22464286Y17952381D02*
X21702381Y17952381D01*
X21511905Y18095238D02*
X21369048Y18047619D01*
X21130952Y18047619D01*
X21035714Y18095238D01*
X20988095Y18142857D01*
X20940476Y18238095D01*
X20940476Y18333333D01*
X20988095Y18428571D01*
X21035714Y18476190D01*
X21130952Y18523810D01*
X21321429Y18571429D01*
X21416667Y18619048D01*
X21464286Y18666667D01*
X21511905Y18761905D01*
X21511905Y18857143D01*
X21464286Y18952381D01*
X21416667Y19000000D01*
X21321429Y19047619D01*
X21083333Y19047619D01*
X20940476Y19000000D01*
X20511905Y18047619D02*
X20511905Y18714286D01*
X20511905Y18619048D02*
X20464286Y18666667D01*
X20369048Y18714286D01*
X20226190Y18714286D01*
X20130952Y18666667D01*
X20083333Y18571429D01*
X20083333Y18047619D01*
X20083333Y18571429D02*
X20035714Y18666667D01*
X19940476Y18714286D01*
X19797619Y18714286D01*
X19702381Y18666667D01*
X19654762Y18571429D01*
X19654762Y18047619D01*
X18750000Y18047619D02*
X18750000Y18571429D01*
X18797619Y18666667D01*
X18892857Y18714286D01*
X19083334Y18714286D01*
X19178572Y18666667D01*
X18750000Y18095238D02*
X18845238Y18047619D01*
X19083334Y18047619D01*
X19178572Y18095238D01*
X19226191Y18190476D01*
X19226191Y18285714D01*
X19178572Y18380952D01*
X19083334Y18428571D01*
X18845238Y18428571D01*
X18750000Y18476190D01*
X18130953Y18047619D02*
X18226191Y18095238D01*
X18273810Y18190476D01*
X18273810Y19047619D01*
X17607143Y18047619D02*
X17702381Y18095238D01*
X17750000Y18190476D01*
X17750000Y19047619D01*
X61702381Y27309525D02*
X60702381Y27309525D01*
X60702381Y27071430D01*
X60750000Y26928572D01*
X60845238Y26833334D01*
X60940476Y26785715D01*
X61130952Y26738096D01*
X61273810Y26738096D01*
X61464286Y26785715D01*
X61559524Y26833334D01*
X61654762Y26928572D01*
X61702381Y27071430D01*
X61702381Y27309525D01*
X61797619Y26547620D02*
X61797619Y25785715D01*
X61654762Y25595239D02*
X61702381Y25452382D01*
X61702381Y25214286D01*
X61654762Y25119048D01*
X61607143Y25071429D01*
X61511905Y25023810D01*
X61416667Y25023810D01*
X61321429Y25071429D01*
X61273810Y25119048D01*
X61226190Y25214286D01*
X61178571Y25404763D01*
X61130952Y25500001D01*
X61083333Y25547620D01*
X60988095Y25595239D01*
X60892857Y25595239D01*
X60797619Y25547620D01*
X60750000Y25500001D01*
X60702381Y25404763D01*
X60702381Y25166667D01*
X60750000Y25023810D01*
X61654762Y24166667D02*
X61702381Y24261905D01*
X61702381Y24452382D01*
X61654762Y24547620D01*
X61607143Y24595239D01*
X61511905Y24642858D01*
X61226190Y24642858D01*
X61130952Y24595239D01*
X61083333Y24547620D01*
X61035714Y24452382D01*
X61035714Y24261905D01*
X61083333Y24166667D01*
X61702381Y23738096D02*
X60702381Y23738096D01*
X61702381Y23309524D02*
X61178571Y23309524D01*
X61083333Y23357143D01*
X61035714Y23452381D01*
X61035714Y23595239D01*
X61083333Y23690477D01*
X61130952Y23738096D01*
X61702381Y22690477D02*
X61654762Y22785715D01*
X61607143Y22833334D01*
X61511905Y22880953D01*
X61226190Y22880953D01*
X61130952Y22833334D01*
X61083333Y22785715D01*
X61035714Y22690477D01*
X61035714Y22547619D01*
X61083333Y22452381D01*
X61130952Y22404762D01*
X61226190Y22357143D01*
X61511905Y22357143D01*
X61607143Y22404762D01*
X61654762Y22452381D01*
X61702381Y22547619D01*
X61702381Y22690477D01*
X61035714Y22071429D02*
X61035714Y21690477D01*
X60702381Y21928572D02*
X61559524Y21928572D01*
X61654762Y21880953D01*
X61702381Y21785715D01*
X61702381Y21690477D01*
X61035714Y21500000D02*
X61035714Y21119048D01*
X60702381Y21357143D02*
X61559524Y21357143D01*
X61654762Y21309524D01*
X61702381Y21214286D01*
X61702381Y21119048D01*
X61702381Y20785714D02*
X60702381Y20785714D01*
X61321429Y20690476D02*
X61702381Y20404761D01*
X61035714Y20404761D02*
X61416667Y20785714D01*
X61035714Y20071428D02*
X61702381Y19833333D01*
X61035714Y19595237D02*
X61702381Y19833333D01*
X61940476Y19928571D01*
X61988095Y19976190D01*
X62035714Y20071428D01*
X61797619Y19452380D02*
X61797619Y18690475D01*
X61654762Y18499999D02*
X61702381Y18357142D01*
X61702381Y18119046D01*
X61654762Y18023808D01*
X61607143Y17976189D01*
X61511905Y17928570D01*
X61416667Y17928570D01*
X61321429Y17976189D01*
X61273810Y18023808D01*
X61226190Y18119046D01*
X61178571Y18309523D01*
X61130952Y18404761D01*
X61083333Y18452380D01*
X60988095Y18499999D01*
X60892857Y18499999D01*
X60797619Y18452380D01*
X60750000Y18404761D01*
X60702381Y18309523D01*
X60702381Y18071427D01*
X60750000Y17928570D01*
X61702381Y17499999D02*
X61035714Y17499999D01*
X61130952Y17499999D02*
X61083333Y17452380D01*
X61035714Y17357142D01*
X61035714Y17214284D01*
X61083333Y17119046D01*
X61178571Y17071427D01*
X61702381Y17071427D01*
X61178571Y17071427D02*
X61083333Y17023808D01*
X61035714Y16928570D01*
X61035714Y16785713D01*
X61083333Y16690475D01*
X61178571Y16642856D01*
X61702381Y16642856D01*
X61702381Y15738094D02*
X61178571Y15738094D01*
X61083333Y15785713D01*
X61035714Y15880951D01*
X61035714Y16071428D01*
X61083333Y16166666D01*
X61654762Y15738094D02*
X61702381Y15833332D01*
X61702381Y16071428D01*
X61654762Y16166666D01*
X61559524Y16214285D01*
X61464286Y16214285D01*
X61369048Y16166666D01*
X61321429Y16071428D01*
X61321429Y15833332D01*
X61273810Y15738094D01*
X61702381Y15119047D02*
X61654762Y15214285D01*
X61559524Y15261904D01*
X60702381Y15261904D01*
X61702381Y14595237D02*
X61654762Y14690475D01*
X61559524Y14738094D01*
X60702381Y14738094D01*
X24071429Y16297619D02*
X24547620Y16297619D01*
X24547620Y17297619D01*
X23357143Y16345238D02*
X23452381Y16297619D01*
X23642858Y16297619D01*
X23738096Y16345238D01*
X23785715Y16440476D01*
X23785715Y16821429D01*
X23738096Y16916667D01*
X23642858Y16964286D01*
X23452381Y16964286D01*
X23357143Y16916667D01*
X23309524Y16821429D01*
X23309524Y16726190D01*
X23785715Y16630952D01*
X22452381Y16297619D02*
X22452381Y17297619D01*
X22452381Y16345238D02*
X22547619Y16297619D01*
X22738096Y16297619D01*
X22833334Y16345238D01*
X22880953Y16392857D01*
X22928572Y16488095D01*
X22928572Y16773810D01*
X22880953Y16869048D01*
X22833334Y16916667D01*
X22738096Y16964286D01*
X22547619Y16964286D01*
X22452381Y16916667D01*
X22214286Y16202381D02*
X21452381Y16202381D01*
X21261905Y16345238D02*
X21119048Y16297619D01*
X20880952Y16297619D01*
X20785714Y16345238D01*
X20738095Y16392857D01*
X20690476Y16488095D01*
X20690476Y16583333D01*
X20738095Y16678571D01*
X20785714Y16726190D01*
X20880952Y16773810D01*
X21071429Y16821429D01*
X21166667Y16869048D01*
X21214286Y16916667D01*
X21261905Y17011905D01*
X21261905Y17107143D01*
X21214286Y17202381D01*
X21166667Y17250000D01*
X21071429Y17297619D01*
X20833333Y17297619D01*
X20690476Y17250000D01*
X20261905Y16297619D02*
X20261905Y16964286D01*
X20261905Y16869048D02*
X20214286Y16916667D01*
X20119048Y16964286D01*
X19976190Y16964286D01*
X19880952Y16916667D01*
X19833333Y16821429D01*
X19833333Y16297619D01*
X19833333Y16821429D02*
X19785714Y16916667D01*
X19690476Y16964286D01*
X19547619Y16964286D01*
X19452381Y16916667D01*
X19404762Y16821429D01*
X19404762Y16297619D01*
X18500000Y16297619D02*
X18500000Y16821429D01*
X18547619Y16916667D01*
X18642857Y16964286D01*
X18833334Y16964286D01*
X18928572Y16916667D01*
X18500000Y16345238D02*
X18595238Y16297619D01*
X18833334Y16297619D01*
X18928572Y16345238D01*
X18976191Y16440476D01*
X18976191Y16535714D01*
X18928572Y16630952D01*
X18833334Y16678571D01*
X18595238Y16678571D01*
X18500000Y16726190D01*
X17880953Y16297619D02*
X17976191Y16345238D01*
X18023810Y16440476D01*
X18023810Y17297619D01*
X17357143Y16297619D02*
X17452381Y16345238D01*
X17500000Y16440476D01*
X17500000Y17297619D01*
X24571429Y14797619D02*
X25047620Y14797619D01*
X25047620Y15797619D01*
X23857143Y14845238D02*
X23952381Y14797619D01*
X24142858Y14797619D01*
X24238096Y14845238D01*
X24285715Y14940476D01*
X24285715Y15321429D01*
X24238096Y15416667D01*
X24142858Y15464286D01*
X23952381Y15464286D01*
X23857143Y15416667D01*
X23809524Y15321429D01*
X23809524Y15226190D01*
X24285715Y15130952D01*
X22952381Y14797619D02*
X22952381Y15797619D01*
X22952381Y14845238D02*
X23047619Y14797619D01*
X23238096Y14797619D01*
X23333334Y14845238D01*
X23380953Y14892857D01*
X23428572Y14988095D01*
X23428572Y15273810D01*
X23380953Y15369048D01*
X23333334Y15416667D01*
X23238096Y15464286D01*
X23047619Y15464286D01*
X22952381Y15416667D01*
X22714286Y14702381D02*
X21952381Y14702381D01*
X21761905Y14845238D02*
X21619048Y14797619D01*
X21380952Y14797619D01*
X21285714Y14845238D01*
X21238095Y14892857D01*
X21190476Y14988095D01*
X21190476Y15083333D01*
X21238095Y15178571D01*
X21285714Y15226190D01*
X21380952Y15273810D01*
X21571429Y15321429D01*
X21666667Y15369048D01*
X21714286Y15416667D01*
X21761905Y15511905D01*
X21761905Y15607143D01*
X21714286Y15702381D01*
X21666667Y15750000D01*
X21571429Y15797619D01*
X21333333Y15797619D01*
X21190476Y15750000D01*
X20761905Y14797619D02*
X20761905Y15464286D01*
X20761905Y15369048D02*
X20714286Y15416667D01*
X20619048Y15464286D01*
X20476190Y15464286D01*
X20380952Y15416667D01*
X20333333Y15321429D01*
X20333333Y14797619D01*
X20333333Y15321429D02*
X20285714Y15416667D01*
X20190476Y15464286D01*
X20047619Y15464286D01*
X19952381Y15416667D01*
X19904762Y15321429D01*
X19904762Y14797619D01*
X19000000Y14797619D02*
X19000000Y15321429D01*
X19047619Y15416667D01*
X19142857Y15464286D01*
X19333334Y15464286D01*
X19428572Y15416667D01*
X19000000Y14845238D02*
X19095238Y14797619D01*
X19333334Y14797619D01*
X19428572Y14845238D01*
X19476191Y14940476D01*
X19476191Y15035714D01*
X19428572Y15130952D01*
X19333334Y15178571D01*
X19095238Y15178571D01*
X19000000Y15226190D01*
X18380953Y14797619D02*
X18476191Y14845238D01*
X18523810Y14940476D01*
X18523810Y15797619D01*
X17857143Y14797619D02*
X17952381Y14845238D01*
X18000000Y14940476D01*
X18000000Y15797619D01*
X24321429Y13297619D02*
X24797620Y13297619D01*
X24797620Y14297619D01*
X23607143Y13345238D02*
X23702381Y13297619D01*
X23892858Y13297619D01*
X23988096Y13345238D01*
X24035715Y13440476D01*
X24035715Y13821429D01*
X23988096Y13916667D01*
X23892858Y13964286D01*
X23702381Y13964286D01*
X23607143Y13916667D01*
X23559524Y13821429D01*
X23559524Y13726190D01*
X24035715Y13630952D01*
X22702381Y13297619D02*
X22702381Y14297619D01*
X22702381Y13345238D02*
X22797619Y13297619D01*
X22988096Y13297619D01*
X23083334Y13345238D01*
X23130953Y13392857D01*
X23178572Y13488095D01*
X23178572Y13773810D01*
X23130953Y13869048D01*
X23083334Y13916667D01*
X22988096Y13964286D01*
X22797619Y13964286D01*
X22702381Y13916667D01*
X22464286Y13202381D02*
X21702381Y13202381D01*
X21511905Y13345238D02*
X21369048Y13297619D01*
X21130952Y13297619D01*
X21035714Y13345238D01*
X20988095Y13392857D01*
X20940476Y13488095D01*
X20940476Y13583333D01*
X20988095Y13678571D01*
X21035714Y13726190D01*
X21130952Y13773810D01*
X21321429Y13821429D01*
X21416667Y13869048D01*
X21464286Y13916667D01*
X21511905Y14011905D01*
X21511905Y14107143D01*
X21464286Y14202381D01*
X21416667Y14250000D01*
X21321429Y14297619D01*
X21083333Y14297619D01*
X20940476Y14250000D01*
X20511905Y13297619D02*
X20511905Y13964286D01*
X20511905Y13869048D02*
X20464286Y13916667D01*
X20369048Y13964286D01*
X20226190Y13964286D01*
X20130952Y13916667D01*
X20083333Y13821429D01*
X20083333Y13297619D01*
X20083333Y13821429D02*
X20035714Y13916667D01*
X19940476Y13964286D01*
X19797619Y13964286D01*
X19702381Y13916667D01*
X19654762Y13821429D01*
X19654762Y13297619D01*
X18750000Y13297619D02*
X18750000Y13821429D01*
X18797619Y13916667D01*
X18892857Y13964286D01*
X19083334Y13964286D01*
X19178572Y13916667D01*
X18750000Y13345238D02*
X18845238Y13297619D01*
X19083334Y13297619D01*
X19178572Y13345238D01*
X19226191Y13440476D01*
X19226191Y13535714D01*
X19178572Y13630952D01*
X19083334Y13678571D01*
X18845238Y13678571D01*
X18750000Y13726190D01*
X18130953Y13297619D02*
X18226191Y13345238D01*
X18273810Y13440476D01*
X18273810Y14297619D01*
X17607143Y13297619D02*
X17702381Y13345238D01*
X17750000Y13440476D01*
X17750000Y14297619D01*
X56809525Y6297619D02*
X56809525Y7297619D01*
X56571430Y7297619D01*
X56428572Y7250000D01*
X56333334Y7154762D01*
X56285715Y7059524D01*
X56238096Y6869048D01*
X56238096Y6726190D01*
X56285715Y6535714D01*
X56333334Y6440476D01*
X56428572Y6345238D01*
X56571430Y6297619D01*
X56809525Y6297619D01*
X56047620Y6202381D02*
X55285715Y6202381D01*
X55095239Y6345238D02*
X54952382Y6297619D01*
X54714286Y6297619D01*
X54619048Y6345238D01*
X54571429Y6392857D01*
X54523810Y6488095D01*
X54523810Y6583333D01*
X54571429Y6678571D01*
X54619048Y6726190D01*
X54714286Y6773810D01*
X54904763Y6821429D01*
X55000001Y6869048D01*
X55047620Y6916667D01*
X55095239Y7011905D01*
X55095239Y7107143D01*
X55047620Y7202381D01*
X55000001Y7250000D01*
X54904763Y7297619D01*
X54666667Y7297619D01*
X54523810Y7250000D01*
X53666667Y6345238D02*
X53761905Y6297619D01*
X53952382Y6297619D01*
X54047620Y6345238D01*
X54095239Y6392857D01*
X54142858Y6488095D01*
X54142858Y6773810D01*
X54095239Y6869048D01*
X54047620Y6916667D01*
X53952382Y6964286D01*
X53761905Y6964286D01*
X53666667Y6916667D01*
X53238096Y6297619D02*
X53238096Y7297619D01*
X52809524Y6297619D02*
X52809524Y6821429D01*
X52857143Y6916667D01*
X52952381Y6964286D01*
X53095239Y6964286D01*
X53190477Y6916667D01*
X53238096Y6869048D01*
X52190477Y6297619D02*
X52285715Y6345238D01*
X52333334Y6392857D01*
X52380953Y6488095D01*
X52380953Y6773810D01*
X52333334Y6869048D01*
X52285715Y6916667D01*
X52190477Y6964286D01*
X52047619Y6964286D01*
X51952381Y6916667D01*
X51904762Y6869048D01*
X51857143Y6773810D01*
X51857143Y6488095D01*
X51904762Y6392857D01*
X51952381Y6345238D01*
X52047619Y6297619D01*
X52190477Y6297619D01*
X51571429Y6964286D02*
X51190477Y6964286D01*
X51428572Y7297619D02*
X51428572Y6440476D01*
X51380953Y6345238D01*
X51285715Y6297619D01*
X51190477Y6297619D01*
X51000000Y6964286D02*
X50619048Y6964286D01*
X50857143Y7297619D02*
X50857143Y6440476D01*
X50809524Y6345238D01*
X50714286Y6297619D01*
X50619048Y6297619D01*
X50285714Y6297619D02*
X50285714Y7297619D01*
X50190476Y6678571D02*
X49904761Y6297619D01*
X49904761Y6964286D02*
X50285714Y6583333D01*
X49571428Y6964286D02*
X49333333Y6297619D01*
X49095237Y6964286D02*
X49333333Y6297619D01*
X49428571Y6059524D01*
X49476190Y6011905D01*
X49571428Y5964286D01*
X48952380Y6202381D02*
X48190475Y6202381D01*
X47999999Y6345238D02*
X47857142Y6297619D01*
X47619046Y6297619D01*
X47523808Y6345238D01*
X47476189Y6392857D01*
X47428570Y6488095D01*
X47428570Y6583333D01*
X47476189Y6678571D01*
X47523808Y6726190D01*
X47619046Y6773810D01*
X47809523Y6821429D01*
X47904761Y6869048D01*
X47952380Y6916667D01*
X47999999Y7011905D01*
X47999999Y7107143D01*
X47952380Y7202381D01*
X47904761Y7250000D01*
X47809523Y7297619D01*
X47571427Y7297619D01*
X47428570Y7250000D01*
X46999999Y6297619D02*
X46999999Y6964286D01*
X46999999Y6869048D02*
X46952380Y6916667D01*
X46857142Y6964286D01*
X46714284Y6964286D01*
X46619046Y6916667D01*
X46571427Y6821429D01*
X46571427Y6297619D01*
X46571427Y6821429D02*
X46523808Y6916667D01*
X46428570Y6964286D01*
X46285713Y6964286D01*
X46190475Y6916667D01*
X46142856Y6821429D01*
X46142856Y6297619D01*
X45238094Y6297619D02*
X45238094Y6821429D01*
X45285713Y6916667D01*
X45380951Y6964286D01*
X45571428Y6964286D01*
X45666666Y6916667D01*
X45238094Y6345238D02*
X45333332Y6297619D01*
X45571428Y6297619D01*
X45666666Y6345238D01*
X45714285Y6440476D01*
X45714285Y6535714D01*
X45666666Y6630952D01*
X45571428Y6678571D01*
X45333332Y6678571D01*
X45238094Y6726190D01*
X44619047Y6297619D02*
X44714285Y6345238D01*
X44761904Y6440476D01*
X44761904Y7297619D01*
X44095237Y6297619D02*
X44190475Y6345238D01*
X44238094Y6440476D01*
X44238094Y7297619D01*
X79988095Y13964286D02*
X79988095Y13297619D01*
X80226191Y14345238D02*
X80464286Y13630952D01*
X79845238Y13630952D01*
X79559524Y14297619D02*
X78892857Y14297619D01*
X79321429Y13297619D01*
X78083333Y13964286D02*
X78083333Y13297619D01*
X78511905Y13964286D02*
X78511905Y13440476D01*
X78464286Y13345238D01*
X78369048Y13297619D01*
X78226190Y13297619D01*
X78130952Y13345238D01*
X78083333Y13392857D01*
X56988095Y19964286D02*
X56988095Y19297619D01*
X57226191Y20345238D02*
X57464286Y19630952D01*
X56845238Y19630952D01*
X56559524Y20297619D02*
X55892857Y20297619D01*
X56321429Y19297619D01*
X55083333Y19964286D02*
X55083333Y19297619D01*
X55511905Y19964286D02*
X55511905Y19440476D01*
X55464286Y19345238D01*
X55369048Y19297619D01*
X55226190Y19297619D01*
X55130952Y19345238D01*
X55083333Y19392857D01*
X46285714Y11988095D02*
X46952381Y11988095D01*
X45904762Y12226191D02*
X46619048Y12464286D01*
X46619048Y11845238D01*
X45952381Y11559524D02*
X45952381Y10892857D01*
X46952381Y11321429D01*
X46285714Y10083333D02*
X46952381Y10083333D01*
X46285714Y10511905D02*
X46809524Y10511905D01*
X46904762Y10464286D01*
X46952381Y10369048D01*
X46952381Y10226190D01*
X46904762Y10130952D01*
X46857143Y10083333D01*
X29702381Y25964285D02*
X29702381Y26535714D01*
X29702381Y26250000D02*
X28702381Y26250000D01*
X28845238Y26345238D01*
X28940476Y26440476D01*
X28988095Y26535714D01*
X63047619Y8666667D02*
X63000000Y8619048D01*
X62952381Y8523810D01*
X62952381Y8285714D01*
X63000000Y8190476D01*
X63047619Y8142857D01*
X63142857Y8095238D01*
X63238095Y8095238D01*
X63380952Y8142857D01*
X63952381Y8714286D01*
X63952381Y8095238D01*
X63047619Y7714286D02*
X63000000Y7666667D01*
X62952381Y7571429D01*
X62952381Y7333333D01*
X63000000Y7238095D01*
X63047619Y7190476D01*
X63142857Y7142857D01*
X63238095Y7142857D01*
X63380952Y7190476D01*
X63952381Y7761905D01*
X63952381Y7142857D01*
X63952381Y6714286D02*
X62952381Y6714286D01*
X63571429Y6619048D02*
X63952381Y6333333D01*
X63285714Y6333333D02*
X63666667Y6714286D01*
X25821429Y18369048D02*
X25916667Y18416667D01*
X25964286Y18464286D01*
X26011905Y18559524D01*
X26011905Y18607143D01*
X25964286Y18702381D01*
X25916667Y18750000D01*
X25821429Y18797619D01*
X25630952Y18797619D01*
X25535714Y18750000D01*
X25488095Y18702381D01*
X25440476Y18607143D01*
X25440476Y18559524D01*
X25488095Y18464286D01*
X25535714Y18416667D01*
X25630952Y18369048D01*
X25821429Y18369048D01*
X25916667Y18321429D01*
X25964286Y18273810D01*
X26011905Y18178571D01*
X26011905Y17988095D01*
X25964286Y17892857D01*
X25916667Y17845238D01*
X25821429Y17797619D01*
X25630952Y17797619D01*
X25535714Y17845238D01*
X25488095Y17892857D01*
X25440476Y17988095D01*
X25440476Y18178571D01*
X25488095Y18273810D01*
X25535714Y18321429D01*
X25630952Y18369048D01*
X24821429Y18797619D02*
X24726190Y18797619D01*
X24630952Y18750000D01*
X24583333Y18702381D01*
X24535714Y18607143D01*
X24488095Y18416667D01*
X24488095Y18178571D01*
X24535714Y17988095D01*
X24583333Y17892857D01*
X24630952Y17845238D01*
X24726190Y17797619D01*
X24821429Y17797619D01*
X24916667Y17845238D01*
X24964286Y17892857D01*
X25011905Y17988095D01*
X25059524Y18178571D01*
X25059524Y18416667D01*
X25011905Y18607143D01*
X24964286Y18702381D01*
X24916667Y18750000D01*
X24821429Y18797619D01*
X25821429Y17119048D02*
X25916667Y17166667D01*
X25964286Y17214286D01*
X26011905Y17309524D01*
X26011905Y17357143D01*
X25964286Y17452381D01*
X25916667Y17500000D01*
X25821429Y17547619D01*
X25630952Y17547619D01*
X25535714Y17500000D01*
X25488095Y17452381D01*
X25440476Y17357143D01*
X25440476Y17309524D01*
X25488095Y17214286D01*
X25535714Y17166667D01*
X25630952Y17119048D01*
X25821429Y17119048D01*
X25916667Y17071429D01*
X25964286Y17023810D01*
X26011905Y16928571D01*
X26011905Y16738095D01*
X25964286Y16642857D01*
X25916667Y16595238D01*
X25821429Y16547619D01*
X25630952Y16547619D01*
X25535714Y16595238D01*
X25488095Y16642857D01*
X25440476Y16738095D01*
X25440476Y16928571D01*
X25488095Y17023810D01*
X25535714Y17071429D01*
X25630952Y17119048D01*
X24821429Y17547619D02*
X24726190Y17547619D01*
X24630952Y17500000D01*
X24583333Y17452381D01*
X24535714Y17357143D01*
X24488095Y17166667D01*
X24488095Y16928571D01*
X24535714Y16738095D01*
X24583333Y16642857D01*
X24630952Y16595238D01*
X24726190Y16547619D01*
X24821429Y16547619D01*
X24916667Y16595238D01*
X24964286Y16642857D01*
X25011905Y16738095D01*
X25059524Y16928571D01*
X25059524Y17166667D01*
X25011905Y17357143D01*
X24964286Y17452381D01*
X24916667Y17500000D01*
X24821429Y17547619D01*
X25916666Y14797619D02*
X26488095Y14797619D01*
X26202381Y14797619D02*
X26202381Y15797619D01*
X26297619Y15654762D01*
X26392857Y15559524D01*
X26488095Y15511905D01*
X25440476Y14797619D02*
X25250000Y14797619D01*
X25154761Y14845238D01*
X25107142Y14892857D01*
X25011904Y15035714D01*
X24964285Y15226190D01*
X24964285Y15607143D01*
X25011904Y15702381D01*
X25059523Y15750000D01*
X25154761Y15797619D01*
X25345238Y15797619D01*
X25440476Y15750000D01*
X25488095Y15702381D01*
X25535714Y15607143D01*
X25535714Y15369048D01*
X25488095Y15273810D01*
X25440476Y15226190D01*
X25345238Y15178571D01*
X25154761Y15178571D01*
X25059523Y15226190D01*
X25011904Y15273810D01*
X24964285Y15369048D01*
X24345238Y15797619D02*
X24249999Y15797619D01*
X24154761Y15750000D01*
X24107142Y15702381D01*
X24059523Y15607143D01*
X24011904Y15416667D01*
X24011904Y15178571D01*
X24059523Y14988095D01*
X24107142Y14892857D01*
X24154761Y14845238D01*
X24249999Y14797619D01*
X24345238Y14797619D01*
X24440476Y14845238D01*
X24488095Y14892857D01*
X24535714Y14988095D01*
X24583333Y15178571D01*
X24583333Y15416667D01*
X24535714Y15607143D01*
X24488095Y15702381D01*
X24440476Y15750000D01*
X24345238Y15797619D01*
X26261904Y14297619D02*
X26452381Y14297619D01*
X26547619Y14250000D01*
X26595238Y14202381D01*
X26690476Y14059524D01*
X26738095Y13869048D01*
X26738095Y13488095D01*
X26690476Y13392857D01*
X26642857Y13345238D01*
X26547619Y13297619D01*
X26357142Y13297619D01*
X26261904Y13345238D01*
X26214285Y13392857D01*
X26166666Y13488095D01*
X26166666Y13726190D01*
X26214285Y13821429D01*
X26261904Y13869048D01*
X26357142Y13916667D01*
X26547619Y13916667D01*
X26642857Y13869048D01*
X26690476Y13821429D01*
X26738095Y13726190D01*
X25261904Y14297619D02*
X25738095Y14297619D01*
X25785714Y13821429D01*
X25738095Y13869048D01*
X25642857Y13916667D01*
X25404761Y13916667D01*
X25309523Y13869048D01*
X25261904Y13821429D01*
X25214285Y13726190D01*
X25214285Y13488095D01*
X25261904Y13392857D01*
X25309523Y13345238D01*
X25404761Y13297619D01*
X25642857Y13297619D01*
X25738095Y13345238D01*
X25785714Y13392857D01*
X24595238Y14297619D02*
X24499999Y14297619D01*
X24404761Y14250000D01*
X24357142Y14202381D01*
X24309523Y14107143D01*
X24261904Y13916667D01*
X24261904Y13678571D01*
X24309523Y13488095D01*
X24357142Y13392857D01*
X24404761Y13345238D01*
X24499999Y13297619D01*
X24595238Y13297619D01*
X24690476Y13345238D01*
X24738095Y13392857D01*
X24785714Y13488095D01*
X24833333Y13678571D01*
X24833333Y13916667D01*
X24785714Y14107143D01*
X24738095Y14202381D01*
X24690476Y14250000D01*
X24595238Y14297619D01*
X38521667Y9857381D02*
X38474048Y9905000D01*
X38378810Y9952619D01*
X38140714Y9952619D01*
X38045476Y9905000D01*
X37997857Y9857381D01*
X37950238Y9762143D01*
X37950238Y9666905D01*
X37997857Y9524048D01*
X38569286Y8952619D01*
X37950238Y8952619D01*
X37569286Y9857381D02*
X37521667Y9905000D01*
X37426429Y9952619D01*
X37188333Y9952619D01*
X37093095Y9905000D01*
X37045476Y9857381D01*
X36997857Y9762143D01*
X36997857Y9666905D01*
X37045476Y9524048D01*
X37616905Y8952619D01*
X36997857Y8952619D01*
X36569286Y8952619D02*
X36569286Y9952619D01*
X36474048Y9333571D02*
X36188333Y8952619D01*
X36188333Y9619286D02*
X36569286Y9238333D01*
X50571428Y20547619D02*
X51142857Y20547619D01*
X50857143Y20547619D02*
X50857143Y21547619D01*
X50952381Y21404762D01*
X51047619Y21309524D01*
X51142857Y21261905D01*
X49952381Y21547619D02*
X49857142Y21547619D01*
X49761904Y21500000D01*
X49714285Y21452381D01*
X49666666Y21357143D01*
X49619047Y21166667D01*
X49619047Y20928571D01*
X49666666Y20738095D01*
X49714285Y20642857D01*
X49761904Y20595238D01*
X49857142Y20547619D01*
X49952381Y20547619D01*
X50047619Y20595238D01*
X50095238Y20642857D01*
X50142857Y20738095D01*
X50190476Y20928571D01*
X50190476Y21166667D01*
X50142857Y21357143D01*
X50095238Y21452381D01*
X50047619Y21500000D01*
X49952381Y21547619D01*
X49000000Y21547619D02*
X48904761Y21547619D01*
X48809523Y21500000D01*
X48761904Y21452381D01*
X48714285Y21357143D01*
X48666666Y21166667D01*
X48666666Y20928571D01*
X48714285Y20738095D01*
X48761904Y20642857D01*
X48809523Y20595238D01*
X48904761Y20547619D01*
X49000000Y20547619D01*
X49095238Y20595238D01*
X49142857Y20642857D01*
X49190476Y20738095D01*
X49238095Y20928571D01*
X49238095Y21166667D01*
X49190476Y21357143D01*
X49142857Y21452381D01*
X49095238Y21500000D01*
X49000000Y21547619D01*
X48238095Y20547619D02*
X48238095Y21547619D01*
X48142857Y20928571D02*
X47857142Y20547619D01*
X47857142Y21214286D02*
X48238095Y20833333D01*
X44549286Y12442619D02*
X43930238Y12442619D01*
X44263572Y12061667D01*
X44120714Y12061667D01*
X44025476Y12014048D01*
X43977857Y11966429D01*
X43930238Y11871190D01*
X43930238Y11633095D01*
X43977857Y11537857D01*
X44025476Y11490238D01*
X44120714Y11442619D01*
X44406429Y11442619D01*
X44501667Y11490238D01*
X44549286Y11537857D01*
X43358810Y12014048D02*
X43454048Y12061667D01*
X43501667Y12109286D01*
X43549286Y12204524D01*
X43549286Y12252143D01*
X43501667Y12347381D01*
X43454048Y12395000D01*
X43358810Y12442619D01*
X43168333Y12442619D01*
X43073095Y12395000D01*
X43025476Y12347381D01*
X42977857Y12252143D01*
X42977857Y12204524D01*
X43025476Y12109286D01*
X43073095Y12061667D01*
X43168333Y12014048D01*
X43358810Y12014048D01*
X43454048Y11966429D01*
X43501667Y11918810D01*
X43549286Y11823571D01*
X43549286Y11633095D01*
X43501667Y11537857D01*
X43454048Y11490238D01*
X43358810Y11442619D01*
X43168333Y11442619D01*
X43073095Y11490238D01*
X43025476Y11537857D01*
X42977857Y11633095D01*
X42977857Y11823571D01*
X43025476Y11918810D01*
X43073095Y11966429D01*
X43168333Y12014048D01*
X42549286Y11442619D02*
X42549286Y12442619D01*
X42454048Y11823571D02*
X42168333Y11442619D01*
X42168333Y12109286D02*
X42549286Y11728333D01*
X39915476Y12107381D02*
X39867857Y12155000D01*
X39772619Y12202619D01*
X39534523Y12202619D01*
X39439285Y12155000D01*
X39391666Y12107381D01*
X39344047Y12012143D01*
X39344047Y11916905D01*
X39391666Y11774048D01*
X39963095Y11202619D01*
X39344047Y11202619D01*
X38915476Y11202619D02*
X38915476Y12202619D01*
X38820238Y11583571D02*
X38534523Y11202619D01*
X38534523Y11869286D02*
X38915476Y11488333D01*
X45595238Y24547619D02*
X45023809Y24547619D01*
X45309524Y23547619D02*
X45309524Y24547619D01*
X44119047Y23547619D02*
X44452381Y24023810D01*
X44690476Y23547619D02*
X44690476Y24547619D01*
X44309523Y24547619D01*
X44214285Y24500000D01*
X44166666Y24452381D01*
X44119047Y24357143D01*
X44119047Y24214286D01*
X44166666Y24119048D01*
X44214285Y24071429D01*
X44309523Y24023810D01*
X44690476Y24023810D01*
X43690476Y23547619D02*
X43690476Y24547619D01*
X43261905Y23833333D02*
X42785714Y23833333D01*
X43357143Y23547619D02*
X43023810Y24547619D01*
X42690476Y23547619D01*
X41785714Y23642857D02*
X41833333Y23595238D01*
X41976190Y23547619D01*
X42071428Y23547619D01*
X42214286Y23595238D01*
X42309524Y23690476D01*
X42357143Y23785714D01*
X42404762Y23976190D01*
X42404762Y24119048D01*
X42357143Y24309524D01*
X42309524Y24404762D01*
X42214286Y24500000D01*
X42071428Y24547619D01*
X41976190Y24547619D01*
X41833333Y24500000D01*
X41785714Y24452381D01*
X41595238Y23452381D02*
X40833333Y23452381D01*
X40404762Y24547619D02*
X40214285Y24547619D01*
X40119047Y24500000D01*
X40023809Y24404762D01*
X39976190Y24214286D01*
X39976190Y23880952D01*
X40023809Y23690476D01*
X40119047Y23595238D01*
X40214285Y23547619D01*
X40404762Y23547619D01*
X40500000Y23595238D01*
X40595238Y23690476D01*
X40642857Y23880952D01*
X40642857Y24214286D01*
X40595238Y24404762D01*
X40500000Y24500000D01*
X40404762Y24547619D01*
X39547619Y23547619D02*
X39547619Y24547619D01*
X39166666Y24547619D01*
X39071428Y24500000D01*
X39023809Y24452381D01*
X38976190Y24357143D01*
X38976190Y24214286D01*
X39023809Y24119048D01*
X39071428Y24071429D01*
X39166666Y24023810D01*
X39547619Y24023810D01*
X38690476Y24547619D02*
X38119047Y24547619D01*
X38404762Y23547619D02*
X38404762Y24547619D01*
X37595238Y24547619D02*
X37404761Y24547619D01*
X37309523Y24500000D01*
X37214285Y24404762D01*
X37166666Y24214286D01*
X37166666Y23880952D01*
X37214285Y23690476D01*
X37309523Y23595238D01*
X37404761Y23547619D01*
X37595238Y23547619D01*
X37690476Y23595238D01*
X37785714Y23690476D01*
X37833333Y23880952D01*
X37833333Y24214286D01*
X37785714Y24404762D01*
X37690476Y24500000D01*
X37595238Y24547619D01*
X36166666Y23642857D02*
X36214285Y23595238D01*
X36357142Y23547619D01*
X36452380Y23547619D01*
X36595238Y23595238D01*
X36690476Y23690476D01*
X36738095Y23785714D01*
X36785714Y23976190D01*
X36785714Y24119048D01*
X36738095Y24309524D01*
X36690476Y24404762D01*
X36595238Y24500000D01*
X36452380Y24547619D01*
X36357142Y24547619D01*
X36214285Y24500000D01*
X36166666Y24452381D01*
X35547619Y24547619D02*
X35357142Y24547619D01*
X35261904Y24500000D01*
X35166666Y24404762D01*
X35119047Y24214286D01*
X35119047Y23880952D01*
X35166666Y23690476D01*
X35261904Y23595238D01*
X35357142Y23547619D01*
X35547619Y23547619D01*
X35642857Y23595238D01*
X35738095Y23690476D01*
X35785714Y23880952D01*
X35785714Y24214286D01*
X35738095Y24404762D01*
X35642857Y24500000D01*
X35547619Y24547619D01*
X34690476Y24547619D02*
X34690476Y23738095D01*
X34642857Y23642857D01*
X34595238Y23595238D01*
X34500000Y23547619D01*
X34309523Y23547619D01*
X34214285Y23595238D01*
X34166666Y23642857D01*
X34119047Y23738095D01*
X34119047Y24547619D01*
X33642857Y23547619D02*
X33642857Y24547619D01*
X33261904Y24547619D01*
X33166666Y24500000D01*
X33119047Y24452381D01*
X33071428Y24357143D01*
X33071428Y24214286D01*
X33119047Y24119048D01*
X33166666Y24071429D01*
X33261904Y24023810D01*
X33642857Y24023810D01*
X32166666Y23547619D02*
X32642857Y23547619D01*
X32642857Y24547619D01*
X31833333Y24071429D02*
X31499999Y24071429D01*
X31357142Y23547619D02*
X31833333Y23547619D01*
X31833333Y24547619D01*
X31357142Y24547619D01*
X30357142Y23547619D02*
X30690476Y24023810D01*
X30928571Y23547619D02*
X30928571Y24547619D01*
X30547618Y24547619D01*
X30452380Y24500000D01*
X30404761Y24452381D01*
X30357142Y24357143D01*
X30357142Y24214286D01*
X30404761Y24119048D01*
X30452380Y24071429D01*
X30547618Y24023810D01*
X30928571Y24023810D01*
X30166666Y23452381D02*
X29404761Y23452381D01*
X29214285Y24452381D02*
X29166666Y24500000D01*
X29071428Y24547619D01*
X28833332Y24547619D01*
X28738094Y24500000D01*
X28690475Y24452381D01*
X28642856Y24357143D01*
X28642856Y24261905D01*
X28690475Y24119048D01*
X29261904Y23547619D01*
X28642856Y23547619D01*
X28214285Y23547619D02*
X28214285Y24547619D01*
X27976190Y24547619D01*
X27833332Y24500000D01*
X27738094Y24404762D01*
X27690475Y24309524D01*
X27642856Y24119048D01*
X27642856Y23976190D01*
X27690475Y23785714D01*
X27738094Y23690476D01*
X27833332Y23595238D01*
X27976190Y23547619D01*
X28214285Y23547619D01*
X27214285Y23928571D02*
X26452380Y23928571D01*
X26833332Y23547619D02*
X26833332Y24309524D01*
X25404761Y23642857D02*
X25452380Y23595238D01*
X25595237Y23547619D01*
X25690475Y23547619D01*
X25833333Y23595238D01*
X25928571Y23690476D01*
X25976190Y23785714D01*
X26023809Y23976190D01*
X26023809Y24119048D01*
X25976190Y24309524D01*
X25928571Y24404762D01*
X25833333Y24500000D01*
X25690475Y24547619D01*
X25595237Y24547619D01*
X25452380Y24500000D01*
X25404761Y24452381D01*
X24976190Y24071429D02*
X24642856Y24071429D01*
X24499999Y23547619D02*
X24976190Y23547619D01*
X24976190Y24547619D01*
X24499999Y24547619D01*
X65852381Y11875238D02*
X65709524Y11827619D01*
X65471428Y11827619D01*
X65376190Y11875238D01*
X65328571Y11922857D01*
X65280952Y12018095D01*
X65280952Y12113333D01*
X65328571Y12208571D01*
X65376190Y12256190D01*
X65471428Y12303810D01*
X65661905Y12351429D01*
X65757143Y12399048D01*
X65804762Y12446667D01*
X65852381Y12541905D01*
X65852381Y12637143D01*
X65804762Y12732381D01*
X65757143Y12780000D01*
X65661905Y12827619D01*
X65423809Y12827619D01*
X65280952Y12780000D01*
X64947619Y12827619D02*
X64709524Y11827619D01*
X64519047Y12541905D01*
X64328571Y11827619D01*
X64090476Y12827619D01*
X63709524Y11827619D02*
X63709524Y12827619D01*
X63376191Y12827619D02*
X62804762Y12827619D01*
X63090477Y11827619D02*
X63090477Y12827619D01*
X61900000Y11922857D02*
X61947619Y11875238D01*
X62090476Y11827619D01*
X62185714Y11827619D01*
X62328572Y11875238D01*
X62423810Y11970476D01*
X62471429Y12065714D01*
X62519048Y12256190D01*
X62519048Y12399048D01*
X62471429Y12589524D01*
X62423810Y12684762D01*
X62328572Y12780000D01*
X62185714Y12827619D01*
X62090476Y12827619D01*
X61947619Y12780000D01*
X61900000Y12732381D01*
X61471429Y11827619D02*
X61471429Y12827619D01*
X61471429Y12351429D02*
X60900000Y12351429D01*
X60900000Y11827619D02*
X60900000Y12827619D01*
X60423810Y12351429D02*
X60090476Y12351429D01*
X59947619Y11827619D02*
X60423810Y11827619D01*
X60423810Y12827619D01*
X59947619Y12827619D01*
X58947619Y11827619D02*
X59280953Y12303810D01*
X59519048Y11827619D02*
X59519048Y12827619D01*
X59138095Y12827619D01*
X59042857Y12780000D01*
X58995238Y12732381D01*
X58947619Y12637143D01*
X58947619Y12494286D01*
X58995238Y12399048D01*
X59042857Y12351429D01*
X59138095Y12303810D01*
X59519048Y12303810D01*
X42639762Y11837381D02*
X42687381Y11694524D01*
X42687381Y11456428D01*
X42639762Y11361190D01*
X42592143Y11313571D01*
X42496905Y11265952D01*
X42401667Y11265952D01*
X42306429Y11313571D01*
X42258810Y11361190D01*
X42211190Y11456428D01*
X42163571Y11646905D01*
X42115952Y11742143D01*
X42068333Y11789762D01*
X41973095Y11837381D01*
X41877857Y11837381D01*
X41782619Y11789762D01*
X41735000Y11742143D01*
X41687381Y11646905D01*
X41687381Y11408809D01*
X41735000Y11265952D01*
X41687381Y10932619D02*
X42687381Y10694524D01*
X41973095Y10504047D01*
X42687381Y10313571D01*
X41687381Y10075476D01*
X42687381Y9694524D02*
X41687381Y9694524D01*
X41687381Y9361191D02*
X41687381Y8789762D01*
X42687381Y9075477D02*
X41687381Y9075477D01*
X42592143Y7885000D02*
X42639762Y7932619D01*
X42687381Y8075476D01*
X42687381Y8170714D01*
X42639762Y8313572D01*
X42544524Y8408810D01*
X42449286Y8456429D01*
X42258810Y8504048D01*
X42115952Y8504048D01*
X41925476Y8456429D01*
X41830238Y8408810D01*
X41735000Y8313572D01*
X41687381Y8170714D01*
X41687381Y8075476D01*
X41735000Y7932619D01*
X41782619Y7885000D01*
X42687381Y7456429D02*
X41687381Y7456429D01*
X42163571Y7456429D02*
X42163571Y6885000D01*
X42687381Y6885000D02*
X41687381Y6885000D01*
X42163571Y6408810D02*
X42163571Y6075476D01*
X42687381Y5932619D02*
X42687381Y6408810D01*
X41687381Y6408810D01*
X41687381Y5932619D01*
X42687381Y4932619D02*
X42211190Y5265953D01*
X42687381Y5504048D02*
X41687381Y5504048D01*
X41687381Y5123095D01*
X41735000Y5027857D01*
X41782619Y4980238D01*
X41877857Y4932619D01*
X42020714Y4932619D01*
X42115952Y4980238D01*
X42163571Y5027857D01*
X42211190Y5123095D01*
X42211190Y5504048D01*
X50202381Y24964285D02*
X50202381Y25440476D01*
X49202381Y25440476D01*
X50202381Y24630952D02*
X49202381Y24630952D01*
X49202381Y24392857D01*
X49250000Y24249999D01*
X49345238Y24154761D01*
X49440476Y24107142D01*
X49630952Y24059523D01*
X49773810Y24059523D01*
X49964286Y24107142D01*
X50059524Y24154761D01*
X50154762Y24249999D01*
X50202381Y24392857D01*
X50202381Y24630952D01*
X49202381Y23440476D02*
X49202381Y23249999D01*
X49250000Y23154761D01*
X49345238Y23059523D01*
X49535714Y23011904D01*
X49869048Y23011904D01*
X50059524Y23059523D01*
X50154762Y23154761D01*
X50202381Y23249999D01*
X50202381Y23440476D01*
X50154762Y23535714D01*
X50059524Y23630952D01*
X49869048Y23678571D01*
X49535714Y23678571D01*
X49345238Y23630952D01*
X49250000Y23535714D01*
X49202381Y23440476D01*
X32964286Y22447619D02*
X32345238Y22447619D01*
X32678572Y22066667D01*
X32535714Y22066667D01*
X32440476Y22019048D01*
X32392857Y21971429D01*
X32345238Y21876190D01*
X32345238Y21638095D01*
X32392857Y21542857D01*
X32440476Y21495238D01*
X32535714Y21447619D01*
X32821429Y21447619D01*
X32916667Y21495238D01*
X32964286Y21542857D01*
X32011905Y22447619D02*
X31392857Y22447619D01*
X31726191Y22066667D01*
X31583333Y22066667D01*
X31488095Y22019048D01*
X31440476Y21971429D01*
X31392857Y21876190D01*
X31392857Y21638095D01*
X31440476Y21542857D01*
X31488095Y21495238D01*
X31583333Y21447619D01*
X31869048Y21447619D01*
X31964286Y21495238D01*
X32011905Y21542857D01*
X30964286Y21447619D02*
X30964286Y22447619D01*
X30869048Y21828571D02*
X30583333Y21447619D01*
X30583333Y22114286D02*
X30964286Y21733333D01*
M02*
