M48
;DRILL file {KiCad 4.0.4+dfsg1-stable} date Sun Feb  5 22:53:48 2017
;FORMAT={-:-/ absolute / metric / decimal}
FMAT,2
METRIC,TZ
T1C0.700
T2C0.800
T3C0.900
T4C1.000
T5C1.100
T6C1.300
T7C2.500
%
G90
G05
M71
T1
X18.3Y40.434
X18.3Y32.434
X25.3Y40.434
X25.3Y32.434
X25.864Y55.924
X25.864Y47.424
X31.258Y48.118
X31.766Y55.484
X35.19Y40.99
X35.19Y32.49
X38.758Y48.118
X39.266Y55.484
X39.82Y41.21
X39.82Y32.71
X87.43Y23.38
X87.43Y18.38
T2
X53.1Y9.8
X53.1Y7.3
X58.98Y24.36
X61.48Y24.36
X74.5Y13.8
X74.5Y11.3
T3
X26.75Y63.5
X41.75Y63.5
T4
X7.5Y19.58
X7.5Y17.04
X7.5Y14.5
X7.5Y11.
X7.5Y8.46
X7.5Y5.92
X17.25Y17.
X17.75Y14.25
X19.Y12.
X19.768Y63.806
X19.768Y56.306
X22.3Y6.6
X24.84Y6.6
X27.38Y6.6
X29.75Y15.3
X29.92Y6.6
X32.25Y17.
X35.5Y11.75
X46.Y20.5
X48.75Y27.25
X53.Y21.5
X60.75Y72.65
X60.75Y40.15
X65.75Y40.15
X85.75Y40.15
X90.75Y72.65
X90.75Y40.15
T5
X71.01Y22.73
X73.51Y27.23
X75.51Y20.23
X78.01Y24.73
T6
X7.5Y53.
X7.5Y47.92
X7.5Y42.84
X7.5Y35.
X7.5Y29.92
X15.744Y73.772
X20.824Y73.772
X30.904Y73.772
X35.984Y73.772
T7
X50.75Y56.4
X100.75Y56.4
T0
M30
