G04 #@! TF.FileFunction,Other,User*
%FSLAX46Y46*%
G04 Gerber Fmt 4.6, Leading zero omitted, Abs format (unit mm)*
G04 Created by KiCad (PCBNEW 4.0.4+dfsg1-stable) date Sun Feb  5 22:53:45 2017*
%MOMM*%
%LPD*%
G01*
G04 APERTURE LIST*
%ADD10C,0.100000*%
%ADD11C,0.050000*%
%ADD12C,0.150000*%
G04 APERTURE END LIST*
D10*
D11*
X64550000Y18570000D02*
X64550000Y22270000D01*
X63050000Y18570000D02*
X63050000Y22270000D01*
X64550000Y18570000D02*
X63050000Y18570000D01*
X64550000Y22270000D02*
X63050000Y22270000D01*
X83090000Y13900000D02*
X83090000Y9900000D01*
X84690000Y13900000D02*
X84690000Y9900000D01*
X83090000Y13900000D02*
X84690000Y13900000D01*
X83090000Y9900000D02*
X84690000Y9900000D01*
X60980000Y9450000D02*
X60980000Y5750000D01*
X62480000Y9450000D02*
X62480000Y5750000D01*
X60980000Y9450000D02*
X62480000Y9450000D01*
X60980000Y5750000D02*
X62480000Y5750000D01*
X65230000Y15510000D02*
X65230000Y11810000D01*
X66730000Y15510000D02*
X66730000Y11810000D01*
X65230000Y15510000D02*
X66730000Y15510000D01*
X65230000Y11810000D02*
X66730000Y11810000D01*
X57850000Y17350000D02*
X57850000Y13650000D01*
X59350000Y17350000D02*
X59350000Y13650000D01*
X57850000Y17350000D02*
X59350000Y17350000D01*
X57850000Y13650000D02*
X59350000Y13650000D01*
X53250000Y26680000D02*
X53250000Y22980000D01*
X54750000Y26680000D02*
X54750000Y22980000D01*
X53250000Y26680000D02*
X54750000Y26680000D01*
X53250000Y22980000D02*
X54750000Y22980000D01*
X47900000Y5750000D02*
X51600000Y5750000D01*
X47900000Y7250000D02*
X51600000Y7250000D01*
X47900000Y5750000D02*
X47900000Y7250000D01*
X51600000Y5750000D02*
X51600000Y7250000D01*
X39355000Y9815000D02*
X35655000Y9815000D01*
X39355000Y8315000D02*
X35655000Y8315000D01*
X39355000Y9815000D02*
X39355000Y8315000D01*
X35655000Y9815000D02*
X35655000Y8315000D01*
X45625000Y5425000D02*
X41925000Y5425000D01*
X45625000Y3925000D02*
X41925000Y3925000D01*
X45625000Y5425000D02*
X45625000Y3925000D01*
X41925000Y5425000D02*
X41925000Y3925000D01*
X51670000Y26680000D02*
X51670000Y22980000D01*
X53170000Y26680000D02*
X53170000Y22980000D01*
X51670000Y26680000D02*
X53170000Y26680000D01*
X51670000Y22980000D02*
X53170000Y22980000D01*
X40935000Y12575000D02*
X37235000Y12575000D01*
X40935000Y11075000D02*
X37235000Y11075000D01*
X40935000Y12575000D02*
X40935000Y11075000D01*
X37235000Y12575000D02*
X37235000Y11075000D01*
X47405000Y12935000D02*
X43705000Y12935000D01*
X47405000Y11435000D02*
X43705000Y11435000D01*
X47405000Y12935000D02*
X47405000Y11435000D01*
X43705000Y12935000D02*
X43705000Y11435000D01*
X45860000Y26160000D02*
X45860000Y22460000D01*
X47360000Y26160000D02*
X47360000Y22460000D01*
X45860000Y26160000D02*
X47360000Y26160000D01*
X45860000Y22460000D02*
X47360000Y22460000D01*
X54500000Y10600000D02*
X54500000Y6900000D01*
X56000000Y10600000D02*
X56000000Y6900000D01*
X54500000Y10600000D02*
X56000000Y10600000D01*
X54500000Y6900000D02*
X56000000Y6900000D01*
X19300000Y17700000D02*
X23300000Y17700000D01*
X19300000Y19300000D02*
X23300000Y19300000D01*
X19300000Y17700000D02*
X19300000Y19300000D01*
X23300000Y17700000D02*
X23300000Y19300000D01*
X19300000Y16100000D02*
X23300000Y16100000D01*
X19300000Y17700000D02*
X23300000Y17700000D01*
X19300000Y16100000D02*
X19300000Y17700000D01*
X23300000Y16100000D02*
X23300000Y17700000D01*
X19300000Y14500000D02*
X23300000Y14500000D01*
X19300000Y16100000D02*
X23300000Y16100000D01*
X19300000Y14500000D02*
X19300000Y16100000D01*
X23300000Y14500000D02*
X23300000Y16100000D01*
X19300000Y12900000D02*
X23300000Y12900000D01*
X19300000Y14500000D02*
X23300000Y14500000D01*
X19300000Y12900000D02*
X19300000Y14500000D01*
X23300000Y12900000D02*
X23300000Y14500000D01*
X30500000Y24100000D02*
X30500000Y28900000D01*
X28500000Y24100000D02*
X28500000Y28900000D01*
X30500000Y24100000D02*
X28500000Y24100000D01*
X30500000Y28900000D02*
X28500000Y28900000D01*
X64230000Y5370000D02*
X64230000Y9370000D01*
X62630000Y5370000D02*
X62630000Y9370000D01*
X64230000Y5370000D02*
X62630000Y5370000D01*
X64230000Y9370000D02*
X62630000Y9370000D01*
X27300000Y19300000D02*
X23300000Y19300000D01*
X27300000Y17700000D02*
X23300000Y17700000D01*
X27300000Y19300000D02*
X27300000Y17700000D01*
X23300000Y19300000D02*
X23300000Y17700000D01*
X27300000Y17700000D02*
X23300000Y17700000D01*
X27300000Y16100000D02*
X23300000Y16100000D01*
X27300000Y17700000D02*
X27300000Y16100000D01*
X23300000Y17700000D02*
X23300000Y16100000D01*
X27300000Y16100000D02*
X23300000Y16100000D01*
X27300000Y14500000D02*
X23300000Y14500000D01*
X27300000Y16100000D02*
X27300000Y14500000D01*
X23300000Y16100000D02*
X23300000Y14500000D01*
X27300000Y14500000D02*
X23300000Y14500000D01*
X27300000Y12900000D02*
X23300000Y12900000D01*
X27300000Y14500000D02*
X27300000Y12900000D01*
X23300000Y14500000D02*
X23300000Y12900000D01*
X35355000Y6705000D02*
X39355000Y6705000D01*
X35355000Y8305000D02*
X39355000Y8305000D01*
X35355000Y6705000D02*
X35355000Y8305000D01*
X39355000Y6705000D02*
X39355000Y8305000D01*
X51760000Y22170000D02*
X47760000Y22170000D01*
X51760000Y20570000D02*
X47760000Y20570000D01*
X51760000Y22170000D02*
X51760000Y20570000D01*
X47760000Y22170000D02*
X47760000Y20570000D01*
X45335000Y14595000D02*
X41335000Y14595000D01*
X45335000Y12995000D02*
X41335000Y12995000D01*
X45335000Y14595000D02*
X45335000Y12995000D01*
X41335000Y14595000D02*
X41335000Y12995000D01*
X41225000Y14355000D02*
X37225000Y14355000D01*
X41225000Y12755000D02*
X37225000Y12755000D01*
X41225000Y14355000D02*
X41225000Y12755000D01*
X37225000Y14355000D02*
X37225000Y12755000D01*
D12*
X34530000Y27840000D02*
G75*
G03X34530000Y27840000I-500000J0D01*
G01*
X33030000Y20840000D02*
X41030000Y20840000D01*
X41030000Y20840000D02*
X41030000Y28840000D01*
X41030000Y28840000D02*
X33030000Y28840000D01*
X33030000Y28840000D02*
X33030000Y20840000D01*
X50260000Y25310000D02*
G75*
G03X50260000Y25310000I-200000J0D01*
G01*
X48660000Y25910000D02*
X48660000Y22710000D01*
X48660000Y22710000D02*
X50660000Y22710000D01*
X50660000Y22710000D02*
X50660000Y25910000D01*
X50660000Y25910000D02*
X48660000Y25910000D01*
D11*
X29750000Y19200000D02*
X33750000Y19200000D01*
X29750000Y20800000D02*
X33750000Y20800000D01*
X29750000Y19200000D02*
X29750000Y20800000D01*
X33750000Y19200000D02*
X33750000Y20800000D01*
M02*
