G04 #@! TF.FileFunction,Legend,Top*
%FSLAX46Y46*%
G04 Gerber Fmt 4.6, Leading zero omitted, Abs format (unit mm)*
G04 Created by KiCad (PCBNEW 4.0.4+dfsg1-stable) date Tue Mar  7 14:42:26 2017*
%MOMM*%
%LPD*%
G01*
G04 APERTURE LIST*
%ADD10C,0.100000*%
%ADD11C,0.150000*%
G04 APERTURE END LIST*
D10*
D11*
X27462492Y60600000D02*
G75*
G03X27462492Y60600000I-10012492J0D01*
G01*
X2450000Y72600000D02*
X2450000Y48600000D01*
X2450000Y48600000D02*
X27950000Y48600000D01*
X27950000Y48600000D02*
X27950000Y72600000D01*
X27950000Y72600000D02*
X2450000Y72600000D01*
X21390000Y48070000D02*
X21390000Y45657000D01*
X16310000Y45657000D02*
X16310000Y48070000D01*
X21390000Y47943000D02*
G75*
G03X16310000Y47943000I-2540000J0D01*
G01*
X15738500Y36640000D02*
X15738500Y45657000D01*
X15738500Y45657000D02*
X21961500Y45657000D01*
X21961500Y36640000D02*
X21961500Y45657000D01*
X21961500Y36640000D02*
X15738500Y36640000D01*
X21340000Y53270000D02*
X21340000Y50857000D01*
X16260000Y50857000D02*
X16260000Y53270000D01*
X21340000Y53143000D02*
G75*
G03X16260000Y53143000I-2540000J0D01*
G01*
X15688500Y41840000D02*
X15688500Y50857000D01*
X15688500Y50857000D02*
X21911500Y50857000D01*
X21911500Y41840000D02*
X21911500Y50857000D01*
X21911500Y41840000D02*
X15688500Y41840000D01*
X43090000Y37070000D02*
X43090000Y34657000D01*
X38010000Y34657000D02*
X38010000Y37070000D01*
X43090000Y36943000D02*
G75*
G03X38010000Y36943000I-2540000J0D01*
G01*
X37438500Y25640000D02*
X37438500Y34657000D01*
X37438500Y34657000D02*
X43661500Y34657000D01*
X43661500Y25640000D02*
X43661500Y34657000D01*
X43661500Y25640000D02*
X37438500Y25640000D01*
X91670000Y53730000D02*
X91670000Y28330000D01*
X91120000Y53190000D02*
X91120000Y28890000D01*
X82570000Y53730000D02*
X82570000Y28330000D01*
X83120000Y53190000D02*
X83120000Y43280000D01*
X83120000Y38780000D02*
X83120000Y28890000D01*
X83120000Y43280000D02*
X82570000Y43280000D01*
X83120000Y38780000D02*
X82570000Y38780000D01*
X91670000Y53730000D02*
X82570000Y53730000D01*
X91120000Y53190000D02*
X83120000Y53190000D01*
X91670000Y28330000D02*
X82570000Y28330000D01*
X91120000Y28890000D02*
X83120000Y28890000D01*
X91670000Y53730000D02*
X91120000Y53190000D01*
X91670000Y28330000D02*
X91120000Y28890000D01*
X82570000Y53730000D02*
X83120000Y53190000D01*
X82570000Y28330000D02*
X83120000Y28890000D01*
X69552000Y11634000D02*
X55328000Y11634000D01*
X70060000Y12142000D02*
X54820000Y12142000D01*
X55328000Y3506000D02*
X69425000Y3506000D01*
X54820000Y2998000D02*
X70060000Y2998000D01*
X60240000Y3506000D02*
X60240000Y3055000D01*
X64640000Y3506000D02*
X64640000Y3020000D01*
X54820000Y12120000D02*
X54820000Y3020000D01*
X55360000Y11570000D02*
X55360000Y3570000D01*
X70060000Y12120000D02*
X70060000Y3020000D01*
X69500000Y11570000D02*
X69500000Y3570000D01*
X54820000Y12120000D02*
X55360000Y11570000D01*
X70060000Y12120000D02*
X69500000Y11570000D01*
X54820000Y3020000D02*
X55360000Y3570000D01*
X70060000Y3020000D02*
X69500000Y3570000D01*
X69500000Y54000000D02*
G75*
G03X69500000Y54000000I-2000000J0D01*
G01*
X71000000Y54000000D02*
G75*
G03X71000000Y54000000I-3500000J0D01*
G01*
X71772002Y54000000D02*
G75*
G03X71772002Y54000000I-4272002J0D01*
G01*
X73000000Y54000000D02*
X73000000Y61500000D01*
X73000000Y61500000D02*
X62000000Y61500000D01*
X62000000Y61500000D02*
X62000000Y47000000D01*
X62000000Y47000000D02*
X73000000Y47000000D01*
X73000000Y47000000D02*
X73000000Y54000000D01*
X39040000Y13370000D02*
X39040000Y10957000D01*
X33960000Y10957000D02*
X33960000Y13370000D01*
X39040000Y13243000D02*
G75*
G03X33960000Y13243000I-2540000J0D01*
G01*
X33388500Y1940000D02*
X33388500Y10957000D01*
X33388500Y10957000D02*
X39611500Y10957000D01*
X39611500Y1940000D02*
X39611500Y10957000D01*
X39611500Y1940000D02*
X33388500Y1940000D01*
X50484762Y19896667D02*
X50532381Y20039524D01*
X50532381Y20277620D01*
X50484762Y20372858D01*
X50437143Y20420477D01*
X50341905Y20468096D01*
X50246667Y20468096D01*
X50151429Y20420477D01*
X50103810Y20372858D01*
X50056190Y20277620D01*
X50008571Y20087143D01*
X49960952Y19991905D01*
X49913333Y19944286D01*
X49818095Y19896667D01*
X49722857Y19896667D01*
X49627619Y19944286D01*
X49580000Y19991905D01*
X49532381Y20087143D01*
X49532381Y20325239D01*
X49580000Y20468096D01*
X49532381Y20801429D02*
X50532381Y21039524D01*
X49818095Y21230001D01*
X50532381Y21420477D01*
X49532381Y21658572D01*
X49532381Y22468096D02*
X49532381Y22277619D01*
X49580000Y22182381D01*
X49627619Y22134762D01*
X49770476Y22039524D01*
X49960952Y21991905D01*
X50341905Y21991905D01*
X50437143Y22039524D01*
X50484762Y22087143D01*
X50532381Y22182381D01*
X50532381Y22372858D01*
X50484762Y22468096D01*
X50437143Y22515715D01*
X50341905Y22563334D01*
X50103810Y22563334D01*
X50008571Y22515715D01*
X49960952Y22468096D01*
X49913333Y22372858D01*
X49913333Y22182381D01*
X49960952Y22087143D01*
X50008571Y22039524D01*
X50103810Y21991905D01*
X13164286Y59671429D02*
X13307143Y59623810D01*
X13354762Y59576190D01*
X13402381Y59480952D01*
X13402381Y59338095D01*
X13354762Y59242857D01*
X13307143Y59195238D01*
X13211905Y59147619D01*
X12830952Y59147619D01*
X12830952Y60147619D01*
X13164286Y60147619D01*
X13259524Y60100000D01*
X13307143Y60052381D01*
X13354762Y59957143D01*
X13354762Y59861905D01*
X13307143Y59766667D01*
X13259524Y59719048D01*
X13164286Y59671429D01*
X12830952Y59671429D01*
X13688095Y60147619D02*
X14259524Y60147619D01*
X13973809Y59147619D02*
X13973809Y60147619D01*
X15116667Y59147619D02*
X14545238Y59147619D01*
X14830952Y59147619D02*
X14830952Y60147619D01*
X14735714Y60004762D01*
X14640476Y59909524D01*
X14545238Y59861905D01*
X19011905Y42897619D02*
X19011905Y43897619D01*
X19250000Y43897619D01*
X19392858Y43850000D01*
X19488096Y43754762D01*
X19535715Y43659524D01*
X19583334Y43469048D01*
X19583334Y43326190D01*
X19535715Y43135714D01*
X19488096Y43040476D01*
X19392858Y42945238D01*
X19250000Y42897619D01*
X19011905Y42897619D01*
X19916667Y43897619D02*
X20535715Y43897619D01*
X20202381Y43516667D01*
X20345239Y43516667D01*
X20440477Y43469048D01*
X20488096Y43421429D01*
X20535715Y43326190D01*
X20535715Y43088095D01*
X20488096Y42992857D01*
X20440477Y42945238D01*
X20345239Y42897619D01*
X20059524Y42897619D01*
X19964286Y42945238D01*
X19916667Y42992857D01*
X17807905Y49261619D02*
X17807905Y50261619D01*
X18046000Y50261619D01*
X18188858Y50214000D01*
X18284096Y50118762D01*
X18331715Y50023524D01*
X18379334Y49833048D01*
X18379334Y49690190D01*
X18331715Y49499714D01*
X18284096Y49404476D01*
X18188858Y49309238D01*
X18046000Y49261619D01*
X17807905Y49261619D01*
X19236477Y49928286D02*
X19236477Y49261619D01*
X18998381Y50309238D02*
X18760286Y49594952D01*
X19379334Y49594952D01*
X39557905Y33061619D02*
X39557905Y34061619D01*
X39796000Y34061619D01*
X39938858Y34014000D01*
X40034096Y33918762D01*
X40081715Y33823524D01*
X40129334Y33633048D01*
X40129334Y33490190D01*
X40081715Y33299714D01*
X40034096Y33204476D01*
X39938858Y33109238D01*
X39796000Y33061619D01*
X39557905Y33061619D01*
X41034096Y34061619D02*
X40557905Y34061619D01*
X40510286Y33585429D01*
X40557905Y33633048D01*
X40653143Y33680667D01*
X40891239Y33680667D01*
X40986477Y33633048D01*
X41034096Y33585429D01*
X41081715Y33490190D01*
X41081715Y33252095D01*
X41034096Y33156857D01*
X40986477Y33109238D01*
X40891239Y33061619D01*
X40653143Y33061619D01*
X40557905Y33109238D01*
X40510286Y33156857D01*
X93922381Y39815714D02*
X92922381Y39815714D01*
X92922381Y40053809D01*
X92970000Y40196667D01*
X93065238Y40291905D01*
X93160476Y40339524D01*
X93350952Y40387143D01*
X93493810Y40387143D01*
X93684286Y40339524D01*
X93779524Y40291905D01*
X93874762Y40196667D01*
X93922381Y40053809D01*
X93922381Y39815714D01*
X93874762Y40768095D02*
X93922381Y40910952D01*
X93922381Y41149048D01*
X93874762Y41244286D01*
X93827143Y41291905D01*
X93731905Y41339524D01*
X93636667Y41339524D01*
X93541429Y41291905D01*
X93493810Y41244286D01*
X93446190Y41149048D01*
X93398571Y40958571D01*
X93350952Y40863333D01*
X93303333Y40815714D01*
X93208095Y40768095D01*
X93112857Y40768095D01*
X93017619Y40815714D01*
X92970000Y40863333D01*
X92922381Y40958571D01*
X92922381Y41196667D01*
X92970000Y41339524D01*
X93922381Y42291905D02*
X93922381Y41720476D01*
X93922381Y42006190D02*
X92922381Y42006190D01*
X93065238Y41910952D01*
X93160476Y41815714D01*
X93208095Y41720476D01*
X92757143Y15497619D02*
X92280952Y15497619D01*
X92280952Y16497619D01*
X93042857Y15545238D02*
X93185714Y15497619D01*
X93423810Y15497619D01*
X93519048Y15545238D01*
X93566667Y15592857D01*
X93614286Y15688095D01*
X93614286Y15783333D01*
X93566667Y15878571D01*
X93519048Y15926190D01*
X93423810Y15973810D01*
X93233333Y16021429D01*
X93138095Y16069048D01*
X93090476Y16116667D01*
X93042857Y16211905D01*
X93042857Y16307143D01*
X93090476Y16402381D01*
X93138095Y16450000D01*
X93233333Y16497619D01*
X93471429Y16497619D01*
X93614286Y16450000D01*
X94566667Y15497619D02*
X93995238Y15497619D01*
X94280952Y15497619D02*
X94280952Y16497619D01*
X94185714Y16354762D01*
X94090476Y16259524D01*
X93995238Y16211905D01*
X61828905Y12705619D02*
X61828905Y13705619D01*
X62209858Y13705619D01*
X62305096Y13658000D01*
X62352715Y13610381D01*
X62400334Y13515143D01*
X62400334Y13372286D01*
X62352715Y13277048D01*
X62305096Y13229429D01*
X62209858Y13181810D01*
X61828905Y13181810D01*
X63352715Y12705619D02*
X62781286Y12705619D01*
X63067000Y12705619D02*
X63067000Y13705619D01*
X62971762Y13562762D01*
X62876524Y13467524D01*
X62781286Y13419905D01*
X8802381Y22311905D02*
X7802381Y22311905D01*
X7802381Y22692858D01*
X7850000Y22788096D01*
X7897619Y22835715D01*
X7992857Y22883334D01*
X8135714Y22883334D01*
X8230952Y22835715D01*
X8278571Y22788096D01*
X8326190Y22692858D01*
X8326190Y22311905D01*
X7802381Y23216667D02*
X7802381Y23835715D01*
X8183333Y23502381D01*
X8183333Y23645239D01*
X8230952Y23740477D01*
X8278571Y23788096D01*
X8373810Y23835715D01*
X8611905Y23835715D01*
X8707143Y23788096D01*
X8754762Y23740477D01*
X8802381Y23645239D01*
X8802381Y23359524D01*
X8754762Y23264286D01*
X8707143Y23216667D01*
X2852381Y19311905D02*
X1852381Y19311905D01*
X1852381Y19692858D01*
X1900000Y19788096D01*
X1947619Y19835715D01*
X2042857Y19883334D01*
X2185714Y19883334D01*
X2280952Y19835715D01*
X2328571Y19788096D01*
X2376190Y19692858D01*
X2376190Y19311905D01*
X2185714Y20740477D02*
X2852381Y20740477D01*
X1804762Y20502381D02*
X2519048Y20264286D01*
X2519048Y20883334D01*
X70238095Y64047619D02*
X70238095Y63238095D01*
X70285714Y63142857D01*
X70333333Y63095238D01*
X70428571Y63047619D01*
X70619048Y63047619D01*
X70714286Y63095238D01*
X70761905Y63142857D01*
X70809524Y63238095D01*
X70809524Y64047619D01*
X71809524Y63047619D02*
X71238095Y63047619D01*
X71523809Y63047619D02*
X71523809Y64047619D01*
X71428571Y63904762D01*
X71333333Y63809524D01*
X71238095Y63761905D01*
X31652381Y14938095D02*
X32461905Y14938095D01*
X32557143Y14985714D01*
X32604762Y15033333D01*
X32652381Y15128571D01*
X32652381Y15319048D01*
X32604762Y15414286D01*
X32557143Y15461905D01*
X32461905Y15509524D01*
X31652381Y15509524D01*
X31652381Y15890476D02*
X31652381Y16509524D01*
X32033333Y16176190D01*
X32033333Y16319048D01*
X32080952Y16414286D01*
X32128571Y16461905D01*
X32223810Y16509524D01*
X32461905Y16509524D01*
X32557143Y16461905D01*
X32604762Y16414286D01*
X32652381Y16319048D01*
X32652381Y16033333D01*
X32604762Y15938095D01*
X32557143Y15890476D01*
X50900833Y19147119D02*
X50900833Y20147119D01*
X51281786Y20147119D01*
X51377024Y20099500D01*
X51424643Y20051881D01*
X51472262Y19956643D01*
X51472262Y19813786D01*
X51424643Y19718548D01*
X51377024Y19670929D01*
X51281786Y19623310D01*
X50900833Y19623310D01*
X51853214Y19432833D02*
X52329405Y19432833D01*
X51757976Y19147119D02*
X52091309Y20147119D01*
X52424643Y19147119D01*
X52757976Y19147119D02*
X52757976Y20147119D01*
X52996071Y20147119D01*
X53138929Y20099500D01*
X53234167Y20004262D01*
X53281786Y19909024D01*
X53329405Y19718548D01*
X53329405Y19575690D01*
X53281786Y19385214D01*
X53234167Y19289976D01*
X53138929Y19194738D01*
X52996071Y19147119D01*
X52757976Y19147119D01*
X54281786Y19147119D02*
X53710357Y19147119D01*
X53996071Y19147119D02*
X53996071Y20147119D01*
X53900833Y20004262D01*
X53805595Y19909024D01*
X53710357Y19861405D01*
X25200833Y24897119D02*
X25200833Y25897119D01*
X25581786Y25897119D01*
X25677024Y25849500D01*
X25724643Y25801881D01*
X25772262Y25706643D01*
X25772262Y25563786D01*
X25724643Y25468548D01*
X25677024Y25420929D01*
X25581786Y25373310D01*
X25200833Y25373310D01*
X26153214Y25182833D02*
X26629405Y25182833D01*
X26057976Y24897119D02*
X26391309Y25897119D01*
X26724643Y24897119D01*
X27057976Y24897119D02*
X27057976Y25897119D01*
X27296071Y25897119D01*
X27438929Y25849500D01*
X27534167Y25754262D01*
X27581786Y25659024D01*
X27629405Y25468548D01*
X27629405Y25325690D01*
X27581786Y25135214D01*
X27534167Y25039976D01*
X27438929Y24944738D01*
X27296071Y24897119D01*
X27057976Y24897119D01*
X28010357Y25801881D02*
X28057976Y25849500D01*
X28153214Y25897119D01*
X28391310Y25897119D01*
X28486548Y25849500D01*
X28534167Y25801881D01*
X28581786Y25706643D01*
X28581786Y25611405D01*
X28534167Y25468548D01*
X27962738Y24897119D01*
X28581786Y24897119D01*
X35031714Y9361619D02*
X35031714Y10361619D01*
X35269809Y10361619D01*
X35412667Y10314000D01*
X35507905Y10218762D01*
X35555524Y10123524D01*
X35603143Y9933048D01*
X35603143Y9790190D01*
X35555524Y9599714D01*
X35507905Y9504476D01*
X35412667Y9409238D01*
X35269809Y9361619D01*
X35031714Y9361619D01*
X36555524Y9361619D02*
X35984095Y9361619D01*
X36269809Y9361619D02*
X36269809Y10361619D01*
X36174571Y10218762D01*
X36079333Y10123524D01*
X35984095Y10075905D01*
X37174571Y10361619D02*
X37269810Y10361619D01*
X37365048Y10314000D01*
X37412667Y10266381D01*
X37460286Y10171143D01*
X37507905Y9980667D01*
X37507905Y9742571D01*
X37460286Y9552095D01*
X37412667Y9456857D01*
X37365048Y9409238D01*
X37269810Y9361619D01*
X37174571Y9361619D01*
X37079333Y9409238D01*
X37031714Y9456857D01*
X36984095Y9552095D01*
X36936476Y9742571D01*
X36936476Y9980667D01*
X36984095Y10171143D01*
X37031714Y10266381D01*
X37079333Y10314000D01*
X37174571Y10361619D01*
X3052381Y38411905D02*
X2052381Y38411905D01*
X2052381Y38792858D01*
X2100000Y38888096D01*
X2147619Y38935715D01*
X2242857Y38983334D01*
X2385714Y38983334D01*
X2480952Y38935715D01*
X2528571Y38888096D01*
X2576190Y38792858D01*
X2576190Y38411905D01*
X2147619Y39364286D02*
X2100000Y39411905D01*
X2052381Y39507143D01*
X2052381Y39745239D01*
X2100000Y39840477D01*
X2147619Y39888096D01*
X2242857Y39935715D01*
X2338095Y39935715D01*
X2480952Y39888096D01*
X3052381Y39316667D01*
X3052381Y39935715D01*
X87436667Y73675238D02*
X87579524Y73627619D01*
X87817620Y73627619D01*
X87912858Y73675238D01*
X87960477Y73722857D01*
X88008096Y73818095D01*
X88008096Y73913333D01*
X87960477Y74008571D01*
X87912858Y74056190D01*
X87817620Y74103810D01*
X87627143Y74151429D01*
X87531905Y74199048D01*
X87484286Y74246667D01*
X87436667Y74341905D01*
X87436667Y74437143D01*
X87484286Y74532381D01*
X87531905Y74580000D01*
X87627143Y74627619D01*
X87865239Y74627619D01*
X88008096Y74580000D01*
X88341429Y74627619D02*
X88579524Y73627619D01*
X88770001Y74341905D01*
X88960477Y73627619D01*
X89198572Y74627619D01*
X90103334Y73627619D02*
X89531905Y73627619D01*
X89817619Y73627619D02*
X89817619Y74627619D01*
X89722381Y74484762D01*
X89627143Y74389524D01*
X89531905Y74341905D01*
X69936667Y73675238D02*
X70079524Y73627619D01*
X70317620Y73627619D01*
X70412858Y73675238D01*
X70460477Y73722857D01*
X70508096Y73818095D01*
X70508096Y73913333D01*
X70460477Y74008571D01*
X70412858Y74056190D01*
X70317620Y74103810D01*
X70127143Y74151429D01*
X70031905Y74199048D01*
X69984286Y74246667D01*
X69936667Y74341905D01*
X69936667Y74437143D01*
X69984286Y74532381D01*
X70031905Y74580000D01*
X70127143Y74627619D01*
X70365239Y74627619D01*
X70508096Y74580000D01*
X70841429Y74627619D02*
X71079524Y73627619D01*
X71270001Y74341905D01*
X71460477Y73627619D01*
X71698572Y74627619D01*
X72031905Y74532381D02*
X72079524Y74580000D01*
X72174762Y74627619D01*
X72412858Y74627619D01*
X72508096Y74580000D01*
X72555715Y74532381D01*
X72603334Y74437143D01*
X72603334Y74341905D01*
X72555715Y74199048D01*
X71984286Y73627619D01*
X72603334Y73627619D01*
X51936667Y73675238D02*
X52079524Y73627619D01*
X52317620Y73627619D01*
X52412858Y73675238D01*
X52460477Y73722857D01*
X52508096Y73818095D01*
X52508096Y73913333D01*
X52460477Y74008571D01*
X52412858Y74056190D01*
X52317620Y74103810D01*
X52127143Y74151429D01*
X52031905Y74199048D01*
X51984286Y74246667D01*
X51936667Y74341905D01*
X51936667Y74437143D01*
X51984286Y74532381D01*
X52031905Y74580000D01*
X52127143Y74627619D01*
X52365239Y74627619D01*
X52508096Y74580000D01*
X52841429Y74627619D02*
X53079524Y73627619D01*
X53270001Y74341905D01*
X53460477Y73627619D01*
X53698572Y74627619D01*
X54555715Y74627619D02*
X54079524Y74627619D01*
X54031905Y74151429D01*
X54079524Y74199048D01*
X54174762Y74246667D01*
X54412858Y74246667D01*
X54508096Y74199048D01*
X54555715Y74151429D01*
X54603334Y74056190D01*
X54603334Y73818095D01*
X54555715Y73722857D01*
X54508096Y73675238D01*
X54412858Y73627619D01*
X54174762Y73627619D01*
X54079524Y73675238D01*
X54031905Y73722857D01*
X34936667Y73675238D02*
X35079524Y73627619D01*
X35317620Y73627619D01*
X35412858Y73675238D01*
X35460477Y73722857D01*
X35508096Y73818095D01*
X35508096Y73913333D01*
X35460477Y74008571D01*
X35412858Y74056190D01*
X35317620Y74103810D01*
X35127143Y74151429D01*
X35031905Y74199048D01*
X34984286Y74246667D01*
X34936667Y74341905D01*
X34936667Y74437143D01*
X34984286Y74532381D01*
X35031905Y74580000D01*
X35127143Y74627619D01*
X35365239Y74627619D01*
X35508096Y74580000D01*
X35841429Y74627619D02*
X36079524Y73627619D01*
X36270001Y74341905D01*
X36460477Y73627619D01*
X36698572Y74627619D01*
X37508096Y74294286D02*
X37508096Y73627619D01*
X37270000Y74675238D02*
X37031905Y73960952D01*
X37650953Y73960952D01*
X67846667Y18465238D02*
X67989524Y18417619D01*
X68227620Y18417619D01*
X68322858Y18465238D01*
X68370477Y18512857D01*
X68418096Y18608095D01*
X68418096Y18703333D01*
X68370477Y18798571D01*
X68322858Y18846190D01*
X68227620Y18893810D01*
X68037143Y18941429D01*
X67941905Y18989048D01*
X67894286Y19036667D01*
X67846667Y19131905D01*
X67846667Y19227143D01*
X67894286Y19322381D01*
X67941905Y19370000D01*
X68037143Y19417619D01*
X68275239Y19417619D01*
X68418096Y19370000D01*
X68751429Y19417619D02*
X68989524Y18417619D01*
X69180001Y19131905D01*
X69370477Y18417619D01*
X69608572Y19417619D01*
X69894286Y19417619D02*
X70513334Y19417619D01*
X70180000Y19036667D01*
X70322858Y19036667D01*
X70418096Y18989048D01*
X70465715Y18941429D01*
X70513334Y18846190D01*
X70513334Y18608095D01*
X70465715Y18512857D01*
X70418096Y18465238D01*
X70322858Y18417619D01*
X70037143Y18417619D01*
X69941905Y18465238D01*
X69894286Y18512857D01*
X49686667Y16675238D02*
X49829524Y16627619D01*
X50067620Y16627619D01*
X50162858Y16675238D01*
X50210477Y16722857D01*
X50258096Y16818095D01*
X50258096Y16913333D01*
X50210477Y17008571D01*
X50162858Y17056190D01*
X50067620Y17103810D01*
X49877143Y17151429D01*
X49781905Y17199048D01*
X49734286Y17246667D01*
X49686667Y17341905D01*
X49686667Y17437143D01*
X49734286Y17532381D01*
X49781905Y17580000D01*
X49877143Y17627619D01*
X50115239Y17627619D01*
X50258096Y17580000D01*
X50591429Y17627619D02*
X50829524Y16627619D01*
X51020001Y17341905D01*
X51210477Y16627619D01*
X51448572Y17627619D01*
X51734286Y17627619D02*
X52400953Y17627619D01*
X51972381Y16627619D01*
X26850833Y53297119D02*
X26850833Y54297119D01*
X27231786Y54297119D01*
X27327024Y54249500D01*
X27374643Y54201881D01*
X27422262Y54106643D01*
X27422262Y53963786D01*
X27374643Y53868548D01*
X27327024Y53820929D01*
X27231786Y53773310D01*
X26850833Y53773310D01*
X27803214Y53582833D02*
X28279405Y53582833D01*
X27707976Y53297119D02*
X28041309Y54297119D01*
X28374643Y53297119D01*
X28707976Y53297119D02*
X28707976Y54297119D01*
X28946071Y54297119D01*
X29088929Y54249500D01*
X29184167Y54154262D01*
X29231786Y54059024D01*
X29279405Y53868548D01*
X29279405Y53725690D01*
X29231786Y53535214D01*
X29184167Y53439976D01*
X29088929Y53344738D01*
X28946071Y53297119D01*
X28707976Y53297119D01*
X29612738Y54297119D02*
X30231786Y54297119D01*
X29898452Y53916167D01*
X30041310Y53916167D01*
X30136548Y53868548D01*
X30184167Y53820929D01*
X30231786Y53725690D01*
X30231786Y53487595D01*
X30184167Y53392357D01*
X30136548Y53344738D01*
X30041310Y53297119D01*
X29755595Y53297119D01*
X29660357Y53344738D01*
X29612738Y53392357D01*
X29250833Y51497119D02*
X29250833Y52497119D01*
X29631786Y52497119D01*
X29727024Y52449500D01*
X29774643Y52401881D01*
X29822262Y52306643D01*
X29822262Y52163786D01*
X29774643Y52068548D01*
X29727024Y52020929D01*
X29631786Y51973310D01*
X29250833Y51973310D01*
X30203214Y51782833D02*
X30679405Y51782833D01*
X30107976Y51497119D02*
X30441309Y52497119D01*
X30774643Y51497119D01*
X31107976Y51497119D02*
X31107976Y52497119D01*
X31346071Y52497119D01*
X31488929Y52449500D01*
X31584167Y52354262D01*
X31631786Y52259024D01*
X31679405Y52068548D01*
X31679405Y51925690D01*
X31631786Y51735214D01*
X31584167Y51639976D01*
X31488929Y51544738D01*
X31346071Y51497119D01*
X31107976Y51497119D01*
X32536548Y52163786D02*
X32536548Y51497119D01*
X32298452Y52544738D02*
X32060357Y51830452D01*
X32679405Y51830452D01*
M02*
