G04 #@! TF.FileFunction,Legend,Bot*
%FSLAX46Y46*%
G04 Gerber Fmt 4.6, Leading zero omitted, Abs format (unit mm)*
G04 Created by KiCad (PCBNEW 4.0.4+dfsg1-stable) date Tue Mar  7 14:42:26 2017*
%MOMM*%
%LPD*%
G01*
G04 APERTURE LIST*
%ADD10C,0.100000*%
%ADD11C,0.150000*%
G04 APERTURE END LIST*
D10*
D11*
X46831620Y22500000D02*
G75*
G03X46831620Y22500000I-1831620J0D01*
G01*
X48302000Y19706000D02*
X48302000Y25294000D01*
X48302000Y25294000D02*
X41698000Y25294000D01*
X41698000Y25294000D02*
X41698000Y19706000D01*
X41698000Y19706000D02*
X48302000Y19706000D01*
X44011900Y47555100D02*
X44011900Y46980100D01*
X33661900Y47555100D02*
X33661900Y46880100D01*
X33661900Y37205100D02*
X33661900Y37880100D01*
X44011900Y37205100D02*
X44011900Y37880100D01*
X44011900Y47555100D02*
X43336900Y47555100D01*
X44011900Y37205100D02*
X43336900Y37205100D01*
X33661900Y37205100D02*
X34336900Y37205100D01*
X33661900Y47555100D02*
X34336900Y47555100D01*
X44011900Y46980100D02*
X45286900Y46980100D01*
X47300000Y44600000D02*
X48000000Y44600000D01*
X48000000Y45800000D02*
X47300000Y45800000D01*
X47350000Y46000000D02*
X48050000Y46000000D01*
X48050000Y47200000D02*
X47350000Y47200000D01*
X29150000Y46800000D02*
X28450000Y46800000D01*
X28450000Y45600000D02*
X29150000Y45600000D01*
X30550000Y45400000D02*
X29850000Y45400000D01*
X29850000Y44200000D02*
X30550000Y44200000D01*
X35450000Y51175000D02*
X35950000Y51175000D01*
X35950000Y50225000D02*
X35450000Y50225000D01*
X38250000Y50225000D02*
X37750000Y50225000D01*
X37750000Y51175000D02*
X38250000Y51175000D01*
X36600000Y34050000D02*
X36600000Y33350000D01*
X37800000Y33350000D02*
X37800000Y34050000D01*
X47050000Y39500000D02*
X47750000Y39500000D01*
X47750000Y40700000D02*
X47050000Y40700000D01*
X40750000Y50200000D02*
X41450000Y50200000D01*
X41450000Y51400000D02*
X40750000Y51400000D01*
X17750000Y8300000D02*
X18450000Y8300000D01*
X18450000Y9500000D02*
X17750000Y9500000D01*
X13050000Y58650000D02*
X13050000Y57950000D01*
X14250000Y57950000D02*
X14250000Y58650000D01*
X15750000Y55950000D02*
X15750000Y56650000D01*
X14550000Y56650000D02*
X14550000Y55950000D01*
X18300000Y61825000D02*
X17800000Y61825000D01*
X17800000Y62775000D02*
X18300000Y62775000D01*
X15500000Y62775000D02*
X16000000Y62775000D01*
X16000000Y61825000D02*
X15500000Y61825000D01*
X11050000Y62100000D02*
X11050000Y60100000D01*
X11050000Y60100000D02*
X8550000Y60100000D01*
X8550000Y60100000D02*
X8550000Y62100000D01*
X8550000Y62100000D02*
X11050000Y62100000D01*
X86649920Y19099340D02*
X86401000Y19399060D01*
X86401000Y19399060D02*
X86299400Y19548920D01*
X86299400Y19548920D02*
X86299400Y18700560D01*
X87000440Y20600480D02*
X87000440Y18799620D01*
X87000440Y20600480D02*
X86350200Y20600480D01*
X82499560Y20600480D02*
X82499560Y18799620D01*
X82499560Y20600480D02*
X83149800Y20600480D01*
X53250000Y45925000D02*
X52250000Y45925000D01*
X52250000Y44575000D02*
X53250000Y44575000D01*
X71650000Y58325000D02*
X70650000Y58325000D01*
X70650000Y56975000D02*
X71650000Y56975000D01*
X79725000Y67000000D02*
X79725000Y66000000D01*
X81075000Y66000000D02*
X81075000Y67000000D01*
X62325000Y67200000D02*
X62325000Y66200000D01*
X63675000Y66200000D02*
X63675000Y67200000D01*
X63100000Y23625000D02*
X64100000Y23625000D01*
X64100000Y24975000D02*
X63100000Y24975000D01*
X81325000Y67000000D02*
X81325000Y66000000D01*
X82675000Y66000000D02*
X82675000Y67000000D01*
X63925000Y67200000D02*
X63925000Y66200000D01*
X65275000Y66200000D02*
X65275000Y67200000D01*
X63100000Y25275000D02*
X64100000Y25275000D01*
X64100000Y26625000D02*
X63100000Y26625000D01*
X64350000Y58025000D02*
X63350000Y58025000D01*
X63350000Y56675000D02*
X64350000Y56675000D01*
X35700000Y62575000D02*
X34700000Y62575000D01*
X34700000Y61225000D02*
X35700000Y61225000D01*
X52500000Y62775000D02*
X51500000Y62775000D01*
X51500000Y61425000D02*
X52500000Y61425000D01*
X52350000Y46325000D02*
X53350000Y46325000D01*
X53350000Y47675000D02*
X52350000Y47675000D01*
X35700000Y64175000D02*
X34700000Y64175000D01*
X34700000Y62825000D02*
X35700000Y62825000D01*
X52500000Y64375000D02*
X51500000Y64375000D01*
X51500000Y63025000D02*
X52500000Y63025000D01*
X13400000Y40425000D02*
X12400000Y40425000D01*
X12400000Y39075000D02*
X13400000Y39075000D01*
X13450000Y43575000D02*
X12450000Y43575000D01*
X12450000Y42225000D02*
X13450000Y42225000D01*
X24000000Y44575000D02*
X25000000Y44575000D01*
X25000000Y45925000D02*
X24000000Y45925000D01*
X23325000Y57000000D02*
X23325000Y56000000D01*
X24675000Y56000000D02*
X24675000Y57000000D01*
X36225000Y32000000D02*
X36225000Y33000000D01*
X34875000Y33000000D02*
X34875000Y32000000D01*
X63000000Y32475000D02*
X64000000Y32475000D01*
X64000000Y33825000D02*
X63000000Y33825000D01*
X37875000Y19500000D02*
X37875000Y20500000D01*
X36525000Y20500000D02*
X36525000Y19500000D01*
X40225000Y19550000D02*
X40225000Y20550000D01*
X38875000Y20550000D02*
X38875000Y19550000D01*
X11375000Y58800000D02*
X11375000Y57800000D01*
X12725000Y57800000D02*
X12725000Y58800000D01*
X16600000Y53225000D02*
X15600000Y53225000D01*
X15600000Y51875000D02*
X16600000Y51875000D01*
X37075000Y10150000D02*
X37075000Y9150000D01*
X38425000Y9150000D02*
X38425000Y10150000D01*
X34325000Y9050000D02*
X34325000Y10050000D01*
X32975000Y10050000D02*
X32975000Y9050000D01*
X80350000Y47700000D02*
X81350000Y47700000D01*
X80850000Y47200000D02*
X80850000Y48200000D01*
X79850000Y46700000D02*
X79850000Y48700000D01*
X79850000Y48700000D02*
X81850000Y48700000D01*
X81850000Y48700000D02*
X81850000Y46700000D01*
X81850000Y46700000D02*
X79850000Y46700000D01*
X31150380Y57099360D02*
X42849620Y57099360D01*
X42849620Y52100640D02*
X31150380Y52100640D01*
X42849620Y57099360D02*
X42849620Y56251000D01*
X42849620Y52100640D02*
X42849620Y52949000D01*
X31150380Y57099360D02*
X31150380Y56251000D01*
X31150380Y52100640D02*
X31150380Y52949000D01*
X26400000Y11250000D02*
X26400000Y11950000D01*
X25200000Y11950000D02*
X25200000Y11250000D01*
X64300000Y23200000D02*
X64300000Y21200000D01*
X64800000Y23200000D02*
X64800000Y21200000D01*
X64800000Y21200000D02*
X62300000Y21200000D01*
X62300000Y21200000D02*
X62300000Y23200000D01*
X62300000Y23200000D02*
X64800000Y23200000D01*
X34750000Y20750000D02*
X36750000Y20750000D01*
X34750000Y21250000D02*
X36750000Y21250000D01*
X36750000Y21250000D02*
X36750000Y18750000D01*
X36750000Y18750000D02*
X34750000Y18750000D01*
X34750000Y18750000D02*
X34750000Y21250000D01*
X36650000Y9050000D02*
X34650000Y9050000D01*
X36650000Y8550000D02*
X34650000Y8550000D01*
X34650000Y8550000D02*
X34650000Y11050000D01*
X34650000Y11050000D02*
X36650000Y11050000D01*
X36650000Y11050000D02*
X36650000Y8550000D01*
X42775000Y7250000D02*
X42775000Y8250000D01*
X41425000Y8250000D02*
X41425000Y7250000D01*
X89331620Y69000000D02*
G75*
G03X89331620Y69000000I-1831620J0D01*
G01*
X90294000Y72302000D02*
X84706000Y72302000D01*
X84706000Y72302000D02*
X84706000Y65698000D01*
X84706000Y65698000D02*
X90294000Y65698000D01*
X90294000Y65698000D02*
X90294000Y72302000D01*
X71831620Y69000000D02*
G75*
G03X71831620Y69000000I-1831620J0D01*
G01*
X72794000Y72302000D02*
X67206000Y72302000D01*
X67206000Y72302000D02*
X67206000Y65698000D01*
X67206000Y65698000D02*
X72794000Y65698000D01*
X72794000Y65698000D02*
X72794000Y72302000D01*
X53831620Y69000000D02*
G75*
G03X53831620Y69000000I-1831620J0D01*
G01*
X54794000Y72302000D02*
X49206000Y72302000D01*
X49206000Y72302000D02*
X49206000Y65698000D01*
X49206000Y65698000D02*
X54794000Y65698000D01*
X54794000Y65698000D02*
X54794000Y72302000D01*
X36831620Y69000000D02*
G75*
G03X36831620Y69000000I-1831620J0D01*
G01*
X37794000Y72302000D02*
X32206000Y72302000D01*
X32206000Y72302000D02*
X32206000Y65698000D01*
X32206000Y65698000D02*
X37794000Y65698000D01*
X37794000Y65698000D02*
X37794000Y72302000D01*
X72281620Y23950000D02*
G75*
G03X72281620Y23950000I-1831620J0D01*
G01*
X67656000Y20648000D02*
X73244000Y20648000D01*
X73244000Y20648000D02*
X73244000Y27252000D01*
X73244000Y27252000D02*
X67656000Y27252000D01*
X67656000Y27252000D02*
X67656000Y20648000D01*
X51581620Y12000000D02*
G75*
G03X51581620Y12000000I-1831620J0D01*
G01*
X52544000Y15302000D02*
X46956000Y15302000D01*
X46956000Y15302000D02*
X46956000Y8698000D01*
X46956000Y8698000D02*
X52544000Y8698000D01*
X52544000Y8698000D02*
X52544000Y15302000D01*
X39813090Y49377719D02*
X39813090Y50377719D01*
X38765471Y49472957D02*
X38813090Y49425338D01*
X38955947Y49377719D01*
X39051185Y49377719D01*
X39194043Y49425338D01*
X39289281Y49520576D01*
X39336900Y49615814D01*
X39384519Y49806290D01*
X39384519Y49949148D01*
X39336900Y50139624D01*
X39289281Y50234862D01*
X39194043Y50330100D01*
X39051185Y50377719D01*
X38955947Y50377719D01*
X38813090Y50330100D01*
X38765471Y50282481D01*
X37813090Y49377719D02*
X38384519Y49377719D01*
X38098805Y49377719D02*
X38098805Y50377719D01*
X38194043Y50234862D01*
X38289281Y50139624D01*
X38384519Y50092005D01*
X47816666Y42942857D02*
X47864285Y42895238D01*
X48007142Y42847619D01*
X48102380Y42847619D01*
X48245238Y42895238D01*
X48340476Y42990476D01*
X48388095Y43085714D01*
X48435714Y43276190D01*
X48435714Y43419048D01*
X48388095Y43609524D01*
X48340476Y43704762D01*
X48245238Y43800000D01*
X48102380Y43847619D01*
X48007142Y43847619D01*
X47864285Y43800000D01*
X47816666Y43752381D01*
X46864285Y42847619D02*
X47435714Y42847619D01*
X47150000Y42847619D02*
X47150000Y43847619D01*
X47245238Y43704762D01*
X47340476Y43609524D01*
X47435714Y43561905D01*
X47866666Y44342857D02*
X47914285Y44295238D01*
X48057142Y44247619D01*
X48152380Y44247619D01*
X48295238Y44295238D01*
X48390476Y44390476D01*
X48438095Y44485714D01*
X48485714Y44676190D01*
X48485714Y44819048D01*
X48438095Y45009524D01*
X48390476Y45104762D01*
X48295238Y45200000D01*
X48152380Y45247619D01*
X48057142Y45247619D01*
X47914285Y45200000D01*
X47866666Y45152381D01*
X47485714Y45152381D02*
X47438095Y45200000D01*
X47342857Y45247619D01*
X47104761Y45247619D01*
X47009523Y45200000D01*
X46961904Y45152381D01*
X46914285Y45057143D01*
X46914285Y44961905D01*
X46961904Y44819048D01*
X47533333Y44247619D01*
X46914285Y44247619D01*
X28966666Y47742857D02*
X29014285Y47695238D01*
X29157142Y47647619D01*
X29252380Y47647619D01*
X29395238Y47695238D01*
X29490476Y47790476D01*
X29538095Y47885714D01*
X29585714Y48076190D01*
X29585714Y48219048D01*
X29538095Y48409524D01*
X29490476Y48504762D01*
X29395238Y48600000D01*
X29252380Y48647619D01*
X29157142Y48647619D01*
X29014285Y48600000D01*
X28966666Y48552381D01*
X28633333Y48647619D02*
X28014285Y48647619D01*
X28347619Y48266667D01*
X28204761Y48266667D01*
X28109523Y48219048D01*
X28061904Y48171429D01*
X28014285Y48076190D01*
X28014285Y47838095D01*
X28061904Y47742857D01*
X28109523Y47695238D01*
X28204761Y47647619D01*
X28490476Y47647619D01*
X28585714Y47695238D01*
X28633333Y47742857D01*
X30366666Y46342857D02*
X30414285Y46295238D01*
X30557142Y46247619D01*
X30652380Y46247619D01*
X30795238Y46295238D01*
X30890476Y46390476D01*
X30938095Y46485714D01*
X30985714Y46676190D01*
X30985714Y46819048D01*
X30938095Y47009524D01*
X30890476Y47104762D01*
X30795238Y47200000D01*
X30652380Y47247619D01*
X30557142Y47247619D01*
X30414285Y47200000D01*
X30366666Y47152381D01*
X29509523Y46914286D02*
X29509523Y46247619D01*
X29747619Y47295238D02*
X29985714Y46580952D01*
X29366666Y46580952D01*
X35866666Y52042857D02*
X35914285Y51995238D01*
X36057142Y51947619D01*
X36152380Y51947619D01*
X36295238Y51995238D01*
X36390476Y52090476D01*
X36438095Y52185714D01*
X36485714Y52376190D01*
X36485714Y52519048D01*
X36438095Y52709524D01*
X36390476Y52804762D01*
X36295238Y52900000D01*
X36152380Y52947619D01*
X36057142Y52947619D01*
X35914285Y52900000D01*
X35866666Y52852381D01*
X34961904Y52947619D02*
X35438095Y52947619D01*
X35485714Y52471429D01*
X35438095Y52519048D01*
X35342857Y52566667D01*
X35104761Y52566667D01*
X35009523Y52519048D01*
X34961904Y52471429D01*
X34914285Y52376190D01*
X34914285Y52138095D01*
X34961904Y52042857D01*
X35009523Y51995238D01*
X35104761Y51947619D01*
X35342857Y51947619D01*
X35438095Y51995238D01*
X35485714Y52042857D01*
X38166666Y48642857D02*
X38214285Y48595238D01*
X38357142Y48547619D01*
X38452380Y48547619D01*
X38595238Y48595238D01*
X38690476Y48690476D01*
X38738095Y48785714D01*
X38785714Y48976190D01*
X38785714Y49119048D01*
X38738095Y49309524D01*
X38690476Y49404762D01*
X38595238Y49500000D01*
X38452380Y49547619D01*
X38357142Y49547619D01*
X38214285Y49500000D01*
X38166666Y49452381D01*
X37309523Y49547619D02*
X37500000Y49547619D01*
X37595238Y49500000D01*
X37642857Y49452381D01*
X37738095Y49309524D01*
X37785714Y49119048D01*
X37785714Y48738095D01*
X37738095Y48642857D01*
X37690476Y48595238D01*
X37595238Y48547619D01*
X37404761Y48547619D01*
X37309523Y48595238D01*
X37261904Y48642857D01*
X37214285Y48738095D01*
X37214285Y48976190D01*
X37261904Y49071429D01*
X37309523Y49119048D01*
X37404761Y49166667D01*
X37595238Y49166667D01*
X37690476Y49119048D01*
X37738095Y49071429D01*
X37785714Y48976190D01*
X35657143Y33866666D02*
X35704762Y33914285D01*
X35752381Y34057142D01*
X35752381Y34152380D01*
X35704762Y34295238D01*
X35609524Y34390476D01*
X35514286Y34438095D01*
X35323810Y34485714D01*
X35180952Y34485714D01*
X34990476Y34438095D01*
X34895238Y34390476D01*
X34800000Y34295238D01*
X34752381Y34152380D01*
X34752381Y34057142D01*
X34800000Y33914285D01*
X34847619Y33866666D01*
X34752381Y33533333D02*
X34752381Y32866666D01*
X35752381Y33295238D01*
X47566666Y37842857D02*
X47614285Y37795238D01*
X47757142Y37747619D01*
X47852380Y37747619D01*
X47995238Y37795238D01*
X48090476Y37890476D01*
X48138095Y37985714D01*
X48185714Y38176190D01*
X48185714Y38319048D01*
X48138095Y38509524D01*
X48090476Y38604762D01*
X47995238Y38700000D01*
X47852380Y38747619D01*
X47757142Y38747619D01*
X47614285Y38700000D01*
X47566666Y38652381D01*
X46995238Y38319048D02*
X47090476Y38366667D01*
X47138095Y38414286D01*
X47185714Y38509524D01*
X47185714Y38557143D01*
X47138095Y38652381D01*
X47090476Y38700000D01*
X46995238Y38747619D01*
X46804761Y38747619D01*
X46709523Y38700000D01*
X46661904Y38652381D01*
X46614285Y38557143D01*
X46614285Y38509524D01*
X46661904Y38414286D01*
X46709523Y38366667D01*
X46804761Y38319048D01*
X46995238Y38319048D01*
X47090476Y38271429D01*
X47138095Y38223810D01*
X47185714Y38128571D01*
X47185714Y37938095D01*
X47138095Y37842857D01*
X47090476Y37795238D01*
X46995238Y37747619D01*
X46804761Y37747619D01*
X46709523Y37795238D01*
X46661904Y37842857D01*
X46614285Y37938095D01*
X46614285Y38128571D01*
X46661904Y38223810D01*
X46709523Y38271429D01*
X46804761Y38319048D01*
X41266666Y48542857D02*
X41314285Y48495238D01*
X41457142Y48447619D01*
X41552380Y48447619D01*
X41695238Y48495238D01*
X41790476Y48590476D01*
X41838095Y48685714D01*
X41885714Y48876190D01*
X41885714Y49019048D01*
X41838095Y49209524D01*
X41790476Y49304762D01*
X41695238Y49400000D01*
X41552380Y49447619D01*
X41457142Y49447619D01*
X41314285Y49400000D01*
X41266666Y49352381D01*
X40790476Y48447619D02*
X40600000Y48447619D01*
X40504761Y48495238D01*
X40457142Y48542857D01*
X40361904Y48685714D01*
X40314285Y48876190D01*
X40314285Y49257143D01*
X40361904Y49352381D01*
X40409523Y49400000D01*
X40504761Y49447619D01*
X40695238Y49447619D01*
X40790476Y49400000D01*
X40838095Y49352381D01*
X40885714Y49257143D01*
X40885714Y49019048D01*
X40838095Y48923810D01*
X40790476Y48876190D01*
X40695238Y48828571D01*
X40504761Y48828571D01*
X40409523Y48876190D01*
X40361904Y48923810D01*
X40314285Y49019048D01*
X18742857Y6642857D02*
X18790476Y6595238D01*
X18933333Y6547619D01*
X19028571Y6547619D01*
X19171429Y6595238D01*
X19266667Y6690476D01*
X19314286Y6785714D01*
X19361905Y6976190D01*
X19361905Y7119048D01*
X19314286Y7309524D01*
X19266667Y7404762D01*
X19171429Y7500000D01*
X19028571Y7547619D01*
X18933333Y7547619D01*
X18790476Y7500000D01*
X18742857Y7452381D01*
X17790476Y6547619D02*
X18361905Y6547619D01*
X18076191Y6547619D02*
X18076191Y7547619D01*
X18171429Y7404762D01*
X18266667Y7309524D01*
X18361905Y7261905D01*
X16838095Y6547619D02*
X17409524Y6547619D01*
X17123810Y6547619D02*
X17123810Y7547619D01*
X17219048Y7404762D01*
X17314286Y7309524D01*
X17409524Y7261905D01*
X12107143Y58942857D02*
X12154762Y58990476D01*
X12202381Y59133333D01*
X12202381Y59228571D01*
X12154762Y59371429D01*
X12059524Y59466667D01*
X11964286Y59514286D01*
X11773810Y59561905D01*
X11630952Y59561905D01*
X11440476Y59514286D01*
X11345238Y59466667D01*
X11250000Y59371429D01*
X11202381Y59228571D01*
X11202381Y59133333D01*
X11250000Y58990476D01*
X11297619Y58942857D01*
X12202381Y57990476D02*
X12202381Y58561905D01*
X12202381Y58276191D02*
X11202381Y58276191D01*
X11345238Y58371429D01*
X11440476Y58466667D01*
X11488095Y58561905D01*
X11202381Y57657143D02*
X11202381Y57038095D01*
X11583333Y57371429D01*
X11583333Y57228571D01*
X11630952Y57133333D01*
X11678571Y57085714D01*
X11773810Y57038095D01*
X12011905Y57038095D01*
X12107143Y57085714D01*
X12154762Y57133333D01*
X12202381Y57228571D01*
X12202381Y57514286D01*
X12154762Y57609524D01*
X12107143Y57657143D01*
X17407143Y56942857D02*
X17454762Y56990476D01*
X17502381Y57133333D01*
X17502381Y57228571D01*
X17454762Y57371429D01*
X17359524Y57466667D01*
X17264286Y57514286D01*
X17073810Y57561905D01*
X16930952Y57561905D01*
X16740476Y57514286D01*
X16645238Y57466667D01*
X16550000Y57371429D01*
X16502381Y57228571D01*
X16502381Y57133333D01*
X16550000Y56990476D01*
X16597619Y56942857D01*
X17502381Y55990476D02*
X17502381Y56561905D01*
X17502381Y56276191D02*
X16502381Y56276191D01*
X16645238Y56371429D01*
X16740476Y56466667D01*
X16788095Y56561905D01*
X16835714Y55133333D02*
X17502381Y55133333D01*
X16454762Y55371429D02*
X17169048Y55609524D01*
X17169048Y54990476D01*
X18692857Y60242857D02*
X18740476Y60195238D01*
X18883333Y60147619D01*
X18978571Y60147619D01*
X19121429Y60195238D01*
X19216667Y60290476D01*
X19264286Y60385714D01*
X19311905Y60576190D01*
X19311905Y60719048D01*
X19264286Y60909524D01*
X19216667Y61004762D01*
X19121429Y61100000D01*
X18978571Y61147619D01*
X18883333Y61147619D01*
X18740476Y61100000D01*
X18692857Y61052381D01*
X17740476Y60147619D02*
X18311905Y60147619D01*
X18026191Y60147619D02*
X18026191Y61147619D01*
X18121429Y61004762D01*
X18216667Y60909524D01*
X18311905Y60861905D01*
X16835714Y61147619D02*
X17311905Y61147619D01*
X17359524Y60671429D01*
X17311905Y60719048D01*
X17216667Y60766667D01*
X16978571Y60766667D01*
X16883333Y60719048D01*
X16835714Y60671429D01*
X16788095Y60576190D01*
X16788095Y60338095D01*
X16835714Y60242857D01*
X16883333Y60195238D01*
X16978571Y60147619D01*
X17216667Y60147619D01*
X17311905Y60195238D01*
X17359524Y60242857D01*
X16292857Y62842857D02*
X16340476Y62795238D01*
X16483333Y62747619D01*
X16578571Y62747619D01*
X16721429Y62795238D01*
X16816667Y62890476D01*
X16864286Y62985714D01*
X16911905Y63176190D01*
X16911905Y63319048D01*
X16864286Y63509524D01*
X16816667Y63604762D01*
X16721429Y63700000D01*
X16578571Y63747619D01*
X16483333Y63747619D01*
X16340476Y63700000D01*
X16292857Y63652381D01*
X15340476Y62747619D02*
X15911905Y62747619D01*
X15626191Y62747619D02*
X15626191Y63747619D01*
X15721429Y63604762D01*
X15816667Y63509524D01*
X15911905Y63461905D01*
X14483333Y63747619D02*
X14673810Y63747619D01*
X14769048Y63700000D01*
X14816667Y63652381D01*
X14911905Y63509524D01*
X14959524Y63319048D01*
X14959524Y62938095D01*
X14911905Y62842857D01*
X14864286Y62795238D01*
X14769048Y62747619D01*
X14578571Y62747619D01*
X14483333Y62795238D01*
X14435714Y62842857D01*
X14388095Y62938095D01*
X14388095Y63176190D01*
X14435714Y63271429D01*
X14483333Y63319048D01*
X14578571Y63366667D01*
X14769048Y63366667D01*
X14864286Y63319048D01*
X14911905Y63271429D01*
X14959524Y63176190D01*
X10288095Y58647619D02*
X10288095Y59647619D01*
X10050000Y59647619D01*
X9907142Y59600000D01*
X9811904Y59504762D01*
X9764285Y59409524D01*
X9716666Y59219048D01*
X9716666Y59076190D01*
X9764285Y58885714D01*
X9811904Y58790476D01*
X9907142Y58695238D01*
X10050000Y58647619D01*
X10288095Y58647619D01*
X8859523Y59647619D02*
X9050000Y59647619D01*
X9145238Y59600000D01*
X9192857Y59552381D01*
X9288095Y59409524D01*
X9335714Y59219048D01*
X9335714Y58838095D01*
X9288095Y58742857D01*
X9240476Y58695238D01*
X9145238Y58647619D01*
X8954761Y58647619D01*
X8859523Y58695238D01*
X8811904Y58742857D01*
X8764285Y58838095D01*
X8764285Y59076190D01*
X8811904Y59171429D01*
X8859523Y59219048D01*
X8954761Y59266667D01*
X9145238Y59266667D01*
X9240476Y59219048D01*
X9288095Y59171429D01*
X9335714Y59076190D01*
X58166667Y43621429D02*
X57833333Y43621429D01*
X57690476Y43097619D02*
X58166667Y43097619D01*
X58166667Y44097619D01*
X57690476Y44097619D01*
X57309524Y43145238D02*
X57166667Y43097619D01*
X56928571Y43097619D01*
X56833333Y43145238D01*
X56785714Y43192857D01*
X56738095Y43288095D01*
X56738095Y43383333D01*
X56785714Y43478571D01*
X56833333Y43526190D01*
X56928571Y43573810D01*
X57119048Y43621429D01*
X57214286Y43669048D01*
X57261905Y43716667D01*
X57309524Y43811905D01*
X57309524Y43907143D01*
X57261905Y44002381D01*
X57214286Y44050000D01*
X57119048Y44097619D01*
X56880952Y44097619D01*
X56738095Y44050000D01*
X56309524Y43097619D02*
X56309524Y44097619D01*
X56071429Y44097619D01*
X55928571Y44050000D01*
X55833333Y43954762D01*
X55785714Y43859524D01*
X55738095Y43669048D01*
X55738095Y43526190D01*
X55785714Y43335714D01*
X55833333Y43240476D01*
X55928571Y43145238D01*
X56071429Y43097619D01*
X56309524Y43097619D01*
X54785714Y43097619D02*
X55357143Y43097619D01*
X55071429Y43097619D02*
X55071429Y44097619D01*
X55166667Y43954762D01*
X55261905Y43859524D01*
X55357143Y43811905D01*
X54178571Y58416667D02*
X54178571Y58083333D01*
X54702381Y57940476D02*
X54702381Y58416667D01*
X53702381Y58416667D01*
X53702381Y57940476D01*
X54654762Y57559524D02*
X54702381Y57416667D01*
X54702381Y57178571D01*
X54654762Y57083333D01*
X54607143Y57035714D01*
X54511905Y56988095D01*
X54416667Y56988095D01*
X54321429Y57035714D01*
X54273810Y57083333D01*
X54226190Y57178571D01*
X54178571Y57369048D01*
X54130952Y57464286D01*
X54083333Y57511905D01*
X53988095Y57559524D01*
X53892857Y57559524D01*
X53797619Y57511905D01*
X53750000Y57464286D01*
X53702381Y57369048D01*
X53702381Y57130952D01*
X53750000Y56988095D01*
X54702381Y56559524D02*
X53702381Y56559524D01*
X53702381Y56321429D01*
X53750000Y56178571D01*
X53845238Y56083333D01*
X53940476Y56035714D01*
X54130952Y55988095D01*
X54273810Y55988095D01*
X54464286Y56035714D01*
X54559524Y56083333D01*
X54654762Y56178571D01*
X54702381Y56321429D01*
X54702381Y56559524D01*
X53797619Y55607143D02*
X53750000Y55559524D01*
X53702381Y55464286D01*
X53702381Y55226190D01*
X53750000Y55130952D01*
X53797619Y55083333D01*
X53892857Y55035714D01*
X53988095Y55035714D01*
X54130952Y55083333D01*
X54702381Y55654762D01*
X54702381Y55035714D01*
X19328571Y11566667D02*
X19328571Y11233333D01*
X19852381Y11090476D02*
X19852381Y11566667D01*
X18852381Y11566667D01*
X18852381Y11090476D01*
X19804762Y10709524D02*
X19852381Y10566667D01*
X19852381Y10328571D01*
X19804762Y10233333D01*
X19757143Y10185714D01*
X19661905Y10138095D01*
X19566667Y10138095D01*
X19471429Y10185714D01*
X19423810Y10233333D01*
X19376190Y10328571D01*
X19328571Y10519048D01*
X19280952Y10614286D01*
X19233333Y10661905D01*
X19138095Y10709524D01*
X19042857Y10709524D01*
X18947619Y10661905D01*
X18900000Y10614286D01*
X18852381Y10519048D01*
X18852381Y10280952D01*
X18900000Y10138095D01*
X19852381Y9709524D02*
X18852381Y9709524D01*
X18852381Y9471429D01*
X18900000Y9328571D01*
X18995238Y9233333D01*
X19090476Y9185714D01*
X19280952Y9138095D01*
X19423810Y9138095D01*
X19614286Y9185714D01*
X19709524Y9233333D01*
X19804762Y9328571D01*
X19852381Y9471429D01*
X19852381Y9709524D01*
X18852381Y8804762D02*
X18852381Y8185714D01*
X19233333Y8519048D01*
X19233333Y8376190D01*
X19280952Y8280952D01*
X19328571Y8233333D01*
X19423810Y8185714D01*
X19661905Y8185714D01*
X19757143Y8233333D01*
X19804762Y8280952D01*
X19852381Y8376190D01*
X19852381Y8661905D01*
X19804762Y8757143D01*
X19757143Y8804762D01*
X84896038Y23753641D02*
X84991276Y23801260D01*
X85086514Y23896498D01*
X85229371Y24039355D01*
X85324610Y24086974D01*
X85419848Y24086974D01*
X85372229Y23848879D02*
X85467467Y23896498D01*
X85562705Y23991736D01*
X85610324Y24182212D01*
X85610324Y24515546D01*
X85562705Y24706022D01*
X85467467Y24801260D01*
X85372229Y24848879D01*
X85181752Y24848879D01*
X85086514Y24801260D01*
X84991276Y24706022D01*
X84943657Y24515546D01*
X84943657Y24182212D01*
X84991276Y23991736D01*
X85086514Y23896498D01*
X85181752Y23848879D01*
X85372229Y23848879D01*
X83991276Y23848879D02*
X84562705Y23848879D01*
X84276991Y23848879D02*
X84276991Y24848879D01*
X84372229Y24706022D01*
X84467467Y24610784D01*
X84562705Y24563165D01*
X52916666Y42897619D02*
X53250000Y43373810D01*
X53488095Y42897619D02*
X53488095Y43897619D01*
X53107142Y43897619D01*
X53011904Y43850000D01*
X52964285Y43802381D01*
X52916666Y43707143D01*
X52916666Y43564286D01*
X52964285Y43469048D01*
X53011904Y43421429D01*
X53107142Y43373810D01*
X53488095Y43373810D01*
X51964285Y42897619D02*
X52535714Y42897619D01*
X52250000Y42897619D02*
X52250000Y43897619D01*
X52345238Y43754762D01*
X52440476Y43659524D01*
X52535714Y43611905D01*
X71316666Y55297619D02*
X71650000Y55773810D01*
X71888095Y55297619D02*
X71888095Y56297619D01*
X71507142Y56297619D01*
X71411904Y56250000D01*
X71364285Y56202381D01*
X71316666Y56107143D01*
X71316666Y55964286D01*
X71364285Y55869048D01*
X71411904Y55821429D01*
X71507142Y55773810D01*
X71888095Y55773810D01*
X70935714Y56202381D02*
X70888095Y56250000D01*
X70792857Y56297619D01*
X70554761Y56297619D01*
X70459523Y56250000D01*
X70411904Y56202381D01*
X70364285Y56107143D01*
X70364285Y56011905D01*
X70411904Y55869048D01*
X70983333Y55297619D01*
X70364285Y55297619D01*
X82752381Y66666666D02*
X82276190Y67000000D01*
X82752381Y67238095D02*
X81752381Y67238095D01*
X81752381Y66857142D01*
X81800000Y66761904D01*
X81847619Y66714285D01*
X81942857Y66666666D01*
X82085714Y66666666D01*
X82180952Y66714285D01*
X82228571Y66761904D01*
X82276190Y66857142D01*
X82276190Y67238095D01*
X81752381Y66333333D02*
X81752381Y65714285D01*
X82133333Y66047619D01*
X82133333Y65904761D01*
X82180952Y65809523D01*
X82228571Y65761904D01*
X82323810Y65714285D01*
X82561905Y65714285D01*
X82657143Y65761904D01*
X82704762Y65809523D01*
X82752381Y65904761D01*
X82752381Y66190476D01*
X82704762Y66285714D01*
X82657143Y66333333D01*
X65352381Y66866666D02*
X64876190Y67200000D01*
X65352381Y67438095D02*
X64352381Y67438095D01*
X64352381Y67057142D01*
X64400000Y66961904D01*
X64447619Y66914285D01*
X64542857Y66866666D01*
X64685714Y66866666D01*
X64780952Y66914285D01*
X64828571Y66961904D01*
X64876190Y67057142D01*
X64876190Y67438095D01*
X64685714Y66009523D02*
X65352381Y66009523D01*
X64304762Y66247619D02*
X65019048Y66485714D01*
X65019048Y65866666D01*
X63766666Y25747619D02*
X64100000Y26223810D01*
X64338095Y25747619D02*
X64338095Y26747619D01*
X63957142Y26747619D01*
X63861904Y26700000D01*
X63814285Y26652381D01*
X63766666Y26557143D01*
X63766666Y26414286D01*
X63814285Y26319048D01*
X63861904Y26271429D01*
X63957142Y26223810D01*
X64338095Y26223810D01*
X62861904Y26747619D02*
X63338095Y26747619D01*
X63385714Y26271429D01*
X63338095Y26319048D01*
X63242857Y26366667D01*
X63004761Y26366667D01*
X62909523Y26319048D01*
X62861904Y26271429D01*
X62814285Y26176190D01*
X62814285Y25938095D01*
X62861904Y25842857D01*
X62909523Y25795238D01*
X63004761Y25747619D01*
X63242857Y25747619D01*
X63338095Y25795238D01*
X63385714Y25842857D01*
X84352381Y66666666D02*
X83876190Y67000000D01*
X84352381Y67238095D02*
X83352381Y67238095D01*
X83352381Y66857142D01*
X83400000Y66761904D01*
X83447619Y66714285D01*
X83542857Y66666666D01*
X83685714Y66666666D01*
X83780952Y66714285D01*
X83828571Y66761904D01*
X83876190Y66857142D01*
X83876190Y67238095D01*
X83352381Y65809523D02*
X83352381Y66000000D01*
X83400000Y66095238D01*
X83447619Y66142857D01*
X83590476Y66238095D01*
X83780952Y66285714D01*
X84161905Y66285714D01*
X84257143Y66238095D01*
X84304762Y66190476D01*
X84352381Y66095238D01*
X84352381Y65904761D01*
X84304762Y65809523D01*
X84257143Y65761904D01*
X84161905Y65714285D01*
X83923810Y65714285D01*
X83828571Y65761904D01*
X83780952Y65809523D01*
X83733333Y65904761D01*
X83733333Y66095238D01*
X83780952Y66190476D01*
X83828571Y66238095D01*
X83923810Y66285714D01*
X66952381Y66866666D02*
X66476190Y67200000D01*
X66952381Y67438095D02*
X65952381Y67438095D01*
X65952381Y67057142D01*
X66000000Y66961904D01*
X66047619Y66914285D01*
X66142857Y66866666D01*
X66285714Y66866666D01*
X66380952Y66914285D01*
X66428571Y66961904D01*
X66476190Y67057142D01*
X66476190Y67438095D01*
X65952381Y66533333D02*
X65952381Y65866666D01*
X66952381Y66295238D01*
X63766666Y27397619D02*
X64100000Y27873810D01*
X64338095Y27397619D02*
X64338095Y28397619D01*
X63957142Y28397619D01*
X63861904Y28350000D01*
X63814285Y28302381D01*
X63766666Y28207143D01*
X63766666Y28064286D01*
X63814285Y27969048D01*
X63861904Y27921429D01*
X63957142Y27873810D01*
X64338095Y27873810D01*
X63195238Y27969048D02*
X63290476Y28016667D01*
X63338095Y28064286D01*
X63385714Y28159524D01*
X63385714Y28207143D01*
X63338095Y28302381D01*
X63290476Y28350000D01*
X63195238Y28397619D01*
X63004761Y28397619D01*
X62909523Y28350000D01*
X62861904Y28302381D01*
X62814285Y28207143D01*
X62814285Y28159524D01*
X62861904Y28064286D01*
X62909523Y28016667D01*
X63004761Y27969048D01*
X63195238Y27969048D01*
X63290476Y27921429D01*
X63338095Y27873810D01*
X63385714Y27778571D01*
X63385714Y27588095D01*
X63338095Y27492857D01*
X63290476Y27445238D01*
X63195238Y27397619D01*
X63004761Y27397619D01*
X62909523Y27445238D01*
X62861904Y27492857D01*
X62814285Y27588095D01*
X62814285Y27778571D01*
X62861904Y27873810D01*
X62909523Y27921429D01*
X63004761Y27969048D01*
X64016666Y54997619D02*
X64350000Y55473810D01*
X64588095Y54997619D02*
X64588095Y55997619D01*
X64207142Y55997619D01*
X64111904Y55950000D01*
X64064285Y55902381D01*
X64016666Y55807143D01*
X64016666Y55664286D01*
X64064285Y55569048D01*
X64111904Y55521429D01*
X64207142Y55473810D01*
X64588095Y55473810D01*
X63540476Y54997619D02*
X63350000Y54997619D01*
X63254761Y55045238D01*
X63207142Y55092857D01*
X63111904Y55235714D01*
X63064285Y55426190D01*
X63064285Y55807143D01*
X63111904Y55902381D01*
X63159523Y55950000D01*
X63254761Y55997619D01*
X63445238Y55997619D01*
X63540476Y55950000D01*
X63588095Y55902381D01*
X63635714Y55807143D01*
X63635714Y55569048D01*
X63588095Y55473810D01*
X63540476Y55426190D01*
X63445238Y55378571D01*
X63254761Y55378571D01*
X63159523Y55426190D01*
X63111904Y55473810D01*
X63064285Y55569048D01*
X35842857Y59547619D02*
X36176191Y60023810D01*
X36414286Y59547619D02*
X36414286Y60547619D01*
X36033333Y60547619D01*
X35938095Y60500000D01*
X35890476Y60452381D01*
X35842857Y60357143D01*
X35842857Y60214286D01*
X35890476Y60119048D01*
X35938095Y60071429D01*
X36033333Y60023810D01*
X36414286Y60023810D01*
X34890476Y59547619D02*
X35461905Y59547619D01*
X35176191Y59547619D02*
X35176191Y60547619D01*
X35271429Y60404762D01*
X35366667Y60309524D01*
X35461905Y60261905D01*
X34271429Y60547619D02*
X34176190Y60547619D01*
X34080952Y60500000D01*
X34033333Y60452381D01*
X33985714Y60357143D01*
X33938095Y60166667D01*
X33938095Y59928571D01*
X33985714Y59738095D01*
X34033333Y59642857D01*
X34080952Y59595238D01*
X34176190Y59547619D01*
X34271429Y59547619D01*
X34366667Y59595238D01*
X34414286Y59642857D01*
X34461905Y59738095D01*
X34509524Y59928571D01*
X34509524Y60166667D01*
X34461905Y60357143D01*
X34414286Y60452381D01*
X34366667Y60500000D01*
X34271429Y60547619D01*
X52642857Y59747619D02*
X52976191Y60223810D01*
X53214286Y59747619D02*
X53214286Y60747619D01*
X52833333Y60747619D01*
X52738095Y60700000D01*
X52690476Y60652381D01*
X52642857Y60557143D01*
X52642857Y60414286D01*
X52690476Y60319048D01*
X52738095Y60271429D01*
X52833333Y60223810D01*
X53214286Y60223810D01*
X51690476Y59747619D02*
X52261905Y59747619D01*
X51976191Y59747619D02*
X51976191Y60747619D01*
X52071429Y60604762D01*
X52166667Y60509524D01*
X52261905Y60461905D01*
X50738095Y59747619D02*
X51309524Y59747619D01*
X51023810Y59747619D02*
X51023810Y60747619D01*
X51119048Y60604762D01*
X51214286Y60509524D01*
X51309524Y60461905D01*
X53492857Y48447619D02*
X53826191Y48923810D01*
X54064286Y48447619D02*
X54064286Y49447619D01*
X53683333Y49447619D01*
X53588095Y49400000D01*
X53540476Y49352381D01*
X53492857Y49257143D01*
X53492857Y49114286D01*
X53540476Y49019048D01*
X53588095Y48971429D01*
X53683333Y48923810D01*
X54064286Y48923810D01*
X52540476Y48447619D02*
X53111905Y48447619D01*
X52826191Y48447619D02*
X52826191Y49447619D01*
X52921429Y49304762D01*
X53016667Y49209524D01*
X53111905Y49161905D01*
X52159524Y49352381D02*
X52111905Y49400000D01*
X52016667Y49447619D01*
X51778571Y49447619D01*
X51683333Y49400000D01*
X51635714Y49352381D01*
X51588095Y49257143D01*
X51588095Y49161905D01*
X51635714Y49019048D01*
X52207143Y48447619D01*
X51588095Y48447619D01*
X35842857Y61147619D02*
X36176191Y61623810D01*
X36414286Y61147619D02*
X36414286Y62147619D01*
X36033333Y62147619D01*
X35938095Y62100000D01*
X35890476Y62052381D01*
X35842857Y61957143D01*
X35842857Y61814286D01*
X35890476Y61719048D01*
X35938095Y61671429D01*
X36033333Y61623810D01*
X36414286Y61623810D01*
X34890476Y61147619D02*
X35461905Y61147619D01*
X35176191Y61147619D02*
X35176191Y62147619D01*
X35271429Y62004762D01*
X35366667Y61909524D01*
X35461905Y61861905D01*
X34557143Y62147619D02*
X33938095Y62147619D01*
X34271429Y61766667D01*
X34128571Y61766667D01*
X34033333Y61719048D01*
X33985714Y61671429D01*
X33938095Y61576190D01*
X33938095Y61338095D01*
X33985714Y61242857D01*
X34033333Y61195238D01*
X34128571Y61147619D01*
X34414286Y61147619D01*
X34509524Y61195238D01*
X34557143Y61242857D01*
X52642857Y61347619D02*
X52976191Y61823810D01*
X53214286Y61347619D02*
X53214286Y62347619D01*
X52833333Y62347619D01*
X52738095Y62300000D01*
X52690476Y62252381D01*
X52642857Y62157143D01*
X52642857Y62014286D01*
X52690476Y61919048D01*
X52738095Y61871429D01*
X52833333Y61823810D01*
X53214286Y61823810D01*
X51690476Y61347619D02*
X52261905Y61347619D01*
X51976191Y61347619D02*
X51976191Y62347619D01*
X52071429Y62204762D01*
X52166667Y62109524D01*
X52261905Y62061905D01*
X50833333Y62014286D02*
X50833333Y61347619D01*
X51071429Y62395238D02*
X51309524Y61680952D01*
X50690476Y61680952D01*
X13642857Y39297619D02*
X13976191Y39773810D01*
X14214286Y39297619D02*
X14214286Y40297619D01*
X13833333Y40297619D01*
X13738095Y40250000D01*
X13690476Y40202381D01*
X13642857Y40107143D01*
X13642857Y39964286D01*
X13690476Y39869048D01*
X13738095Y39821429D01*
X13833333Y39773810D01*
X14214286Y39773810D01*
X12690476Y39297619D02*
X13261905Y39297619D01*
X12976191Y39297619D02*
X12976191Y40297619D01*
X13071429Y40154762D01*
X13166667Y40059524D01*
X13261905Y40011905D01*
X11833333Y40297619D02*
X12023810Y40297619D01*
X12119048Y40250000D01*
X12166667Y40202381D01*
X12261905Y40059524D01*
X12309524Y39869048D01*
X12309524Y39488095D01*
X12261905Y39392857D01*
X12214286Y39345238D01*
X12119048Y39297619D01*
X11928571Y39297619D01*
X11833333Y39345238D01*
X11785714Y39392857D01*
X11738095Y39488095D01*
X11738095Y39726190D01*
X11785714Y39821429D01*
X11833333Y39869048D01*
X11928571Y39916667D01*
X12119048Y39916667D01*
X12214286Y39869048D01*
X12261905Y39821429D01*
X12309524Y39726190D01*
X13392857Y42547619D02*
X13726191Y43023810D01*
X13964286Y42547619D02*
X13964286Y43547619D01*
X13583333Y43547619D01*
X13488095Y43500000D01*
X13440476Y43452381D01*
X13392857Y43357143D01*
X13392857Y43214286D01*
X13440476Y43119048D01*
X13488095Y43071429D01*
X13583333Y43023810D01*
X13964286Y43023810D01*
X12440476Y42547619D02*
X13011905Y42547619D01*
X12726191Y42547619D02*
X12726191Y43547619D01*
X12821429Y43404762D01*
X12916667Y43309524D01*
X13011905Y43261905D01*
X12107143Y43547619D02*
X11440476Y43547619D01*
X11869048Y42547619D01*
X25142857Y46697619D02*
X25476191Y47173810D01*
X25714286Y46697619D02*
X25714286Y47697619D01*
X25333333Y47697619D01*
X25238095Y47650000D01*
X25190476Y47602381D01*
X25142857Y47507143D01*
X25142857Y47364286D01*
X25190476Y47269048D01*
X25238095Y47221429D01*
X25333333Y47173810D01*
X25714286Y47173810D01*
X24190476Y46697619D02*
X24761905Y46697619D01*
X24476191Y46697619D02*
X24476191Y47697619D01*
X24571429Y47554762D01*
X24666667Y47459524D01*
X24761905Y47411905D01*
X23619048Y47269048D02*
X23714286Y47316667D01*
X23761905Y47364286D01*
X23809524Y47459524D01*
X23809524Y47507143D01*
X23761905Y47602381D01*
X23714286Y47650000D01*
X23619048Y47697619D01*
X23428571Y47697619D01*
X23333333Y47650000D01*
X23285714Y47602381D01*
X23238095Y47507143D01*
X23238095Y47459524D01*
X23285714Y47364286D01*
X23333333Y47316667D01*
X23428571Y47269048D01*
X23619048Y47269048D01*
X23714286Y47221429D01*
X23761905Y47173810D01*
X23809524Y47078571D01*
X23809524Y46888095D01*
X23761905Y46792857D01*
X23714286Y46745238D01*
X23619048Y46697619D01*
X23428571Y46697619D01*
X23333333Y46745238D01*
X23285714Y46792857D01*
X23238095Y46888095D01*
X23238095Y47078571D01*
X23285714Y47173810D01*
X23333333Y47221429D01*
X23428571Y47269048D01*
X26352381Y57142857D02*
X25876190Y57476191D01*
X26352381Y57714286D02*
X25352381Y57714286D01*
X25352381Y57333333D01*
X25400000Y57238095D01*
X25447619Y57190476D01*
X25542857Y57142857D01*
X25685714Y57142857D01*
X25780952Y57190476D01*
X25828571Y57238095D01*
X25876190Y57333333D01*
X25876190Y57714286D01*
X26352381Y56190476D02*
X26352381Y56761905D01*
X26352381Y56476191D02*
X25352381Y56476191D01*
X25495238Y56571429D01*
X25590476Y56666667D01*
X25638095Y56761905D01*
X26352381Y55714286D02*
X26352381Y55523810D01*
X26304762Y55428571D01*
X26257143Y55380952D01*
X26114286Y55285714D01*
X25923810Y55238095D01*
X25542857Y55238095D01*
X25447619Y55285714D01*
X25400000Y55333333D01*
X25352381Y55428571D01*
X25352381Y55619048D01*
X25400000Y55714286D01*
X25447619Y55761905D01*
X25542857Y55809524D01*
X25780952Y55809524D01*
X25876190Y55761905D01*
X25923810Y55714286D01*
X25971429Y55619048D01*
X25971429Y55428571D01*
X25923810Y55333333D01*
X25876190Y55285714D01*
X25780952Y55238095D01*
X34102381Y33142857D02*
X33626190Y33476191D01*
X34102381Y33714286D02*
X33102381Y33714286D01*
X33102381Y33333333D01*
X33150000Y33238095D01*
X33197619Y33190476D01*
X33292857Y33142857D01*
X33435714Y33142857D01*
X33530952Y33190476D01*
X33578571Y33238095D01*
X33626190Y33333333D01*
X33626190Y33714286D01*
X33197619Y32761905D02*
X33150000Y32714286D01*
X33102381Y32619048D01*
X33102381Y32380952D01*
X33150000Y32285714D01*
X33197619Y32238095D01*
X33292857Y32190476D01*
X33388095Y32190476D01*
X33530952Y32238095D01*
X34102381Y32809524D01*
X34102381Y32190476D01*
X33102381Y31571429D02*
X33102381Y31476190D01*
X33150000Y31380952D01*
X33197619Y31333333D01*
X33292857Y31285714D01*
X33483333Y31238095D01*
X33721429Y31238095D01*
X33911905Y31285714D01*
X34007143Y31333333D01*
X34054762Y31380952D01*
X34102381Y31476190D01*
X34102381Y31571429D01*
X34054762Y31666667D01*
X34007143Y31714286D01*
X33911905Y31761905D01*
X33721429Y31809524D01*
X33483333Y31809524D01*
X33292857Y31761905D01*
X33197619Y31714286D01*
X33150000Y31666667D01*
X33102381Y31571429D01*
X64142857Y34597619D02*
X64476191Y35073810D01*
X64714286Y34597619D02*
X64714286Y35597619D01*
X64333333Y35597619D01*
X64238095Y35550000D01*
X64190476Y35502381D01*
X64142857Y35407143D01*
X64142857Y35264286D01*
X64190476Y35169048D01*
X64238095Y35121429D01*
X64333333Y35073810D01*
X64714286Y35073810D01*
X63761905Y35502381D02*
X63714286Y35550000D01*
X63619048Y35597619D01*
X63380952Y35597619D01*
X63285714Y35550000D01*
X63238095Y35502381D01*
X63190476Y35407143D01*
X63190476Y35311905D01*
X63238095Y35169048D01*
X63809524Y34597619D01*
X63190476Y34597619D01*
X62238095Y34597619D02*
X62809524Y34597619D01*
X62523810Y34597619D02*
X62523810Y35597619D01*
X62619048Y35454762D01*
X62714286Y35359524D01*
X62809524Y35311905D01*
X36052381Y20542857D02*
X35576190Y20876191D01*
X36052381Y21114286D02*
X35052381Y21114286D01*
X35052381Y20733333D01*
X35100000Y20638095D01*
X35147619Y20590476D01*
X35242857Y20542857D01*
X35385714Y20542857D01*
X35480952Y20590476D01*
X35528571Y20638095D01*
X35576190Y20733333D01*
X35576190Y21114286D01*
X35147619Y20161905D02*
X35100000Y20114286D01*
X35052381Y20019048D01*
X35052381Y19780952D01*
X35100000Y19685714D01*
X35147619Y19638095D01*
X35242857Y19590476D01*
X35338095Y19590476D01*
X35480952Y19638095D01*
X36052381Y20209524D01*
X36052381Y19590476D01*
X35147619Y19209524D02*
X35100000Y19161905D01*
X35052381Y19066667D01*
X35052381Y18828571D01*
X35100000Y18733333D01*
X35147619Y18685714D01*
X35242857Y18638095D01*
X35338095Y18638095D01*
X35480952Y18685714D01*
X36052381Y19257143D01*
X36052381Y18638095D01*
X38102381Y20592857D02*
X37626190Y20926191D01*
X38102381Y21164286D02*
X37102381Y21164286D01*
X37102381Y20783333D01*
X37150000Y20688095D01*
X37197619Y20640476D01*
X37292857Y20592857D01*
X37435714Y20592857D01*
X37530952Y20640476D01*
X37578571Y20688095D01*
X37626190Y20783333D01*
X37626190Y21164286D01*
X37197619Y20211905D02*
X37150000Y20164286D01*
X37102381Y20069048D01*
X37102381Y19830952D01*
X37150000Y19735714D01*
X37197619Y19688095D01*
X37292857Y19640476D01*
X37388095Y19640476D01*
X37530952Y19688095D01*
X38102381Y20259524D01*
X38102381Y19640476D01*
X37102381Y19307143D02*
X37102381Y18688095D01*
X37483333Y19021429D01*
X37483333Y18878571D01*
X37530952Y18783333D01*
X37578571Y18735714D01*
X37673810Y18688095D01*
X37911905Y18688095D01*
X38007143Y18735714D01*
X38054762Y18783333D01*
X38102381Y18878571D01*
X38102381Y19164286D01*
X38054762Y19259524D01*
X38007143Y19307143D01*
X14402381Y58942857D02*
X13926190Y59276191D01*
X14402381Y59514286D02*
X13402381Y59514286D01*
X13402381Y59133333D01*
X13450000Y59038095D01*
X13497619Y58990476D01*
X13592857Y58942857D01*
X13735714Y58942857D01*
X13830952Y58990476D01*
X13878571Y59038095D01*
X13926190Y59133333D01*
X13926190Y59514286D01*
X13497619Y58561905D02*
X13450000Y58514286D01*
X13402381Y58419048D01*
X13402381Y58180952D01*
X13450000Y58085714D01*
X13497619Y58038095D01*
X13592857Y57990476D01*
X13688095Y57990476D01*
X13830952Y58038095D01*
X14402381Y58609524D01*
X14402381Y57990476D01*
X13735714Y57133333D02*
X14402381Y57133333D01*
X13354762Y57371429D02*
X14069048Y57609524D01*
X14069048Y56990476D01*
X16742857Y50197619D02*
X17076191Y50673810D01*
X17314286Y50197619D02*
X17314286Y51197619D01*
X16933333Y51197619D01*
X16838095Y51150000D01*
X16790476Y51102381D01*
X16742857Y51007143D01*
X16742857Y50864286D01*
X16790476Y50769048D01*
X16838095Y50721429D01*
X16933333Y50673810D01*
X17314286Y50673810D01*
X16361905Y51102381D02*
X16314286Y51150000D01*
X16219048Y51197619D01*
X15980952Y51197619D01*
X15885714Y51150000D01*
X15838095Y51102381D01*
X15790476Y51007143D01*
X15790476Y50911905D01*
X15838095Y50769048D01*
X16409524Y50197619D01*
X15790476Y50197619D01*
X14885714Y51197619D02*
X15361905Y51197619D01*
X15409524Y50721429D01*
X15361905Y50769048D01*
X15266667Y50816667D01*
X15028571Y50816667D01*
X14933333Y50769048D01*
X14885714Y50721429D01*
X14838095Y50626190D01*
X14838095Y50388095D01*
X14885714Y50292857D01*
X14933333Y50245238D01*
X15028571Y50197619D01*
X15266667Y50197619D01*
X15361905Y50245238D01*
X15409524Y50292857D01*
X38202381Y10142857D02*
X37726190Y10476191D01*
X38202381Y10714286D02*
X37202381Y10714286D01*
X37202381Y10333333D01*
X37250000Y10238095D01*
X37297619Y10190476D01*
X37392857Y10142857D01*
X37535714Y10142857D01*
X37630952Y10190476D01*
X37678571Y10238095D01*
X37726190Y10333333D01*
X37726190Y10714286D01*
X37297619Y9761905D02*
X37250000Y9714286D01*
X37202381Y9619048D01*
X37202381Y9380952D01*
X37250000Y9285714D01*
X37297619Y9238095D01*
X37392857Y9190476D01*
X37488095Y9190476D01*
X37630952Y9238095D01*
X38202381Y9809524D01*
X38202381Y9190476D01*
X37202381Y8333333D02*
X37202381Y8523810D01*
X37250000Y8619048D01*
X37297619Y8666667D01*
X37440476Y8761905D01*
X37630952Y8809524D01*
X38011905Y8809524D01*
X38107143Y8761905D01*
X38154762Y8714286D01*
X38202381Y8619048D01*
X38202381Y8428571D01*
X38154762Y8333333D01*
X38107143Y8285714D01*
X38011905Y8238095D01*
X37773810Y8238095D01*
X37678571Y8285714D01*
X37630952Y8333333D01*
X37583333Y8428571D01*
X37583333Y8619048D01*
X37630952Y8714286D01*
X37678571Y8761905D01*
X37773810Y8809524D01*
X33952381Y10142857D02*
X33476190Y10476191D01*
X33952381Y10714286D02*
X32952381Y10714286D01*
X32952381Y10333333D01*
X33000000Y10238095D01*
X33047619Y10190476D01*
X33142857Y10142857D01*
X33285714Y10142857D01*
X33380952Y10190476D01*
X33428571Y10238095D01*
X33476190Y10333333D01*
X33476190Y10714286D01*
X33047619Y9761905D02*
X33000000Y9714286D01*
X32952381Y9619048D01*
X32952381Y9380952D01*
X33000000Y9285714D01*
X33047619Y9238095D01*
X33142857Y9190476D01*
X33238095Y9190476D01*
X33380952Y9238095D01*
X33952381Y9809524D01*
X33952381Y9190476D01*
X32952381Y8857143D02*
X32952381Y8190476D01*
X33952381Y8619048D01*
X81445238Y50247619D02*
X81778572Y50723810D01*
X82016667Y50247619D02*
X82016667Y51247619D01*
X81635714Y51247619D01*
X81540476Y51200000D01*
X81492857Y51152381D01*
X81445238Y51057143D01*
X81445238Y50914286D01*
X81492857Y50819048D01*
X81540476Y50771429D01*
X81635714Y50723810D01*
X82016667Y50723810D01*
X81159524Y51247619D02*
X80826191Y50247619D01*
X80492857Y51247619D01*
X79635714Y50247619D02*
X80207143Y50247619D01*
X79921429Y50247619D02*
X79921429Y51247619D01*
X80016667Y51104762D01*
X80111905Y51009524D01*
X80207143Y50961905D01*
X22988985Y1694899D02*
X22988985Y885375D01*
X22941366Y790137D01*
X22893747Y742518D01*
X22798509Y694899D01*
X22608032Y694899D01*
X22512794Y742518D01*
X22465175Y790137D01*
X22417556Y885375D01*
X22417556Y1694899D01*
X21988985Y1599661D02*
X21941366Y1647280D01*
X21846128Y1694899D01*
X21608032Y1694899D01*
X21512794Y1647280D01*
X21465175Y1599661D01*
X21417556Y1504423D01*
X21417556Y1409185D01*
X21465175Y1266328D01*
X22036604Y694899D01*
X21417556Y694899D01*
X18711905Y61947619D02*
X18711905Y61138095D01*
X18664286Y61042857D01*
X18616667Y60995238D01*
X18521429Y60947619D01*
X18330952Y60947619D01*
X18235714Y60995238D01*
X18188095Y61042857D01*
X18140476Y61138095D01*
X18140476Y61947619D01*
X17235714Y61614286D02*
X17235714Y60947619D01*
X17473810Y61995238D02*
X17711905Y61280952D01*
X17092857Y61280952D01*
X37476191Y51067810D02*
X37476191Y50591619D01*
X37809524Y51591619D02*
X37476191Y51067810D01*
X37142857Y51591619D01*
X36285714Y50591619D02*
X36857143Y50591619D01*
X36571429Y50591619D02*
X36571429Y51591619D01*
X36666667Y51448762D01*
X36761905Y51353524D01*
X36857143Y51305905D01*
X17626191Y65923810D02*
X17626191Y65447619D01*
X17959524Y66447619D02*
X17626191Y65923810D01*
X17292857Y66447619D01*
X17007143Y66352381D02*
X16959524Y66400000D01*
X16864286Y66447619D01*
X16626190Y66447619D01*
X16530952Y66400000D01*
X16483333Y66352381D01*
X16435714Y66257143D01*
X16435714Y66161905D01*
X16483333Y66019048D01*
X17054762Y65447619D01*
X16435714Y65447619D01*
X28057143Y12242857D02*
X28104762Y12290476D01*
X28152381Y12433333D01*
X28152381Y12528571D01*
X28104762Y12671429D01*
X28009524Y12766667D01*
X27914286Y12814286D01*
X27723810Y12861905D01*
X27580952Y12861905D01*
X27390476Y12814286D01*
X27295238Y12766667D01*
X27200000Y12671429D01*
X27152381Y12528571D01*
X27152381Y12433333D01*
X27200000Y12290476D01*
X27247619Y12242857D01*
X28152381Y11290476D02*
X28152381Y11861905D01*
X28152381Y11576191D02*
X27152381Y11576191D01*
X27295238Y11671429D01*
X27390476Y11766667D01*
X27438095Y11861905D01*
X27152381Y10671429D02*
X27152381Y10576190D01*
X27200000Y10480952D01*
X27247619Y10433333D01*
X27342857Y10385714D01*
X27533333Y10338095D01*
X27771429Y10338095D01*
X27961905Y10385714D01*
X28057143Y10433333D01*
X28104762Y10480952D01*
X28152381Y10576190D01*
X28152381Y10671429D01*
X28104762Y10766667D01*
X28057143Y10814286D01*
X27961905Y10861905D01*
X27771429Y10909524D01*
X27533333Y10909524D01*
X27342857Y10861905D01*
X27247619Y10814286D01*
X27200000Y10766667D01*
X27152381Y10671429D01*
X38333333Y50917619D02*
X38333333Y50203333D01*
X38380953Y50060476D01*
X38476191Y49965238D01*
X38619048Y49917619D01*
X38714286Y49917619D01*
X37904762Y50822381D02*
X37857143Y50870000D01*
X37761905Y50917619D01*
X37523809Y50917619D01*
X37428571Y50870000D01*
X37380952Y50822381D01*
X37333333Y50727143D01*
X37333333Y50631905D01*
X37380952Y50489048D01*
X37952381Y49917619D01*
X37333333Y49917619D01*
X18883333Y62717619D02*
X18883333Y62003333D01*
X18930953Y61860476D01*
X19026191Y61765238D01*
X19169048Y61717619D01*
X19264286Y61717619D01*
X17883333Y61717619D02*
X18454762Y61717619D01*
X18169048Y61717619D02*
X18169048Y62717619D01*
X18264286Y62574762D01*
X18359524Y62479524D01*
X18454762Y62431905D01*
X64038095Y19747619D02*
X64038095Y20747619D01*
X63800000Y20747619D01*
X63657142Y20700000D01*
X63561904Y20604762D01*
X63514285Y20509524D01*
X63466666Y20319048D01*
X63466666Y20176190D01*
X63514285Y19985714D01*
X63561904Y19890476D01*
X63657142Y19795238D01*
X63800000Y19747619D01*
X64038095Y19747619D01*
X62514285Y19747619D02*
X63085714Y19747619D01*
X62800000Y19747619D02*
X62800000Y20747619D01*
X62895238Y20604762D01*
X62990476Y20509524D01*
X63085714Y20461905D01*
X38202381Y20488095D02*
X37202381Y20488095D01*
X37202381Y20250000D01*
X37250000Y20107142D01*
X37345238Y20011904D01*
X37440476Y19964285D01*
X37630952Y19916666D01*
X37773810Y19916666D01*
X37964286Y19964285D01*
X38059524Y20011904D01*
X38154762Y20107142D01*
X38202381Y20250000D01*
X38202381Y20488095D01*
X37202381Y19583333D02*
X37202381Y18916666D01*
X38202381Y19345238D01*
X34102381Y10788095D02*
X33102381Y10788095D01*
X33102381Y10550000D01*
X33150000Y10407142D01*
X33245238Y10311904D01*
X33340476Y10264285D01*
X33530952Y10216666D01*
X33673810Y10216666D01*
X33864286Y10264285D01*
X33959524Y10311904D01*
X34054762Y10407142D01*
X34102381Y10550000D01*
X34102381Y10788095D01*
X33530952Y9645238D02*
X33483333Y9740476D01*
X33435714Y9788095D01*
X33340476Y9835714D01*
X33292857Y9835714D01*
X33197619Y9788095D01*
X33150000Y9740476D01*
X33102381Y9645238D01*
X33102381Y9454761D01*
X33150000Y9359523D01*
X33197619Y9311904D01*
X33292857Y9264285D01*
X33340476Y9264285D01*
X33435714Y9311904D01*
X33483333Y9359523D01*
X33530952Y9454761D01*
X33530952Y9645238D01*
X33578571Y9740476D01*
X33626190Y9788095D01*
X33721429Y9835714D01*
X33911905Y9835714D01*
X34007143Y9788095D01*
X34054762Y9740476D01*
X34102381Y9645238D01*
X34102381Y9454761D01*
X34054762Y9359523D01*
X34007143Y9311904D01*
X33911905Y9264285D01*
X33721429Y9264285D01*
X33626190Y9311904D01*
X33578571Y9359523D01*
X33530952Y9454761D01*
X42552381Y8292857D02*
X42076190Y8626191D01*
X42552381Y8864286D02*
X41552381Y8864286D01*
X41552381Y8483333D01*
X41600000Y8388095D01*
X41647619Y8340476D01*
X41742857Y8292857D01*
X41885714Y8292857D01*
X41980952Y8340476D01*
X42028571Y8388095D01*
X42076190Y8483333D01*
X42076190Y8864286D01*
X41647619Y7911905D02*
X41600000Y7864286D01*
X41552381Y7769048D01*
X41552381Y7530952D01*
X41600000Y7435714D01*
X41647619Y7388095D01*
X41742857Y7340476D01*
X41838095Y7340476D01*
X41980952Y7388095D01*
X42552381Y7959524D01*
X42552381Y7340476D01*
X42552381Y6864286D02*
X42552381Y6673810D01*
X42504762Y6578571D01*
X42457143Y6530952D01*
X42314286Y6435714D01*
X42123810Y6388095D01*
X41742857Y6388095D01*
X41647619Y6435714D01*
X41600000Y6483333D01*
X41552381Y6578571D01*
X41552381Y6769048D01*
X41600000Y6864286D01*
X41647619Y6911905D01*
X41742857Y6959524D01*
X41980952Y6959524D01*
X42076190Y6911905D01*
X42123810Y6864286D01*
X42171429Y6769048D01*
X42171429Y6578571D01*
X42123810Y6483333D01*
X42076190Y6435714D01*
X41980952Y6388095D01*
M02*
