G04 #@! TF.FileFunction,Other,User*
%FSLAX46Y46*%
G04 Gerber Fmt 4.6, Leading zero omitted, Abs format (unit mm)*
G04 Created by KiCad (PCBNEW 4.0.4+dfsg1-stable) date Sun Feb  5 16:49:06 2017*
%MOMM*%
%LPD*%
G01*
G04 APERTURE LIST*
%ADD10C,0.100000*%
%ADD11C,0.050000*%
G04 APERTURE END LIST*
D10*
D11*
X17250000Y18350000D02*
X20950000Y18350000D01*
X17250000Y19850000D02*
X20950000Y19850000D01*
X17250000Y18350000D02*
X17250000Y19850000D01*
X20950000Y18350000D02*
X20950000Y19850000D01*
X17250000Y19850000D02*
X20950000Y19850000D01*
X17250000Y21350000D02*
X20950000Y21350000D01*
X17250000Y19850000D02*
X17250000Y21350000D01*
X20950000Y19850000D02*
X20950000Y21350000D01*
X32200000Y14700000D02*
X32200000Y10700000D01*
X33800000Y14700000D02*
X33800000Y10700000D01*
X32200000Y14700000D02*
X33800000Y14700000D01*
X32200000Y10700000D02*
X33800000Y10700000D01*
X30600000Y14700000D02*
X30600000Y10700000D01*
X32200000Y14700000D02*
X32200000Y10700000D01*
X30600000Y14700000D02*
X32200000Y14700000D01*
X30600000Y10700000D02*
X32200000Y10700000D01*
X29000000Y14700000D02*
X29000000Y10700000D01*
X30600000Y14700000D02*
X30600000Y10700000D01*
X29000000Y14700000D02*
X30600000Y14700000D01*
X29000000Y10700000D02*
X30600000Y10700000D01*
X15400000Y21450000D02*
X15400000Y30750000D01*
X22800000Y21450000D02*
X22800000Y30750000D01*
X15400000Y21450000D02*
X22800000Y21450000D01*
X15400000Y30750000D02*
X22800000Y30750000D01*
X33800000Y6700000D02*
X33800000Y10700000D01*
X32200000Y6700000D02*
X32200000Y10700000D01*
X33800000Y6700000D02*
X32200000Y6700000D01*
X33800000Y10700000D02*
X32200000Y10700000D01*
X32200000Y6700000D02*
X32200000Y10700000D01*
X30600000Y6700000D02*
X30600000Y10700000D01*
X32200000Y6700000D02*
X30600000Y6700000D01*
X32200000Y10700000D02*
X30600000Y10700000D01*
X30600000Y6700000D02*
X30600000Y10700000D01*
X29000000Y6700000D02*
X29000000Y10700000D01*
X30600000Y6700000D02*
X29000000Y6700000D01*
X30600000Y10700000D02*
X29000000Y10700000D01*
X15300000Y31600000D02*
X11300000Y31600000D01*
X15300000Y30000000D02*
X11300000Y30000000D01*
X15300000Y31600000D02*
X15300000Y30000000D01*
X11300000Y31600000D02*
X11300000Y30000000D01*
X17900000Y32900000D02*
X21900000Y32900000D01*
X17900000Y34500000D02*
X21900000Y34500000D01*
X17900000Y32900000D02*
X17900000Y34500000D01*
X21900000Y32900000D02*
X21900000Y34500000D01*
X28600000Y20500000D02*
X28600000Y24500000D01*
X27000000Y20500000D02*
X27000000Y24500000D01*
X28600000Y20500000D02*
X27000000Y20500000D01*
X28600000Y24500000D02*
X27000000Y24500000D01*
X35900000Y20100000D02*
X35900000Y24100000D01*
X34300000Y20100000D02*
X34300000Y24100000D01*
X35900000Y20100000D02*
X34300000Y20100000D01*
X35900000Y24100000D02*
X34300000Y24100000D01*
X28700000Y29500000D02*
X28700000Y33500000D01*
X27100000Y29500000D02*
X27100000Y33500000D01*
X28700000Y29500000D02*
X27100000Y29500000D01*
X28700000Y33500000D02*
X27100000Y33500000D01*
X36200000Y29500000D02*
X36200000Y33500000D01*
X34600000Y29500000D02*
X34600000Y33500000D01*
X36200000Y29500000D02*
X34600000Y29500000D01*
X36200000Y33500000D02*
X34600000Y33500000D01*
X11300000Y22400000D02*
X15300000Y22400000D01*
X11300000Y24000000D02*
X15300000Y24000000D01*
X11300000Y22400000D02*
X11300000Y24000000D01*
X15300000Y22400000D02*
X15300000Y24000000D01*
X23900000Y12600000D02*
X27900000Y12600000D01*
X23900000Y14200000D02*
X27900000Y14200000D01*
X23900000Y12600000D02*
X23900000Y14200000D01*
X27900000Y12600000D02*
X27900000Y14200000D01*
X11300000Y24000000D02*
X15300000Y24000000D01*
X11300000Y25600000D02*
X15300000Y25600000D01*
X11300000Y24000000D02*
X11300000Y25600000D01*
X15300000Y24000000D02*
X15300000Y25600000D01*
X11300000Y26500000D02*
X15300000Y26500000D01*
X11300000Y28100000D02*
X15300000Y28100000D01*
X11300000Y26500000D02*
X11300000Y28100000D01*
X15300000Y26500000D02*
X15300000Y28100000D01*
X11300000Y28100000D02*
X15300000Y28100000D01*
X11300000Y29700000D02*
X15300000Y29700000D01*
X11300000Y28100000D02*
X11300000Y29700000D01*
X15300000Y28100000D02*
X15300000Y29700000D01*
M02*
