G04 #@! TF.FileFunction,Copper,L1,Top,Signal*
%FSLAX46Y46*%
G04 Gerber Fmt 4.6, Leading zero omitted, Abs format (unit mm)*
G04 Created by KiCad (PCBNEW 4.0.4+dfsg1-stable) date Sun Feb  5 16:49:06 2017*
%MOMM*%
%LPD*%
G01*
G04 APERTURE LIST*
%ADD100C,0.100000*%
%ADD110R,2.000000X2.000000*%
%ADD120C,2.000000*%
%ADD130R,1.800000X1.800000*%
%ADD140O,1.800000X1.800000*%
%ADD150C,1.800000*%
%ADD160R,2.500000X2.500000*%
%ADD170C,2.500000*%
%ADD180C,1.100000*%
%ADD190C,0.500000*%
%ADD200C,0.250000*%
%ADD210C,0.254000*%
G04 APERTURE END LIST*
D100*
D110*
X20300000Y39000000D03*
D120*
X22840000Y39000000D03*
D130*
X35100000Y40300000D03*
D140*
X35100000Y37760000D03*
X32560000Y40300000D03*
D150*
X32560000Y37760000D03*
D140*
X30020000Y40300000D03*
D150*
X30020000Y37760000D03*
D110*
X30300000Y23400000D03*
D120*
X30300000Y20860000D03*
X30300000Y18320000D03*
D110*
X38000000Y22900000D03*
D120*
X38000000Y20360000D03*
X38000000Y17820000D03*
D110*
X30300000Y32700000D03*
D120*
X30300000Y30160000D03*
X30300000Y27620000D03*
D110*
X38100000Y32800000D03*
D120*
X38100000Y30260000D03*
X38100000Y27720000D03*
D160*
X24800000Y2700000D03*
D170*
X19720000Y2700000D03*
D110*
X13800000Y2700000D03*
D120*
X11260000Y2700000D03*
X8720000Y2700000D03*
X6180000Y2700000D03*
X3640000Y2700000D03*
D110*
X38100000Y5400000D03*
D120*
X38100000Y7940000D03*
X38100000Y10480000D03*
X38100000Y13020000D03*
X14497900Y32998800D03*
X14497900Y39501200D03*
X10002100Y33075000D03*
X10002100Y39501200D03*
D180*
X24400000Y17300000D03*
X20900000Y32200000D03*
X15500000Y14400000D03*
X9300000Y10800000D03*
X9300000Y21500000D03*
X6500000Y36200000D03*
X23600000Y22200000D03*
X28400000Y15100000D03*
X26200000Y7100000D03*
X24600000Y37000000D03*
X25700000Y28600000D03*
X23900000Y19800000D03*
X27800000Y8500000D03*
D190*
X27200000Y20300000D02*
X30300000Y23400000D01*
X27200000Y20100000D02*
X27200000Y20300000D01*
X24400000Y17300000D02*
X27200000Y20100000D01*
D200*
X30300000Y32700000D02*
X21400000Y32700000D01*
X21400000Y32700000D02*
X20900000Y32200000D01*
D190*
X30300000Y23400000D02*
X29600000Y23400000D01*
X30300000Y23400000D02*
X29400000Y23400000D01*
X6500000Y36200000D02*
X6400000Y36200000D01*
D200*
X22800000Y36500000D02*
X20300000Y39000000D01*
X24100000Y36500000D02*
X22800000Y36500000D01*
X24600000Y37000000D02*
X24100000Y36500000D01*
X25700000Y21600000D02*
X25700000Y28600000D01*
X23900000Y19800000D02*
X25700000Y21600000D01*
D190*
X28360000Y7940000D02*
X27800000Y8500000D01*
X38100000Y7940000D02*
X28360000Y7940000D01*
D210*
G36*
X42290000Y710000D02*
X710000Y710000D01*
X710000Y2376205D01*
X2004716Y2376205D01*
X2253106Y1775057D01*
X2712637Y1314722D01*
X3313352Y1065284D01*
X3963795Y1064716D01*
X4564943Y1313106D01*
X4910199Y1657759D01*
X5252637Y1314722D01*
X5853352Y1065284D01*
X6503795Y1064716D01*
X7104943Y1313106D01*
X7450199Y1657759D01*
X7792637Y1314722D01*
X8393352Y1065284D01*
X9043795Y1064716D01*
X9644943Y1313106D01*
X9990199Y1657759D01*
X10332637Y1314722D01*
X10933352Y1065284D01*
X11583795Y1064716D01*
X12184943Y1313106D01*
X12251574Y1379621D01*
X12335910Y1248559D01*
X12548110Y1103569D01*
X12800000Y1052560D01*
X14800000Y1052560D01*
X15035317Y1096838D01*
X15251441Y1235910D01*
X15396431Y1448110D01*
X15447440Y1700000D01*
X15447440Y2326695D01*
X17834674Y2326695D01*
X18121043Y1633628D01*
X18650839Y1102907D01*
X19343405Y815328D01*
X20093305Y814674D01*
X20786372Y1101043D01*
X21317093Y1630839D01*
X21604672Y2323405D01*
X21605326Y3073305D01*
X21318957Y3766372D01*
X21135650Y3950000D01*
X22902560Y3950000D01*
X22902560Y1450000D01*
X22946838Y1214683D01*
X23085910Y998559D01*
X23298110Y853569D01*
X23550000Y802560D01*
X26050000Y802560D01*
X26285317Y846838D01*
X26501441Y985910D01*
X26646431Y1198110D01*
X26697440Y1450000D01*
X26697440Y3950000D01*
X26653162Y4185317D01*
X26514090Y4401441D01*
X26301890Y4546431D01*
X26050000Y4597440D01*
X23550000Y4597440D01*
X23314683Y4553162D01*
X23098559Y4414090D01*
X22953569Y4201890D01*
X22902560Y3950000D01*
X21135650Y3950000D01*
X20789161Y4297093D01*
X20096595Y4584672D01*
X19346695Y4585326D01*
X18653628Y4298957D01*
X18122907Y3769161D01*
X17835328Y3076595D01*
X17834674Y2326695D01*
X15447440Y2326695D01*
X15447440Y3700000D01*
X15403162Y3935317D01*
X15264090Y4151441D01*
X15051890Y4296431D01*
X14800000Y4347440D01*
X12800000Y4347440D01*
X12564683Y4303162D01*
X12348559Y4164090D01*
X12251090Y4021439D01*
X12187363Y4085278D01*
X11586648Y4334716D01*
X10936205Y4335284D01*
X10335057Y4086894D01*
X9989801Y3742241D01*
X9647363Y4085278D01*
X9046648Y4334716D01*
X8396205Y4335284D01*
X7795057Y4086894D01*
X7449801Y3742241D01*
X7107363Y4085278D01*
X6506648Y4334716D01*
X5856205Y4335284D01*
X5255057Y4086894D01*
X4909801Y3742241D01*
X4567363Y4085278D01*
X3966648Y4334716D01*
X3316205Y4335284D01*
X2715057Y4086894D01*
X2254722Y3627363D01*
X2005284Y3026648D01*
X2004716Y2376205D01*
X710000Y2376205D01*
X710000Y8265323D01*
X26614794Y8265323D01*
X26794820Y7829628D01*
X27127875Y7495991D01*
X27563255Y7315206D01*
X27733364Y7315057D01*
X27734208Y7314213D01*
X27734210Y7314210D01*
X27926054Y7186025D01*
X28021326Y7122366D01*
X28360000Y7054999D01*
X28360005Y7055000D01*
X36696602Y7055000D01*
X36713106Y7015057D01*
X36779621Y6948426D01*
X36648559Y6864090D01*
X36503569Y6651890D01*
X36452560Y6400000D01*
X36452560Y4400000D01*
X36496838Y4164683D01*
X36635910Y3948559D01*
X36848110Y3803569D01*
X37100000Y3752560D01*
X39100000Y3752560D01*
X39335317Y3796838D01*
X39551441Y3935910D01*
X39696431Y4148110D01*
X39747440Y4400000D01*
X39747440Y6400000D01*
X39703162Y6635317D01*
X39564090Y6851441D01*
X39421439Y6948910D01*
X39485278Y7012637D01*
X39734716Y7613352D01*
X39735284Y8263795D01*
X39486894Y8864943D01*
X39142241Y9210199D01*
X39485278Y9552637D01*
X39734716Y10153352D01*
X39735284Y10803795D01*
X39486894Y11404943D01*
X39060022Y11832562D01*
X39072927Y11867468D01*
X38100000Y12840395D01*
X37127073Y11867468D01*
X37140164Y11832062D01*
X36714722Y11407363D01*
X36465284Y10806648D01*
X36464716Y10156205D01*
X36713106Y9555057D01*
X37057759Y9209801D01*
X36714722Y8867363D01*
X36697131Y8825000D01*
X28947885Y8825000D01*
X28805180Y9170372D01*
X28472125Y9504009D01*
X28036745Y9684794D01*
X27565323Y9685206D01*
X27129628Y9505180D01*
X26795991Y9172125D01*
X26615206Y8736745D01*
X26614794Y8265323D01*
X710000Y8265323D01*
X710000Y13284539D01*
X36454092Y13284539D01*
X36478144Y12634540D01*
X36680613Y12145736D01*
X36947468Y12047073D01*
X37920395Y13020000D01*
X38279605Y13020000D01*
X39252532Y12047073D01*
X39519387Y12145736D01*
X39745908Y12755461D01*
X39721856Y13405460D01*
X39519387Y13894264D01*
X39252532Y13992927D01*
X38279605Y13020000D01*
X37920395Y13020000D01*
X36947468Y13992927D01*
X36680613Y13894264D01*
X36454092Y13284539D01*
X710000Y13284539D01*
X710000Y14172532D01*
X37127073Y14172532D01*
X38100000Y13199605D01*
X39072927Y14172532D01*
X38974264Y14439387D01*
X38364539Y14665908D01*
X37714540Y14641856D01*
X37225736Y14439387D01*
X37127073Y14172532D01*
X710000Y14172532D01*
X710000Y17065323D01*
X23214794Y17065323D01*
X23394820Y16629628D01*
X23727875Y16295991D01*
X24163255Y16115206D01*
X24634677Y16114794D01*
X25070372Y16294820D01*
X25404009Y16627875D01*
X25420449Y16667468D01*
X37027073Y16667468D01*
X37125736Y16400613D01*
X37735461Y16174092D01*
X38385460Y16198144D01*
X38874264Y16400613D01*
X38972927Y16667468D01*
X38000000Y17640395D01*
X37027073Y16667468D01*
X25420449Y16667468D01*
X25584794Y17063255D01*
X25584885Y17167468D01*
X29327073Y17167468D01*
X29425736Y16900613D01*
X30035461Y16674092D01*
X30685460Y16698144D01*
X31174264Y16900613D01*
X31272927Y17167468D01*
X30300000Y18140395D01*
X29327073Y17167468D01*
X25584885Y17167468D01*
X25584943Y17233363D01*
X26936118Y18584539D01*
X28654092Y18584539D01*
X28678144Y17934540D01*
X28880613Y17445736D01*
X29147468Y17347073D01*
X30120395Y18320000D01*
X30479605Y18320000D01*
X31452532Y17347073D01*
X31719387Y17445736D01*
X31945908Y18055461D01*
X31944833Y18084539D01*
X36354092Y18084539D01*
X36378144Y17434540D01*
X36580613Y16945736D01*
X36847468Y16847073D01*
X37820395Y17820000D01*
X38179605Y17820000D01*
X39152532Y16847073D01*
X39419387Y16945736D01*
X39645908Y17555461D01*
X39621856Y18205460D01*
X39419387Y18694264D01*
X39152532Y18792927D01*
X38179605Y17820000D01*
X37820395Y17820000D01*
X36847468Y18792927D01*
X36580613Y18694264D01*
X36354092Y18084539D01*
X31944833Y18084539D01*
X31921856Y18705460D01*
X31719387Y19194264D01*
X31452532Y19292927D01*
X30479605Y18320000D01*
X30120395Y18320000D01*
X29147468Y19292927D01*
X28880613Y19194264D01*
X28654092Y18584539D01*
X26936118Y18584539D01*
X27825787Y19474208D01*
X27825790Y19474210D01*
X28017633Y19761325D01*
X28028810Y19817516D01*
X28043638Y19892058D01*
X28671461Y20519881D01*
X28913106Y19935057D01*
X29339978Y19507438D01*
X29327073Y19472532D01*
X30300000Y18499605D01*
X31272927Y19472532D01*
X31259836Y19507938D01*
X31685278Y19932637D01*
X31934716Y20533352D01*
X31935284Y21183795D01*
X31686894Y21784943D01*
X31620379Y21851574D01*
X31751441Y21935910D01*
X31896431Y22148110D01*
X31947440Y22400000D01*
X31947440Y23900000D01*
X36352560Y23900000D01*
X36352560Y21900000D01*
X36396838Y21664683D01*
X36535910Y21448559D01*
X36678561Y21351090D01*
X36614722Y21287363D01*
X36365284Y20686648D01*
X36364716Y20036205D01*
X36613106Y19435057D01*
X37039978Y19007438D01*
X37027073Y18972532D01*
X38000000Y17999605D01*
X38972927Y18972532D01*
X38959836Y19007938D01*
X39385278Y19432637D01*
X39634716Y20033352D01*
X39635284Y20683795D01*
X39386894Y21284943D01*
X39320379Y21351574D01*
X39451441Y21435910D01*
X39596431Y21648110D01*
X39647440Y21900000D01*
X39647440Y23900000D01*
X39603162Y24135317D01*
X39464090Y24351441D01*
X39251890Y24496431D01*
X39000000Y24547440D01*
X37000000Y24547440D01*
X36764683Y24503162D01*
X36548559Y24364090D01*
X36403569Y24151890D01*
X36352560Y23900000D01*
X31947440Y23900000D01*
X31947440Y24400000D01*
X31903162Y24635317D01*
X31764090Y24851441D01*
X31551890Y24996431D01*
X31300000Y25047440D01*
X29300000Y25047440D01*
X29064683Y25003162D01*
X28848559Y24864090D01*
X28703569Y24651890D01*
X28652560Y24400000D01*
X28652560Y23843727D01*
X28582367Y23738675D01*
X28515000Y23400000D01*
X28582367Y23061325D01*
X28633388Y22984967D01*
X26574210Y20925790D01*
X26382367Y20638675D01*
X26382367Y20638674D01*
X26356362Y20507941D01*
X24333479Y18485059D01*
X24165323Y18485206D01*
X23729628Y18305180D01*
X23395991Y17972125D01*
X23215206Y17536745D01*
X23214794Y17065323D01*
X710000Y17065323D01*
X710000Y19565323D01*
X22714794Y19565323D01*
X22894820Y19129628D01*
X23227875Y18795991D01*
X23663255Y18615206D01*
X24134677Y18614794D01*
X24570372Y18794820D01*
X24904009Y19127875D01*
X25084794Y19563255D01*
X25085097Y19910295D01*
X26237401Y21062599D01*
X26402148Y21309160D01*
X26429876Y21448559D01*
X26460000Y21600000D01*
X26460000Y26467468D01*
X29327073Y26467468D01*
X29425736Y26200613D01*
X30035461Y25974092D01*
X30685460Y25998144D01*
X31174264Y26200613D01*
X31272927Y26467468D01*
X31172927Y26567468D01*
X37127073Y26567468D01*
X37225736Y26300613D01*
X37835461Y26074092D01*
X38485460Y26098144D01*
X38974264Y26300613D01*
X39072927Y26567468D01*
X38100000Y27540395D01*
X37127073Y26567468D01*
X31172927Y26567468D01*
X30300000Y27440395D01*
X29327073Y26467468D01*
X26460000Y26467468D01*
X26460000Y27684292D01*
X26660597Y27884539D01*
X28654092Y27884539D01*
X28678144Y27234540D01*
X28880613Y26745736D01*
X29147468Y26647073D01*
X30120395Y27620000D01*
X30479605Y27620000D01*
X31452532Y26647073D01*
X31719387Y26745736D01*
X31945908Y27355461D01*
X31922631Y27984539D01*
X36454092Y27984539D01*
X36478144Y27334540D01*
X36680613Y26845736D01*
X36947468Y26747073D01*
X37920395Y27720000D01*
X38279605Y27720000D01*
X39252532Y26747073D01*
X39519387Y26845736D01*
X39745908Y27455461D01*
X39721856Y28105460D01*
X39519387Y28594264D01*
X39252532Y28692927D01*
X38279605Y27720000D01*
X37920395Y27720000D01*
X36947468Y28692927D01*
X36680613Y28594264D01*
X36454092Y27984539D01*
X31922631Y27984539D01*
X31921856Y28005460D01*
X31719387Y28494264D01*
X31452532Y28592927D01*
X30479605Y27620000D01*
X30120395Y27620000D01*
X29147468Y28592927D01*
X28880613Y28494264D01*
X28654092Y27884539D01*
X26660597Y27884539D01*
X26704009Y27927875D01*
X26884794Y28363255D01*
X26885206Y28834677D01*
X26705180Y29270372D01*
X26372125Y29604009D01*
X25936745Y29784794D01*
X25465323Y29785206D01*
X25029628Y29605180D01*
X24695991Y29272125D01*
X24515206Y28836745D01*
X24514794Y28365323D01*
X24694820Y27929628D01*
X24940000Y27684020D01*
X24940000Y21914802D01*
X24010103Y20984905D01*
X23665323Y20985206D01*
X23229628Y20805180D01*
X22895991Y20472125D01*
X22715206Y20036745D01*
X22714794Y19565323D01*
X710000Y19565323D01*
X710000Y31922468D01*
X9029173Y31922468D01*
X9127836Y31655613D01*
X9737561Y31429092D01*
X10387560Y31453144D01*
X10876364Y31655613D01*
X10975027Y31922468D01*
X10002100Y32895395D01*
X9029173Y31922468D01*
X710000Y31922468D01*
X710000Y33339539D01*
X8356192Y33339539D01*
X8380244Y32689540D01*
X8582713Y32200736D01*
X8849568Y32102073D01*
X9822495Y33075000D01*
X10181705Y33075000D01*
X11154632Y32102073D01*
X11421487Y32200736D01*
X11597684Y32675005D01*
X12862616Y32675005D01*
X13111006Y32073857D01*
X13570537Y31613522D01*
X14171252Y31364084D01*
X14821695Y31363516D01*
X15422843Y31611906D01*
X15776878Y31965323D01*
X19714794Y31965323D01*
X19894820Y31529628D01*
X20227875Y31195991D01*
X20663255Y31015206D01*
X21134677Y31014794D01*
X21570372Y31194820D01*
X21904009Y31527875D01*
X22075138Y31940000D01*
X28652560Y31940000D01*
X28652560Y31700000D01*
X28696838Y31464683D01*
X28835910Y31248559D01*
X28978561Y31151090D01*
X28914722Y31087363D01*
X28665284Y30486648D01*
X28664716Y29836205D01*
X28913106Y29235057D01*
X29339978Y28807438D01*
X29327073Y28772532D01*
X30300000Y27799605D01*
X31272927Y28772532D01*
X31259836Y28807938D01*
X31685278Y29232637D01*
X31934716Y29833352D01*
X31935284Y30483795D01*
X31686894Y31084943D01*
X31620379Y31151574D01*
X31751441Y31235910D01*
X31896431Y31448110D01*
X31947440Y31700000D01*
X31947440Y33700000D01*
X31928624Y33800000D01*
X36452560Y33800000D01*
X36452560Y31800000D01*
X36496838Y31564683D01*
X36635910Y31348559D01*
X36778561Y31251090D01*
X36714722Y31187363D01*
X36465284Y30586648D01*
X36464716Y29936205D01*
X36713106Y29335057D01*
X37139978Y28907438D01*
X37127073Y28872532D01*
X38100000Y27899605D01*
X39072927Y28872532D01*
X39059836Y28907938D01*
X39485278Y29332637D01*
X39734716Y29933352D01*
X39735284Y30583795D01*
X39486894Y31184943D01*
X39420379Y31251574D01*
X39551441Y31335910D01*
X39696431Y31548110D01*
X39747440Y31800000D01*
X39747440Y33800000D01*
X39703162Y34035317D01*
X39564090Y34251441D01*
X39351890Y34396431D01*
X39100000Y34447440D01*
X37100000Y34447440D01*
X36864683Y34403162D01*
X36648559Y34264090D01*
X36503569Y34051890D01*
X36452560Y33800000D01*
X31928624Y33800000D01*
X31903162Y33935317D01*
X31764090Y34151441D01*
X31551890Y34296431D01*
X31300000Y34347440D01*
X29300000Y34347440D01*
X29064683Y34303162D01*
X28848559Y34164090D01*
X28703569Y33951890D01*
X28652560Y33700000D01*
X28652560Y33460000D01*
X21400000Y33460000D01*
X21109161Y33402148D01*
X21083259Y33384841D01*
X20665323Y33385206D01*
X20229628Y33205180D01*
X19895991Y32872125D01*
X19715206Y32436745D01*
X19714794Y31965323D01*
X15776878Y31965323D01*
X15883178Y32071437D01*
X16132616Y32672152D01*
X16133184Y33322595D01*
X15884794Y33923743D01*
X15425263Y34384078D01*
X14824548Y34633516D01*
X14174105Y34634084D01*
X13572957Y34385694D01*
X13112622Y33926163D01*
X12863184Y33325448D01*
X12862616Y32675005D01*
X11597684Y32675005D01*
X11648008Y32810461D01*
X11623956Y33460460D01*
X11421487Y33949264D01*
X11154632Y34047927D01*
X10181705Y33075000D01*
X9822495Y33075000D01*
X8849568Y34047927D01*
X8582713Y33949264D01*
X8356192Y33339539D01*
X710000Y33339539D01*
X710000Y34227532D01*
X9029173Y34227532D01*
X10002100Y33254605D01*
X10975027Y34227532D01*
X10876364Y34494387D01*
X10266639Y34720908D01*
X9616640Y34696856D01*
X9127836Y34494387D01*
X9029173Y34227532D01*
X710000Y34227532D01*
X710000Y38348668D01*
X9029173Y38348668D01*
X9127836Y38081813D01*
X9737561Y37855292D01*
X10387560Y37879344D01*
X10876364Y38081813D01*
X10975027Y38348668D01*
X10002100Y39321595D01*
X9029173Y38348668D01*
X710000Y38348668D01*
X710000Y39765739D01*
X8356192Y39765739D01*
X8380244Y39115740D01*
X8582713Y38626936D01*
X8849568Y38528273D01*
X9822495Y39501200D01*
X10181705Y39501200D01*
X11154632Y38528273D01*
X11421487Y38626936D01*
X11625993Y39177405D01*
X12862616Y39177405D01*
X13111006Y38576257D01*
X13570537Y38115922D01*
X14171252Y37866484D01*
X14821695Y37865916D01*
X15422843Y38114306D01*
X15883178Y38573837D01*
X16132616Y39174552D01*
X16133184Y39824995D01*
X16060874Y40000000D01*
X18652560Y40000000D01*
X18652560Y38000000D01*
X18696838Y37764683D01*
X18835910Y37548559D01*
X19048110Y37403569D01*
X19300000Y37352560D01*
X20872638Y37352560D01*
X22262599Y35962599D01*
X22509161Y35797852D01*
X22800000Y35740000D01*
X24100000Y35740000D01*
X24390839Y35797852D01*
X24416741Y35815159D01*
X24834677Y35814794D01*
X25270372Y35994820D01*
X25604009Y36327875D01*
X25750157Y36679841D01*
X29119446Y36679841D01*
X29205852Y36423357D01*
X29779336Y36213542D01*
X30389460Y36239161D01*
X30834148Y36423357D01*
X30920554Y36679841D01*
X30020000Y37580395D01*
X29119446Y36679841D01*
X25750157Y36679841D01*
X25784794Y36763255D01*
X25785206Y37234677D01*
X25605180Y37670372D01*
X25275465Y38000664D01*
X28473542Y38000664D01*
X28499161Y37390540D01*
X28683357Y36945852D01*
X28939841Y36859446D01*
X29840395Y37760000D01*
X28939841Y38660554D01*
X28683357Y38574148D01*
X28473542Y38000664D01*
X25275465Y38000664D01*
X25272125Y38004009D01*
X24836745Y38184794D01*
X24365323Y38185206D01*
X24252697Y38138670D01*
X24474716Y38673352D01*
X24475284Y39323795D01*
X24226894Y39924943D01*
X23852493Y40300000D01*
X28454928Y40300000D01*
X28571773Y39712581D01*
X28904519Y39214591D01*
X29182919Y39028570D01*
X29119446Y38840159D01*
X30020000Y37939605D01*
X30920554Y38840159D01*
X30857081Y39028570D01*
X31135481Y39214591D01*
X31290000Y39445845D01*
X31444519Y39214591D01*
X31684074Y39054526D01*
X31259449Y38630643D01*
X31250797Y38609806D01*
X31100159Y38660554D01*
X30199605Y37760000D01*
X31100159Y36859446D01*
X31250327Y36910035D01*
X31257932Y36891629D01*
X31689357Y36459449D01*
X32253330Y36225267D01*
X32863991Y36224735D01*
X33428371Y36457932D01*
X33848833Y36877660D01*
X33984519Y36674591D01*
X34482509Y36341845D01*
X35069928Y36225000D01*
X35130072Y36225000D01*
X35717491Y36341845D01*
X36215481Y36674591D01*
X36548227Y37172581D01*
X36665072Y37760000D01*
X36548227Y38347419D01*
X36244141Y38802516D01*
X36451441Y38935910D01*
X36596431Y39148110D01*
X36647440Y39400000D01*
X36647440Y41200000D01*
X36603162Y41435317D01*
X36464090Y41651441D01*
X36251890Y41796431D01*
X36000000Y41847440D01*
X34200000Y41847440D01*
X33964683Y41803162D01*
X33748559Y41664090D01*
X33603569Y41451890D01*
X33600281Y41435656D01*
X33177491Y41718155D01*
X32590072Y41835000D01*
X32529928Y41835000D01*
X31942509Y41718155D01*
X31444519Y41385409D01*
X31290000Y41154155D01*
X31135481Y41385409D01*
X30637491Y41718155D01*
X30050072Y41835000D01*
X29989928Y41835000D01*
X29402509Y41718155D01*
X28904519Y41385409D01*
X28571773Y40887419D01*
X28454928Y40300000D01*
X23852493Y40300000D01*
X23767363Y40385278D01*
X23166648Y40634716D01*
X22516205Y40635284D01*
X21915057Y40386894D01*
X21848426Y40320379D01*
X21764090Y40451441D01*
X21551890Y40596431D01*
X21300000Y40647440D01*
X19300000Y40647440D01*
X19064683Y40603162D01*
X18848559Y40464090D01*
X18703569Y40251890D01*
X18652560Y40000000D01*
X16060874Y40000000D01*
X15884794Y40426143D01*
X15425263Y40886478D01*
X14824548Y41135916D01*
X14174105Y41136484D01*
X13572957Y40888094D01*
X13112622Y40428563D01*
X12863184Y39827848D01*
X12862616Y39177405D01*
X11625993Y39177405D01*
X11648008Y39236661D01*
X11623956Y39886660D01*
X11421487Y40375464D01*
X11154632Y40474127D01*
X10181705Y39501200D01*
X9822495Y39501200D01*
X8849568Y40474127D01*
X8582713Y40375464D01*
X8356192Y39765739D01*
X710000Y39765739D01*
X710000Y40653732D01*
X9029173Y40653732D01*
X10002100Y39680805D01*
X10975027Y40653732D01*
X10876364Y40920587D01*
X10266639Y41147108D01*
X9616640Y41123056D01*
X9127836Y40920587D01*
X9029173Y40653732D01*
X710000Y40653732D01*
X710000Y42290000D01*
X42290000Y42290000D01*
X42290000Y710000D01*
X42290000Y710000D01*
G37*
X42290000Y710000D02*
X710000Y710000D01*
X710000Y2376205D01*
X2004716Y2376205D01*
X2253106Y1775057D01*
X2712637Y1314722D01*
X3313352Y1065284D01*
X3963795Y1064716D01*
X4564943Y1313106D01*
X4910199Y1657759D01*
X5252637Y1314722D01*
X5853352Y1065284D01*
X6503795Y1064716D01*
X7104943Y1313106D01*
X7450199Y1657759D01*
X7792637Y1314722D01*
X8393352Y1065284D01*
X9043795Y1064716D01*
X9644943Y1313106D01*
X9990199Y1657759D01*
X10332637Y1314722D01*
X10933352Y1065284D01*
X11583795Y1064716D01*
X12184943Y1313106D01*
X12251574Y1379621D01*
X12335910Y1248559D01*
X12548110Y1103569D01*
X12800000Y1052560D01*
X14800000Y1052560D01*
X15035317Y1096838D01*
X15251441Y1235910D01*
X15396431Y1448110D01*
X15447440Y1700000D01*
X15447440Y2326695D01*
X17834674Y2326695D01*
X18121043Y1633628D01*
X18650839Y1102907D01*
X19343405Y815328D01*
X20093305Y814674D01*
X20786372Y1101043D01*
X21317093Y1630839D01*
X21604672Y2323405D01*
X21605326Y3073305D01*
X21318957Y3766372D01*
X21135650Y3950000D01*
X22902560Y3950000D01*
X22902560Y1450000D01*
X22946838Y1214683D01*
X23085910Y998559D01*
X23298110Y853569D01*
X23550000Y802560D01*
X26050000Y802560D01*
X26285317Y846838D01*
X26501441Y985910D01*
X26646431Y1198110D01*
X26697440Y1450000D01*
X26697440Y3950000D01*
X26653162Y4185317D01*
X26514090Y4401441D01*
X26301890Y4546431D01*
X26050000Y4597440D01*
X23550000Y4597440D01*
X23314683Y4553162D01*
X23098559Y4414090D01*
X22953569Y4201890D01*
X22902560Y3950000D01*
X21135650Y3950000D01*
X20789161Y4297093D01*
X20096595Y4584672D01*
X19346695Y4585326D01*
X18653628Y4298957D01*
X18122907Y3769161D01*
X17835328Y3076595D01*
X17834674Y2326695D01*
X15447440Y2326695D01*
X15447440Y3700000D01*
X15403162Y3935317D01*
X15264090Y4151441D01*
X15051890Y4296431D01*
X14800000Y4347440D01*
X12800000Y4347440D01*
X12564683Y4303162D01*
X12348559Y4164090D01*
X12251090Y4021439D01*
X12187363Y4085278D01*
X11586648Y4334716D01*
X10936205Y4335284D01*
X10335057Y4086894D01*
X9989801Y3742241D01*
X9647363Y4085278D01*
X9046648Y4334716D01*
X8396205Y4335284D01*
X7795057Y4086894D01*
X7449801Y3742241D01*
X7107363Y4085278D01*
X6506648Y4334716D01*
X5856205Y4335284D01*
X5255057Y4086894D01*
X4909801Y3742241D01*
X4567363Y4085278D01*
X3966648Y4334716D01*
X3316205Y4335284D01*
X2715057Y4086894D01*
X2254722Y3627363D01*
X2005284Y3026648D01*
X2004716Y2376205D01*
X710000Y2376205D01*
X710000Y8265323D01*
X26614794Y8265323D01*
X26794820Y7829628D01*
X27127875Y7495991D01*
X27563255Y7315206D01*
X27733364Y7315057D01*
X27734208Y7314213D01*
X27734210Y7314210D01*
X27926054Y7186025D01*
X28021326Y7122366D01*
X28360000Y7054999D01*
X28360005Y7055000D01*
X36696602Y7055000D01*
X36713106Y7015057D01*
X36779621Y6948426D01*
X36648559Y6864090D01*
X36503569Y6651890D01*
X36452560Y6400000D01*
X36452560Y4400000D01*
X36496838Y4164683D01*
X36635910Y3948559D01*
X36848110Y3803569D01*
X37100000Y3752560D01*
X39100000Y3752560D01*
X39335317Y3796838D01*
X39551441Y3935910D01*
X39696431Y4148110D01*
X39747440Y4400000D01*
X39747440Y6400000D01*
X39703162Y6635317D01*
X39564090Y6851441D01*
X39421439Y6948910D01*
X39485278Y7012637D01*
X39734716Y7613352D01*
X39735284Y8263795D01*
X39486894Y8864943D01*
X39142241Y9210199D01*
X39485278Y9552637D01*
X39734716Y10153352D01*
X39735284Y10803795D01*
X39486894Y11404943D01*
X39060022Y11832562D01*
X39072927Y11867468D01*
X38100000Y12840395D01*
X37127073Y11867468D01*
X37140164Y11832062D01*
X36714722Y11407363D01*
X36465284Y10806648D01*
X36464716Y10156205D01*
X36713106Y9555057D01*
X37057759Y9209801D01*
X36714722Y8867363D01*
X36697131Y8825000D01*
X28947885Y8825000D01*
X28805180Y9170372D01*
X28472125Y9504009D01*
X28036745Y9684794D01*
X27565323Y9685206D01*
X27129628Y9505180D01*
X26795991Y9172125D01*
X26615206Y8736745D01*
X26614794Y8265323D01*
X710000Y8265323D01*
X710000Y13284539D01*
X36454092Y13284539D01*
X36478144Y12634540D01*
X36680613Y12145736D01*
X36947468Y12047073D01*
X37920395Y13020000D01*
X38279605Y13020000D01*
X39252532Y12047073D01*
X39519387Y12145736D01*
X39745908Y12755461D01*
X39721856Y13405460D01*
X39519387Y13894264D01*
X39252532Y13992927D01*
X38279605Y13020000D01*
X37920395Y13020000D01*
X36947468Y13992927D01*
X36680613Y13894264D01*
X36454092Y13284539D01*
X710000Y13284539D01*
X710000Y14172532D01*
X37127073Y14172532D01*
X38100000Y13199605D01*
X39072927Y14172532D01*
X38974264Y14439387D01*
X38364539Y14665908D01*
X37714540Y14641856D01*
X37225736Y14439387D01*
X37127073Y14172532D01*
X710000Y14172532D01*
X710000Y17065323D01*
X23214794Y17065323D01*
X23394820Y16629628D01*
X23727875Y16295991D01*
X24163255Y16115206D01*
X24634677Y16114794D01*
X25070372Y16294820D01*
X25404009Y16627875D01*
X25420449Y16667468D01*
X37027073Y16667468D01*
X37125736Y16400613D01*
X37735461Y16174092D01*
X38385460Y16198144D01*
X38874264Y16400613D01*
X38972927Y16667468D01*
X38000000Y17640395D01*
X37027073Y16667468D01*
X25420449Y16667468D01*
X25584794Y17063255D01*
X25584885Y17167468D01*
X29327073Y17167468D01*
X29425736Y16900613D01*
X30035461Y16674092D01*
X30685460Y16698144D01*
X31174264Y16900613D01*
X31272927Y17167468D01*
X30300000Y18140395D01*
X29327073Y17167468D01*
X25584885Y17167468D01*
X25584943Y17233363D01*
X26936118Y18584539D01*
X28654092Y18584539D01*
X28678144Y17934540D01*
X28880613Y17445736D01*
X29147468Y17347073D01*
X30120395Y18320000D01*
X30479605Y18320000D01*
X31452532Y17347073D01*
X31719387Y17445736D01*
X31945908Y18055461D01*
X31944833Y18084539D01*
X36354092Y18084539D01*
X36378144Y17434540D01*
X36580613Y16945736D01*
X36847468Y16847073D01*
X37820395Y17820000D01*
X38179605Y17820000D01*
X39152532Y16847073D01*
X39419387Y16945736D01*
X39645908Y17555461D01*
X39621856Y18205460D01*
X39419387Y18694264D01*
X39152532Y18792927D01*
X38179605Y17820000D01*
X37820395Y17820000D01*
X36847468Y18792927D01*
X36580613Y18694264D01*
X36354092Y18084539D01*
X31944833Y18084539D01*
X31921856Y18705460D01*
X31719387Y19194264D01*
X31452532Y19292927D01*
X30479605Y18320000D01*
X30120395Y18320000D01*
X29147468Y19292927D01*
X28880613Y19194264D01*
X28654092Y18584539D01*
X26936118Y18584539D01*
X27825787Y19474208D01*
X27825790Y19474210D01*
X28017633Y19761325D01*
X28028810Y19817516D01*
X28043638Y19892058D01*
X28671461Y20519881D01*
X28913106Y19935057D01*
X29339978Y19507438D01*
X29327073Y19472532D01*
X30300000Y18499605D01*
X31272927Y19472532D01*
X31259836Y19507938D01*
X31685278Y19932637D01*
X31934716Y20533352D01*
X31935284Y21183795D01*
X31686894Y21784943D01*
X31620379Y21851574D01*
X31751441Y21935910D01*
X31896431Y22148110D01*
X31947440Y22400000D01*
X31947440Y23900000D01*
X36352560Y23900000D01*
X36352560Y21900000D01*
X36396838Y21664683D01*
X36535910Y21448559D01*
X36678561Y21351090D01*
X36614722Y21287363D01*
X36365284Y20686648D01*
X36364716Y20036205D01*
X36613106Y19435057D01*
X37039978Y19007438D01*
X37027073Y18972532D01*
X38000000Y17999605D01*
X38972927Y18972532D01*
X38959836Y19007938D01*
X39385278Y19432637D01*
X39634716Y20033352D01*
X39635284Y20683795D01*
X39386894Y21284943D01*
X39320379Y21351574D01*
X39451441Y21435910D01*
X39596431Y21648110D01*
X39647440Y21900000D01*
X39647440Y23900000D01*
X39603162Y24135317D01*
X39464090Y24351441D01*
X39251890Y24496431D01*
X39000000Y24547440D01*
X37000000Y24547440D01*
X36764683Y24503162D01*
X36548559Y24364090D01*
X36403569Y24151890D01*
X36352560Y23900000D01*
X31947440Y23900000D01*
X31947440Y24400000D01*
X31903162Y24635317D01*
X31764090Y24851441D01*
X31551890Y24996431D01*
X31300000Y25047440D01*
X29300000Y25047440D01*
X29064683Y25003162D01*
X28848559Y24864090D01*
X28703569Y24651890D01*
X28652560Y24400000D01*
X28652560Y23843727D01*
X28582367Y23738675D01*
X28515000Y23400000D01*
X28582367Y23061325D01*
X28633388Y22984967D01*
X26574210Y20925790D01*
X26382367Y20638675D01*
X26382367Y20638674D01*
X26356362Y20507941D01*
X24333479Y18485059D01*
X24165323Y18485206D01*
X23729628Y18305180D01*
X23395991Y17972125D01*
X23215206Y17536745D01*
X23214794Y17065323D01*
X710000Y17065323D01*
X710000Y19565323D01*
X22714794Y19565323D01*
X22894820Y19129628D01*
X23227875Y18795991D01*
X23663255Y18615206D01*
X24134677Y18614794D01*
X24570372Y18794820D01*
X24904009Y19127875D01*
X25084794Y19563255D01*
X25085097Y19910295D01*
X26237401Y21062599D01*
X26402148Y21309160D01*
X26429876Y21448559D01*
X26460000Y21600000D01*
X26460000Y26467468D01*
X29327073Y26467468D01*
X29425736Y26200613D01*
X30035461Y25974092D01*
X30685460Y25998144D01*
X31174264Y26200613D01*
X31272927Y26467468D01*
X31172927Y26567468D01*
X37127073Y26567468D01*
X37225736Y26300613D01*
X37835461Y26074092D01*
X38485460Y26098144D01*
X38974264Y26300613D01*
X39072927Y26567468D01*
X38100000Y27540395D01*
X37127073Y26567468D01*
X31172927Y26567468D01*
X30300000Y27440395D01*
X29327073Y26467468D01*
X26460000Y26467468D01*
X26460000Y27684292D01*
X26660597Y27884539D01*
X28654092Y27884539D01*
X28678144Y27234540D01*
X28880613Y26745736D01*
X29147468Y26647073D01*
X30120395Y27620000D01*
X30479605Y27620000D01*
X31452532Y26647073D01*
X31719387Y26745736D01*
X31945908Y27355461D01*
X31922631Y27984539D01*
X36454092Y27984539D01*
X36478144Y27334540D01*
X36680613Y26845736D01*
X36947468Y26747073D01*
X37920395Y27720000D01*
X38279605Y27720000D01*
X39252532Y26747073D01*
X39519387Y26845736D01*
X39745908Y27455461D01*
X39721856Y28105460D01*
X39519387Y28594264D01*
X39252532Y28692927D01*
X38279605Y27720000D01*
X37920395Y27720000D01*
X36947468Y28692927D01*
X36680613Y28594264D01*
X36454092Y27984539D01*
X31922631Y27984539D01*
X31921856Y28005460D01*
X31719387Y28494264D01*
X31452532Y28592927D01*
X30479605Y27620000D01*
X30120395Y27620000D01*
X29147468Y28592927D01*
X28880613Y28494264D01*
X28654092Y27884539D01*
X26660597Y27884539D01*
X26704009Y27927875D01*
X26884794Y28363255D01*
X26885206Y28834677D01*
X26705180Y29270372D01*
X26372125Y29604009D01*
X25936745Y29784794D01*
X25465323Y29785206D01*
X25029628Y29605180D01*
X24695991Y29272125D01*
X24515206Y28836745D01*
X24514794Y28365323D01*
X24694820Y27929628D01*
X24940000Y27684020D01*
X24940000Y21914802D01*
X24010103Y20984905D01*
X23665323Y20985206D01*
X23229628Y20805180D01*
X22895991Y20472125D01*
X22715206Y20036745D01*
X22714794Y19565323D01*
X710000Y19565323D01*
X710000Y31922468D01*
X9029173Y31922468D01*
X9127836Y31655613D01*
X9737561Y31429092D01*
X10387560Y31453144D01*
X10876364Y31655613D01*
X10975027Y31922468D01*
X10002100Y32895395D01*
X9029173Y31922468D01*
X710000Y31922468D01*
X710000Y33339539D01*
X8356192Y33339539D01*
X8380244Y32689540D01*
X8582713Y32200736D01*
X8849568Y32102073D01*
X9822495Y33075000D01*
X10181705Y33075000D01*
X11154632Y32102073D01*
X11421487Y32200736D01*
X11597684Y32675005D01*
X12862616Y32675005D01*
X13111006Y32073857D01*
X13570537Y31613522D01*
X14171252Y31364084D01*
X14821695Y31363516D01*
X15422843Y31611906D01*
X15776878Y31965323D01*
X19714794Y31965323D01*
X19894820Y31529628D01*
X20227875Y31195991D01*
X20663255Y31015206D01*
X21134677Y31014794D01*
X21570372Y31194820D01*
X21904009Y31527875D01*
X22075138Y31940000D01*
X28652560Y31940000D01*
X28652560Y31700000D01*
X28696838Y31464683D01*
X28835910Y31248559D01*
X28978561Y31151090D01*
X28914722Y31087363D01*
X28665284Y30486648D01*
X28664716Y29836205D01*
X28913106Y29235057D01*
X29339978Y28807438D01*
X29327073Y28772532D01*
X30300000Y27799605D01*
X31272927Y28772532D01*
X31259836Y28807938D01*
X31685278Y29232637D01*
X31934716Y29833352D01*
X31935284Y30483795D01*
X31686894Y31084943D01*
X31620379Y31151574D01*
X31751441Y31235910D01*
X31896431Y31448110D01*
X31947440Y31700000D01*
X31947440Y33700000D01*
X31928624Y33800000D01*
X36452560Y33800000D01*
X36452560Y31800000D01*
X36496838Y31564683D01*
X36635910Y31348559D01*
X36778561Y31251090D01*
X36714722Y31187363D01*
X36465284Y30586648D01*
X36464716Y29936205D01*
X36713106Y29335057D01*
X37139978Y28907438D01*
X37127073Y28872532D01*
X38100000Y27899605D01*
X39072927Y28872532D01*
X39059836Y28907938D01*
X39485278Y29332637D01*
X39734716Y29933352D01*
X39735284Y30583795D01*
X39486894Y31184943D01*
X39420379Y31251574D01*
X39551441Y31335910D01*
X39696431Y31548110D01*
X39747440Y31800000D01*
X39747440Y33800000D01*
X39703162Y34035317D01*
X39564090Y34251441D01*
X39351890Y34396431D01*
X39100000Y34447440D01*
X37100000Y34447440D01*
X36864683Y34403162D01*
X36648559Y34264090D01*
X36503569Y34051890D01*
X36452560Y33800000D01*
X31928624Y33800000D01*
X31903162Y33935317D01*
X31764090Y34151441D01*
X31551890Y34296431D01*
X31300000Y34347440D01*
X29300000Y34347440D01*
X29064683Y34303162D01*
X28848559Y34164090D01*
X28703569Y33951890D01*
X28652560Y33700000D01*
X28652560Y33460000D01*
X21400000Y33460000D01*
X21109161Y33402148D01*
X21083259Y33384841D01*
X20665323Y33385206D01*
X20229628Y33205180D01*
X19895991Y32872125D01*
X19715206Y32436745D01*
X19714794Y31965323D01*
X15776878Y31965323D01*
X15883178Y32071437D01*
X16132616Y32672152D01*
X16133184Y33322595D01*
X15884794Y33923743D01*
X15425263Y34384078D01*
X14824548Y34633516D01*
X14174105Y34634084D01*
X13572957Y34385694D01*
X13112622Y33926163D01*
X12863184Y33325448D01*
X12862616Y32675005D01*
X11597684Y32675005D01*
X11648008Y32810461D01*
X11623956Y33460460D01*
X11421487Y33949264D01*
X11154632Y34047927D01*
X10181705Y33075000D01*
X9822495Y33075000D01*
X8849568Y34047927D01*
X8582713Y33949264D01*
X8356192Y33339539D01*
X710000Y33339539D01*
X710000Y34227532D01*
X9029173Y34227532D01*
X10002100Y33254605D01*
X10975027Y34227532D01*
X10876364Y34494387D01*
X10266639Y34720908D01*
X9616640Y34696856D01*
X9127836Y34494387D01*
X9029173Y34227532D01*
X710000Y34227532D01*
X710000Y38348668D01*
X9029173Y38348668D01*
X9127836Y38081813D01*
X9737561Y37855292D01*
X10387560Y37879344D01*
X10876364Y38081813D01*
X10975027Y38348668D01*
X10002100Y39321595D01*
X9029173Y38348668D01*
X710000Y38348668D01*
X710000Y39765739D01*
X8356192Y39765739D01*
X8380244Y39115740D01*
X8582713Y38626936D01*
X8849568Y38528273D01*
X9822495Y39501200D01*
X10181705Y39501200D01*
X11154632Y38528273D01*
X11421487Y38626936D01*
X11625993Y39177405D01*
X12862616Y39177405D01*
X13111006Y38576257D01*
X13570537Y38115922D01*
X14171252Y37866484D01*
X14821695Y37865916D01*
X15422843Y38114306D01*
X15883178Y38573837D01*
X16132616Y39174552D01*
X16133184Y39824995D01*
X16060874Y40000000D01*
X18652560Y40000000D01*
X18652560Y38000000D01*
X18696838Y37764683D01*
X18835910Y37548559D01*
X19048110Y37403569D01*
X19300000Y37352560D01*
X20872638Y37352560D01*
X22262599Y35962599D01*
X22509161Y35797852D01*
X22800000Y35740000D01*
X24100000Y35740000D01*
X24390839Y35797852D01*
X24416741Y35815159D01*
X24834677Y35814794D01*
X25270372Y35994820D01*
X25604009Y36327875D01*
X25750157Y36679841D01*
X29119446Y36679841D01*
X29205852Y36423357D01*
X29779336Y36213542D01*
X30389460Y36239161D01*
X30834148Y36423357D01*
X30920554Y36679841D01*
X30020000Y37580395D01*
X29119446Y36679841D01*
X25750157Y36679841D01*
X25784794Y36763255D01*
X25785206Y37234677D01*
X25605180Y37670372D01*
X25275465Y38000664D01*
X28473542Y38000664D01*
X28499161Y37390540D01*
X28683357Y36945852D01*
X28939841Y36859446D01*
X29840395Y37760000D01*
X28939841Y38660554D01*
X28683357Y38574148D01*
X28473542Y38000664D01*
X25275465Y38000664D01*
X25272125Y38004009D01*
X24836745Y38184794D01*
X24365323Y38185206D01*
X24252697Y38138670D01*
X24474716Y38673352D01*
X24475284Y39323795D01*
X24226894Y39924943D01*
X23852493Y40300000D01*
X28454928Y40300000D01*
X28571773Y39712581D01*
X28904519Y39214591D01*
X29182919Y39028570D01*
X29119446Y38840159D01*
X30020000Y37939605D01*
X30920554Y38840159D01*
X30857081Y39028570D01*
X31135481Y39214591D01*
X31290000Y39445845D01*
X31444519Y39214591D01*
X31684074Y39054526D01*
X31259449Y38630643D01*
X31250797Y38609806D01*
X31100159Y38660554D01*
X30199605Y37760000D01*
X31100159Y36859446D01*
X31250327Y36910035D01*
X31257932Y36891629D01*
X31689357Y36459449D01*
X32253330Y36225267D01*
X32863991Y36224735D01*
X33428371Y36457932D01*
X33848833Y36877660D01*
X33984519Y36674591D01*
X34482509Y36341845D01*
X35069928Y36225000D01*
X35130072Y36225000D01*
X35717491Y36341845D01*
X36215481Y36674591D01*
X36548227Y37172581D01*
X36665072Y37760000D01*
X36548227Y38347419D01*
X36244141Y38802516D01*
X36451441Y38935910D01*
X36596431Y39148110D01*
X36647440Y39400000D01*
X36647440Y41200000D01*
X36603162Y41435317D01*
X36464090Y41651441D01*
X36251890Y41796431D01*
X36000000Y41847440D01*
X34200000Y41847440D01*
X33964683Y41803162D01*
X33748559Y41664090D01*
X33603569Y41451890D01*
X33600281Y41435656D01*
X33177491Y41718155D01*
X32590072Y41835000D01*
X32529928Y41835000D01*
X31942509Y41718155D01*
X31444519Y41385409D01*
X31290000Y41154155D01*
X31135481Y41385409D01*
X30637491Y41718155D01*
X30050072Y41835000D01*
X29989928Y41835000D01*
X29402509Y41718155D01*
X28904519Y41385409D01*
X28571773Y40887419D01*
X28454928Y40300000D01*
X23852493Y40300000D01*
X23767363Y40385278D01*
X23166648Y40634716D01*
X22516205Y40635284D01*
X21915057Y40386894D01*
X21848426Y40320379D01*
X21764090Y40451441D01*
X21551890Y40596431D01*
X21300000Y40647440D01*
X19300000Y40647440D01*
X19064683Y40603162D01*
X18848559Y40464090D01*
X18703569Y40251890D01*
X18652560Y40000000D01*
X16060874Y40000000D01*
X15884794Y40426143D01*
X15425263Y40886478D01*
X14824548Y41135916D01*
X14174105Y41136484D01*
X13572957Y40888094D01*
X13112622Y40428563D01*
X12863184Y39827848D01*
X12862616Y39177405D01*
X11625993Y39177405D01*
X11648008Y39236661D01*
X11623956Y39886660D01*
X11421487Y40375464D01*
X11154632Y40474127D01*
X10181705Y39501200D01*
X9822495Y39501200D01*
X8849568Y40474127D01*
X8582713Y40375464D01*
X8356192Y39765739D01*
X710000Y39765739D01*
X710000Y40653732D01*
X9029173Y40653732D01*
X10002100Y39680805D01*
X10975027Y40653732D01*
X10876364Y40920587D01*
X10266639Y41147108D01*
X9616640Y41123056D01*
X9127836Y40920587D01*
X9029173Y40653732D01*
X710000Y40653732D01*
X710000Y42290000D01*
X42290000Y42290000D01*
X42290000Y710000D01*
M02*
