G04 #@! TF.FileFunction,Other,Fab,Bot*
%FSLAX46Y46*%
G04 Gerber Fmt 4.6, Leading zero omitted, Abs format (unit mm)*
G04 Created by KiCad (PCBNEW 4.0.4+dfsg1-stable) date Sun Feb  5 16:49:06 2017*
%MOMM*%
%LPD*%
G01*
G04 APERTURE LIST*
%ADD10C,0.100000*%
%ADD11C,0.150000*%
G04 APERTURE END LIST*
D10*
D11*
X18100000Y22350000D02*
G75*
G03X18100000Y22350000I-250000J0D01*
G01*
X17150000Y21750000D02*
X17150000Y30450000D01*
X21050000Y21750000D02*
X17150000Y21750000D01*
X21050000Y30450000D02*
X21050000Y21750000D01*
X17150000Y30450000D02*
X21050000Y30450000D01*
X19166666Y18797619D02*
X19738095Y18797619D01*
X19452381Y18797619D02*
X19452381Y19797619D01*
X19547619Y19654762D01*
X19642857Y19559524D01*
X19738095Y19511905D01*
X18309523Y19464286D02*
X18309523Y18797619D01*
X18738095Y19464286D02*
X18738095Y18940476D01*
X18690476Y18845238D01*
X18595238Y18797619D01*
X18452380Y18797619D01*
X18357142Y18845238D01*
X18309523Y18892857D01*
X20369047Y20297619D02*
X20940476Y20297619D01*
X20654762Y20297619D02*
X20654762Y21297619D01*
X20750000Y21154762D01*
X20845238Y21059524D01*
X20940476Y21011905D01*
X19750000Y21297619D02*
X19654761Y21297619D01*
X19559523Y21250000D01*
X19511904Y21202381D01*
X19464285Y21107143D01*
X19416666Y20916667D01*
X19416666Y20678571D01*
X19464285Y20488095D01*
X19511904Y20392857D01*
X19559523Y20345238D01*
X19654761Y20297619D01*
X19750000Y20297619D01*
X19845238Y20345238D01*
X19892857Y20392857D01*
X19940476Y20488095D01*
X19988095Y20678571D01*
X19988095Y20916667D01*
X19940476Y21107143D01*
X19892857Y21202381D01*
X19845238Y21250000D01*
X19750000Y21297619D01*
X18797619Y21297619D02*
X18702380Y21297619D01*
X18607142Y21250000D01*
X18559523Y21202381D01*
X18511904Y21107143D01*
X18464285Y20916667D01*
X18464285Y20678571D01*
X18511904Y20488095D01*
X18559523Y20392857D01*
X18607142Y20345238D01*
X18702380Y20297619D01*
X18797619Y20297619D01*
X18892857Y20345238D01*
X18940476Y20392857D01*
X18988095Y20488095D01*
X19035714Y20678571D01*
X19035714Y20916667D01*
X18988095Y21107143D01*
X18940476Y21202381D01*
X18892857Y21250000D01*
X18797619Y21297619D01*
X18035714Y20964286D02*
X18035714Y20297619D01*
X18035714Y20869048D02*
X17988095Y20916667D01*
X17892857Y20964286D01*
X17749999Y20964286D01*
X17654761Y20916667D01*
X17607142Y20821429D01*
X17607142Y20297619D01*
X11428571Y38321429D02*
X11428571Y37988095D01*
X11952381Y37845238D02*
X11952381Y38321429D01*
X10952381Y38321429D01*
X10952381Y37845238D01*
X11904762Y37464286D02*
X11952381Y37321429D01*
X11952381Y37083333D01*
X11904762Y36988095D01*
X11857143Y36940476D01*
X11761905Y36892857D01*
X11666667Y36892857D01*
X11571429Y36940476D01*
X11523810Y36988095D01*
X11476190Y37083333D01*
X11428571Y37273810D01*
X11380952Y37369048D01*
X11333333Y37416667D01*
X11238095Y37464286D01*
X11142857Y37464286D01*
X11047619Y37416667D01*
X11000000Y37369048D01*
X10952381Y37273810D01*
X10952381Y37035714D01*
X11000000Y36892857D01*
X11952381Y36464286D02*
X10952381Y36464286D01*
X10952381Y36226191D01*
X11000000Y36083333D01*
X11095238Y35988095D01*
X11190476Y35940476D01*
X11380952Y35892857D01*
X11523810Y35892857D01*
X11714286Y35940476D01*
X11809524Y35988095D01*
X11904762Y36083333D01*
X11952381Y36226191D01*
X11952381Y36464286D01*
X12047619Y35702381D02*
X12047619Y34940476D01*
X11952381Y34178571D02*
X11952381Y34750000D01*
X11952381Y34464286D02*
X10952381Y34464286D01*
X11095238Y34559524D01*
X11190476Y34654762D01*
X11238095Y34750000D01*
X11857143Y33178571D02*
X11904762Y33226190D01*
X11952381Y33369047D01*
X11952381Y33464285D01*
X11904762Y33607143D01*
X11809524Y33702381D01*
X11714286Y33750000D01*
X11523810Y33797619D01*
X11380952Y33797619D01*
X11190476Y33750000D01*
X11095238Y33702381D01*
X11000000Y33607143D01*
X10952381Y33464285D01*
X10952381Y33369047D01*
X11000000Y33226190D01*
X11047619Y33178571D01*
X11952381Y32750000D02*
X10952381Y32750000D01*
X11428571Y32750000D02*
X11428571Y32178571D01*
X11952381Y32178571D02*
X10952381Y32178571D01*
X33202381Y15821429D02*
X33202381Y16297620D01*
X32202381Y16297620D01*
X33154762Y15107143D02*
X33202381Y15202381D01*
X33202381Y15392858D01*
X33154762Y15488096D01*
X33059524Y15535715D01*
X32678571Y15535715D01*
X32583333Y15488096D01*
X32535714Y15392858D01*
X32535714Y15202381D01*
X32583333Y15107143D01*
X32678571Y15059524D01*
X32773810Y15059524D01*
X32869048Y15535715D01*
X33202381Y14202381D02*
X32202381Y14202381D01*
X33154762Y14202381D02*
X33202381Y14297619D01*
X33202381Y14488096D01*
X33154762Y14583334D01*
X33107143Y14630953D01*
X33011905Y14678572D01*
X32726190Y14678572D01*
X32630952Y14630953D01*
X32583333Y14583334D01*
X32535714Y14488096D01*
X32535714Y14297619D01*
X32583333Y14202381D01*
X33297619Y13964286D02*
X33297619Y13202381D01*
X33154762Y13011905D02*
X33202381Y12869048D01*
X33202381Y12630952D01*
X33154762Y12535714D01*
X33107143Y12488095D01*
X33011905Y12440476D01*
X32916667Y12440476D01*
X32821429Y12488095D01*
X32773810Y12535714D01*
X32726190Y12630952D01*
X32678571Y12821429D01*
X32630952Y12916667D01*
X32583333Y12964286D01*
X32488095Y13011905D01*
X32392857Y13011905D01*
X32297619Y12964286D01*
X32250000Y12916667D01*
X32202381Y12821429D01*
X32202381Y12583333D01*
X32250000Y12440476D01*
X33202381Y12011905D02*
X32535714Y12011905D01*
X32630952Y12011905D02*
X32583333Y11964286D01*
X32535714Y11869048D01*
X32535714Y11726190D01*
X32583333Y11630952D01*
X32678571Y11583333D01*
X33202381Y11583333D01*
X32678571Y11583333D02*
X32583333Y11535714D01*
X32535714Y11440476D01*
X32535714Y11297619D01*
X32583333Y11202381D01*
X32678571Y11154762D01*
X33202381Y11154762D01*
X33202381Y10250000D02*
X32678571Y10250000D01*
X32583333Y10297619D01*
X32535714Y10392857D01*
X32535714Y10583334D01*
X32583333Y10678572D01*
X33154762Y10250000D02*
X33202381Y10345238D01*
X33202381Y10583334D01*
X33154762Y10678572D01*
X33059524Y10726191D01*
X32964286Y10726191D01*
X32869048Y10678572D01*
X32821429Y10583334D01*
X32821429Y10345238D01*
X32773810Y10250000D01*
X33202381Y9630953D02*
X33154762Y9726191D01*
X33059524Y9773810D01*
X32202381Y9773810D01*
X33202381Y9107143D02*
X33154762Y9202381D01*
X33059524Y9250000D01*
X32202381Y9250000D01*
X31952381Y15571429D02*
X31952381Y16047620D01*
X30952381Y16047620D01*
X31904762Y14857143D02*
X31952381Y14952381D01*
X31952381Y15142858D01*
X31904762Y15238096D01*
X31809524Y15285715D01*
X31428571Y15285715D01*
X31333333Y15238096D01*
X31285714Y15142858D01*
X31285714Y14952381D01*
X31333333Y14857143D01*
X31428571Y14809524D01*
X31523810Y14809524D01*
X31619048Y15285715D01*
X31952381Y13952381D02*
X30952381Y13952381D01*
X31904762Y13952381D02*
X31952381Y14047619D01*
X31952381Y14238096D01*
X31904762Y14333334D01*
X31857143Y14380953D01*
X31761905Y14428572D01*
X31476190Y14428572D01*
X31380952Y14380953D01*
X31333333Y14333334D01*
X31285714Y14238096D01*
X31285714Y14047619D01*
X31333333Y13952381D01*
X32047619Y13714286D02*
X32047619Y12952381D01*
X31904762Y12761905D02*
X31952381Y12619048D01*
X31952381Y12380952D01*
X31904762Y12285714D01*
X31857143Y12238095D01*
X31761905Y12190476D01*
X31666667Y12190476D01*
X31571429Y12238095D01*
X31523810Y12285714D01*
X31476190Y12380952D01*
X31428571Y12571429D01*
X31380952Y12666667D01*
X31333333Y12714286D01*
X31238095Y12761905D01*
X31142857Y12761905D01*
X31047619Y12714286D01*
X31000000Y12666667D01*
X30952381Y12571429D01*
X30952381Y12333333D01*
X31000000Y12190476D01*
X31952381Y11761905D02*
X31285714Y11761905D01*
X31380952Y11761905D02*
X31333333Y11714286D01*
X31285714Y11619048D01*
X31285714Y11476190D01*
X31333333Y11380952D01*
X31428571Y11333333D01*
X31952381Y11333333D01*
X31428571Y11333333D02*
X31333333Y11285714D01*
X31285714Y11190476D01*
X31285714Y11047619D01*
X31333333Y10952381D01*
X31428571Y10904762D01*
X31952381Y10904762D01*
X31952381Y10000000D02*
X31428571Y10000000D01*
X31333333Y10047619D01*
X31285714Y10142857D01*
X31285714Y10333334D01*
X31333333Y10428572D01*
X31904762Y10000000D02*
X31952381Y10095238D01*
X31952381Y10333334D01*
X31904762Y10428572D01*
X31809524Y10476191D01*
X31714286Y10476191D01*
X31619048Y10428572D01*
X31571429Y10333334D01*
X31571429Y10095238D01*
X31523810Y10000000D01*
X31952381Y9380953D02*
X31904762Y9476191D01*
X31809524Y9523810D01*
X30952381Y9523810D01*
X31952381Y8857143D02*
X31904762Y8952381D01*
X31809524Y9000000D01*
X30952381Y9000000D01*
X30202381Y15821429D02*
X30202381Y16297620D01*
X29202381Y16297620D01*
X30154762Y15107143D02*
X30202381Y15202381D01*
X30202381Y15392858D01*
X30154762Y15488096D01*
X30059524Y15535715D01*
X29678571Y15535715D01*
X29583333Y15488096D01*
X29535714Y15392858D01*
X29535714Y15202381D01*
X29583333Y15107143D01*
X29678571Y15059524D01*
X29773810Y15059524D01*
X29869048Y15535715D01*
X30202381Y14202381D02*
X29202381Y14202381D01*
X30154762Y14202381D02*
X30202381Y14297619D01*
X30202381Y14488096D01*
X30154762Y14583334D01*
X30107143Y14630953D01*
X30011905Y14678572D01*
X29726190Y14678572D01*
X29630952Y14630953D01*
X29583333Y14583334D01*
X29535714Y14488096D01*
X29535714Y14297619D01*
X29583333Y14202381D01*
X30297619Y13964286D02*
X30297619Y13202381D01*
X30154762Y13011905D02*
X30202381Y12869048D01*
X30202381Y12630952D01*
X30154762Y12535714D01*
X30107143Y12488095D01*
X30011905Y12440476D01*
X29916667Y12440476D01*
X29821429Y12488095D01*
X29773810Y12535714D01*
X29726190Y12630952D01*
X29678571Y12821429D01*
X29630952Y12916667D01*
X29583333Y12964286D01*
X29488095Y13011905D01*
X29392857Y13011905D01*
X29297619Y12964286D01*
X29250000Y12916667D01*
X29202381Y12821429D01*
X29202381Y12583333D01*
X29250000Y12440476D01*
X30202381Y12011905D02*
X29535714Y12011905D01*
X29630952Y12011905D02*
X29583333Y11964286D01*
X29535714Y11869048D01*
X29535714Y11726190D01*
X29583333Y11630952D01*
X29678571Y11583333D01*
X30202381Y11583333D01*
X29678571Y11583333D02*
X29583333Y11535714D01*
X29535714Y11440476D01*
X29535714Y11297619D01*
X29583333Y11202381D01*
X29678571Y11154762D01*
X30202381Y11154762D01*
X30202381Y10250000D02*
X29678571Y10250000D01*
X29583333Y10297619D01*
X29535714Y10392857D01*
X29535714Y10583334D01*
X29583333Y10678572D01*
X30154762Y10250000D02*
X30202381Y10345238D01*
X30202381Y10583334D01*
X30154762Y10678572D01*
X30059524Y10726191D01*
X29964286Y10726191D01*
X29869048Y10678572D01*
X29821429Y10583334D01*
X29821429Y10345238D01*
X29773810Y10250000D01*
X30202381Y9630953D02*
X30154762Y9726191D01*
X30059524Y9773810D01*
X29202381Y9773810D01*
X30202381Y9107143D02*
X30154762Y9202381D01*
X30059524Y9250000D01*
X29202381Y9250000D01*
X25392857Y26833333D02*
X24916666Y26833333D01*
X25488095Y26547619D02*
X25154762Y27547619D01*
X24821428Y26547619D01*
X24630952Y27547619D02*
X24059523Y27547619D01*
X24345238Y26547619D02*
X24345238Y27547619D01*
X23869047Y27547619D02*
X23297618Y27547619D01*
X23583333Y26547619D02*
X23583333Y27547619D01*
X22964285Y26547619D02*
X22964285Y27547619D01*
X22488095Y26547619D02*
X22488095Y27547619D01*
X21916666Y26547619D01*
X21916666Y27547619D01*
X21250000Y27023810D02*
X21250000Y26547619D01*
X21583333Y27547619D02*
X21250000Y27023810D01*
X20916666Y27547619D01*
X20630952Y27452381D02*
X20583333Y27500000D01*
X20488095Y27547619D01*
X20249999Y27547619D01*
X20154761Y27500000D01*
X20107142Y27452381D01*
X20059523Y27357143D01*
X20059523Y27261905D01*
X20107142Y27119048D01*
X20678571Y26547619D01*
X20059523Y26547619D01*
X19202380Y27214286D02*
X19202380Y26547619D01*
X19440476Y27595238D02*
X19678571Y26880952D01*
X19059523Y26880952D01*
X18726190Y26833333D02*
X18249999Y26833333D01*
X18821428Y26547619D02*
X18488095Y27547619D01*
X18154761Y26547619D01*
X17821428Y26928571D02*
X17059523Y26928571D01*
X16630952Y26595238D02*
X16488095Y26547619D01*
X16249999Y26547619D01*
X16154761Y26595238D01*
X16107142Y26642857D01*
X16059523Y26738095D01*
X16059523Y26833333D01*
X16107142Y26928571D01*
X16154761Y26976190D01*
X16249999Y27023810D01*
X16440476Y27071429D01*
X16535714Y27119048D01*
X16583333Y27166667D01*
X16630952Y27261905D01*
X16630952Y27357143D01*
X16583333Y27452381D01*
X16535714Y27500000D01*
X16440476Y27547619D01*
X16202380Y27547619D01*
X16059523Y27500000D01*
X15678571Y26595238D02*
X15535714Y26547619D01*
X15297618Y26547619D01*
X15202380Y26595238D01*
X15154761Y26642857D01*
X15107142Y26738095D01*
X15107142Y26833333D01*
X15154761Y26928571D01*
X15202380Y26976190D01*
X15297618Y27023810D01*
X15488095Y27071429D01*
X15583333Y27119048D01*
X15630952Y27166667D01*
X15678571Y27261905D01*
X15678571Y27357143D01*
X15630952Y27452381D01*
X15583333Y27500000D01*
X15488095Y27547619D01*
X15249999Y27547619D01*
X15107142Y27500000D01*
X15952381Y10702381D02*
X16047619Y10750000D01*
X16142857Y10845238D01*
X16285714Y10988095D01*
X16380953Y11035714D01*
X16476191Y11035714D01*
X16428572Y10797619D02*
X16523810Y10845238D01*
X16619048Y10940476D01*
X16666667Y11130952D01*
X16666667Y11464286D01*
X16619048Y11654762D01*
X16523810Y11750000D01*
X16428572Y11797619D01*
X16238095Y11797619D01*
X16142857Y11750000D01*
X16047619Y11654762D01*
X16000000Y11464286D01*
X16000000Y11130952D01*
X16047619Y10940476D01*
X16142857Y10845238D01*
X16238095Y10797619D01*
X16428572Y10797619D01*
X15809524Y10702381D02*
X15047619Y10702381D01*
X14809524Y10797619D02*
X14809524Y11797619D01*
X14238095Y10797619D01*
X14238095Y11797619D01*
X13761905Y10797619D02*
X13761905Y11797619D01*
X13428571Y11083333D01*
X13095238Y11797619D01*
X13095238Y10797619D01*
X12428572Y11797619D02*
X12238095Y11797619D01*
X12142857Y11750000D01*
X12047619Y11654762D01*
X12000000Y11464286D01*
X12000000Y11130952D01*
X12047619Y10940476D01*
X12142857Y10845238D01*
X12238095Y10797619D01*
X12428572Y10797619D01*
X12523810Y10845238D01*
X12619048Y10940476D01*
X12666667Y11130952D01*
X12666667Y11464286D01*
X12619048Y11654762D01*
X12523810Y11750000D01*
X12428572Y11797619D01*
X11619048Y10845238D02*
X11476191Y10797619D01*
X11238095Y10797619D01*
X11142857Y10845238D01*
X11095238Y10892857D01*
X11047619Y10988095D01*
X11047619Y11083333D01*
X11095238Y11178571D01*
X11142857Y11226190D01*
X11238095Y11273810D01*
X11428572Y11321429D01*
X11523810Y11369048D01*
X11571429Y11416667D01*
X11619048Y11511905D01*
X11619048Y11607143D01*
X11571429Y11702381D01*
X11523810Y11750000D01*
X11428572Y11797619D01*
X11190476Y11797619D01*
X11047619Y11750000D01*
X10857143Y10702381D02*
X10095238Y10702381D01*
X9333333Y11750000D02*
X9428571Y11797619D01*
X9571428Y11797619D01*
X9714286Y11750000D01*
X9809524Y11654762D01*
X9857143Y11559524D01*
X9904762Y11369048D01*
X9904762Y11226190D01*
X9857143Y11035714D01*
X9809524Y10940476D01*
X9714286Y10845238D01*
X9571428Y10797619D01*
X9476190Y10797619D01*
X9333333Y10845238D01*
X9285714Y10892857D01*
X9285714Y11226190D01*
X9476190Y11226190D01*
X8857143Y10797619D02*
X8857143Y11797619D01*
X8619048Y11797619D01*
X8476190Y11750000D01*
X8380952Y11654762D01*
X8333333Y11559524D01*
X8285714Y11369048D01*
X8285714Y11226190D01*
X8333333Y11035714D01*
X8380952Y10940476D01*
X8476190Y10845238D01*
X8619048Y10797619D01*
X8857143Y10797619D01*
X7904762Y10845238D02*
X7761905Y10797619D01*
X7523809Y10797619D01*
X7428571Y10845238D01*
X7380952Y10892857D01*
X7333333Y10988095D01*
X7333333Y11083333D01*
X7380952Y11178571D01*
X7428571Y11226190D01*
X7523809Y11273810D01*
X7714286Y11321429D01*
X7809524Y11369048D01*
X7857143Y11416667D01*
X7904762Y11511905D01*
X7904762Y11607143D01*
X7857143Y11702381D01*
X7809524Y11750000D01*
X7714286Y11797619D01*
X7476190Y11797619D01*
X7333333Y11750000D01*
X23547619Y13952381D02*
X23500000Y14047619D01*
X23404762Y14142857D01*
X23261905Y14285714D01*
X23214286Y14380953D01*
X23214286Y14476191D01*
X23452381Y14428572D02*
X23404762Y14523810D01*
X23309524Y14619048D01*
X23119048Y14666667D01*
X22785714Y14666667D01*
X22595238Y14619048D01*
X22500000Y14523810D01*
X22452381Y14428572D01*
X22452381Y14238095D01*
X22500000Y14142857D01*
X22595238Y14047619D01*
X22785714Y14000000D01*
X23119048Y14000000D01*
X23309524Y14047619D01*
X23404762Y14142857D01*
X23452381Y14238095D01*
X23452381Y14428572D01*
X23547619Y13809524D02*
X23547619Y13047619D01*
X23452381Y12809524D02*
X22452381Y12809524D01*
X23452381Y12238095D01*
X22452381Y12238095D01*
X23452381Y11761905D02*
X22452381Y11761905D01*
X23166667Y11428571D01*
X22452381Y11095238D01*
X23452381Y11095238D01*
X22452381Y10428572D02*
X22452381Y10238095D01*
X22500000Y10142857D01*
X22595238Y10047619D01*
X22785714Y10000000D01*
X23119048Y10000000D01*
X23309524Y10047619D01*
X23404762Y10142857D01*
X23452381Y10238095D01*
X23452381Y10428572D01*
X23404762Y10523810D01*
X23309524Y10619048D01*
X23119048Y10666667D01*
X22785714Y10666667D01*
X22595238Y10619048D01*
X22500000Y10523810D01*
X22452381Y10428572D01*
X23404762Y9619048D02*
X23452381Y9476191D01*
X23452381Y9238095D01*
X23404762Y9142857D01*
X23357143Y9095238D01*
X23261905Y9047619D01*
X23166667Y9047619D01*
X23071429Y9095238D01*
X23023810Y9142857D01*
X22976190Y9238095D01*
X22928571Y9428572D01*
X22880952Y9523810D01*
X22833333Y9571429D01*
X22738095Y9619048D01*
X22642857Y9619048D01*
X22547619Y9571429D01*
X22500000Y9523810D01*
X22452381Y9428572D01*
X22452381Y9190476D01*
X22500000Y9047619D01*
X23547619Y8857143D02*
X23547619Y8095238D01*
X22500000Y7333333D02*
X22452381Y7428571D01*
X22452381Y7571428D01*
X22500000Y7714286D01*
X22595238Y7809524D01*
X22690476Y7857143D01*
X22880952Y7904762D01*
X23023810Y7904762D01*
X23214286Y7857143D01*
X23309524Y7809524D01*
X23404762Y7714286D01*
X23452381Y7571428D01*
X23452381Y7476190D01*
X23404762Y7333333D01*
X23357143Y7285714D01*
X23023810Y7285714D01*
X23023810Y7476190D01*
X23452381Y6857143D02*
X22452381Y6857143D01*
X22452381Y6619048D01*
X22500000Y6476190D01*
X22595238Y6380952D01*
X22690476Y6333333D01*
X22880952Y6285714D01*
X23023810Y6285714D01*
X23214286Y6333333D01*
X23309524Y6380952D01*
X23404762Y6476190D01*
X23452381Y6619048D01*
X23452381Y6857143D01*
X23404762Y5904762D02*
X23452381Y5761905D01*
X23452381Y5523809D01*
X23404762Y5428571D01*
X23357143Y5380952D01*
X23261905Y5333333D01*
X23166667Y5333333D01*
X23071429Y5380952D01*
X23023810Y5428571D01*
X22976190Y5523809D01*
X22928571Y5714286D01*
X22880952Y5809524D01*
X22833333Y5857143D01*
X22738095Y5904762D01*
X22642857Y5904762D01*
X22547619Y5857143D01*
X22500000Y5809524D01*
X22452381Y5714286D01*
X22452381Y5476190D01*
X22500000Y5333333D01*
X10952381Y12702381D02*
X11047619Y12750000D01*
X11142857Y12845238D01*
X11285714Y12988095D01*
X11380953Y13035714D01*
X11476191Y13035714D01*
X11428572Y12797619D02*
X11523810Y12845238D01*
X11619048Y12940476D01*
X11666667Y13130952D01*
X11666667Y13464286D01*
X11619048Y13654762D01*
X11523810Y13750000D01*
X11428572Y13797619D01*
X11238095Y13797619D01*
X11142857Y13750000D01*
X11047619Y13654762D01*
X11000000Y13464286D01*
X11000000Y13130952D01*
X11047619Y12940476D01*
X11142857Y12845238D01*
X11238095Y12797619D01*
X11428572Y12797619D01*
X10809524Y12702381D02*
X10047619Y12702381D01*
X9809524Y12797619D02*
X9809524Y13797619D01*
X9238095Y12797619D01*
X9238095Y13797619D01*
X8761905Y12797619D02*
X8761905Y13797619D01*
X8428571Y13083333D01*
X8095238Y13797619D01*
X8095238Y12797619D01*
X7428572Y13797619D02*
X7238095Y13797619D01*
X7142857Y13750000D01*
X7047619Y13654762D01*
X7000000Y13464286D01*
X7000000Y13130952D01*
X7047619Y12940476D01*
X7142857Y12845238D01*
X7238095Y12797619D01*
X7428572Y12797619D01*
X7523810Y12845238D01*
X7619048Y12940476D01*
X7666667Y13130952D01*
X7666667Y13464286D01*
X7619048Y13654762D01*
X7523810Y13750000D01*
X7428572Y13797619D01*
X6619048Y12845238D02*
X6476191Y12797619D01*
X6238095Y12797619D01*
X6142857Y12845238D01*
X6095238Y12892857D01*
X6047619Y12988095D01*
X6047619Y13083333D01*
X6095238Y13178571D01*
X6142857Y13226190D01*
X6238095Y13273810D01*
X6428572Y13321429D01*
X6523810Y13369048D01*
X6571429Y13416667D01*
X6619048Y13511905D01*
X6619048Y13607143D01*
X6571429Y13702381D01*
X6523810Y13750000D01*
X6428572Y13797619D01*
X6190476Y13797619D01*
X6047619Y13750000D01*
X5857143Y12702381D02*
X5095238Y12702381D01*
X4333333Y13750000D02*
X4428571Y13797619D01*
X4571428Y13797619D01*
X4714286Y13750000D01*
X4809524Y13654762D01*
X4857143Y13559524D01*
X4904762Y13369048D01*
X4904762Y13226190D01*
X4857143Y13035714D01*
X4809524Y12940476D01*
X4714286Y12845238D01*
X4571428Y12797619D01*
X4476190Y12797619D01*
X4333333Y12845238D01*
X4285714Y12892857D01*
X4285714Y13226190D01*
X4476190Y13226190D01*
X3857143Y12797619D02*
X3857143Y13797619D01*
X3619048Y13797619D01*
X3476190Y13750000D01*
X3380952Y13654762D01*
X3333333Y13559524D01*
X3285714Y13369048D01*
X3285714Y13226190D01*
X3333333Y13035714D01*
X3380952Y12940476D01*
X3476190Y12845238D01*
X3619048Y12797619D01*
X3857143Y12797619D01*
X2904762Y12845238D02*
X2761905Y12797619D01*
X2523809Y12797619D01*
X2428571Y12845238D01*
X2380952Y12892857D01*
X2333333Y12988095D01*
X2333333Y13083333D01*
X2380952Y13178571D01*
X2428571Y13226190D01*
X2523809Y13273810D01*
X2714286Y13321429D01*
X2809524Y13369048D01*
X2857143Y13416667D01*
X2904762Y13511905D01*
X2904762Y13607143D01*
X2857143Y13702381D01*
X2809524Y13750000D01*
X2714286Y13797619D01*
X2476190Y13797619D01*
X2333333Y13750000D01*
X10702381Y20452381D02*
X10797619Y20500000D01*
X10892857Y20595238D01*
X11035714Y20738095D01*
X11130953Y20785714D01*
X11226191Y20785714D01*
X11178572Y20547619D02*
X11273810Y20595238D01*
X11369048Y20690476D01*
X11416667Y20880952D01*
X11416667Y21214286D01*
X11369048Y21404762D01*
X11273810Y21500000D01*
X11178572Y21547619D01*
X10988095Y21547619D01*
X10892857Y21500000D01*
X10797619Y21404762D01*
X10750000Y21214286D01*
X10750000Y20880952D01*
X10797619Y20690476D01*
X10892857Y20595238D01*
X10988095Y20547619D01*
X11178572Y20547619D01*
X10559524Y20452381D02*
X9797619Y20452381D01*
X9559524Y20547619D02*
X9559524Y21547619D01*
X8988095Y20547619D01*
X8988095Y21547619D01*
X8511905Y20547619D02*
X8511905Y21547619D01*
X8178571Y20833333D01*
X7845238Y21547619D01*
X7845238Y20547619D01*
X7178572Y21547619D02*
X6988095Y21547619D01*
X6892857Y21500000D01*
X6797619Y21404762D01*
X6750000Y21214286D01*
X6750000Y20880952D01*
X6797619Y20690476D01*
X6892857Y20595238D01*
X6988095Y20547619D01*
X7178572Y20547619D01*
X7273810Y20595238D01*
X7369048Y20690476D01*
X7416667Y20880952D01*
X7416667Y21214286D01*
X7369048Y21404762D01*
X7273810Y21500000D01*
X7178572Y21547619D01*
X6369048Y20595238D02*
X6226191Y20547619D01*
X5988095Y20547619D01*
X5892857Y20595238D01*
X5845238Y20642857D01*
X5797619Y20738095D01*
X5797619Y20833333D01*
X5845238Y20928571D01*
X5892857Y20976190D01*
X5988095Y21023810D01*
X6178572Y21071429D01*
X6273810Y21119048D01*
X6321429Y21166667D01*
X6369048Y21261905D01*
X6369048Y21357143D01*
X6321429Y21452381D01*
X6273810Y21500000D01*
X6178572Y21547619D01*
X5940476Y21547619D01*
X5797619Y21500000D01*
X5607143Y20452381D02*
X4845238Y20452381D01*
X4083333Y21500000D02*
X4178571Y21547619D01*
X4321428Y21547619D01*
X4464286Y21500000D01*
X4559524Y21404762D01*
X4607143Y21309524D01*
X4654762Y21119048D01*
X4654762Y20976190D01*
X4607143Y20785714D01*
X4559524Y20690476D01*
X4464286Y20595238D01*
X4321428Y20547619D01*
X4226190Y20547619D01*
X4083333Y20595238D01*
X4035714Y20642857D01*
X4035714Y20976190D01*
X4226190Y20976190D01*
X3607143Y20547619D02*
X3607143Y21547619D01*
X3369048Y21547619D01*
X3226190Y21500000D01*
X3130952Y21404762D01*
X3083333Y21309524D01*
X3035714Y21119048D01*
X3035714Y20976190D01*
X3083333Y20785714D01*
X3130952Y20690476D01*
X3226190Y20595238D01*
X3369048Y20547619D01*
X3607143Y20547619D01*
X2654762Y20595238D02*
X2511905Y20547619D01*
X2273809Y20547619D01*
X2178571Y20595238D01*
X2130952Y20642857D01*
X2083333Y20738095D01*
X2083333Y20833333D01*
X2130952Y20928571D01*
X2178571Y20976190D01*
X2273809Y21023810D01*
X2464286Y21071429D01*
X2559524Y21119048D01*
X2607143Y21166667D01*
X2654762Y21261905D01*
X2654762Y21357143D01*
X2607143Y21452381D01*
X2559524Y21500000D01*
X2464286Y21547619D01*
X2226190Y21547619D01*
X2083333Y21500000D01*
X9702381Y28952381D02*
X9797619Y29000000D01*
X9892857Y29095238D01*
X10035714Y29238095D01*
X10130953Y29285714D01*
X10226191Y29285714D01*
X10178572Y29047619D02*
X10273810Y29095238D01*
X10369048Y29190476D01*
X10416667Y29380952D01*
X10416667Y29714286D01*
X10369048Y29904762D01*
X10273810Y30000000D01*
X10178572Y30047619D01*
X9988095Y30047619D01*
X9892857Y30000000D01*
X9797619Y29904762D01*
X9750000Y29714286D01*
X9750000Y29380952D01*
X9797619Y29190476D01*
X9892857Y29095238D01*
X9988095Y29047619D01*
X10178572Y29047619D01*
X9559524Y28952381D02*
X8797619Y28952381D01*
X8559524Y29047619D02*
X8559524Y30047619D01*
X7988095Y29047619D01*
X7988095Y30047619D01*
X7511905Y29047619D02*
X7511905Y30047619D01*
X7178571Y29333333D01*
X6845238Y30047619D01*
X6845238Y29047619D01*
X6178572Y30047619D02*
X5988095Y30047619D01*
X5892857Y30000000D01*
X5797619Y29904762D01*
X5750000Y29714286D01*
X5750000Y29380952D01*
X5797619Y29190476D01*
X5892857Y29095238D01*
X5988095Y29047619D01*
X6178572Y29047619D01*
X6273810Y29095238D01*
X6369048Y29190476D01*
X6416667Y29380952D01*
X6416667Y29714286D01*
X6369048Y29904762D01*
X6273810Y30000000D01*
X6178572Y30047619D01*
X5369048Y29095238D02*
X5226191Y29047619D01*
X4988095Y29047619D01*
X4892857Y29095238D01*
X4845238Y29142857D01*
X4797619Y29238095D01*
X4797619Y29333333D01*
X4845238Y29428571D01*
X4892857Y29476190D01*
X4988095Y29523810D01*
X5178572Y29571429D01*
X5273810Y29619048D01*
X5321429Y29666667D01*
X5369048Y29761905D01*
X5369048Y29857143D01*
X5321429Y29952381D01*
X5273810Y30000000D01*
X5178572Y30047619D01*
X4940476Y30047619D01*
X4797619Y30000000D01*
X4607143Y28952381D02*
X3845238Y28952381D01*
X3083333Y30000000D02*
X3178571Y30047619D01*
X3321428Y30047619D01*
X3464286Y30000000D01*
X3559524Y29904762D01*
X3607143Y29809524D01*
X3654762Y29619048D01*
X3654762Y29476190D01*
X3607143Y29285714D01*
X3559524Y29190476D01*
X3464286Y29095238D01*
X3321428Y29047619D01*
X3226190Y29047619D01*
X3083333Y29095238D01*
X3035714Y29142857D01*
X3035714Y29476190D01*
X3226190Y29476190D01*
X2607143Y29047619D02*
X2607143Y30047619D01*
X2369048Y30047619D01*
X2226190Y30000000D01*
X2130952Y29904762D01*
X2083333Y29809524D01*
X2035714Y29619048D01*
X2035714Y29476190D01*
X2083333Y29285714D01*
X2130952Y29190476D01*
X2226190Y29095238D01*
X2369048Y29047619D01*
X2607143Y29047619D01*
X1654762Y29095238D02*
X1511905Y29047619D01*
X1273809Y29047619D01*
X1178571Y29095238D01*
X1130952Y29142857D01*
X1083333Y29238095D01*
X1083333Y29333333D01*
X1130952Y29428571D01*
X1178571Y29476190D01*
X1273809Y29523810D01*
X1464286Y29571429D01*
X1559524Y29619048D01*
X1607143Y29666667D01*
X1654762Y29761905D01*
X1654762Y29857143D01*
X1607143Y29952381D01*
X1559524Y30000000D01*
X1464286Y30047619D01*
X1226190Y30047619D01*
X1083333Y30000000D01*
X32880952Y9571429D02*
X32833333Y9666667D01*
X32785714Y9714286D01*
X32690476Y9761905D01*
X32642857Y9761905D01*
X32547619Y9714286D01*
X32500000Y9666667D01*
X32452381Y9571429D01*
X32452381Y9380952D01*
X32500000Y9285714D01*
X32547619Y9238095D01*
X32642857Y9190476D01*
X32690476Y9190476D01*
X32785714Y9238095D01*
X32833333Y9285714D01*
X32880952Y9380952D01*
X32880952Y9571429D01*
X32928571Y9666667D01*
X32976190Y9714286D01*
X33071429Y9761905D01*
X33261905Y9761905D01*
X33357143Y9714286D01*
X33404762Y9666667D01*
X33452381Y9571429D01*
X33452381Y9380952D01*
X33404762Y9285714D01*
X33357143Y9238095D01*
X33261905Y9190476D01*
X33071429Y9190476D01*
X32976190Y9238095D01*
X32928571Y9285714D01*
X32880952Y9380952D01*
X32452381Y8571429D02*
X32452381Y8476190D01*
X32500000Y8380952D01*
X32547619Y8333333D01*
X32642857Y8285714D01*
X32833333Y8238095D01*
X33071429Y8238095D01*
X33261905Y8285714D01*
X33357143Y8333333D01*
X33404762Y8380952D01*
X33452381Y8476190D01*
X33452381Y8571429D01*
X33404762Y8666667D01*
X33357143Y8714286D01*
X33261905Y8761905D01*
X33071429Y8809524D01*
X32833333Y8809524D01*
X32642857Y8761905D01*
X32547619Y8714286D01*
X32500000Y8666667D01*
X32452381Y8571429D01*
X31952381Y9166666D02*
X31952381Y9738095D01*
X31952381Y9452381D02*
X30952381Y9452381D01*
X31095238Y9547619D01*
X31190476Y9642857D01*
X31238095Y9738095D01*
X31952381Y8690476D02*
X31952381Y8500000D01*
X31904762Y8404761D01*
X31857143Y8357142D01*
X31714286Y8261904D01*
X31523810Y8214285D01*
X31142857Y8214285D01*
X31047619Y8261904D01*
X31000000Y8309523D01*
X30952381Y8404761D01*
X30952381Y8595238D01*
X31000000Y8690476D01*
X31047619Y8738095D01*
X31142857Y8785714D01*
X31380952Y8785714D01*
X31476190Y8738095D01*
X31523810Y8690476D01*
X31571429Y8595238D01*
X31571429Y8404761D01*
X31523810Y8309523D01*
X31476190Y8261904D01*
X31380952Y8214285D01*
X30952381Y7595238D02*
X30952381Y7499999D01*
X31000000Y7404761D01*
X31047619Y7357142D01*
X31142857Y7309523D01*
X31333333Y7261904D01*
X31571429Y7261904D01*
X31761905Y7309523D01*
X31857143Y7357142D01*
X31904762Y7404761D01*
X31952381Y7499999D01*
X31952381Y7595238D01*
X31904762Y7690476D01*
X31857143Y7738095D01*
X31761905Y7785714D01*
X31571429Y7833333D01*
X31333333Y7833333D01*
X31142857Y7785714D01*
X31047619Y7738095D01*
X31000000Y7690476D01*
X30952381Y7595238D01*
X29202381Y9511904D02*
X29202381Y9702381D01*
X29250000Y9797619D01*
X29297619Y9845238D01*
X29440476Y9940476D01*
X29630952Y9988095D01*
X30011905Y9988095D01*
X30107143Y9940476D01*
X30154762Y9892857D01*
X30202381Y9797619D01*
X30202381Y9607142D01*
X30154762Y9511904D01*
X30107143Y9464285D01*
X30011905Y9416666D01*
X29773810Y9416666D01*
X29678571Y9464285D01*
X29630952Y9511904D01*
X29583333Y9607142D01*
X29583333Y9797619D01*
X29630952Y9892857D01*
X29678571Y9940476D01*
X29773810Y9988095D01*
X29202381Y8511904D02*
X29202381Y8988095D01*
X29678571Y9035714D01*
X29630952Y8988095D01*
X29583333Y8892857D01*
X29583333Y8654761D01*
X29630952Y8559523D01*
X29678571Y8511904D01*
X29773810Y8464285D01*
X30011905Y8464285D01*
X30107143Y8511904D01*
X30154762Y8559523D01*
X30202381Y8654761D01*
X30202381Y8892857D01*
X30154762Y8988095D01*
X30107143Y9035714D01*
X29202381Y7845238D02*
X29202381Y7749999D01*
X29250000Y7654761D01*
X29297619Y7607142D01*
X29392857Y7559523D01*
X29583333Y7511904D01*
X29821429Y7511904D01*
X30011905Y7559523D01*
X30107143Y7607142D01*
X30154762Y7654761D01*
X30202381Y7749999D01*
X30202381Y7845238D01*
X30154762Y7940476D01*
X30107143Y7988095D01*
X30011905Y8035714D01*
X29821429Y8083333D01*
X29583333Y8083333D01*
X29392857Y8035714D01*
X29297619Y7988095D01*
X29250000Y7940476D01*
X29202381Y7845238D01*
X14343096Y31427381D02*
X14295477Y31475000D01*
X14200239Y31522619D01*
X13962143Y31522619D01*
X13866905Y31475000D01*
X13819286Y31427381D01*
X13771667Y31332143D01*
X13771667Y31236905D01*
X13819286Y31094048D01*
X14390715Y30522619D01*
X13771667Y30522619D01*
X13390715Y31427381D02*
X13343096Y31475000D01*
X13247858Y31522619D01*
X13009762Y31522619D01*
X12914524Y31475000D01*
X12866905Y31427381D01*
X12819286Y31332143D01*
X12819286Y31236905D01*
X12866905Y31094048D01*
X13438334Y30522619D01*
X12819286Y30522619D01*
X12200239Y31522619D02*
X12105000Y31522619D01*
X12009762Y31475000D01*
X11962143Y31427381D01*
X11914524Y31332143D01*
X11866905Y31141667D01*
X11866905Y30903571D01*
X11914524Y30713095D01*
X11962143Y30617857D01*
X12009762Y30570238D01*
X12105000Y30522619D01*
X12200239Y30522619D01*
X12295477Y30570238D01*
X12343096Y30617857D01*
X12390715Y30713095D01*
X12438334Y30903571D01*
X12438334Y31141667D01*
X12390715Y31332143D01*
X12343096Y31427381D01*
X12295477Y31475000D01*
X12200239Y31522619D01*
X20345238Y33297619D02*
X20916667Y33297619D01*
X20630953Y33297619D02*
X20630953Y34297619D01*
X20726191Y34154762D01*
X20821429Y34059524D01*
X20916667Y34011905D01*
X19726191Y34297619D02*
X19630952Y34297619D01*
X19535714Y34250000D01*
X19488095Y34202381D01*
X19440476Y34107143D01*
X19392857Y33916667D01*
X19392857Y33678571D01*
X19440476Y33488095D01*
X19488095Y33392857D01*
X19535714Y33345238D01*
X19630952Y33297619D01*
X19726191Y33297619D01*
X19821429Y33345238D01*
X19869048Y33392857D01*
X19916667Y33488095D01*
X19964286Y33678571D01*
X19964286Y33916667D01*
X19916667Y34107143D01*
X19869048Y34202381D01*
X19821429Y34250000D01*
X19726191Y34297619D01*
X18964286Y33297619D02*
X18964286Y34297619D01*
X18869048Y33678571D02*
X18583333Y33297619D01*
X18583333Y33964286D02*
X18964286Y33583333D01*
X27285714Y23428571D02*
X27952381Y23428571D01*
X26904762Y23666667D02*
X27619048Y23904762D01*
X27619048Y23285714D01*
X27857143Y22904762D02*
X27904762Y22857143D01*
X27952381Y22904762D01*
X27904762Y22952381D01*
X27857143Y22904762D01*
X27952381Y22904762D01*
X26952381Y22523810D02*
X26952381Y21857143D01*
X27952381Y22285715D01*
X27952381Y21476191D02*
X26952381Y21476191D01*
X27571429Y21380953D02*
X27952381Y21095238D01*
X27285714Y21095238D02*
X27666667Y21476191D01*
X35035714Y23428571D02*
X35702381Y23428571D01*
X34654762Y23666667D02*
X35369048Y23904762D01*
X35369048Y23285714D01*
X35607143Y22904762D02*
X35654762Y22857143D01*
X35702381Y22904762D01*
X35654762Y22952381D01*
X35607143Y22904762D01*
X35702381Y22904762D01*
X34702381Y22523810D02*
X34702381Y21857143D01*
X35702381Y22285715D01*
X35702381Y21476191D02*
X34702381Y21476191D01*
X35321429Y21380953D02*
X35702381Y21095238D01*
X35035714Y21095238D02*
X35416667Y21476191D01*
X27785714Y32428571D02*
X28452381Y32428571D01*
X27404762Y32666667D02*
X28119048Y32904762D01*
X28119048Y32285714D01*
X28357143Y31904762D02*
X28404762Y31857143D01*
X28452381Y31904762D01*
X28404762Y31952381D01*
X28357143Y31904762D01*
X28452381Y31904762D01*
X27452381Y31523810D02*
X27452381Y30857143D01*
X28452381Y31285715D01*
X28452381Y30476191D02*
X27452381Y30476191D01*
X28071429Y30380953D02*
X28452381Y30095238D01*
X27785714Y30095238D02*
X28166667Y30476191D01*
X35035714Y32678571D02*
X35702381Y32678571D01*
X34654762Y32916667D02*
X35369048Y33154762D01*
X35369048Y32535714D01*
X35607143Y32154762D02*
X35654762Y32107143D01*
X35702381Y32154762D01*
X35654762Y32202381D01*
X35607143Y32154762D01*
X35702381Y32154762D01*
X34702381Y31773810D02*
X34702381Y31107143D01*
X35702381Y31535715D01*
X35702381Y30726191D02*
X34702381Y30726191D01*
X35321429Y30630953D02*
X35702381Y30345238D01*
X35035714Y30345238D02*
X35416667Y30726191D01*
X14238095Y23702381D02*
X14190476Y23750000D01*
X14095238Y23797619D01*
X13857142Y23797619D01*
X13761904Y23750000D01*
X13714285Y23702381D01*
X13666666Y23607143D01*
X13666666Y23511905D01*
X13714285Y23369048D01*
X14285714Y22797619D01*
X13666666Y22797619D01*
X13285714Y23702381D02*
X13238095Y23750000D01*
X13142857Y23797619D01*
X12904761Y23797619D01*
X12809523Y23750000D01*
X12761904Y23702381D01*
X12714285Y23607143D01*
X12714285Y23511905D01*
X12761904Y23369048D01*
X13333333Y22797619D01*
X12714285Y22797619D01*
X12095238Y23797619D02*
X11999999Y23797619D01*
X11904761Y23750000D01*
X11857142Y23702381D01*
X11809523Y23607143D01*
X11761904Y23416667D01*
X11761904Y23178571D01*
X11809523Y22988095D01*
X11857142Y22892857D01*
X11904761Y22845238D01*
X11999999Y22797619D01*
X12095238Y22797619D01*
X12190476Y22845238D01*
X12238095Y22892857D01*
X12285714Y22988095D01*
X12333333Y23178571D01*
X12333333Y23416667D01*
X12285714Y23607143D01*
X12238095Y23702381D01*
X12190476Y23750000D01*
X12095238Y23797619D01*
X27238095Y13702381D02*
X27190476Y13750000D01*
X27095238Y13797619D01*
X26857142Y13797619D01*
X26761904Y13750000D01*
X26714285Y13702381D01*
X26666666Y13607143D01*
X26666666Y13511905D01*
X26714285Y13369048D01*
X27285714Y12797619D01*
X26666666Y12797619D01*
X26285714Y13702381D02*
X26238095Y13750000D01*
X26142857Y13797619D01*
X25904761Y13797619D01*
X25809523Y13750000D01*
X25761904Y13702381D01*
X25714285Y13607143D01*
X25714285Y13511905D01*
X25761904Y13369048D01*
X26333333Y12797619D01*
X25714285Y12797619D01*
X25095238Y13797619D02*
X24999999Y13797619D01*
X24904761Y13750000D01*
X24857142Y13702381D01*
X24809523Y13607143D01*
X24761904Y13416667D01*
X24761904Y13178571D01*
X24809523Y12988095D01*
X24857142Y12892857D01*
X24904761Y12845238D01*
X24999999Y12797619D01*
X25095238Y12797619D01*
X25190476Y12845238D01*
X25238095Y12892857D01*
X25285714Y12988095D01*
X25333333Y13178571D01*
X25333333Y13416667D01*
X25285714Y13607143D01*
X25238095Y13702381D01*
X25190476Y13750000D01*
X25095238Y13797619D01*
X14238095Y25452381D02*
X14190476Y25500000D01*
X14095238Y25547619D01*
X13857142Y25547619D01*
X13761904Y25500000D01*
X13714285Y25452381D01*
X13666666Y25357143D01*
X13666666Y25261905D01*
X13714285Y25119048D01*
X14285714Y24547619D01*
X13666666Y24547619D01*
X13285714Y25452381D02*
X13238095Y25500000D01*
X13142857Y25547619D01*
X12904761Y25547619D01*
X12809523Y25500000D01*
X12761904Y25452381D01*
X12714285Y25357143D01*
X12714285Y25261905D01*
X12761904Y25119048D01*
X13333333Y24547619D01*
X12714285Y24547619D01*
X12095238Y25547619D02*
X11999999Y25547619D01*
X11904761Y25500000D01*
X11857142Y25452381D01*
X11809523Y25357143D01*
X11761904Y25166667D01*
X11761904Y24928571D01*
X11809523Y24738095D01*
X11857142Y24642857D01*
X11904761Y24595238D01*
X11999999Y24547619D01*
X12095238Y24547619D01*
X12190476Y24595238D01*
X12238095Y24642857D01*
X12285714Y24738095D01*
X12333333Y24928571D01*
X12333333Y25166667D01*
X12285714Y25357143D01*
X12238095Y25452381D01*
X12190476Y25500000D01*
X12095238Y25547619D01*
X14238095Y27952381D02*
X14190476Y28000000D01*
X14095238Y28047619D01*
X13857142Y28047619D01*
X13761904Y28000000D01*
X13714285Y27952381D01*
X13666666Y27857143D01*
X13666666Y27761905D01*
X13714285Y27619048D01*
X14285714Y27047619D01*
X13666666Y27047619D01*
X13285714Y27952381D02*
X13238095Y28000000D01*
X13142857Y28047619D01*
X12904761Y28047619D01*
X12809523Y28000000D01*
X12761904Y27952381D01*
X12714285Y27857143D01*
X12714285Y27761905D01*
X12761904Y27619048D01*
X13333333Y27047619D01*
X12714285Y27047619D01*
X12095238Y28047619D02*
X11999999Y28047619D01*
X11904761Y28000000D01*
X11857142Y27952381D01*
X11809523Y27857143D01*
X11761904Y27666667D01*
X11761904Y27428571D01*
X11809523Y27238095D01*
X11857142Y27142857D01*
X11904761Y27095238D01*
X11999999Y27047619D01*
X12095238Y27047619D01*
X12190476Y27095238D01*
X12238095Y27142857D01*
X12285714Y27238095D01*
X12333333Y27428571D01*
X12333333Y27666667D01*
X12285714Y27857143D01*
X12238095Y27952381D01*
X12190476Y28000000D01*
X12095238Y28047619D01*
X14488095Y29452381D02*
X14440476Y29500000D01*
X14345238Y29547619D01*
X14107142Y29547619D01*
X14011904Y29500000D01*
X13964285Y29452381D01*
X13916666Y29357143D01*
X13916666Y29261905D01*
X13964285Y29119048D01*
X14535714Y28547619D01*
X13916666Y28547619D01*
X13535714Y29452381D02*
X13488095Y29500000D01*
X13392857Y29547619D01*
X13154761Y29547619D01*
X13059523Y29500000D01*
X13011904Y29452381D01*
X12964285Y29357143D01*
X12964285Y29261905D01*
X13011904Y29119048D01*
X13583333Y28547619D01*
X12964285Y28547619D01*
X12345238Y29547619D02*
X12249999Y29547619D01*
X12154761Y29500000D01*
X12107142Y29452381D01*
X12059523Y29357143D01*
X12011904Y29166667D01*
X12011904Y28928571D01*
X12059523Y28738095D01*
X12107142Y28642857D01*
X12154761Y28595238D01*
X12249999Y28547619D01*
X12345238Y28547619D01*
X12440476Y28595238D01*
X12488095Y28642857D01*
X12535714Y28738095D01*
X12583333Y28928571D01*
X12583333Y29166667D01*
X12535714Y29357143D01*
X12488095Y29452381D01*
X12440476Y29500000D01*
X12345238Y29547619D01*
X17226762Y40019905D02*
X17274381Y39877048D01*
X17274381Y39638952D01*
X17226762Y39543714D01*
X17179143Y39496095D01*
X17083905Y39448476D01*
X16988667Y39448476D01*
X16893429Y39496095D01*
X16845810Y39543714D01*
X16798190Y39638952D01*
X16750571Y39829429D01*
X16702952Y39924667D01*
X16655333Y39972286D01*
X16560095Y40019905D01*
X16464857Y40019905D01*
X16369619Y39972286D01*
X16322000Y39924667D01*
X16274381Y39829429D01*
X16274381Y39591333D01*
X16322000Y39448476D01*
X16274381Y39115143D02*
X17274381Y38877048D01*
X16560095Y38686571D01*
X17274381Y38496095D01*
X16274381Y38258000D01*
X17369619Y38115143D02*
X17369619Y37353238D01*
X17274381Y37115143D02*
X16274381Y37115143D01*
X16274381Y36734190D01*
X16322000Y36638952D01*
X16369619Y36591333D01*
X16464857Y36543714D01*
X16607714Y36543714D01*
X16702952Y36591333D01*
X16750571Y36638952D01*
X16798190Y36734190D01*
X16798190Y37115143D01*
X16274381Y36115143D02*
X17083905Y36115143D01*
X17179143Y36067524D01*
X17226762Y36019905D01*
X17274381Y35924667D01*
X17274381Y35734190D01*
X17226762Y35638952D01*
X17179143Y35591333D01*
X17083905Y35543714D01*
X16274381Y35543714D01*
X17226762Y35115143D02*
X17274381Y34972286D01*
X17274381Y34734190D01*
X17226762Y34638952D01*
X17179143Y34591333D01*
X17083905Y34543714D01*
X16988667Y34543714D01*
X16893429Y34591333D01*
X16845810Y34638952D01*
X16798190Y34734190D01*
X16750571Y34924667D01*
X16702952Y35019905D01*
X16655333Y35067524D01*
X16560095Y35115143D01*
X16464857Y35115143D01*
X16369619Y35067524D01*
X16322000Y35019905D01*
X16274381Y34924667D01*
X16274381Y34686571D01*
X16322000Y34543714D01*
X17274381Y34115143D02*
X16274381Y34115143D01*
X16750571Y34115143D02*
X16750571Y33543714D01*
X17274381Y33543714D02*
X16274381Y33543714D01*
M02*
