M48
;DRILL file {KiCad 4.0.4+dfsg1-stable} date Sun Feb  5 16:49:12 2017
;FORMAT={-:-/ absolute / metric / decimal}
FMAT,2
METRIC,TZ
T1C0.600
T2C1.000
T3C1.300
%
G90
G05
M71
T1
X6.5Y36.2
X9.3Y21.5
X9.3Y10.8
X15.5Y14.4
X20.9Y32.2
X23.6Y22.2
X23.9Y19.8
X24.4Y17.3
X24.6Y37.
X25.7Y28.6
X26.2Y7.1
X27.8Y8.5
X28.4Y15.1
T2
X3.64Y2.7
X6.18Y2.7
X8.72Y2.7
X10.002Y39.501
X10.002Y33.075
X11.26Y2.7
X13.8Y2.7
X14.498Y39.501
X14.498Y32.999
X20.3Y39.
X22.84Y39.
X30.02Y40.3
X30.02Y37.76
X30.3Y32.7
X30.3Y30.16
X30.3Y27.62
X30.3Y23.4
X30.3Y20.86
X30.3Y18.32
X32.56Y40.3
X32.56Y37.76
X35.1Y40.3
X35.1Y37.76
X38.Y22.9
X38.Y20.36
X38.Y17.82
X38.1Y32.8
X38.1Y30.26
X38.1Y27.72
X38.1Y13.02
X38.1Y10.48
X38.1Y7.94
X38.1Y5.4
T3
X19.72Y2.7
X24.8Y2.7
T0
M30
