G04 #@! TF.FileFunction,Legend,Top*
%FSLAX46Y46*%
G04 Gerber Fmt 4.6, Leading zero omitted, Abs format (unit mm)*
G04 Created by KiCad (PCBNEW 4.0.4+dfsg1-stable) date Sun Feb  5 14:29:14 2017*
%MOMM*%
%LPD*%
G01*
G04 APERTURE LIST*
%ADD10C,0.100000*%
%ADD11C,0.150000*%
G04 APERTURE END LIST*
D10*
D11*
X72166000Y18652000D02*
X72166000Y4428000D01*
X71658000Y19160000D02*
X71658000Y3920000D01*
X80294000Y4428000D02*
X80294000Y18525000D01*
X80802000Y3920000D02*
X80802000Y19160000D01*
X80294000Y9340000D02*
X80745000Y9340000D01*
X80294000Y13740000D02*
X80780000Y13740000D01*
X71680000Y3920000D02*
X80780000Y3920000D01*
X72230000Y4460000D02*
X80230000Y4460000D01*
X71680000Y19160000D02*
X80780000Y19160000D01*
X72230000Y18600000D02*
X80230000Y18600000D01*
X71680000Y3920000D02*
X72230000Y4460000D01*
X71680000Y19160000D02*
X72230000Y18600000D01*
X80780000Y3920000D02*
X80230000Y4460000D01*
X80780000Y19160000D02*
X80230000Y18600000D01*
X56960000Y36130000D02*
X56960000Y38543000D01*
X62040000Y38543000D02*
X62040000Y36130000D01*
X56960000Y36257000D02*
G75*
G03X62040000Y36257000I2540000J0D01*
G01*
X62611500Y47560000D02*
X62611500Y38543000D01*
X62611500Y38543000D02*
X56388500Y38543000D01*
X56388500Y47560000D02*
X56388500Y38543000D01*
X56388500Y47560000D02*
X62611500Y47560000D01*
X46500000Y15750000D02*
G75*
G03X46500000Y15750000I-2500000J0D01*
G01*
X47000000Y41250000D02*
G75*
G03X47000000Y41250000I-2500000J0D01*
G01*
X21250000Y1500000D02*
X27250000Y1500000D01*
X27250000Y1500000D02*
X27250000Y6500000D01*
X27250000Y6500000D02*
X21250000Y6500000D01*
X21250000Y6500000D02*
X21250000Y1500000D01*
X24250000Y24000000D02*
X30250000Y24000000D01*
X30250000Y24000000D02*
X30250000Y29000000D01*
X30250000Y29000000D02*
X24250000Y29000000D01*
X24250000Y29000000D02*
X24250000Y24000000D01*
X2000000Y7500000D02*
X9500000Y7500000D01*
X9500000Y2500000D02*
X9500000Y12500000D01*
X2000000Y2500000D02*
X2000000Y12500000D01*
X6000000Y2500000D02*
X10000000Y2500000D01*
X10000000Y2500000D02*
X10000000Y12500000D01*
X10000000Y12500000D02*
X6000000Y12500000D01*
X6000000Y12500000D02*
X500000Y12500000D01*
X500000Y12500000D02*
X500000Y2500000D01*
X500000Y2500000D02*
X6000000Y2500000D01*
X2000000Y17500000D02*
X9500000Y17500000D01*
X9500000Y12500000D02*
X9500000Y22500000D01*
X2000000Y12500000D02*
X2000000Y22500000D01*
X6000000Y12500000D02*
X10000000Y12500000D01*
X10000000Y12500000D02*
X10000000Y22500000D01*
X10000000Y22500000D02*
X6000000Y22500000D01*
X6000000Y22500000D02*
X500000Y22500000D01*
X500000Y22500000D02*
X500000Y12500000D01*
X500000Y12500000D02*
X6000000Y12500000D01*
X2000000Y27500000D02*
X9500000Y27500000D01*
X9500000Y22500000D02*
X9500000Y32500000D01*
X2000000Y22500000D02*
X2000000Y32500000D01*
X6000000Y22500000D02*
X10000000Y22500000D01*
X10000000Y22500000D02*
X10000000Y32500000D01*
X10000000Y32500000D02*
X6000000Y32500000D01*
X6000000Y32500000D02*
X500000Y32500000D01*
X500000Y32500000D02*
X500000Y22500000D01*
X500000Y22500000D02*
X6000000Y22500000D01*
X36000000Y16750000D02*
X36000000Y4750000D01*
X36000000Y4750000D02*
X41000000Y4750000D01*
X41000000Y4750000D02*
X41000000Y16750000D01*
X41000000Y16750000D02*
X36000000Y16750000D01*
X35500000Y40000000D02*
X35500000Y28000000D01*
X35500000Y28000000D02*
X40500000Y28000000D01*
X40500000Y28000000D02*
X40500000Y40000000D01*
X40500000Y40000000D02*
X35500000Y40000000D01*
X22500000Y17250000D02*
X34500000Y17250000D01*
X34500000Y17250000D02*
X34500000Y22250000D01*
X34500000Y22250000D02*
X22500000Y22250000D01*
X22500000Y22250000D02*
X22500000Y17250000D01*
X23500000Y41500000D02*
X35500000Y41500000D01*
X35500000Y41500000D02*
X35500000Y46500000D01*
X35500000Y46500000D02*
X23500000Y46500000D01*
X23500000Y46500000D02*
X23500000Y41500000D01*
X19250000Y4250000D02*
X19250000Y20250000D01*
X19250000Y20250000D02*
X13250000Y20250000D01*
X13250000Y20250000D02*
X13250000Y4250000D01*
X13250000Y4250000D02*
X19250000Y4250000D01*
X19250000Y26250000D02*
X19250000Y42250000D01*
X19250000Y42250000D02*
X13250000Y42250000D01*
X13250000Y42250000D02*
X13250000Y26250000D01*
X13250000Y26250000D02*
X19250000Y26250000D01*
X52730789Y2950000D02*
G75*
G03X52730789Y2950000I-380789J0D01*
G01*
X51615000Y2455000D02*
X51615000Y3725000D01*
X44265000Y2455000D02*
X44265000Y3725000D01*
X44265000Y12125000D02*
X44265000Y10855000D01*
X51615000Y12125000D02*
X51615000Y10855000D01*
X51615000Y2455000D02*
X44265000Y2455000D01*
X51615000Y12125000D02*
X44265000Y12125000D01*
X51615000Y3725000D02*
X52900000Y3725000D01*
X51980789Y27950000D02*
G75*
G03X51980789Y27950000I-380789J0D01*
G01*
X50865000Y27455000D02*
X50865000Y28725000D01*
X43515000Y27455000D02*
X43515000Y28725000D01*
X43515000Y37125000D02*
X43515000Y35855000D01*
X50865000Y37125000D02*
X50865000Y35855000D01*
X50865000Y27455000D02*
X43515000Y27455000D01*
X50865000Y37125000D02*
X43515000Y37125000D01*
X50865000Y28725000D02*
X52150000Y28725000D01*
X24250000Y16250000D02*
X31250000Y16250000D01*
X31250000Y16250000D02*
X31250000Y8250000D01*
X31250000Y8250000D02*
X24250000Y8250000D01*
X24250000Y8250000D02*
X24250000Y16250000D01*
X23250000Y39500000D02*
X30250000Y39500000D01*
X30250000Y39500000D02*
X30250000Y31500000D01*
X30250000Y31500000D02*
X23250000Y31500000D01*
X23250000Y31500000D02*
X23250000Y39500000D01*
X56960000Y27130000D02*
X56960000Y29543000D01*
X62040000Y29543000D02*
X62040000Y27130000D01*
X56960000Y27257000D02*
G75*
G03X62040000Y27257000I2540000J0D01*
G01*
X62611500Y38560000D02*
X62611500Y29543000D01*
X62611500Y29543000D02*
X56388500Y29543000D01*
X56388500Y38560000D02*
X56388500Y29543000D01*
X56388500Y38560000D02*
X62611500Y38560000D01*
X71094381Y10928905D02*
X70094381Y10928905D01*
X70094381Y11309858D01*
X70142000Y11405096D01*
X70189619Y11452715D01*
X70284857Y11500334D01*
X70427714Y11500334D01*
X70522952Y11452715D01*
X70570571Y11405096D01*
X70618190Y11309858D01*
X70618190Y10928905D01*
X70427714Y12357477D02*
X71094381Y12357477D01*
X70046762Y12119381D02*
X70761048Y11881286D01*
X70761048Y12500334D01*
X59015905Y39233619D02*
X59015905Y40233619D01*
X59254000Y40233619D01*
X59396858Y40186000D01*
X59492096Y40090762D01*
X59539715Y39995524D01*
X59587334Y39805048D01*
X59587334Y39662190D01*
X59539715Y39471714D01*
X59492096Y39376476D01*
X59396858Y39281238D01*
X59254000Y39233619D01*
X59015905Y39233619D01*
X60444477Y39900286D02*
X60444477Y39233619D01*
X60206381Y40281238D02*
X59968286Y39566952D01*
X60587334Y39566952D01*
X41857143Y15583334D02*
X41904762Y15535715D01*
X41952381Y15392858D01*
X41952381Y15297620D01*
X41904762Y15154762D01*
X41809524Y15059524D01*
X41714286Y15011905D01*
X41523810Y14964286D01*
X41380952Y14964286D01*
X41190476Y15011905D01*
X41095238Y15059524D01*
X41000000Y15154762D01*
X40952381Y15297620D01*
X40952381Y15392858D01*
X41000000Y15535715D01*
X41047619Y15583334D01*
X40952381Y15916667D02*
X40952381Y16535715D01*
X41333333Y16202381D01*
X41333333Y16345239D01*
X41380952Y16440477D01*
X41428571Y16488096D01*
X41523810Y16535715D01*
X41761905Y16535715D01*
X41857143Y16488096D01*
X41904762Y16440477D01*
X41952381Y16345239D01*
X41952381Y16059524D01*
X41904762Y15964286D01*
X41857143Y15916667D01*
X42357143Y41083334D02*
X42404762Y41035715D01*
X42452381Y40892858D01*
X42452381Y40797620D01*
X42404762Y40654762D01*
X42309524Y40559524D01*
X42214286Y40511905D01*
X42023810Y40464286D01*
X41880952Y40464286D01*
X41690476Y40511905D01*
X41595238Y40559524D01*
X41500000Y40654762D01*
X41452381Y40797620D01*
X41452381Y40892858D01*
X41500000Y41035715D01*
X41547619Y41083334D01*
X41785714Y41940477D02*
X42452381Y41940477D01*
X41404762Y41702381D02*
X42119048Y41464286D01*
X42119048Y42083334D01*
X24083334Y2142857D02*
X24035715Y2095238D01*
X23892858Y2047619D01*
X23797620Y2047619D01*
X23654762Y2095238D01*
X23559524Y2190476D01*
X23511905Y2285714D01*
X23464286Y2476190D01*
X23464286Y2619048D01*
X23511905Y2809524D01*
X23559524Y2904762D01*
X23654762Y3000000D01*
X23797620Y3047619D01*
X23892858Y3047619D01*
X24035715Y3000000D01*
X24083334Y2952381D01*
X24988096Y3047619D02*
X24511905Y3047619D01*
X24464286Y2571429D01*
X24511905Y2619048D01*
X24607143Y2666667D01*
X24845239Y2666667D01*
X24940477Y2619048D01*
X24988096Y2571429D01*
X25035715Y2476190D01*
X25035715Y2238095D01*
X24988096Y2142857D01*
X24940477Y2095238D01*
X24845239Y2047619D01*
X24607143Y2047619D01*
X24511905Y2095238D01*
X24464286Y2142857D01*
X27083334Y24642857D02*
X27035715Y24595238D01*
X26892858Y24547619D01*
X26797620Y24547619D01*
X26654762Y24595238D01*
X26559524Y24690476D01*
X26511905Y24785714D01*
X26464286Y24976190D01*
X26464286Y25119048D01*
X26511905Y25309524D01*
X26559524Y25404762D01*
X26654762Y25500000D01*
X26797620Y25547619D01*
X26892858Y25547619D01*
X27035715Y25500000D01*
X27083334Y25452381D01*
X27940477Y25547619D02*
X27750000Y25547619D01*
X27654762Y25500000D01*
X27607143Y25452381D01*
X27511905Y25309524D01*
X27464286Y25119048D01*
X27464286Y24738095D01*
X27511905Y24642857D01*
X27559524Y24595238D01*
X27654762Y24547619D01*
X27845239Y24547619D01*
X27940477Y24595238D01*
X27988096Y24642857D01*
X28035715Y24738095D01*
X28035715Y24976190D01*
X27988096Y25071429D01*
X27940477Y25119048D01*
X27845239Y25166667D01*
X27654762Y25166667D01*
X27559524Y25119048D01*
X27511905Y25071429D01*
X27464286Y24976190D01*
X68261905Y5547619D02*
X68261905Y6547619D01*
X68642858Y6547619D01*
X68738096Y6500000D01*
X68785715Y6452381D01*
X68833334Y6357143D01*
X68833334Y6214286D01*
X68785715Y6119048D01*
X68738096Y6071429D01*
X68642858Y6023810D01*
X68261905Y6023810D01*
X69785715Y5547619D02*
X69214286Y5547619D01*
X69500000Y5547619D02*
X69500000Y6547619D01*
X69404762Y6404762D01*
X69309524Y6309524D01*
X69214286Y6261905D01*
X12702381Y4361905D02*
X11702381Y4361905D01*
X11702381Y4742858D01*
X11750000Y4838096D01*
X11797619Y4885715D01*
X11892857Y4933334D01*
X12035714Y4933334D01*
X12130952Y4885715D01*
X12178571Y4838096D01*
X12226190Y4742858D01*
X12226190Y4361905D01*
X11797619Y5314286D02*
X11750000Y5361905D01*
X11702381Y5457143D01*
X11702381Y5695239D01*
X11750000Y5790477D01*
X11797619Y5838096D01*
X11892857Y5885715D01*
X11988095Y5885715D01*
X12130952Y5838096D01*
X12702381Y5266667D01*
X12702381Y5885715D01*
X62261905Y5047619D02*
X62261905Y6047619D01*
X62642858Y6047619D01*
X62738096Y6000000D01*
X62785715Y5952381D01*
X62833334Y5857143D01*
X62833334Y5714286D01*
X62785715Y5619048D01*
X62738096Y5571429D01*
X62642858Y5523810D01*
X62261905Y5523810D01*
X63166667Y6047619D02*
X63785715Y6047619D01*
X63452381Y5666667D01*
X63595239Y5666667D01*
X63690477Y5619048D01*
X63738096Y5571429D01*
X63785715Y5476190D01*
X63785715Y5238095D01*
X63738096Y5142857D01*
X63690477Y5095238D01*
X63595239Y5047619D01*
X63309524Y5047619D01*
X63214286Y5095238D01*
X63166667Y5142857D01*
X12702381Y14361905D02*
X11702381Y14361905D01*
X11702381Y14742858D01*
X11750000Y14838096D01*
X11797619Y14885715D01*
X11892857Y14933334D01*
X12035714Y14933334D01*
X12130952Y14885715D01*
X12178571Y14838096D01*
X12226190Y14742858D01*
X12226190Y14361905D01*
X11702381Y15838096D02*
X11702381Y15361905D01*
X12178571Y15314286D01*
X12130952Y15361905D01*
X12083333Y15457143D01*
X12083333Y15695239D01*
X12130952Y15790477D01*
X12178571Y15838096D01*
X12273810Y15885715D01*
X12511905Y15885715D01*
X12607143Y15838096D01*
X12654762Y15790477D01*
X12702381Y15695239D01*
X12702381Y15457143D01*
X12654762Y15361905D01*
X12607143Y15314286D01*
X12702381Y24361905D02*
X11702381Y24361905D01*
X11702381Y24742858D01*
X11750000Y24838096D01*
X11797619Y24885715D01*
X11892857Y24933334D01*
X12035714Y24933334D01*
X12130952Y24885715D01*
X12178571Y24838096D01*
X12226190Y24742858D01*
X12226190Y24361905D01*
X11702381Y25790477D02*
X11702381Y25600000D01*
X11750000Y25504762D01*
X11797619Y25457143D01*
X11940476Y25361905D01*
X12130952Y25314286D01*
X12511905Y25314286D01*
X12607143Y25361905D01*
X12654762Y25409524D01*
X12702381Y25504762D01*
X12702381Y25695239D01*
X12654762Y25790477D01*
X12607143Y25838096D01*
X12511905Y25885715D01*
X12273810Y25885715D01*
X12178571Y25838096D01*
X12130952Y25790477D01*
X12083333Y25695239D01*
X12083333Y25504762D01*
X12130952Y25409524D01*
X12178571Y25361905D01*
X12273810Y25314286D01*
X37452381Y10583334D02*
X36976190Y10250000D01*
X37452381Y10011905D02*
X36452381Y10011905D01*
X36452381Y10392858D01*
X36500000Y10488096D01*
X36547619Y10535715D01*
X36642857Y10583334D01*
X36785714Y10583334D01*
X36880952Y10535715D01*
X36928571Y10488096D01*
X36976190Y10392858D01*
X36976190Y10011905D01*
X36452381Y11440477D02*
X36452381Y11250000D01*
X36500000Y11154762D01*
X36547619Y11107143D01*
X36690476Y11011905D01*
X36880952Y10964286D01*
X37261905Y10964286D01*
X37357143Y11011905D01*
X37404762Y11059524D01*
X37452381Y11154762D01*
X37452381Y11345239D01*
X37404762Y11440477D01*
X37357143Y11488096D01*
X37261905Y11535715D01*
X37023810Y11535715D01*
X36928571Y11488096D01*
X36880952Y11440477D01*
X36833333Y11345239D01*
X36833333Y11154762D01*
X36880952Y11059524D01*
X36928571Y11011905D01*
X37023810Y10964286D01*
X36952381Y33833334D02*
X36476190Y33500000D01*
X36952381Y33261905D02*
X35952381Y33261905D01*
X35952381Y33642858D01*
X36000000Y33738096D01*
X36047619Y33785715D01*
X36142857Y33833334D01*
X36285714Y33833334D01*
X36380952Y33785715D01*
X36428571Y33738096D01*
X36476190Y33642858D01*
X36476190Y33261905D01*
X35952381Y34166667D02*
X35952381Y34833334D01*
X36952381Y34404762D01*
X28333334Y17797619D02*
X28000000Y18273810D01*
X27761905Y17797619D02*
X27761905Y18797619D01*
X28142858Y18797619D01*
X28238096Y18750000D01*
X28285715Y18702381D01*
X28333334Y18607143D01*
X28333334Y18464286D01*
X28285715Y18369048D01*
X28238096Y18321429D01*
X28142858Y18273810D01*
X27761905Y18273810D01*
X28904762Y18369048D02*
X28809524Y18416667D01*
X28761905Y18464286D01*
X28714286Y18559524D01*
X28714286Y18607143D01*
X28761905Y18702381D01*
X28809524Y18750000D01*
X28904762Y18797619D01*
X29095239Y18797619D01*
X29190477Y18750000D01*
X29238096Y18702381D01*
X29285715Y18607143D01*
X29285715Y18559524D01*
X29238096Y18464286D01*
X29190477Y18416667D01*
X29095239Y18369048D01*
X28904762Y18369048D01*
X28809524Y18321429D01*
X28761905Y18273810D01*
X28714286Y18178571D01*
X28714286Y17988095D01*
X28761905Y17892857D01*
X28809524Y17845238D01*
X28904762Y17797619D01*
X29095239Y17797619D01*
X29190477Y17845238D01*
X29238096Y17892857D01*
X29285715Y17988095D01*
X29285715Y18178571D01*
X29238096Y18273810D01*
X29190477Y18321429D01*
X29095239Y18369048D01*
X29333334Y42047619D02*
X29000000Y42523810D01*
X28761905Y42047619D02*
X28761905Y43047619D01*
X29142858Y43047619D01*
X29238096Y43000000D01*
X29285715Y42952381D01*
X29333334Y42857143D01*
X29333334Y42714286D01*
X29285715Y42619048D01*
X29238096Y42571429D01*
X29142858Y42523810D01*
X28761905Y42523810D01*
X29809524Y42047619D02*
X30000000Y42047619D01*
X30095239Y42095238D01*
X30142858Y42142857D01*
X30238096Y42285714D01*
X30285715Y42476190D01*
X30285715Y42857143D01*
X30238096Y42952381D01*
X30190477Y43000000D01*
X30095239Y43047619D01*
X29904762Y43047619D01*
X29809524Y43000000D01*
X29761905Y42952381D01*
X29714286Y42857143D01*
X29714286Y42619048D01*
X29761905Y42523810D01*
X29809524Y42476190D01*
X29904762Y42428571D01*
X30095239Y42428571D01*
X30190477Y42476190D01*
X30238096Y42523810D01*
X30285715Y42619048D01*
X18202381Y11607143D02*
X17726190Y11273809D01*
X18202381Y11035714D02*
X17202381Y11035714D01*
X17202381Y11416667D01*
X17250000Y11511905D01*
X17297619Y11559524D01*
X17392857Y11607143D01*
X17535714Y11607143D01*
X17630952Y11559524D01*
X17678571Y11511905D01*
X17726190Y11416667D01*
X17726190Y11035714D01*
X18202381Y12559524D02*
X18202381Y11988095D01*
X18202381Y12273809D02*
X17202381Y12273809D01*
X17345238Y12178571D01*
X17440476Y12083333D01*
X17488095Y11988095D01*
X17202381Y13178571D02*
X17202381Y13273810D01*
X17250000Y13369048D01*
X17297619Y13416667D01*
X17392857Y13464286D01*
X17583333Y13511905D01*
X17821429Y13511905D01*
X18011905Y13464286D01*
X18107143Y13416667D01*
X18154762Y13369048D01*
X18202381Y13273810D01*
X18202381Y13178571D01*
X18154762Y13083333D01*
X18107143Y13035714D01*
X18011905Y12988095D01*
X17821429Y12940476D01*
X17583333Y12940476D01*
X17392857Y12988095D01*
X17297619Y13035714D01*
X17250000Y13083333D01*
X17202381Y13178571D01*
X18202381Y33607143D02*
X17726190Y33273809D01*
X18202381Y33035714D02*
X17202381Y33035714D01*
X17202381Y33416667D01*
X17250000Y33511905D01*
X17297619Y33559524D01*
X17392857Y33607143D01*
X17535714Y33607143D01*
X17630952Y33559524D01*
X17678571Y33511905D01*
X17726190Y33416667D01*
X17726190Y33035714D01*
X18202381Y34559524D02*
X18202381Y33988095D01*
X18202381Y34273809D02*
X17202381Y34273809D01*
X17345238Y34178571D01*
X17440476Y34083333D01*
X17488095Y33988095D01*
X18202381Y35511905D02*
X18202381Y34940476D01*
X18202381Y35226190D02*
X17202381Y35226190D01*
X17345238Y35130952D01*
X17440476Y35035714D01*
X17488095Y34940476D01*
X77734762Y36396667D02*
X77782381Y36539524D01*
X77782381Y36777620D01*
X77734762Y36872858D01*
X77687143Y36920477D01*
X77591905Y36968096D01*
X77496667Y36968096D01*
X77401429Y36920477D01*
X77353810Y36872858D01*
X77306190Y36777620D01*
X77258571Y36587143D01*
X77210952Y36491905D01*
X77163333Y36444286D01*
X77068095Y36396667D01*
X76972857Y36396667D01*
X76877619Y36444286D01*
X76830000Y36491905D01*
X76782381Y36587143D01*
X76782381Y36825239D01*
X76830000Y36968096D01*
X76782381Y37301429D02*
X77782381Y37539524D01*
X77068095Y37730001D01*
X77782381Y37920477D01*
X76782381Y38158572D01*
X77782381Y39063334D02*
X77782381Y38491905D01*
X77782381Y38777619D02*
X76782381Y38777619D01*
X76925238Y38682381D01*
X77020476Y38587143D01*
X77068095Y38491905D01*
X50988095Y77619D02*
X50988095Y-731905D01*
X51035714Y-827143D01*
X51083333Y-874762D01*
X51178571Y-922381D01*
X51369048Y-922381D01*
X51464286Y-874762D01*
X51511905Y-827143D01*
X51559524Y-731905D01*
X51559524Y77619D01*
X52559524Y-922381D02*
X51988095Y-922381D01*
X52273809Y-922381D02*
X52273809Y77619D01*
X52178571Y-65238D01*
X52083333Y-160476D01*
X51988095Y-208095D01*
X50238095Y25077619D02*
X50238095Y24268095D01*
X50285714Y24172857D01*
X50333333Y24125238D01*
X50428571Y24077619D01*
X50619048Y24077619D01*
X50714286Y24125238D01*
X50761905Y24172857D01*
X50809524Y24268095D01*
X50809524Y25077619D01*
X51238095Y24982381D02*
X51285714Y25030000D01*
X51380952Y25077619D01*
X51619048Y25077619D01*
X51714286Y25030000D01*
X51761905Y24982381D01*
X51809524Y24887143D01*
X51809524Y24791905D01*
X51761905Y24649048D01*
X51190476Y24077619D01*
X51809524Y24077619D01*
X59015905Y30233619D02*
X59015905Y31233619D01*
X59254000Y31233619D01*
X59396858Y31186000D01*
X59492096Y31090762D01*
X59539715Y30995524D01*
X59587334Y30805048D01*
X59587334Y30662190D01*
X59539715Y30471714D01*
X59492096Y30376476D01*
X59396858Y30281238D01*
X59254000Y30233619D01*
X59015905Y30233619D01*
X59920667Y31233619D02*
X60539715Y31233619D01*
X60206381Y30852667D01*
X60349239Y30852667D01*
X60444477Y30805048D01*
X60492096Y30757429D01*
X60539715Y30662190D01*
X60539715Y30424095D01*
X60492096Y30328857D01*
X60444477Y30281238D01*
X60349239Y30233619D01*
X60063524Y30233619D01*
X59968286Y30281238D01*
X59920667Y30328857D01*
M02*
