M48
METRIC,TZ
T1C0.600
T2C0.700
T3C0.800
T4C1.000
T5C1.300
%
G90
G05
T1
X54.Y21.5
X54.5Y25.5
X55.25Y18.
X57.75Y7.
X59.25Y8.5
X60.Y21.
X60.Y14.25
X61.Y25.25
X62.75Y6.25
X63.Y8.75
X65.25Y9.75
X67.75Y10.5
X72.Y9.25
X72.25Y7.
X73.5Y25.75
T2
X21.75Y4.
X24.75Y26.5
X26.75Y4.
X29.75Y26.5
X44.Y16.75
X44.Y14.75
X44.5Y42.25
X44.5Y40.25
T3
X16.25Y43.75
X16.25Y24.75
X16.25Y21.75
X16.25Y2.75
X21.5Y19.75
X22.5Y44.
X35.5Y19.75
X36.5Y44.
X38.Y41.
X38.Y27.
X38.5Y17.75
X38.5Y3.75
X43.38Y34.83
X43.38Y32.29
X43.38Y29.75
X44.13Y9.83
X44.13Y7.29
X44.13Y4.75
X51.Y34.83
X51.Y32.29
X51.Y29.75
X51.75Y9.83
X51.75Y7.29
X51.75Y4.75
T4
X57.92Y3.
X58.23Y43.75
X58.23Y34.75
X60.46Y3.
X60.77Y43.75
X60.77Y34.75
X63.Y3.
X66.46Y3.
X68.999Y41.248
X68.999Y36.752
X69.Y3.
X74.96Y14.08
X74.96Y11.54
X74.96Y9.
X75.425Y41.248
X75.501Y36.752
X77.5Y14.08
X77.5Y11.54
X77.5Y9.
T5
X6.Y30.08
X6.Y25.
X6.Y20.08
X6.Y15.
X6.Y10.08
X6.Y5.
T0
M30
