G04 #@! TF.FileFunction,Legend,Bot*
%FSLAX46Y46*%
G04 Gerber Fmt 4.6, Leading zero omitted, Abs format (unit mm)*
G04 Created by KiCad (PCBNEW 4.0.4+dfsg1-stable) date Sun Feb  5 14:29:14 2017*
%MOMM*%
%LPD*%
G01*
G04 APERTURE LIST*
%ADD10C,0.100000*%
%ADD11C,0.150000*%
G04 APERTURE END LIST*
D10*
D11*
X60675000Y15425000D02*
X60675000Y15475000D01*
X64825000Y15425000D02*
X64825000Y15570000D01*
X64825000Y20575000D02*
X64825000Y20430000D01*
X60675000Y20575000D02*
X60675000Y20430000D01*
X60675000Y15425000D02*
X64825000Y15425000D01*
X60675000Y20575000D02*
X64825000Y20575000D01*
X60675000Y15475000D02*
X59275000Y15475000D01*
X63350000Y13600000D02*
X62650000Y13600000D01*
X62650000Y12400000D02*
X63350000Y12400000D01*
X63350000Y15100000D02*
X62650000Y15100000D01*
X62650000Y13900000D02*
X63350000Y13900000D01*
X71000000Y27000000D02*
X71000000Y25000000D01*
X71500000Y27000000D02*
X71500000Y25000000D01*
X71500000Y25000000D02*
X69000000Y25000000D01*
X69000000Y25000000D02*
X69000000Y27000000D01*
X69000000Y27000000D02*
X71500000Y27000000D01*
X73250000Y31175000D02*
X72250000Y31175000D01*
X72250000Y29825000D02*
X73250000Y29825000D01*
X73250000Y29425000D02*
X72250000Y29425000D01*
X72250000Y28075000D02*
X73250000Y28075000D01*
X68675000Y29250000D02*
X68675000Y30250000D01*
X67325000Y30250000D02*
X67325000Y29250000D01*
X70425000Y29250000D02*
X70425000Y30250000D01*
X69075000Y30250000D02*
X69075000Y29250000D01*
X55675000Y5750000D02*
X55675000Y6750000D01*
X54325000Y6750000D02*
X54325000Y5750000D01*
X53825000Y29000000D02*
X53825000Y28000000D01*
X55175000Y28000000D02*
X55175000Y29000000D01*
X74081620Y39000000D02*
G75*
G03X74081620Y39000000I-1831620J0D01*
G01*
X75552000Y36206000D02*
X75552000Y41794000D01*
X75552000Y41794000D02*
X68948000Y41794000D01*
X68948000Y41794000D02*
X68948000Y36206000D01*
X68948000Y36206000D02*
X75552000Y36206000D01*
X63726190Y14047619D02*
X63726190Y15047619D01*
X62678571Y14142857D02*
X62726190Y14095238D01*
X62869047Y14047619D01*
X62964285Y14047619D01*
X63107143Y14095238D01*
X63202381Y14190476D01*
X63250000Y14285714D01*
X63297619Y14476190D01*
X63297619Y14619048D01*
X63250000Y14809524D01*
X63202381Y14904762D01*
X63107143Y15000000D01*
X62964285Y15047619D01*
X62869047Y15047619D01*
X62726190Y15000000D01*
X62678571Y14952381D01*
X61726190Y14047619D02*
X62297619Y14047619D01*
X62011905Y14047619D02*
X62011905Y15047619D01*
X62107143Y14904762D01*
X62202381Y14809524D01*
X62297619Y14761905D01*
X63166666Y14542857D02*
X63214285Y14495238D01*
X63357142Y14447619D01*
X63452380Y14447619D01*
X63595238Y14495238D01*
X63690476Y14590476D01*
X63738095Y14685714D01*
X63785714Y14876190D01*
X63785714Y15019048D01*
X63738095Y15209524D01*
X63690476Y15304762D01*
X63595238Y15400000D01*
X63452380Y15447619D01*
X63357142Y15447619D01*
X63214285Y15400000D01*
X63166666Y15352381D01*
X62214285Y14447619D02*
X62785714Y14447619D01*
X62500000Y14447619D02*
X62500000Y15447619D01*
X62595238Y15304762D01*
X62690476Y15209524D01*
X62785714Y15161905D01*
X63166666Y16042857D02*
X63214285Y15995238D01*
X63357142Y15947619D01*
X63452380Y15947619D01*
X63595238Y15995238D01*
X63690476Y16090476D01*
X63738095Y16185714D01*
X63785714Y16376190D01*
X63785714Y16519048D01*
X63738095Y16709524D01*
X63690476Y16804762D01*
X63595238Y16900000D01*
X63452380Y16947619D01*
X63357142Y16947619D01*
X63214285Y16900000D01*
X63166666Y16852381D01*
X62785714Y16852381D02*
X62738095Y16900000D01*
X62642857Y16947619D01*
X62404761Y16947619D01*
X62309523Y16900000D01*
X62261904Y16852381D01*
X62214285Y16757143D01*
X62214285Y16661905D01*
X62261904Y16519048D01*
X62833333Y15947619D01*
X62214285Y15947619D01*
X70738095Y23547619D02*
X70738095Y24547619D01*
X70500000Y24547619D01*
X70357142Y24500000D01*
X70261904Y24404762D01*
X70214285Y24309524D01*
X70166666Y24119048D01*
X70166666Y23976190D01*
X70214285Y23785714D01*
X70261904Y23690476D01*
X70357142Y23595238D01*
X70500000Y23547619D01*
X70738095Y23547619D01*
X69214285Y23547619D02*
X69785714Y23547619D01*
X69500000Y23547619D02*
X69500000Y24547619D01*
X69595238Y24404762D01*
X69690476Y24309524D01*
X69785714Y24261905D01*
X73488095Y28147619D02*
X73488095Y29147619D01*
X73250000Y29147619D01*
X73107142Y29100000D01*
X73011904Y29004762D01*
X72964285Y28909524D01*
X72916666Y28719048D01*
X72916666Y28576190D01*
X72964285Y28385714D01*
X73011904Y28290476D01*
X73107142Y28195238D01*
X73250000Y28147619D01*
X73488095Y28147619D01*
X72535714Y29052381D02*
X72488095Y29100000D01*
X72392857Y29147619D01*
X72154761Y29147619D01*
X72059523Y29100000D01*
X72011904Y29052381D01*
X71964285Y28957143D01*
X71964285Y28861905D01*
X72011904Y28719048D01*
X72583333Y28147619D01*
X71964285Y28147619D01*
X72916666Y26397619D02*
X73250000Y26873810D01*
X73488095Y26397619D02*
X73488095Y27397619D01*
X73107142Y27397619D01*
X73011904Y27350000D01*
X72964285Y27302381D01*
X72916666Y27207143D01*
X72916666Y27064286D01*
X72964285Y26969048D01*
X73011904Y26921429D01*
X73107142Y26873810D01*
X73488095Y26873810D01*
X71964285Y26397619D02*
X72535714Y26397619D01*
X72250000Y26397619D02*
X72250000Y27397619D01*
X72345238Y27254762D01*
X72440476Y27159524D01*
X72535714Y27111905D01*
X66552381Y29916666D02*
X66076190Y30250000D01*
X66552381Y30488095D02*
X65552381Y30488095D01*
X65552381Y30107142D01*
X65600000Y30011904D01*
X65647619Y29964285D01*
X65742857Y29916666D01*
X65885714Y29916666D01*
X65980952Y29964285D01*
X66028571Y30011904D01*
X66076190Y30107142D01*
X66076190Y30488095D01*
X65647619Y29535714D02*
X65600000Y29488095D01*
X65552381Y29392857D01*
X65552381Y29154761D01*
X65600000Y29059523D01*
X65647619Y29011904D01*
X65742857Y28964285D01*
X65838095Y28964285D01*
X65980952Y29011904D01*
X66552381Y29583333D01*
X66552381Y28964285D01*
X68302381Y29916666D02*
X67826190Y30250000D01*
X68302381Y30488095D02*
X67302381Y30488095D01*
X67302381Y30107142D01*
X67350000Y30011904D01*
X67397619Y29964285D01*
X67492857Y29916666D01*
X67635714Y29916666D01*
X67730952Y29964285D01*
X67778571Y30011904D01*
X67826190Y30107142D01*
X67826190Y30488095D01*
X67302381Y29583333D02*
X67302381Y28964285D01*
X67683333Y29297619D01*
X67683333Y29154761D01*
X67730952Y29059523D01*
X67778571Y29011904D01*
X67873810Y28964285D01*
X68111905Y28964285D01*
X68207143Y29011904D01*
X68254762Y29059523D01*
X68302381Y29154761D01*
X68302381Y29440476D01*
X68254762Y29535714D01*
X68207143Y29583333D01*
X53552381Y6416666D02*
X53076190Y6750000D01*
X53552381Y6988095D02*
X52552381Y6988095D01*
X52552381Y6607142D01*
X52600000Y6511904D01*
X52647619Y6464285D01*
X52742857Y6416666D01*
X52885714Y6416666D01*
X52980952Y6464285D01*
X53028571Y6511904D01*
X53076190Y6607142D01*
X53076190Y6988095D01*
X52885714Y5559523D02*
X53552381Y5559523D01*
X52504762Y5797619D02*
X53219048Y6035714D01*
X53219048Y5416666D01*
X56852381Y28666666D02*
X56376190Y29000000D01*
X56852381Y29238095D02*
X55852381Y29238095D01*
X55852381Y28857142D01*
X55900000Y28761904D01*
X55947619Y28714285D01*
X56042857Y28666666D01*
X56185714Y28666666D01*
X56280952Y28714285D01*
X56328571Y28761904D01*
X56376190Y28857142D01*
X56376190Y29238095D01*
X55852381Y27761904D02*
X55852381Y28238095D01*
X56328571Y28285714D01*
X56280952Y28238095D01*
X56233333Y28142857D01*
X56233333Y27904761D01*
X56280952Y27809523D01*
X56328571Y27761904D01*
X56423810Y27714285D01*
X56661905Y27714285D01*
X56757143Y27761904D01*
X56804762Y27809523D01*
X56852381Y27904761D01*
X56852381Y28142857D01*
X56804762Y28238095D01*
X56757143Y28285714D01*
X35752381Y14361905D02*
X36561905Y14361905D01*
X36657143Y14314286D01*
X36704762Y14266667D01*
X36752381Y14171429D01*
X36752381Y13980952D01*
X36704762Y13885714D01*
X36657143Y13838095D01*
X36561905Y13790476D01*
X35752381Y13790476D01*
X35752381Y13409524D02*
X35752381Y12790476D01*
X36133333Y13123810D01*
X36133333Y12980952D01*
X36180952Y12885714D01*
X36228571Y12838095D01*
X36323810Y12790476D01*
X36561905Y12790476D01*
X36657143Y12838095D01*
X36704762Y12885714D01*
X36752381Y12980952D01*
X36752381Y13266667D01*
X36704762Y13361905D01*
X36657143Y13409524D01*
X34752381Y37611905D02*
X35561905Y37611905D01*
X35657143Y37564286D01*
X35704762Y37516667D01*
X35752381Y37421429D01*
X35752381Y37230952D01*
X35704762Y37135714D01*
X35657143Y37088095D01*
X35561905Y37040476D01*
X34752381Y37040476D01*
X35085714Y36135714D02*
X35752381Y36135714D01*
X34704762Y36373810D02*
X35419048Y36611905D01*
X35419048Y35992857D01*
M02*
