G04 #@! TF.FileFunction,Copper,L1,Top,Signal*
%FSLAX46Y46*%
G04 Gerber Fmt 4.6, Leading zero omitted, Abs format (unit mm)*
G04 Created by KiCad (PCBNEW 4.0.4+dfsg1-stable) date Mon Feb 27 19:18:29 2017*
%MOMM*%
%LPD*%
G01*
G04 APERTURE LIST*
%ADD10C,0.100000*%
%ADD11C,0.300000*%
%ADD12C,1.700000*%
%ADD13R,1.800000X1.800000*%
%ADD14O,1.800000X1.800000*%
%ADD15C,1.800000*%
%ADD16C,2.000000*%
%ADD17C,1.500000*%
%ADD18R,2.000000X2.000000*%
%ADD19R,2.500000X2.500000*%
%ADD20C,2.500000*%
%ADD21O,2.300000X1.600000*%
%ADD22C,1.100000*%
%ADD23C,0.250000*%
%ADD24C,0.254000*%
G04 APERTURE END LIST*
D10*
D11*
X6403571Y32678571D02*
X7617857Y32678571D01*
X7760714Y32749999D01*
X7832143Y32821428D01*
X7903571Y32964285D01*
X7903571Y33249999D01*
X7832143Y33392857D01*
X7760714Y33464285D01*
X7617857Y33535714D01*
X6403571Y33535714D01*
X7903571Y35107143D02*
X7189286Y34607143D01*
X7903571Y34250000D02*
X6403571Y34250000D01*
X6403571Y34821428D01*
X6475000Y34964286D01*
X6546429Y35035714D01*
X6689286Y35107143D01*
X6903571Y35107143D01*
X7046429Y35035714D01*
X7117857Y34964286D01*
X7189286Y34821428D01*
X7189286Y34250000D01*
X6903571Y36892857D02*
X8403571Y36892857D01*
X6975000Y36892857D02*
X6903571Y37035714D01*
X6903571Y37321428D01*
X6975000Y37464285D01*
X7046429Y37535714D01*
X7189286Y37607143D01*
X7617857Y37607143D01*
X7760714Y37535714D01*
X7832143Y37464285D01*
X7903571Y37321428D01*
X7903571Y37035714D01*
X7832143Y36892857D01*
X7903571Y38464286D02*
X7832143Y38321428D01*
X7760714Y38250000D01*
X7617857Y38178571D01*
X7189286Y38178571D01*
X7046429Y38250000D01*
X6975000Y38321428D01*
X6903571Y38464286D01*
X6903571Y38678571D01*
X6975000Y38821428D01*
X7046429Y38892857D01*
X7189286Y38964286D01*
X7617857Y38964286D01*
X7760714Y38892857D01*
X7832143Y38821428D01*
X7903571Y38678571D01*
X7903571Y38464286D01*
X6903571Y39464286D02*
X7903571Y39750000D01*
X7189286Y40035714D01*
X7903571Y40321429D01*
X6903571Y40607143D01*
X8046429Y40821429D02*
X8046429Y41964286D01*
X7903571Y42535715D02*
X7832143Y42392857D01*
X7760714Y42321429D01*
X7617857Y42250000D01*
X7189286Y42250000D01*
X7046429Y42321429D01*
X6975000Y42392857D01*
X6903571Y42535715D01*
X6903571Y42750000D01*
X6975000Y42892857D01*
X7046429Y42964286D01*
X7189286Y43035715D01*
X7617857Y43035715D01*
X7760714Y42964286D01*
X7832143Y42892857D01*
X7903571Y42750000D01*
X7903571Y42535715D01*
X6903571Y44321429D02*
X7903571Y44321429D01*
X6903571Y43678572D02*
X7689286Y43678572D01*
X7832143Y43750000D01*
X7903571Y43892858D01*
X7903571Y44107143D01*
X7832143Y44250000D01*
X7760714Y44321429D01*
X6903571Y44821429D02*
X6903571Y45392858D01*
X6403571Y45035715D02*
X7689286Y45035715D01*
X7832143Y45107143D01*
X7903571Y45250001D01*
X7903571Y45392858D01*
X9453571Y31035716D02*
X10453571Y31392859D01*
X9453571Y31750001D01*
X10453571Y33107144D02*
X10453571Y32250001D01*
X10453571Y32678573D02*
X8953571Y32678573D01*
X9167857Y32535716D01*
X9310714Y32392858D01*
X9382143Y32250001D01*
X10310714Y33750001D02*
X10382143Y33821429D01*
X10453571Y33750001D01*
X10382143Y33678572D01*
X10310714Y33750001D01*
X10453571Y33750001D01*
X10453571Y35250001D02*
X10453571Y34392858D01*
X10453571Y34821430D02*
X8953571Y34821430D01*
X9167857Y34678573D01*
X9310714Y34535715D01*
X9382143Y34392858D01*
X9667857Y37535715D02*
X9667857Y37035715D01*
X10453571Y37035715D02*
X8953571Y37035715D01*
X8953571Y37750001D01*
X10382143Y38892857D02*
X10453571Y38750000D01*
X10453571Y38464286D01*
X10382143Y38321429D01*
X10239286Y38250000D01*
X9667857Y38250000D01*
X9525000Y38321429D01*
X9453571Y38464286D01*
X9453571Y38750000D01*
X9525000Y38892857D01*
X9667857Y38964286D01*
X9810714Y38964286D01*
X9953571Y38250000D01*
X10453571Y39607143D02*
X8953571Y39607143D01*
X9525000Y39607143D02*
X9453571Y39750000D01*
X9453571Y40035714D01*
X9525000Y40178571D01*
X9596429Y40250000D01*
X9739286Y40321429D01*
X10167857Y40321429D01*
X10310714Y40250000D01*
X10382143Y40178571D01*
X10453571Y40035714D01*
X10453571Y39750000D01*
X10382143Y39607143D01*
X10310714Y40964286D02*
X10382143Y41035714D01*
X10453571Y40964286D01*
X10382143Y40892857D01*
X10310714Y40964286D01*
X10453571Y40964286D01*
X9096429Y42750000D02*
X9025000Y42821429D01*
X8953571Y42964286D01*
X8953571Y43321429D01*
X9025000Y43464286D01*
X9096429Y43535715D01*
X9239286Y43607143D01*
X9382143Y43607143D01*
X9596429Y43535715D01*
X10453571Y42678572D01*
X10453571Y43607143D01*
X8953571Y44535714D02*
X8953571Y44678571D01*
X9025000Y44821428D01*
X9096429Y44892857D01*
X9239286Y44964286D01*
X9525000Y45035714D01*
X9882143Y45035714D01*
X10167857Y44964286D01*
X10310714Y44892857D01*
X10382143Y44821428D01*
X10453571Y44678571D01*
X10453571Y44535714D01*
X10382143Y44392857D01*
X10310714Y44321428D01*
X10167857Y44250000D01*
X9882143Y44178571D01*
X9525000Y44178571D01*
X9239286Y44250000D01*
X9096429Y44321428D01*
X9025000Y44392857D01*
X8953571Y44535714D01*
X10453571Y46464285D02*
X10453571Y45607142D01*
X10453571Y46035714D02*
X8953571Y46035714D01*
X9167857Y45892857D01*
X9310714Y45749999D01*
X9382143Y45607142D01*
X8953571Y46964285D02*
X8953571Y47964285D01*
X10453571Y47321428D01*
D12*
X38500000Y17750000D03*
X38500000Y3750000D03*
D13*
X77500000Y9000000D03*
D14*
X74960000Y9000000D03*
X77500000Y11540000D03*
D15*
X74960000Y11540000D03*
D14*
X77500000Y14080000D03*
D15*
X74960000Y14080000D03*
D16*
X60770000Y43750000D03*
X58230000Y43750000D03*
D17*
X44000000Y16750000D03*
X44000000Y14750000D03*
X44500000Y42250000D03*
X44500000Y40250000D03*
X21750000Y4000000D03*
X26750000Y4000000D03*
X24750000Y26500000D03*
X29750000Y26500000D03*
D18*
X69000000Y3000000D03*
D16*
X66460000Y3000000D03*
D19*
X6000000Y5000000D03*
D20*
X6000000Y10080000D03*
D18*
X63000000Y3000000D03*
D16*
X60460000Y3000000D03*
X57920000Y3000000D03*
D19*
X6000000Y15000000D03*
D20*
X6000000Y20080000D03*
D19*
X6000000Y25000000D03*
D20*
X6000000Y30080000D03*
D12*
X38000000Y41000000D03*
X38000000Y27000000D03*
X21500000Y19750000D03*
X35500000Y19750000D03*
X22500000Y44000000D03*
X36500000Y44000000D03*
X16250000Y2750000D03*
X16250000Y21750000D03*
X16250000Y24750000D03*
X16250000Y43750000D03*
D21*
X51750000Y4750000D03*
X51750000Y7290000D03*
X51750000Y9830000D03*
X44130000Y9830000D03*
X44130000Y7290000D03*
X44130000Y4750000D03*
X51000000Y29750000D03*
X51000000Y32290000D03*
X51000000Y34830000D03*
X43380000Y34830000D03*
X43380000Y32290000D03*
X43380000Y29750000D03*
D16*
X60770000Y34750000D03*
X58230000Y34750000D03*
X75501200Y36752100D03*
X68998800Y36752100D03*
X75425000Y41247900D03*
X68998800Y41247900D03*
D22*
X54500000Y25500000D03*
X61000000Y25250000D03*
X54000000Y21500000D03*
X55250000Y18000000D03*
X72000000Y9250000D03*
X65250000Y9750000D03*
X57750000Y7000000D03*
X62750000Y6250000D03*
X73500000Y25750000D03*
X60000000Y14250000D03*
X60000000Y21000000D03*
X59250000Y8500000D03*
X63000000Y8750000D03*
X72250000Y7000000D03*
X67750000Y10500000D03*
D11*
X54750000Y25250000D02*
X61000000Y25250000D01*
X54500000Y25500000D02*
X54750000Y25250000D01*
X54000000Y19250000D02*
X54000000Y21500000D01*
X55250000Y18000000D02*
X54000000Y19250000D01*
D23*
X72000000Y9250000D02*
X71750000Y9500000D01*
X71750000Y9500000D02*
X65500000Y9500000D01*
X65500000Y9500000D02*
X65250000Y9750000D01*
D11*
X62000000Y7000000D02*
X57750000Y7000000D01*
X62750000Y6250000D02*
X62000000Y7000000D01*
D23*
X70500000Y8750000D02*
X63000000Y8750000D01*
X72250000Y7000000D02*
X70500000Y8750000D01*
X77500000Y11540000D02*
X77040000Y11540000D01*
X77040000Y11540000D02*
X75750000Y10250000D01*
X75750000Y10250000D02*
X68000000Y10250000D01*
X68000000Y10250000D02*
X67750000Y10500000D01*
D24*
G36*
X80290000Y710000D02*
X53127000Y710000D01*
X53127000Y1847468D01*
X56947073Y1847468D01*
X57045736Y1580613D01*
X57655461Y1354092D01*
X58305460Y1378144D01*
X58794264Y1580613D01*
X58892927Y1847468D01*
X57920000Y2820395D01*
X56947073Y1847468D01*
X53127000Y1847468D01*
X53127000Y3264539D01*
X56274092Y3264539D01*
X56298144Y2614540D01*
X56500613Y2125736D01*
X56767468Y2027073D01*
X57740395Y3000000D01*
X58099605Y3000000D01*
X59072532Y2027073D01*
X59107938Y2040164D01*
X59532637Y1614722D01*
X60133352Y1365284D01*
X60783795Y1364716D01*
X61384943Y1613106D01*
X61451574Y1679621D01*
X61535910Y1548559D01*
X61748110Y1403569D01*
X62000000Y1352560D01*
X64000000Y1352560D01*
X64235317Y1396838D01*
X64451441Y1535910D01*
X64596431Y1748110D01*
X64647440Y2000000D01*
X64647440Y2676205D01*
X64824716Y2676205D01*
X65073106Y2075057D01*
X65532637Y1614722D01*
X66133352Y1365284D01*
X66783795Y1364716D01*
X67384943Y1613106D01*
X67451574Y1679621D01*
X67535910Y1548559D01*
X67748110Y1403569D01*
X68000000Y1352560D01*
X70000000Y1352560D01*
X70235317Y1396838D01*
X70451441Y1535910D01*
X70596431Y1748110D01*
X70647440Y2000000D01*
X70647440Y4000000D01*
X70603162Y4235317D01*
X70464090Y4451441D01*
X70251890Y4596431D01*
X70000000Y4647440D01*
X68000000Y4647440D01*
X67764683Y4603162D01*
X67548559Y4464090D01*
X67451090Y4321439D01*
X67387363Y4385278D01*
X66786648Y4634716D01*
X66136205Y4635284D01*
X65535057Y4386894D01*
X65074722Y3927363D01*
X64825284Y3326648D01*
X64824716Y2676205D01*
X64647440Y2676205D01*
X64647440Y4000000D01*
X64603162Y4235317D01*
X64464090Y4451441D01*
X64251890Y4596431D01*
X64000000Y4647440D01*
X62000000Y4647440D01*
X61764683Y4603162D01*
X61548559Y4464090D01*
X61451090Y4321439D01*
X61387363Y4385278D01*
X60786648Y4634716D01*
X60136205Y4635284D01*
X59535057Y4386894D01*
X59107438Y3960022D01*
X59072532Y3972927D01*
X58099605Y3000000D01*
X57740395Y3000000D01*
X56767468Y3972927D01*
X56500613Y3874264D01*
X56274092Y3264539D01*
X53127000Y3264539D01*
X53127000Y3720156D01*
X53149668Y3735302D01*
X53428452Y4152532D01*
X56947073Y4152532D01*
X57920000Y3179605D01*
X58892927Y4152532D01*
X58794264Y4419387D01*
X58184539Y4645908D01*
X57534540Y4621856D01*
X57045736Y4419387D01*
X56947073Y4152532D01*
X53428452Y4152532D01*
X53460737Y4200849D01*
X53569970Y4750000D01*
X53460737Y5299151D01*
X53149668Y5764698D01*
X53127000Y5779844D01*
X53127000Y6260156D01*
X53149668Y6275302D01*
X53460737Y6740849D01*
X53465605Y6765323D01*
X56564794Y6765323D01*
X56744820Y6329628D01*
X57077875Y5995991D01*
X57513255Y5815206D01*
X57984677Y5814794D01*
X58420372Y5994820D01*
X58640937Y6215000D01*
X61564969Y6215000D01*
X61564794Y6015323D01*
X61744820Y5579628D01*
X62077875Y5245991D01*
X62513255Y5065206D01*
X62984677Y5064794D01*
X63420372Y5244820D01*
X63754009Y5577875D01*
X63934794Y6013255D01*
X63935206Y6484677D01*
X63755180Y6920372D01*
X63422125Y7254009D01*
X62986745Y7434794D01*
X62675092Y7435066D01*
X62555079Y7555079D01*
X62300407Y7725245D01*
X62000000Y7785000D01*
X58640752Y7785000D01*
X58422125Y8004009D01*
X57986745Y8184794D01*
X57515323Y8185206D01*
X57079628Y8005180D01*
X56745991Y7672125D01*
X56565206Y7236745D01*
X56564794Y6765323D01*
X53465605Y6765323D01*
X53569970Y7290000D01*
X53460737Y7839151D01*
X53149668Y8304698D01*
X53127000Y8319844D01*
X53127000Y8515323D01*
X61814794Y8515323D01*
X61994820Y8079628D01*
X62327875Y7745991D01*
X62763255Y7565206D01*
X63234677Y7564794D01*
X63670372Y7744820D01*
X63915980Y7990000D01*
X70185198Y7990000D01*
X71065095Y7110103D01*
X71064794Y6765323D01*
X71244820Y6329628D01*
X71577875Y5995991D01*
X72013255Y5815206D01*
X72484677Y5814794D01*
X72920372Y5994820D01*
X73254009Y6327875D01*
X73434794Y6763255D01*
X73435206Y7234677D01*
X73255180Y7670372D01*
X72922125Y8004009D01*
X72505874Y8176851D01*
X72670372Y8244820D01*
X73004009Y8577875D01*
X73184794Y9013255D01*
X73185206Y9484677D01*
X73183007Y9490000D01*
X73516485Y9490000D01*
X73425000Y9030072D01*
X73425000Y8969928D01*
X73541845Y8382509D01*
X73874591Y7884519D01*
X74372581Y7551773D01*
X74960000Y7434928D01*
X75547419Y7551773D01*
X76002516Y7855859D01*
X76135910Y7648559D01*
X76348110Y7503569D01*
X76600000Y7452560D01*
X78400000Y7452560D01*
X78635317Y7496838D01*
X78851441Y7635910D01*
X78996431Y7848110D01*
X79047440Y8100000D01*
X79047440Y9900000D01*
X79003162Y10135317D01*
X78864090Y10351441D01*
X78651890Y10496431D01*
X78635656Y10499719D01*
X78918155Y10922509D01*
X79035000Y11509928D01*
X79035000Y11570072D01*
X78918155Y12157491D01*
X78585409Y12655481D01*
X78354155Y12810000D01*
X78585409Y12964519D01*
X78918155Y13462509D01*
X79035000Y14049928D01*
X79035000Y14110072D01*
X78918155Y14697491D01*
X78585409Y15195481D01*
X78087419Y15528227D01*
X77500000Y15645072D01*
X76912581Y15528227D01*
X76414591Y15195481D01*
X76228570Y14917081D01*
X76040159Y14980554D01*
X75139605Y14080000D01*
X76040159Y13179446D01*
X76228570Y13242919D01*
X76414591Y12964519D01*
X76645845Y12810000D01*
X76414591Y12655481D01*
X76254526Y12415926D01*
X75830643Y12840551D01*
X75809806Y12849203D01*
X75860554Y12999841D01*
X74960000Y13900395D01*
X74059446Y12999841D01*
X74110035Y12849673D01*
X74091629Y12842068D01*
X73659449Y12410643D01*
X73425267Y11846670D01*
X73424735Y11236009D01*
X73518120Y11010000D01*
X68821445Y11010000D01*
X68755180Y11170372D01*
X68422125Y11504009D01*
X67986745Y11684794D01*
X67515323Y11685206D01*
X67079628Y11505180D01*
X66745991Y11172125D01*
X66565206Y10736745D01*
X66564794Y10265323D01*
X66566993Y10260000D01*
X66321445Y10260000D01*
X66255180Y10420372D01*
X65922125Y10754009D01*
X65486745Y10934794D01*
X65015323Y10935206D01*
X64579628Y10755180D01*
X64245991Y10422125D01*
X64065206Y9986745D01*
X64064794Y9515323D01*
X64066993Y9510000D01*
X63915708Y9510000D01*
X63672125Y9754009D01*
X63236745Y9934794D01*
X62765323Y9935206D01*
X62329628Y9755180D01*
X61995991Y9422125D01*
X61815206Y8986745D01*
X61814794Y8515323D01*
X53127000Y8515323D01*
X53127000Y8800156D01*
X53149668Y8815302D01*
X53460737Y9280849D01*
X53569970Y9830000D01*
X53460737Y10379151D01*
X53149668Y10844698D01*
X53127000Y10859844D01*
X53127000Y14320664D01*
X73413542Y14320664D01*
X73439161Y13710540D01*
X73623357Y13265852D01*
X73879841Y13179446D01*
X74780395Y14080000D01*
X73879841Y14980554D01*
X73623357Y14894148D01*
X73413542Y14320664D01*
X53127000Y14320664D01*
X53127000Y15160159D01*
X74059446Y15160159D01*
X74960000Y14259605D01*
X75860554Y15160159D01*
X75774148Y15416643D01*
X75200664Y15626458D01*
X74590540Y15600839D01*
X74145852Y15416643D01*
X74059446Y15160159D01*
X53127000Y15160159D01*
X53127000Y20697217D01*
X53215000Y20609063D01*
X53215000Y19250000D01*
X53274755Y18949593D01*
X53444921Y18694921D01*
X54065064Y18074778D01*
X54064794Y17765323D01*
X54244820Y17329628D01*
X54577875Y16995991D01*
X55013255Y16815206D01*
X55484677Y16814794D01*
X55920372Y16994820D01*
X56254009Y17327875D01*
X56434794Y17763255D01*
X56435206Y18234677D01*
X56255180Y18670372D01*
X55922125Y19004009D01*
X55486745Y19184794D01*
X55175092Y19185066D01*
X54785000Y19575158D01*
X54785000Y20609248D01*
X55004009Y20827875D01*
X55184794Y21263255D01*
X55185206Y21734677D01*
X55005180Y22170372D01*
X54672125Y22504009D01*
X54236745Y22684794D01*
X53765323Y22685206D01*
X53329628Y22505180D01*
X53127000Y22302905D01*
X53127000Y25265323D01*
X53314794Y25265323D01*
X53494820Y24829628D01*
X53827875Y24495991D01*
X54263255Y24315206D01*
X54734677Y24314794D01*
X55098202Y24465000D01*
X60109248Y24465000D01*
X60327875Y24245991D01*
X60763255Y24065206D01*
X61234677Y24064794D01*
X61670372Y24244820D01*
X62004009Y24577875D01*
X62184794Y25013255D01*
X62185206Y25484677D01*
X62005180Y25920372D01*
X61672125Y26254009D01*
X61236745Y26434794D01*
X60765323Y26435206D01*
X60329628Y26255180D01*
X60109063Y26035000D01*
X55561115Y26035000D01*
X55505180Y26170372D01*
X55172125Y26504009D01*
X54736745Y26684794D01*
X54265323Y26685206D01*
X53829628Y26505180D01*
X53495991Y26172125D01*
X53315206Y25736745D01*
X53314794Y25265323D01*
X53127000Y25265323D01*
X53127000Y34426205D01*
X56594716Y34426205D01*
X56843106Y33825057D01*
X57302637Y33364722D01*
X57903352Y33115284D01*
X58553795Y33114716D01*
X59154943Y33363106D01*
X59500199Y33707759D01*
X59842637Y33364722D01*
X60443352Y33115284D01*
X61093795Y33114716D01*
X61694943Y33363106D01*
X62155278Y33822637D01*
X62404716Y34423352D01*
X62405284Y35073795D01*
X62156894Y35674943D01*
X61697363Y36135278D01*
X61096648Y36384716D01*
X60446205Y36385284D01*
X59845057Y36136894D01*
X59499801Y35792241D01*
X59157363Y36135278D01*
X58556648Y36384716D01*
X57906205Y36385284D01*
X57305057Y36136894D01*
X56844722Y35677363D01*
X56595284Y35076648D01*
X56594716Y34426205D01*
X53127000Y34426205D01*
X53127000Y36428305D01*
X67363516Y36428305D01*
X67611906Y35827157D01*
X68071437Y35366822D01*
X68672152Y35117384D01*
X69322595Y35116816D01*
X69923743Y35365206D01*
X70384078Y35824737D01*
X70633516Y36425452D01*
X70633518Y36428305D01*
X73865916Y36428305D01*
X74114306Y35827157D01*
X74573837Y35366822D01*
X75174552Y35117384D01*
X75824995Y35116816D01*
X76426143Y35365206D01*
X76886478Y35824737D01*
X77135916Y36425452D01*
X77136484Y37075895D01*
X76888094Y37677043D01*
X76428563Y38137378D01*
X75827848Y38386816D01*
X75177405Y38387384D01*
X74576257Y38138994D01*
X74115922Y37679463D01*
X73866484Y37078748D01*
X73865916Y36428305D01*
X70633518Y36428305D01*
X70634084Y37075895D01*
X70385694Y37677043D01*
X69926163Y38137378D01*
X69325448Y38386816D01*
X68675005Y38387384D01*
X68073857Y38138994D01*
X67613522Y37679463D01*
X67364084Y37078748D01*
X67363516Y36428305D01*
X53127000Y36428305D01*
X53127000Y40095368D01*
X68025873Y40095368D01*
X68124536Y39828513D01*
X68734261Y39601992D01*
X69384260Y39626044D01*
X69873064Y39828513D01*
X69971727Y40095368D01*
X74452073Y40095368D01*
X74550736Y39828513D01*
X75160461Y39601992D01*
X75810460Y39626044D01*
X76299264Y39828513D01*
X76397927Y40095368D01*
X75425000Y41068295D01*
X74452073Y40095368D01*
X69971727Y40095368D01*
X68998800Y41068295D01*
X68025873Y40095368D01*
X53127000Y40095368D01*
X53127000Y41512439D01*
X67352892Y41512439D01*
X67376944Y40862440D01*
X67579413Y40373636D01*
X67846268Y40274973D01*
X68819195Y41247900D01*
X69178405Y41247900D01*
X70151332Y40274973D01*
X70418187Y40373636D01*
X70644708Y40983361D01*
X70625131Y41512439D01*
X73779092Y41512439D01*
X73803144Y40862440D01*
X74005613Y40373636D01*
X74272468Y40274973D01*
X75245395Y41247900D01*
X75604605Y41247900D01*
X76577532Y40274973D01*
X76844387Y40373636D01*
X77070908Y40983361D01*
X77046856Y41633360D01*
X76844387Y42122164D01*
X76577532Y42220827D01*
X75604605Y41247900D01*
X75245395Y41247900D01*
X74272468Y42220827D01*
X74005613Y42122164D01*
X73779092Y41512439D01*
X70625131Y41512439D01*
X70620656Y41633360D01*
X70418187Y42122164D01*
X70151332Y42220827D01*
X69178405Y41247900D01*
X68819195Y41247900D01*
X67846268Y42220827D01*
X67579413Y42122164D01*
X67352892Y41512439D01*
X53127000Y41512439D01*
X53127000Y43426205D01*
X56594716Y43426205D01*
X56843106Y42825057D01*
X57302637Y42364722D01*
X57903352Y42115284D01*
X58553795Y42114716D01*
X59154943Y42363106D01*
X59500199Y42707759D01*
X59842637Y42364722D01*
X60443352Y42115284D01*
X61093795Y42114716D01*
X61694943Y42363106D01*
X61732334Y42400432D01*
X68025873Y42400432D01*
X68998800Y41427505D01*
X69971727Y42400432D01*
X74452073Y42400432D01*
X75425000Y41427505D01*
X76397927Y42400432D01*
X76299264Y42667287D01*
X75689539Y42893808D01*
X75039540Y42869756D01*
X74550736Y42667287D01*
X74452073Y42400432D01*
X69971727Y42400432D01*
X69873064Y42667287D01*
X69263339Y42893808D01*
X68613340Y42869756D01*
X68124536Y42667287D01*
X68025873Y42400432D01*
X61732334Y42400432D01*
X62155278Y42822637D01*
X62404716Y43423352D01*
X62405284Y44073795D01*
X62156894Y44674943D01*
X61697363Y45135278D01*
X61096648Y45384716D01*
X60446205Y45385284D01*
X59845057Y45136894D01*
X59499801Y44792241D01*
X59157363Y45135278D01*
X58556648Y45384716D01*
X57906205Y45385284D01*
X57305057Y45136894D01*
X56844722Y44677363D01*
X56595284Y44076648D01*
X56594716Y43426205D01*
X53127000Y43426205D01*
X53127000Y48290000D01*
X80290000Y48290000D01*
X80290000Y710000D01*
X80290000Y710000D01*
G37*
X80290000Y710000D02*
X53127000Y710000D01*
X53127000Y1847468D01*
X56947073Y1847468D01*
X57045736Y1580613D01*
X57655461Y1354092D01*
X58305460Y1378144D01*
X58794264Y1580613D01*
X58892927Y1847468D01*
X57920000Y2820395D01*
X56947073Y1847468D01*
X53127000Y1847468D01*
X53127000Y3264539D01*
X56274092Y3264539D01*
X56298144Y2614540D01*
X56500613Y2125736D01*
X56767468Y2027073D01*
X57740395Y3000000D01*
X58099605Y3000000D01*
X59072532Y2027073D01*
X59107938Y2040164D01*
X59532637Y1614722D01*
X60133352Y1365284D01*
X60783795Y1364716D01*
X61384943Y1613106D01*
X61451574Y1679621D01*
X61535910Y1548559D01*
X61748110Y1403569D01*
X62000000Y1352560D01*
X64000000Y1352560D01*
X64235317Y1396838D01*
X64451441Y1535910D01*
X64596431Y1748110D01*
X64647440Y2000000D01*
X64647440Y2676205D01*
X64824716Y2676205D01*
X65073106Y2075057D01*
X65532637Y1614722D01*
X66133352Y1365284D01*
X66783795Y1364716D01*
X67384943Y1613106D01*
X67451574Y1679621D01*
X67535910Y1548559D01*
X67748110Y1403569D01*
X68000000Y1352560D01*
X70000000Y1352560D01*
X70235317Y1396838D01*
X70451441Y1535910D01*
X70596431Y1748110D01*
X70647440Y2000000D01*
X70647440Y4000000D01*
X70603162Y4235317D01*
X70464090Y4451441D01*
X70251890Y4596431D01*
X70000000Y4647440D01*
X68000000Y4647440D01*
X67764683Y4603162D01*
X67548559Y4464090D01*
X67451090Y4321439D01*
X67387363Y4385278D01*
X66786648Y4634716D01*
X66136205Y4635284D01*
X65535057Y4386894D01*
X65074722Y3927363D01*
X64825284Y3326648D01*
X64824716Y2676205D01*
X64647440Y2676205D01*
X64647440Y4000000D01*
X64603162Y4235317D01*
X64464090Y4451441D01*
X64251890Y4596431D01*
X64000000Y4647440D01*
X62000000Y4647440D01*
X61764683Y4603162D01*
X61548559Y4464090D01*
X61451090Y4321439D01*
X61387363Y4385278D01*
X60786648Y4634716D01*
X60136205Y4635284D01*
X59535057Y4386894D01*
X59107438Y3960022D01*
X59072532Y3972927D01*
X58099605Y3000000D01*
X57740395Y3000000D01*
X56767468Y3972927D01*
X56500613Y3874264D01*
X56274092Y3264539D01*
X53127000Y3264539D01*
X53127000Y3720156D01*
X53149668Y3735302D01*
X53428452Y4152532D01*
X56947073Y4152532D01*
X57920000Y3179605D01*
X58892927Y4152532D01*
X58794264Y4419387D01*
X58184539Y4645908D01*
X57534540Y4621856D01*
X57045736Y4419387D01*
X56947073Y4152532D01*
X53428452Y4152532D01*
X53460737Y4200849D01*
X53569970Y4750000D01*
X53460737Y5299151D01*
X53149668Y5764698D01*
X53127000Y5779844D01*
X53127000Y6260156D01*
X53149668Y6275302D01*
X53460737Y6740849D01*
X53465605Y6765323D01*
X56564794Y6765323D01*
X56744820Y6329628D01*
X57077875Y5995991D01*
X57513255Y5815206D01*
X57984677Y5814794D01*
X58420372Y5994820D01*
X58640937Y6215000D01*
X61564969Y6215000D01*
X61564794Y6015323D01*
X61744820Y5579628D01*
X62077875Y5245991D01*
X62513255Y5065206D01*
X62984677Y5064794D01*
X63420372Y5244820D01*
X63754009Y5577875D01*
X63934794Y6013255D01*
X63935206Y6484677D01*
X63755180Y6920372D01*
X63422125Y7254009D01*
X62986745Y7434794D01*
X62675092Y7435066D01*
X62555079Y7555079D01*
X62300407Y7725245D01*
X62000000Y7785000D01*
X58640752Y7785000D01*
X58422125Y8004009D01*
X57986745Y8184794D01*
X57515323Y8185206D01*
X57079628Y8005180D01*
X56745991Y7672125D01*
X56565206Y7236745D01*
X56564794Y6765323D01*
X53465605Y6765323D01*
X53569970Y7290000D01*
X53460737Y7839151D01*
X53149668Y8304698D01*
X53127000Y8319844D01*
X53127000Y8515323D01*
X61814794Y8515323D01*
X61994820Y8079628D01*
X62327875Y7745991D01*
X62763255Y7565206D01*
X63234677Y7564794D01*
X63670372Y7744820D01*
X63915980Y7990000D01*
X70185198Y7990000D01*
X71065095Y7110103D01*
X71064794Y6765323D01*
X71244820Y6329628D01*
X71577875Y5995991D01*
X72013255Y5815206D01*
X72484677Y5814794D01*
X72920372Y5994820D01*
X73254009Y6327875D01*
X73434794Y6763255D01*
X73435206Y7234677D01*
X73255180Y7670372D01*
X72922125Y8004009D01*
X72505874Y8176851D01*
X72670372Y8244820D01*
X73004009Y8577875D01*
X73184794Y9013255D01*
X73185206Y9484677D01*
X73183007Y9490000D01*
X73516485Y9490000D01*
X73425000Y9030072D01*
X73425000Y8969928D01*
X73541845Y8382509D01*
X73874591Y7884519D01*
X74372581Y7551773D01*
X74960000Y7434928D01*
X75547419Y7551773D01*
X76002516Y7855859D01*
X76135910Y7648559D01*
X76348110Y7503569D01*
X76600000Y7452560D01*
X78400000Y7452560D01*
X78635317Y7496838D01*
X78851441Y7635910D01*
X78996431Y7848110D01*
X79047440Y8100000D01*
X79047440Y9900000D01*
X79003162Y10135317D01*
X78864090Y10351441D01*
X78651890Y10496431D01*
X78635656Y10499719D01*
X78918155Y10922509D01*
X79035000Y11509928D01*
X79035000Y11570072D01*
X78918155Y12157491D01*
X78585409Y12655481D01*
X78354155Y12810000D01*
X78585409Y12964519D01*
X78918155Y13462509D01*
X79035000Y14049928D01*
X79035000Y14110072D01*
X78918155Y14697491D01*
X78585409Y15195481D01*
X78087419Y15528227D01*
X77500000Y15645072D01*
X76912581Y15528227D01*
X76414591Y15195481D01*
X76228570Y14917081D01*
X76040159Y14980554D01*
X75139605Y14080000D01*
X76040159Y13179446D01*
X76228570Y13242919D01*
X76414591Y12964519D01*
X76645845Y12810000D01*
X76414591Y12655481D01*
X76254526Y12415926D01*
X75830643Y12840551D01*
X75809806Y12849203D01*
X75860554Y12999841D01*
X74960000Y13900395D01*
X74059446Y12999841D01*
X74110035Y12849673D01*
X74091629Y12842068D01*
X73659449Y12410643D01*
X73425267Y11846670D01*
X73424735Y11236009D01*
X73518120Y11010000D01*
X68821445Y11010000D01*
X68755180Y11170372D01*
X68422125Y11504009D01*
X67986745Y11684794D01*
X67515323Y11685206D01*
X67079628Y11505180D01*
X66745991Y11172125D01*
X66565206Y10736745D01*
X66564794Y10265323D01*
X66566993Y10260000D01*
X66321445Y10260000D01*
X66255180Y10420372D01*
X65922125Y10754009D01*
X65486745Y10934794D01*
X65015323Y10935206D01*
X64579628Y10755180D01*
X64245991Y10422125D01*
X64065206Y9986745D01*
X64064794Y9515323D01*
X64066993Y9510000D01*
X63915708Y9510000D01*
X63672125Y9754009D01*
X63236745Y9934794D01*
X62765323Y9935206D01*
X62329628Y9755180D01*
X61995991Y9422125D01*
X61815206Y8986745D01*
X61814794Y8515323D01*
X53127000Y8515323D01*
X53127000Y8800156D01*
X53149668Y8815302D01*
X53460737Y9280849D01*
X53569970Y9830000D01*
X53460737Y10379151D01*
X53149668Y10844698D01*
X53127000Y10859844D01*
X53127000Y14320664D01*
X73413542Y14320664D01*
X73439161Y13710540D01*
X73623357Y13265852D01*
X73879841Y13179446D01*
X74780395Y14080000D01*
X73879841Y14980554D01*
X73623357Y14894148D01*
X73413542Y14320664D01*
X53127000Y14320664D01*
X53127000Y15160159D01*
X74059446Y15160159D01*
X74960000Y14259605D01*
X75860554Y15160159D01*
X75774148Y15416643D01*
X75200664Y15626458D01*
X74590540Y15600839D01*
X74145852Y15416643D01*
X74059446Y15160159D01*
X53127000Y15160159D01*
X53127000Y20697217D01*
X53215000Y20609063D01*
X53215000Y19250000D01*
X53274755Y18949593D01*
X53444921Y18694921D01*
X54065064Y18074778D01*
X54064794Y17765323D01*
X54244820Y17329628D01*
X54577875Y16995991D01*
X55013255Y16815206D01*
X55484677Y16814794D01*
X55920372Y16994820D01*
X56254009Y17327875D01*
X56434794Y17763255D01*
X56435206Y18234677D01*
X56255180Y18670372D01*
X55922125Y19004009D01*
X55486745Y19184794D01*
X55175092Y19185066D01*
X54785000Y19575158D01*
X54785000Y20609248D01*
X55004009Y20827875D01*
X55184794Y21263255D01*
X55185206Y21734677D01*
X55005180Y22170372D01*
X54672125Y22504009D01*
X54236745Y22684794D01*
X53765323Y22685206D01*
X53329628Y22505180D01*
X53127000Y22302905D01*
X53127000Y25265323D01*
X53314794Y25265323D01*
X53494820Y24829628D01*
X53827875Y24495991D01*
X54263255Y24315206D01*
X54734677Y24314794D01*
X55098202Y24465000D01*
X60109248Y24465000D01*
X60327875Y24245991D01*
X60763255Y24065206D01*
X61234677Y24064794D01*
X61670372Y24244820D01*
X62004009Y24577875D01*
X62184794Y25013255D01*
X62185206Y25484677D01*
X62005180Y25920372D01*
X61672125Y26254009D01*
X61236745Y26434794D01*
X60765323Y26435206D01*
X60329628Y26255180D01*
X60109063Y26035000D01*
X55561115Y26035000D01*
X55505180Y26170372D01*
X55172125Y26504009D01*
X54736745Y26684794D01*
X54265323Y26685206D01*
X53829628Y26505180D01*
X53495991Y26172125D01*
X53315206Y25736745D01*
X53314794Y25265323D01*
X53127000Y25265323D01*
X53127000Y34426205D01*
X56594716Y34426205D01*
X56843106Y33825057D01*
X57302637Y33364722D01*
X57903352Y33115284D01*
X58553795Y33114716D01*
X59154943Y33363106D01*
X59500199Y33707759D01*
X59842637Y33364722D01*
X60443352Y33115284D01*
X61093795Y33114716D01*
X61694943Y33363106D01*
X62155278Y33822637D01*
X62404716Y34423352D01*
X62405284Y35073795D01*
X62156894Y35674943D01*
X61697363Y36135278D01*
X61096648Y36384716D01*
X60446205Y36385284D01*
X59845057Y36136894D01*
X59499801Y35792241D01*
X59157363Y36135278D01*
X58556648Y36384716D01*
X57906205Y36385284D01*
X57305057Y36136894D01*
X56844722Y35677363D01*
X56595284Y35076648D01*
X56594716Y34426205D01*
X53127000Y34426205D01*
X53127000Y36428305D01*
X67363516Y36428305D01*
X67611906Y35827157D01*
X68071437Y35366822D01*
X68672152Y35117384D01*
X69322595Y35116816D01*
X69923743Y35365206D01*
X70384078Y35824737D01*
X70633516Y36425452D01*
X70633518Y36428305D01*
X73865916Y36428305D01*
X74114306Y35827157D01*
X74573837Y35366822D01*
X75174552Y35117384D01*
X75824995Y35116816D01*
X76426143Y35365206D01*
X76886478Y35824737D01*
X77135916Y36425452D01*
X77136484Y37075895D01*
X76888094Y37677043D01*
X76428563Y38137378D01*
X75827848Y38386816D01*
X75177405Y38387384D01*
X74576257Y38138994D01*
X74115922Y37679463D01*
X73866484Y37078748D01*
X73865916Y36428305D01*
X70633518Y36428305D01*
X70634084Y37075895D01*
X70385694Y37677043D01*
X69926163Y38137378D01*
X69325448Y38386816D01*
X68675005Y38387384D01*
X68073857Y38138994D01*
X67613522Y37679463D01*
X67364084Y37078748D01*
X67363516Y36428305D01*
X53127000Y36428305D01*
X53127000Y40095368D01*
X68025873Y40095368D01*
X68124536Y39828513D01*
X68734261Y39601992D01*
X69384260Y39626044D01*
X69873064Y39828513D01*
X69971727Y40095368D01*
X74452073Y40095368D01*
X74550736Y39828513D01*
X75160461Y39601992D01*
X75810460Y39626044D01*
X76299264Y39828513D01*
X76397927Y40095368D01*
X75425000Y41068295D01*
X74452073Y40095368D01*
X69971727Y40095368D01*
X68998800Y41068295D01*
X68025873Y40095368D01*
X53127000Y40095368D01*
X53127000Y41512439D01*
X67352892Y41512439D01*
X67376944Y40862440D01*
X67579413Y40373636D01*
X67846268Y40274973D01*
X68819195Y41247900D01*
X69178405Y41247900D01*
X70151332Y40274973D01*
X70418187Y40373636D01*
X70644708Y40983361D01*
X70625131Y41512439D01*
X73779092Y41512439D01*
X73803144Y40862440D01*
X74005613Y40373636D01*
X74272468Y40274973D01*
X75245395Y41247900D01*
X75604605Y41247900D01*
X76577532Y40274973D01*
X76844387Y40373636D01*
X77070908Y40983361D01*
X77046856Y41633360D01*
X76844387Y42122164D01*
X76577532Y42220827D01*
X75604605Y41247900D01*
X75245395Y41247900D01*
X74272468Y42220827D01*
X74005613Y42122164D01*
X73779092Y41512439D01*
X70625131Y41512439D01*
X70620656Y41633360D01*
X70418187Y42122164D01*
X70151332Y42220827D01*
X69178405Y41247900D01*
X68819195Y41247900D01*
X67846268Y42220827D01*
X67579413Y42122164D01*
X67352892Y41512439D01*
X53127000Y41512439D01*
X53127000Y43426205D01*
X56594716Y43426205D01*
X56843106Y42825057D01*
X57302637Y42364722D01*
X57903352Y42115284D01*
X58553795Y42114716D01*
X59154943Y42363106D01*
X59500199Y42707759D01*
X59842637Y42364722D01*
X60443352Y42115284D01*
X61093795Y42114716D01*
X61694943Y42363106D01*
X61732334Y42400432D01*
X68025873Y42400432D01*
X68998800Y41427505D01*
X69971727Y42400432D01*
X74452073Y42400432D01*
X75425000Y41427505D01*
X76397927Y42400432D01*
X76299264Y42667287D01*
X75689539Y42893808D01*
X75039540Y42869756D01*
X74550736Y42667287D01*
X74452073Y42400432D01*
X69971727Y42400432D01*
X69873064Y42667287D01*
X69263339Y42893808D01*
X68613340Y42869756D01*
X68124536Y42667287D01*
X68025873Y42400432D01*
X61732334Y42400432D01*
X62155278Y42822637D01*
X62404716Y43423352D01*
X62405284Y44073795D01*
X62156894Y44674943D01*
X61697363Y45135278D01*
X61096648Y45384716D01*
X60446205Y45385284D01*
X59845057Y45136894D01*
X59499801Y44792241D01*
X59157363Y45135278D01*
X58556648Y45384716D01*
X57906205Y45385284D01*
X57305057Y45136894D01*
X56844722Y44677363D01*
X56595284Y44076648D01*
X56594716Y43426205D01*
X53127000Y43426205D01*
X53127000Y48290000D01*
X80290000Y48290000D01*
X80290000Y710000D01*
M02*
