G04 #@! TF.FileFunction,Other,Fab,Bot*
%FSLAX46Y46*%
G04 Gerber Fmt 4.6, Leading zero omitted, Abs format (unit mm)*
G04 Created by KiCad (PCBNEW 4.0.4+dfsg1-stable) date Tue Feb  7 08:23:58 2017*
%MOMM*%
%LPD*%
G01*
G04 APERTURE LIST*
%ADD10C,0.100000*%
%ADD11C,0.150000*%
G04 APERTURE END LIST*
D10*
D11*
X42836900Y47380100D02*
X33836900Y47380100D01*
X33836900Y47380100D02*
X33836900Y37380100D01*
X33836900Y37380100D02*
X43836900Y37380100D01*
X43836900Y37380100D02*
X43836900Y46380100D01*
X43836900Y46380100D02*
X42836900Y47380100D01*
X44860710Y34763433D02*
X44384519Y34763433D01*
X44955948Y34477719D02*
X44622615Y35477719D01*
X44289281Y34477719D01*
X44098805Y35477719D02*
X43527376Y35477719D01*
X43813091Y34477719D02*
X43813091Y35477719D01*
X43289281Y35477719D02*
X42622614Y34477719D01*
X42622614Y35477719D02*
X43289281Y34477719D01*
X42241662Y34477719D02*
X42241662Y35477719D01*
X41908328Y34763433D01*
X41574995Y35477719D01*
X41574995Y34477719D01*
X41098805Y35001529D02*
X40765471Y35001529D01*
X40622614Y34477719D02*
X41098805Y34477719D01*
X41098805Y35477719D01*
X40622614Y35477719D01*
X39670233Y35430100D02*
X39765471Y35477719D01*
X39908328Y35477719D01*
X40051186Y35430100D01*
X40146424Y35334862D01*
X40194043Y35239624D01*
X40241662Y35049148D01*
X40241662Y34906290D01*
X40194043Y34715814D01*
X40146424Y34620576D01*
X40051186Y34525338D01*
X39908328Y34477719D01*
X39813090Y34477719D01*
X39670233Y34525338D01*
X39622614Y34572957D01*
X39622614Y34906290D01*
X39813090Y34906290D01*
X39241662Y34763433D02*
X38765471Y34763433D01*
X39336900Y34477719D02*
X39003567Y35477719D01*
X38670233Y34477719D01*
X37813090Y34477719D02*
X38384519Y34477719D01*
X38098805Y34477719D02*
X38098805Y35477719D01*
X38194043Y35334862D01*
X38289281Y35239624D01*
X38384519Y35192005D01*
X36955947Y35477719D02*
X37146424Y35477719D01*
X37241662Y35430100D01*
X37289281Y35382481D01*
X37384519Y35239624D01*
X37432138Y35049148D01*
X37432138Y34668195D01*
X37384519Y34572957D01*
X37336900Y34525338D01*
X37241662Y34477719D01*
X37051185Y34477719D01*
X36955947Y34525338D01*
X36908328Y34572957D01*
X36860709Y34668195D01*
X36860709Y34906290D01*
X36908328Y35001529D01*
X36955947Y35049148D01*
X37051185Y35096767D01*
X37241662Y35096767D01*
X37336900Y35049148D01*
X37384519Y35001529D01*
X37432138Y34906290D01*
X35860709Y34572957D02*
X35908328Y34525338D01*
X36051185Y34477719D01*
X36146423Y34477719D01*
X36289281Y34525338D01*
X36384519Y34620576D01*
X36432138Y34715814D01*
X36479757Y34906290D01*
X36479757Y35049148D01*
X36432138Y35239624D01*
X36384519Y35334862D01*
X36289281Y35430100D01*
X36146423Y35477719D01*
X36051185Y35477719D01*
X35908328Y35430100D01*
X35860709Y35382481D01*
X35003566Y35144386D02*
X35003566Y34477719D01*
X35241662Y35525338D02*
X35479757Y34811052D01*
X34860709Y34811052D01*
X34479757Y34858671D02*
X33717852Y34858671D01*
X33289281Y34763433D02*
X32813090Y34763433D01*
X33384519Y34477719D02*
X33051186Y35477719D01*
X32717852Y34477719D01*
X39813090Y41927719D02*
X39813090Y42927719D01*
X38765471Y42022957D02*
X38813090Y41975338D01*
X38955947Y41927719D01*
X39051185Y41927719D01*
X39194043Y41975338D01*
X39289281Y42070576D01*
X39336900Y42165814D01*
X39384519Y42356290D01*
X39384519Y42499148D01*
X39336900Y42689624D01*
X39289281Y42784862D01*
X39194043Y42880100D01*
X39051185Y42927719D01*
X38955947Y42927719D01*
X38813090Y42880100D01*
X38765471Y42832481D01*
X37813090Y41927719D02*
X38384519Y41927719D01*
X38098805Y41927719D02*
X38098805Y42927719D01*
X38194043Y42784862D01*
X38289281Y42689624D01*
X38384519Y42642005D01*
X48619047Y44797619D02*
X49190476Y44797619D01*
X48904762Y44797619D02*
X48904762Y45797619D01*
X49000000Y45654762D01*
X49095238Y45559524D01*
X49190476Y45511905D01*
X48000000Y45797619D02*
X47904761Y45797619D01*
X47809523Y45750000D01*
X47761904Y45702381D01*
X47714285Y45607143D01*
X47666666Y45416667D01*
X47666666Y45178571D01*
X47714285Y44988095D01*
X47761904Y44892857D01*
X47809523Y44845238D01*
X47904761Y44797619D01*
X48000000Y44797619D01*
X48095238Y44845238D01*
X48142857Y44892857D01*
X48190476Y44988095D01*
X48238095Y45178571D01*
X48238095Y45416667D01*
X48190476Y45607143D01*
X48142857Y45702381D01*
X48095238Y45750000D01*
X48000000Y45797619D01*
X47047619Y45797619D02*
X46952380Y45797619D01*
X46857142Y45750000D01*
X46809523Y45702381D01*
X46761904Y45607143D01*
X46714285Y45416667D01*
X46714285Y45178571D01*
X46761904Y44988095D01*
X46809523Y44892857D01*
X46857142Y44845238D01*
X46952380Y44797619D01*
X47047619Y44797619D01*
X47142857Y44845238D01*
X47190476Y44892857D01*
X47238095Y44988095D01*
X47285714Y45178571D01*
X47285714Y45416667D01*
X47238095Y45607143D01*
X47190476Y45702381D01*
X47142857Y45750000D01*
X47047619Y45797619D01*
X46285714Y45464286D02*
X46285714Y44797619D01*
X46285714Y45369048D02*
X46238095Y45416667D01*
X46142857Y45464286D01*
X45999999Y45464286D01*
X45904761Y45416667D01*
X45857142Y45321429D01*
X45857142Y44797619D01*
X48869047Y46297619D02*
X49440476Y46297619D01*
X49154762Y46297619D02*
X49154762Y47297619D01*
X49250000Y47154762D01*
X49345238Y47059524D01*
X49440476Y47011905D01*
X48250000Y47297619D02*
X48154761Y47297619D01*
X48059523Y47250000D01*
X48011904Y47202381D01*
X47964285Y47107143D01*
X47916666Y46916667D01*
X47916666Y46678571D01*
X47964285Y46488095D01*
X48011904Y46392857D01*
X48059523Y46345238D01*
X48154761Y46297619D01*
X48250000Y46297619D01*
X48345238Y46345238D01*
X48392857Y46392857D01*
X48440476Y46488095D01*
X48488095Y46678571D01*
X48488095Y46916667D01*
X48440476Y47107143D01*
X48392857Y47202381D01*
X48345238Y47250000D01*
X48250000Y47297619D01*
X47297619Y47297619D02*
X47202380Y47297619D01*
X47107142Y47250000D01*
X47059523Y47202381D01*
X47011904Y47107143D01*
X46964285Y46916667D01*
X46964285Y46678571D01*
X47011904Y46488095D01*
X47059523Y46392857D01*
X47107142Y46345238D01*
X47202380Y46297619D01*
X47297619Y46297619D01*
X47392857Y46345238D01*
X47440476Y46392857D01*
X47488095Y46488095D01*
X47535714Y46678571D01*
X47535714Y46916667D01*
X47488095Y47107143D01*
X47440476Y47202381D01*
X47392857Y47250000D01*
X47297619Y47297619D01*
X46535714Y46964286D02*
X46535714Y46297619D01*
X46535714Y46869048D02*
X46488095Y46916667D01*
X46392857Y46964286D01*
X46249999Y46964286D01*
X46154761Y46916667D01*
X46107142Y46821429D01*
X46107142Y46297619D01*
X28916666Y45797619D02*
X29488095Y45797619D01*
X29202381Y45797619D02*
X29202381Y46797619D01*
X29297619Y46654762D01*
X29392857Y46559524D01*
X29488095Y46511905D01*
X28059523Y46464286D02*
X28059523Y45797619D01*
X28488095Y46464286D02*
X28488095Y45940476D01*
X28440476Y45845238D01*
X28345238Y45797619D01*
X28202380Y45797619D01*
X28107142Y45845238D01*
X28059523Y45892857D01*
X31619047Y44297619D02*
X32190476Y44297619D01*
X31904762Y44297619D02*
X31904762Y45297619D01*
X32000000Y45154762D01*
X32095238Y45059524D01*
X32190476Y45011905D01*
X31000000Y45297619D02*
X30904761Y45297619D01*
X30809523Y45250000D01*
X30761904Y45202381D01*
X30714285Y45107143D01*
X30666666Y44916667D01*
X30666666Y44678571D01*
X30714285Y44488095D01*
X30761904Y44392857D01*
X30809523Y44345238D01*
X30904761Y44297619D01*
X31000000Y44297619D01*
X31095238Y44345238D01*
X31142857Y44392857D01*
X31190476Y44488095D01*
X31238095Y44678571D01*
X31238095Y44916667D01*
X31190476Y45107143D01*
X31142857Y45202381D01*
X31095238Y45250000D01*
X31000000Y45297619D01*
X30047619Y45297619D02*
X29952380Y45297619D01*
X29857142Y45250000D01*
X29809523Y45202381D01*
X29761904Y45107143D01*
X29714285Y44916667D01*
X29714285Y44678571D01*
X29761904Y44488095D01*
X29809523Y44392857D01*
X29857142Y44345238D01*
X29952380Y44297619D01*
X30047619Y44297619D01*
X30142857Y44345238D01*
X30190476Y44392857D01*
X30238095Y44488095D01*
X30285714Y44678571D01*
X30285714Y44916667D01*
X30238095Y45107143D01*
X30190476Y45202381D01*
X30142857Y45250000D01*
X30047619Y45297619D01*
X29285714Y44964286D02*
X29285714Y44297619D01*
X29285714Y44869048D02*
X29238095Y44916667D01*
X29142857Y44964286D01*
X28999999Y44964286D01*
X28904761Y44916667D01*
X28857142Y44821429D01*
X28857142Y44297619D01*
X37011905Y51297619D02*
X36392857Y51297619D01*
X36726191Y50916667D01*
X36583333Y50916667D01*
X36488095Y50869048D01*
X36440476Y50821429D01*
X36392857Y50726190D01*
X36392857Y50488095D01*
X36440476Y50392857D01*
X36488095Y50345238D01*
X36583333Y50297619D01*
X36869048Y50297619D01*
X36964286Y50345238D01*
X37011905Y50392857D01*
X36059524Y51297619D02*
X35440476Y51297619D01*
X35773810Y50916667D01*
X35630952Y50916667D01*
X35535714Y50869048D01*
X35488095Y50821429D01*
X35440476Y50726190D01*
X35440476Y50488095D01*
X35488095Y50392857D01*
X35535714Y50345238D01*
X35630952Y50297619D01*
X35916667Y50297619D01*
X36011905Y50345238D01*
X36059524Y50392857D01*
X35011905Y50964286D02*
X35011905Y49964286D01*
X35011905Y50916667D02*
X34916667Y50964286D01*
X34726190Y50964286D01*
X34630952Y50916667D01*
X34583333Y50869048D01*
X34535714Y50773810D01*
X34535714Y50488095D01*
X34583333Y50392857D01*
X34630952Y50345238D01*
X34726190Y50297619D01*
X34916667Y50297619D01*
X35011905Y50345238D01*
X39511905Y51297619D02*
X38892857Y51297619D01*
X39226191Y50916667D01*
X39083333Y50916667D01*
X38988095Y50869048D01*
X38940476Y50821429D01*
X38892857Y50726190D01*
X38892857Y50488095D01*
X38940476Y50392857D01*
X38988095Y50345238D01*
X39083333Y50297619D01*
X39369048Y50297619D01*
X39464286Y50345238D01*
X39511905Y50392857D01*
X38559524Y51297619D02*
X37940476Y51297619D01*
X38273810Y50916667D01*
X38130952Y50916667D01*
X38035714Y50869048D01*
X37988095Y50821429D01*
X37940476Y50726190D01*
X37940476Y50488095D01*
X37988095Y50392857D01*
X38035714Y50345238D01*
X38130952Y50297619D01*
X38416667Y50297619D01*
X38511905Y50345238D01*
X38559524Y50392857D01*
X37511905Y50964286D02*
X37511905Y49964286D01*
X37511905Y50916667D02*
X37416667Y50964286D01*
X37226190Y50964286D01*
X37130952Y50916667D01*
X37083333Y50869048D01*
X37035714Y50773810D01*
X37035714Y50488095D01*
X37083333Y50392857D01*
X37130952Y50345238D01*
X37226190Y50297619D01*
X37416667Y50297619D01*
X37511905Y50345238D01*
X39552381Y34819047D02*
X39552381Y35390476D01*
X39552381Y35104762D02*
X38552381Y35104762D01*
X38695238Y35200000D01*
X38790476Y35295238D01*
X38838095Y35390476D01*
X38552381Y34200000D02*
X38552381Y34104761D01*
X38600000Y34009523D01*
X38647619Y33961904D01*
X38742857Y33914285D01*
X38933333Y33866666D01*
X39171429Y33866666D01*
X39361905Y33914285D01*
X39457143Y33961904D01*
X39504762Y34009523D01*
X39552381Y34104761D01*
X39552381Y34200000D01*
X39504762Y34295238D01*
X39457143Y34342857D01*
X39361905Y34390476D01*
X39171429Y34438095D01*
X38933333Y34438095D01*
X38742857Y34390476D01*
X38647619Y34342857D01*
X38600000Y34295238D01*
X38552381Y34200000D01*
X38552381Y33247619D02*
X38552381Y33152380D01*
X38600000Y33057142D01*
X38647619Y33009523D01*
X38742857Y32961904D01*
X38933333Y32914285D01*
X39171429Y32914285D01*
X39361905Y32961904D01*
X39457143Y33009523D01*
X39504762Y33057142D01*
X39552381Y33152380D01*
X39552381Y33247619D01*
X39504762Y33342857D01*
X39457143Y33390476D01*
X39361905Y33438095D01*
X39171429Y33485714D01*
X38933333Y33485714D01*
X38742857Y33438095D01*
X38647619Y33390476D01*
X38600000Y33342857D01*
X38552381Y33247619D01*
X38885714Y32485714D02*
X39552381Y32485714D01*
X38980952Y32485714D02*
X38933333Y32438095D01*
X38885714Y32342857D01*
X38885714Y32199999D01*
X38933333Y32104761D01*
X39028571Y32057142D01*
X39552381Y32057142D01*
X48619047Y39797619D02*
X49190476Y39797619D01*
X48904762Y39797619D02*
X48904762Y40797619D01*
X49000000Y40654762D01*
X49095238Y40559524D01*
X49190476Y40511905D01*
X48000000Y40797619D02*
X47904761Y40797619D01*
X47809523Y40750000D01*
X47761904Y40702381D01*
X47714285Y40607143D01*
X47666666Y40416667D01*
X47666666Y40178571D01*
X47714285Y39988095D01*
X47761904Y39892857D01*
X47809523Y39845238D01*
X47904761Y39797619D01*
X48000000Y39797619D01*
X48095238Y39845238D01*
X48142857Y39892857D01*
X48190476Y39988095D01*
X48238095Y40178571D01*
X48238095Y40416667D01*
X48190476Y40607143D01*
X48142857Y40702381D01*
X48095238Y40750000D01*
X48000000Y40797619D01*
X47047619Y40797619D02*
X46952380Y40797619D01*
X46857142Y40750000D01*
X46809523Y40702381D01*
X46761904Y40607143D01*
X46714285Y40416667D01*
X46714285Y40178571D01*
X46761904Y39988095D01*
X46809523Y39892857D01*
X46857142Y39845238D01*
X46952380Y39797619D01*
X47047619Y39797619D01*
X47142857Y39845238D01*
X47190476Y39892857D01*
X47238095Y39988095D01*
X47285714Y40178571D01*
X47285714Y40416667D01*
X47238095Y40607143D01*
X47190476Y40702381D01*
X47142857Y40750000D01*
X47047619Y40797619D01*
X46285714Y40464286D02*
X46285714Y39797619D01*
X46285714Y40369048D02*
X46238095Y40416667D01*
X46142857Y40464286D01*
X45999999Y40464286D01*
X45904761Y40416667D01*
X45857142Y40321429D01*
X45857142Y39797619D01*
X42369047Y50297619D02*
X42940476Y50297619D01*
X42654762Y50297619D02*
X42654762Y51297619D01*
X42750000Y51154762D01*
X42845238Y51059524D01*
X42940476Y51011905D01*
X41750000Y51297619D02*
X41654761Y51297619D01*
X41559523Y51250000D01*
X41511904Y51202381D01*
X41464285Y51107143D01*
X41416666Y50916667D01*
X41416666Y50678571D01*
X41464285Y50488095D01*
X41511904Y50392857D01*
X41559523Y50345238D01*
X41654761Y50297619D01*
X41750000Y50297619D01*
X41845238Y50345238D01*
X41892857Y50392857D01*
X41940476Y50488095D01*
X41988095Y50678571D01*
X41988095Y50916667D01*
X41940476Y51107143D01*
X41892857Y51202381D01*
X41845238Y51250000D01*
X41750000Y51297619D01*
X40797619Y51297619D02*
X40702380Y51297619D01*
X40607142Y51250000D01*
X40559523Y51202381D01*
X40511904Y51107143D01*
X40464285Y50916667D01*
X40464285Y50678571D01*
X40511904Y50488095D01*
X40559523Y50392857D01*
X40607142Y50345238D01*
X40702380Y50297619D01*
X40797619Y50297619D01*
X40892857Y50345238D01*
X40940476Y50392857D01*
X40988095Y50488095D01*
X41035714Y50678571D01*
X41035714Y50916667D01*
X40988095Y51107143D01*
X40940476Y51202381D01*
X40892857Y51250000D01*
X40797619Y51297619D01*
X40035714Y50964286D02*
X40035714Y50297619D01*
X40035714Y50869048D02*
X39988095Y50916667D01*
X39892857Y50964286D01*
X39749999Y50964286D01*
X39654761Y50916667D01*
X39607142Y50821429D01*
X39607142Y50297619D01*
X19369047Y8547619D02*
X19940476Y8547619D01*
X19654762Y8547619D02*
X19654762Y9547619D01*
X19750000Y9404762D01*
X19845238Y9309524D01*
X19940476Y9261905D01*
X18750000Y9547619D02*
X18654761Y9547619D01*
X18559523Y9500000D01*
X18511904Y9452381D01*
X18464285Y9357143D01*
X18416666Y9166667D01*
X18416666Y8928571D01*
X18464285Y8738095D01*
X18511904Y8642857D01*
X18559523Y8595238D01*
X18654761Y8547619D01*
X18750000Y8547619D01*
X18845238Y8595238D01*
X18892857Y8642857D01*
X18940476Y8738095D01*
X18988095Y8928571D01*
X18988095Y9166667D01*
X18940476Y9357143D01*
X18892857Y9452381D01*
X18845238Y9500000D01*
X18750000Y9547619D01*
X17797619Y9547619D02*
X17702380Y9547619D01*
X17607142Y9500000D01*
X17559523Y9452381D01*
X17511904Y9357143D01*
X17464285Y9166667D01*
X17464285Y8928571D01*
X17511904Y8738095D01*
X17559523Y8642857D01*
X17607142Y8595238D01*
X17702380Y8547619D01*
X17797619Y8547619D01*
X17892857Y8595238D01*
X17940476Y8642857D01*
X17988095Y8738095D01*
X18035714Y8928571D01*
X18035714Y9166667D01*
X17988095Y9357143D01*
X17940476Y9452381D01*
X17892857Y9500000D01*
X17797619Y9547619D01*
X17035714Y9214286D02*
X17035714Y8547619D01*
X17035714Y9119048D02*
X16988095Y9166667D01*
X16892857Y9214286D01*
X16749999Y9214286D01*
X16654761Y9166667D01*
X16607142Y9071429D01*
X16607142Y8547619D01*
X14202381Y59619047D02*
X14202381Y60190476D01*
X14202381Y59904762D02*
X13202381Y59904762D01*
X13345238Y60000000D01*
X13440476Y60095238D01*
X13488095Y60190476D01*
X13202381Y59000000D02*
X13202381Y58904761D01*
X13250000Y58809523D01*
X13297619Y58761904D01*
X13392857Y58714285D01*
X13583333Y58666666D01*
X13821429Y58666666D01*
X14011905Y58714285D01*
X14107143Y58761904D01*
X14154762Y58809523D01*
X14202381Y58904761D01*
X14202381Y59000000D01*
X14154762Y59095238D01*
X14107143Y59142857D01*
X14011905Y59190476D01*
X13821429Y59238095D01*
X13583333Y59238095D01*
X13392857Y59190476D01*
X13297619Y59142857D01*
X13250000Y59095238D01*
X13202381Y59000000D01*
X13202381Y58047619D02*
X13202381Y57952380D01*
X13250000Y57857142D01*
X13297619Y57809523D01*
X13392857Y57761904D01*
X13583333Y57714285D01*
X13821429Y57714285D01*
X14011905Y57761904D01*
X14107143Y57809523D01*
X14154762Y57857142D01*
X14202381Y57952380D01*
X14202381Y58047619D01*
X14154762Y58142857D01*
X14107143Y58190476D01*
X14011905Y58238095D01*
X13821429Y58285714D01*
X13583333Y58285714D01*
X13392857Y58238095D01*
X13297619Y58190476D01*
X13250000Y58142857D01*
X13202381Y58047619D01*
X13535714Y57285714D02*
X14535714Y57285714D01*
X13583333Y57285714D02*
X13535714Y57190476D01*
X13535714Y56999999D01*
X13583333Y56904761D01*
X13630952Y56857142D01*
X13726190Y56809523D01*
X14011905Y56809523D01*
X14107143Y56857142D01*
X14154762Y56904761D01*
X14202381Y56999999D01*
X14202381Y57190476D01*
X14154762Y57285714D01*
X15452381Y57119047D02*
X15452381Y57690476D01*
X15452381Y57404762D02*
X14452381Y57404762D01*
X14595238Y57500000D01*
X14690476Y57595238D01*
X14738095Y57690476D01*
X14452381Y56500000D02*
X14452381Y56404761D01*
X14500000Y56309523D01*
X14547619Y56261904D01*
X14642857Y56214285D01*
X14833333Y56166666D01*
X15071429Y56166666D01*
X15261905Y56214285D01*
X15357143Y56261904D01*
X15404762Y56309523D01*
X15452381Y56404761D01*
X15452381Y56500000D01*
X15404762Y56595238D01*
X15357143Y56642857D01*
X15261905Y56690476D01*
X15071429Y56738095D01*
X14833333Y56738095D01*
X14642857Y56690476D01*
X14547619Y56642857D01*
X14500000Y56595238D01*
X14452381Y56500000D01*
X14452381Y55547619D02*
X14452381Y55452380D01*
X14500000Y55357142D01*
X14547619Y55309523D01*
X14642857Y55261904D01*
X14833333Y55214285D01*
X15071429Y55214285D01*
X15261905Y55261904D01*
X15357143Y55309523D01*
X15404762Y55357142D01*
X15452381Y55452380D01*
X15452381Y55547619D01*
X15404762Y55642857D01*
X15357143Y55690476D01*
X15261905Y55738095D01*
X15071429Y55785714D01*
X14833333Y55785714D01*
X14642857Y55738095D01*
X14547619Y55690476D01*
X14500000Y55642857D01*
X14452381Y55547619D01*
X14785714Y54785714D02*
X15452381Y54785714D01*
X14880952Y54785714D02*
X14833333Y54738095D01*
X14785714Y54642857D01*
X14785714Y54499999D01*
X14833333Y54404761D01*
X14928571Y54357142D01*
X15452381Y54357142D01*
X18642857Y62047619D02*
X19214286Y62047619D01*
X18928572Y62047619D02*
X18928572Y63047619D01*
X19023810Y62904762D01*
X19119048Y62809524D01*
X19214286Y62761905D01*
X18023810Y63047619D02*
X17928571Y63047619D01*
X17833333Y63000000D01*
X17785714Y62952381D01*
X17738095Y62857143D01*
X17690476Y62666667D01*
X17690476Y62428571D01*
X17738095Y62238095D01*
X17785714Y62142857D01*
X17833333Y62095238D01*
X17928571Y62047619D01*
X18023810Y62047619D01*
X18119048Y62095238D01*
X18166667Y62142857D01*
X18214286Y62238095D01*
X18261905Y62428571D01*
X18261905Y62666667D01*
X18214286Y62857143D01*
X18166667Y62952381D01*
X18119048Y63000000D01*
X18023810Y63047619D01*
X17261905Y62714286D02*
X17261905Y61714286D01*
X17261905Y62666667D02*
X17166667Y62714286D01*
X16976190Y62714286D01*
X16880952Y62666667D01*
X16833333Y62619048D01*
X16785714Y62523810D01*
X16785714Y62238095D01*
X16833333Y62142857D01*
X16880952Y62095238D01*
X16976190Y62047619D01*
X17166667Y62047619D01*
X17261905Y62095238D01*
X16392857Y62047619D02*
X16964286Y62047619D01*
X16678572Y62047619D02*
X16678572Y63047619D01*
X16773810Y62904762D01*
X16869048Y62809524D01*
X16964286Y62761905D01*
X15773810Y63047619D02*
X15678571Y63047619D01*
X15583333Y63000000D01*
X15535714Y62952381D01*
X15488095Y62857143D01*
X15440476Y62666667D01*
X15440476Y62428571D01*
X15488095Y62238095D01*
X15535714Y62142857D01*
X15583333Y62095238D01*
X15678571Y62047619D01*
X15773810Y62047619D01*
X15869048Y62095238D01*
X15916667Y62142857D01*
X15964286Y62238095D01*
X16011905Y62428571D01*
X16011905Y62666667D01*
X15964286Y62857143D01*
X15916667Y62952381D01*
X15869048Y63000000D01*
X15773810Y63047619D01*
X15011905Y62714286D02*
X15011905Y61714286D01*
X15011905Y62666667D02*
X14916667Y62714286D01*
X14726190Y62714286D01*
X14630952Y62666667D01*
X14583333Y62619048D01*
X14535714Y62523810D01*
X14535714Y62238095D01*
X14583333Y62142857D01*
X14630952Y62095238D01*
X14726190Y62047619D01*
X14916667Y62047619D01*
X15011905Y62095238D01*
X15809525Y61047619D02*
X15809525Y62047619D01*
X15571430Y62047619D01*
X15428572Y62000000D01*
X15333334Y61904762D01*
X15285715Y61809524D01*
X15238096Y61619048D01*
X15238096Y61476190D01*
X15285715Y61285714D01*
X15333334Y61190476D01*
X15428572Y61095238D01*
X15571430Y61047619D01*
X15809525Y61047619D01*
X15047620Y60952381D02*
X14285715Y60952381D01*
X14095239Y61095238D02*
X13952382Y61047619D01*
X13714286Y61047619D01*
X13619048Y61095238D01*
X13571429Y61142857D01*
X13523810Y61238095D01*
X13523810Y61333333D01*
X13571429Y61428571D01*
X13619048Y61476190D01*
X13714286Y61523810D01*
X13904763Y61571429D01*
X14000001Y61619048D01*
X14047620Y61666667D01*
X14095239Y61761905D01*
X14095239Y61857143D01*
X14047620Y61952381D01*
X14000001Y62000000D01*
X13904763Y62047619D01*
X13666667Y62047619D01*
X13523810Y62000000D01*
X12666667Y61095238D02*
X12761905Y61047619D01*
X12952382Y61047619D01*
X13047620Y61095238D01*
X13095239Y61142857D01*
X13142858Y61238095D01*
X13142858Y61523810D01*
X13095239Y61619048D01*
X13047620Y61666667D01*
X12952382Y61714286D01*
X12761905Y61714286D01*
X12666667Y61666667D01*
X12238096Y61047619D02*
X12238096Y62047619D01*
X11809524Y61047619D02*
X11809524Y61571429D01*
X11857143Y61666667D01*
X11952381Y61714286D01*
X12095239Y61714286D01*
X12190477Y61666667D01*
X12238096Y61619048D01*
X11190477Y61047619D02*
X11285715Y61095238D01*
X11333334Y61142857D01*
X11380953Y61238095D01*
X11380953Y61523810D01*
X11333334Y61619048D01*
X11285715Y61666667D01*
X11190477Y61714286D01*
X11047619Y61714286D01*
X10952381Y61666667D01*
X10904762Y61619048D01*
X10857143Y61523810D01*
X10857143Y61238095D01*
X10904762Y61142857D01*
X10952381Y61095238D01*
X11047619Y61047619D01*
X11190477Y61047619D01*
X10571429Y61714286D02*
X10190477Y61714286D01*
X10428572Y62047619D02*
X10428572Y61190476D01*
X10380953Y61095238D01*
X10285715Y61047619D01*
X10190477Y61047619D01*
X10000000Y61714286D02*
X9619048Y61714286D01*
X9857143Y62047619D02*
X9857143Y61190476D01*
X9809524Y61095238D01*
X9714286Y61047619D01*
X9619048Y61047619D01*
X9285714Y61047619D02*
X9285714Y62047619D01*
X9190476Y61428571D02*
X8904761Y61047619D01*
X8904761Y61714286D02*
X9285714Y61333333D01*
X8571428Y61714286D02*
X8333333Y61047619D01*
X8095237Y61714286D02*
X8333333Y61047619D01*
X8428571Y60809524D01*
X8476190Y60761905D01*
X8571428Y60714286D01*
X7952380Y60952381D02*
X7190475Y60952381D01*
X6999999Y61095238D02*
X6857142Y61047619D01*
X6619046Y61047619D01*
X6523808Y61095238D01*
X6476189Y61142857D01*
X6428570Y61238095D01*
X6428570Y61333333D01*
X6476189Y61428571D01*
X6523808Y61476190D01*
X6619046Y61523810D01*
X6809523Y61571429D01*
X6904761Y61619048D01*
X6952380Y61666667D01*
X6999999Y61761905D01*
X6999999Y61857143D01*
X6952380Y61952381D01*
X6904761Y62000000D01*
X6809523Y62047619D01*
X6571427Y62047619D01*
X6428570Y62000000D01*
X5999999Y61047619D02*
X5999999Y61714286D01*
X5999999Y61619048D02*
X5952380Y61666667D01*
X5857142Y61714286D01*
X5714284Y61714286D01*
X5619046Y61666667D01*
X5571427Y61571429D01*
X5571427Y61047619D01*
X5571427Y61571429D02*
X5523808Y61666667D01*
X5428570Y61714286D01*
X5285713Y61714286D01*
X5190475Y61666667D01*
X5142856Y61571429D01*
X5142856Y61047619D01*
X4238094Y61047619D02*
X4238094Y61571429D01*
X4285713Y61666667D01*
X4380951Y61714286D01*
X4571428Y61714286D01*
X4666666Y61666667D01*
X4238094Y61095238D02*
X4333332Y61047619D01*
X4571428Y61047619D01*
X4666666Y61095238D01*
X4714285Y61190476D01*
X4714285Y61285714D01*
X4666666Y61380952D01*
X4571428Y61428571D01*
X4333332Y61428571D01*
X4238094Y61476190D01*
X3619047Y61047619D02*
X3714285Y61095238D01*
X3761904Y61190476D01*
X3761904Y62047619D01*
X3095237Y61047619D02*
X3190475Y61095238D01*
X3238094Y61190476D01*
X3238094Y62047619D01*
X59821429Y46321429D02*
X59488095Y46321429D01*
X59345238Y45797619D02*
X59821429Y45797619D01*
X59821429Y46797619D01*
X59345238Y46797619D01*
X58964286Y45845238D02*
X58821429Y45797619D01*
X58583333Y45797619D01*
X58488095Y45845238D01*
X58440476Y45892857D01*
X58392857Y45988095D01*
X58392857Y46083333D01*
X58440476Y46178571D01*
X58488095Y46226190D01*
X58583333Y46273810D01*
X58773810Y46321429D01*
X58869048Y46369048D01*
X58916667Y46416667D01*
X58964286Y46511905D01*
X58964286Y46607143D01*
X58916667Y46702381D01*
X58869048Y46750000D01*
X58773810Y46797619D01*
X58535714Y46797619D01*
X58392857Y46750000D01*
X57964286Y45797619D02*
X57964286Y46797619D01*
X57726191Y46797619D01*
X57583333Y46750000D01*
X57488095Y46654762D01*
X57440476Y46559524D01*
X57392857Y46369048D01*
X57392857Y46226190D01*
X57440476Y46035714D01*
X57488095Y45940476D01*
X57583333Y45845238D01*
X57726191Y45797619D01*
X57964286Y45797619D01*
X57202381Y45702381D02*
X56440476Y45702381D01*
X55773809Y46464286D02*
X55773809Y45797619D01*
X56011905Y46845238D02*
X56250000Y46130952D01*
X55630952Y46130952D01*
X54678571Y45892857D02*
X54726190Y45845238D01*
X54869047Y45797619D01*
X54964285Y45797619D01*
X55107143Y45845238D01*
X55202381Y45940476D01*
X55250000Y46035714D01*
X55297619Y46226190D01*
X55297619Y46369048D01*
X55250000Y46559524D01*
X55202381Y46654762D01*
X55107143Y46750000D01*
X54964285Y46797619D01*
X54869047Y46797619D01*
X54726190Y46750000D01*
X54678571Y46702381D01*
X54250000Y45797619D02*
X54250000Y46797619D01*
X54250000Y46321429D02*
X53678571Y46321429D01*
X53678571Y45797619D02*
X53678571Y46797619D01*
X51428571Y59821429D02*
X51428571Y59488095D01*
X51952381Y59345238D02*
X51952381Y59821429D01*
X50952381Y59821429D01*
X50952381Y59345238D01*
X51904762Y58964286D02*
X51952381Y58821429D01*
X51952381Y58583333D01*
X51904762Y58488095D01*
X51857143Y58440476D01*
X51761905Y58392857D01*
X51666667Y58392857D01*
X51571429Y58440476D01*
X51523810Y58488095D01*
X51476190Y58583333D01*
X51428571Y58773810D01*
X51380952Y58869048D01*
X51333333Y58916667D01*
X51238095Y58964286D01*
X51142857Y58964286D01*
X51047619Y58916667D01*
X51000000Y58869048D01*
X50952381Y58773810D01*
X50952381Y58535714D01*
X51000000Y58392857D01*
X51952381Y57964286D02*
X50952381Y57964286D01*
X50952381Y57726191D01*
X51000000Y57583333D01*
X51095238Y57488095D01*
X51190476Y57440476D01*
X51380952Y57392857D01*
X51523810Y57392857D01*
X51714286Y57440476D01*
X51809524Y57488095D01*
X51904762Y57583333D01*
X51952381Y57726191D01*
X51952381Y57964286D01*
X52047619Y57202381D02*
X52047619Y56440476D01*
X51285714Y55773809D02*
X51952381Y55773809D01*
X50904762Y56011905D02*
X51619048Y56250000D01*
X51619048Y55630952D01*
X51857143Y54678571D02*
X51904762Y54726190D01*
X51952381Y54869047D01*
X51952381Y54964285D01*
X51904762Y55107143D01*
X51809524Y55202381D01*
X51714286Y55250000D01*
X51523810Y55297619D01*
X51380952Y55297619D01*
X51190476Y55250000D01*
X51095238Y55202381D01*
X51000000Y55107143D01*
X50952381Y54964285D01*
X50952381Y54869047D01*
X51000000Y54726190D01*
X51047619Y54678571D01*
X51952381Y54250000D02*
X50952381Y54250000D01*
X51428571Y54250000D02*
X51428571Y53678571D01*
X51952381Y53678571D02*
X50952381Y53678571D01*
X20952381Y11892857D02*
X21761905Y11892857D01*
X21857143Y11845238D01*
X21904762Y11797619D01*
X21952381Y11702381D01*
X21952381Y11511904D01*
X21904762Y11416666D01*
X21857143Y11369047D01*
X21761905Y11321428D01*
X20952381Y11321428D01*
X21904762Y10892857D02*
X21952381Y10750000D01*
X21952381Y10511904D01*
X21904762Y10416666D01*
X21857143Y10369047D01*
X21761905Y10321428D01*
X21666667Y10321428D01*
X21571429Y10369047D01*
X21523810Y10416666D01*
X21476190Y10511904D01*
X21428571Y10702381D01*
X21380952Y10797619D01*
X21333333Y10845238D01*
X21238095Y10892857D01*
X21142857Y10892857D01*
X21047619Y10845238D01*
X21000000Y10797619D01*
X20952381Y10702381D01*
X20952381Y10464285D01*
X21000000Y10321428D01*
X21428571Y9559523D02*
X21476190Y9416666D01*
X21523810Y9369047D01*
X21619048Y9321428D01*
X21761905Y9321428D01*
X21857143Y9369047D01*
X21904762Y9416666D01*
X21952381Y9511904D01*
X21952381Y9892857D01*
X20952381Y9892857D01*
X20952381Y9559523D01*
X21000000Y9464285D01*
X21047619Y9416666D01*
X21142857Y9369047D01*
X21238095Y9369047D01*
X21333333Y9416666D01*
X21380952Y9464285D01*
X21428571Y9559523D01*
X21428571Y9892857D01*
X22047619Y9130952D02*
X22047619Y8369047D01*
X21952381Y8130952D02*
X20952381Y8130952D01*
X21428571Y8130952D02*
X21428571Y7559523D01*
X21952381Y7559523D02*
X20952381Y7559523D01*
X21904762Y7130952D02*
X21952381Y6988095D01*
X21952381Y6749999D01*
X21904762Y6654761D01*
X21857143Y6607142D01*
X21761905Y6559523D01*
X21666667Y6559523D01*
X21571429Y6607142D01*
X21523810Y6654761D01*
X21476190Y6749999D01*
X21428571Y6940476D01*
X21380952Y7035714D01*
X21333333Y7083333D01*
X21238095Y7130952D01*
X21142857Y7130952D01*
X21047619Y7083333D01*
X21000000Y7035714D01*
X20952381Y6940476D01*
X20952381Y6702380D01*
X21000000Y6559523D01*
X88280812Y13451401D02*
X88376050Y13499020D01*
X88471288Y13594258D01*
X88614145Y13737115D01*
X88709384Y13784734D01*
X88804622Y13784734D01*
X88757003Y13546639D02*
X88852241Y13594258D01*
X88947479Y13689496D01*
X88995098Y13879972D01*
X88995098Y14213306D01*
X88947479Y14403782D01*
X88852241Y14499020D01*
X88757003Y14546639D01*
X88566526Y14546639D01*
X88471288Y14499020D01*
X88376050Y14403782D01*
X88328431Y14213306D01*
X88328431Y13879972D01*
X88376050Y13689496D01*
X88471288Y13594258D01*
X88566526Y13546639D01*
X88757003Y13546639D01*
X88137955Y13451401D02*
X87376050Y13451401D01*
X87137955Y13546639D02*
X87137955Y14546639D01*
X86566526Y13546639D01*
X86566526Y14546639D01*
X86090336Y13546639D02*
X86090336Y14546639D01*
X85709383Y14546639D01*
X85614145Y14499020D01*
X85566526Y14451401D01*
X85518907Y14356163D01*
X85518907Y14213306D01*
X85566526Y14118068D01*
X85614145Y14070449D01*
X85709383Y14022830D01*
X86090336Y14022830D01*
X85090336Y13546639D02*
X85090336Y14546639D01*
X84518907Y13546639D01*
X84518907Y14546639D01*
X84280812Y13451401D02*
X83518907Y13451401D01*
X83280812Y14070449D02*
X82947478Y14070449D01*
X82804621Y13546639D02*
X83280812Y13546639D01*
X83280812Y14546639D01*
X82804621Y14546639D01*
X81804621Y13641877D02*
X81852240Y13594258D01*
X81995097Y13546639D01*
X82090335Y13546639D01*
X82233193Y13594258D01*
X82328431Y13689496D01*
X82376050Y13784734D01*
X82423669Y13975210D01*
X82423669Y14118068D01*
X82376050Y14308544D01*
X82328431Y14403782D01*
X82233193Y14499020D01*
X82090335Y14546639D01*
X81995097Y14546639D01*
X81852240Y14499020D01*
X81804621Y14451401D01*
X81042716Y14070449D02*
X80899859Y14022830D01*
X80852240Y13975210D01*
X80804621Y13879972D01*
X80804621Y13737115D01*
X80852240Y13641877D01*
X80899859Y13594258D01*
X80995097Y13546639D01*
X81376050Y13546639D01*
X81376050Y14546639D01*
X81042716Y14546639D01*
X80947478Y14499020D01*
X80899859Y14451401D01*
X80852240Y14356163D01*
X80852240Y14260925D01*
X80899859Y14165687D01*
X80947478Y14118068D01*
X81042716Y14070449D01*
X81376050Y14070449D01*
X53345238Y44797619D02*
X53916667Y44797619D01*
X53630953Y44797619D02*
X53630953Y45797619D01*
X53726191Y45654762D01*
X53821429Y45559524D01*
X53916667Y45511905D01*
X52726191Y45797619D02*
X52630952Y45797619D01*
X52535714Y45750000D01*
X52488095Y45702381D01*
X52440476Y45607143D01*
X52392857Y45416667D01*
X52392857Y45178571D01*
X52440476Y44988095D01*
X52488095Y44892857D01*
X52535714Y44845238D01*
X52630952Y44797619D01*
X52726191Y44797619D01*
X52821429Y44845238D01*
X52869048Y44892857D01*
X52916667Y44988095D01*
X52964286Y45178571D01*
X52964286Y45416667D01*
X52916667Y45607143D01*
X52869048Y45702381D01*
X52821429Y45750000D01*
X52726191Y45797619D01*
X51964286Y44797619D02*
X51964286Y45797619D01*
X51869048Y45178571D02*
X51583333Y44797619D01*
X51583333Y45464286D02*
X51964286Y45083333D01*
X71745238Y59097619D02*
X72316667Y59097619D01*
X72030953Y59097619D02*
X72030953Y60097619D01*
X72126191Y59954762D01*
X72221429Y59859524D01*
X72316667Y59811905D01*
X71126191Y60097619D02*
X71030952Y60097619D01*
X70935714Y60050000D01*
X70888095Y60002381D01*
X70840476Y59907143D01*
X70792857Y59716667D01*
X70792857Y59478571D01*
X70840476Y59288095D01*
X70888095Y59192857D01*
X70935714Y59145238D01*
X71030952Y59097619D01*
X71126191Y59097619D01*
X71221429Y59145238D01*
X71269048Y59192857D01*
X71316667Y59288095D01*
X71364286Y59478571D01*
X71364286Y59716667D01*
X71316667Y59907143D01*
X71269048Y60002381D01*
X71221429Y60050000D01*
X71126191Y60097619D01*
X70364286Y59097619D02*
X70364286Y60097619D01*
X70269048Y59478571D02*
X69983333Y59097619D01*
X69983333Y59764286D02*
X70364286Y59383333D01*
X80047619Y67488095D02*
X80000000Y67440476D01*
X79952381Y67345238D01*
X79952381Y67107142D01*
X80000000Y67011904D01*
X80047619Y66964285D01*
X80142857Y66916666D01*
X80238095Y66916666D01*
X80380952Y66964285D01*
X80952381Y67535714D01*
X80952381Y66916666D01*
X80047619Y66535714D02*
X80000000Y66488095D01*
X79952381Y66392857D01*
X79952381Y66154761D01*
X80000000Y66059523D01*
X80047619Y66011904D01*
X80142857Y65964285D01*
X80238095Y65964285D01*
X80380952Y66011904D01*
X80952381Y66583333D01*
X80952381Y65964285D01*
X79952381Y65345238D02*
X79952381Y65249999D01*
X80000000Y65154761D01*
X80047619Y65107142D01*
X80142857Y65059523D01*
X80333333Y65011904D01*
X80571429Y65011904D01*
X80761905Y65059523D01*
X80857143Y65107142D01*
X80904762Y65154761D01*
X80952381Y65249999D01*
X80952381Y65345238D01*
X80904762Y65440476D01*
X80857143Y65488095D01*
X80761905Y65535714D01*
X80571429Y65583333D01*
X80333333Y65583333D01*
X80142857Y65535714D01*
X80047619Y65488095D01*
X80000000Y65440476D01*
X79952381Y65345238D01*
X62547619Y67988095D02*
X62500000Y67940476D01*
X62452381Y67845238D01*
X62452381Y67607142D01*
X62500000Y67511904D01*
X62547619Y67464285D01*
X62642857Y67416666D01*
X62738095Y67416666D01*
X62880952Y67464285D01*
X63452381Y68035714D01*
X63452381Y67416666D01*
X62547619Y67035714D02*
X62500000Y66988095D01*
X62452381Y66892857D01*
X62452381Y66654761D01*
X62500000Y66559523D01*
X62547619Y66511904D01*
X62642857Y66464285D01*
X62738095Y66464285D01*
X62880952Y66511904D01*
X63452381Y67083333D01*
X63452381Y66464285D01*
X62452381Y65845238D02*
X62452381Y65749999D01*
X62500000Y65654761D01*
X62547619Y65607142D01*
X62642857Y65559523D01*
X62833333Y65511904D01*
X63071429Y65511904D01*
X63261905Y65559523D01*
X63357143Y65607142D01*
X63404762Y65654761D01*
X63452381Y65749999D01*
X63452381Y65845238D01*
X63404762Y65940476D01*
X63357143Y65988095D01*
X63261905Y66035714D01*
X63071429Y66083333D01*
X62833333Y66083333D01*
X62642857Y66035714D01*
X62547619Y65988095D01*
X62500000Y65940476D01*
X62452381Y65845238D01*
X64988095Y24702381D02*
X64940476Y24750000D01*
X64845238Y24797619D01*
X64607142Y24797619D01*
X64511904Y24750000D01*
X64464285Y24702381D01*
X64416666Y24607143D01*
X64416666Y24511905D01*
X64464285Y24369048D01*
X65035714Y23797619D01*
X64416666Y23797619D01*
X64035714Y24702381D02*
X63988095Y24750000D01*
X63892857Y24797619D01*
X63654761Y24797619D01*
X63559523Y24750000D01*
X63511904Y24702381D01*
X63464285Y24607143D01*
X63464285Y24511905D01*
X63511904Y24369048D01*
X64083333Y23797619D01*
X63464285Y23797619D01*
X62845238Y24797619D02*
X62749999Y24797619D01*
X62654761Y24750000D01*
X62607142Y24702381D01*
X62559523Y24607143D01*
X62511904Y24416667D01*
X62511904Y24178571D01*
X62559523Y23988095D01*
X62607142Y23892857D01*
X62654761Y23845238D01*
X62749999Y23797619D01*
X62845238Y23797619D01*
X62940476Y23845238D01*
X62988095Y23892857D01*
X63035714Y23988095D01*
X63083333Y24178571D01*
X63083333Y24416667D01*
X63035714Y24607143D01*
X62988095Y24702381D01*
X62940476Y24750000D01*
X62845238Y24797619D01*
X82452381Y67345238D02*
X82452381Y67916667D01*
X82452381Y67630953D02*
X81452381Y67630953D01*
X81595238Y67726191D01*
X81690476Y67821429D01*
X81738095Y67916667D01*
X81452381Y66726191D02*
X81452381Y66630952D01*
X81500000Y66535714D01*
X81547619Y66488095D01*
X81642857Y66440476D01*
X81833333Y66392857D01*
X82071429Y66392857D01*
X82261905Y66440476D01*
X82357143Y66488095D01*
X82404762Y66535714D01*
X82452381Y66630952D01*
X82452381Y66726191D01*
X82404762Y66821429D01*
X82357143Y66869048D01*
X82261905Y66916667D01*
X82071429Y66964286D01*
X81833333Y66964286D01*
X81642857Y66916667D01*
X81547619Y66869048D01*
X81500000Y66821429D01*
X81452381Y66726191D01*
X82452381Y65964286D02*
X81452381Y65964286D01*
X82071429Y65869048D02*
X82452381Y65583333D01*
X81785714Y65583333D02*
X82166667Y65964286D01*
X64952381Y67595238D02*
X64952381Y68166667D01*
X64952381Y67880953D02*
X63952381Y67880953D01*
X64095238Y67976191D01*
X64190476Y68071429D01*
X64238095Y68166667D01*
X63952381Y66976191D02*
X63952381Y66880952D01*
X64000000Y66785714D01*
X64047619Y66738095D01*
X64142857Y66690476D01*
X64333333Y66642857D01*
X64571429Y66642857D01*
X64761905Y66690476D01*
X64857143Y66738095D01*
X64904762Y66785714D01*
X64952381Y66880952D01*
X64952381Y66976191D01*
X64904762Y67071429D01*
X64857143Y67119048D01*
X64761905Y67166667D01*
X64571429Y67214286D01*
X64333333Y67214286D01*
X64142857Y67166667D01*
X64047619Y67119048D01*
X64000000Y67071429D01*
X63952381Y66976191D01*
X64952381Y66214286D02*
X63952381Y66214286D01*
X64571429Y66119048D02*
X64952381Y65833333D01*
X64285714Y65833333D02*
X64666667Y66214286D01*
X64345238Y25797619D02*
X64916667Y25797619D01*
X64630953Y25797619D02*
X64630953Y26797619D01*
X64726191Y26654762D01*
X64821429Y26559524D01*
X64916667Y26511905D01*
X63726191Y26797619D02*
X63630952Y26797619D01*
X63535714Y26750000D01*
X63488095Y26702381D01*
X63440476Y26607143D01*
X63392857Y26416667D01*
X63392857Y26178571D01*
X63440476Y25988095D01*
X63488095Y25892857D01*
X63535714Y25845238D01*
X63630952Y25797619D01*
X63726191Y25797619D01*
X63821429Y25845238D01*
X63869048Y25892857D01*
X63916667Y25988095D01*
X63964286Y26178571D01*
X63964286Y26416667D01*
X63916667Y26607143D01*
X63869048Y26702381D01*
X63821429Y26750000D01*
X63726191Y26797619D01*
X62964286Y25797619D02*
X62964286Y26797619D01*
X62869048Y26178571D02*
X62583333Y25797619D01*
X62583333Y26464286D02*
X62964286Y26083333D01*
X64345238Y57047619D02*
X64916667Y57047619D01*
X64630953Y57047619D02*
X64630953Y58047619D01*
X64726191Y57904762D01*
X64821429Y57809524D01*
X64916667Y57761905D01*
X63726191Y58047619D02*
X63630952Y58047619D01*
X63535714Y58000000D01*
X63488095Y57952381D01*
X63440476Y57857143D01*
X63392857Y57666667D01*
X63392857Y57428571D01*
X63440476Y57238095D01*
X63488095Y57142857D01*
X63535714Y57095238D01*
X63630952Y57047619D01*
X63726191Y57047619D01*
X63821429Y57095238D01*
X63869048Y57142857D01*
X63916667Y57238095D01*
X63964286Y57428571D01*
X63964286Y57666667D01*
X63916667Y57857143D01*
X63869048Y57952381D01*
X63821429Y58000000D01*
X63726191Y58047619D01*
X62964286Y57047619D02*
X62964286Y58047619D01*
X62869048Y57428571D02*
X62583333Y57047619D01*
X62583333Y57714286D02*
X62964286Y57333333D01*
X36488095Y62452381D02*
X36440476Y62500000D01*
X36345238Y62547619D01*
X36107142Y62547619D01*
X36011904Y62500000D01*
X35964285Y62452381D01*
X35916666Y62357143D01*
X35916666Y62261905D01*
X35964285Y62119048D01*
X36535714Y61547619D01*
X35916666Y61547619D01*
X35535714Y62452381D02*
X35488095Y62500000D01*
X35392857Y62547619D01*
X35154761Y62547619D01*
X35059523Y62500000D01*
X35011904Y62452381D01*
X34964285Y62357143D01*
X34964285Y62261905D01*
X35011904Y62119048D01*
X35583333Y61547619D01*
X34964285Y61547619D01*
X34345238Y62547619D02*
X34249999Y62547619D01*
X34154761Y62500000D01*
X34107142Y62452381D01*
X34059523Y62357143D01*
X34011904Y62166667D01*
X34011904Y61928571D01*
X34059523Y61738095D01*
X34107142Y61642857D01*
X34154761Y61595238D01*
X34249999Y61547619D01*
X34345238Y61547619D01*
X34440476Y61595238D01*
X34488095Y61642857D01*
X34535714Y61738095D01*
X34583333Y61928571D01*
X34583333Y62166667D01*
X34535714Y62357143D01*
X34488095Y62452381D01*
X34440476Y62500000D01*
X34345238Y62547619D01*
X53238095Y62452381D02*
X53190476Y62500000D01*
X53095238Y62547619D01*
X52857142Y62547619D01*
X52761904Y62500000D01*
X52714285Y62452381D01*
X52666666Y62357143D01*
X52666666Y62261905D01*
X52714285Y62119048D01*
X53285714Y61547619D01*
X52666666Y61547619D01*
X52285714Y62452381D02*
X52238095Y62500000D01*
X52142857Y62547619D01*
X51904761Y62547619D01*
X51809523Y62500000D01*
X51761904Y62452381D01*
X51714285Y62357143D01*
X51714285Y62261905D01*
X51761904Y62119048D01*
X52333333Y61547619D01*
X51714285Y61547619D01*
X51095238Y62547619D02*
X50999999Y62547619D01*
X50904761Y62500000D01*
X50857142Y62452381D01*
X50809523Y62357143D01*
X50761904Y62166667D01*
X50761904Y61928571D01*
X50809523Y61738095D01*
X50857142Y61642857D01*
X50904761Y61595238D01*
X50999999Y61547619D01*
X51095238Y61547619D01*
X51190476Y61595238D01*
X51238095Y61642857D01*
X51285714Y61738095D01*
X51333333Y61928571D01*
X51333333Y62166667D01*
X51285714Y62357143D01*
X51238095Y62452381D01*
X51190476Y62500000D01*
X51095238Y62547619D01*
X53345238Y46547619D02*
X53916667Y46547619D01*
X53630953Y46547619D02*
X53630953Y47547619D01*
X53726191Y47404762D01*
X53821429Y47309524D01*
X53916667Y47261905D01*
X52726191Y47547619D02*
X52630952Y47547619D01*
X52535714Y47500000D01*
X52488095Y47452381D01*
X52440476Y47357143D01*
X52392857Y47166667D01*
X52392857Y46928571D01*
X52440476Y46738095D01*
X52488095Y46642857D01*
X52535714Y46595238D01*
X52630952Y46547619D01*
X52726191Y46547619D01*
X52821429Y46595238D01*
X52869048Y46642857D01*
X52916667Y46738095D01*
X52964286Y46928571D01*
X52964286Y47166667D01*
X52916667Y47357143D01*
X52869048Y47452381D01*
X52821429Y47500000D01*
X52726191Y47547619D01*
X51964286Y46547619D02*
X51964286Y47547619D01*
X51869048Y46928571D02*
X51583333Y46547619D01*
X51583333Y47214286D02*
X51964286Y46833333D01*
X35845238Y63047619D02*
X36416667Y63047619D01*
X36130953Y63047619D02*
X36130953Y64047619D01*
X36226191Y63904762D01*
X36321429Y63809524D01*
X36416667Y63761905D01*
X35226191Y64047619D02*
X35130952Y64047619D01*
X35035714Y64000000D01*
X34988095Y63952381D01*
X34940476Y63857143D01*
X34892857Y63666667D01*
X34892857Y63428571D01*
X34940476Y63238095D01*
X34988095Y63142857D01*
X35035714Y63095238D01*
X35130952Y63047619D01*
X35226191Y63047619D01*
X35321429Y63095238D01*
X35369048Y63142857D01*
X35416667Y63238095D01*
X35464286Y63428571D01*
X35464286Y63666667D01*
X35416667Y63857143D01*
X35369048Y63952381D01*
X35321429Y64000000D01*
X35226191Y64047619D01*
X34464286Y63047619D02*
X34464286Y64047619D01*
X34369048Y63428571D02*
X34083333Y63047619D01*
X34083333Y63714286D02*
X34464286Y63333333D01*
X52595238Y63297619D02*
X53166667Y63297619D01*
X52880953Y63297619D02*
X52880953Y64297619D01*
X52976191Y64154762D01*
X53071429Y64059524D01*
X53166667Y64011905D01*
X51976191Y64297619D02*
X51880952Y64297619D01*
X51785714Y64250000D01*
X51738095Y64202381D01*
X51690476Y64107143D01*
X51642857Y63916667D01*
X51642857Y63678571D01*
X51690476Y63488095D01*
X51738095Y63392857D01*
X51785714Y63345238D01*
X51880952Y63297619D01*
X51976191Y63297619D01*
X52071429Y63345238D01*
X52119048Y63392857D01*
X52166667Y63488095D01*
X52214286Y63678571D01*
X52214286Y63916667D01*
X52166667Y64107143D01*
X52119048Y64202381D01*
X52071429Y64250000D01*
X51976191Y64297619D01*
X51214286Y63297619D02*
X51214286Y64297619D01*
X51119048Y63678571D02*
X50833333Y63297619D01*
X50833333Y63964286D02*
X51214286Y63583333D01*
X12690476Y39047619D02*
X13023810Y39523810D01*
X13261905Y39047619D02*
X13261905Y40047619D01*
X12880952Y40047619D01*
X12785714Y40000000D01*
X12738095Y39952381D01*
X12690476Y39857143D01*
X12690476Y39714286D01*
X12738095Y39619048D01*
X12785714Y39571429D01*
X12880952Y39523810D01*
X13261905Y39523810D01*
X12440476Y42547619D02*
X12773810Y43023810D01*
X13011905Y42547619D02*
X13011905Y43547619D01*
X12630952Y43547619D01*
X12535714Y43500000D01*
X12488095Y43452381D01*
X12440476Y43357143D01*
X12440476Y43214286D01*
X12488095Y43119048D01*
X12535714Y43071429D01*
X12630952Y43023810D01*
X13011905Y43023810D01*
X25964286Y45797619D02*
X25345238Y45797619D01*
X25678572Y45416667D01*
X25535714Y45416667D01*
X25440476Y45369048D01*
X25392857Y45321429D01*
X25345238Y45226190D01*
X25345238Y44988095D01*
X25392857Y44892857D01*
X25440476Y44845238D01*
X25535714Y44797619D01*
X25821429Y44797619D01*
X25916667Y44845238D01*
X25964286Y44892857D01*
X24916667Y44797619D02*
X24916667Y45797619D01*
X24821429Y45178571D02*
X24535714Y44797619D01*
X24535714Y45464286D02*
X24916667Y45083333D01*
X24202381Y45797619D02*
X23583333Y45797619D01*
X23916667Y45416667D01*
X23773809Y45416667D01*
X23678571Y45369048D01*
X23630952Y45321429D01*
X23583333Y45226190D01*
X23583333Y44988095D01*
X23630952Y44892857D01*
X23678571Y44845238D01*
X23773809Y44797619D01*
X24059524Y44797619D01*
X24154762Y44845238D01*
X24202381Y44892857D01*
X23452381Y57964286D02*
X23452381Y57345238D01*
X23833333Y57678572D01*
X23833333Y57535714D01*
X23880952Y57440476D01*
X23928571Y57392857D01*
X24023810Y57345238D01*
X24261905Y57345238D01*
X24357143Y57392857D01*
X24404762Y57440476D01*
X24452381Y57535714D01*
X24452381Y57821429D01*
X24404762Y57916667D01*
X24357143Y57964286D01*
X24452381Y56916667D02*
X23452381Y56916667D01*
X24071429Y56821429D02*
X24452381Y56535714D01*
X23785714Y56535714D02*
X24166667Y56916667D01*
X23452381Y56202381D02*
X23452381Y55583333D01*
X23833333Y55916667D01*
X23833333Y55773809D01*
X23880952Y55678571D01*
X23928571Y55630952D01*
X24023810Y55583333D01*
X24261905Y55583333D01*
X24357143Y55630952D01*
X24404762Y55678571D01*
X24452381Y55773809D01*
X24452381Y56059524D01*
X24404762Y56154762D01*
X24357143Y56202381D01*
X37902381Y32190476D02*
X37426190Y32523810D01*
X37902381Y32761905D02*
X36902381Y32761905D01*
X36902381Y32380952D01*
X36950000Y32285714D01*
X36997619Y32238095D01*
X37092857Y32190476D01*
X37235714Y32190476D01*
X37330952Y32238095D01*
X37378571Y32285714D01*
X37426190Y32380952D01*
X37426190Y32761905D01*
X63869047Y32797619D02*
X64440476Y32797619D01*
X64154762Y32797619D02*
X64154762Y33797619D01*
X64250000Y33654762D01*
X64345238Y33559524D01*
X64440476Y33511905D01*
X63440476Y32797619D02*
X63440476Y33797619D01*
X63345238Y33178571D02*
X63059523Y32797619D01*
X63059523Y33464286D02*
X63440476Y33083333D01*
X36797619Y20988095D02*
X36750000Y20940476D01*
X36702381Y20845238D01*
X36702381Y20607142D01*
X36750000Y20511904D01*
X36797619Y20464285D01*
X36892857Y20416666D01*
X36988095Y20416666D01*
X37130952Y20464285D01*
X37702381Y21035714D01*
X37702381Y20416666D01*
X36797619Y20035714D02*
X36750000Y19988095D01*
X36702381Y19892857D01*
X36702381Y19654761D01*
X36750000Y19559523D01*
X36797619Y19511904D01*
X36892857Y19464285D01*
X36988095Y19464285D01*
X37130952Y19511904D01*
X37702381Y20083333D01*
X37702381Y19464285D01*
X36702381Y18845238D02*
X36702381Y18749999D01*
X36750000Y18654761D01*
X36797619Y18607142D01*
X36892857Y18559523D01*
X37083333Y18511904D01*
X37321429Y18511904D01*
X37511905Y18559523D01*
X37607143Y18607142D01*
X37654762Y18654761D01*
X37702381Y18749999D01*
X37702381Y18845238D01*
X37654762Y18940476D01*
X37607143Y18988095D01*
X37511905Y19035714D01*
X37321429Y19083333D01*
X37083333Y19083333D01*
X36892857Y19035714D01*
X36797619Y18988095D01*
X36750000Y18940476D01*
X36702381Y18845238D01*
X39952381Y20595238D02*
X39952381Y21166667D01*
X39952381Y20880953D02*
X38952381Y20880953D01*
X39095238Y20976191D01*
X39190476Y21071429D01*
X39238095Y21166667D01*
X38952381Y19976191D02*
X38952381Y19880952D01*
X39000000Y19785714D01*
X39047619Y19738095D01*
X39142857Y19690476D01*
X39333333Y19642857D01*
X39571429Y19642857D01*
X39761905Y19690476D01*
X39857143Y19738095D01*
X39904762Y19785714D01*
X39952381Y19880952D01*
X39952381Y19976191D01*
X39904762Y20071429D01*
X39857143Y20119048D01*
X39761905Y20166667D01*
X39571429Y20214286D01*
X39333333Y20214286D01*
X39142857Y20166667D01*
X39047619Y20119048D01*
X39000000Y20071429D01*
X38952381Y19976191D01*
X39952381Y19214286D02*
X38952381Y19214286D01*
X39571429Y19119048D02*
X39952381Y18833333D01*
X39285714Y18833333D02*
X39666667Y19214286D01*
X12452381Y58619047D02*
X12452381Y59190476D01*
X12452381Y58904762D02*
X11452381Y58904762D01*
X11595238Y59000000D01*
X11690476Y59095238D01*
X11738095Y59190476D01*
X12452381Y58190476D02*
X11452381Y58190476D01*
X12071429Y58095238D02*
X12452381Y57809523D01*
X11785714Y57809523D02*
X12166667Y58190476D01*
X16595238Y52297619D02*
X17166667Y52297619D01*
X16880953Y52297619D02*
X16880953Y53297619D01*
X16976191Y53154762D01*
X17071429Y53059524D01*
X17166667Y53011905D01*
X15976191Y53297619D02*
X15880952Y53297619D01*
X15785714Y53250000D01*
X15738095Y53202381D01*
X15690476Y53107143D01*
X15642857Y52916667D01*
X15642857Y52678571D01*
X15690476Y52488095D01*
X15738095Y52392857D01*
X15785714Y52345238D01*
X15880952Y52297619D01*
X15976191Y52297619D01*
X16071429Y52345238D01*
X16119048Y52392857D01*
X16166667Y52488095D01*
X16214286Y52678571D01*
X16214286Y52916667D01*
X16166667Y53107143D01*
X16119048Y53202381D01*
X16071429Y53250000D01*
X15976191Y53297619D01*
X15214286Y52297619D02*
X15214286Y53297619D01*
X15119048Y52678571D02*
X14833333Y52297619D01*
X14833333Y52964286D02*
X15214286Y52583333D01*
X37297619Y11238095D02*
X37250000Y11190476D01*
X37202381Y11095238D01*
X37202381Y10857142D01*
X37250000Y10761904D01*
X37297619Y10714285D01*
X37392857Y10666666D01*
X37488095Y10666666D01*
X37630952Y10714285D01*
X38202381Y11285714D01*
X38202381Y10666666D01*
X37297619Y10285714D02*
X37250000Y10238095D01*
X37202381Y10142857D01*
X37202381Y9904761D01*
X37250000Y9809523D01*
X37297619Y9761904D01*
X37392857Y9714285D01*
X37488095Y9714285D01*
X37630952Y9761904D01*
X38202381Y10333333D01*
X38202381Y9714285D01*
X37202381Y9095238D02*
X37202381Y8999999D01*
X37250000Y8904761D01*
X37297619Y8857142D01*
X37392857Y8809523D01*
X37583333Y8761904D01*
X37821429Y8761904D01*
X38011905Y8809523D01*
X38107143Y8857142D01*
X38154762Y8904761D01*
X38202381Y8999999D01*
X38202381Y9095238D01*
X38154762Y9190476D01*
X38107143Y9238095D01*
X38011905Y9285714D01*
X37821429Y9333333D01*
X37583333Y9333333D01*
X37392857Y9285714D01*
X37297619Y9238095D01*
X37250000Y9190476D01*
X37202381Y9095238D01*
X34202381Y10095238D02*
X34202381Y10666667D01*
X34202381Y10380953D02*
X33202381Y10380953D01*
X33345238Y10476191D01*
X33440476Y10571429D01*
X33488095Y10666667D01*
X33202381Y9476191D02*
X33202381Y9380952D01*
X33250000Y9285714D01*
X33297619Y9238095D01*
X33392857Y9190476D01*
X33583333Y9142857D01*
X33821429Y9142857D01*
X34011905Y9190476D01*
X34107143Y9238095D01*
X34154762Y9285714D01*
X34202381Y9380952D01*
X34202381Y9476191D01*
X34154762Y9571429D01*
X34107143Y9619048D01*
X34011905Y9666667D01*
X33821429Y9714286D01*
X33583333Y9714286D01*
X33392857Y9666667D01*
X33297619Y9619048D01*
X33250000Y9571429D01*
X33202381Y9476191D01*
X34202381Y8714286D02*
X33202381Y8714286D01*
X33821429Y8619048D02*
X34202381Y8333333D01*
X33535714Y8333333D02*
X33916667Y8714286D01*
X82016667Y44247619D02*
X82016667Y45247619D01*
X81635714Y45247619D01*
X81540476Y45200000D01*
X81492857Y45152381D01*
X81445238Y45057143D01*
X81445238Y44914286D01*
X81492857Y44819048D01*
X81540476Y44771429D01*
X81635714Y44723810D01*
X82016667Y44723810D01*
X80826191Y45247619D02*
X80635714Y45247619D01*
X80540476Y45200000D01*
X80445238Y45104762D01*
X80397619Y44914286D01*
X80397619Y44580952D01*
X80445238Y44390476D01*
X80540476Y44295238D01*
X80635714Y44247619D01*
X80826191Y44247619D01*
X80921429Y44295238D01*
X81016667Y44390476D01*
X81064286Y44580952D01*
X81064286Y44914286D01*
X81016667Y45104762D01*
X80921429Y45200000D01*
X80826191Y45247619D01*
X80111905Y45247619D02*
X79540476Y45247619D01*
X79826191Y44247619D02*
X79826191Y45247619D01*
X21279461Y10009185D02*
X22088985Y10009185D01*
X22184223Y9961566D01*
X22231842Y9913947D01*
X22279461Y9818709D01*
X22279461Y9628232D01*
X22231842Y9532994D01*
X22184223Y9485375D01*
X22088985Y9437756D01*
X21279461Y9437756D01*
X22231842Y9009185D02*
X22279461Y8866328D01*
X22279461Y8628232D01*
X22231842Y8532994D01*
X22184223Y8485375D01*
X22088985Y8437756D01*
X21993747Y8437756D01*
X21898509Y8485375D01*
X21850890Y8532994D01*
X21803270Y8628232D01*
X21755651Y8818709D01*
X21708032Y8913947D01*
X21660413Y8961566D01*
X21565175Y9009185D01*
X21469937Y9009185D01*
X21374699Y8961566D01*
X21327080Y8913947D01*
X21279461Y8818709D01*
X21279461Y8580613D01*
X21327080Y8437756D01*
X21755651Y7675851D02*
X21803270Y7532994D01*
X21850890Y7485375D01*
X21946128Y7437756D01*
X22088985Y7437756D01*
X22184223Y7485375D01*
X22231842Y7532994D01*
X22279461Y7628232D01*
X22279461Y8009185D01*
X21279461Y8009185D01*
X21279461Y7675851D01*
X21327080Y7580613D01*
X21374699Y7532994D01*
X21469937Y7485375D01*
X21565175Y7485375D01*
X21660413Y7532994D01*
X21708032Y7580613D01*
X21755651Y7675851D01*
X21755651Y8009185D01*
X19440476Y57047619D02*
X19773810Y57523810D01*
X20011905Y57047619D02*
X20011905Y58047619D01*
X19630952Y58047619D01*
X19535714Y58000000D01*
X19488095Y57952381D01*
X19440476Y57857143D01*
X19440476Y57714286D01*
X19488095Y57619048D01*
X19535714Y57571429D01*
X19630952Y57523810D01*
X20011905Y57523810D01*
X19154762Y58047619D02*
X18583333Y58047619D01*
X18869048Y57047619D02*
X18869048Y58047619D01*
X17678571Y57142857D02*
X17726190Y57095238D01*
X17869047Y57047619D01*
X17964285Y57047619D01*
X18107143Y57095238D01*
X18202381Y57190476D01*
X18250000Y57285714D01*
X18297619Y57476190D01*
X18297619Y57619048D01*
X18250000Y57809524D01*
X18202381Y57904762D01*
X18107143Y58000000D01*
X17964285Y58047619D01*
X17869047Y58047619D01*
X17726190Y58000000D01*
X17678571Y57952381D01*
X17488095Y56952381D02*
X16726190Y56952381D01*
X16488095Y57047619D02*
X16488095Y58047619D01*
X15440476Y57142857D02*
X15488095Y57095238D01*
X15630952Y57047619D01*
X15726190Y57047619D01*
X15869048Y57095238D01*
X15964286Y57190476D01*
X16011905Y57285714D01*
X16059524Y57476190D01*
X16059524Y57619048D01*
X16011905Y57809524D01*
X15964286Y57904762D01*
X15869048Y58000000D01*
X15726190Y58047619D01*
X15630952Y58047619D01*
X15488095Y58000000D01*
X15440476Y57952381D01*
X38345238Y54869048D02*
X38440476Y54916667D01*
X38488095Y54964286D01*
X38535714Y55059524D01*
X38535714Y55107143D01*
X38488095Y55202381D01*
X38440476Y55250000D01*
X38345238Y55297619D01*
X38154761Y55297619D01*
X38059523Y55250000D01*
X38011904Y55202381D01*
X37964285Y55107143D01*
X37964285Y55059524D01*
X38011904Y54964286D01*
X38059523Y54916667D01*
X38154761Y54869048D01*
X38345238Y54869048D01*
X38440476Y54821429D01*
X38488095Y54773810D01*
X38535714Y54678571D01*
X38535714Y54488095D01*
X38488095Y54392857D01*
X38440476Y54345238D01*
X38345238Y54297619D01*
X38154761Y54297619D01*
X38059523Y54345238D01*
X38011904Y54392857D01*
X37964285Y54488095D01*
X37964285Y54678571D01*
X38011904Y54773810D01*
X38059523Y54821429D01*
X38154761Y54869048D01*
X37535714Y54297619D02*
X37535714Y55297619D01*
X37202380Y54583333D01*
X36869047Y55297619D01*
X36869047Y54297619D01*
X36392857Y54297619D02*
X36392857Y55297619D01*
X36392857Y54821429D02*
X35821428Y54821429D01*
X35821428Y54297619D02*
X35821428Y55297619D01*
X35440476Y54964286D02*
X34916666Y54964286D01*
X35440476Y54297619D01*
X34916666Y54297619D01*
X19830952Y62847619D02*
X19211904Y62847619D01*
X19545238Y62466667D01*
X19402380Y62466667D01*
X19307142Y62419048D01*
X19259523Y62371429D01*
X19211904Y62276190D01*
X19211904Y62038095D01*
X19259523Y61942857D01*
X19307142Y61895238D01*
X19402380Y61847619D01*
X19688095Y61847619D01*
X19783333Y61895238D01*
X19830952Y61942857D01*
X18830952Y62752381D02*
X18783333Y62800000D01*
X18688095Y62847619D01*
X18449999Y62847619D01*
X18354761Y62800000D01*
X18307142Y62752381D01*
X18259523Y62657143D01*
X18259523Y62561905D01*
X18307142Y62419048D01*
X18878571Y61847619D01*
X18259523Y61847619D01*
X17830952Y61942857D02*
X17783333Y61895238D01*
X17830952Y61847619D01*
X17878571Y61895238D01*
X17830952Y61942857D01*
X17830952Y61847619D01*
X17450000Y62847619D02*
X16783333Y62847619D01*
X17211905Y61847619D01*
X15973809Y62847619D02*
X16164286Y62847619D01*
X16259524Y62800000D01*
X16307143Y62752381D01*
X16402381Y62609524D01*
X16450000Y62419048D01*
X16450000Y62038095D01*
X16402381Y61942857D01*
X16354762Y61895238D01*
X16259524Y61847619D01*
X16069047Y61847619D01*
X15973809Y61895238D01*
X15926190Y61942857D01*
X15878571Y62038095D01*
X15878571Y62276190D01*
X15926190Y62371429D01*
X15973809Y62419048D01*
X16069047Y62466667D01*
X16259524Y62466667D01*
X16354762Y62419048D01*
X16402381Y62371429D01*
X16450000Y62276190D01*
X15307143Y62419048D02*
X15402381Y62466667D01*
X15450000Y62514286D01*
X15497619Y62609524D01*
X15497619Y62657143D01*
X15450000Y62752381D01*
X15402381Y62800000D01*
X15307143Y62847619D01*
X15116666Y62847619D01*
X15021428Y62800000D01*
X14973809Y62752381D01*
X14926190Y62657143D01*
X14926190Y62609524D01*
X14973809Y62514286D01*
X15021428Y62466667D01*
X15116666Y62419048D01*
X15307143Y62419048D01*
X15402381Y62371429D01*
X15450000Y62323810D01*
X15497619Y62228571D01*
X15497619Y62038095D01*
X15450000Y61942857D01*
X15402381Y61895238D01*
X15307143Y61847619D01*
X15116666Y61847619D01*
X15021428Y61895238D01*
X14973809Y61942857D01*
X14926190Y62038095D01*
X14926190Y62228571D01*
X14973809Y62323810D01*
X15021428Y62371429D01*
X15116666Y62419048D01*
X14497619Y61847619D02*
X14497619Y62847619D01*
X14402381Y62228571D02*
X14116666Y61847619D01*
X14116666Y62514286D02*
X14497619Y62133333D01*
X26202381Y12619047D02*
X26202381Y13190476D01*
X26202381Y12904762D02*
X25202381Y12904762D01*
X25345238Y13000000D01*
X25440476Y13095238D01*
X25488095Y13190476D01*
X25202381Y12000000D02*
X25202381Y11904761D01*
X25250000Y11809523D01*
X25297619Y11761904D01*
X25392857Y11714285D01*
X25583333Y11666666D01*
X25821429Y11666666D01*
X26011905Y11714285D01*
X26107143Y11761904D01*
X26154762Y11809523D01*
X26202381Y11904761D01*
X26202381Y12000000D01*
X26154762Y12095238D01*
X26107143Y12142857D01*
X26011905Y12190476D01*
X25821429Y12238095D01*
X25583333Y12238095D01*
X25392857Y12190476D01*
X25297619Y12142857D01*
X25250000Y12095238D01*
X25202381Y12000000D01*
X25202381Y11047619D02*
X25202381Y10952380D01*
X25250000Y10857142D01*
X25297619Y10809523D01*
X25392857Y10761904D01*
X25583333Y10714285D01*
X25821429Y10714285D01*
X26011905Y10761904D01*
X26107143Y10809523D01*
X26154762Y10857142D01*
X26202381Y10952380D01*
X26202381Y11047619D01*
X26154762Y11142857D01*
X26107143Y11190476D01*
X26011905Y11238095D01*
X25821429Y11285714D01*
X25583333Y11285714D01*
X25392857Y11238095D01*
X25297619Y11190476D01*
X25250000Y11142857D01*
X25202381Y11047619D01*
X25535714Y10285714D02*
X26202381Y10285714D01*
X25630952Y10285714D02*
X25583333Y10238095D01*
X25535714Y10142857D01*
X25535714Y9999999D01*
X25583333Y9904761D01*
X25678571Y9857142D01*
X26202381Y9857142D01*
X66321429Y22571429D02*
X65988095Y22571429D01*
X65845238Y22047619D02*
X66321429Y22047619D01*
X66321429Y23047619D01*
X65845238Y23047619D01*
X65464286Y22095238D02*
X65321429Y22047619D01*
X65083333Y22047619D01*
X64988095Y22095238D01*
X64940476Y22142857D01*
X64892857Y22238095D01*
X64892857Y22333333D01*
X64940476Y22428571D01*
X64988095Y22476190D01*
X65083333Y22523810D01*
X65273810Y22571429D01*
X65369048Y22619048D01*
X65416667Y22666667D01*
X65464286Y22761905D01*
X65464286Y22857143D01*
X65416667Y22952381D01*
X65369048Y23000000D01*
X65273810Y23047619D01*
X65035714Y23047619D01*
X64892857Y23000000D01*
X64464286Y22047619D02*
X64464286Y23047619D01*
X64226191Y23047619D01*
X64083333Y23000000D01*
X63988095Y22904762D01*
X63940476Y22809524D01*
X63892857Y22619048D01*
X63892857Y22476190D01*
X63940476Y22285714D01*
X63988095Y22190476D01*
X64083333Y22095238D01*
X64226191Y22047619D01*
X64464286Y22047619D01*
X63702381Y21952381D02*
X62940476Y21952381D01*
X62178571Y22047619D02*
X62750000Y22047619D01*
X62464286Y22047619D02*
X62464286Y23047619D01*
X62559524Y22904762D01*
X62654762Y22809524D01*
X62750000Y22761905D01*
X61178571Y22142857D02*
X61226190Y22095238D01*
X61369047Y22047619D01*
X61464285Y22047619D01*
X61607143Y22095238D01*
X61702381Y22190476D01*
X61750000Y22285714D01*
X61797619Y22476190D01*
X61797619Y22619048D01*
X61750000Y22809524D01*
X61702381Y22904762D01*
X61607143Y23000000D01*
X61464285Y23047619D01*
X61369047Y23047619D01*
X61226190Y23000000D01*
X61178571Y22952381D01*
X60750000Y22047619D02*
X60750000Y23047619D01*
X60750000Y22571429D02*
X60178571Y22571429D01*
X60178571Y22047619D02*
X60178571Y23047619D01*
X35428571Y23071429D02*
X35428571Y22738095D01*
X35952381Y22595238D02*
X35952381Y23071429D01*
X34952381Y23071429D01*
X34952381Y22595238D01*
X35904762Y22214286D02*
X35952381Y22071429D01*
X35952381Y21833333D01*
X35904762Y21738095D01*
X35857143Y21690476D01*
X35761905Y21642857D01*
X35666667Y21642857D01*
X35571429Y21690476D01*
X35523810Y21738095D01*
X35476190Y21833333D01*
X35428571Y22023810D01*
X35380952Y22119048D01*
X35333333Y22166667D01*
X35238095Y22214286D01*
X35142857Y22214286D01*
X35047619Y22166667D01*
X35000000Y22119048D01*
X34952381Y22023810D01*
X34952381Y21785714D01*
X35000000Y21642857D01*
X35952381Y21214286D02*
X34952381Y21214286D01*
X34952381Y20976191D01*
X35000000Y20833333D01*
X35095238Y20738095D01*
X35190476Y20690476D01*
X35380952Y20642857D01*
X35523810Y20642857D01*
X35714286Y20690476D01*
X35809524Y20738095D01*
X35904762Y20833333D01*
X35952381Y20976191D01*
X35952381Y21214286D01*
X36047619Y20452381D02*
X36047619Y19690476D01*
X35952381Y18928571D02*
X35952381Y19500000D01*
X35952381Y19214286D02*
X34952381Y19214286D01*
X35095238Y19309524D01*
X35190476Y19404762D01*
X35238095Y19500000D01*
X35857143Y17928571D02*
X35904762Y17976190D01*
X35952381Y18119047D01*
X35952381Y18214285D01*
X35904762Y18357143D01*
X35809524Y18452381D01*
X35714286Y18500000D01*
X35523810Y18547619D01*
X35380952Y18547619D01*
X35190476Y18500000D01*
X35095238Y18452381D01*
X35000000Y18357143D01*
X34952381Y18214285D01*
X34952381Y18119047D01*
X35000000Y17976190D01*
X35047619Y17928571D01*
X35952381Y17500000D02*
X34952381Y17500000D01*
X35428571Y17500000D02*
X35428571Y16928571D01*
X35952381Y16928571D02*
X34952381Y16928571D01*
X35428571Y12821429D02*
X35428571Y12488095D01*
X35952381Y12345238D02*
X35952381Y12821429D01*
X34952381Y12821429D01*
X34952381Y12345238D01*
X35904762Y11964286D02*
X35952381Y11821429D01*
X35952381Y11583333D01*
X35904762Y11488095D01*
X35857143Y11440476D01*
X35761905Y11392857D01*
X35666667Y11392857D01*
X35571429Y11440476D01*
X35523810Y11488095D01*
X35476190Y11583333D01*
X35428571Y11773810D01*
X35380952Y11869048D01*
X35333333Y11916667D01*
X35238095Y11964286D01*
X35142857Y11964286D01*
X35047619Y11916667D01*
X35000000Y11869048D01*
X34952381Y11773810D01*
X34952381Y11535714D01*
X35000000Y11392857D01*
X35952381Y10964286D02*
X34952381Y10964286D01*
X34952381Y10726191D01*
X35000000Y10583333D01*
X35095238Y10488095D01*
X35190476Y10440476D01*
X35380952Y10392857D01*
X35523810Y10392857D01*
X35714286Y10440476D01*
X35809524Y10488095D01*
X35904762Y10583333D01*
X35952381Y10726191D01*
X35952381Y10964286D01*
X36047619Y10202381D02*
X36047619Y9440476D01*
X35952381Y8678571D02*
X35952381Y9250000D01*
X35952381Y8964286D02*
X34952381Y8964286D01*
X35095238Y9059524D01*
X35190476Y9154762D01*
X35238095Y9250000D01*
X35857143Y7678571D02*
X35904762Y7726190D01*
X35952381Y7869047D01*
X35952381Y7964285D01*
X35904762Y8107143D01*
X35809524Y8202381D01*
X35714286Y8250000D01*
X35523810Y8297619D01*
X35380952Y8297619D01*
X35190476Y8250000D01*
X35095238Y8202381D01*
X35000000Y8107143D01*
X34952381Y7964285D01*
X34952381Y7869047D01*
X35000000Y7726190D01*
X35047619Y7678571D01*
X35952381Y7250000D02*
X34952381Y7250000D01*
X35428571Y7250000D02*
X35428571Y6678571D01*
X35952381Y6678571D02*
X34952381Y6678571D01*
X42702381Y7190476D02*
X42226190Y7523810D01*
X42702381Y7761905D02*
X41702381Y7761905D01*
X41702381Y7380952D01*
X41750000Y7285714D01*
X41797619Y7238095D01*
X41892857Y7190476D01*
X42035714Y7190476D01*
X42130952Y7238095D01*
X42178571Y7285714D01*
X42226190Y7380952D01*
X42226190Y7761905D01*
M02*
