G04 #@! TF.FileFunction,Copper,L2,Bot,Signal*
%FSLAX46Y46*%
G04 Gerber Fmt 4.6, Leading zero omitted, Abs format (unit mm)*
G04 Created by KiCad (PCBNEW 4.0.4+dfsg1-stable) date Tue Feb  7 08:23:58 2017*
%MOMM*%
%LPD*%
G01*
G04 APERTURE LIST*
%ADD10C,0.100000*%
%ADD11C,0.300000*%
%ADD12C,2.000000*%
%ADD13R,1.500000X0.550000*%
%ADD14R,0.550000X1.500000*%
%ADD15R,1.200000X0.750000*%
%ADD16R,0.600000X0.500000*%
%ADD17R,0.750000X1.200000*%
%ADD18R,1.300000X0.600000*%
%ADD19R,1.800000X1.800000*%
%ADD20O,1.800000X1.800000*%
%ADD21C,1.800000*%
%ADD22R,0.700000X1.000000*%
%ADD23R,1.000000X0.700000*%
%ADD24R,1.200000X0.600000*%
%ADD25C,1.500000*%
%ADD26R,2.000000X2.000000*%
%ADD27R,1.000760X2.501900*%
%ADD28R,1.998980X4.000500*%
%ADD29R,1.200000X0.900000*%
%ADD30R,0.900000X1.200000*%
%ADD31R,0.700000X0.900000*%
%ADD32R,0.900000X0.900000*%
%ADD33C,2.200000*%
%ADD34R,1.550000X2.650000*%
%ADD35R,0.400000X1.350000*%
%ADD36C,1.550000*%
%ADD37R,1.900000X1.900000*%
%ADD38R,0.450000X1.450000*%
%ADD39R,5.600700X2.100580*%
%ADD40R,1.200000X1.900000*%
%ADD41C,0.200000*%
%ADD42R,0.600000X1.300000*%
%ADD43C,1.100000*%
%ADD44C,0.500000*%
%ADD45C,0.200000*%
%ADD46C,0.250000*%
%ADD47C,0.700000*%
%ADD48C,0.254000*%
G04 APERTURE END LIST*
D10*
D11*
X23928571Y74846429D02*
X23928571Y73632143D01*
X23857143Y73489286D01*
X23785714Y73417857D01*
X23642857Y73346429D01*
X23357143Y73346429D01*
X23214285Y73417857D01*
X23142857Y73489286D01*
X23071428Y73632143D01*
X23071428Y74846429D01*
X21499999Y73346429D02*
X21999999Y74060714D01*
X22357142Y73346429D02*
X22357142Y74846429D01*
X21785714Y74846429D01*
X21642856Y74775000D01*
X21571428Y74703571D01*
X21499999Y74560714D01*
X21499999Y74346429D01*
X21571428Y74203571D01*
X21642856Y74132143D01*
X21785714Y74060714D01*
X22357142Y74060714D01*
X19714285Y73346429D02*
X19714285Y74846429D01*
X19214285Y73775000D01*
X18714285Y74846429D01*
X18714285Y73346429D01*
X17142856Y73489286D02*
X17214285Y73417857D01*
X17428571Y73346429D01*
X17571428Y73346429D01*
X17785713Y73417857D01*
X17928571Y73560714D01*
X17999999Y73703571D01*
X18071428Y73989286D01*
X18071428Y74203571D01*
X17999999Y74489286D01*
X17928571Y74632143D01*
X17785713Y74775000D01*
X17571428Y74846429D01*
X17428571Y74846429D01*
X17214285Y74775000D01*
X17142856Y74703571D01*
X16499999Y74846429D02*
X16499999Y73632143D01*
X16428571Y73489286D01*
X16357142Y73417857D01*
X16214285Y73346429D01*
X15928571Y73346429D01*
X15785713Y73417857D01*
X15714285Y73489286D01*
X15642856Y73632143D01*
X15642856Y74846429D01*
X13785713Y73346429D02*
X13785713Y74846429D01*
X13642856Y73917857D02*
X13214285Y73346429D01*
X13214285Y74346429D02*
X13785713Y73775000D01*
X11928570Y73346429D02*
X11928570Y74132143D01*
X11999999Y74275000D01*
X12142856Y74346429D01*
X12428570Y74346429D01*
X12571427Y74275000D01*
X11928570Y73417857D02*
X12071427Y73346429D01*
X12428570Y73346429D01*
X12571427Y73417857D01*
X12642856Y73560714D01*
X12642856Y73703571D01*
X12571427Y73846429D01*
X12428570Y73917857D01*
X12071427Y73917857D01*
X11928570Y73989286D01*
X10999998Y73346429D02*
X11142856Y73417857D01*
X11214284Y73560714D01*
X11214284Y74846429D01*
X10428570Y73489286D02*
X10357142Y73417857D01*
X10428570Y73346429D01*
X10499999Y73417857D01*
X10428570Y73489286D01*
X10428570Y73346429D01*
X8714284Y74346429D02*
X8357141Y73346429D01*
X7999999Y74346429D01*
X6642856Y73346429D02*
X7499999Y73346429D01*
X7071427Y73346429D02*
X7071427Y74846429D01*
X7214284Y74632143D01*
X7357142Y74489286D01*
X7499999Y74417857D01*
X5999999Y73489286D02*
X5928571Y73417857D01*
X5999999Y73346429D01*
X6071428Y73417857D01*
X5999999Y73489286D01*
X5999999Y73346429D01*
X4499999Y73346429D02*
X5357142Y73346429D01*
X4928570Y73346429D02*
X4928570Y74846429D01*
X5071427Y74632143D01*
X5214285Y74489286D01*
X5357142Y74417857D01*
X21071427Y71582143D02*
X21571427Y71582143D01*
X21571427Y70796429D02*
X21571427Y72296429D01*
X20857141Y72296429D01*
X19714285Y70867857D02*
X19857142Y70796429D01*
X20142856Y70796429D01*
X20285713Y70867857D01*
X20357142Y71010714D01*
X20357142Y71582143D01*
X20285713Y71725000D01*
X20142856Y71796429D01*
X19857142Y71796429D01*
X19714285Y71725000D01*
X19642856Y71582143D01*
X19642856Y71439286D01*
X20357142Y71296429D01*
X18999999Y70796429D02*
X18999999Y72296429D01*
X18999999Y71725000D02*
X18857142Y71796429D01*
X18571428Y71796429D01*
X18428571Y71725000D01*
X18357142Y71653571D01*
X18285713Y71510714D01*
X18285713Y71082143D01*
X18357142Y70939286D01*
X18428571Y70867857D01*
X18571428Y70796429D01*
X18857142Y70796429D01*
X18999999Y70867857D01*
X17642856Y70796429D02*
X17642856Y71796429D01*
X17642856Y71510714D02*
X17571428Y71653571D01*
X17499999Y71725000D01*
X17357142Y71796429D01*
X17214285Y71796429D01*
X16071428Y71796429D02*
X16071428Y70796429D01*
X16714285Y71796429D02*
X16714285Y71010714D01*
X16642857Y70867857D01*
X16499999Y70796429D01*
X16285714Y70796429D01*
X16142857Y70867857D01*
X16071428Y70939286D01*
X14714285Y70796429D02*
X14714285Y71582143D01*
X14785714Y71725000D01*
X14928571Y71796429D01*
X15214285Y71796429D01*
X15357142Y71725000D01*
X14714285Y70867857D02*
X14857142Y70796429D01*
X15214285Y70796429D01*
X15357142Y70867857D01*
X15428571Y71010714D01*
X15428571Y71153571D01*
X15357142Y71296429D01*
X15214285Y71367857D01*
X14857142Y71367857D01*
X14714285Y71439286D01*
X13999999Y70796429D02*
X13999999Y71796429D01*
X13999999Y71510714D02*
X13928571Y71653571D01*
X13857142Y71725000D01*
X13714285Y71796429D01*
X13571428Y71796429D01*
X12000000Y72153571D02*
X11928571Y72225000D01*
X11785714Y72296429D01*
X11428571Y72296429D01*
X11285714Y72225000D01*
X11214285Y72153571D01*
X11142857Y72010714D01*
X11142857Y71867857D01*
X11214285Y71653571D01*
X12071428Y70796429D01*
X11142857Y70796429D01*
X10214286Y72296429D02*
X10071429Y72296429D01*
X9928572Y72225000D01*
X9857143Y72153571D01*
X9785714Y72010714D01*
X9714286Y71725000D01*
X9714286Y71367857D01*
X9785714Y71082143D01*
X9857143Y70939286D01*
X9928572Y70867857D01*
X10071429Y70796429D01*
X10214286Y70796429D01*
X10357143Y70867857D01*
X10428572Y70939286D01*
X10500000Y71082143D01*
X10571429Y71367857D01*
X10571429Y71725000D01*
X10500000Y72010714D01*
X10428572Y72153571D01*
X10357143Y72225000D01*
X10214286Y72296429D01*
X8285715Y70796429D02*
X9142858Y70796429D01*
X8714286Y70796429D02*
X8714286Y72296429D01*
X8857143Y72082143D01*
X9000001Y71939286D01*
X9142858Y71867857D01*
X7785715Y72296429D02*
X6785715Y72296429D01*
X7428572Y70796429D01*
D12*
X42752100Y19248800D03*
X42752100Y25751200D03*
X47247900Y19325000D03*
X47247900Y25751200D03*
D13*
X44536900Y46380100D03*
X44536900Y45580100D03*
X44536900Y44780100D03*
X44536900Y43980100D03*
X44536900Y43180100D03*
X44536900Y42380100D03*
X44536900Y41580100D03*
X44536900Y40780100D03*
X44536900Y39980100D03*
X44536900Y39180100D03*
X44536900Y38380100D03*
D14*
X42836900Y36680100D03*
X42036900Y36680100D03*
X41236900Y36680100D03*
X40436900Y36680100D03*
X39636900Y36680100D03*
X38836900Y36680100D03*
X38036900Y36680100D03*
X37236900Y36680100D03*
X36436900Y36680100D03*
X35636900Y36680100D03*
X34836900Y36680100D03*
D13*
X33136900Y38380100D03*
X33136900Y39180100D03*
X33136900Y39980100D03*
X33136900Y40780100D03*
X33136900Y41580100D03*
X33136900Y42380100D03*
X33136900Y43180100D03*
X33136900Y43980100D03*
X33136900Y44780100D03*
X33136900Y45580100D03*
X33136900Y46380100D03*
D14*
X34836900Y48080100D03*
X35636900Y48080100D03*
X36436900Y48080100D03*
X37236900Y48080100D03*
X38036900Y48080100D03*
X38836900Y48080100D03*
X39636900Y48080100D03*
X40436900Y48080100D03*
X41236900Y48080100D03*
X42036900Y48080100D03*
X42836900Y48080100D03*
D12*
X4950000Y60600000D03*
X25450000Y60600000D03*
D15*
X46700000Y45200000D03*
X48600000Y45200000D03*
X46750000Y46600000D03*
X48650000Y46600000D03*
X29750000Y46200000D03*
X27850000Y46200000D03*
X31150000Y44800000D03*
X29250000Y44800000D03*
D16*
X36250000Y50700000D03*
X35150000Y50700000D03*
X37450000Y50700000D03*
X38550000Y50700000D03*
D17*
X37200000Y34650000D03*
X37200000Y32750000D03*
D15*
X46450000Y40100000D03*
X48350000Y40100000D03*
X40150000Y50800000D03*
X42050000Y50800000D03*
X17150000Y8900000D03*
X19050000Y8900000D03*
D17*
X13650000Y59250000D03*
X13650000Y57350000D03*
X15150000Y55350000D03*
X15150000Y57250000D03*
D16*
X17500000Y62300000D03*
X18600000Y62300000D03*
X16300000Y62300000D03*
X15200000Y62300000D03*
D12*
X17580000Y40450000D03*
X20120000Y40450000D03*
X17530000Y45650000D03*
X20070000Y45650000D03*
X39280000Y29450000D03*
X41820000Y29450000D03*
D18*
X11050000Y61100000D03*
X8550000Y61100000D03*
D19*
X85850000Y48650000D03*
D20*
X88390000Y48650000D03*
X85850000Y46110000D03*
D21*
X88390000Y46110000D03*
D20*
X85850000Y43570000D03*
D21*
X88390000Y43570000D03*
X85850000Y41030000D03*
X88390000Y41030000D03*
X85850000Y38490000D03*
X88390000Y38490000D03*
X85850000Y35950000D03*
X88390000Y35950000D03*
X85850000Y33410000D03*
X88390000Y33410000D03*
D22*
X57650000Y44950000D03*
X56700000Y44950000D03*
X55750000Y44950000D03*
X55750000Y47350000D03*
X56700000Y47350000D03*
X57650000Y47350000D03*
D23*
X52850000Y57900000D03*
X52850000Y56950000D03*
X52850000Y56000000D03*
X50450000Y56000000D03*
X50450000Y56950000D03*
X50450000Y57900000D03*
D24*
X20850000Y8750000D03*
X20850000Y9700000D03*
X20850000Y10650000D03*
X23150000Y10650000D03*
X23150000Y9700000D03*
X23150000Y8750000D03*
D25*
X82400000Y11850000D03*
X88900000Y11850000D03*
D19*
X59900000Y6300000D03*
D20*
X59900000Y8840000D03*
X62440000Y6300000D03*
D21*
X62440000Y8840000D03*
D20*
X64980000Y6300000D03*
D21*
X64980000Y8840000D03*
D26*
X5350000Y23050000D03*
D12*
X5350000Y25590000D03*
D26*
X5400000Y20050000D03*
D12*
X5400000Y17510000D03*
D27*
X86251140Y16947960D03*
X84750000Y16947960D03*
X83248860Y16947960D03*
D28*
X84750000Y20900200D03*
D10*
G36*
X84249620Y18176050D02*
X83749240Y18925350D01*
X85750760Y18925350D01*
X85250380Y18176050D01*
X84249620Y18176050D01*
X84249620Y18176050D01*
G37*
D29*
X51650000Y45250000D03*
X53850000Y45250000D03*
X70050000Y57650000D03*
X72250000Y57650000D03*
D30*
X80400000Y65400000D03*
X80400000Y67600000D03*
X63000000Y65600000D03*
X63000000Y67800000D03*
D29*
X64700000Y24300000D03*
X62500000Y24300000D03*
D30*
X82000000Y65400000D03*
X82000000Y67600000D03*
X64600000Y65600000D03*
X64600000Y67800000D03*
D29*
X64700000Y25950000D03*
X62500000Y25950000D03*
X62750000Y57350000D03*
X64950000Y57350000D03*
X34100000Y61900000D03*
X36300000Y61900000D03*
X50900000Y62100000D03*
X53100000Y62100000D03*
X53950000Y47000000D03*
X51750000Y47000000D03*
X34100000Y63500000D03*
X36300000Y63500000D03*
X50900000Y63700000D03*
X53100000Y63700000D03*
X11800000Y39750000D03*
X14000000Y39750000D03*
X11850000Y42900000D03*
X14050000Y42900000D03*
X25600000Y45250000D03*
X23400000Y45250000D03*
D30*
X24000000Y55400000D03*
X24000000Y57600000D03*
X35550000Y33600000D03*
X35550000Y31400000D03*
D29*
X64600000Y33150000D03*
X62400000Y33150000D03*
D30*
X37200000Y21100000D03*
X37200000Y18900000D03*
X39550000Y21150000D03*
X39550000Y18950000D03*
X12050000Y57200000D03*
X12050000Y59400000D03*
D29*
X15000000Y52550000D03*
X17200000Y52550000D03*
D30*
X37750000Y8550000D03*
X37750000Y10750000D03*
X33650000Y10650000D03*
X33650000Y8450000D03*
D31*
X80200000Y49000000D03*
D32*
X80850000Y46500000D03*
D31*
X81500000Y49000000D03*
D33*
X67500000Y61500000D03*
X70000000Y61500000D03*
X65000000Y61500000D03*
X70000000Y47000000D03*
X65000000Y47000000D03*
D34*
X73025000Y54000000D03*
X61975000Y54000000D03*
D35*
X21627080Y6347280D03*
X22277080Y6347280D03*
X22927080Y6347280D03*
X20977080Y6347280D03*
X20327080Y6347280D03*
D36*
X24127080Y6347280D03*
X19127080Y6347280D03*
D37*
X18127080Y3647280D03*
X25127080Y3647280D03*
D26*
X42200000Y13700000D03*
D12*
X42200000Y16240000D03*
X39660000Y13700000D03*
X39660000Y16240000D03*
X37120000Y13700000D03*
X37120000Y16240000D03*
X34580000Y13700000D03*
X34580000Y16240000D03*
D38*
X16575000Y59800000D03*
X17225000Y59800000D03*
X17875000Y59800000D03*
X18525000Y59800000D03*
X18525000Y55400000D03*
X17875000Y55400000D03*
X17225000Y55400000D03*
X16575000Y55400000D03*
D39*
X32151140Y54600000D03*
X41848860Y54600000D03*
D40*
X15700000Y64100000D03*
X18200000Y64100000D03*
D17*
X25800000Y10650000D03*
X25800000Y12550000D03*
D41*
X38000000Y49100000D03*
X38000000Y49100000D03*
X18550000Y60900000D03*
X18550000Y60900000D03*
D18*
X64800000Y22200000D03*
X62300000Y22200000D03*
D42*
X35750000Y21250000D03*
X35750000Y18750000D03*
X35650000Y8550000D03*
X35650000Y11050000D03*
D12*
X52250000Y17250000D03*
X26550000Y23000000D03*
X35230000Y5750000D03*
X37770000Y5750000D03*
D30*
X42100000Y8850000D03*
X42100000Y6650000D03*
D26*
X5100000Y39150000D03*
D12*
X5100000Y36610000D03*
X5100000Y34070000D03*
X90751200Y66752100D03*
X84248800Y66752100D03*
X90675000Y71247900D03*
X84248800Y71247900D03*
X73251200Y66752100D03*
X66748800Y66752100D03*
X73175000Y71247900D03*
X66748800Y71247900D03*
X55251200Y66752100D03*
X48748800Y66752100D03*
X55175000Y71247900D03*
X48748800Y71247900D03*
X38251200Y66752100D03*
X31748800Y66752100D03*
X38175000Y71247900D03*
X31748800Y71247900D03*
X67198800Y26197900D03*
X73701200Y26197900D03*
X67275000Y21702100D03*
X73701200Y21702100D03*
X53001200Y9752100D03*
X46498800Y9752100D03*
X52925000Y14247900D03*
X46498800Y14247900D03*
D43*
X8250000Y33750000D03*
X44900000Y50900000D03*
X47200000Y48400000D03*
X54550000Y57100000D03*
X56750000Y43700000D03*
X80900000Y17250000D03*
X24450000Y12450000D03*
X67800000Y8450000D03*
X19200000Y11400000D03*
X13400000Y55800000D03*
X14650000Y46250000D03*
X15550000Y41300000D03*
X49950000Y45800000D03*
X35750000Y23350000D03*
X27700000Y44900000D03*
X37200000Y31400000D03*
X50000000Y40200000D03*
X73500000Y14750000D03*
X61000000Y14750000D03*
X54650000Y49450000D03*
X51500000Y52300000D03*
X48850000Y56900000D03*
X47000000Y57750000D03*
X26200000Y58300000D03*
X51900000Y39000000D03*
X59400000Y29450000D03*
X35050000Y29950000D03*
X26550000Y47350000D03*
X22900000Y47250000D03*
X30450000Y17950000D03*
X28300000Y18050000D03*
X42200000Y10850000D03*
X54850000Y12600000D03*
X66650000Y10800000D03*
X29800000Y10300000D03*
X23550000Y50850000D03*
X16900000Y50700000D03*
X19550000Y62500000D03*
X15150000Y61300000D03*
X38900000Y51700000D03*
X34000000Y50700000D03*
D11*
X48078300Y7825000D02*
X48002100Y7748800D01*
X8550000Y61100000D02*
X5450000Y61100000D01*
X5450000Y61100000D02*
X4950000Y60600000D01*
X66777100Y22200000D02*
X67275000Y21702100D01*
X64800000Y22200000D02*
X66777100Y22200000D01*
X73701200Y21702100D02*
X67275000Y21702100D01*
X42200000Y13700000D02*
X45950900Y13700000D01*
X45950900Y13700000D02*
X46498800Y14247900D01*
X46498800Y14247900D02*
X52925000Y14247900D01*
X47247900Y25751200D02*
X47247900Y19325000D01*
D44*
X5100000Y34070000D02*
X7930000Y34070000D01*
X7930000Y34070000D02*
X8250000Y33750000D01*
D11*
X39400000Y44775000D02*
X39400000Y44900000D01*
X38036900Y46263100D02*
X38036900Y48080100D01*
X39400000Y44900000D02*
X38036900Y46263100D01*
X44900000Y50900000D02*
X43400000Y50900000D01*
X41175000Y44775000D02*
X43900000Y47500000D01*
X43900000Y47500000D02*
X46300000Y47500000D01*
X46300000Y47500000D02*
X47200000Y48400000D01*
X39375000Y44775000D02*
X39400000Y44775000D01*
X39400000Y44775000D02*
X41175000Y44775000D01*
X43300000Y50800000D02*
X42050000Y50800000D01*
X43300000Y50800000D02*
X43400000Y50900000D01*
D45*
X52850000Y56950000D02*
X54400000Y56950000D01*
X54400000Y56950000D02*
X54550000Y57100000D01*
D11*
X56700000Y44950000D02*
X56700000Y43750000D01*
X56700000Y43750000D02*
X56750000Y43700000D01*
D46*
X83248860Y16947960D02*
X81202040Y16947960D01*
X81202040Y16947960D02*
X80900000Y17250000D01*
D11*
X45650000Y40850000D02*
X47600000Y40850000D01*
X45580100Y40780100D02*
X45650000Y40850000D01*
X44536900Y40780100D02*
X45580100Y40780100D01*
X47600000Y40850000D02*
X48350000Y40100000D01*
D46*
X44536900Y40780100D02*
X43369900Y40780100D01*
X43369900Y40780100D02*
X39375000Y44775000D01*
D11*
X25800000Y12550000D02*
X24550000Y12550000D01*
X24550000Y12550000D02*
X24450000Y12450000D01*
X64980000Y8840000D02*
X67410000Y8840000D01*
X67410000Y8840000D02*
X67800000Y8450000D01*
X35230000Y5750000D02*
X35230000Y8130000D01*
X35230000Y8130000D02*
X35650000Y8550000D01*
X19050000Y8900000D02*
X19050000Y8950000D01*
X19050000Y8950000D02*
X19800000Y9700000D01*
X19800000Y9700000D02*
X20850000Y9700000D01*
X19050000Y8900000D02*
X19050000Y11250000D01*
X19050000Y11250000D02*
X19200000Y11400000D01*
X20327080Y6347280D02*
X20327080Y7622920D01*
X20327080Y7622920D02*
X19050000Y8900000D01*
X13650000Y57350000D02*
X13650000Y56050000D01*
X13650000Y56050000D02*
X13400000Y55800000D01*
X15150000Y57250000D02*
X13750000Y57250000D01*
X13750000Y57250000D02*
X13650000Y57350000D01*
X18525000Y59800000D02*
X19350000Y59800000D01*
X20150000Y60600000D02*
X25450000Y60600000D01*
X19350000Y59800000D02*
X20150000Y60600000D01*
X17530000Y45650000D02*
X15250000Y45650000D01*
X15250000Y45650000D02*
X14650000Y46250000D01*
X17580000Y40450000D02*
X16400000Y40450000D01*
X16400000Y40450000D02*
X15550000Y41300000D01*
X48650000Y46600000D02*
X49150000Y46600000D01*
X49150000Y46600000D02*
X49950000Y45800000D01*
X48600000Y45200000D02*
X48600000Y46550000D01*
X48600000Y46550000D02*
X48650000Y46600000D01*
D45*
X48650000Y46600000D02*
X48650000Y45250000D01*
X48650000Y45250000D02*
X48600000Y45200000D01*
D11*
X81450000Y47750000D02*
X80200000Y49000000D01*
X82600000Y47750000D02*
X81450000Y47750000D01*
X42751200Y14251200D02*
X42200000Y13700000D01*
D45*
X15150000Y57250000D02*
X17200000Y57250000D01*
X18450000Y58500000D02*
X18450000Y59725000D01*
X17200000Y57250000D02*
X18450000Y58500000D01*
X18450000Y59725000D02*
X18525000Y59800000D01*
X18525000Y59800000D02*
X18525000Y60875000D01*
D11*
X35750000Y21250000D02*
X35750000Y23350000D01*
X29250000Y44800000D02*
X27850000Y46200000D01*
X29250000Y44800000D02*
X27800000Y44800000D01*
X27800000Y44800000D02*
X27700000Y44900000D01*
X33136900Y43980100D02*
X30080100Y43980100D01*
X30080100Y43980100D02*
X29260200Y44800000D01*
X29260200Y44800000D02*
X29250000Y44800000D01*
X37200000Y32750000D02*
X37200000Y31400000D01*
X38036900Y36680100D02*
X38036900Y33863100D01*
X38036900Y33863100D02*
X37200000Y33026200D01*
X37200000Y33026200D02*
X37200000Y32750000D01*
X44536900Y40780100D02*
X43819900Y40780100D01*
X48350000Y40100000D02*
X49900000Y40100000D01*
X49900000Y40100000D02*
X50000000Y40200000D01*
X85950000Y48650000D02*
X83500000Y48650000D01*
X83500000Y48650000D02*
X82600000Y47750000D01*
X51650000Y45250000D02*
X51650000Y45150000D01*
X44536900Y45580100D02*
X46319900Y45580100D01*
X46319900Y45580100D02*
X46700000Y45200000D01*
X46700000Y45200000D02*
X46700000Y45050000D01*
X46700000Y45050000D02*
X47450000Y44300000D01*
X47450000Y44300000D02*
X50700000Y44300000D01*
X50700000Y44300000D02*
X51650000Y45250000D01*
X44536900Y46380100D02*
X46530100Y46380100D01*
X46530100Y46380100D02*
X46750000Y46600000D01*
X46750000Y46600000D02*
X46950000Y46600000D01*
X46950000Y46600000D02*
X47850000Y47500000D01*
X47850000Y47500000D02*
X51250000Y47500000D01*
X51250000Y47500000D02*
X51750000Y47000000D01*
X59900000Y8840000D02*
X59900000Y13650000D01*
X73550000Y29450000D02*
X59400000Y29450000D01*
X76000000Y27000000D02*
X73550000Y29450000D01*
X76000000Y17250000D02*
X76000000Y27000000D01*
X73500000Y14750000D02*
X76000000Y17250000D01*
X59900000Y13650000D02*
X61000000Y14750000D01*
D44*
X28450000Y67200000D02*
X28450000Y64800000D01*
X30500000Y69250000D02*
X28450000Y67200000D01*
X33000000Y69250000D02*
X30500000Y69250000D01*
X33000000Y69250000D02*
X32900000Y69250000D01*
X28450000Y60550000D02*
X27250000Y59350000D01*
X28450000Y64800000D02*
X28450000Y60550000D01*
X51900000Y39000000D02*
X47100000Y39000000D01*
X47100000Y39000000D02*
X46450000Y39650000D01*
X46450000Y39650000D02*
X46450000Y40100000D01*
X54650000Y49450000D02*
X54350000Y49450000D01*
X56700000Y48400000D02*
X56700000Y47350000D01*
X55650000Y49450000D02*
X56700000Y48400000D01*
X54650000Y49450000D02*
X55650000Y49450000D01*
X54350000Y49450000D02*
X51500000Y52300000D01*
X5100000Y39150000D02*
X6850000Y39150000D01*
X10600000Y42900000D02*
X11850000Y42900000D01*
X6850000Y39150000D02*
X10600000Y42900000D01*
X15000000Y52550000D02*
X11850000Y49400000D01*
X11850000Y49400000D02*
X11850000Y48100000D01*
X11850000Y48100000D02*
X11850000Y42900000D01*
X22900000Y47250000D02*
X22900000Y47350000D01*
X12300000Y48550000D02*
X11850000Y48100000D01*
X21700000Y48550000D02*
X12300000Y48550000D01*
X22900000Y47350000D02*
X21700000Y48550000D01*
X23400000Y45250000D02*
X22900000Y45750000D01*
X22900000Y45750000D02*
X22900000Y47250000D01*
D11*
X28300000Y47425000D02*
X26625000Y47425000D01*
X26625000Y47425000D02*
X26550000Y47350000D01*
D44*
X45400000Y69250000D02*
X33000000Y69250000D01*
X47000000Y57750000D02*
X47000000Y57950000D01*
X47000000Y57950000D02*
X45700000Y59250000D01*
X45700000Y59250000D02*
X30500000Y59250000D01*
X30500000Y59250000D02*
X30400000Y59350000D01*
X30400000Y59350000D02*
X27250000Y59350000D01*
X27250000Y59350000D02*
X26200000Y58300000D01*
X60550000Y69250000D02*
X45400000Y69250000D01*
X39650000Y63500000D02*
X36300000Y63500000D01*
X45400000Y69250000D02*
X39650000Y63500000D01*
X64600000Y67800000D02*
X64600000Y68700000D01*
X55000000Y63700000D02*
X53100000Y63700000D01*
X60550000Y69250000D02*
X55000000Y63700000D01*
X64050000Y69250000D02*
X60550000Y69250000D01*
X64600000Y68700000D02*
X64050000Y69250000D01*
X82000000Y67600000D02*
X82000000Y68850000D01*
X66250000Y69450000D02*
X64600000Y67800000D01*
X81400000Y69450000D02*
X66250000Y69450000D01*
X82000000Y68850000D02*
X81400000Y69450000D01*
D47*
X65000000Y67800000D02*
X64600000Y67800000D01*
D45*
X46450000Y52050000D02*
X46500000Y52050000D01*
D46*
X41450000Y51900000D02*
X46300000Y51900000D01*
X46300000Y51900000D02*
X46450000Y52050000D01*
X40350000Y50800000D02*
X41450000Y51900000D01*
D11*
X48900000Y56950000D02*
X48850000Y56900000D01*
X48900000Y56950000D02*
X50450000Y56950000D01*
D45*
X47000000Y52550000D02*
X47000000Y57750000D01*
X46500000Y52050000D02*
X47000000Y52550000D01*
D11*
X24000000Y57600000D02*
X25500000Y57600000D01*
X25500000Y57600000D02*
X26200000Y58300000D01*
X72250000Y57650000D02*
X72250000Y59500000D01*
X62750000Y61900000D02*
X62750000Y57350000D01*
X64400000Y63550000D02*
X62750000Y61900000D01*
X71150000Y63550000D02*
X64400000Y63550000D01*
X73450000Y61250000D02*
X71150000Y63550000D01*
X73450000Y60700000D02*
X73450000Y61250000D01*
X72250000Y59500000D02*
X73450000Y60700000D01*
X56700000Y47350000D02*
X56700000Y47850000D01*
X56700000Y47850000D02*
X59950000Y51100000D01*
X59950000Y51100000D02*
X59950000Y55600000D01*
X59950000Y55600000D02*
X61700000Y57350000D01*
X61700000Y57350000D02*
X62750000Y57350000D01*
X46450000Y39650000D02*
X47100000Y39000000D01*
X46450000Y39650000D02*
X46450000Y40100000D01*
D46*
X46450000Y40100000D02*
X46900000Y40100000D01*
X35550000Y33600000D02*
X35300000Y33600000D01*
X35300000Y33600000D02*
X34600000Y32900000D01*
X59400000Y29450000D02*
X62500000Y26350000D01*
X34600000Y30400000D02*
X35050000Y29950000D01*
X34600000Y32900000D02*
X34600000Y30400000D01*
X62500000Y26350000D02*
X62500000Y25950000D01*
X40150000Y50800000D02*
X40350000Y50800000D01*
X22900000Y47250000D02*
X22900000Y47400000D01*
X22900000Y47400000D02*
X21750000Y48550000D01*
X21750000Y48550000D02*
X11850000Y48550000D01*
X22900000Y47250000D02*
X22900000Y45750000D01*
X26625000Y47425000D02*
X26550000Y47350000D01*
X28325000Y47425000D02*
X28300000Y47425000D01*
X16575000Y55400000D02*
X16575000Y56225000D01*
X23050000Y56650000D02*
X24000000Y57600000D01*
X17000000Y56650000D02*
X23050000Y56650000D01*
X16575000Y56225000D02*
X17000000Y56650000D01*
X11850000Y48100000D02*
X11850000Y48550000D01*
X11850000Y48550000D02*
X11850000Y49400000D01*
X15150000Y55350000D02*
X15150000Y52700000D01*
X15150000Y52700000D02*
X15000000Y52550000D01*
D11*
X33650000Y8450000D02*
X33550000Y8450000D01*
X33550000Y8450000D02*
X28300000Y13700000D01*
X32160000Y16240000D02*
X34580000Y16240000D01*
X30450000Y17950000D02*
X32160000Y16240000D01*
X28300000Y13700000D02*
X28300000Y18050000D01*
X37236900Y36680100D02*
X37236900Y37663100D01*
X32100000Y26460000D02*
X34580000Y23980000D01*
X32100000Y35650000D02*
X32100000Y26460000D01*
X34450000Y38000000D02*
X32100000Y35650000D01*
X36900000Y38000000D02*
X34450000Y38000000D01*
X37236900Y37663100D02*
X36900000Y38000000D01*
X29750000Y46200000D02*
X29550000Y46200000D01*
X29550000Y46200000D02*
X28325000Y47425000D01*
X28325000Y47425000D02*
X28250000Y47500000D01*
X37200000Y34650000D02*
X36600000Y34650000D01*
X36600000Y34650000D02*
X35550000Y33600000D01*
D45*
X15150000Y55350000D02*
X16525000Y55350000D01*
X16525000Y55350000D02*
X16575000Y55400000D01*
D11*
X34580000Y16240000D02*
X34580000Y23980000D01*
X39550000Y18950000D02*
X39550000Y16350000D01*
X39550000Y16350000D02*
X39660000Y16240000D01*
X31150000Y44800000D02*
X29750000Y46200000D01*
X31150000Y44800000D02*
X33117000Y44800000D01*
X33117000Y44800000D02*
X33136900Y44780100D01*
X37200000Y34650000D02*
X37200000Y36643200D01*
X37200000Y36643200D02*
X37236900Y36680100D01*
X46450000Y40100000D02*
X44656800Y40100000D01*
X44656800Y40100000D02*
X44536900Y39980100D01*
X40150000Y50800000D02*
X40150000Y50550000D01*
X40150000Y50550000D02*
X39000000Y49400000D01*
X39000000Y49400000D02*
X39000000Y48243200D01*
X39000000Y48243200D02*
X38836900Y48080100D01*
X32151140Y54600000D02*
X33800000Y54600000D01*
X33800000Y54600000D02*
X36250000Y52150000D01*
X36250000Y52150000D02*
X36250000Y50700000D01*
X36250000Y50700000D02*
X36250000Y50050000D01*
X36436900Y49863100D02*
X36436900Y48080100D01*
X36250000Y50050000D02*
X36436900Y49863100D01*
X41848860Y54600000D02*
X40500000Y54600000D01*
X40500000Y54600000D02*
X37450000Y51550000D01*
X37450000Y51550000D02*
X37450000Y50700000D01*
X37450000Y50700000D02*
X37450000Y50150000D01*
X37236900Y49936900D02*
X37236900Y48080100D01*
X37450000Y50150000D02*
X37236900Y49936900D01*
X13650000Y59250000D02*
X13650000Y59100000D01*
X13650000Y59100000D02*
X12050000Y57500000D01*
X12050000Y57500000D02*
X12050000Y57200000D01*
X17875000Y59800000D02*
X17875000Y58825000D01*
X14900000Y59250000D02*
X13650000Y59250000D01*
X15850000Y58300000D02*
X14900000Y59250000D01*
X17350000Y58300000D02*
X15850000Y58300000D01*
X17875000Y58825000D02*
X17350000Y58300000D01*
X17500000Y62300000D02*
X17500000Y61950000D01*
X17225000Y61675000D02*
X17225000Y59800000D01*
X17500000Y61950000D02*
X17225000Y61675000D01*
X17500000Y62300000D02*
X17500000Y63400000D01*
X17500000Y63400000D02*
X18200000Y64100000D01*
X16300000Y62300000D02*
X16300000Y62050000D01*
X16300000Y62050000D02*
X16575000Y61775000D01*
X16575000Y61775000D02*
X16575000Y59800000D01*
X16300000Y62300000D02*
X16300000Y63500000D01*
X16300000Y63500000D02*
X15700000Y64100000D01*
X62300000Y22200000D02*
X62300000Y22600000D01*
X50050000Y36250000D02*
X50600000Y36250000D01*
X60950000Y25850000D02*
X62500000Y24300000D01*
X60950000Y25900000D02*
X60950000Y25850000D01*
X50600000Y36250000D02*
X60950000Y25900000D01*
X63700000Y10450000D02*
X63700000Y18400000D01*
X62300000Y24100000D02*
X62300000Y22600000D01*
X62300000Y22600000D02*
X62300000Y20450000D01*
X63700000Y7800000D02*
X63700000Y10450000D01*
X63700000Y7800000D02*
X64980000Y6520000D01*
X62300000Y19800000D02*
X62300000Y20450000D01*
X63700000Y18400000D02*
X62300000Y19800000D01*
X64980000Y6300000D02*
X64980000Y6520000D01*
X50150000Y36250000D02*
X50050000Y36250000D01*
X50050000Y36250000D02*
X46700000Y36250000D01*
X46700000Y36250000D02*
X46600000Y36250000D01*
X35636900Y48080100D02*
X35636900Y45563100D01*
X44950000Y36250000D02*
X46600000Y36250000D01*
X35636900Y45563100D02*
X44950000Y36250000D01*
X14000000Y39750000D02*
X14650000Y39750000D01*
X18220000Y38550000D02*
X20120000Y40450000D01*
X15850000Y38550000D02*
X18220000Y38550000D01*
X14650000Y39750000D02*
X15850000Y38550000D01*
X14050000Y42900000D02*
X19300000Y42900000D01*
X20070000Y43670000D02*
X20070000Y45650000D01*
X19300000Y42900000D02*
X20070000Y43670000D01*
D46*
X39280000Y29450000D02*
X37650000Y29450000D01*
X36436900Y35336900D02*
X36436900Y36680100D01*
X35950000Y34850000D02*
X36436900Y35336900D01*
X34650000Y34850000D02*
X35950000Y34850000D01*
X33850000Y34050000D02*
X34650000Y34850000D01*
X33850000Y29850000D02*
X33850000Y34050000D01*
X34900000Y28800000D02*
X33850000Y29850000D01*
X37000000Y28800000D02*
X34900000Y28800000D01*
X37650000Y29450000D02*
X37000000Y28800000D01*
D11*
X35550000Y31400000D02*
X35550000Y31050000D01*
X35550000Y31050000D02*
X36250000Y30350000D01*
X36250000Y30350000D02*
X37900000Y30350000D01*
X37900000Y30350000D02*
X38800000Y31250000D01*
X38800000Y31250000D02*
X40020000Y31250000D01*
X40020000Y31250000D02*
X41820000Y29450000D01*
X12050000Y59400000D02*
X12050000Y60100000D01*
X12050000Y60100000D02*
X11050000Y61100000D01*
D44*
X88390000Y48650000D02*
X88390000Y49560000D01*
X88390000Y49560000D02*
X87600000Y50350000D01*
X87600000Y50350000D02*
X82850000Y50350000D01*
X82850000Y50350000D02*
X81500000Y49000000D01*
X90150000Y11050000D02*
X90150000Y16050000D01*
X90250000Y16150000D02*
X90250000Y46790000D01*
X90150000Y16050000D02*
X90250000Y16150000D01*
X90250000Y46790000D02*
X88390000Y48650000D01*
X86525000Y10475000D02*
X89575000Y10475000D01*
X90150000Y11050000D02*
X90150000Y11200000D01*
X89575000Y10475000D02*
X90150000Y11050000D01*
X82400000Y11850000D02*
X85150000Y11850000D01*
X85150000Y11850000D02*
X86525000Y10475000D01*
X86525000Y10475000D02*
X86550000Y10450000D01*
X66650000Y10800000D02*
X66750000Y10800000D01*
X67800000Y11850000D02*
X82400000Y11850000D01*
X66750000Y10800000D02*
X67800000Y11850000D01*
X42200000Y10850000D02*
X43700000Y12350000D01*
X43700000Y12350000D02*
X54600000Y12350000D01*
X54600000Y12350000D02*
X54850000Y12600000D01*
X29800000Y10300000D02*
X29200000Y10300000D01*
X29200000Y10300000D02*
X28100000Y9200000D01*
X14550000Y4150000D02*
X14550000Y2900000D01*
X14550000Y2900000D02*
X15650000Y1800000D01*
X15650000Y1800000D02*
X27200000Y1800000D01*
X27200000Y1800000D02*
X28100000Y2700000D01*
X28100000Y2700000D02*
X28100000Y9200000D01*
X28100000Y9200000D02*
X28100000Y9750000D01*
X28100000Y9750000D02*
X27200000Y10650000D01*
X27200000Y10650000D02*
X25800000Y10650000D01*
X5100000Y36610000D02*
X2300000Y33810000D01*
X2300000Y33810000D02*
X2300000Y16400000D01*
X2300000Y16400000D02*
X14550000Y4150000D01*
X5100000Y36610000D02*
X8810000Y36610000D01*
X8810000Y36610000D02*
X11800000Y39600000D01*
X11800000Y39600000D02*
X11800000Y39750000D01*
D11*
X25800000Y10650000D02*
X25200000Y10650000D01*
X25200000Y10650000D02*
X25150000Y10600000D01*
X86550000Y10450000D02*
X89400000Y10450000D01*
X89400000Y10450000D02*
X90150000Y11200000D01*
X90150000Y11200000D02*
X90250000Y11300000D01*
X90250000Y11300000D02*
X90250000Y46790000D01*
X90250000Y46790000D02*
X88390000Y48650000D01*
X85150000Y11850000D02*
X86550000Y10450000D01*
X43700000Y12350000D02*
X54600000Y12350000D01*
X54600000Y12350000D02*
X54850000Y12600000D01*
X24250000Y10350000D02*
X24500000Y10350000D01*
X24750000Y10600000D02*
X25150000Y10600000D01*
X25150000Y10600000D02*
X27250000Y10600000D01*
X27250000Y10600000D02*
X27950000Y9900000D01*
X27950000Y9900000D02*
X28100000Y9750000D01*
X28100000Y9750000D02*
X28100000Y2700000D01*
X28100000Y2700000D02*
X27200000Y1800000D01*
X27200000Y1800000D02*
X15650000Y1800000D01*
X15650000Y1800000D02*
X14550000Y2900000D01*
X14550000Y4150000D02*
X2300000Y16400000D01*
X2300000Y16400000D02*
X2300000Y33810000D01*
X24250000Y10350000D02*
X23600000Y9700000D01*
X24500000Y10350000D02*
X24750000Y10600000D01*
X23150000Y9700000D02*
X23600000Y9700000D01*
X22927080Y6347280D02*
X22927080Y7377080D01*
X23900000Y9700000D02*
X23150000Y9700000D01*
X24350000Y9250000D02*
X23900000Y9700000D01*
X24350000Y8400000D02*
X24350000Y9250000D01*
X23850000Y7900000D02*
X24350000Y8400000D01*
X23450000Y7900000D02*
X23850000Y7900000D01*
X22927080Y7377080D02*
X23450000Y7900000D01*
X5100000Y36610000D02*
X8660000Y36610000D01*
X8660000Y36610000D02*
X11800000Y39750000D01*
X82850000Y50350000D02*
X81500000Y49000000D01*
X87600000Y50350000D02*
X82850000Y50350000D01*
X88490000Y48650000D02*
X88490000Y49460000D01*
X88490000Y49460000D02*
X87600000Y50350000D01*
X85950000Y46110000D02*
X81240000Y46110000D01*
X81240000Y46110000D02*
X80850000Y46500000D01*
D46*
X88390000Y46110000D02*
X88260000Y46110000D01*
X88260000Y46110000D02*
X86950000Y44800000D01*
X86950000Y44800000D02*
X81300000Y44800000D01*
X81300000Y44800000D02*
X79250002Y42750002D01*
X79250002Y42750002D02*
X52280948Y42750002D01*
X52280948Y42750002D02*
X51255952Y43774998D01*
X51255952Y43774998D02*
X48150000Y43774998D01*
X48150000Y43774998D02*
X48150000Y43799998D01*
D11*
X44536900Y44780100D02*
X45519900Y44780100D01*
X46500002Y43799998D02*
X48150000Y43799998D01*
X48150000Y43799998D02*
X48150000Y43799998D01*
X45519900Y44780100D02*
X46500002Y43799998D01*
D46*
X88390000Y43570000D02*
X88070000Y43570000D01*
X88070000Y43570000D02*
X86800000Y42300000D01*
X86800000Y42300000D02*
X52094552Y42300000D01*
X52094552Y42300000D02*
X51094556Y43299996D01*
X51094556Y43299996D02*
X48150000Y43299996D01*
D11*
X48150000Y43299996D02*
X47300000Y43299996D01*
X45612790Y43980100D02*
X46292894Y43299996D01*
X46292894Y43299996D02*
X47300000Y43299996D01*
X45612790Y43980100D02*
X44536900Y43980100D01*
D46*
X85850000Y35950000D02*
X74786398Y35950000D01*
X48150000Y42774994D02*
X48150000Y42799994D01*
X50983160Y42774994D02*
X48150000Y42774994D01*
X54333148Y39425006D02*
X50983160Y42774994D01*
X71311392Y39425006D02*
X54333148Y39425006D01*
X74786398Y35950000D02*
X71311392Y39425006D01*
D11*
X44536900Y43180100D02*
X45705680Y43180100D01*
X46085786Y42799994D02*
X48150000Y42799994D01*
X48150000Y42799994D02*
X48150000Y42799994D01*
X45705680Y43180100D02*
X46085786Y42799994D01*
X88390000Y35950000D02*
X88390000Y35740000D01*
D46*
X88390000Y35740000D02*
X87300000Y34650000D01*
X87300000Y34650000D02*
X75450000Y34650000D01*
X75450000Y34650000D02*
X71124996Y38975004D01*
X71124996Y38975004D02*
X54146752Y38975004D01*
X54146752Y38975004D02*
X50846764Y42274992D01*
X50846764Y42274992D02*
X48150000Y42274992D01*
X48150000Y42274992D02*
X48150000Y42299992D01*
D11*
X44536900Y42380100D02*
X45619900Y42380100D01*
X45700008Y42299992D02*
X48150000Y42299992D01*
X48150000Y42299992D02*
X48150000Y42299992D01*
X45619900Y42380100D02*
X45700008Y42299992D01*
X48000000Y41799990D02*
X50650012Y41799990D01*
X75940000Y33410000D02*
X85850000Y33410000D01*
X70849998Y38500002D02*
X75940000Y33410000D01*
X53950000Y38500002D02*
X70849998Y38500002D01*
X50650012Y41799990D02*
X53950000Y38500002D01*
X44536900Y41580100D02*
X45480100Y41580100D01*
X45699990Y41799990D02*
X48000000Y41799990D01*
X48000000Y41799990D02*
X48150000Y41799990D01*
X45480100Y41580100D02*
X45699990Y41799990D01*
X88390000Y33410000D02*
X88390000Y33240000D01*
X88390000Y33240000D02*
X86650000Y31500000D01*
X45819900Y39180100D02*
X47000000Y38000000D01*
X47000000Y38000000D02*
X57500000Y38000000D01*
X44536900Y39180100D02*
X45819900Y39180100D01*
X70600000Y38000000D02*
X57500000Y38000000D01*
X77100000Y31500000D02*
X70600000Y38000000D01*
X86650000Y31500000D02*
X77100000Y31500000D01*
D46*
X88390000Y33410000D02*
X88390000Y33290000D01*
D11*
X50450000Y56000000D02*
X51000000Y56000000D01*
X53100000Y60700000D02*
X53100000Y62100000D01*
X51400000Y59000000D02*
X53100000Y60700000D01*
X51400000Y56400000D02*
X51400000Y59000000D01*
X51000000Y56000000D02*
X51400000Y56400000D01*
D45*
X45550000Y49550002D02*
X45615690Y49550002D01*
X50450000Y54384312D02*
X50450000Y56000000D01*
X45615690Y49550002D02*
X50450000Y54384312D01*
X41236900Y48080100D02*
X41236900Y48836900D01*
X41950002Y49550002D02*
X45550000Y49550002D01*
X45550000Y49550002D02*
X45600002Y49550002D01*
X41236900Y48836900D02*
X41950002Y49550002D01*
D11*
X52850000Y57900000D02*
X53400000Y57900000D01*
X61350000Y66550000D02*
X62600000Y67800000D01*
X61350000Y65450000D02*
X61350000Y66550000D01*
X54350000Y58450000D02*
X61350000Y65450000D01*
X53950000Y58450000D02*
X54350000Y58450000D01*
X53400000Y57900000D02*
X53950000Y58450000D01*
X62600000Y67800000D02*
X63000000Y67800000D01*
D45*
X42400000Y49100000D02*
X42400000Y49150000D01*
X52000000Y57500000D02*
X52400000Y57900000D01*
X52000000Y55350000D02*
X52000000Y57500000D01*
X51650000Y55000000D02*
X52000000Y55350000D01*
X51250000Y54600000D02*
X51650000Y55000000D01*
X46565688Y49915688D02*
X51250000Y54600000D01*
X45800000Y49150000D02*
X46565688Y49915688D01*
X45600002Y49150000D02*
X45800000Y49150000D01*
X42400000Y49150000D02*
X45600002Y49150000D01*
X52400000Y57900000D02*
X52850000Y57900000D01*
X42036900Y48080100D02*
X42036900Y48736900D01*
X42036900Y48736900D02*
X42400000Y49100000D01*
X42400000Y49100000D02*
X42450000Y49150000D01*
D11*
X52850000Y56000000D02*
X56350000Y56000000D01*
X76750000Y64100000D02*
X80250000Y67600000D01*
X64200000Y64100000D02*
X76750000Y64100000D01*
X61250000Y61150000D02*
X64200000Y64100000D01*
X61250000Y60900000D02*
X61250000Y61150000D01*
X56350000Y56000000D02*
X61250000Y60900000D01*
X80250000Y67600000D02*
X80400000Y67600000D01*
D45*
X42836900Y48080100D02*
X45295788Y48080100D01*
X52850000Y55634312D02*
X52850000Y56000000D01*
X45295788Y48080100D02*
X52850000Y55634312D01*
X45450004Y49950004D02*
X47825000Y52325000D01*
X43800004Y49950004D02*
X44600004Y49950004D01*
X42700000Y49950004D02*
X43800004Y49950004D01*
X44600004Y49950004D02*
X45450004Y49950004D01*
X48300000Y57900000D02*
X50450000Y57900000D01*
X47825000Y57425000D02*
X48300000Y57900000D01*
X47825000Y52325000D02*
X47825000Y57425000D01*
X50000000Y57900000D02*
X50450000Y57900000D01*
D11*
X36300000Y61900000D02*
X46450000Y61900000D01*
X46450000Y61900000D02*
X50450000Y57900000D01*
D45*
X40436900Y48080100D02*
X40436900Y48836900D01*
X41550004Y49950004D02*
X42700000Y49950004D01*
X42700000Y49950004D02*
X42750000Y49950004D01*
X40436900Y48836900D02*
X41550004Y49950004D01*
X22200002Y9450000D02*
X22200002Y12250002D01*
X31880100Y40780100D02*
X33136900Y40780100D01*
X28000000Y36900000D02*
X31880100Y40780100D01*
X28000000Y27900000D02*
X28000000Y36900000D01*
X24900000Y24800000D02*
X28000000Y27900000D01*
X24900000Y14950000D02*
X24900000Y24800000D01*
X22200002Y12250002D02*
X24900000Y14950000D01*
X22277080Y6347280D02*
X22277080Y7877080D01*
X22200002Y9200000D02*
X22200002Y9450000D01*
X22200002Y9450000D02*
X22200002Y9500000D01*
X22650002Y8750000D02*
X22200002Y9200000D01*
X23150000Y8750000D02*
X22650002Y8750000D01*
X22277080Y7877080D02*
X23150000Y8750000D01*
X32080100Y41580100D02*
X33136900Y41580100D01*
X27599998Y37099998D02*
X32080100Y41580100D01*
X27599998Y28065686D02*
X27599998Y37099998D01*
X24499998Y24965686D02*
X27599998Y28065686D01*
X24499998Y15115686D02*
X24499998Y24965686D01*
X21800000Y12415688D02*
X24499998Y15115686D01*
X21627080Y6347280D02*
X21627080Y7972920D01*
X21800000Y9500000D02*
X21800000Y12415688D01*
X21800000Y9200000D02*
X21800000Y9500000D01*
X21350000Y8750000D02*
X21800000Y9200000D01*
X20850000Y8750000D02*
X21350000Y8750000D01*
X21627080Y7972920D02*
X20850000Y8750000D01*
X20350000Y8850000D02*
X20850000Y8850000D01*
D11*
X37750000Y10750000D02*
X37450000Y10750000D01*
X37450000Y10750000D02*
X36970000Y11230000D01*
X37120000Y13700000D02*
X37120000Y11380000D01*
X36790000Y11050000D02*
X35650000Y11050000D01*
X37120000Y11380000D02*
X36970000Y11230000D01*
X36970000Y11230000D02*
X36790000Y11050000D01*
X37200000Y18900000D02*
X35900000Y18900000D01*
X35900000Y18900000D02*
X35750000Y18750000D01*
X37120000Y16240000D02*
X37120000Y18820000D01*
X37120000Y18820000D02*
X37200000Y18900000D01*
X84750000Y18550700D02*
X84750000Y20900200D01*
X84750000Y16947960D02*
X84750000Y18550700D01*
X88900000Y11850000D02*
X88200000Y11850000D01*
X88200000Y11850000D02*
X84750000Y15300000D01*
X84750000Y15300000D02*
X84750000Y16947960D01*
X59900000Y6300000D02*
X59000000Y6300000D01*
X59000000Y6300000D02*
X57250000Y8050000D01*
X57250000Y8050000D02*
X57250000Y21200000D01*
X57250000Y21200000D02*
X46650000Y31800000D01*
X46650000Y31800000D02*
X45250000Y31800000D01*
X45250000Y31800000D02*
X41236900Y35813100D01*
X41236900Y35813100D02*
X41236900Y36680100D01*
X62440000Y6300000D02*
X62440000Y5590000D01*
X62440000Y5590000D02*
X61350000Y4500000D01*
X61350000Y4500000D02*
X58750000Y4500000D01*
X58750000Y4500000D02*
X56200000Y7050000D01*
X56200000Y7050000D02*
X56200000Y19650000D01*
X56200000Y19650000D02*
X50900000Y24950000D01*
X50900000Y24950000D02*
X50900000Y25750000D01*
X50900000Y25750000D02*
X45850000Y30800000D01*
X45850000Y30800000D02*
X43000000Y30800000D01*
X43000000Y30800000D02*
X38836900Y34963100D01*
X38836900Y34963100D02*
X38836900Y36680100D01*
X62440000Y8840000D02*
X62440000Y18110000D01*
X42036900Y35913100D02*
X42036900Y36680100D01*
X44500000Y33450000D02*
X42036900Y35913100D01*
X49450000Y33450000D02*
X44500000Y33450000D01*
X55500000Y27400000D02*
X49450000Y33450000D01*
X55500000Y25050000D02*
X55500000Y27400000D01*
X62440000Y18110000D02*
X55500000Y25050000D01*
X33136900Y42380100D02*
X34230100Y42380100D01*
X24050000Y55400000D02*
X18525000Y55400000D01*
X31050000Y48400000D02*
X24050000Y55400000D01*
X32850000Y48400000D02*
X31050000Y48400000D01*
X34500000Y46750000D02*
X32850000Y48400000D01*
X34500000Y42650000D02*
X34500000Y46750000D01*
X34230100Y42380100D02*
X34500000Y42650000D01*
X5350000Y23050000D02*
X12900000Y23050000D01*
X32230100Y42380100D02*
X33136900Y42380100D01*
X12900000Y23050000D02*
X32230100Y42380100D01*
X5400000Y20050000D02*
X5400000Y23000000D01*
X5400000Y23000000D02*
X5350000Y23050000D01*
X33136900Y43180100D02*
X27519900Y43180100D01*
X17875000Y54425000D02*
X17875000Y55400000D01*
X25800000Y46500000D02*
X17875000Y54425000D01*
X25800000Y44900000D02*
X25800000Y46500000D01*
X27519900Y43180100D02*
X25800000Y44900000D01*
X5350000Y25590000D02*
X14140000Y25590000D01*
X31780100Y43180100D02*
X33136900Y43180100D01*
X26200000Y37600000D02*
X31780100Y43180100D01*
X26150000Y37600000D02*
X26200000Y37600000D01*
X14140000Y25590000D02*
X26150000Y37600000D01*
X5400000Y17510000D02*
X4940000Y17510000D01*
X4940000Y17510000D02*
X3700000Y18750000D01*
X3700000Y18750000D02*
X3700000Y23940000D01*
X3700000Y23940000D02*
X5350000Y25590000D01*
X86251140Y16947960D02*
X86251140Y23598860D01*
X72400000Y33150000D02*
X64600000Y33150000D01*
X80950000Y24600000D02*
X72400000Y33150000D01*
X85250000Y24600000D02*
X80950000Y24600000D01*
X86251140Y23598860D02*
X85250000Y24600000D01*
X86251140Y17348860D02*
X86251140Y16947960D01*
X84248800Y66752100D02*
X90751200Y66752100D01*
X82000000Y65400000D02*
X82896700Y65400000D01*
X82896700Y65400000D02*
X84248800Y66752100D01*
X82000000Y65400000D02*
X80400000Y65400000D01*
X82348800Y65748800D02*
X82000000Y65400000D01*
X64600000Y65600000D02*
X65596700Y65600000D01*
X65596700Y65600000D02*
X66748800Y66752100D01*
X66748800Y66752100D02*
X73251200Y66752100D01*
X64600000Y65600000D02*
X63000000Y65600000D01*
X67198800Y26197900D02*
X73701200Y26197900D01*
X66950900Y25950000D02*
X67198800Y26197900D01*
X64700000Y25950000D02*
X66950900Y25950000D01*
X64700000Y24300000D02*
X64700000Y25950000D01*
X31748800Y66752100D02*
X38251200Y66752100D01*
X34100000Y63500000D02*
X34100000Y64400900D01*
X34100000Y64400900D02*
X31748800Y66752100D01*
X34100000Y61900000D02*
X34100000Y63500000D01*
X48748800Y66752100D02*
X48748800Y66501200D01*
X48748800Y66501200D02*
X50900000Y64350000D01*
X50900000Y64350000D02*
X50900000Y63700000D01*
X55251200Y66752100D02*
X48748800Y66752100D01*
X50900000Y63700000D02*
X50900000Y62100000D01*
X44536900Y38380100D02*
X44536900Y38313100D01*
X44536900Y38313100D02*
X46099998Y36750002D01*
X46099998Y36750002D02*
X51849998Y36750002D01*
X51849998Y36750002D02*
X55450000Y33150000D01*
X55350000Y33150000D02*
X55450000Y33150000D01*
X55450000Y33150000D02*
X62400000Y33150000D01*
X42752100Y25751200D02*
X42752100Y19248800D01*
X39550000Y21150000D02*
X40850900Y21150000D01*
X40850900Y21150000D02*
X42752100Y19248800D01*
X37200000Y21100000D02*
X39500000Y21100000D01*
X39500000Y21100000D02*
X39550000Y21150000D01*
D46*
X17200000Y52550000D02*
X17200000Y51950000D01*
X17200000Y51950000D02*
X17225000Y51925000D01*
X32300000Y46380100D02*
X32300000Y46450000D01*
D11*
X16900000Y50700000D02*
X17225000Y51025000D01*
X17225000Y51025000D02*
X17225000Y51925000D01*
X17225000Y51925000D02*
X17225000Y55400000D01*
D46*
X27900000Y50850000D02*
X23550000Y50850000D01*
X32300000Y46450000D02*
X27900000Y50850000D01*
D11*
X33136900Y46380100D02*
X32300000Y46380100D01*
X32300000Y46380100D02*
X32277010Y46380100D01*
X46498800Y9752100D02*
X53001200Y9752100D01*
X38551200Y7748800D02*
X40248800Y7748800D01*
X37750000Y8550000D02*
X38551200Y7748800D01*
X44496700Y7750000D02*
X46498800Y9752100D01*
X40250000Y7750000D02*
X44496700Y7750000D01*
X40248800Y7748800D02*
X40250000Y7750000D01*
X37750000Y8550000D02*
X37750000Y8527100D01*
X33650000Y10650000D02*
X34050000Y10650000D01*
X34050000Y10650000D02*
X34850000Y9850000D01*
X34850000Y9850000D02*
X36450000Y9850000D01*
X36450000Y9850000D02*
X37750000Y8550000D01*
X45250000Y17250000D02*
X45250000Y25500000D01*
X42950000Y27800000D02*
X37500000Y27800000D01*
X45250000Y25500000D02*
X42950000Y27800000D01*
X52250000Y17250000D02*
X45250000Y17250000D01*
X45250000Y17250000D02*
X43210000Y17250000D01*
X43210000Y17250000D02*
X42200000Y16240000D01*
X37500000Y27800000D02*
X34050000Y27800000D01*
X34050000Y27800000D02*
X32800000Y29050000D01*
X32800000Y29050000D02*
X32800000Y34643200D01*
X32800000Y34643200D02*
X34836900Y36680100D01*
X37500000Y27750000D02*
X37500000Y27800000D01*
X37500000Y27750000D02*
X37350000Y27750000D01*
X34000000Y35843200D02*
X34836900Y36680100D01*
X42200000Y16240000D02*
X42200000Y16600000D01*
D46*
X26550000Y23000000D02*
X27150000Y23000000D01*
X27150000Y23000000D02*
X29300000Y20850000D01*
D11*
X34580000Y13700000D02*
X32300000Y13700000D01*
X31700000Y37000000D02*
X31700000Y36943200D01*
X29300000Y34600000D02*
X31700000Y37000000D01*
X29300000Y16700000D02*
X29300000Y20850000D01*
X29300000Y20850000D02*
X29300000Y34600000D01*
X32300000Y13700000D02*
X29300000Y16700000D01*
X34580000Y13700000D02*
X34580000Y13580000D01*
X31600000Y36843200D02*
X31700000Y36943200D01*
X31700000Y36943200D02*
X33136900Y38380100D01*
X38036900Y48080100D02*
X38036900Y49063100D01*
X38036900Y49063100D02*
X38000000Y49100000D01*
X38550000Y49650000D02*
X38000000Y49100000D01*
X38550000Y49800000D02*
X38550000Y49650000D01*
X38550000Y49850000D02*
X38550000Y49800000D01*
D45*
X18525000Y60875000D02*
X18550000Y60900000D01*
X18600000Y62300000D02*
X18600000Y60950000D01*
X18600000Y60950000D02*
X18550000Y60900000D01*
D11*
X38550000Y49800000D02*
X38550000Y50700000D01*
D45*
X18600000Y62300000D02*
X19350000Y62300000D01*
X19350000Y62300000D02*
X19550000Y62500000D01*
X15200000Y62300000D02*
X15200000Y61350000D01*
X15200000Y61350000D02*
X15150000Y61300000D01*
D11*
X38550000Y50700000D02*
X38550000Y51350000D01*
X38550000Y51350000D02*
X38900000Y51700000D01*
X35150000Y50700000D02*
X34000000Y50700000D01*
X37770000Y5750000D02*
X41200000Y5750000D01*
X41200000Y5750000D02*
X42100000Y6650000D01*
X39660000Y13700000D02*
X39660000Y11290000D01*
X39660000Y11290000D02*
X42100000Y8850000D01*
X65000000Y52950000D02*
X65000000Y57300000D01*
X65000000Y57300000D02*
X64950000Y57350000D01*
X64950000Y57350000D02*
X64950000Y61450000D01*
X64950000Y61450000D02*
X65000000Y61500000D01*
X59700000Y47650000D02*
X57950000Y47650000D01*
X65000000Y52950000D02*
X65000000Y52950000D01*
X65000000Y52950000D02*
X59700000Y47650000D01*
X57950000Y47650000D02*
X57650000Y47350000D01*
X53950000Y47000000D02*
X54500000Y47000000D01*
X54500000Y47000000D02*
X55149998Y46350002D01*
X55149998Y46350002D02*
X57300002Y46350002D01*
X57300002Y46350002D02*
X57650000Y46700000D01*
X57650000Y46700000D02*
X57650000Y47350000D01*
X70050000Y57650000D02*
X70050000Y50650000D01*
X59650000Y44950000D02*
X64650000Y49950000D01*
X64650000Y49950000D02*
X69350000Y49950000D01*
X69350000Y49950000D02*
X70000000Y50600000D01*
X59650000Y44950000D02*
X57650000Y44950000D01*
X70050000Y50650000D02*
X70000000Y50600000D01*
X70050000Y57650000D02*
X70050000Y61450000D01*
X70050000Y61450000D02*
X70000000Y61500000D01*
X53850000Y45250000D02*
X54550000Y45250000D01*
X54550000Y45250000D02*
X55150000Y45850000D01*
X55150000Y45850000D02*
X57300000Y45850000D01*
X57300000Y45850000D02*
X57650000Y45500000D01*
X57650000Y45500000D02*
X57650000Y44950000D01*
X53850000Y45250000D02*
X54350000Y45250000D01*
D48*
G36*
X45340954Y58073169D02*
X45816527Y57511128D01*
X45994820Y57079628D01*
X46265000Y56808976D01*
X46265000Y52872154D01*
X46231799Y52821245D01*
X46163581Y52753027D01*
X46159161Y52752148D01*
X46021251Y52660000D01*
X41450000Y52660000D01*
X41159161Y52602148D01*
X40912599Y52437401D01*
X40297638Y51822440D01*
X39550000Y51822440D01*
X39314683Y51778162D01*
X39098559Y51639090D01*
X39042786Y51557464D01*
X38976309Y51585000D01*
X38835750Y51585000D01*
X38677002Y51426252D01*
X38677002Y51585000D01*
X38595158Y51585000D01*
X39912428Y52902270D01*
X44649210Y52902270D01*
X44884527Y52946548D01*
X45100651Y53085620D01*
X45245641Y53297820D01*
X45296650Y53549710D01*
X45296650Y55650290D01*
X45252372Y55885607D01*
X45113300Y56101731D01*
X44901100Y56246721D01*
X44649210Y56297730D01*
X39048510Y56297730D01*
X38813193Y56253452D01*
X38597069Y56114380D01*
X38452079Y55902180D01*
X38401070Y55650290D01*
X38401070Y53611228D01*
X37019212Y52229370D01*
X37000190Y52325000D01*
X36975245Y52450407D01*
X36805079Y52705079D01*
X35598930Y53911228D01*
X35598930Y55650290D01*
X35554652Y55885607D01*
X35415580Y56101731D01*
X35203380Y56246721D01*
X34951490Y56297730D01*
X29350790Y56297730D01*
X29115473Y56253452D01*
X28899349Y56114380D01*
X28754359Y55902180D01*
X28703350Y55650290D01*
X28703350Y53549710D01*
X28747628Y53314393D01*
X28886700Y53098269D01*
X29098900Y52953279D01*
X29350790Y52902270D01*
X34387572Y52902270D01*
X35465000Y51824842D01*
X35465000Y51585000D01*
X35435750Y51585000D01*
X35277000Y51426250D01*
X35277000Y50825000D01*
X35297000Y50825000D01*
X35297000Y50575000D01*
X35277000Y50575000D01*
X35277000Y49973750D01*
X35435750Y49815000D01*
X35511745Y49815000D01*
X35524755Y49749593D01*
X35651900Y49559307D01*
X35651900Y49477540D01*
X35525389Y49477540D01*
X33190721Y49526179D01*
X31899492Y50416250D01*
X34215000Y50416250D01*
X34215000Y50323690D01*
X34311673Y50090301D01*
X34490302Y49911673D01*
X34723691Y49815000D01*
X34864250Y49815000D01*
X35023000Y49973750D01*
X35023000Y50575000D01*
X34373750Y50575000D01*
X34215000Y50416250D01*
X31899492Y50416250D01*
X30941940Y51076310D01*
X34215000Y51076310D01*
X34215000Y50983750D01*
X34373750Y50825000D01*
X35023000Y50825000D01*
X35023000Y51426250D01*
X34864250Y51585000D01*
X34723691Y51585000D01*
X34490302Y51488327D01*
X34311673Y51309699D01*
X34215000Y51076310D01*
X30941940Y51076310D01*
X28126372Y53017138D01*
X28078207Y58122633D01*
X45340954Y58073169D01*
X45340954Y58073169D01*
G37*
X45340954Y58073169D02*
X45816527Y57511128D01*
X45994820Y57079628D01*
X46265000Y56808976D01*
X46265000Y52872154D01*
X46231799Y52821245D01*
X46163581Y52753027D01*
X46159161Y52752148D01*
X46021251Y52660000D01*
X41450000Y52660000D01*
X41159161Y52602148D01*
X40912599Y52437401D01*
X40297638Y51822440D01*
X39550000Y51822440D01*
X39314683Y51778162D01*
X39098559Y51639090D01*
X39042786Y51557464D01*
X38976309Y51585000D01*
X38835750Y51585000D01*
X38677002Y51426252D01*
X38677002Y51585000D01*
X38595158Y51585000D01*
X39912428Y52902270D01*
X44649210Y52902270D01*
X44884527Y52946548D01*
X45100651Y53085620D01*
X45245641Y53297820D01*
X45296650Y53549710D01*
X45296650Y55650290D01*
X45252372Y55885607D01*
X45113300Y56101731D01*
X44901100Y56246721D01*
X44649210Y56297730D01*
X39048510Y56297730D01*
X38813193Y56253452D01*
X38597069Y56114380D01*
X38452079Y55902180D01*
X38401070Y55650290D01*
X38401070Y53611228D01*
X37019212Y52229370D01*
X37000190Y52325000D01*
X36975245Y52450407D01*
X36805079Y52705079D01*
X35598930Y53911228D01*
X35598930Y55650290D01*
X35554652Y55885607D01*
X35415580Y56101731D01*
X35203380Y56246721D01*
X34951490Y56297730D01*
X29350790Y56297730D01*
X29115473Y56253452D01*
X28899349Y56114380D01*
X28754359Y55902180D01*
X28703350Y55650290D01*
X28703350Y53549710D01*
X28747628Y53314393D01*
X28886700Y53098269D01*
X29098900Y52953279D01*
X29350790Y52902270D01*
X34387572Y52902270D01*
X35465000Y51824842D01*
X35465000Y51585000D01*
X35435750Y51585000D01*
X35277000Y51426250D01*
X35277000Y50825000D01*
X35297000Y50825000D01*
X35297000Y50575000D01*
X35277000Y50575000D01*
X35277000Y49973750D01*
X35435750Y49815000D01*
X35511745Y49815000D01*
X35524755Y49749593D01*
X35651900Y49559307D01*
X35651900Y49477540D01*
X35525389Y49477540D01*
X33190721Y49526179D01*
X31899492Y50416250D01*
X34215000Y50416250D01*
X34215000Y50323690D01*
X34311673Y50090301D01*
X34490302Y49911673D01*
X34723691Y49815000D01*
X34864250Y49815000D01*
X35023000Y49973750D01*
X35023000Y50575000D01*
X34373750Y50575000D01*
X34215000Y50416250D01*
X31899492Y50416250D01*
X30941940Y51076310D01*
X34215000Y51076310D01*
X34215000Y50983750D01*
X34373750Y50825000D01*
X35023000Y50825000D01*
X35023000Y51426250D01*
X34864250Y51585000D01*
X34723691Y51585000D01*
X34490302Y51488327D01*
X34311673Y51309699D01*
X34215000Y51076310D01*
X30941940Y51076310D01*
X28126372Y53017138D01*
X28078207Y58122633D01*
X45340954Y58073169D01*
G36*
X38677000Y50825000D02*
X38697000Y50825000D01*
X38697000Y50575000D01*
X38677000Y50575000D01*
X38677000Y50553000D01*
X38423000Y50553000D01*
X38423000Y50575000D01*
X38403000Y50575000D01*
X38403000Y50825000D01*
X38423000Y50825000D01*
X38423000Y50847000D01*
X38677000Y50847000D01*
X38677000Y50825000D01*
X38677000Y50825000D01*
G37*
X38677000Y50825000D02*
X38697000Y50825000D01*
X38697000Y50575000D01*
X38677000Y50575000D01*
X38677000Y50553000D01*
X38423000Y50553000D01*
X38423000Y50575000D01*
X38403000Y50575000D01*
X38403000Y50825000D01*
X38423000Y50825000D01*
X38423000Y50847000D01*
X38677000Y50847000D01*
X38677000Y50825000D01*
G36*
X20823000Y65597394D02*
X20823000Y62489021D01*
X20061960Y61367488D01*
X19849594Y61325245D01*
X19635651Y61182294D01*
X19230245Y61188169D01*
X19184315Y61299054D01*
X19180541Y61298677D01*
X19173466Y61315800D01*
X19060360Y61429104D01*
X19259698Y61511673D01*
X19438327Y61690301D01*
X19535000Y61923690D01*
X19535000Y62016250D01*
X19376250Y62175000D01*
X18727000Y62175000D01*
X18727000Y62153000D01*
X18473000Y62153000D01*
X18473000Y62175000D01*
X18453000Y62175000D01*
X18453000Y62425000D01*
X18473000Y62425000D01*
X18473000Y62447000D01*
X18727000Y62447000D01*
X18727000Y62425000D01*
X19376250Y62425000D01*
X19535000Y62583750D01*
X19535000Y62676310D01*
X19438327Y62909699D01*
X19405438Y62942588D01*
X19447440Y63150000D01*
X19447440Y65050000D01*
X19403162Y65285317D01*
X19264090Y65501441D01*
X19051890Y65646431D01*
X18800000Y65697440D01*
X17600000Y65697440D01*
X17364683Y65653162D01*
X17148559Y65514090D01*
X17003569Y65301890D01*
X16952560Y65050000D01*
X16952560Y63962718D01*
X16947440Y63957598D01*
X16947440Y65050000D01*
X16903162Y65285317D01*
X16764090Y65501441D01*
X16551890Y65646431D01*
X16300000Y65697440D01*
X15100000Y65697440D01*
X14864683Y65653162D01*
X14648559Y65514090D01*
X14503569Y65301890D01*
X14452560Y65050000D01*
X14452560Y63150000D01*
X14476222Y63024247D01*
X14361673Y62909699D01*
X14265000Y62676310D01*
X14265000Y62583750D01*
X14423750Y62425000D01*
X15073000Y62425000D01*
X15073000Y62447000D01*
X15327000Y62447000D01*
X15327000Y62425000D01*
X15347000Y62425000D01*
X15347000Y62175000D01*
X15327000Y62175000D01*
X15327000Y61573750D01*
X15485750Y61415000D01*
X15626309Y61415000D01*
X15737283Y61460967D01*
X15748110Y61453569D01*
X15790000Y61445086D01*
X15790000Y60830209D01*
X15753569Y60776890D01*
X15743466Y60727000D01*
X14030881Y60727000D01*
X13727000Y61378174D01*
X13727000Y62016250D01*
X14265000Y62016250D01*
X14265000Y61923690D01*
X14361673Y61690301D01*
X14540302Y61511673D01*
X14773691Y61415000D01*
X14914250Y61415000D01*
X15073000Y61573750D01*
X15073000Y62175000D01*
X14423750Y62175000D01*
X14265000Y62016250D01*
X13727000Y62016250D01*
X13727000Y65638961D01*
X14394549Y66173000D01*
X20247394Y66173000D01*
X20823000Y65597394D01*
X20823000Y65597394D01*
G37*
X20823000Y65597394D02*
X20823000Y62489021D01*
X20061960Y61367488D01*
X19849594Y61325245D01*
X19635651Y61182294D01*
X19230245Y61188169D01*
X19184315Y61299054D01*
X19180541Y61298677D01*
X19173466Y61315800D01*
X19060360Y61429104D01*
X19259698Y61511673D01*
X19438327Y61690301D01*
X19535000Y61923690D01*
X19535000Y62016250D01*
X19376250Y62175000D01*
X18727000Y62175000D01*
X18727000Y62153000D01*
X18473000Y62153000D01*
X18473000Y62175000D01*
X18453000Y62175000D01*
X18453000Y62425000D01*
X18473000Y62425000D01*
X18473000Y62447000D01*
X18727000Y62447000D01*
X18727000Y62425000D01*
X19376250Y62425000D01*
X19535000Y62583750D01*
X19535000Y62676310D01*
X19438327Y62909699D01*
X19405438Y62942588D01*
X19447440Y63150000D01*
X19447440Y65050000D01*
X19403162Y65285317D01*
X19264090Y65501441D01*
X19051890Y65646431D01*
X18800000Y65697440D01*
X17600000Y65697440D01*
X17364683Y65653162D01*
X17148559Y65514090D01*
X17003569Y65301890D01*
X16952560Y65050000D01*
X16952560Y63962718D01*
X16947440Y63957598D01*
X16947440Y65050000D01*
X16903162Y65285317D01*
X16764090Y65501441D01*
X16551890Y65646431D01*
X16300000Y65697440D01*
X15100000Y65697440D01*
X14864683Y65653162D01*
X14648559Y65514090D01*
X14503569Y65301890D01*
X14452560Y65050000D01*
X14452560Y63150000D01*
X14476222Y63024247D01*
X14361673Y62909699D01*
X14265000Y62676310D01*
X14265000Y62583750D01*
X14423750Y62425000D01*
X15073000Y62425000D01*
X15073000Y62447000D01*
X15327000Y62447000D01*
X15327000Y62425000D01*
X15347000Y62425000D01*
X15347000Y62175000D01*
X15327000Y62175000D01*
X15327000Y61573750D01*
X15485750Y61415000D01*
X15626309Y61415000D01*
X15737283Y61460967D01*
X15748110Y61453569D01*
X15790000Y61445086D01*
X15790000Y60830209D01*
X15753569Y60776890D01*
X15743466Y60727000D01*
X14030881Y60727000D01*
X13727000Y61378174D01*
X13727000Y62016250D01*
X14265000Y62016250D01*
X14265000Y61923690D01*
X14361673Y61690301D01*
X14540302Y61511673D01*
X14773691Y61415000D01*
X14914250Y61415000D01*
X15073000Y61573750D01*
X15073000Y62175000D01*
X14423750Y62175000D01*
X14265000Y62016250D01*
X13727000Y62016250D01*
X13727000Y65638961D01*
X14394549Y66173000D01*
X20247394Y66173000D01*
X20823000Y65597394D01*
G36*
X18265000Y9887630D02*
X18214683Y9878162D01*
X18111354Y9811671D01*
X18109698Y9813327D01*
X17876309Y9910000D01*
X17435750Y9910000D01*
X17277000Y9751250D01*
X17277000Y9027000D01*
X17297000Y9027000D01*
X17297000Y8773000D01*
X17277000Y8773000D01*
X17277000Y8048750D01*
X17435750Y7890000D01*
X17876309Y7890000D01*
X18109698Y7986673D01*
X18111068Y7988043D01*
X18198110Y7928569D01*
X18450000Y7877560D01*
X18962282Y7877560D01*
X19083023Y7756819D01*
X18777629Y7741786D01*
X18388115Y7580443D01*
X18317052Y7336913D01*
X19127080Y6526885D01*
X19141223Y6541027D01*
X19320828Y6361422D01*
X19306685Y6347280D01*
X19320828Y6333137D01*
X19141223Y6153532D01*
X19127080Y6167675D01*
X18317052Y5357647D01*
X18367006Y5186456D01*
X18254080Y5073530D01*
X18254080Y3774280D01*
X19553330Y3774280D01*
X19712080Y3933030D01*
X19712080Y4723590D01*
X19615407Y4956979D01*
X19577704Y4994682D01*
X19836870Y5102032D01*
X19875190Y5075849D01*
X20127080Y5024840D01*
X20527080Y5024840D01*
X20656669Y5049224D01*
X20777080Y5024840D01*
X21177080Y5024840D01*
X21306669Y5049224D01*
X21427080Y5024840D01*
X21827080Y5024840D01*
X21956669Y5049224D01*
X22077080Y5024840D01*
X22477080Y5024840D01*
X22606669Y5049224D01*
X22727080Y5024840D01*
X23127080Y5024840D01*
X23362397Y5069118D01*
X23416531Y5103953D01*
X23688459Y5006685D01*
X23638753Y4956979D01*
X23542080Y4723590D01*
X23542080Y3933030D01*
X23700830Y3774280D01*
X25000080Y3774280D01*
X25000080Y5073530D01*
X25254080Y5073530D01*
X25254080Y3774280D01*
X26553330Y3774280D01*
X26712080Y3933030D01*
X26712080Y4723590D01*
X26615407Y4956979D01*
X26436778Y5135607D01*
X26203389Y5232280D01*
X25412830Y5232280D01*
X25254080Y5073530D01*
X25000080Y5073530D01*
X24887154Y5186456D01*
X24937108Y5357647D01*
X24127080Y6167675D01*
X24112938Y6153532D01*
X23933333Y6333137D01*
X23947475Y6347280D01*
X24306685Y6347280D01*
X25116713Y5537252D01*
X25360243Y5608315D01*
X25549164Y6136477D01*
X25521586Y6696731D01*
X25360243Y7086245D01*
X25116713Y7157308D01*
X24306685Y6347280D01*
X23947475Y6347280D01*
X23933333Y6361422D01*
X24112938Y6541027D01*
X24127080Y6526885D01*
X24937108Y7336913D01*
X24866045Y7580443D01*
X24699996Y7639838D01*
X24905079Y7844921D01*
X25075245Y8099594D01*
X25135000Y8400000D01*
X25135000Y9250000D01*
X25088997Y9481272D01*
X25082144Y9515723D01*
X25173110Y9453569D01*
X25425000Y9402560D01*
X26175000Y9402560D01*
X26410317Y9446838D01*
X26626441Y9585910D01*
X26748808Y9765000D01*
X26833420Y9765000D01*
X27215000Y9383421D01*
X27215000Y9200005D01*
X27214999Y9200000D01*
X27215000Y9199995D01*
X27215000Y3066579D01*
X26833420Y2685000D01*
X26712080Y2685000D01*
X26712080Y3361530D01*
X26553330Y3520280D01*
X25254080Y3520280D01*
X25254080Y3500280D01*
X25000080Y3500280D01*
X25000080Y3520280D01*
X23700830Y3520280D01*
X23542080Y3361530D01*
X23542080Y2685000D01*
X19712080Y2685000D01*
X19712080Y3361530D01*
X19553330Y3520280D01*
X18254080Y3520280D01*
X18254080Y3500280D01*
X18000080Y3500280D01*
X18000080Y3520280D01*
X16700830Y3520280D01*
X16542080Y3361530D01*
X16542080Y2685000D01*
X16016579Y2685000D01*
X15435000Y3266580D01*
X15435000Y4149995D01*
X15435001Y4150000D01*
X15367633Y4488675D01*
X15243107Y4675041D01*
X15243404Y4723590D01*
X16542080Y4723590D01*
X16542080Y3933030D01*
X16700830Y3774280D01*
X18000080Y3774280D01*
X18000080Y5073530D01*
X17841330Y5232280D01*
X17050771Y5232280D01*
X16817382Y5135607D01*
X16638753Y4956979D01*
X16542080Y4723590D01*
X15243404Y4723590D01*
X15254658Y6558083D01*
X17704996Y6558083D01*
X17732574Y5997829D01*
X17893917Y5608315D01*
X18137447Y5537252D01*
X18947475Y6347280D01*
X18137447Y7157308D01*
X17893917Y7086245D01*
X17704996Y6558083D01*
X15254658Y6558083D01*
X15267274Y8614250D01*
X15915000Y8614250D01*
X15915000Y8398690D01*
X16011673Y8165301D01*
X16190302Y7986673D01*
X16423691Y7890000D01*
X16864250Y7890000D01*
X17023000Y8048750D01*
X17023000Y8773000D01*
X16073750Y8773000D01*
X15915000Y8614250D01*
X15267274Y8614250D01*
X15272102Y9401310D01*
X15915000Y9401310D01*
X15915000Y9185750D01*
X16073750Y9027000D01*
X17023000Y9027000D01*
X17023000Y9751250D01*
X16864250Y9910000D01*
X16423691Y9910000D01*
X16190302Y9813327D01*
X16011673Y9634699D01*
X15915000Y9401310D01*
X15272102Y9401310D01*
X15276224Y10073000D01*
X18265000Y10073000D01*
X18265000Y9887630D01*
X18265000Y9887630D01*
G37*
X18265000Y9887630D02*
X18214683Y9878162D01*
X18111354Y9811671D01*
X18109698Y9813327D01*
X17876309Y9910000D01*
X17435750Y9910000D01*
X17277000Y9751250D01*
X17277000Y9027000D01*
X17297000Y9027000D01*
X17297000Y8773000D01*
X17277000Y8773000D01*
X17277000Y8048750D01*
X17435750Y7890000D01*
X17876309Y7890000D01*
X18109698Y7986673D01*
X18111068Y7988043D01*
X18198110Y7928569D01*
X18450000Y7877560D01*
X18962282Y7877560D01*
X19083023Y7756819D01*
X18777629Y7741786D01*
X18388115Y7580443D01*
X18317052Y7336913D01*
X19127080Y6526885D01*
X19141223Y6541027D01*
X19320828Y6361422D01*
X19306685Y6347280D01*
X19320828Y6333137D01*
X19141223Y6153532D01*
X19127080Y6167675D01*
X18317052Y5357647D01*
X18367006Y5186456D01*
X18254080Y5073530D01*
X18254080Y3774280D01*
X19553330Y3774280D01*
X19712080Y3933030D01*
X19712080Y4723590D01*
X19615407Y4956979D01*
X19577704Y4994682D01*
X19836870Y5102032D01*
X19875190Y5075849D01*
X20127080Y5024840D01*
X20527080Y5024840D01*
X20656669Y5049224D01*
X20777080Y5024840D01*
X21177080Y5024840D01*
X21306669Y5049224D01*
X21427080Y5024840D01*
X21827080Y5024840D01*
X21956669Y5049224D01*
X22077080Y5024840D01*
X22477080Y5024840D01*
X22606669Y5049224D01*
X22727080Y5024840D01*
X23127080Y5024840D01*
X23362397Y5069118D01*
X23416531Y5103953D01*
X23688459Y5006685D01*
X23638753Y4956979D01*
X23542080Y4723590D01*
X23542080Y3933030D01*
X23700830Y3774280D01*
X25000080Y3774280D01*
X25000080Y5073530D01*
X25254080Y5073530D01*
X25254080Y3774280D01*
X26553330Y3774280D01*
X26712080Y3933030D01*
X26712080Y4723590D01*
X26615407Y4956979D01*
X26436778Y5135607D01*
X26203389Y5232280D01*
X25412830Y5232280D01*
X25254080Y5073530D01*
X25000080Y5073530D01*
X24887154Y5186456D01*
X24937108Y5357647D01*
X24127080Y6167675D01*
X24112938Y6153532D01*
X23933333Y6333137D01*
X23947475Y6347280D01*
X24306685Y6347280D01*
X25116713Y5537252D01*
X25360243Y5608315D01*
X25549164Y6136477D01*
X25521586Y6696731D01*
X25360243Y7086245D01*
X25116713Y7157308D01*
X24306685Y6347280D01*
X23947475Y6347280D01*
X23933333Y6361422D01*
X24112938Y6541027D01*
X24127080Y6526885D01*
X24937108Y7336913D01*
X24866045Y7580443D01*
X24699996Y7639838D01*
X24905079Y7844921D01*
X25075245Y8099594D01*
X25135000Y8400000D01*
X25135000Y9250000D01*
X25088997Y9481272D01*
X25082144Y9515723D01*
X25173110Y9453569D01*
X25425000Y9402560D01*
X26175000Y9402560D01*
X26410317Y9446838D01*
X26626441Y9585910D01*
X26748808Y9765000D01*
X26833420Y9765000D01*
X27215000Y9383421D01*
X27215000Y9200005D01*
X27214999Y9200000D01*
X27215000Y9199995D01*
X27215000Y3066579D01*
X26833420Y2685000D01*
X26712080Y2685000D01*
X26712080Y3361530D01*
X26553330Y3520280D01*
X25254080Y3520280D01*
X25254080Y3500280D01*
X25000080Y3500280D01*
X25000080Y3520280D01*
X23700830Y3520280D01*
X23542080Y3361530D01*
X23542080Y2685000D01*
X19712080Y2685000D01*
X19712080Y3361530D01*
X19553330Y3520280D01*
X18254080Y3520280D01*
X18254080Y3500280D01*
X18000080Y3500280D01*
X18000080Y3520280D01*
X16700830Y3520280D01*
X16542080Y3361530D01*
X16542080Y2685000D01*
X16016579Y2685000D01*
X15435000Y3266580D01*
X15435000Y4149995D01*
X15435001Y4150000D01*
X15367633Y4488675D01*
X15243107Y4675041D01*
X15243404Y4723590D01*
X16542080Y4723590D01*
X16542080Y3933030D01*
X16700830Y3774280D01*
X18000080Y3774280D01*
X18000080Y5073530D01*
X17841330Y5232280D01*
X17050771Y5232280D01*
X16817382Y5135607D01*
X16638753Y4956979D01*
X16542080Y4723590D01*
X15243404Y4723590D01*
X15254658Y6558083D01*
X17704996Y6558083D01*
X17732574Y5997829D01*
X17893917Y5608315D01*
X18137447Y5537252D01*
X18947475Y6347280D01*
X18137447Y7157308D01*
X17893917Y7086245D01*
X17704996Y6558083D01*
X15254658Y6558083D01*
X15267274Y8614250D01*
X15915000Y8614250D01*
X15915000Y8398690D01*
X16011673Y8165301D01*
X16190302Y7986673D01*
X16423691Y7890000D01*
X16864250Y7890000D01*
X17023000Y8048750D01*
X17023000Y8773000D01*
X16073750Y8773000D01*
X15915000Y8614250D01*
X15267274Y8614250D01*
X15272102Y9401310D01*
X15915000Y9401310D01*
X15915000Y9185750D01*
X16073750Y9027000D01*
X17023000Y9027000D01*
X17023000Y9751250D01*
X16864250Y9910000D01*
X16423691Y9910000D01*
X16190302Y9813327D01*
X16011673Y9634699D01*
X15915000Y9401310D01*
X15272102Y9401310D01*
X15276224Y10073000D01*
X18265000Y10073000D01*
X18265000Y9887630D01*
G36*
X94290000Y710000D02*
X710000Y710000D01*
X710000Y33810000D01*
X1414999Y33810000D01*
X1415000Y33809995D01*
X1415000Y16400005D01*
X1414999Y16400000D01*
X1446826Y16240000D01*
X1482367Y16061325D01*
X1626963Y15844921D01*
X1674210Y15774210D01*
X13665000Y3783421D01*
X13665000Y2900005D01*
X13664999Y2900000D01*
X13707766Y2685000D01*
X13732367Y2561325D01*
X13876963Y2344921D01*
X13924210Y2274210D01*
X15024208Y1174213D01*
X15024210Y1174210D01*
X15311325Y982367D01*
X15367516Y971190D01*
X15650000Y914999D01*
X15650005Y915000D01*
X27199995Y915000D01*
X27200000Y914999D01*
X27482484Y971190D01*
X27538675Y982367D01*
X27825790Y1174210D01*
X28725787Y2074208D01*
X28725790Y2074210D01*
X28917633Y2361325D01*
X28934355Y2445390D01*
X28985001Y2700000D01*
X28985000Y2700005D01*
X28985000Y4597468D01*
X34257073Y4597468D01*
X34355736Y4330613D01*
X34965461Y4104092D01*
X35615460Y4128144D01*
X36104264Y4330613D01*
X36202927Y4597468D01*
X35230000Y5570395D01*
X34257073Y4597468D01*
X28985000Y4597468D01*
X28985000Y6014539D01*
X33584092Y6014539D01*
X33608144Y5364540D01*
X33810613Y4875736D01*
X34077468Y4777073D01*
X35050395Y5750000D01*
X34077468Y6722927D01*
X33810613Y6624264D01*
X33584092Y6014539D01*
X28985000Y6014539D01*
X28985000Y8833420D01*
X29353771Y9202191D01*
X29563255Y9115206D01*
X30034677Y9114794D01*
X30470372Y9294820D01*
X30804009Y9627875D01*
X30938376Y9951466D01*
X32552560Y8337282D01*
X32552560Y7850000D01*
X32596838Y7614683D01*
X32735910Y7398559D01*
X32948110Y7253569D01*
X33200000Y7202560D01*
X34100000Y7202560D01*
X34335317Y7246838D01*
X34551441Y7385910D01*
X34696431Y7598110D01*
X34726409Y7746147D01*
X34811673Y7540302D01*
X34975280Y7376694D01*
X34844540Y7371856D01*
X34355736Y7169387D01*
X34257073Y6902532D01*
X35230000Y5929605D01*
X36202927Y6902532D01*
X36104264Y7169387D01*
X35777002Y7290969D01*
X35777002Y7423748D01*
X35935750Y7265000D01*
X36076310Y7265000D01*
X36309699Y7361673D01*
X36488327Y7540302D01*
X36585000Y7773691D01*
X36585000Y8264250D01*
X36426250Y8423000D01*
X35777000Y8423000D01*
X35777000Y8403000D01*
X35523000Y8403000D01*
X35523000Y8423000D01*
X35503000Y8423000D01*
X35503000Y8677000D01*
X35523000Y8677000D01*
X35523000Y8697000D01*
X35777000Y8697000D01*
X35777000Y8677000D01*
X36426250Y8677000D01*
X36469546Y8720296D01*
X36652560Y8537282D01*
X36652560Y7950000D01*
X36696838Y7714683D01*
X36835910Y7498559D01*
X37048110Y7353569D01*
X37263760Y7309899D01*
X36845057Y7136894D01*
X36417438Y6710022D01*
X36382532Y6722927D01*
X35409605Y5750000D01*
X36382532Y4777073D01*
X36417938Y4790164D01*
X36842637Y4364722D01*
X37443352Y4115284D01*
X38093795Y4114716D01*
X38694943Y4363106D01*
X39155278Y4822637D01*
X39214392Y4965000D01*
X41200000Y4965000D01*
X41500407Y5024755D01*
X41755079Y5194921D01*
X41962718Y5402560D01*
X42550000Y5402560D01*
X42785317Y5446838D01*
X43001441Y5585910D01*
X43146431Y5798110D01*
X43197440Y6050000D01*
X43197440Y6965000D01*
X44496700Y6965000D01*
X44797107Y7024755D01*
X45051779Y7194921D01*
X45605658Y7748800D01*
X47217100Y7748800D01*
X47276855Y7448393D01*
X47447021Y7193721D01*
X47701693Y7023555D01*
X48002100Y6963800D01*
X48302507Y7023555D01*
X48557179Y7193721D01*
X48633379Y7269921D01*
X48803545Y7524593D01*
X48863300Y7825000D01*
X48803545Y8125406D01*
X48633379Y8380079D01*
X48378706Y8550245D01*
X48078300Y8610000D01*
X47777893Y8550245D01*
X47523221Y8380079D01*
X47447021Y8303879D01*
X47276855Y8049207D01*
X47217100Y7748800D01*
X45605658Y7748800D01*
X46032310Y8175452D01*
X46172152Y8117384D01*
X46822595Y8116816D01*
X47423743Y8365206D01*
X47884078Y8824737D01*
X47943192Y8967100D01*
X51556483Y8967100D01*
X51614306Y8827157D01*
X52073837Y8366822D01*
X52674552Y8117384D01*
X53324995Y8116816D01*
X53926143Y8365206D01*
X54386478Y8824737D01*
X54635916Y9425452D01*
X54636484Y10075895D01*
X54388094Y10677043D01*
X53928563Y11137378D01*
X53327848Y11386816D01*
X52677405Y11387384D01*
X52076257Y11138994D01*
X51615922Y10679463D01*
X51556808Y10537100D01*
X47943517Y10537100D01*
X47885694Y10677043D01*
X47426163Y11137378D01*
X46825448Y11386816D01*
X46175005Y11387384D01*
X45573857Y11138994D01*
X45113522Y10679463D01*
X44864084Y10078748D01*
X44863516Y9428305D01*
X44922382Y9285840D01*
X44171542Y8535000D01*
X43197440Y8535000D01*
X43197440Y9450000D01*
X43153162Y9685317D01*
X43014090Y9901441D01*
X42962443Y9936730D01*
X43204009Y10177875D01*
X43384794Y10613255D01*
X43384943Y10783363D01*
X44066579Y11465000D01*
X54493337Y11465000D01*
X54613255Y11415206D01*
X55084677Y11414794D01*
X55415000Y11551281D01*
X55415000Y7050000D01*
X55474755Y6749593D01*
X55644921Y6494921D01*
X58194921Y3944921D01*
X58449594Y3774755D01*
X58750000Y3714999D01*
X58750005Y3715000D01*
X61350000Y3715000D01*
X61650407Y3774755D01*
X61905079Y3944921D01*
X62788497Y4828339D01*
X63057491Y4881845D01*
X63555481Y5214591D01*
X63710000Y5445845D01*
X63864519Y5214591D01*
X64362509Y4881845D01*
X64949928Y4765000D01*
X65010072Y4765000D01*
X65597491Y4881845D01*
X66095481Y5214591D01*
X66428227Y5712581D01*
X66545072Y6300000D01*
X66428227Y6887419D01*
X66095481Y7385409D01*
X65817081Y7571430D01*
X65880554Y7759841D01*
X64980000Y8660395D01*
X64965858Y8646252D01*
X64786253Y8825857D01*
X64800395Y8840000D01*
X64786253Y8854142D01*
X64965858Y9033747D01*
X64980000Y9019605D01*
X64994143Y9033747D01*
X65173748Y8854142D01*
X65159605Y8840000D01*
X66060159Y7939446D01*
X66316643Y8025852D01*
X66526458Y8599336D01*
X66500839Y9209460D01*
X66316643Y9654148D01*
X66060161Y9740553D01*
X66075190Y9755582D01*
X66413255Y9615206D01*
X66884677Y9614794D01*
X67320372Y9794820D01*
X67654009Y10127875D01*
X67834794Y10563255D01*
X67834855Y10633276D01*
X68166579Y10965000D01*
X81326477Y10965000D01*
X81614436Y10676539D01*
X82123298Y10465241D01*
X82674285Y10464760D01*
X83183515Y10675169D01*
X83473852Y10965000D01*
X84783420Y10965000D01*
X85899208Y9849213D01*
X85899210Y9849210D01*
X85924210Y9824211D01*
X86211325Y9632367D01*
X86550000Y9565000D01*
X86675682Y9590000D01*
X89574995Y9590000D01*
X89575000Y9589999D01*
X89892535Y9653162D01*
X89913675Y9657367D01*
X90200790Y9849210D01*
X90775787Y10424208D01*
X90775790Y10424210D01*
X90967633Y10711325D01*
X90992234Y10835000D01*
X91035001Y11050000D01*
X91035000Y11050005D01*
X91035000Y15762486D01*
X91067633Y15811325D01*
X91135000Y16150000D01*
X91135000Y46789995D01*
X91135001Y46790000D01*
X91067633Y47128675D01*
X91051949Y47152148D01*
X90875790Y47415790D01*
X90875787Y47415792D01*
X89882967Y48408613D01*
X89925000Y48619928D01*
X89925000Y48680072D01*
X89808155Y49267491D01*
X89475409Y49765481D01*
X89152435Y49981285D01*
X89015790Y50185790D01*
X89015787Y50185792D01*
X88225790Y50975790D01*
X88188948Y51000407D01*
X87938675Y51167633D01*
X87882484Y51178810D01*
X87600000Y51235001D01*
X87599995Y51235000D01*
X82850000Y51235000D01*
X82511325Y51167633D01*
X82224210Y50975790D01*
X82224208Y50975787D01*
X81345860Y50097440D01*
X81150000Y50097440D01*
X80914683Y50053162D01*
X80851432Y50012461D01*
X80676309Y50085000D01*
X80485750Y50085000D01*
X80327000Y49926250D01*
X80327000Y49127000D01*
X80347000Y49127000D01*
X80347000Y48873000D01*
X80327000Y48873000D01*
X80327000Y48073750D01*
X80485750Y47915000D01*
X80676309Y47915000D01*
X80849541Y47986755D01*
X80898110Y47953569D01*
X81150000Y47902560D01*
X81850000Y47902560D01*
X82085317Y47946838D01*
X82301441Y48085910D01*
X82446431Y48298110D01*
X82497440Y48550000D01*
X82497440Y48745860D01*
X83216579Y49465000D01*
X84315000Y49465000D01*
X84315000Y48935750D01*
X84473750Y48777000D01*
X85723000Y48777000D01*
X85723000Y48797000D01*
X85977000Y48797000D01*
X85977000Y48777000D01*
X85997000Y48777000D01*
X85997000Y48523000D01*
X85977000Y48523000D01*
X85977000Y48503000D01*
X85723000Y48503000D01*
X85723000Y48523000D01*
X84473750Y48523000D01*
X84315000Y48364250D01*
X84315000Y47623691D01*
X84411673Y47390302D01*
X84590301Y47211673D01*
X84719583Y47158122D01*
X84543771Y46895000D01*
X81947440Y46895000D01*
X81947440Y46950000D01*
X81903162Y47185317D01*
X81764090Y47401441D01*
X81551890Y47546431D01*
X81300000Y47597440D01*
X80400000Y47597440D01*
X80164683Y47553162D01*
X79948559Y47414090D01*
X79803569Y47201890D01*
X79752560Y46950000D01*
X79752560Y46050000D01*
X79796838Y45814683D01*
X79935910Y45598559D01*
X80148110Y45453569D01*
X80400000Y45402560D01*
X80860117Y45402560D01*
X80762599Y45337401D01*
X78935200Y43510002D01*
X52595750Y43510002D01*
X51953192Y44152560D01*
X52250000Y44152560D01*
X52485317Y44196838D01*
X52701441Y44335910D01*
X52749134Y44405711D01*
X52785910Y44348559D01*
X52998110Y44203569D01*
X53250000Y44152560D01*
X54450000Y44152560D01*
X54685317Y44196838D01*
X54787789Y44262777D01*
X54796838Y44214683D01*
X54935910Y43998559D01*
X55148110Y43853569D01*
X55400000Y43802560D01*
X56100000Y43802560D01*
X56205705Y43822450D01*
X56223691Y43815000D01*
X56414250Y43815000D01*
X56573000Y43973750D01*
X56573000Y44017463D01*
X56696431Y44198110D01*
X56699081Y44211197D01*
X56827000Y44012406D01*
X56827000Y43973750D01*
X56985750Y43815000D01*
X57176309Y43815000D01*
X57196753Y43823468D01*
X57300000Y43802560D01*
X58000000Y43802560D01*
X58235317Y43846838D01*
X58451441Y43985910D01*
X58573808Y44165000D01*
X59650000Y44165000D01*
X59950407Y44224755D01*
X60205079Y44394921D01*
X63342358Y47532200D01*
X63265301Y47346627D01*
X63264699Y46656401D01*
X63528281Y46018485D01*
X64015918Y45529996D01*
X64653373Y45265301D01*
X65343599Y45264699D01*
X65981515Y45528281D01*
X66470004Y46015918D01*
X66734699Y46653373D01*
X66734701Y46656401D01*
X68264699Y46656401D01*
X68528281Y46018485D01*
X69015918Y45529996D01*
X69653373Y45265301D01*
X70343599Y45264699D01*
X70981515Y45528281D01*
X71470004Y46015918D01*
X71734699Y46653373D01*
X71735301Y47343599D01*
X71471719Y47981515D01*
X70984082Y48470004D01*
X70395874Y48714250D01*
X79215000Y48714250D01*
X79215000Y48423690D01*
X79311673Y48190301D01*
X79490302Y48011673D01*
X79723691Y47915000D01*
X79914250Y47915000D01*
X80073000Y48073750D01*
X80073000Y48873000D01*
X79373750Y48873000D01*
X79215000Y48714250D01*
X70395874Y48714250D01*
X70346627Y48734699D01*
X69656401Y48735301D01*
X69018485Y48471719D01*
X68529996Y47984082D01*
X68265301Y47346627D01*
X68264699Y46656401D01*
X66734701Y46656401D01*
X66735301Y47343599D01*
X66471719Y47981515D01*
X65984082Y48470004D01*
X65346627Y48734699D01*
X64656401Y48735301D01*
X64467341Y48657183D01*
X64975158Y49165000D01*
X69350000Y49165000D01*
X69650407Y49224755D01*
X69905079Y49394921D01*
X70086468Y49576310D01*
X79215000Y49576310D01*
X79215000Y49285750D01*
X79373750Y49127000D01*
X80073000Y49127000D01*
X80073000Y49926250D01*
X79914250Y50085000D01*
X79723691Y50085000D01*
X79490302Y49988327D01*
X79311673Y49809699D01*
X79215000Y49576310D01*
X70086468Y49576310D01*
X70605079Y50094921D01*
X70775245Y50349594D01*
X70835000Y50650000D01*
X70835000Y55325000D01*
X71602560Y55325000D01*
X71602560Y52675000D01*
X71646838Y52439683D01*
X71785910Y52223559D01*
X71998110Y52078569D01*
X72250000Y52027560D01*
X73800000Y52027560D01*
X74035317Y52071838D01*
X74251441Y52210910D01*
X74396431Y52423110D01*
X74447440Y52675000D01*
X74447440Y55325000D01*
X74403162Y55560317D01*
X74264090Y55776441D01*
X74051890Y55921431D01*
X73800000Y55972440D01*
X72250000Y55972440D01*
X72014683Y55928162D01*
X71798559Y55789090D01*
X71653569Y55576890D01*
X71602560Y55325000D01*
X70835000Y55325000D01*
X70835000Y56587370D01*
X70885317Y56596838D01*
X71101441Y56735910D01*
X71149134Y56805711D01*
X71185910Y56748559D01*
X71398110Y56603569D01*
X71650000Y56552560D01*
X72850000Y56552560D01*
X73085317Y56596838D01*
X73301441Y56735910D01*
X73446431Y56948110D01*
X73497440Y57200000D01*
X73497440Y58100000D01*
X73453162Y58335317D01*
X73314090Y58551441D01*
X73101890Y58696431D01*
X73035000Y58709977D01*
X73035000Y59174842D01*
X74005079Y60144921D01*
X74175245Y60399593D01*
X74235000Y60700000D01*
X74235000Y61250000D01*
X74210217Y61374593D01*
X74175245Y61550407D01*
X74005079Y61805079D01*
X72495158Y63315000D01*
X76750000Y63315000D01*
X77050407Y63374755D01*
X77305079Y63544921D01*
X79302560Y65542403D01*
X79302560Y64800000D01*
X79346838Y64564683D01*
X79485910Y64348559D01*
X79698110Y64203569D01*
X79950000Y64152560D01*
X80850000Y64152560D01*
X81085317Y64196838D01*
X81199978Y64270620D01*
X81298110Y64203569D01*
X81550000Y64152560D01*
X82450000Y64152560D01*
X82685317Y64196838D01*
X82901441Y64335910D01*
X83046431Y64548110D01*
X83066830Y64648841D01*
X83197107Y64674755D01*
X83451779Y64844921D01*
X83782310Y65175452D01*
X83922152Y65117384D01*
X84572595Y65116816D01*
X85173743Y65365206D01*
X85634078Y65824737D01*
X85693192Y65967100D01*
X89306483Y65967100D01*
X89364306Y65827157D01*
X89823837Y65366822D01*
X90424552Y65117384D01*
X91074995Y65116816D01*
X91676143Y65365206D01*
X92136478Y65824737D01*
X92385916Y66425452D01*
X92386484Y67075895D01*
X92138094Y67677043D01*
X91678563Y68137378D01*
X91077848Y68386816D01*
X90427405Y68387384D01*
X89826257Y68138994D01*
X89365922Y67679463D01*
X89306808Y67537100D01*
X85693517Y67537100D01*
X85635694Y67677043D01*
X85176163Y68137378D01*
X84575448Y68386816D01*
X83925005Y68387384D01*
X83323857Y68138994D01*
X83097440Y67912972D01*
X83097440Y68200000D01*
X83053162Y68435317D01*
X82914090Y68651441D01*
X82885000Y68671317D01*
X82885000Y68849995D01*
X82885001Y68850000D01*
X82817633Y69188675D01*
X82726016Y69325790D01*
X82625790Y69475790D01*
X82625787Y69475792D01*
X82025790Y70075790D01*
X81996490Y70095368D01*
X83275873Y70095368D01*
X83374536Y69828513D01*
X83984261Y69601992D01*
X84634260Y69626044D01*
X85123064Y69828513D01*
X85221727Y70095368D01*
X89702073Y70095368D01*
X89800736Y69828513D01*
X90410461Y69601992D01*
X91060460Y69626044D01*
X91549264Y69828513D01*
X91647927Y70095368D01*
X90675000Y71068295D01*
X89702073Y70095368D01*
X85221727Y70095368D01*
X84248800Y71068295D01*
X83275873Y70095368D01*
X81996490Y70095368D01*
X81937174Y70135001D01*
X81738675Y70267633D01*
X81682484Y70278810D01*
X81400000Y70335001D01*
X81399995Y70335000D01*
X74489888Y70335000D01*
X74594387Y70373636D01*
X74820908Y70983361D01*
X74801331Y71512439D01*
X82602892Y71512439D01*
X82626944Y70862440D01*
X82829413Y70373636D01*
X83096268Y70274973D01*
X84069195Y71247900D01*
X84428405Y71247900D01*
X85401332Y70274973D01*
X85668187Y70373636D01*
X85894708Y70983361D01*
X85875131Y71512439D01*
X89029092Y71512439D01*
X89053144Y70862440D01*
X89255613Y70373636D01*
X89522468Y70274973D01*
X90495395Y71247900D01*
X90854605Y71247900D01*
X91827532Y70274973D01*
X92094387Y70373636D01*
X92320908Y70983361D01*
X92296856Y71633360D01*
X92094387Y72122164D01*
X91827532Y72220827D01*
X90854605Y71247900D01*
X90495395Y71247900D01*
X89522468Y72220827D01*
X89255613Y72122164D01*
X89029092Y71512439D01*
X85875131Y71512439D01*
X85870656Y71633360D01*
X85668187Y72122164D01*
X85401332Y72220827D01*
X84428405Y71247900D01*
X84069195Y71247900D01*
X83096268Y72220827D01*
X82829413Y72122164D01*
X82602892Y71512439D01*
X74801331Y71512439D01*
X74796856Y71633360D01*
X74594387Y72122164D01*
X74327532Y72220827D01*
X73354605Y71247900D01*
X73368748Y71233757D01*
X73189143Y71054152D01*
X73175000Y71068295D01*
X73160858Y71054152D01*
X72981253Y71233757D01*
X72995395Y71247900D01*
X72022468Y72220827D01*
X71755613Y72122164D01*
X71529092Y71512439D01*
X71553144Y70862440D01*
X71755613Y70373636D01*
X71860112Y70335000D01*
X68063688Y70335000D01*
X68168187Y70373636D01*
X68394708Y70983361D01*
X68370656Y71633360D01*
X68168187Y72122164D01*
X67901332Y72220827D01*
X66928405Y71247900D01*
X66942548Y71233757D01*
X66762943Y71054152D01*
X66748800Y71068295D01*
X65957279Y70276774D01*
X65911325Y70267633D01*
X65624210Y70075790D01*
X65624208Y70075787D01*
X65050000Y69501579D01*
X64675790Y69875790D01*
X64388675Y70067633D01*
X64332484Y70078810D01*
X64050000Y70135001D01*
X64049995Y70135000D01*
X60550005Y70135000D01*
X60550000Y70135001D01*
X60549995Y70135000D01*
X56416120Y70135000D01*
X56441814Y70160694D01*
X56327534Y70274974D01*
X56594387Y70373636D01*
X56820908Y70983361D01*
X56801331Y71512439D01*
X65102892Y71512439D01*
X65126944Y70862440D01*
X65329413Y70373636D01*
X65596268Y70274973D01*
X66569195Y71247900D01*
X65596268Y72220827D01*
X65329413Y72122164D01*
X65102892Y71512439D01*
X56801331Y71512439D01*
X56796856Y71633360D01*
X56594387Y72122164D01*
X56327532Y72220827D01*
X55354605Y71247900D01*
X55368748Y71233757D01*
X55189143Y71054152D01*
X55175000Y71068295D01*
X55160858Y71054152D01*
X54981253Y71233757D01*
X54995395Y71247900D01*
X54022468Y72220827D01*
X53755613Y72122164D01*
X53529092Y71512439D01*
X53553144Y70862440D01*
X53755613Y70373636D01*
X54022466Y70274974D01*
X53908186Y70160694D01*
X53933880Y70135000D01*
X49989920Y70135000D01*
X50015614Y70160694D01*
X49901334Y70274974D01*
X50168187Y70373636D01*
X50394708Y70983361D01*
X50370656Y71633360D01*
X50168187Y72122164D01*
X49901332Y72220827D01*
X48928405Y71247900D01*
X48942548Y71233757D01*
X48762943Y71054152D01*
X48748800Y71068295D01*
X48734658Y71054152D01*
X48555053Y71233757D01*
X48569195Y71247900D01*
X47596268Y72220827D01*
X47329413Y72122164D01*
X47102892Y71512439D01*
X47126944Y70862440D01*
X47329413Y70373636D01*
X47596266Y70274974D01*
X47481986Y70160694D01*
X47507680Y70135000D01*
X45400005Y70135000D01*
X45400000Y70135001D01*
X45399995Y70135000D01*
X39416120Y70135000D01*
X39441814Y70160694D01*
X39327534Y70274974D01*
X39594387Y70373636D01*
X39820908Y70983361D01*
X39796856Y71633360D01*
X39594387Y72122164D01*
X39327532Y72220827D01*
X38354605Y71247900D01*
X38368748Y71233757D01*
X38189143Y71054152D01*
X38175000Y71068295D01*
X38160858Y71054152D01*
X37981253Y71233757D01*
X37995395Y71247900D01*
X37022468Y72220827D01*
X36755613Y72122164D01*
X36529092Y71512439D01*
X36553144Y70862440D01*
X36755613Y70373636D01*
X37022466Y70274974D01*
X36908186Y70160694D01*
X36933880Y70135000D01*
X32989920Y70135000D01*
X33015614Y70160694D01*
X32901334Y70274974D01*
X33168187Y70373636D01*
X33394708Y70983361D01*
X33370656Y71633360D01*
X33168187Y72122164D01*
X32901332Y72220827D01*
X31928405Y71247900D01*
X31942548Y71233757D01*
X31762943Y71054152D01*
X31748800Y71068295D01*
X31734658Y71054152D01*
X31555053Y71233757D01*
X31569195Y71247900D01*
X30596268Y72220827D01*
X30329413Y72122164D01*
X30102892Y71512439D01*
X30126944Y70862440D01*
X30329413Y70373636D01*
X30596266Y70274974D01*
X30481986Y70160694D01*
X30507680Y70135000D01*
X30500005Y70135000D01*
X30500000Y70135001D01*
X30217516Y70078810D01*
X30161325Y70067633D01*
X29874210Y69875790D01*
X29874208Y69875787D01*
X27824210Y67825790D01*
X27632367Y67538675D01*
X27632367Y67538674D01*
X27564999Y67200000D01*
X27565000Y67199995D01*
X27565000Y60916579D01*
X27091911Y60443490D01*
X27071856Y60985460D01*
X26869387Y61474264D01*
X26602532Y61572927D01*
X25629605Y60600000D01*
X25643748Y60585857D01*
X25464143Y60406252D01*
X25450000Y60420395D01*
X24477073Y59447468D01*
X24575736Y59180613D01*
X25185461Y58954092D01*
X25188551Y58954206D01*
X25015206Y58536745D01*
X25015169Y58494360D01*
X24914090Y58651441D01*
X24701890Y58796431D01*
X24450000Y58847440D01*
X23550000Y58847440D01*
X23314683Y58803162D01*
X23098559Y58664090D01*
X22953569Y58451890D01*
X22902560Y58200000D01*
X22902560Y57577362D01*
X22735198Y57410000D01*
X17000000Y57410000D01*
X16709161Y57352148D01*
X16462599Y57187401D01*
X16160000Y56884802D01*
X16160000Y56964250D01*
X16001250Y57123000D01*
X15277000Y57123000D01*
X15277000Y57103000D01*
X15023000Y57103000D01*
X15023000Y57123000D01*
X14601250Y57123000D01*
X14501250Y57223000D01*
X13777000Y57223000D01*
X13777000Y56273750D01*
X13935750Y56115000D01*
X14151310Y56115000D01*
X14161858Y56119369D01*
X14127560Y55950000D01*
X14127560Y54750000D01*
X14171838Y54514683D01*
X14310910Y54298559D01*
X14390000Y54244519D01*
X14390000Y53645558D01*
X14164683Y53603162D01*
X13948559Y53464090D01*
X13803569Y53251890D01*
X13752560Y53000000D01*
X13752560Y52554139D01*
X11224210Y50025790D01*
X11032367Y49738675D01*
X11032367Y49738674D01*
X10964999Y49400000D01*
X10965000Y49399995D01*
X10965000Y48100005D01*
X10964999Y48100000D01*
X10965000Y48099995D01*
X10965000Y43921192D01*
X10798559Y43814090D01*
X10778683Y43785000D01*
X10600005Y43785000D01*
X10600000Y43785001D01*
X10349534Y43735179D01*
X10261325Y43717633D01*
X9974210Y43525790D01*
X9974208Y43525787D01*
X6723841Y40275420D01*
X6703162Y40385317D01*
X6564090Y40601441D01*
X6351890Y40746431D01*
X6100000Y40797440D01*
X4100000Y40797440D01*
X3864683Y40753162D01*
X3648559Y40614090D01*
X3503569Y40401890D01*
X3452560Y40150000D01*
X3452560Y38150000D01*
X3496838Y37914683D01*
X3635910Y37698559D01*
X3778561Y37601090D01*
X3714722Y37537363D01*
X3465284Y36936648D01*
X3464716Y36286205D01*
X3482233Y36243812D01*
X1674210Y34435790D01*
X1482367Y34148675D01*
X1479696Y34135245D01*
X1414999Y33810000D01*
X710000Y33810000D01*
X710000Y60276205D01*
X3314716Y60276205D01*
X3563106Y59675057D01*
X4022637Y59214722D01*
X4623352Y58965284D01*
X5273795Y58964716D01*
X5874943Y59213106D01*
X6335278Y59672637D01*
X6584716Y60273352D01*
X6584752Y60315000D01*
X7485025Y60315000D01*
X7648110Y60203569D01*
X7900000Y60152560D01*
X9200000Y60152560D01*
X9435317Y60196838D01*
X9651441Y60335910D01*
X9796431Y60548110D01*
X9799081Y60561197D01*
X9935910Y60348559D01*
X10148110Y60203569D01*
X10400000Y60152560D01*
X10887282Y60152560D01*
X10967259Y60072583D01*
X10952560Y60000000D01*
X10952560Y58800000D01*
X10996838Y58564683D01*
X11135910Y58348559D01*
X11205711Y58300866D01*
X11148559Y58264090D01*
X11003569Y58051890D01*
X10952560Y57800000D01*
X10952560Y56600000D01*
X10996838Y56364683D01*
X11135910Y56148559D01*
X11348110Y56003569D01*
X11600000Y55952560D01*
X12500000Y55952560D01*
X12735317Y55996838D01*
X12951441Y56135910D01*
X12983816Y56183293D01*
X13148690Y56115000D01*
X13364250Y56115000D01*
X13523000Y56273750D01*
X13523000Y57223000D01*
X13503000Y57223000D01*
X13503000Y57477000D01*
X13523000Y57477000D01*
X13523000Y57497000D01*
X13777000Y57497000D01*
X13777000Y57477000D01*
X14198750Y57477000D01*
X14298750Y57377000D01*
X15023000Y57377000D01*
X15023000Y57397000D01*
X15277000Y57397000D01*
X15277000Y57377000D01*
X16001250Y57377000D01*
X16139250Y57515000D01*
X17350000Y57515000D01*
X17650407Y57574755D01*
X17905079Y57744921D01*
X18430079Y58269921D01*
X18543722Y58440000D01*
X18652002Y58440000D01*
X18652002Y58584248D01*
X18796250Y58440000D01*
X18876309Y58440000D01*
X19109698Y58536673D01*
X19288327Y58715301D01*
X19385000Y58948690D01*
X19385000Y59514250D01*
X19226250Y59673000D01*
X18747440Y59673000D01*
X18747440Y59927000D01*
X19226250Y59927000D01*
X19385000Y60085750D01*
X19385000Y60423847D01*
X19990798Y60415067D01*
X20345330Y60517110D01*
X20525447Y60693447D01*
X20641545Y60864539D01*
X23804092Y60864539D01*
X23828144Y60214540D01*
X24030613Y59725736D01*
X24297468Y59627073D01*
X25270395Y60600000D01*
X24297468Y61572927D01*
X24030613Y61474264D01*
X23804092Y60864539D01*
X20641545Y60864539D01*
X21244111Y61752532D01*
X24477073Y61752532D01*
X25450000Y60779605D01*
X26422927Y61752532D01*
X26324264Y62019387D01*
X25714539Y62245908D01*
X25064540Y62221856D01*
X24575736Y62019387D01*
X24477073Y61752532D01*
X21244111Y61752532D01*
X21475447Y62093447D01*
X21585000Y62450000D01*
X21585000Y65650000D01*
X21538328Y65888946D01*
X21399013Y66099013D01*
X20749013Y66749013D01*
X20547051Y66884971D01*
X20300000Y66935000D01*
X14350000Y66935000D01*
X14177486Y66911117D01*
X13953319Y66795852D01*
X13203319Y66195852D01*
X13015029Y65947051D01*
X12965000Y65700000D01*
X12965000Y61350000D01*
X13024574Y61081468D01*
X13297120Y60497440D01*
X13275000Y60497440D01*
X13039683Y60453162D01*
X12985442Y60418259D01*
X12964090Y60451441D01*
X12751890Y60596431D01*
X12627425Y60621636D01*
X12605079Y60655079D01*
X12347440Y60912718D01*
X12347440Y61400000D01*
X12303162Y61635317D01*
X12164090Y61851441D01*
X11951890Y61996431D01*
X11700000Y62047440D01*
X10400000Y62047440D01*
X10164683Y62003162D01*
X9948559Y61864090D01*
X9803569Y61651890D01*
X9800919Y61638803D01*
X9664090Y61851441D01*
X9451890Y61996431D01*
X9200000Y62047440D01*
X7900000Y62047440D01*
X7664683Y62003162D01*
X7481054Y61885000D01*
X5977466Y61885000D01*
X5877363Y61985278D01*
X5276648Y62234716D01*
X4626205Y62235284D01*
X4025057Y61986894D01*
X3564722Y61527363D01*
X3315284Y60926648D01*
X3314716Y60276205D01*
X710000Y60276205D01*
X710000Y75860000D01*
X3579286Y75860000D01*
X3579286Y69490000D01*
X24920715Y69490000D01*
X24920715Y72400432D01*
X30775873Y72400432D01*
X31748800Y71427505D01*
X32721727Y72400432D01*
X37202073Y72400432D01*
X38175000Y71427505D01*
X39147927Y72400432D01*
X47775873Y72400432D01*
X48748800Y71427505D01*
X49721727Y72400432D01*
X54202073Y72400432D01*
X55175000Y71427505D01*
X56147927Y72400432D01*
X65775873Y72400432D01*
X66748800Y71427505D01*
X67721727Y72400432D01*
X72202073Y72400432D01*
X73175000Y71427505D01*
X74147927Y72400432D01*
X83275873Y72400432D01*
X84248800Y71427505D01*
X85221727Y72400432D01*
X89702073Y72400432D01*
X90675000Y71427505D01*
X91647927Y72400432D01*
X91549264Y72667287D01*
X90939539Y72893808D01*
X90289540Y72869756D01*
X89800736Y72667287D01*
X89702073Y72400432D01*
X85221727Y72400432D01*
X85123064Y72667287D01*
X84513339Y72893808D01*
X83863340Y72869756D01*
X83374536Y72667287D01*
X83275873Y72400432D01*
X74147927Y72400432D01*
X74049264Y72667287D01*
X73439539Y72893808D01*
X72789540Y72869756D01*
X72300736Y72667287D01*
X72202073Y72400432D01*
X67721727Y72400432D01*
X67623064Y72667287D01*
X67013339Y72893808D01*
X66363340Y72869756D01*
X65874536Y72667287D01*
X65775873Y72400432D01*
X56147927Y72400432D01*
X56049264Y72667287D01*
X55439539Y72893808D01*
X54789540Y72869756D01*
X54300736Y72667287D01*
X54202073Y72400432D01*
X49721727Y72400432D01*
X49623064Y72667287D01*
X49013339Y72893808D01*
X48363340Y72869756D01*
X47874536Y72667287D01*
X47775873Y72400432D01*
X39147927Y72400432D01*
X39049264Y72667287D01*
X38439539Y72893808D01*
X37789540Y72869756D01*
X37300736Y72667287D01*
X37202073Y72400432D01*
X32721727Y72400432D01*
X32623064Y72667287D01*
X32013339Y72893808D01*
X31363340Y72869756D01*
X30874536Y72667287D01*
X30775873Y72400432D01*
X24920715Y72400432D01*
X24920715Y75860000D01*
X3579286Y75860000D01*
X710000Y75860000D01*
X710000Y76790000D01*
X94290000Y76790000D01*
X94290000Y710000D01*
X94290000Y710000D01*
G37*
X94290000Y710000D02*
X710000Y710000D01*
X710000Y33810000D01*
X1414999Y33810000D01*
X1415000Y33809995D01*
X1415000Y16400005D01*
X1414999Y16400000D01*
X1446826Y16240000D01*
X1482367Y16061325D01*
X1626963Y15844921D01*
X1674210Y15774210D01*
X13665000Y3783421D01*
X13665000Y2900005D01*
X13664999Y2900000D01*
X13707766Y2685000D01*
X13732367Y2561325D01*
X13876963Y2344921D01*
X13924210Y2274210D01*
X15024208Y1174213D01*
X15024210Y1174210D01*
X15311325Y982367D01*
X15367516Y971190D01*
X15650000Y914999D01*
X15650005Y915000D01*
X27199995Y915000D01*
X27200000Y914999D01*
X27482484Y971190D01*
X27538675Y982367D01*
X27825790Y1174210D01*
X28725787Y2074208D01*
X28725790Y2074210D01*
X28917633Y2361325D01*
X28934355Y2445390D01*
X28985001Y2700000D01*
X28985000Y2700005D01*
X28985000Y4597468D01*
X34257073Y4597468D01*
X34355736Y4330613D01*
X34965461Y4104092D01*
X35615460Y4128144D01*
X36104264Y4330613D01*
X36202927Y4597468D01*
X35230000Y5570395D01*
X34257073Y4597468D01*
X28985000Y4597468D01*
X28985000Y6014539D01*
X33584092Y6014539D01*
X33608144Y5364540D01*
X33810613Y4875736D01*
X34077468Y4777073D01*
X35050395Y5750000D01*
X34077468Y6722927D01*
X33810613Y6624264D01*
X33584092Y6014539D01*
X28985000Y6014539D01*
X28985000Y8833420D01*
X29353771Y9202191D01*
X29563255Y9115206D01*
X30034677Y9114794D01*
X30470372Y9294820D01*
X30804009Y9627875D01*
X30938376Y9951466D01*
X32552560Y8337282D01*
X32552560Y7850000D01*
X32596838Y7614683D01*
X32735910Y7398559D01*
X32948110Y7253569D01*
X33200000Y7202560D01*
X34100000Y7202560D01*
X34335317Y7246838D01*
X34551441Y7385910D01*
X34696431Y7598110D01*
X34726409Y7746147D01*
X34811673Y7540302D01*
X34975280Y7376694D01*
X34844540Y7371856D01*
X34355736Y7169387D01*
X34257073Y6902532D01*
X35230000Y5929605D01*
X36202927Y6902532D01*
X36104264Y7169387D01*
X35777002Y7290969D01*
X35777002Y7423748D01*
X35935750Y7265000D01*
X36076310Y7265000D01*
X36309699Y7361673D01*
X36488327Y7540302D01*
X36585000Y7773691D01*
X36585000Y8264250D01*
X36426250Y8423000D01*
X35777000Y8423000D01*
X35777000Y8403000D01*
X35523000Y8403000D01*
X35523000Y8423000D01*
X35503000Y8423000D01*
X35503000Y8677000D01*
X35523000Y8677000D01*
X35523000Y8697000D01*
X35777000Y8697000D01*
X35777000Y8677000D01*
X36426250Y8677000D01*
X36469546Y8720296D01*
X36652560Y8537282D01*
X36652560Y7950000D01*
X36696838Y7714683D01*
X36835910Y7498559D01*
X37048110Y7353569D01*
X37263760Y7309899D01*
X36845057Y7136894D01*
X36417438Y6710022D01*
X36382532Y6722927D01*
X35409605Y5750000D01*
X36382532Y4777073D01*
X36417938Y4790164D01*
X36842637Y4364722D01*
X37443352Y4115284D01*
X38093795Y4114716D01*
X38694943Y4363106D01*
X39155278Y4822637D01*
X39214392Y4965000D01*
X41200000Y4965000D01*
X41500407Y5024755D01*
X41755079Y5194921D01*
X41962718Y5402560D01*
X42550000Y5402560D01*
X42785317Y5446838D01*
X43001441Y5585910D01*
X43146431Y5798110D01*
X43197440Y6050000D01*
X43197440Y6965000D01*
X44496700Y6965000D01*
X44797107Y7024755D01*
X45051779Y7194921D01*
X45605658Y7748800D01*
X47217100Y7748800D01*
X47276855Y7448393D01*
X47447021Y7193721D01*
X47701693Y7023555D01*
X48002100Y6963800D01*
X48302507Y7023555D01*
X48557179Y7193721D01*
X48633379Y7269921D01*
X48803545Y7524593D01*
X48863300Y7825000D01*
X48803545Y8125406D01*
X48633379Y8380079D01*
X48378706Y8550245D01*
X48078300Y8610000D01*
X47777893Y8550245D01*
X47523221Y8380079D01*
X47447021Y8303879D01*
X47276855Y8049207D01*
X47217100Y7748800D01*
X45605658Y7748800D01*
X46032310Y8175452D01*
X46172152Y8117384D01*
X46822595Y8116816D01*
X47423743Y8365206D01*
X47884078Y8824737D01*
X47943192Y8967100D01*
X51556483Y8967100D01*
X51614306Y8827157D01*
X52073837Y8366822D01*
X52674552Y8117384D01*
X53324995Y8116816D01*
X53926143Y8365206D01*
X54386478Y8824737D01*
X54635916Y9425452D01*
X54636484Y10075895D01*
X54388094Y10677043D01*
X53928563Y11137378D01*
X53327848Y11386816D01*
X52677405Y11387384D01*
X52076257Y11138994D01*
X51615922Y10679463D01*
X51556808Y10537100D01*
X47943517Y10537100D01*
X47885694Y10677043D01*
X47426163Y11137378D01*
X46825448Y11386816D01*
X46175005Y11387384D01*
X45573857Y11138994D01*
X45113522Y10679463D01*
X44864084Y10078748D01*
X44863516Y9428305D01*
X44922382Y9285840D01*
X44171542Y8535000D01*
X43197440Y8535000D01*
X43197440Y9450000D01*
X43153162Y9685317D01*
X43014090Y9901441D01*
X42962443Y9936730D01*
X43204009Y10177875D01*
X43384794Y10613255D01*
X43384943Y10783363D01*
X44066579Y11465000D01*
X54493337Y11465000D01*
X54613255Y11415206D01*
X55084677Y11414794D01*
X55415000Y11551281D01*
X55415000Y7050000D01*
X55474755Y6749593D01*
X55644921Y6494921D01*
X58194921Y3944921D01*
X58449594Y3774755D01*
X58750000Y3714999D01*
X58750005Y3715000D01*
X61350000Y3715000D01*
X61650407Y3774755D01*
X61905079Y3944921D01*
X62788497Y4828339D01*
X63057491Y4881845D01*
X63555481Y5214591D01*
X63710000Y5445845D01*
X63864519Y5214591D01*
X64362509Y4881845D01*
X64949928Y4765000D01*
X65010072Y4765000D01*
X65597491Y4881845D01*
X66095481Y5214591D01*
X66428227Y5712581D01*
X66545072Y6300000D01*
X66428227Y6887419D01*
X66095481Y7385409D01*
X65817081Y7571430D01*
X65880554Y7759841D01*
X64980000Y8660395D01*
X64965858Y8646252D01*
X64786253Y8825857D01*
X64800395Y8840000D01*
X64786253Y8854142D01*
X64965858Y9033747D01*
X64980000Y9019605D01*
X64994143Y9033747D01*
X65173748Y8854142D01*
X65159605Y8840000D01*
X66060159Y7939446D01*
X66316643Y8025852D01*
X66526458Y8599336D01*
X66500839Y9209460D01*
X66316643Y9654148D01*
X66060161Y9740553D01*
X66075190Y9755582D01*
X66413255Y9615206D01*
X66884677Y9614794D01*
X67320372Y9794820D01*
X67654009Y10127875D01*
X67834794Y10563255D01*
X67834855Y10633276D01*
X68166579Y10965000D01*
X81326477Y10965000D01*
X81614436Y10676539D01*
X82123298Y10465241D01*
X82674285Y10464760D01*
X83183515Y10675169D01*
X83473852Y10965000D01*
X84783420Y10965000D01*
X85899208Y9849213D01*
X85899210Y9849210D01*
X85924210Y9824211D01*
X86211325Y9632367D01*
X86550000Y9565000D01*
X86675682Y9590000D01*
X89574995Y9590000D01*
X89575000Y9589999D01*
X89892535Y9653162D01*
X89913675Y9657367D01*
X90200790Y9849210D01*
X90775787Y10424208D01*
X90775790Y10424210D01*
X90967633Y10711325D01*
X90992234Y10835000D01*
X91035001Y11050000D01*
X91035000Y11050005D01*
X91035000Y15762486D01*
X91067633Y15811325D01*
X91135000Y16150000D01*
X91135000Y46789995D01*
X91135001Y46790000D01*
X91067633Y47128675D01*
X91051949Y47152148D01*
X90875790Y47415790D01*
X90875787Y47415792D01*
X89882967Y48408613D01*
X89925000Y48619928D01*
X89925000Y48680072D01*
X89808155Y49267491D01*
X89475409Y49765481D01*
X89152435Y49981285D01*
X89015790Y50185790D01*
X89015787Y50185792D01*
X88225790Y50975790D01*
X88188948Y51000407D01*
X87938675Y51167633D01*
X87882484Y51178810D01*
X87600000Y51235001D01*
X87599995Y51235000D01*
X82850000Y51235000D01*
X82511325Y51167633D01*
X82224210Y50975790D01*
X82224208Y50975787D01*
X81345860Y50097440D01*
X81150000Y50097440D01*
X80914683Y50053162D01*
X80851432Y50012461D01*
X80676309Y50085000D01*
X80485750Y50085000D01*
X80327000Y49926250D01*
X80327000Y49127000D01*
X80347000Y49127000D01*
X80347000Y48873000D01*
X80327000Y48873000D01*
X80327000Y48073750D01*
X80485750Y47915000D01*
X80676309Y47915000D01*
X80849541Y47986755D01*
X80898110Y47953569D01*
X81150000Y47902560D01*
X81850000Y47902560D01*
X82085317Y47946838D01*
X82301441Y48085910D01*
X82446431Y48298110D01*
X82497440Y48550000D01*
X82497440Y48745860D01*
X83216579Y49465000D01*
X84315000Y49465000D01*
X84315000Y48935750D01*
X84473750Y48777000D01*
X85723000Y48777000D01*
X85723000Y48797000D01*
X85977000Y48797000D01*
X85977000Y48777000D01*
X85997000Y48777000D01*
X85997000Y48523000D01*
X85977000Y48523000D01*
X85977000Y48503000D01*
X85723000Y48503000D01*
X85723000Y48523000D01*
X84473750Y48523000D01*
X84315000Y48364250D01*
X84315000Y47623691D01*
X84411673Y47390302D01*
X84590301Y47211673D01*
X84719583Y47158122D01*
X84543771Y46895000D01*
X81947440Y46895000D01*
X81947440Y46950000D01*
X81903162Y47185317D01*
X81764090Y47401441D01*
X81551890Y47546431D01*
X81300000Y47597440D01*
X80400000Y47597440D01*
X80164683Y47553162D01*
X79948559Y47414090D01*
X79803569Y47201890D01*
X79752560Y46950000D01*
X79752560Y46050000D01*
X79796838Y45814683D01*
X79935910Y45598559D01*
X80148110Y45453569D01*
X80400000Y45402560D01*
X80860117Y45402560D01*
X80762599Y45337401D01*
X78935200Y43510002D01*
X52595750Y43510002D01*
X51953192Y44152560D01*
X52250000Y44152560D01*
X52485317Y44196838D01*
X52701441Y44335910D01*
X52749134Y44405711D01*
X52785910Y44348559D01*
X52998110Y44203569D01*
X53250000Y44152560D01*
X54450000Y44152560D01*
X54685317Y44196838D01*
X54787789Y44262777D01*
X54796838Y44214683D01*
X54935910Y43998559D01*
X55148110Y43853569D01*
X55400000Y43802560D01*
X56100000Y43802560D01*
X56205705Y43822450D01*
X56223691Y43815000D01*
X56414250Y43815000D01*
X56573000Y43973750D01*
X56573000Y44017463D01*
X56696431Y44198110D01*
X56699081Y44211197D01*
X56827000Y44012406D01*
X56827000Y43973750D01*
X56985750Y43815000D01*
X57176309Y43815000D01*
X57196753Y43823468D01*
X57300000Y43802560D01*
X58000000Y43802560D01*
X58235317Y43846838D01*
X58451441Y43985910D01*
X58573808Y44165000D01*
X59650000Y44165000D01*
X59950407Y44224755D01*
X60205079Y44394921D01*
X63342358Y47532200D01*
X63265301Y47346627D01*
X63264699Y46656401D01*
X63528281Y46018485D01*
X64015918Y45529996D01*
X64653373Y45265301D01*
X65343599Y45264699D01*
X65981515Y45528281D01*
X66470004Y46015918D01*
X66734699Y46653373D01*
X66734701Y46656401D01*
X68264699Y46656401D01*
X68528281Y46018485D01*
X69015918Y45529996D01*
X69653373Y45265301D01*
X70343599Y45264699D01*
X70981515Y45528281D01*
X71470004Y46015918D01*
X71734699Y46653373D01*
X71735301Y47343599D01*
X71471719Y47981515D01*
X70984082Y48470004D01*
X70395874Y48714250D01*
X79215000Y48714250D01*
X79215000Y48423690D01*
X79311673Y48190301D01*
X79490302Y48011673D01*
X79723691Y47915000D01*
X79914250Y47915000D01*
X80073000Y48073750D01*
X80073000Y48873000D01*
X79373750Y48873000D01*
X79215000Y48714250D01*
X70395874Y48714250D01*
X70346627Y48734699D01*
X69656401Y48735301D01*
X69018485Y48471719D01*
X68529996Y47984082D01*
X68265301Y47346627D01*
X68264699Y46656401D01*
X66734701Y46656401D01*
X66735301Y47343599D01*
X66471719Y47981515D01*
X65984082Y48470004D01*
X65346627Y48734699D01*
X64656401Y48735301D01*
X64467341Y48657183D01*
X64975158Y49165000D01*
X69350000Y49165000D01*
X69650407Y49224755D01*
X69905079Y49394921D01*
X70086468Y49576310D01*
X79215000Y49576310D01*
X79215000Y49285750D01*
X79373750Y49127000D01*
X80073000Y49127000D01*
X80073000Y49926250D01*
X79914250Y50085000D01*
X79723691Y50085000D01*
X79490302Y49988327D01*
X79311673Y49809699D01*
X79215000Y49576310D01*
X70086468Y49576310D01*
X70605079Y50094921D01*
X70775245Y50349594D01*
X70835000Y50650000D01*
X70835000Y55325000D01*
X71602560Y55325000D01*
X71602560Y52675000D01*
X71646838Y52439683D01*
X71785910Y52223559D01*
X71998110Y52078569D01*
X72250000Y52027560D01*
X73800000Y52027560D01*
X74035317Y52071838D01*
X74251441Y52210910D01*
X74396431Y52423110D01*
X74447440Y52675000D01*
X74447440Y55325000D01*
X74403162Y55560317D01*
X74264090Y55776441D01*
X74051890Y55921431D01*
X73800000Y55972440D01*
X72250000Y55972440D01*
X72014683Y55928162D01*
X71798559Y55789090D01*
X71653569Y55576890D01*
X71602560Y55325000D01*
X70835000Y55325000D01*
X70835000Y56587370D01*
X70885317Y56596838D01*
X71101441Y56735910D01*
X71149134Y56805711D01*
X71185910Y56748559D01*
X71398110Y56603569D01*
X71650000Y56552560D01*
X72850000Y56552560D01*
X73085317Y56596838D01*
X73301441Y56735910D01*
X73446431Y56948110D01*
X73497440Y57200000D01*
X73497440Y58100000D01*
X73453162Y58335317D01*
X73314090Y58551441D01*
X73101890Y58696431D01*
X73035000Y58709977D01*
X73035000Y59174842D01*
X74005079Y60144921D01*
X74175245Y60399593D01*
X74235000Y60700000D01*
X74235000Y61250000D01*
X74210217Y61374593D01*
X74175245Y61550407D01*
X74005079Y61805079D01*
X72495158Y63315000D01*
X76750000Y63315000D01*
X77050407Y63374755D01*
X77305079Y63544921D01*
X79302560Y65542403D01*
X79302560Y64800000D01*
X79346838Y64564683D01*
X79485910Y64348559D01*
X79698110Y64203569D01*
X79950000Y64152560D01*
X80850000Y64152560D01*
X81085317Y64196838D01*
X81199978Y64270620D01*
X81298110Y64203569D01*
X81550000Y64152560D01*
X82450000Y64152560D01*
X82685317Y64196838D01*
X82901441Y64335910D01*
X83046431Y64548110D01*
X83066830Y64648841D01*
X83197107Y64674755D01*
X83451779Y64844921D01*
X83782310Y65175452D01*
X83922152Y65117384D01*
X84572595Y65116816D01*
X85173743Y65365206D01*
X85634078Y65824737D01*
X85693192Y65967100D01*
X89306483Y65967100D01*
X89364306Y65827157D01*
X89823837Y65366822D01*
X90424552Y65117384D01*
X91074995Y65116816D01*
X91676143Y65365206D01*
X92136478Y65824737D01*
X92385916Y66425452D01*
X92386484Y67075895D01*
X92138094Y67677043D01*
X91678563Y68137378D01*
X91077848Y68386816D01*
X90427405Y68387384D01*
X89826257Y68138994D01*
X89365922Y67679463D01*
X89306808Y67537100D01*
X85693517Y67537100D01*
X85635694Y67677043D01*
X85176163Y68137378D01*
X84575448Y68386816D01*
X83925005Y68387384D01*
X83323857Y68138994D01*
X83097440Y67912972D01*
X83097440Y68200000D01*
X83053162Y68435317D01*
X82914090Y68651441D01*
X82885000Y68671317D01*
X82885000Y68849995D01*
X82885001Y68850000D01*
X82817633Y69188675D01*
X82726016Y69325790D01*
X82625790Y69475790D01*
X82625787Y69475792D01*
X82025790Y70075790D01*
X81996490Y70095368D01*
X83275873Y70095368D01*
X83374536Y69828513D01*
X83984261Y69601992D01*
X84634260Y69626044D01*
X85123064Y69828513D01*
X85221727Y70095368D01*
X89702073Y70095368D01*
X89800736Y69828513D01*
X90410461Y69601992D01*
X91060460Y69626044D01*
X91549264Y69828513D01*
X91647927Y70095368D01*
X90675000Y71068295D01*
X89702073Y70095368D01*
X85221727Y70095368D01*
X84248800Y71068295D01*
X83275873Y70095368D01*
X81996490Y70095368D01*
X81937174Y70135001D01*
X81738675Y70267633D01*
X81682484Y70278810D01*
X81400000Y70335001D01*
X81399995Y70335000D01*
X74489888Y70335000D01*
X74594387Y70373636D01*
X74820908Y70983361D01*
X74801331Y71512439D01*
X82602892Y71512439D01*
X82626944Y70862440D01*
X82829413Y70373636D01*
X83096268Y70274973D01*
X84069195Y71247900D01*
X84428405Y71247900D01*
X85401332Y70274973D01*
X85668187Y70373636D01*
X85894708Y70983361D01*
X85875131Y71512439D01*
X89029092Y71512439D01*
X89053144Y70862440D01*
X89255613Y70373636D01*
X89522468Y70274973D01*
X90495395Y71247900D01*
X90854605Y71247900D01*
X91827532Y70274973D01*
X92094387Y70373636D01*
X92320908Y70983361D01*
X92296856Y71633360D01*
X92094387Y72122164D01*
X91827532Y72220827D01*
X90854605Y71247900D01*
X90495395Y71247900D01*
X89522468Y72220827D01*
X89255613Y72122164D01*
X89029092Y71512439D01*
X85875131Y71512439D01*
X85870656Y71633360D01*
X85668187Y72122164D01*
X85401332Y72220827D01*
X84428405Y71247900D01*
X84069195Y71247900D01*
X83096268Y72220827D01*
X82829413Y72122164D01*
X82602892Y71512439D01*
X74801331Y71512439D01*
X74796856Y71633360D01*
X74594387Y72122164D01*
X74327532Y72220827D01*
X73354605Y71247900D01*
X73368748Y71233757D01*
X73189143Y71054152D01*
X73175000Y71068295D01*
X73160858Y71054152D01*
X72981253Y71233757D01*
X72995395Y71247900D01*
X72022468Y72220827D01*
X71755613Y72122164D01*
X71529092Y71512439D01*
X71553144Y70862440D01*
X71755613Y70373636D01*
X71860112Y70335000D01*
X68063688Y70335000D01*
X68168187Y70373636D01*
X68394708Y70983361D01*
X68370656Y71633360D01*
X68168187Y72122164D01*
X67901332Y72220827D01*
X66928405Y71247900D01*
X66942548Y71233757D01*
X66762943Y71054152D01*
X66748800Y71068295D01*
X65957279Y70276774D01*
X65911325Y70267633D01*
X65624210Y70075790D01*
X65624208Y70075787D01*
X65050000Y69501579D01*
X64675790Y69875790D01*
X64388675Y70067633D01*
X64332484Y70078810D01*
X64050000Y70135001D01*
X64049995Y70135000D01*
X60550005Y70135000D01*
X60550000Y70135001D01*
X60549995Y70135000D01*
X56416120Y70135000D01*
X56441814Y70160694D01*
X56327534Y70274974D01*
X56594387Y70373636D01*
X56820908Y70983361D01*
X56801331Y71512439D01*
X65102892Y71512439D01*
X65126944Y70862440D01*
X65329413Y70373636D01*
X65596268Y70274973D01*
X66569195Y71247900D01*
X65596268Y72220827D01*
X65329413Y72122164D01*
X65102892Y71512439D01*
X56801331Y71512439D01*
X56796856Y71633360D01*
X56594387Y72122164D01*
X56327532Y72220827D01*
X55354605Y71247900D01*
X55368748Y71233757D01*
X55189143Y71054152D01*
X55175000Y71068295D01*
X55160858Y71054152D01*
X54981253Y71233757D01*
X54995395Y71247900D01*
X54022468Y72220827D01*
X53755613Y72122164D01*
X53529092Y71512439D01*
X53553144Y70862440D01*
X53755613Y70373636D01*
X54022466Y70274974D01*
X53908186Y70160694D01*
X53933880Y70135000D01*
X49989920Y70135000D01*
X50015614Y70160694D01*
X49901334Y70274974D01*
X50168187Y70373636D01*
X50394708Y70983361D01*
X50370656Y71633360D01*
X50168187Y72122164D01*
X49901332Y72220827D01*
X48928405Y71247900D01*
X48942548Y71233757D01*
X48762943Y71054152D01*
X48748800Y71068295D01*
X48734658Y71054152D01*
X48555053Y71233757D01*
X48569195Y71247900D01*
X47596268Y72220827D01*
X47329413Y72122164D01*
X47102892Y71512439D01*
X47126944Y70862440D01*
X47329413Y70373636D01*
X47596266Y70274974D01*
X47481986Y70160694D01*
X47507680Y70135000D01*
X45400005Y70135000D01*
X45400000Y70135001D01*
X45399995Y70135000D01*
X39416120Y70135000D01*
X39441814Y70160694D01*
X39327534Y70274974D01*
X39594387Y70373636D01*
X39820908Y70983361D01*
X39796856Y71633360D01*
X39594387Y72122164D01*
X39327532Y72220827D01*
X38354605Y71247900D01*
X38368748Y71233757D01*
X38189143Y71054152D01*
X38175000Y71068295D01*
X38160858Y71054152D01*
X37981253Y71233757D01*
X37995395Y71247900D01*
X37022468Y72220827D01*
X36755613Y72122164D01*
X36529092Y71512439D01*
X36553144Y70862440D01*
X36755613Y70373636D01*
X37022466Y70274974D01*
X36908186Y70160694D01*
X36933880Y70135000D01*
X32989920Y70135000D01*
X33015614Y70160694D01*
X32901334Y70274974D01*
X33168187Y70373636D01*
X33394708Y70983361D01*
X33370656Y71633360D01*
X33168187Y72122164D01*
X32901332Y72220827D01*
X31928405Y71247900D01*
X31942548Y71233757D01*
X31762943Y71054152D01*
X31748800Y71068295D01*
X31734658Y71054152D01*
X31555053Y71233757D01*
X31569195Y71247900D01*
X30596268Y72220827D01*
X30329413Y72122164D01*
X30102892Y71512439D01*
X30126944Y70862440D01*
X30329413Y70373636D01*
X30596266Y70274974D01*
X30481986Y70160694D01*
X30507680Y70135000D01*
X30500005Y70135000D01*
X30500000Y70135001D01*
X30217516Y70078810D01*
X30161325Y70067633D01*
X29874210Y69875790D01*
X29874208Y69875787D01*
X27824210Y67825790D01*
X27632367Y67538675D01*
X27632367Y67538674D01*
X27564999Y67200000D01*
X27565000Y67199995D01*
X27565000Y60916579D01*
X27091911Y60443490D01*
X27071856Y60985460D01*
X26869387Y61474264D01*
X26602532Y61572927D01*
X25629605Y60600000D01*
X25643748Y60585857D01*
X25464143Y60406252D01*
X25450000Y60420395D01*
X24477073Y59447468D01*
X24575736Y59180613D01*
X25185461Y58954092D01*
X25188551Y58954206D01*
X25015206Y58536745D01*
X25015169Y58494360D01*
X24914090Y58651441D01*
X24701890Y58796431D01*
X24450000Y58847440D01*
X23550000Y58847440D01*
X23314683Y58803162D01*
X23098559Y58664090D01*
X22953569Y58451890D01*
X22902560Y58200000D01*
X22902560Y57577362D01*
X22735198Y57410000D01*
X17000000Y57410000D01*
X16709161Y57352148D01*
X16462599Y57187401D01*
X16160000Y56884802D01*
X16160000Y56964250D01*
X16001250Y57123000D01*
X15277000Y57123000D01*
X15277000Y57103000D01*
X15023000Y57103000D01*
X15023000Y57123000D01*
X14601250Y57123000D01*
X14501250Y57223000D01*
X13777000Y57223000D01*
X13777000Y56273750D01*
X13935750Y56115000D01*
X14151310Y56115000D01*
X14161858Y56119369D01*
X14127560Y55950000D01*
X14127560Y54750000D01*
X14171838Y54514683D01*
X14310910Y54298559D01*
X14390000Y54244519D01*
X14390000Y53645558D01*
X14164683Y53603162D01*
X13948559Y53464090D01*
X13803569Y53251890D01*
X13752560Y53000000D01*
X13752560Y52554139D01*
X11224210Y50025790D01*
X11032367Y49738675D01*
X11032367Y49738674D01*
X10964999Y49400000D01*
X10965000Y49399995D01*
X10965000Y48100005D01*
X10964999Y48100000D01*
X10965000Y48099995D01*
X10965000Y43921192D01*
X10798559Y43814090D01*
X10778683Y43785000D01*
X10600005Y43785000D01*
X10600000Y43785001D01*
X10349534Y43735179D01*
X10261325Y43717633D01*
X9974210Y43525790D01*
X9974208Y43525787D01*
X6723841Y40275420D01*
X6703162Y40385317D01*
X6564090Y40601441D01*
X6351890Y40746431D01*
X6100000Y40797440D01*
X4100000Y40797440D01*
X3864683Y40753162D01*
X3648559Y40614090D01*
X3503569Y40401890D01*
X3452560Y40150000D01*
X3452560Y38150000D01*
X3496838Y37914683D01*
X3635910Y37698559D01*
X3778561Y37601090D01*
X3714722Y37537363D01*
X3465284Y36936648D01*
X3464716Y36286205D01*
X3482233Y36243812D01*
X1674210Y34435790D01*
X1482367Y34148675D01*
X1479696Y34135245D01*
X1414999Y33810000D01*
X710000Y33810000D01*
X710000Y60276205D01*
X3314716Y60276205D01*
X3563106Y59675057D01*
X4022637Y59214722D01*
X4623352Y58965284D01*
X5273795Y58964716D01*
X5874943Y59213106D01*
X6335278Y59672637D01*
X6584716Y60273352D01*
X6584752Y60315000D01*
X7485025Y60315000D01*
X7648110Y60203569D01*
X7900000Y60152560D01*
X9200000Y60152560D01*
X9435317Y60196838D01*
X9651441Y60335910D01*
X9796431Y60548110D01*
X9799081Y60561197D01*
X9935910Y60348559D01*
X10148110Y60203569D01*
X10400000Y60152560D01*
X10887282Y60152560D01*
X10967259Y60072583D01*
X10952560Y60000000D01*
X10952560Y58800000D01*
X10996838Y58564683D01*
X11135910Y58348559D01*
X11205711Y58300866D01*
X11148559Y58264090D01*
X11003569Y58051890D01*
X10952560Y57800000D01*
X10952560Y56600000D01*
X10996838Y56364683D01*
X11135910Y56148559D01*
X11348110Y56003569D01*
X11600000Y55952560D01*
X12500000Y55952560D01*
X12735317Y55996838D01*
X12951441Y56135910D01*
X12983816Y56183293D01*
X13148690Y56115000D01*
X13364250Y56115000D01*
X13523000Y56273750D01*
X13523000Y57223000D01*
X13503000Y57223000D01*
X13503000Y57477000D01*
X13523000Y57477000D01*
X13523000Y57497000D01*
X13777000Y57497000D01*
X13777000Y57477000D01*
X14198750Y57477000D01*
X14298750Y57377000D01*
X15023000Y57377000D01*
X15023000Y57397000D01*
X15277000Y57397000D01*
X15277000Y57377000D01*
X16001250Y57377000D01*
X16139250Y57515000D01*
X17350000Y57515000D01*
X17650407Y57574755D01*
X17905079Y57744921D01*
X18430079Y58269921D01*
X18543722Y58440000D01*
X18652002Y58440000D01*
X18652002Y58584248D01*
X18796250Y58440000D01*
X18876309Y58440000D01*
X19109698Y58536673D01*
X19288327Y58715301D01*
X19385000Y58948690D01*
X19385000Y59514250D01*
X19226250Y59673000D01*
X18747440Y59673000D01*
X18747440Y59927000D01*
X19226250Y59927000D01*
X19385000Y60085750D01*
X19385000Y60423847D01*
X19990798Y60415067D01*
X20345330Y60517110D01*
X20525447Y60693447D01*
X20641545Y60864539D01*
X23804092Y60864539D01*
X23828144Y60214540D01*
X24030613Y59725736D01*
X24297468Y59627073D01*
X25270395Y60600000D01*
X24297468Y61572927D01*
X24030613Y61474264D01*
X23804092Y60864539D01*
X20641545Y60864539D01*
X21244111Y61752532D01*
X24477073Y61752532D01*
X25450000Y60779605D01*
X26422927Y61752532D01*
X26324264Y62019387D01*
X25714539Y62245908D01*
X25064540Y62221856D01*
X24575736Y62019387D01*
X24477073Y61752532D01*
X21244111Y61752532D01*
X21475447Y62093447D01*
X21585000Y62450000D01*
X21585000Y65650000D01*
X21538328Y65888946D01*
X21399013Y66099013D01*
X20749013Y66749013D01*
X20547051Y66884971D01*
X20300000Y66935000D01*
X14350000Y66935000D01*
X14177486Y66911117D01*
X13953319Y66795852D01*
X13203319Y66195852D01*
X13015029Y65947051D01*
X12965000Y65700000D01*
X12965000Y61350000D01*
X13024574Y61081468D01*
X13297120Y60497440D01*
X13275000Y60497440D01*
X13039683Y60453162D01*
X12985442Y60418259D01*
X12964090Y60451441D01*
X12751890Y60596431D01*
X12627425Y60621636D01*
X12605079Y60655079D01*
X12347440Y60912718D01*
X12347440Y61400000D01*
X12303162Y61635317D01*
X12164090Y61851441D01*
X11951890Y61996431D01*
X11700000Y62047440D01*
X10400000Y62047440D01*
X10164683Y62003162D01*
X9948559Y61864090D01*
X9803569Y61651890D01*
X9800919Y61638803D01*
X9664090Y61851441D01*
X9451890Y61996431D01*
X9200000Y62047440D01*
X7900000Y62047440D01*
X7664683Y62003162D01*
X7481054Y61885000D01*
X5977466Y61885000D01*
X5877363Y61985278D01*
X5276648Y62234716D01*
X4626205Y62235284D01*
X4025057Y61986894D01*
X3564722Y61527363D01*
X3315284Y60926648D01*
X3314716Y60276205D01*
X710000Y60276205D01*
X710000Y75860000D01*
X3579286Y75860000D01*
X3579286Y69490000D01*
X24920715Y69490000D01*
X24920715Y72400432D01*
X30775873Y72400432D01*
X31748800Y71427505D01*
X32721727Y72400432D01*
X37202073Y72400432D01*
X38175000Y71427505D01*
X39147927Y72400432D01*
X47775873Y72400432D01*
X48748800Y71427505D01*
X49721727Y72400432D01*
X54202073Y72400432D01*
X55175000Y71427505D01*
X56147927Y72400432D01*
X65775873Y72400432D01*
X66748800Y71427505D01*
X67721727Y72400432D01*
X72202073Y72400432D01*
X73175000Y71427505D01*
X74147927Y72400432D01*
X83275873Y72400432D01*
X84248800Y71427505D01*
X85221727Y72400432D01*
X89702073Y72400432D01*
X90675000Y71427505D01*
X91647927Y72400432D01*
X91549264Y72667287D01*
X90939539Y72893808D01*
X90289540Y72869756D01*
X89800736Y72667287D01*
X89702073Y72400432D01*
X85221727Y72400432D01*
X85123064Y72667287D01*
X84513339Y72893808D01*
X83863340Y72869756D01*
X83374536Y72667287D01*
X83275873Y72400432D01*
X74147927Y72400432D01*
X74049264Y72667287D01*
X73439539Y72893808D01*
X72789540Y72869756D01*
X72300736Y72667287D01*
X72202073Y72400432D01*
X67721727Y72400432D01*
X67623064Y72667287D01*
X67013339Y72893808D01*
X66363340Y72869756D01*
X65874536Y72667287D01*
X65775873Y72400432D01*
X56147927Y72400432D01*
X56049264Y72667287D01*
X55439539Y72893808D01*
X54789540Y72869756D01*
X54300736Y72667287D01*
X54202073Y72400432D01*
X49721727Y72400432D01*
X49623064Y72667287D01*
X49013339Y72893808D01*
X48363340Y72869756D01*
X47874536Y72667287D01*
X47775873Y72400432D01*
X39147927Y72400432D01*
X39049264Y72667287D01*
X38439539Y72893808D01*
X37789540Y72869756D01*
X37300736Y72667287D01*
X37202073Y72400432D01*
X32721727Y72400432D01*
X32623064Y72667287D01*
X32013339Y72893808D01*
X31363340Y72869756D01*
X30874536Y72667287D01*
X30775873Y72400432D01*
X24920715Y72400432D01*
X24920715Y75860000D01*
X3579286Y75860000D01*
X710000Y75860000D01*
X710000Y76790000D01*
X94290000Y76790000D01*
X94290000Y710000D01*
G36*
X26864998Y28370133D02*
X23980275Y25485409D01*
X23820947Y25246958D01*
X23764998Y24965686D01*
X23764998Y15420133D01*
X21280277Y12935411D01*
X21120949Y12696960D01*
X21065000Y12415688D01*
X21065000Y11597440D01*
X20250000Y11597440D01*
X20014683Y11553162D01*
X19798559Y11414090D01*
X19653569Y11201890D01*
X19602560Y10950000D01*
X19602560Y10835000D01*
X15150000Y10835000D01*
X14922838Y10792978D01*
X14710034Y10657881D01*
X14566556Y10450635D01*
X14515012Y10203896D01*
X14485943Y5465636D01*
X3185000Y16766580D01*
X3185000Y18154842D01*
X3765055Y17574787D01*
X3764716Y17186205D01*
X4013106Y16585057D01*
X4472637Y16124722D01*
X5073352Y15875284D01*
X5723795Y15874716D01*
X6324943Y16123106D01*
X6785278Y16582637D01*
X7034716Y17183352D01*
X7035284Y17833795D01*
X6786894Y18434943D01*
X6720379Y18501574D01*
X6851441Y18585910D01*
X6996431Y18798110D01*
X7047440Y19050000D01*
X7047440Y21050000D01*
X7003162Y21285317D01*
X6864090Y21501441D01*
X6770039Y21565703D01*
X6801441Y21585910D01*
X6946431Y21798110D01*
X6997440Y22050000D01*
X6997440Y22265000D01*
X12900000Y22265000D01*
X13200407Y22324755D01*
X13455079Y22494921D01*
X26864998Y35904840D01*
X26864998Y28370133D01*
X26864998Y28370133D01*
G37*
X26864998Y28370133D02*
X23980275Y25485409D01*
X23820947Y25246958D01*
X23764998Y24965686D01*
X23764998Y15420133D01*
X21280277Y12935411D01*
X21120949Y12696960D01*
X21065000Y12415688D01*
X21065000Y11597440D01*
X20250000Y11597440D01*
X20014683Y11553162D01*
X19798559Y11414090D01*
X19653569Y11201890D01*
X19602560Y10950000D01*
X19602560Y10835000D01*
X15150000Y10835000D01*
X14922838Y10792978D01*
X14710034Y10657881D01*
X14566556Y10450635D01*
X14515012Y10203896D01*
X14485943Y5465636D01*
X3185000Y16766580D01*
X3185000Y18154842D01*
X3765055Y17574787D01*
X3764716Y17186205D01*
X4013106Y16585057D01*
X4472637Y16124722D01*
X5073352Y15875284D01*
X5723795Y15874716D01*
X6324943Y16123106D01*
X6785278Y16582637D01*
X7034716Y17183352D01*
X7035284Y17833795D01*
X6786894Y18434943D01*
X6720379Y18501574D01*
X6851441Y18585910D01*
X6996431Y18798110D01*
X7047440Y19050000D01*
X7047440Y21050000D01*
X7003162Y21285317D01*
X6864090Y21501441D01*
X6770039Y21565703D01*
X6801441Y21585910D01*
X6946431Y21798110D01*
X6997440Y22050000D01*
X6997440Y22265000D01*
X12900000Y22265000D01*
X13200407Y22324755D01*
X13455079Y22494921D01*
X26864998Y35904840D01*
X26864998Y28370133D01*
G36*
X61335910Y32248559D02*
X61548110Y32103569D01*
X61800000Y32052560D01*
X63000000Y32052560D01*
X63235317Y32096838D01*
X63451441Y32235910D01*
X63499134Y32305711D01*
X63535910Y32248559D01*
X63748110Y32103569D01*
X64000000Y32052560D01*
X65200000Y32052560D01*
X65435317Y32096838D01*
X65651441Y32235910D01*
X65739644Y32365000D01*
X72074842Y32365000D01*
X80394921Y24044921D01*
X80649593Y23874755D01*
X80950000Y23815000D01*
X84924842Y23815000D01*
X85191952Y23547890D01*
X83750510Y23547890D01*
X83515193Y23503612D01*
X83299069Y23364540D01*
X83154079Y23152340D01*
X83103070Y22900450D01*
X83103070Y18899950D01*
X83113771Y18843081D01*
X83113351Y18803598D01*
X83121858Y18782843D01*
X83121858Y18675162D01*
X82963110Y18833910D01*
X82622171Y18833910D01*
X82388782Y18737237D01*
X82210153Y18558609D01*
X82113480Y18325220D01*
X82113480Y17233710D01*
X82272230Y17074960D01*
X83121860Y17074960D01*
X83121860Y17094960D01*
X83375860Y17094960D01*
X83375860Y17074960D01*
X83395860Y17074960D01*
X83395860Y16820960D01*
X83375860Y16820960D01*
X83375860Y15220760D01*
X83534610Y15062010D01*
X83875549Y15062010D01*
X83986759Y15108075D01*
X83997730Y15100579D01*
X84004959Y15099115D01*
X84024755Y14999593D01*
X84194921Y14744921D01*
X87579842Y11360000D01*
X86891579Y11360000D01*
X85775790Y12475790D01*
X85692752Y12531274D01*
X85488675Y12667633D01*
X85432484Y12678810D01*
X85150000Y12735001D01*
X85149995Y12735000D01*
X83473523Y12735000D01*
X83185564Y13023461D01*
X82676702Y13234759D01*
X82125715Y13235240D01*
X81616485Y13024831D01*
X81326148Y12735000D01*
X67800005Y12735000D01*
X67800000Y12735001D01*
X67461325Y12667633D01*
X67174210Y12475790D01*
X67174208Y12475787D01*
X66683392Y11984972D01*
X66415323Y11985206D01*
X65979628Y11805180D01*
X65645991Y11472125D01*
X65465206Y11036745D01*
X65464794Y10565323D01*
X65595340Y10249379D01*
X65220664Y10386458D01*
X64610540Y10360839D01*
X64485000Y10308839D01*
X64485000Y18400000D01*
X64455024Y18550700D01*
X64425245Y18700407D01*
X64255079Y18955079D01*
X63085000Y20125158D01*
X63085000Y20549568D01*
X66302073Y20549568D01*
X66400736Y20282713D01*
X67010461Y20056192D01*
X67660460Y20080244D01*
X68149264Y20282713D01*
X68247927Y20549568D01*
X72728273Y20549568D01*
X72826936Y20282713D01*
X73436661Y20056192D01*
X74086660Y20080244D01*
X74575464Y20282713D01*
X74674127Y20549568D01*
X73701200Y21522495D01*
X72728273Y20549568D01*
X68247927Y20549568D01*
X67275000Y21522495D01*
X66302073Y20549568D01*
X63085000Y20549568D01*
X63085000Y21277962D01*
X63185317Y21296838D01*
X63401441Y21435910D01*
X63546431Y21648110D01*
X63553191Y21681490D01*
X63611673Y21540301D01*
X63790302Y21361673D01*
X64023691Y21265000D01*
X64514250Y21265000D01*
X64673000Y21423750D01*
X64673000Y22073000D01*
X64653000Y22073000D01*
X64653000Y22327000D01*
X64673000Y22327000D01*
X64673000Y22976250D01*
X64927000Y22976250D01*
X64927000Y22327000D01*
X64947000Y22327000D01*
X64947000Y22073000D01*
X64927000Y22073000D01*
X64927000Y21423750D01*
X65085750Y21265000D01*
X65576309Y21265000D01*
X65660149Y21299728D01*
X65855613Y20827836D01*
X66122468Y20729173D01*
X67095395Y21702100D01*
X67454605Y21702100D01*
X68427532Y20729173D01*
X68694387Y20827836D01*
X68920908Y21437561D01*
X68901331Y21966639D01*
X72055292Y21966639D01*
X72079344Y21316640D01*
X72281813Y20827836D01*
X72548668Y20729173D01*
X73521595Y21702100D01*
X72548668Y22675027D01*
X72281813Y22576364D01*
X72055292Y21966639D01*
X68901331Y21966639D01*
X68896856Y22087560D01*
X68694387Y22576364D01*
X68427532Y22675027D01*
X67454605Y21702100D01*
X67095395Y21702100D01*
X66122468Y22675027D01*
X66072477Y22656544D01*
X65990426Y22854632D01*
X66302073Y22854632D01*
X67275000Y21881705D01*
X68247927Y22854632D01*
X72728273Y22854632D01*
X73701200Y21881705D01*
X74674127Y22854632D01*
X74575464Y23121487D01*
X73965739Y23348008D01*
X73315740Y23323956D01*
X72826936Y23121487D01*
X72728273Y22854632D01*
X68247927Y22854632D01*
X68149264Y23121487D01*
X67539539Y23348008D01*
X66889540Y23323956D01*
X66400736Y23121487D01*
X66302073Y22854632D01*
X65990426Y22854632D01*
X65988327Y22859699D01*
X65809698Y23038327D01*
X65576309Y23135000D01*
X65085750Y23135000D01*
X64927000Y22976250D01*
X64673000Y22976250D01*
X64514250Y23135000D01*
X64023691Y23135000D01*
X63790302Y23038327D01*
X63611673Y22859699D01*
X63555346Y22723713D01*
X63553162Y22735317D01*
X63414090Y22951441D01*
X63201890Y23096431D01*
X63085000Y23120102D01*
X63085000Y23202560D01*
X63100000Y23202560D01*
X63335317Y23246838D01*
X63551441Y23385910D01*
X63599134Y23455711D01*
X63635910Y23398559D01*
X63848110Y23253569D01*
X64100000Y23202560D01*
X65300000Y23202560D01*
X65535317Y23246838D01*
X65751441Y23385910D01*
X65896431Y23598110D01*
X65947440Y23850000D01*
X65947440Y24750000D01*
X65903162Y24985317D01*
X65812810Y25125727D01*
X65839644Y25165000D01*
X65919674Y25165000D01*
X66271437Y24812622D01*
X66872152Y24563184D01*
X67522595Y24562616D01*
X68123743Y24811006D01*
X68584078Y25270537D01*
X68643192Y25412900D01*
X72256483Y25412900D01*
X72314306Y25272957D01*
X72773837Y24812622D01*
X73374552Y24563184D01*
X74024995Y24562616D01*
X74626143Y24811006D01*
X75086478Y25270537D01*
X75215000Y25580053D01*
X75215000Y22348431D01*
X75120587Y22576364D01*
X74853732Y22675027D01*
X73880805Y21702100D01*
X74853732Y20729173D01*
X75120587Y20827836D01*
X75215000Y21081967D01*
X75215000Y17575158D01*
X73574778Y15934936D01*
X73265323Y15935206D01*
X72829628Y15755180D01*
X72495991Y15422125D01*
X72315206Y14986745D01*
X72314794Y14515323D01*
X72494820Y14079628D01*
X72827875Y13745991D01*
X73263255Y13565206D01*
X73734677Y13564794D01*
X74170372Y13744820D01*
X74504009Y14077875D01*
X74684794Y14513255D01*
X74685066Y14824908D01*
X76522368Y16662210D01*
X82113480Y16662210D01*
X82113480Y15570700D01*
X82210153Y15337311D01*
X82388782Y15158683D01*
X82622171Y15062010D01*
X82963110Y15062010D01*
X83121860Y15220760D01*
X83121860Y16820960D01*
X82272230Y16820960D01*
X82113480Y16662210D01*
X76522368Y16662210D01*
X76555079Y16694921D01*
X76725245Y16949594D01*
X76785000Y17250000D01*
X76785000Y27000000D01*
X76765190Y27099593D01*
X76725245Y27300407D01*
X76555079Y27555079D01*
X74105079Y30005079D01*
X73850407Y30175245D01*
X73550000Y30235000D01*
X60290752Y30235000D01*
X60072125Y30454009D01*
X59636745Y30634794D01*
X59165323Y30635206D01*
X58729628Y30455180D01*
X58395991Y30122125D01*
X58232284Y29727874D01*
X55595158Y32365000D01*
X61260982Y32365000D01*
X61335910Y32248559D01*
X61335910Y32248559D01*
G37*
X61335910Y32248559D02*
X61548110Y32103569D01*
X61800000Y32052560D01*
X63000000Y32052560D01*
X63235317Y32096838D01*
X63451441Y32235910D01*
X63499134Y32305711D01*
X63535910Y32248559D01*
X63748110Y32103569D01*
X64000000Y32052560D01*
X65200000Y32052560D01*
X65435317Y32096838D01*
X65651441Y32235910D01*
X65739644Y32365000D01*
X72074842Y32365000D01*
X80394921Y24044921D01*
X80649593Y23874755D01*
X80950000Y23815000D01*
X84924842Y23815000D01*
X85191952Y23547890D01*
X83750510Y23547890D01*
X83515193Y23503612D01*
X83299069Y23364540D01*
X83154079Y23152340D01*
X83103070Y22900450D01*
X83103070Y18899950D01*
X83113771Y18843081D01*
X83113351Y18803598D01*
X83121858Y18782843D01*
X83121858Y18675162D01*
X82963110Y18833910D01*
X82622171Y18833910D01*
X82388782Y18737237D01*
X82210153Y18558609D01*
X82113480Y18325220D01*
X82113480Y17233710D01*
X82272230Y17074960D01*
X83121860Y17074960D01*
X83121860Y17094960D01*
X83375860Y17094960D01*
X83375860Y17074960D01*
X83395860Y17074960D01*
X83395860Y16820960D01*
X83375860Y16820960D01*
X83375860Y15220760D01*
X83534610Y15062010D01*
X83875549Y15062010D01*
X83986759Y15108075D01*
X83997730Y15100579D01*
X84004959Y15099115D01*
X84024755Y14999593D01*
X84194921Y14744921D01*
X87579842Y11360000D01*
X86891579Y11360000D01*
X85775790Y12475790D01*
X85692752Y12531274D01*
X85488675Y12667633D01*
X85432484Y12678810D01*
X85150000Y12735001D01*
X85149995Y12735000D01*
X83473523Y12735000D01*
X83185564Y13023461D01*
X82676702Y13234759D01*
X82125715Y13235240D01*
X81616485Y13024831D01*
X81326148Y12735000D01*
X67800005Y12735000D01*
X67800000Y12735001D01*
X67461325Y12667633D01*
X67174210Y12475790D01*
X67174208Y12475787D01*
X66683392Y11984972D01*
X66415323Y11985206D01*
X65979628Y11805180D01*
X65645991Y11472125D01*
X65465206Y11036745D01*
X65464794Y10565323D01*
X65595340Y10249379D01*
X65220664Y10386458D01*
X64610540Y10360839D01*
X64485000Y10308839D01*
X64485000Y18400000D01*
X64455024Y18550700D01*
X64425245Y18700407D01*
X64255079Y18955079D01*
X63085000Y20125158D01*
X63085000Y20549568D01*
X66302073Y20549568D01*
X66400736Y20282713D01*
X67010461Y20056192D01*
X67660460Y20080244D01*
X68149264Y20282713D01*
X68247927Y20549568D01*
X72728273Y20549568D01*
X72826936Y20282713D01*
X73436661Y20056192D01*
X74086660Y20080244D01*
X74575464Y20282713D01*
X74674127Y20549568D01*
X73701200Y21522495D01*
X72728273Y20549568D01*
X68247927Y20549568D01*
X67275000Y21522495D01*
X66302073Y20549568D01*
X63085000Y20549568D01*
X63085000Y21277962D01*
X63185317Y21296838D01*
X63401441Y21435910D01*
X63546431Y21648110D01*
X63553191Y21681490D01*
X63611673Y21540301D01*
X63790302Y21361673D01*
X64023691Y21265000D01*
X64514250Y21265000D01*
X64673000Y21423750D01*
X64673000Y22073000D01*
X64653000Y22073000D01*
X64653000Y22327000D01*
X64673000Y22327000D01*
X64673000Y22976250D01*
X64927000Y22976250D01*
X64927000Y22327000D01*
X64947000Y22327000D01*
X64947000Y22073000D01*
X64927000Y22073000D01*
X64927000Y21423750D01*
X65085750Y21265000D01*
X65576309Y21265000D01*
X65660149Y21299728D01*
X65855613Y20827836D01*
X66122468Y20729173D01*
X67095395Y21702100D01*
X67454605Y21702100D01*
X68427532Y20729173D01*
X68694387Y20827836D01*
X68920908Y21437561D01*
X68901331Y21966639D01*
X72055292Y21966639D01*
X72079344Y21316640D01*
X72281813Y20827836D01*
X72548668Y20729173D01*
X73521595Y21702100D01*
X72548668Y22675027D01*
X72281813Y22576364D01*
X72055292Y21966639D01*
X68901331Y21966639D01*
X68896856Y22087560D01*
X68694387Y22576364D01*
X68427532Y22675027D01*
X67454605Y21702100D01*
X67095395Y21702100D01*
X66122468Y22675027D01*
X66072477Y22656544D01*
X65990426Y22854632D01*
X66302073Y22854632D01*
X67275000Y21881705D01*
X68247927Y22854632D01*
X72728273Y22854632D01*
X73701200Y21881705D01*
X74674127Y22854632D01*
X74575464Y23121487D01*
X73965739Y23348008D01*
X73315740Y23323956D01*
X72826936Y23121487D01*
X72728273Y22854632D01*
X68247927Y22854632D01*
X68149264Y23121487D01*
X67539539Y23348008D01*
X66889540Y23323956D01*
X66400736Y23121487D01*
X66302073Y22854632D01*
X65990426Y22854632D01*
X65988327Y22859699D01*
X65809698Y23038327D01*
X65576309Y23135000D01*
X65085750Y23135000D01*
X64927000Y22976250D01*
X64673000Y22976250D01*
X64514250Y23135000D01*
X64023691Y23135000D01*
X63790302Y23038327D01*
X63611673Y22859699D01*
X63555346Y22723713D01*
X63553162Y22735317D01*
X63414090Y22951441D01*
X63201890Y23096431D01*
X63085000Y23120102D01*
X63085000Y23202560D01*
X63100000Y23202560D01*
X63335317Y23246838D01*
X63551441Y23385910D01*
X63599134Y23455711D01*
X63635910Y23398559D01*
X63848110Y23253569D01*
X64100000Y23202560D01*
X65300000Y23202560D01*
X65535317Y23246838D01*
X65751441Y23385910D01*
X65896431Y23598110D01*
X65947440Y23850000D01*
X65947440Y24750000D01*
X65903162Y24985317D01*
X65812810Y25125727D01*
X65839644Y25165000D01*
X65919674Y25165000D01*
X66271437Y24812622D01*
X66872152Y24563184D01*
X67522595Y24562616D01*
X68123743Y24811006D01*
X68584078Y25270537D01*
X68643192Y25412900D01*
X72256483Y25412900D01*
X72314306Y25272957D01*
X72773837Y24812622D01*
X73374552Y24563184D01*
X74024995Y24562616D01*
X74626143Y24811006D01*
X75086478Y25270537D01*
X75215000Y25580053D01*
X75215000Y22348431D01*
X75120587Y22576364D01*
X74853732Y22675027D01*
X73880805Y21702100D01*
X74853732Y20729173D01*
X75120587Y20827836D01*
X75215000Y21081967D01*
X75215000Y17575158D01*
X73574778Y15934936D01*
X73265323Y15935206D01*
X72829628Y15755180D01*
X72495991Y15422125D01*
X72315206Y14986745D01*
X72314794Y14515323D01*
X72494820Y14079628D01*
X72827875Y13745991D01*
X73263255Y13565206D01*
X73734677Y13564794D01*
X74170372Y13744820D01*
X74504009Y14077875D01*
X74684794Y14513255D01*
X74685066Y14824908D01*
X76522368Y16662210D01*
X82113480Y16662210D01*
X82113480Y15570700D01*
X82210153Y15337311D01*
X82388782Y15158683D01*
X82622171Y15062010D01*
X82963110Y15062010D01*
X83121860Y15220760D01*
X83121860Y16820960D01*
X82272230Y16820960D01*
X82113480Y16662210D01*
X76522368Y16662210D01*
X76555079Y16694921D01*
X76725245Y16949594D01*
X76785000Y17250000D01*
X76785000Y27000000D01*
X76765190Y27099593D01*
X76725245Y27300407D01*
X76555079Y27555079D01*
X74105079Y30005079D01*
X73850407Y30175245D01*
X73550000Y30235000D01*
X60290752Y30235000D01*
X60072125Y30454009D01*
X59636745Y30634794D01*
X59165323Y30635206D01*
X58729628Y30455180D01*
X58395991Y30122125D01*
X58232284Y29727874D01*
X55595158Y32365000D01*
X61260982Y32365000D01*
X61335910Y32248559D01*
G36*
X26223352Y21365284D02*
X26873795Y21364716D01*
X27465849Y21609349D01*
X28515000Y20560198D01*
X28515000Y19234813D01*
X28065323Y19235206D01*
X27629628Y19055180D01*
X27295991Y18722125D01*
X27115206Y18286745D01*
X27114794Y17815323D01*
X27294820Y17379628D01*
X27515000Y17159063D01*
X27515000Y13700000D01*
X27574755Y13399593D01*
X27744921Y13144921D01*
X29451618Y11438224D01*
X29129628Y11305180D01*
X28961768Y11137613D01*
X28960589Y11137378D01*
X28861325Y11117633D01*
X28574210Y10925790D01*
X28574208Y10925787D01*
X28375000Y10726579D01*
X27825790Y11275790D01*
X27804523Y11290000D01*
X27538675Y11467633D01*
X27482484Y11478810D01*
X27200000Y11535001D01*
X27199995Y11535000D01*
X26746192Y11535000D01*
X26711671Y11588646D01*
X26713327Y11590302D01*
X26810000Y11823691D01*
X26810000Y12264250D01*
X26651250Y12423000D01*
X25927000Y12423000D01*
X25927000Y12403000D01*
X25673000Y12403000D01*
X25673000Y12423000D01*
X24948750Y12423000D01*
X24790000Y12264250D01*
X24790000Y11823691D01*
X24886673Y11590302D01*
X24888043Y11588932D01*
X24828569Y11501890D01*
X24804898Y11385000D01*
X24750000Y11385000D01*
X24449593Y11325245D01*
X24319189Y11238112D01*
X24214090Y11401441D01*
X24001890Y11546431D01*
X23750000Y11597440D01*
X22935002Y11597440D01*
X22935002Y11945556D01*
X24265755Y13276309D01*
X24790000Y13276309D01*
X24790000Y12835750D01*
X24948750Y12677000D01*
X25673000Y12677000D01*
X25673000Y13626250D01*
X25927000Y13626250D01*
X25927000Y12677000D01*
X26651250Y12677000D01*
X26810000Y12835750D01*
X26810000Y13276309D01*
X26713327Y13509698D01*
X26534699Y13688327D01*
X26301310Y13785000D01*
X26085750Y13785000D01*
X25927000Y13626250D01*
X25673000Y13626250D01*
X25514250Y13785000D01*
X25298690Y13785000D01*
X25065301Y13688327D01*
X24886673Y13509698D01*
X24790000Y13276309D01*
X24265755Y13276309D01*
X25419724Y14430277D01*
X25579051Y14668728D01*
X25615726Y14853106D01*
X25635000Y14950000D01*
X25635000Y21609588D01*
X26223352Y21365284D01*
X26223352Y21365284D01*
G37*
X26223352Y21365284D02*
X26873795Y21364716D01*
X27465849Y21609349D01*
X28515000Y20560198D01*
X28515000Y19234813D01*
X28065323Y19235206D01*
X27629628Y19055180D01*
X27295991Y18722125D01*
X27115206Y18286745D01*
X27114794Y17815323D01*
X27294820Y17379628D01*
X27515000Y17159063D01*
X27515000Y13700000D01*
X27574755Y13399593D01*
X27744921Y13144921D01*
X29451618Y11438224D01*
X29129628Y11305180D01*
X28961768Y11137613D01*
X28960589Y11137378D01*
X28861325Y11117633D01*
X28574210Y10925790D01*
X28574208Y10925787D01*
X28375000Y10726579D01*
X27825790Y11275790D01*
X27804523Y11290000D01*
X27538675Y11467633D01*
X27482484Y11478810D01*
X27200000Y11535001D01*
X27199995Y11535000D01*
X26746192Y11535000D01*
X26711671Y11588646D01*
X26713327Y11590302D01*
X26810000Y11823691D01*
X26810000Y12264250D01*
X26651250Y12423000D01*
X25927000Y12423000D01*
X25927000Y12403000D01*
X25673000Y12403000D01*
X25673000Y12423000D01*
X24948750Y12423000D01*
X24790000Y12264250D01*
X24790000Y11823691D01*
X24886673Y11590302D01*
X24888043Y11588932D01*
X24828569Y11501890D01*
X24804898Y11385000D01*
X24750000Y11385000D01*
X24449593Y11325245D01*
X24319189Y11238112D01*
X24214090Y11401441D01*
X24001890Y11546431D01*
X23750000Y11597440D01*
X22935002Y11597440D01*
X22935002Y11945556D01*
X24265755Y13276309D01*
X24790000Y13276309D01*
X24790000Y12835750D01*
X24948750Y12677000D01*
X25673000Y12677000D01*
X25673000Y13626250D01*
X25927000Y13626250D01*
X25927000Y12677000D01*
X26651250Y12677000D01*
X26810000Y12835750D01*
X26810000Y13276309D01*
X26713327Y13509698D01*
X26534699Y13688327D01*
X26301310Y13785000D01*
X26085750Y13785000D01*
X25927000Y13626250D01*
X25673000Y13626250D01*
X25514250Y13785000D01*
X25298690Y13785000D01*
X25065301Y13688327D01*
X24886673Y13509698D01*
X24790000Y13276309D01*
X24265755Y13276309D01*
X25419724Y14430277D01*
X25579051Y14668728D01*
X25615726Y14853106D01*
X25635000Y14950000D01*
X25635000Y21609588D01*
X26223352Y21365284D01*
G36*
X50115000Y25424843D02*
X50115000Y24950000D01*
X50174755Y24649593D01*
X50344921Y24394921D01*
X55415000Y19324842D01*
X55415000Y13648491D01*
X55086745Y13784794D01*
X54615323Y13785206D01*
X54475886Y13727592D01*
X54570908Y13983361D01*
X54546856Y14633360D01*
X54344387Y15122164D01*
X54077532Y15220827D01*
X53104605Y14247900D01*
X53118748Y14233757D01*
X52939143Y14054152D01*
X52925000Y14068295D01*
X52910858Y14054152D01*
X52731253Y14233757D01*
X52745395Y14247900D01*
X51772468Y15220827D01*
X51505613Y15122164D01*
X51279092Y14512439D01*
X51303144Y13862440D01*
X51505613Y13373636D01*
X51772466Y13274974D01*
X51732492Y13235000D01*
X47691308Y13235000D01*
X47651334Y13274974D01*
X47918187Y13373636D01*
X48144708Y13983361D01*
X48120656Y14633360D01*
X47918187Y15122164D01*
X47651332Y15220827D01*
X46678405Y14247900D01*
X46692548Y14233757D01*
X46512943Y14054152D01*
X46498800Y14068295D01*
X46484658Y14054152D01*
X46305053Y14233757D01*
X46319195Y14247900D01*
X45346268Y15220827D01*
X45079413Y15122164D01*
X44852892Y14512439D01*
X44876944Y13862440D01*
X45079413Y13373636D01*
X45346266Y13274974D01*
X45306292Y13235000D01*
X43835000Y13235000D01*
X43835000Y13414250D01*
X43676250Y13573000D01*
X42327000Y13573000D01*
X42327000Y13553000D01*
X42073000Y13553000D01*
X42073000Y13573000D01*
X42053000Y13573000D01*
X42053000Y13827000D01*
X42073000Y13827000D01*
X42073000Y13847000D01*
X42327000Y13847000D01*
X42327000Y13827000D01*
X43676250Y13827000D01*
X43835000Y13985750D01*
X43835000Y14826309D01*
X43738327Y15059698D01*
X43559699Y15238327D01*
X43525167Y15252631D01*
X43585278Y15312637D01*
X43621733Y15400432D01*
X45525873Y15400432D01*
X46498800Y14427505D01*
X47471727Y15400432D01*
X47373064Y15667287D01*
X46763339Y15893808D01*
X46113340Y15869756D01*
X45624536Y15667287D01*
X45525873Y15400432D01*
X43621733Y15400432D01*
X43834716Y15913352D01*
X43835198Y16465000D01*
X50805283Y16465000D01*
X50863106Y16325057D01*
X51322637Y15864722D01*
X51923352Y15615284D01*
X52031474Y15615190D01*
X51952073Y15400432D01*
X52925000Y14427505D01*
X53897927Y15400432D01*
X53799264Y15667287D01*
X53201316Y15889433D01*
X53635278Y16322637D01*
X53884716Y16923352D01*
X53885284Y17573795D01*
X53636894Y18174943D01*
X53177363Y18635278D01*
X52576648Y18884716D01*
X51926205Y18885284D01*
X51325057Y18636894D01*
X50864722Y18177363D01*
X50805608Y18035000D01*
X48170002Y18035000D01*
X48220827Y18172468D01*
X47247900Y19145395D01*
X46274973Y18172468D01*
X46325798Y18035000D01*
X46035000Y18035000D01*
X46035000Y18374393D01*
X46095368Y18352073D01*
X47068295Y19325000D01*
X47427505Y19325000D01*
X48400432Y18352073D01*
X48667287Y18450736D01*
X48893808Y19060461D01*
X48869756Y19710460D01*
X48667287Y20199264D01*
X48400432Y20297927D01*
X47427505Y19325000D01*
X47068295Y19325000D01*
X46095368Y20297927D01*
X46035000Y20275607D01*
X46035000Y20477532D01*
X46274973Y20477532D01*
X47247900Y19504605D01*
X48220827Y20477532D01*
X48122164Y20744387D01*
X47512439Y20970908D01*
X46862440Y20946856D01*
X46373636Y20744387D01*
X46274973Y20477532D01*
X46035000Y20477532D01*
X46035000Y24598668D01*
X46274973Y24598668D01*
X46373636Y24331813D01*
X46983361Y24105292D01*
X47633360Y24129344D01*
X48122164Y24331813D01*
X48220827Y24598668D01*
X47247900Y25571595D01*
X46274973Y24598668D01*
X46035000Y24598668D01*
X46035000Y24800593D01*
X46095368Y24778273D01*
X47068295Y25751200D01*
X47427505Y25751200D01*
X48400432Y24778273D01*
X48667287Y24876936D01*
X48893808Y25486661D01*
X48869756Y26136660D01*
X48667287Y26625464D01*
X48400432Y26724127D01*
X47427505Y25751200D01*
X47068295Y25751200D01*
X46095368Y26724127D01*
X45828513Y26625464D01*
X45667660Y26192498D01*
X44956426Y26903732D01*
X46274973Y26903732D01*
X47247900Y25930805D01*
X48220827Y26903732D01*
X48122164Y27170587D01*
X47512439Y27397108D01*
X46862440Y27373056D01*
X46373636Y27170587D01*
X46274973Y26903732D01*
X44956426Y26903732D01*
X43505079Y28355079D01*
X43250407Y28525245D01*
X43209721Y28533338D01*
X43454716Y29123352D01*
X43455284Y29773795D01*
X43355620Y30015000D01*
X45524842Y30015000D01*
X50115000Y25424843D01*
X50115000Y25424843D01*
G37*
X50115000Y25424843D02*
X50115000Y24950000D01*
X50174755Y24649593D01*
X50344921Y24394921D01*
X55415000Y19324842D01*
X55415000Y13648491D01*
X55086745Y13784794D01*
X54615323Y13785206D01*
X54475886Y13727592D01*
X54570908Y13983361D01*
X54546856Y14633360D01*
X54344387Y15122164D01*
X54077532Y15220827D01*
X53104605Y14247900D01*
X53118748Y14233757D01*
X52939143Y14054152D01*
X52925000Y14068295D01*
X52910858Y14054152D01*
X52731253Y14233757D01*
X52745395Y14247900D01*
X51772468Y15220827D01*
X51505613Y15122164D01*
X51279092Y14512439D01*
X51303144Y13862440D01*
X51505613Y13373636D01*
X51772466Y13274974D01*
X51732492Y13235000D01*
X47691308Y13235000D01*
X47651334Y13274974D01*
X47918187Y13373636D01*
X48144708Y13983361D01*
X48120656Y14633360D01*
X47918187Y15122164D01*
X47651332Y15220827D01*
X46678405Y14247900D01*
X46692548Y14233757D01*
X46512943Y14054152D01*
X46498800Y14068295D01*
X46484658Y14054152D01*
X46305053Y14233757D01*
X46319195Y14247900D01*
X45346268Y15220827D01*
X45079413Y15122164D01*
X44852892Y14512439D01*
X44876944Y13862440D01*
X45079413Y13373636D01*
X45346266Y13274974D01*
X45306292Y13235000D01*
X43835000Y13235000D01*
X43835000Y13414250D01*
X43676250Y13573000D01*
X42327000Y13573000D01*
X42327000Y13553000D01*
X42073000Y13553000D01*
X42073000Y13573000D01*
X42053000Y13573000D01*
X42053000Y13827000D01*
X42073000Y13827000D01*
X42073000Y13847000D01*
X42327000Y13847000D01*
X42327000Y13827000D01*
X43676250Y13827000D01*
X43835000Y13985750D01*
X43835000Y14826309D01*
X43738327Y15059698D01*
X43559699Y15238327D01*
X43525167Y15252631D01*
X43585278Y15312637D01*
X43621733Y15400432D01*
X45525873Y15400432D01*
X46498800Y14427505D01*
X47471727Y15400432D01*
X47373064Y15667287D01*
X46763339Y15893808D01*
X46113340Y15869756D01*
X45624536Y15667287D01*
X45525873Y15400432D01*
X43621733Y15400432D01*
X43834716Y15913352D01*
X43835198Y16465000D01*
X50805283Y16465000D01*
X50863106Y16325057D01*
X51322637Y15864722D01*
X51923352Y15615284D01*
X52031474Y15615190D01*
X51952073Y15400432D01*
X52925000Y14427505D01*
X53897927Y15400432D01*
X53799264Y15667287D01*
X53201316Y15889433D01*
X53635278Y16322637D01*
X53884716Y16923352D01*
X53885284Y17573795D01*
X53636894Y18174943D01*
X53177363Y18635278D01*
X52576648Y18884716D01*
X51926205Y18885284D01*
X51325057Y18636894D01*
X50864722Y18177363D01*
X50805608Y18035000D01*
X48170002Y18035000D01*
X48220827Y18172468D01*
X47247900Y19145395D01*
X46274973Y18172468D01*
X46325798Y18035000D01*
X46035000Y18035000D01*
X46035000Y18374393D01*
X46095368Y18352073D01*
X47068295Y19325000D01*
X47427505Y19325000D01*
X48400432Y18352073D01*
X48667287Y18450736D01*
X48893808Y19060461D01*
X48869756Y19710460D01*
X48667287Y20199264D01*
X48400432Y20297927D01*
X47427505Y19325000D01*
X47068295Y19325000D01*
X46095368Y20297927D01*
X46035000Y20275607D01*
X46035000Y20477532D01*
X46274973Y20477532D01*
X47247900Y19504605D01*
X48220827Y20477532D01*
X48122164Y20744387D01*
X47512439Y20970908D01*
X46862440Y20946856D01*
X46373636Y20744387D01*
X46274973Y20477532D01*
X46035000Y20477532D01*
X46035000Y24598668D01*
X46274973Y24598668D01*
X46373636Y24331813D01*
X46983361Y24105292D01*
X47633360Y24129344D01*
X48122164Y24331813D01*
X48220827Y24598668D01*
X47247900Y25571595D01*
X46274973Y24598668D01*
X46035000Y24598668D01*
X46035000Y24800593D01*
X46095368Y24778273D01*
X47068295Y25751200D01*
X47427505Y25751200D01*
X48400432Y24778273D01*
X48667287Y24876936D01*
X48893808Y25486661D01*
X48869756Y26136660D01*
X48667287Y26625464D01*
X48400432Y26724127D01*
X47427505Y25751200D01*
X47068295Y25751200D01*
X46095368Y26724127D01*
X45828513Y26625464D01*
X45667660Y26192498D01*
X44956426Y26903732D01*
X46274973Y26903732D01*
X47247900Y25930805D01*
X48220827Y26903732D01*
X48122164Y27170587D01*
X47512439Y27397108D01*
X46862440Y27373056D01*
X46373636Y27170587D01*
X46274973Y26903732D01*
X44956426Y26903732D01*
X43505079Y28355079D01*
X43250407Y28525245D01*
X43209721Y28533338D01*
X43454716Y29123352D01*
X43455284Y29773795D01*
X43355620Y30015000D01*
X45524842Y30015000D01*
X50115000Y25424843D01*
G36*
X33494921Y27244921D02*
X33749593Y27074755D01*
X34050000Y27015000D01*
X37098635Y27015000D01*
X37350000Y26965000D01*
X37500000Y26965000D01*
X37751365Y27015000D01*
X41703848Y27015000D01*
X41366822Y26678563D01*
X41117384Y26077848D01*
X41116816Y25427405D01*
X41365206Y24826257D01*
X41824737Y24365922D01*
X41967100Y24306808D01*
X41967100Y21143958D01*
X41405979Y21705079D01*
X41151307Y21875245D01*
X40850900Y21935000D01*
X40612630Y21935000D01*
X40603162Y21985317D01*
X40464090Y22201441D01*
X40251890Y22346431D01*
X40000000Y22397440D01*
X39100000Y22397440D01*
X38864683Y22353162D01*
X38648559Y22214090D01*
X38503569Y22001890D01*
X38479898Y21885000D01*
X38262630Y21885000D01*
X38253162Y21935317D01*
X38114090Y22151441D01*
X37901890Y22296431D01*
X37650000Y22347440D01*
X36750000Y22347440D01*
X36540084Y22307941D01*
X36409699Y22438327D01*
X36176310Y22535000D01*
X36035750Y22535000D01*
X35877000Y22376250D01*
X35877000Y21377000D01*
X35897000Y21377000D01*
X35897000Y21123000D01*
X35877000Y21123000D01*
X35877000Y21103000D01*
X35623000Y21103000D01*
X35623000Y21123000D01*
X35603000Y21123000D01*
X35603000Y21377000D01*
X35623000Y21377000D01*
X35623000Y22376250D01*
X35464250Y22535000D01*
X35365000Y22535000D01*
X35365000Y23979995D01*
X35365001Y23980000D01*
X35305245Y24280406D01*
X35135079Y24535079D01*
X32885000Y26785158D01*
X32885000Y27854842D01*
X33494921Y27244921D01*
X33494921Y27244921D01*
G37*
X33494921Y27244921D02*
X33749593Y27074755D01*
X34050000Y27015000D01*
X37098635Y27015000D01*
X37350000Y26965000D01*
X37500000Y26965000D01*
X37751365Y27015000D01*
X41703848Y27015000D01*
X41366822Y26678563D01*
X41117384Y26077848D01*
X41116816Y25427405D01*
X41365206Y24826257D01*
X41824737Y24365922D01*
X41967100Y24306808D01*
X41967100Y21143958D01*
X41405979Y21705079D01*
X41151307Y21875245D01*
X40850900Y21935000D01*
X40612630Y21935000D01*
X40603162Y21985317D01*
X40464090Y22201441D01*
X40251890Y22346431D01*
X40000000Y22397440D01*
X39100000Y22397440D01*
X38864683Y22353162D01*
X38648559Y22214090D01*
X38503569Y22001890D01*
X38479898Y21885000D01*
X38262630Y21885000D01*
X38253162Y21935317D01*
X38114090Y22151441D01*
X37901890Y22296431D01*
X37650000Y22347440D01*
X36750000Y22347440D01*
X36540084Y22307941D01*
X36409699Y22438327D01*
X36176310Y22535000D01*
X36035750Y22535000D01*
X35877000Y22376250D01*
X35877000Y21377000D01*
X35897000Y21377000D01*
X35897000Y21123000D01*
X35877000Y21123000D01*
X35877000Y21103000D01*
X35623000Y21103000D01*
X35623000Y21123000D01*
X35603000Y21123000D01*
X35603000Y21377000D01*
X35623000Y21377000D01*
X35623000Y22376250D01*
X35464250Y22535000D01*
X35365000Y22535000D01*
X35365000Y23979995D01*
X35365001Y23980000D01*
X35305245Y24280406D01*
X35135079Y24535079D01*
X32885000Y26785158D01*
X32885000Y27854842D01*
X33494921Y27244921D01*
G36*
X21715028Y47283392D02*
X21714794Y47015323D01*
X21894820Y46579628D01*
X22015000Y46459238D01*
X22015000Y45750005D01*
X22014999Y45750000D01*
X22064728Y45500000D01*
X22082367Y45411325D01*
X22152560Y45306273D01*
X22152560Y44800000D01*
X22196838Y44564683D01*
X22335910Y44348559D01*
X22548110Y44203569D01*
X22800000Y44152560D01*
X24000000Y44152560D01*
X24235317Y44196838D01*
X24451441Y44335910D01*
X24499134Y44405711D01*
X24535910Y44348559D01*
X24748110Y44203569D01*
X25000000Y44152560D01*
X25437282Y44152560D01*
X26964821Y42625021D01*
X27219494Y42454855D01*
X27519900Y42395100D01*
X29884942Y42395100D01*
X25745603Y38255761D01*
X25594921Y38155079D01*
X13814842Y26375000D01*
X6794717Y26375000D01*
X6736894Y26514943D01*
X6277363Y26975278D01*
X5676648Y27224716D01*
X5026205Y27225284D01*
X4425057Y26976894D01*
X3964722Y26517363D01*
X3715284Y25916648D01*
X3714716Y25266205D01*
X3773582Y25123740D01*
X3185000Y24535158D01*
X3185000Y32917468D01*
X4127073Y32917468D01*
X4225736Y32650613D01*
X4835461Y32424092D01*
X5485460Y32448144D01*
X5974264Y32650613D01*
X6072927Y32917468D01*
X5100000Y33890395D01*
X4127073Y32917468D01*
X3185000Y32917468D01*
X3185000Y33443420D01*
X3476288Y33734708D01*
X3478144Y33684540D01*
X3680613Y33195736D01*
X3947468Y33097073D01*
X4920395Y34070000D01*
X5279605Y34070000D01*
X6252532Y33097073D01*
X6519387Y33195736D01*
X6745908Y33805461D01*
X6721856Y34455460D01*
X6519387Y34944264D01*
X6252532Y35042927D01*
X5279605Y34070000D01*
X4920395Y34070000D01*
X4906253Y34084142D01*
X5085858Y34263747D01*
X5100000Y34249605D01*
X6072927Y35222532D01*
X6059836Y35257938D01*
X6485278Y35682637D01*
X6502869Y35725000D01*
X8809995Y35725000D01*
X8810000Y35724999D01*
X9092484Y35781190D01*
X9148675Y35792367D01*
X9435790Y35984210D01*
X9435791Y35984211D01*
X12104139Y38652560D01*
X12400000Y38652560D01*
X12635317Y38696838D01*
X12851441Y38835910D01*
X12899134Y38905711D01*
X12935910Y38848559D01*
X13148110Y38703569D01*
X13400000Y38652560D01*
X14600000Y38652560D01*
X14631378Y38658464D01*
X15294921Y37994921D01*
X15549593Y37824755D01*
X15850000Y37765000D01*
X18220000Y37765000D01*
X18520407Y37824755D01*
X18775079Y37994921D01*
X19653510Y38873352D01*
X19793352Y38815284D01*
X20443795Y38814716D01*
X21044943Y39063106D01*
X21505278Y39522637D01*
X21754716Y40123352D01*
X21755284Y40773795D01*
X21506894Y41374943D01*
X21047363Y41835278D01*
X20446648Y42084716D01*
X19796205Y42085284D01*
X19195057Y41836894D01*
X18767438Y41410022D01*
X18732532Y41422927D01*
X17759605Y40450000D01*
X17773748Y40435857D01*
X17594143Y40256252D01*
X17580000Y40270395D01*
X17565858Y40256252D01*
X17386253Y40435857D01*
X17400395Y40450000D01*
X16427468Y41422927D01*
X16160613Y41324264D01*
X15934092Y40714539D01*
X15958144Y40064540D01*
X16160613Y39575736D01*
X16427466Y39477074D01*
X16313186Y39362794D01*
X16340980Y39335000D01*
X16175158Y39335000D01*
X15232904Y40277254D01*
X15203162Y40435317D01*
X15064090Y40651441D01*
X14851890Y40796431D01*
X14600000Y40847440D01*
X13400000Y40847440D01*
X13164683Y40803162D01*
X12948559Y40664090D01*
X12900866Y40594289D01*
X12864090Y40651441D01*
X12651890Y40796431D01*
X12400000Y40847440D01*
X11200000Y40847440D01*
X10964683Y40803162D01*
X10748559Y40664090D01*
X10603569Y40451890D01*
X10552560Y40200000D01*
X10552560Y39612718D01*
X8434842Y37495000D01*
X6503398Y37495000D01*
X6486894Y37534943D01*
X6420379Y37601574D01*
X6551441Y37685910D01*
X6696431Y37898110D01*
X6747440Y38150000D01*
X6747440Y38265000D01*
X6849995Y38265000D01*
X6850000Y38264999D01*
X7166092Y38327875D01*
X7188675Y38332367D01*
X7475790Y38524210D01*
X10554111Y41602532D01*
X16607073Y41602532D01*
X17580000Y40629605D01*
X18552927Y41602532D01*
X18454264Y41869387D01*
X17844539Y42095908D01*
X17194540Y42071856D01*
X16705736Y41869387D01*
X16607073Y41602532D01*
X10554111Y41602532D01*
X10883475Y41931896D01*
X10998110Y41853569D01*
X11250000Y41802560D01*
X12450000Y41802560D01*
X12685317Y41846838D01*
X12901441Y41985910D01*
X12949134Y42055711D01*
X12985910Y41998559D01*
X13198110Y41853569D01*
X13450000Y41802560D01*
X14650000Y41802560D01*
X14885317Y41846838D01*
X15101441Y41985910D01*
X15189644Y42115000D01*
X19300000Y42115000D01*
X19600407Y42174755D01*
X19855079Y42344921D01*
X20625079Y43114921D01*
X20668630Y43180100D01*
X20795245Y43369594D01*
X20855000Y43670000D01*
X20855000Y44205283D01*
X20994943Y44263106D01*
X21455278Y44722637D01*
X21704716Y45323352D01*
X21705284Y45973795D01*
X21456894Y46574943D01*
X20997363Y47035278D01*
X20396648Y47284716D01*
X19746205Y47285284D01*
X19145057Y47036894D01*
X18717438Y46610022D01*
X18682532Y46622927D01*
X17709605Y45650000D01*
X18682532Y44677073D01*
X18717938Y44690164D01*
X19142637Y44264722D01*
X19285000Y44205608D01*
X19285000Y43995158D01*
X18974842Y43685000D01*
X15189018Y43685000D01*
X15114090Y43801441D01*
X14901890Y43946431D01*
X14650000Y43997440D01*
X13450000Y43997440D01*
X13214683Y43953162D01*
X12998559Y43814090D01*
X12950866Y43744289D01*
X12914090Y43801441D01*
X12735000Y43923808D01*
X12735000Y44497468D01*
X16557073Y44497468D01*
X16655736Y44230613D01*
X17265461Y44004092D01*
X17915460Y44028144D01*
X18404264Y44230613D01*
X18502927Y44497468D01*
X17530000Y45470395D01*
X16557073Y44497468D01*
X12735000Y44497468D01*
X12735000Y45914539D01*
X15884092Y45914539D01*
X15908144Y45264540D01*
X16110613Y44775736D01*
X16377468Y44677073D01*
X17350395Y45650000D01*
X16377468Y46622927D01*
X16110613Y46524264D01*
X15884092Y45914539D01*
X12735000Y45914539D01*
X12735000Y46802532D01*
X16557073Y46802532D01*
X17530000Y45829605D01*
X18502927Y46802532D01*
X18404264Y47069387D01*
X17794539Y47295908D01*
X17144540Y47271856D01*
X16655736Y47069387D01*
X16557073Y46802532D01*
X12735000Y46802532D01*
X12735000Y47665000D01*
X21333420Y47665000D01*
X21715028Y47283392D01*
X21715028Y47283392D01*
G37*
X21715028Y47283392D02*
X21714794Y47015323D01*
X21894820Y46579628D01*
X22015000Y46459238D01*
X22015000Y45750005D01*
X22014999Y45750000D01*
X22064728Y45500000D01*
X22082367Y45411325D01*
X22152560Y45306273D01*
X22152560Y44800000D01*
X22196838Y44564683D01*
X22335910Y44348559D01*
X22548110Y44203569D01*
X22800000Y44152560D01*
X24000000Y44152560D01*
X24235317Y44196838D01*
X24451441Y44335910D01*
X24499134Y44405711D01*
X24535910Y44348559D01*
X24748110Y44203569D01*
X25000000Y44152560D01*
X25437282Y44152560D01*
X26964821Y42625021D01*
X27219494Y42454855D01*
X27519900Y42395100D01*
X29884942Y42395100D01*
X25745603Y38255761D01*
X25594921Y38155079D01*
X13814842Y26375000D01*
X6794717Y26375000D01*
X6736894Y26514943D01*
X6277363Y26975278D01*
X5676648Y27224716D01*
X5026205Y27225284D01*
X4425057Y26976894D01*
X3964722Y26517363D01*
X3715284Y25916648D01*
X3714716Y25266205D01*
X3773582Y25123740D01*
X3185000Y24535158D01*
X3185000Y32917468D01*
X4127073Y32917468D01*
X4225736Y32650613D01*
X4835461Y32424092D01*
X5485460Y32448144D01*
X5974264Y32650613D01*
X6072927Y32917468D01*
X5100000Y33890395D01*
X4127073Y32917468D01*
X3185000Y32917468D01*
X3185000Y33443420D01*
X3476288Y33734708D01*
X3478144Y33684540D01*
X3680613Y33195736D01*
X3947468Y33097073D01*
X4920395Y34070000D01*
X5279605Y34070000D01*
X6252532Y33097073D01*
X6519387Y33195736D01*
X6745908Y33805461D01*
X6721856Y34455460D01*
X6519387Y34944264D01*
X6252532Y35042927D01*
X5279605Y34070000D01*
X4920395Y34070000D01*
X4906253Y34084142D01*
X5085858Y34263747D01*
X5100000Y34249605D01*
X6072927Y35222532D01*
X6059836Y35257938D01*
X6485278Y35682637D01*
X6502869Y35725000D01*
X8809995Y35725000D01*
X8810000Y35724999D01*
X9092484Y35781190D01*
X9148675Y35792367D01*
X9435790Y35984210D01*
X9435791Y35984211D01*
X12104139Y38652560D01*
X12400000Y38652560D01*
X12635317Y38696838D01*
X12851441Y38835910D01*
X12899134Y38905711D01*
X12935910Y38848559D01*
X13148110Y38703569D01*
X13400000Y38652560D01*
X14600000Y38652560D01*
X14631378Y38658464D01*
X15294921Y37994921D01*
X15549593Y37824755D01*
X15850000Y37765000D01*
X18220000Y37765000D01*
X18520407Y37824755D01*
X18775079Y37994921D01*
X19653510Y38873352D01*
X19793352Y38815284D01*
X20443795Y38814716D01*
X21044943Y39063106D01*
X21505278Y39522637D01*
X21754716Y40123352D01*
X21755284Y40773795D01*
X21506894Y41374943D01*
X21047363Y41835278D01*
X20446648Y42084716D01*
X19796205Y42085284D01*
X19195057Y41836894D01*
X18767438Y41410022D01*
X18732532Y41422927D01*
X17759605Y40450000D01*
X17773748Y40435857D01*
X17594143Y40256252D01*
X17580000Y40270395D01*
X17565858Y40256252D01*
X17386253Y40435857D01*
X17400395Y40450000D01*
X16427468Y41422927D01*
X16160613Y41324264D01*
X15934092Y40714539D01*
X15958144Y40064540D01*
X16160613Y39575736D01*
X16427466Y39477074D01*
X16313186Y39362794D01*
X16340980Y39335000D01*
X16175158Y39335000D01*
X15232904Y40277254D01*
X15203162Y40435317D01*
X15064090Y40651441D01*
X14851890Y40796431D01*
X14600000Y40847440D01*
X13400000Y40847440D01*
X13164683Y40803162D01*
X12948559Y40664090D01*
X12900866Y40594289D01*
X12864090Y40651441D01*
X12651890Y40796431D01*
X12400000Y40847440D01*
X11200000Y40847440D01*
X10964683Y40803162D01*
X10748559Y40664090D01*
X10603569Y40451890D01*
X10552560Y40200000D01*
X10552560Y39612718D01*
X8434842Y37495000D01*
X6503398Y37495000D01*
X6486894Y37534943D01*
X6420379Y37601574D01*
X6551441Y37685910D01*
X6696431Y37898110D01*
X6747440Y38150000D01*
X6747440Y38265000D01*
X6849995Y38265000D01*
X6850000Y38264999D01*
X7166092Y38327875D01*
X7188675Y38332367D01*
X7475790Y38524210D01*
X10554111Y41602532D01*
X16607073Y41602532D01*
X17580000Y40629605D01*
X18552927Y41602532D01*
X18454264Y41869387D01*
X17844539Y42095908D01*
X17194540Y42071856D01*
X16705736Y41869387D01*
X16607073Y41602532D01*
X10554111Y41602532D01*
X10883475Y41931896D01*
X10998110Y41853569D01*
X11250000Y41802560D01*
X12450000Y41802560D01*
X12685317Y41846838D01*
X12901441Y41985910D01*
X12949134Y42055711D01*
X12985910Y41998559D01*
X13198110Y41853569D01*
X13450000Y41802560D01*
X14650000Y41802560D01*
X14885317Y41846838D01*
X15101441Y41985910D01*
X15189644Y42115000D01*
X19300000Y42115000D01*
X19600407Y42174755D01*
X19855079Y42344921D01*
X20625079Y43114921D01*
X20668630Y43180100D01*
X20795245Y43369594D01*
X20855000Y43670000D01*
X20855000Y44205283D01*
X20994943Y44263106D01*
X21455278Y44722637D01*
X21704716Y45323352D01*
X21705284Y45973795D01*
X21456894Y46574943D01*
X20997363Y47035278D01*
X20396648Y47284716D01*
X19746205Y47285284D01*
X19145057Y47036894D01*
X18717438Y46610022D01*
X18682532Y46622927D01*
X17709605Y45650000D01*
X18682532Y44677073D01*
X18717938Y44690164D01*
X19142637Y44264722D01*
X19285000Y44205608D01*
X19285000Y43995158D01*
X18974842Y43685000D01*
X15189018Y43685000D01*
X15114090Y43801441D01*
X14901890Y43946431D01*
X14650000Y43997440D01*
X13450000Y43997440D01*
X13214683Y43953162D01*
X12998559Y43814090D01*
X12950866Y43744289D01*
X12914090Y43801441D01*
X12735000Y43923808D01*
X12735000Y44497468D01*
X16557073Y44497468D01*
X16655736Y44230613D01*
X17265461Y44004092D01*
X17915460Y44028144D01*
X18404264Y44230613D01*
X18502927Y44497468D01*
X17530000Y45470395D01*
X16557073Y44497468D01*
X12735000Y44497468D01*
X12735000Y45914539D01*
X15884092Y45914539D01*
X15908144Y45264540D01*
X16110613Y44775736D01*
X16377468Y44677073D01*
X17350395Y45650000D01*
X16377468Y46622927D01*
X16110613Y46524264D01*
X15884092Y45914539D01*
X12735000Y45914539D01*
X12735000Y46802532D01*
X16557073Y46802532D01*
X17530000Y45829605D01*
X18502927Y46802532D01*
X18404264Y47069387D01*
X17794539Y47295908D01*
X17144540Y47271856D01*
X16655736Y47069387D01*
X16557073Y46802532D01*
X12735000Y46802532D01*
X12735000Y47665000D01*
X21333420Y47665000D01*
X21715028Y47283392D01*
G36*
X38281821Y34408021D02*
X41604654Y31085189D01*
X41496205Y31085284D01*
X41353740Y31026418D01*
X40575079Y31805079D01*
X40320407Y31975245D01*
X40020000Y32035000D01*
X38800000Y32035000D01*
X38499593Y31975245D01*
X38244921Y31805079D01*
X37574842Y31135000D01*
X36647440Y31135000D01*
X36647440Y31536228D01*
X36698690Y31515000D01*
X36914250Y31515000D01*
X37073000Y31673750D01*
X37073000Y32623000D01*
X37327000Y32623000D01*
X37327000Y31673750D01*
X37485750Y31515000D01*
X37701310Y31515000D01*
X37934699Y31611673D01*
X38113327Y31790302D01*
X38210000Y32023691D01*
X38210000Y32464250D01*
X38051250Y32623000D01*
X37327000Y32623000D01*
X37073000Y32623000D01*
X37053000Y32623000D01*
X37053000Y32877000D01*
X37073000Y32877000D01*
X37073000Y32897000D01*
X37327000Y32897000D01*
X37327000Y32877000D01*
X38051250Y32877000D01*
X38210000Y33035750D01*
X38210000Y33476309D01*
X38113327Y33709698D01*
X38111957Y33711068D01*
X38171431Y33798110D01*
X38222440Y34050000D01*
X38222440Y34496891D01*
X38281821Y34408021D01*
X38281821Y34408021D01*
G37*
X38281821Y34408021D02*
X41604654Y31085189D01*
X41496205Y31085284D01*
X41353740Y31026418D01*
X40575079Y31805079D01*
X40320407Y31975245D01*
X40020000Y32035000D01*
X38800000Y32035000D01*
X38499593Y31975245D01*
X38244921Y31805079D01*
X37574842Y31135000D01*
X36647440Y31135000D01*
X36647440Y31536228D01*
X36698690Y31515000D01*
X36914250Y31515000D01*
X37073000Y31673750D01*
X37073000Y32623000D01*
X37327000Y32623000D01*
X37327000Y31673750D01*
X37485750Y31515000D01*
X37701310Y31515000D01*
X37934699Y31611673D01*
X38113327Y31790302D01*
X38210000Y32023691D01*
X38210000Y32464250D01*
X38051250Y32623000D01*
X37327000Y32623000D01*
X37073000Y32623000D01*
X37053000Y32623000D01*
X37053000Y32877000D01*
X37073000Y32877000D01*
X37073000Y32897000D01*
X37327000Y32897000D01*
X37327000Y32877000D01*
X38051250Y32877000D01*
X38210000Y33035750D01*
X38210000Y33476309D01*
X38113327Y33709698D01*
X38111957Y33711068D01*
X38171431Y33798110D01*
X38222440Y34050000D01*
X38222440Y34496891D01*
X38281821Y34408021D01*
G36*
X38097810Y46878659D02*
X38228145Y46789605D01*
X38322650Y46695100D01*
X38438210Y46695100D01*
X38458653Y46703568D01*
X38561900Y46682660D01*
X39111900Y46682660D01*
X39241489Y46707044D01*
X39361900Y46682660D01*
X39911900Y46682660D01*
X40041489Y46707044D01*
X40161900Y46682660D01*
X40711900Y46682660D01*
X40841489Y46707044D01*
X40961900Y46682660D01*
X41511900Y46682660D01*
X41641489Y46707044D01*
X41761900Y46682660D01*
X42311900Y46682660D01*
X42441489Y46707044D01*
X42561900Y46682660D01*
X43111900Y46682660D01*
X43146354Y46689143D01*
X43139460Y46655100D01*
X43139460Y46105100D01*
X43163844Y45975511D01*
X43139460Y45855100D01*
X43139460Y45305100D01*
X43163844Y45175511D01*
X43139460Y45055100D01*
X43139460Y44505100D01*
X43163844Y44375511D01*
X43139460Y44255100D01*
X43139460Y43705100D01*
X43163844Y43575511D01*
X43139460Y43455100D01*
X43139460Y42905100D01*
X43163844Y42775511D01*
X43139460Y42655100D01*
X43139460Y42105100D01*
X43163844Y41975511D01*
X43139460Y41855100D01*
X43139460Y41305100D01*
X43159350Y41199395D01*
X43151900Y41181410D01*
X43151900Y41065850D01*
X43248301Y40969449D01*
X43322810Y40853659D01*
X43430297Y40780216D01*
X43335459Y40719190D01*
X43246405Y40588855D01*
X43151900Y40494350D01*
X43151900Y40378790D01*
X43160368Y40358347D01*
X43139460Y40255100D01*
X43139460Y39705100D01*
X43163844Y39575511D01*
X43139460Y39455100D01*
X43139460Y39170698D01*
X36421900Y45888258D01*
X36421900Y46682660D01*
X36711900Y46682660D01*
X36841489Y46707044D01*
X36961900Y46682660D01*
X37511900Y46682660D01*
X37617605Y46702550D01*
X37635590Y46695100D01*
X37751150Y46695100D01*
X37847551Y46791501D01*
X37963341Y46866010D01*
X38036784Y46973497D01*
X38097810Y46878659D01*
X38097810Y46878659D01*
G37*
X38097810Y46878659D02*
X38228145Y46789605D01*
X38322650Y46695100D01*
X38438210Y46695100D01*
X38458653Y46703568D01*
X38561900Y46682660D01*
X39111900Y46682660D01*
X39241489Y46707044D01*
X39361900Y46682660D01*
X39911900Y46682660D01*
X40041489Y46707044D01*
X40161900Y46682660D01*
X40711900Y46682660D01*
X40841489Y46707044D01*
X40961900Y46682660D01*
X41511900Y46682660D01*
X41641489Y46707044D01*
X41761900Y46682660D01*
X42311900Y46682660D01*
X42441489Y46707044D01*
X42561900Y46682660D01*
X43111900Y46682660D01*
X43146354Y46689143D01*
X43139460Y46655100D01*
X43139460Y46105100D01*
X43163844Y45975511D01*
X43139460Y45855100D01*
X43139460Y45305100D01*
X43163844Y45175511D01*
X43139460Y45055100D01*
X43139460Y44505100D01*
X43163844Y44375511D01*
X43139460Y44255100D01*
X43139460Y43705100D01*
X43163844Y43575511D01*
X43139460Y43455100D01*
X43139460Y42905100D01*
X43163844Y42775511D01*
X43139460Y42655100D01*
X43139460Y42105100D01*
X43163844Y41975511D01*
X43139460Y41855100D01*
X43139460Y41305100D01*
X43159350Y41199395D01*
X43151900Y41181410D01*
X43151900Y41065850D01*
X43248301Y40969449D01*
X43322810Y40853659D01*
X43430297Y40780216D01*
X43335459Y40719190D01*
X43246405Y40588855D01*
X43151900Y40494350D01*
X43151900Y40378790D01*
X43160368Y40358347D01*
X43139460Y40255100D01*
X43139460Y39705100D01*
X43163844Y39575511D01*
X43139460Y39455100D01*
X43139460Y39170698D01*
X36421900Y45888258D01*
X36421900Y46682660D01*
X36711900Y46682660D01*
X36841489Y46707044D01*
X36961900Y46682660D01*
X37511900Y46682660D01*
X37617605Y46702550D01*
X37635590Y46695100D01*
X37751150Y46695100D01*
X37847551Y46791501D01*
X37963341Y46866010D01*
X38036784Y46973497D01*
X38097810Y46878659D01*
G36*
X51303953Y40035891D02*
X51229628Y40005180D01*
X51109238Y39885000D01*
X49514250Y39885000D01*
X49426250Y39973000D01*
X48477000Y39973000D01*
X48477000Y39953000D01*
X48223000Y39953000D01*
X48223000Y39973000D01*
X48203000Y39973000D01*
X48203000Y40227000D01*
X48223000Y40227000D01*
X48223000Y40247000D01*
X48477000Y40247000D01*
X48477000Y40227000D01*
X49426250Y40227000D01*
X49585000Y40385750D01*
X49585000Y40601310D01*
X49488327Y40834699D01*
X49309698Y41013327D01*
X49305683Y41014990D01*
X50324854Y41014990D01*
X51303953Y40035891D01*
X51303953Y40035891D01*
G37*
X51303953Y40035891D02*
X51229628Y40005180D01*
X51109238Y39885000D01*
X49514250Y39885000D01*
X49426250Y39973000D01*
X48477000Y39973000D01*
X48477000Y39953000D01*
X48223000Y39953000D01*
X48223000Y39973000D01*
X48203000Y39973000D01*
X48203000Y40227000D01*
X48223000Y40227000D01*
X48223000Y40247000D01*
X48477000Y40247000D01*
X48477000Y40227000D01*
X49426250Y40227000D01*
X49585000Y40385750D01*
X49585000Y40601310D01*
X49488327Y40834699D01*
X49309698Y41013327D01*
X49305683Y41014990D01*
X50324854Y41014990D01*
X51303953Y40035891D01*
G36*
X84358954Y43934742D02*
X84479003Y43697000D01*
X85723000Y43697000D01*
X85723000Y43717000D01*
X85977000Y43717000D01*
X85977000Y43697000D01*
X85997000Y43697000D01*
X85997000Y43443000D01*
X85977000Y43443000D01*
X85977000Y43423000D01*
X85723000Y43423000D01*
X85723000Y43443000D01*
X84479003Y43443000D01*
X84358954Y43205258D01*
X84426676Y43060000D01*
X80634802Y43060000D01*
X81614802Y44040000D01*
X84408027Y44040000D01*
X84358954Y43934742D01*
X84358954Y43934742D01*
G37*
X84358954Y43934742D02*
X84479003Y43697000D01*
X85723000Y43697000D01*
X85723000Y43717000D01*
X85977000Y43717000D01*
X85977000Y43697000D01*
X85997000Y43697000D01*
X85997000Y43443000D01*
X85977000Y43443000D01*
X85977000Y43423000D01*
X85723000Y43423000D01*
X85723000Y43443000D01*
X84479003Y43443000D01*
X84358954Y43205258D01*
X84426676Y43060000D01*
X80634802Y43060000D01*
X81614802Y44040000D01*
X84408027Y44040000D01*
X84358954Y43934742D01*
G36*
X27977000Y46327000D02*
X27997000Y46327000D01*
X27997000Y46073000D01*
X27977000Y46073000D01*
X27977000Y45348750D01*
X28017765Y45307985D01*
X28015000Y45301310D01*
X28015000Y45085750D01*
X28173750Y44927000D01*
X29123000Y44927000D01*
X29123000Y44947000D01*
X29377000Y44947000D01*
X29377000Y44927000D01*
X29397000Y44927000D01*
X29397000Y44673000D01*
X29377000Y44673000D01*
X29377000Y44653000D01*
X29123000Y44653000D01*
X29123000Y44673000D01*
X28173750Y44673000D01*
X28015000Y44514250D01*
X28015000Y44298690D01*
X28111673Y44065301D01*
X28211875Y43965100D01*
X27845058Y43965100D01*
X26847440Y44962718D01*
X26847440Y45329535D01*
X26890302Y45286673D01*
X27123691Y45190000D01*
X27564250Y45190000D01*
X27723000Y45348750D01*
X27723000Y46073000D01*
X27703000Y46073000D01*
X27703000Y46327000D01*
X27723000Y46327000D01*
X27723000Y46347000D01*
X27977000Y46347000D01*
X27977000Y46327000D01*
X27977000Y46327000D01*
G37*
X27977000Y46327000D02*
X27997000Y46327000D01*
X27997000Y46073000D01*
X27977000Y46073000D01*
X27977000Y45348750D01*
X28017765Y45307985D01*
X28015000Y45301310D01*
X28015000Y45085750D01*
X28173750Y44927000D01*
X29123000Y44927000D01*
X29123000Y44947000D01*
X29377000Y44947000D01*
X29377000Y44927000D01*
X29397000Y44927000D01*
X29397000Y44673000D01*
X29377000Y44673000D01*
X29377000Y44653000D01*
X29123000Y44653000D01*
X29123000Y44673000D01*
X28173750Y44673000D01*
X28015000Y44514250D01*
X28015000Y44298690D01*
X28111673Y44065301D01*
X28211875Y43965100D01*
X27845058Y43965100D01*
X26847440Y44962718D01*
X26847440Y45329535D01*
X26890302Y45286673D01*
X27123691Y45190000D01*
X27564250Y45190000D01*
X27723000Y45348750D01*
X27723000Y46073000D01*
X27703000Y46073000D01*
X27703000Y46327000D01*
X27723000Y46327000D01*
X27723000Y46347000D01*
X27977000Y46347000D01*
X27977000Y46327000D01*
G36*
X50502560Y46550000D02*
X50546838Y46314683D01*
X50630511Y46184651D01*
X50598559Y46164090D01*
X50453569Y45951890D01*
X50402560Y45700000D01*
X50402560Y45112718D01*
X50374842Y45085000D01*
X48453000Y45085000D01*
X48453000Y45327000D01*
X48473000Y45327000D01*
X48473000Y45698750D01*
X48523000Y45748750D01*
X48523000Y46051250D01*
X48727000Y46051250D01*
X48727000Y45327000D01*
X49676250Y45327000D01*
X49835000Y45485750D01*
X49835000Y45701310D01*
X49773298Y45850272D01*
X49788327Y45865301D01*
X49885000Y46098690D01*
X49885000Y46314250D01*
X49726250Y46473000D01*
X48777000Y46473000D01*
X48777000Y46101250D01*
X48727000Y46051250D01*
X48523000Y46051250D01*
X48523000Y46473000D01*
X48503000Y46473000D01*
X48503000Y46715000D01*
X50502560Y46715000D01*
X50502560Y46550000D01*
X50502560Y46550000D01*
G37*
X50502560Y46550000D02*
X50546838Y46314683D01*
X50630511Y46184651D01*
X50598559Y46164090D01*
X50453569Y45951890D01*
X50402560Y45700000D01*
X50402560Y45112718D01*
X50374842Y45085000D01*
X48453000Y45085000D01*
X48453000Y45327000D01*
X48473000Y45327000D01*
X48473000Y45698750D01*
X48523000Y45748750D01*
X48523000Y46051250D01*
X48727000Y46051250D01*
X48727000Y45327000D01*
X49676250Y45327000D01*
X49835000Y45485750D01*
X49835000Y45701310D01*
X49773298Y45850272D01*
X49788327Y45865301D01*
X49885000Y46098690D01*
X49885000Y46314250D01*
X49726250Y46473000D01*
X48777000Y46473000D01*
X48777000Y46101250D01*
X48727000Y46051250D01*
X48523000Y46051250D01*
X48523000Y46473000D01*
X48503000Y46473000D01*
X48503000Y46715000D01*
X50502560Y46715000D01*
X50502560Y46550000D01*
G36*
X66454737Y62724868D02*
X67500000Y61679605D01*
X68545263Y62724868D01*
X68529209Y62765000D01*
X68811405Y62765000D01*
X68529996Y62484082D01*
X68435063Y62255458D01*
X67679605Y61500000D01*
X68434744Y60744861D01*
X68528281Y60518485D01*
X69015918Y60029996D01*
X69265000Y59926568D01*
X69265000Y58712630D01*
X69214683Y58703162D01*
X68998559Y58564090D01*
X68853569Y58351890D01*
X68802560Y58100000D01*
X68802560Y57200000D01*
X68846838Y56964683D01*
X68985910Y56748559D01*
X69198110Y56603569D01*
X69265000Y56590023D01*
X69265000Y50975158D01*
X69024842Y50735000D01*
X64650000Y50735000D01*
X64349594Y50675245D01*
X64094921Y50505079D01*
X59324842Y45735000D01*
X58571192Y45735000D01*
X58464090Y45901441D01*
X58251890Y46046431D01*
X58204036Y46056122D01*
X58160158Y46100000D01*
X58205079Y46144921D01*
X58301734Y46289576D01*
X58451441Y46385910D01*
X58596431Y46598110D01*
X58647440Y46850000D01*
X58647440Y46865000D01*
X59700000Y46865000D01*
X60000407Y46924755D01*
X60255079Y47094921D01*
X65555079Y52394921D01*
X65725245Y52649594D01*
X65785000Y52950000D01*
X65785000Y53666303D01*
X65814708Y53666303D01*
X66070694Y53046771D01*
X66544278Y52572360D01*
X67163362Y52315293D01*
X67833697Y52314708D01*
X68453229Y52570694D01*
X68927640Y53044278D01*
X69184707Y53663362D01*
X69185292Y54333697D01*
X68929306Y54953229D01*
X68455722Y55427640D01*
X67836638Y55684707D01*
X67166303Y55685292D01*
X66546771Y55429306D01*
X66072360Y54955722D01*
X65815293Y54336638D01*
X65814708Y53666303D01*
X65785000Y53666303D01*
X65785000Y56296778D01*
X65785317Y56296838D01*
X66001441Y56435910D01*
X66146431Y56648110D01*
X66197440Y56900000D01*
X66197440Y57800000D01*
X66153162Y58035317D01*
X66014090Y58251441D01*
X65801890Y58396431D01*
X65735000Y58409977D01*
X65735000Y59926423D01*
X65981515Y60028281D01*
X66228797Y60275132D01*
X66454737Y60275132D01*
X66565641Y59997901D01*
X67211593Y59754677D01*
X67901453Y59777164D01*
X68434359Y59997901D01*
X68545263Y60275132D01*
X67500000Y61320395D01*
X66454737Y60275132D01*
X66228797Y60275132D01*
X66470004Y60515918D01*
X66564937Y60744542D01*
X67320395Y61500000D01*
X66565256Y62255139D01*
X66471719Y62481515D01*
X66188728Y62765000D01*
X66470791Y62765000D01*
X66454737Y62724868D01*
X66454737Y62724868D01*
G37*
X66454737Y62724868D02*
X67500000Y61679605D01*
X68545263Y62724868D01*
X68529209Y62765000D01*
X68811405Y62765000D01*
X68529996Y62484082D01*
X68435063Y62255458D01*
X67679605Y61500000D01*
X68434744Y60744861D01*
X68528281Y60518485D01*
X69015918Y60029996D01*
X69265000Y59926568D01*
X69265000Y58712630D01*
X69214683Y58703162D01*
X68998559Y58564090D01*
X68853569Y58351890D01*
X68802560Y58100000D01*
X68802560Y57200000D01*
X68846838Y56964683D01*
X68985910Y56748559D01*
X69198110Y56603569D01*
X69265000Y56590023D01*
X69265000Y50975158D01*
X69024842Y50735000D01*
X64650000Y50735000D01*
X64349594Y50675245D01*
X64094921Y50505079D01*
X59324842Y45735000D01*
X58571192Y45735000D01*
X58464090Y45901441D01*
X58251890Y46046431D01*
X58204036Y46056122D01*
X58160158Y46100000D01*
X58205079Y46144921D01*
X58301734Y46289576D01*
X58451441Y46385910D01*
X58596431Y46598110D01*
X58647440Y46850000D01*
X58647440Y46865000D01*
X59700000Y46865000D01*
X60000407Y46924755D01*
X60255079Y47094921D01*
X65555079Y52394921D01*
X65725245Y52649594D01*
X65785000Y52950000D01*
X65785000Y53666303D01*
X65814708Y53666303D01*
X66070694Y53046771D01*
X66544278Y52572360D01*
X67163362Y52315293D01*
X67833697Y52314708D01*
X68453229Y52570694D01*
X68927640Y53044278D01*
X69184707Y53663362D01*
X69185292Y54333697D01*
X68929306Y54953229D01*
X68455722Y55427640D01*
X67836638Y55684707D01*
X67166303Y55685292D01*
X66546771Y55429306D01*
X66072360Y54955722D01*
X65815293Y54336638D01*
X65814708Y53666303D01*
X65785000Y53666303D01*
X65785000Y56296778D01*
X65785317Y56296838D01*
X66001441Y56435910D01*
X66146431Y56648110D01*
X66197440Y56900000D01*
X66197440Y57800000D01*
X66153162Y58035317D01*
X66014090Y58251441D01*
X65801890Y58396431D01*
X65735000Y58409977D01*
X65735000Y59926423D01*
X65981515Y60028281D01*
X66228797Y60275132D01*
X66454737Y60275132D01*
X66565641Y59997901D01*
X67211593Y59754677D01*
X67901453Y59777164D01*
X68434359Y59997901D01*
X68545263Y60275132D01*
X67500000Y61320395D01*
X66454737Y60275132D01*
X66228797Y60275132D01*
X66470004Y60515918D01*
X66564937Y60744542D01*
X67320395Y61500000D01*
X66565256Y62255139D01*
X66471719Y62481515D01*
X66188728Y62765000D01*
X66470791Y62765000D01*
X66454737Y62724868D01*
G36*
X50494820Y51629628D02*
X50827875Y51295991D01*
X51263255Y51115206D01*
X51433363Y51115057D01*
X53557526Y48990895D01*
X53644820Y48779628D01*
X53977875Y48445991D01*
X54413255Y48265206D01*
X54884677Y48264794D01*
X54926756Y48282181D01*
X54803569Y48101890D01*
X54792715Y48048289D01*
X54550000Y48097440D01*
X53350000Y48097440D01*
X53114683Y48053162D01*
X52898559Y47914090D01*
X52850866Y47844289D01*
X52814090Y47901441D01*
X52601890Y48046431D01*
X52350000Y48097440D01*
X51741681Y48097440D01*
X51550407Y48225245D01*
X51250000Y48285000D01*
X47850000Y48285000D01*
X47549593Y48225245D01*
X47294921Y48055079D01*
X46862282Y47622440D01*
X46150000Y47622440D01*
X45914683Y47578162D01*
X45698559Y47439090D01*
X45560343Y47236804D01*
X45538790Y47251531D01*
X45286900Y47302540D01*
X43786900Y47302540D01*
X43752446Y47296057D01*
X43759340Y47330100D01*
X43759340Y47345100D01*
X45295788Y47345100D01*
X45577060Y47401049D01*
X45815511Y47560377D01*
X50316450Y52061315D01*
X50494820Y51629628D01*
X50494820Y51629628D01*
G37*
X50494820Y51629628D02*
X50827875Y51295991D01*
X51263255Y51115206D01*
X51433363Y51115057D01*
X53557526Y48990895D01*
X53644820Y48779628D01*
X53977875Y48445991D01*
X54413255Y48265206D01*
X54884677Y48264794D01*
X54926756Y48282181D01*
X54803569Y48101890D01*
X54792715Y48048289D01*
X54550000Y48097440D01*
X53350000Y48097440D01*
X53114683Y48053162D01*
X52898559Y47914090D01*
X52850866Y47844289D01*
X52814090Y47901441D01*
X52601890Y48046431D01*
X52350000Y48097440D01*
X51741681Y48097440D01*
X51550407Y48225245D01*
X51250000Y48285000D01*
X47850000Y48285000D01*
X47549593Y48225245D01*
X47294921Y48055079D01*
X46862282Y47622440D01*
X46150000Y47622440D01*
X45914683Y47578162D01*
X45698559Y47439090D01*
X45560343Y47236804D01*
X45538790Y47251531D01*
X45286900Y47302540D01*
X43786900Y47302540D01*
X43752446Y47296057D01*
X43759340Y47330100D01*
X43759340Y47345100D01*
X45295788Y47345100D01*
X45577060Y47401049D01*
X45815511Y47560377D01*
X50316450Y52061315D01*
X50494820Y51629628D01*
G36*
X45145558Y50685004D02*
X42938552Y50685004D01*
X43454798Y51140000D01*
X45600554Y51140000D01*
X45145558Y50685004D01*
X45145558Y50685004D01*
G37*
X45145558Y50685004D02*
X42938552Y50685004D01*
X43454798Y51140000D01*
X45600554Y51140000D01*
X45145558Y50685004D01*
G36*
X61946838Y64764683D02*
X62085910Y64548559D01*
X62298110Y64403569D01*
X62550000Y64352560D01*
X63342402Y64352560D01*
X60694921Y61705079D01*
X60524755Y61450407D01*
X60487875Y61265000D01*
X60483662Y61243820D01*
X56024842Y56785000D01*
X53864250Y56785000D01*
X53826250Y56823000D01*
X53782537Y56823000D01*
X53601890Y56946431D01*
X53588803Y56949081D01*
X53787594Y57077000D01*
X53826250Y57077000D01*
X53985000Y57235750D01*
X53985000Y57374842D01*
X54275157Y57665000D01*
X54350000Y57665000D01*
X54650407Y57724755D01*
X54905079Y57894921D01*
X61905079Y64894921D01*
X61918541Y64915068D01*
X61946838Y64764683D01*
X61946838Y64764683D01*
G37*
X61946838Y64764683D02*
X62085910Y64548559D01*
X62298110Y64403569D01*
X62550000Y64352560D01*
X63342402Y64352560D01*
X60694921Y61705079D01*
X60524755Y61450407D01*
X60487875Y61265000D01*
X60483662Y61243820D01*
X56024842Y56785000D01*
X53864250Y56785000D01*
X53826250Y56823000D01*
X53782537Y56823000D01*
X53601890Y56946431D01*
X53588803Y56949081D01*
X53787594Y57077000D01*
X53826250Y57077000D01*
X53985000Y57235750D01*
X53985000Y57374842D01*
X54275157Y57665000D01*
X54350000Y57665000D01*
X54650407Y57724755D01*
X54905079Y57894921D01*
X61905079Y64894921D01*
X61918541Y64915068D01*
X61946838Y64764683D01*
M02*
