%TF.GenerationSoftware,KiCad,Pcbnew,4.0.4+dfsg1-stable*%
%TF.CreationDate,2017-06-27T11:27:39+02:00*%
%TF.ProjectId,power,706F7765722E6B696361645F70636200,rev?*%
%TF.FileFunction,Copper,L2,Bot,Signal*%
%FSLAX46Y46*%
G04 Gerber Fmt 4.6, Leading zero omitted, Abs format (unit mm)*
G04 Created by KiCad (PCBNEW 4.0.4+dfsg1-stable) date Tue Jun 27 11:27:39 2017*
%MOMM*%
%LPD*%
G01*
G04 APERTURE LIST*
%ADD10C,0.100000*%
%ADD11C,0.300000*%
%ADD12R,0.750000X1.200000*%
%ADD13R,0.900000X1.200000*%
%ADD14C,1.500000*%
%ADD15R,1.500000X1.500000*%
%ADD16R,1.200000X0.750000*%
%ADD17C,2.100000*%
%ADD18R,1.300000X0.600000*%
%ADD19R,1.200000X0.900000*%
%ADD20R,0.600000X1.300000*%
%ADD21C,3.000000*%
%ADD22R,1.800000X3.400000*%
%ADD23R,3.400000X1.800000*%
%ADD24R,2.500000X2.500000*%
%ADD25C,2.500000*%
%ADD26R,2.000000X2.000000*%
%ADD27C,2.000000*%
%ADD28R,1.300000X1.500000*%
%ADD29C,2.200000*%
%ADD30R,1.780000X1.520000*%
%ADD31R,0.508000X1.143000*%
%ADD32R,1.143000X0.508000*%
%ADD33R,1.200000X0.600000*%
%ADD34C,1.600000*%
%ADD35R,1.600000X1.600000*%
%ADD36C,0.700000*%
%ADD37C,0.254000*%
G04 APERTURE END LIST*
D10*
D11*
X81678571Y61846429D02*
X81678571Y60632143D01*
X81607143Y60489286D01*
X81535714Y60417857D01*
X81392857Y60346429D01*
X81107143Y60346429D01*
X80964285Y60417857D01*
X80892857Y60489286D01*
X80821428Y60632143D01*
X80821428Y61846429D01*
X79249999Y60346429D02*
X79749999Y61060714D01*
X80107142Y60346429D02*
X80107142Y61846429D01*
X79535714Y61846429D01*
X79392856Y61775000D01*
X79321428Y61703571D01*
X79249999Y61560714D01*
X79249999Y61346429D01*
X79321428Y61203571D01*
X79392856Y61132143D01*
X79535714Y61060714D01*
X80107142Y61060714D01*
X77464285Y61346429D02*
X77464285Y60346429D01*
X77464285Y61203571D02*
X77392857Y61275000D01*
X77249999Y61346429D01*
X77035714Y61346429D01*
X76892857Y61275000D01*
X76821428Y61132143D01*
X76821428Y60346429D01*
X75464285Y60346429D02*
X75464285Y61132143D01*
X75535714Y61275000D01*
X75678571Y61346429D01*
X75964285Y61346429D01*
X76107142Y61275000D01*
X75464285Y60417857D02*
X75607142Y60346429D01*
X75964285Y60346429D01*
X76107142Y60417857D01*
X76178571Y60560714D01*
X76178571Y60703571D01*
X76107142Y60846429D01*
X75964285Y60917857D01*
X75607142Y60917857D01*
X75464285Y60989286D01*
X74749999Y61346429D02*
X74749999Y59846429D01*
X74749999Y61275000D02*
X74607142Y61346429D01*
X74321428Y61346429D01*
X74178571Y61275000D01*
X74107142Y61203571D01*
X74035713Y61060714D01*
X74035713Y60632143D01*
X74107142Y60489286D01*
X74178571Y60417857D01*
X74321428Y60346429D01*
X74607142Y60346429D01*
X74749999Y60417857D01*
X73392856Y60489286D02*
X73321428Y60417857D01*
X73392856Y60346429D01*
X73464285Y60417857D01*
X73392856Y60489286D01*
X73392856Y60346429D01*
X71535713Y60346429D02*
X71535713Y61846429D01*
X71392856Y60917857D02*
X70964285Y60346429D01*
X70964285Y61346429D02*
X71535713Y60775000D01*
X69678570Y60346429D02*
X69678570Y61132143D01*
X69749999Y61275000D01*
X69892856Y61346429D01*
X70178570Y61346429D01*
X70321427Y61275000D01*
X69678570Y60417857D02*
X69821427Y60346429D01*
X70178570Y60346429D01*
X70321427Y60417857D01*
X70392856Y60560714D01*
X70392856Y60703571D01*
X70321427Y60846429D01*
X70178570Y60917857D01*
X69821427Y60917857D01*
X69678570Y60989286D01*
X68749998Y60346429D02*
X68892856Y60417857D01*
X68964284Y60560714D01*
X68964284Y61846429D01*
X68178570Y60489286D02*
X68107142Y60417857D01*
X68178570Y60346429D01*
X68249999Y60417857D01*
X68178570Y60489286D01*
X68178570Y60346429D01*
X66464284Y61346429D02*
X66107141Y60346429D01*
X65749999Y61346429D01*
X64392856Y60346429D02*
X65249999Y60346429D01*
X64821427Y60346429D02*
X64821427Y61846429D01*
X64964284Y61632143D01*
X65107142Y61489286D01*
X65249999Y61417857D01*
X63749999Y60489286D02*
X63678571Y60417857D01*
X63749999Y60346429D01*
X63821428Y60417857D01*
X63749999Y60489286D01*
X63749999Y60346429D01*
X62249999Y60346429D02*
X63107142Y60346429D01*
X62678570Y60346429D02*
X62678570Y61846429D01*
X62821427Y61632143D01*
X62964285Y61489286D01*
X63107142Y61417857D01*
X79392855Y58582143D02*
X79892855Y58582143D01*
X79892855Y57796429D02*
X79892855Y59296429D01*
X79178569Y59296429D01*
X78035713Y57867857D02*
X78178570Y57796429D01*
X78464284Y57796429D01*
X78607141Y57867857D01*
X78678570Y58010714D01*
X78678570Y58582143D01*
X78607141Y58725000D01*
X78464284Y58796429D01*
X78178570Y58796429D01*
X78035713Y58725000D01*
X77964284Y58582143D01*
X77964284Y58439286D01*
X78678570Y58296429D01*
X77321427Y57796429D02*
X77321427Y59296429D01*
X77321427Y58725000D02*
X77178570Y58796429D01*
X76892856Y58796429D01*
X76749999Y58725000D01*
X76678570Y58653571D01*
X76607141Y58510714D01*
X76607141Y58082143D01*
X76678570Y57939286D01*
X76749999Y57867857D01*
X76892856Y57796429D01*
X77178570Y57796429D01*
X77321427Y57867857D01*
X75964284Y57796429D02*
X75964284Y58796429D01*
X75964284Y58510714D02*
X75892856Y58653571D01*
X75821427Y58725000D01*
X75678570Y58796429D01*
X75535713Y58796429D01*
X74392856Y58796429D02*
X74392856Y57796429D01*
X75035713Y58796429D02*
X75035713Y58010714D01*
X74964285Y57867857D01*
X74821427Y57796429D01*
X74607142Y57796429D01*
X74464285Y57867857D01*
X74392856Y57939286D01*
X73035713Y57796429D02*
X73035713Y58582143D01*
X73107142Y58725000D01*
X73249999Y58796429D01*
X73535713Y58796429D01*
X73678570Y58725000D01*
X73035713Y57867857D02*
X73178570Y57796429D01*
X73535713Y57796429D01*
X73678570Y57867857D01*
X73749999Y58010714D01*
X73749999Y58153571D01*
X73678570Y58296429D01*
X73535713Y58367857D01*
X73178570Y58367857D01*
X73035713Y58439286D01*
X72321427Y57796429D02*
X72321427Y58796429D01*
X72321427Y58510714D02*
X72249999Y58653571D01*
X72178570Y58725000D01*
X72035713Y58796429D01*
X71892856Y58796429D01*
X70321428Y59153571D02*
X70249999Y59225000D01*
X70107142Y59296429D01*
X69749999Y59296429D01*
X69607142Y59225000D01*
X69535713Y59153571D01*
X69464285Y59010714D01*
X69464285Y58867857D01*
X69535713Y58653571D01*
X70392856Y57796429D01*
X69464285Y57796429D01*
X68535714Y59296429D02*
X68392857Y59296429D01*
X68250000Y59225000D01*
X68178571Y59153571D01*
X68107142Y59010714D01*
X68035714Y58725000D01*
X68035714Y58367857D01*
X68107142Y58082143D01*
X68178571Y57939286D01*
X68250000Y57867857D01*
X68392857Y57796429D01*
X68535714Y57796429D01*
X68678571Y57867857D01*
X68750000Y57939286D01*
X68821428Y58082143D01*
X68892857Y58367857D01*
X68892857Y58725000D01*
X68821428Y59010714D01*
X68750000Y59153571D01*
X68678571Y59225000D01*
X68535714Y59296429D01*
X66607143Y57796429D02*
X67464286Y57796429D01*
X67035714Y57796429D02*
X67035714Y59296429D01*
X67178571Y59082143D01*
X67321429Y58939286D01*
X67464286Y58867857D01*
X66107143Y59296429D02*
X65107143Y59296429D01*
X65750000Y57796429D01*
D12*
X63800000Y19470000D03*
X63800000Y21370000D03*
D13*
X83890000Y13000000D03*
X83890000Y10800000D03*
D12*
X61730000Y8550000D03*
X61730000Y6650000D03*
D14*
X87430000Y18380000D03*
D15*
X87430000Y23380000D03*
D12*
X65980000Y14610000D03*
X65980000Y12710000D03*
X58600000Y16450000D03*
X58600000Y14550000D03*
X54000000Y25780000D03*
X54000000Y23880000D03*
D16*
X48800000Y6500000D03*
X50700000Y6500000D03*
X38455000Y9065000D03*
X36555000Y9065000D03*
X44725000Y4675000D03*
X42825000Y4675000D03*
D12*
X52420000Y25780000D03*
X52420000Y23880000D03*
D16*
X40035000Y11825000D03*
X38135000Y11825000D03*
X46505000Y12185000D03*
X44605000Y12185000D03*
D12*
X46610000Y25260000D03*
X46610000Y23360000D03*
X55250000Y9700000D03*
X55250000Y7800000D03*
D17*
X71010000Y22730000D03*
X73510000Y27230000D03*
X75510000Y20230000D03*
X78010000Y24730000D03*
D18*
X86290000Y12610000D03*
X88790000Y12610000D03*
D19*
X20200000Y18500000D03*
X22400000Y18500000D03*
D20*
X61620000Y18980000D03*
X61620000Y21480000D03*
D19*
X20200000Y16900000D03*
X22400000Y16900000D03*
X20200000Y15300000D03*
X22400000Y15300000D03*
X20200000Y13700000D03*
X22400000Y13700000D03*
D18*
X48500000Y8750000D03*
X51000000Y8750000D03*
D21*
X35984000Y73772000D03*
X30904000Y73772000D03*
X15744000Y73772000D03*
X20824000Y73772000D03*
D22*
X77950000Y13690000D03*
X81150000Y13690000D03*
X55320000Y19860000D03*
X58520000Y19860000D03*
D23*
X49500000Y14350000D03*
X49500000Y11150000D03*
D24*
X7500000Y53000000D03*
D25*
X7500000Y47920000D03*
X7500000Y42840000D03*
D24*
X7500000Y35000000D03*
D25*
X7500000Y29920000D03*
D26*
X22300000Y6600000D03*
D27*
X24840000Y6600000D03*
X27380000Y6600000D03*
X29920000Y6600000D03*
D17*
X19768000Y63806000D03*
X19768000Y56306000D03*
D14*
X35190000Y32490000D03*
X35190000Y40990000D03*
X39820000Y32710000D03*
X39820000Y41210000D03*
D28*
X29500000Y25150000D03*
X29500000Y27850000D03*
D14*
X25864000Y55924000D03*
X25864000Y47424000D03*
D13*
X63430000Y6270000D03*
X63430000Y8470000D03*
D19*
X26400000Y18500000D03*
X24200000Y18500000D03*
X26400000Y16900000D03*
X24200000Y16900000D03*
X26400000Y15300000D03*
X24200000Y15300000D03*
X26400000Y13700000D03*
X24200000Y13700000D03*
X36255000Y7505000D03*
X38455000Y7505000D03*
X50860000Y21370000D03*
X48660000Y21370000D03*
X44435000Y13795000D03*
X42235000Y13795000D03*
X40325000Y13555000D03*
X38125000Y13555000D03*
D29*
X60750000Y72650000D03*
X90750000Y72650000D03*
X65750000Y40150000D03*
X60750000Y40150000D03*
X85750000Y40150000D03*
X90750000Y40150000D03*
D30*
X35760000Y29590000D03*
X38300000Y29590000D03*
X38300000Y20090000D03*
X35760000Y20090000D03*
D31*
X64305000Y16725000D03*
X63035000Y16725000D03*
X61765000Y16725000D03*
X60495000Y16725000D03*
X60495000Y10375000D03*
X61765000Y10375000D03*
X63035000Y10375000D03*
X64305000Y10375000D03*
D32*
X46680000Y6480000D03*
X46680000Y7750000D03*
X46680000Y9020000D03*
X46680000Y10290000D03*
X40330000Y10290000D03*
X40330000Y9020000D03*
X40330000Y7750000D03*
X40330000Y6480000D03*
D33*
X50810000Y25260000D03*
X50810000Y24310000D03*
X50810000Y23360000D03*
X48510000Y23360000D03*
X48510000Y25260000D03*
D27*
X26750000Y63500000D03*
X41750000Y63500000D03*
D14*
X38758000Y48118000D03*
X31258000Y48118000D03*
X31766000Y55484000D03*
X39266000Y55484000D03*
X18300000Y40434000D03*
X25300000Y40434000D03*
X18300000Y32434000D03*
X25300000Y32434000D03*
D26*
X7500000Y14500000D03*
D27*
X7500000Y17040000D03*
X7500000Y19580000D03*
D26*
X7500000Y11000000D03*
D27*
X7500000Y8460000D03*
X7500000Y5920000D03*
D34*
X74500000Y11300000D03*
D35*
X74500000Y13800000D03*
D34*
X61480000Y24360000D03*
D35*
X58980000Y24360000D03*
D34*
X53100000Y7300000D03*
D35*
X53100000Y9800000D03*
D19*
X30650000Y20000000D03*
X32850000Y20000000D03*
D27*
X19000000Y12000000D03*
X35500000Y11750000D03*
X53000000Y21500000D03*
X17750000Y14250000D03*
X29750000Y15300000D03*
X48750000Y27250000D03*
X46000000Y20500000D03*
X17250000Y17000000D03*
X32250000Y17000000D03*
D36*
X44725000Y4675000D02*
X44925000Y4675000D01*
X44925000Y4675000D02*
X45500000Y5250000D01*
X45500000Y5250000D02*
X45500000Y5300000D01*
X44725000Y4675000D02*
X45150000Y4250000D01*
X46680000Y6480000D02*
X46680000Y7750000D01*
X45150000Y4250000D02*
X49500000Y4250000D01*
X49500000Y4250000D02*
X49750000Y4500000D01*
X71250000Y4500000D02*
X49750000Y4500000D01*
X77950000Y13690000D02*
X77950000Y11200000D01*
X77950000Y11200000D02*
X71250000Y4500000D01*
X48800000Y5450000D02*
X48800000Y6500000D01*
X49750000Y4500000D02*
X48800000Y5450000D01*
X46680000Y7750000D02*
X48250000Y7750000D01*
X48250000Y7750000D02*
X48775000Y7225000D01*
X48775000Y7225000D02*
X48775000Y6925002D01*
X44725000Y4675000D02*
X44875000Y4675000D01*
X44875000Y4675000D02*
X45500000Y5300000D01*
X45500000Y5300000D02*
X46680000Y6480000D01*
X63800000Y19470000D02*
X63800000Y18300000D01*
X63035000Y17535000D02*
X63035000Y16725000D01*
X63800000Y18300000D02*
X63035000Y17535000D01*
X64775000Y16725000D02*
X64775000Y18495000D01*
X64775000Y18495000D02*
X63800000Y19470000D01*
X65980000Y14610000D02*
X65980000Y15520000D01*
X64775000Y16725000D02*
X64305000Y16725000D01*
X65980000Y15520000D02*
X64775000Y16725000D01*
X65980000Y14610000D02*
X67110000Y14610000D01*
X67110000Y14610000D02*
X68660000Y16160000D01*
X77950000Y13690000D02*
X74450000Y13690000D01*
X68660000Y16160000D02*
X71980000Y16160000D01*
X74450000Y13690000D02*
X71980000Y16160000D01*
X38125000Y13555000D02*
X38125000Y12825000D01*
X38100000Y12800000D02*
X38125000Y12800000D01*
X38125000Y12825000D02*
X38100000Y12800000D01*
X51000000Y8750000D02*
X51000000Y8300000D01*
X51000000Y8300000D02*
X52000000Y7300000D01*
X53100000Y7300000D02*
X52000000Y7300000D01*
X52000000Y7300000D02*
X51500000Y7300000D01*
X51500000Y7300000D02*
X50700000Y6500000D01*
X55250000Y7800000D02*
X53600000Y7800000D01*
X53600000Y7800000D02*
X53100000Y7300000D01*
X20200000Y13700000D02*
X20200000Y13200000D01*
X20200000Y13200000D02*
X19000000Y12000000D01*
X20200000Y18500000D02*
X20200000Y13700000D01*
X38135000Y11825000D02*
X35575000Y11825000D01*
X35575000Y11825000D02*
X35500000Y11750000D01*
X38125000Y12800000D02*
X38125000Y11835000D01*
X38125000Y11835000D02*
X38135000Y11825000D01*
X40330000Y7750000D02*
X38700000Y7750000D01*
X38700000Y7750000D02*
X38455000Y7505000D01*
X40330000Y6480000D02*
X40330000Y7750000D01*
X42825000Y4675000D02*
X42135000Y4675000D01*
X42135000Y4675000D02*
X40330000Y6480000D01*
X46610000Y22390000D02*
X46610000Y23360000D01*
X48660000Y21370000D02*
X47630000Y21370000D01*
X46610000Y22390000D02*
X46610000Y23360000D01*
X47630000Y21370000D02*
X46610000Y22390000D01*
X52420000Y23880000D02*
X52420000Y22080000D01*
X52420000Y22080000D02*
X53000000Y21500000D01*
X52420000Y23880000D02*
X54000000Y23880000D01*
X50810000Y24310000D02*
X51990000Y24310000D01*
X51990000Y24310000D02*
X52420000Y23880000D01*
X61620000Y21480000D02*
X61620000Y24220000D01*
X61620000Y24220000D02*
X61480000Y24360000D01*
X63800000Y21370000D02*
X61730000Y21370000D01*
X61730000Y21370000D02*
X61620000Y21480000D01*
X63430000Y8470000D02*
X63430000Y9980000D01*
X63430000Y9980000D02*
X63035000Y10375000D01*
X63035000Y10375000D02*
X64305000Y10375000D01*
X64305000Y10375000D02*
X64305000Y11035000D01*
X64305000Y11035000D02*
X65980000Y12710000D01*
X83890000Y13000000D02*
X81840000Y13000000D01*
X81840000Y13000000D02*
X81150000Y13690000D01*
X86290000Y12610000D02*
X84280000Y12610000D01*
X84280000Y12610000D02*
X83890000Y13000000D01*
X61765000Y10375000D02*
X61765000Y8585000D01*
X61765000Y8585000D02*
X61730000Y8550000D01*
X63430000Y6270000D02*
X62110000Y6270000D01*
X62110000Y6270000D02*
X61730000Y6650000D01*
X87430000Y18380000D02*
X87430000Y17070000D01*
X88790000Y15710000D02*
X88790000Y12610000D01*
X87430000Y17070000D02*
X88790000Y15710000D01*
X87430000Y18380000D02*
X77360000Y18380000D01*
X77360000Y18380000D02*
X75510000Y20230000D01*
X71010000Y22730000D02*
X71010000Y23490000D01*
X71010000Y23490000D02*
X60750000Y33750000D01*
X60750000Y33750000D02*
X60750000Y40150000D01*
X60750000Y40150000D02*
X59350000Y40150000D01*
X58290000Y41210000D02*
X39820000Y41210000D01*
X59350000Y40150000D02*
X58290000Y41210000D01*
X58600000Y16450000D02*
X60220000Y16450000D01*
X60220000Y16450000D02*
X60495000Y16725000D01*
X58600000Y14550000D02*
X60800000Y14550000D01*
X61765000Y15515000D02*
X61765000Y16725000D01*
X60800000Y14550000D02*
X61765000Y15515000D01*
X61620000Y18980000D02*
X59400000Y18980000D01*
X59400000Y18980000D02*
X58520000Y19860000D01*
X61765000Y16725000D02*
X61765000Y18835000D01*
X61765000Y18835000D02*
X61620000Y18980000D01*
X58980000Y24360000D02*
X56480000Y24360000D01*
X17500000Y14500000D02*
X7500000Y14500000D01*
X17750000Y14250000D02*
X17500000Y14500000D01*
X40500000Y17000000D02*
X35750000Y17000000D01*
X54000000Y27250000D02*
X53750000Y27500000D01*
X53750000Y27500000D02*
X49000000Y27500000D01*
X49000000Y27500000D02*
X48750000Y27250000D01*
X46000000Y20500000D02*
X42500000Y17000000D01*
X42500000Y17000000D02*
X40500000Y17000000D01*
X54000000Y25780000D02*
X54000000Y27250000D01*
X34050000Y15300000D02*
X29750000Y15300000D01*
X29750000Y15300000D02*
X26400000Y15300000D01*
X35750000Y17000000D02*
X34050000Y15300000D01*
X57000000Y16500000D02*
X57000000Y18180000D01*
X57000000Y18180000D02*
X55320000Y19860000D01*
X50860000Y21370000D02*
X50860000Y23359998D01*
X50860000Y23359998D02*
X50810000Y23409998D01*
X50810000Y23409998D02*
X50810000Y23360000D01*
X55320000Y19860000D02*
X52370000Y19860000D01*
X52370000Y19860000D02*
X50860000Y21370000D01*
X50810000Y25260000D02*
X51010000Y25260000D01*
X51010000Y25260000D02*
X51530000Y25780000D01*
X51530000Y25780000D02*
X52420000Y25780000D01*
X54750000Y25780000D02*
X52420000Y25780000D01*
X56480000Y24360000D02*
X56480000Y24520000D01*
X56480000Y24520000D02*
X55220000Y25780000D01*
X55220000Y25780000D02*
X54750000Y25780000D01*
X54750000Y25780000D02*
X54000000Y25780000D01*
X57000000Y13750000D02*
X60375000Y10375000D01*
X57000000Y16750000D02*
X57000000Y16500000D01*
X57000000Y16500000D02*
X57000000Y13750000D01*
X60375000Y10375000D02*
X60495000Y10375000D01*
X56480000Y24360000D02*
X56480000Y21020000D01*
X56480000Y21020000D02*
X55320000Y19860000D01*
X38455000Y9065000D02*
X40285000Y9065000D01*
X40285000Y9065000D02*
X40330000Y9020000D01*
X36255000Y7505000D02*
X36255000Y8765000D01*
X36255000Y8765000D02*
X36555000Y9065000D01*
X40035000Y11825000D02*
X40035000Y13265000D01*
X40035000Y13265000D02*
X40325000Y13555000D01*
X40330000Y10290000D02*
X40330000Y11530000D01*
X40330000Y11530000D02*
X40035000Y11825000D01*
X42235000Y13795000D02*
X40565000Y13795000D01*
X40565000Y13795000D02*
X40325000Y13555000D01*
X46680000Y10290000D02*
X46680000Y12010000D01*
X46680000Y12010000D02*
X46505000Y12185000D01*
X44605000Y12185000D02*
X44605000Y10145000D01*
X45730000Y9020000D02*
X46680000Y9020000D01*
X44605000Y10145000D02*
X45730000Y9020000D01*
X49500000Y11150000D02*
X49500000Y9750000D01*
X49500000Y9750000D02*
X48500000Y8750000D01*
X46680000Y9020000D02*
X48230000Y9020000D01*
X48230000Y9020000D02*
X48500000Y8750000D01*
X7500000Y11000000D02*
X6000000Y11000000D01*
X6290000Y17040000D02*
X7500000Y17040000D01*
X5250000Y16000000D02*
X6290000Y17040000D01*
X5250000Y11750000D02*
X5250000Y16000000D01*
X6000000Y11000000D02*
X5250000Y11750000D01*
X17210000Y17040000D02*
X7500000Y17040000D01*
X17250000Y17000000D02*
X17210000Y17040000D01*
X30750000Y17000000D02*
X30750000Y16900000D01*
X32150000Y17000000D02*
X30750000Y17000000D01*
X32250000Y16900000D02*
X32150000Y17000000D01*
X32250000Y17000000D02*
X32250000Y16900000D01*
X26400000Y16900000D02*
X30750000Y16900000D01*
X30750000Y16900000D02*
X32900000Y16900000D01*
X32900000Y16900000D02*
X35760000Y19760000D01*
X35760000Y19760000D02*
X35760000Y20090000D01*
X35760000Y20090000D02*
X35760000Y19740000D01*
X35760000Y19740000D02*
X37000000Y18500000D01*
X45760000Y25260000D02*
X46610000Y25260000D01*
X45250000Y24750000D02*
X45760000Y25260000D01*
X45250000Y23750000D02*
X45250000Y24750000D01*
X43250000Y21750000D02*
X45250000Y23750000D01*
X43250000Y21250000D02*
X43250000Y21750000D01*
X40500000Y18500000D02*
X43250000Y21250000D01*
X37000000Y18500000D02*
X40500000Y18500000D01*
X35760000Y20090000D02*
X35840000Y20090000D01*
X48510000Y25260000D02*
X46610000Y25260000D01*
X53100000Y9800000D02*
X53100000Y10000000D01*
X53100000Y10000000D02*
X54025000Y10925000D01*
X53100000Y9800000D02*
X55150000Y9800000D01*
X55150000Y9800000D02*
X55200000Y9750000D01*
X55200000Y9750000D02*
X55250000Y9700000D01*
X55200000Y9750000D02*
X55250000Y9700000D01*
X26400000Y13700000D02*
X26400000Y13400000D01*
X26400000Y13400000D02*
X22300000Y9300000D01*
X22300000Y9300000D02*
X22300000Y6600000D01*
X26600000Y13500000D02*
X34000000Y13500000D01*
X55250000Y12500000D02*
X51500000Y16250000D01*
X51500000Y16250000D02*
X48000000Y16250000D01*
X48000000Y16250000D02*
X47250000Y15500000D01*
X47250000Y15500000D02*
X37750000Y15500000D01*
X37750000Y15500000D02*
X35750000Y13500000D01*
X35750000Y13500000D02*
X34000000Y13500000D01*
X55250000Y12500000D02*
X55250000Y9700000D01*
X26600000Y13500000D02*
X26400000Y13700000D01*
X49500000Y14350000D02*
X44990000Y14350000D01*
X44990000Y14350000D02*
X44435000Y13795000D01*
X53000000Y12250000D02*
X53000000Y11950000D01*
X53000000Y11950000D02*
X54025000Y10925000D01*
X54025000Y10925000D02*
X55250000Y9700000D01*
X53000000Y12250000D02*
X51750000Y13500000D01*
X51750000Y13500000D02*
X50350000Y13500000D01*
X50350000Y13500000D02*
X49500000Y14350000D01*
X78010000Y24730000D02*
X78010000Y25510000D01*
X78010000Y25510000D02*
X90750000Y38250000D01*
X90750000Y38250000D02*
X90750000Y40150000D01*
X35190000Y40990000D02*
X35190000Y41190000D01*
X35190000Y41190000D02*
X37750000Y43750000D01*
X37750000Y43750000D02*
X87150000Y43750000D01*
X87150000Y43750000D02*
X90750000Y40150000D01*
X24200000Y18500000D02*
X22400000Y18500000D01*
X22400000Y16900000D02*
X24200000Y16900000D01*
X22400000Y15300000D02*
X24200000Y15300000D01*
X22400000Y13700000D02*
X24200000Y13700000D01*
X19768000Y63806000D02*
X19768000Y60732000D01*
X22500000Y44634000D02*
X18300000Y40434000D01*
X22500000Y58000000D02*
X22500000Y44634000D01*
X19768000Y60732000D02*
X22500000Y58000000D01*
X35984000Y73772000D02*
X30904000Y73772000D01*
X30904000Y73772000D02*
X20132000Y63000000D01*
X20132000Y63000000D02*
X20132000Y63442000D01*
X20132000Y63442000D02*
X19768000Y63806000D01*
X30904000Y73772000D02*
X30904000Y73404000D01*
X30904000Y73772000D02*
X29734000Y73772000D01*
X15744000Y73772000D02*
X20824000Y73772000D01*
X7500000Y53000000D02*
X11500000Y53000000D01*
X15744000Y57244000D02*
X15744000Y73772000D01*
X11500000Y53000000D02*
X15744000Y57244000D01*
X26750000Y63500000D02*
X30000000Y63500000D01*
X88150000Y75250000D02*
X90750000Y72650000D01*
X41750000Y75250000D02*
X88150000Y75250000D01*
X30000000Y63500000D02*
X41750000Y75250000D01*
X25864000Y47424000D02*
X25864000Y49386000D01*
X24000000Y60750000D02*
X26750000Y63500000D01*
X24000000Y51250000D02*
X24000000Y60750000D01*
X25864000Y49386000D02*
X24000000Y51250000D01*
X25300000Y40434000D02*
X28684000Y40434000D01*
X36368000Y48118000D02*
X38758000Y48118000D01*
X28684000Y40434000D02*
X36368000Y48118000D01*
X7500000Y35000000D02*
X12500000Y35000000D01*
X21500000Y36634000D02*
X25300000Y40434000D01*
X21500000Y32000000D02*
X21500000Y36634000D01*
X19500000Y30000000D02*
X21500000Y32000000D01*
X17500000Y30000000D02*
X19500000Y30000000D01*
X12500000Y35000000D02*
X17500000Y30000000D01*
X25300000Y40434000D02*
X25300000Y46860000D01*
X25300000Y46860000D02*
X25864000Y47424000D01*
X33500000Y43000000D02*
X33750000Y43000000D01*
X32500000Y40000000D02*
X32500000Y42000000D01*
X32500000Y42000000D02*
X33500000Y43000000D01*
X39266000Y55484000D02*
X43500000Y51250000D01*
X32500000Y40000000D02*
X25300000Y32800000D01*
X43500000Y49000000D02*
X43500000Y51250000D01*
X39750000Y45250000D02*
X43500000Y49000000D01*
X36000000Y45250000D02*
X39750000Y45250000D01*
X33750000Y43000000D02*
X36000000Y45250000D01*
X60750000Y72650000D02*
X50900000Y72650000D01*
X50900000Y72650000D02*
X41750000Y63500000D01*
X25864000Y55924000D02*
X27424000Y55924000D01*
X35000000Y63500000D02*
X41750000Y63500000D01*
X27424000Y55924000D02*
X35000000Y63500000D01*
X39266000Y55484000D02*
X39266000Y61016000D01*
X39266000Y61016000D02*
X41750000Y63500000D01*
X25300000Y32434000D02*
X25300000Y32800000D01*
X25300000Y32434000D02*
X25300000Y31800000D01*
X25300000Y31800000D02*
X21500000Y28000000D01*
X21500000Y28000000D02*
X13500000Y28000000D01*
X13500000Y28000000D02*
X11580000Y29920000D01*
X11580000Y29920000D02*
X7500000Y29920000D01*
X19768000Y56306000D02*
X19768000Y52268000D01*
X15500000Y35234000D02*
X18300000Y32434000D01*
X15500000Y48000000D02*
X15500000Y35234000D01*
X19768000Y52268000D02*
X15500000Y48000000D01*
X7500000Y47920000D02*
X11382000Y47920000D01*
X11382000Y47920000D02*
X19768000Y56306000D01*
X26400000Y18500000D02*
X26400000Y19350000D01*
X5790000Y8460000D02*
X7500000Y8460000D01*
X4250000Y10000000D02*
X5790000Y8460000D01*
X4250000Y20250000D02*
X4250000Y10000000D01*
X5500000Y21500000D02*
X4250000Y20250000D01*
X24250000Y21500000D02*
X5500000Y21500000D01*
X26400000Y19350000D02*
X24250000Y21500000D01*
X33100000Y20000000D02*
X33100000Y19850000D01*
X33100000Y19850000D02*
X31750000Y18500000D01*
X31750000Y18500000D02*
X26400000Y18500000D01*
X38300000Y20090000D02*
X38300000Y20200000D01*
X38300000Y20200000D02*
X36750000Y21750000D01*
X34500000Y21750000D02*
X33100000Y20350000D01*
X36750000Y21750000D02*
X34500000Y21750000D01*
X33100000Y20350000D02*
X33100000Y20000000D01*
X38410000Y20200000D02*
X38300000Y20090000D01*
X35190000Y32490000D02*
X35190000Y30160000D01*
X35190000Y30160000D02*
X35760000Y29590000D01*
X39820000Y32710000D02*
X39820000Y31110000D01*
X39820000Y31110000D02*
X38300000Y29590000D01*
X85750000Y40150000D02*
X65750000Y40150000D01*
D37*
G36*
X106790000Y31202993D02*
X85289115Y31396115D01*
X91446500Y37553500D01*
X91660021Y37873057D01*
X91735000Y38250000D01*
X91735000Y38681760D01*
X92220004Y39165918D01*
X92484699Y39803373D01*
X92485301Y40493599D01*
X92221719Y41131515D01*
X91734082Y41620004D01*
X91096627Y41884699D01*
X90407700Y41885300D01*
X87846500Y44446500D01*
X87526943Y44660021D01*
X87150000Y44735000D01*
X40628000Y44735000D01*
X44196500Y48303500D01*
X44410021Y48623057D01*
X44485000Y49000000D01*
X44485000Y51250000D01*
X44410021Y51626943D01*
X44196500Y51946500D01*
X40651008Y55491992D01*
X40651240Y55758285D01*
X40540336Y56026695D01*
X48864674Y56026695D01*
X49151043Y55333628D01*
X49680839Y54802907D01*
X50373405Y54515328D01*
X51123305Y54514674D01*
X51816372Y54801043D01*
X52347093Y55330839D01*
X52634672Y56023405D01*
X52634674Y56026695D01*
X98864674Y56026695D01*
X99151043Y55333628D01*
X99680839Y54802907D01*
X100373405Y54515328D01*
X101123305Y54514674D01*
X101816372Y54801043D01*
X102347093Y55330839D01*
X102634672Y56023405D01*
X102635326Y56773305D01*
X102348957Y57466372D01*
X101819161Y57997093D01*
X101126595Y58284672D01*
X100376695Y58285326D01*
X99683628Y57998957D01*
X99152907Y57469161D01*
X98865328Y56776595D01*
X98864674Y56026695D01*
X52634674Y56026695D01*
X52635326Y56773305D01*
X52348957Y57466372D01*
X51819161Y57997093D01*
X51126595Y58284672D01*
X50376695Y58285326D01*
X49683628Y57998957D01*
X49152907Y57469161D01*
X48865328Y56776595D01*
X48864674Y56026695D01*
X40540336Y56026695D01*
X40440831Y56267515D01*
X40251000Y56457677D01*
X40251000Y60608000D01*
X41508211Y61865210D01*
X42073795Y61864716D01*
X42674943Y62113106D01*
X43135278Y62572637D01*
X43254601Y62860000D01*
X61329286Y62860000D01*
X61329286Y56490000D01*
X82670715Y56490000D01*
X82670715Y62860000D01*
X61329286Y62860000D01*
X43254601Y62860000D01*
X43384716Y63173352D01*
X43385213Y63742213D01*
X51308000Y71665000D01*
X59281760Y71665000D01*
X59765918Y71179996D01*
X60403373Y70915301D01*
X61093599Y70914699D01*
X61731515Y71178281D01*
X62220004Y71665918D01*
X62484699Y72303373D01*
X62485301Y72993599D01*
X62221719Y73631515D01*
X61734082Y74120004D01*
X61384894Y74265000D01*
X87742000Y74265000D01*
X89015297Y72991703D01*
X89014699Y72306401D01*
X89278281Y71668485D01*
X89765918Y71179996D01*
X90403373Y70915301D01*
X91093599Y70914699D01*
X91731515Y71178281D01*
X92220004Y71665918D01*
X92484699Y72303373D01*
X92485301Y72993599D01*
X92221719Y73631515D01*
X91734082Y74120004D01*
X91096627Y74384699D01*
X90407700Y74385300D01*
X88846500Y75946500D01*
X88526943Y76160021D01*
X88150000Y76235000D01*
X41750000Y76235000D01*
X41373057Y76160021D01*
X41053500Y75946500D01*
X37881577Y72774577D01*
X38118628Y73345459D01*
X38119370Y74194815D01*
X37795020Y74979800D01*
X37194959Y75580909D01*
X36410541Y75906628D01*
X35561185Y75907370D01*
X34776200Y75583020D01*
X34175091Y74982959D01*
X34081265Y74757000D01*
X32807079Y74757000D01*
X32715020Y74979800D01*
X32114959Y75580909D01*
X31330541Y75906628D01*
X30481185Y75907370D01*
X29696200Y75583020D01*
X29095091Y74982959D01*
X28769372Y74198541D01*
X28769088Y73872987D01*
X28749000Y73772000D01*
X28768912Y73671897D01*
X28768630Y73349185D01*
X28862062Y73123063D01*
X20848072Y65109072D01*
X20723722Y65233640D01*
X20104638Y65490707D01*
X19434303Y65491292D01*
X18814771Y65235306D01*
X18340360Y64761722D01*
X18083293Y64142638D01*
X18082708Y63472303D01*
X18338694Y62852771D01*
X18783000Y62407689D01*
X18783000Y60732000D01*
X18857979Y60355057D01*
X19071500Y60035500D01*
X21515000Y57592000D01*
X21515000Y45042000D01*
X18292008Y41819008D01*
X18025715Y41819240D01*
X17516485Y41608831D01*
X17126539Y41219564D01*
X16915241Y40710702D01*
X16914760Y40159715D01*
X17125169Y39650485D01*
X17514436Y39260539D01*
X18023298Y39049241D01*
X18574285Y39048760D01*
X19083515Y39259169D01*
X19473461Y39648436D01*
X19684759Y40157298D01*
X19684994Y40425994D01*
X23196500Y43937500D01*
X23410021Y44257057D01*
X23485000Y44634000D01*
X23485000Y50372000D01*
X24879000Y48978000D01*
X24879000Y48397697D01*
X24690539Y48209564D01*
X24479241Y47700702D01*
X24478952Y47370101D01*
X24389979Y47236943D01*
X24315000Y46860000D01*
X24315000Y41407697D01*
X24126539Y41219564D01*
X23915241Y40710702D01*
X23915006Y40442007D01*
X20803500Y37330500D01*
X20589979Y37010943D01*
X20515000Y36634000D01*
X20515000Y32408000D01*
X19092000Y30985000D01*
X17908000Y30985000D01*
X17716270Y31176730D01*
X18023298Y31049241D01*
X18574285Y31048760D01*
X19083515Y31259169D01*
X19473461Y31648436D01*
X19684759Y32157298D01*
X19685240Y32708285D01*
X19474831Y33217515D01*
X19085564Y33607461D01*
X18576702Y33818759D01*
X18308006Y33818994D01*
X16485000Y35642000D01*
X16485000Y47592000D01*
X20464500Y51571499D01*
X20678021Y51891057D01*
X20717589Y52089979D01*
X20753000Y52268000D01*
X20753000Y54908410D01*
X21195640Y55350278D01*
X21452707Y55969362D01*
X21453292Y56639697D01*
X21197306Y57259229D01*
X20723722Y57733640D01*
X20104638Y57990707D01*
X19434303Y57991292D01*
X18814771Y57735306D01*
X18340360Y57261722D01*
X18083293Y56642638D01*
X18082744Y56013744D01*
X10974000Y48905000D01*
X9132579Y48905000D01*
X9098957Y48986372D01*
X8569161Y49517093D01*
X7876595Y49804672D01*
X7126695Y49805326D01*
X6433628Y49518957D01*
X5902907Y48989161D01*
X5615328Y48296595D01*
X5614674Y47546695D01*
X5901043Y46853628D01*
X6430839Y46322907D01*
X7123405Y46035328D01*
X7873305Y46034674D01*
X8566372Y46321043D01*
X9097093Y46850839D01*
X9132040Y46935000D01*
X11382000Y46935000D01*
X11758943Y47009979D01*
X12078500Y47223500D01*
X18783000Y53928000D01*
X18783000Y52676001D01*
X14803500Y48696500D01*
X14589979Y48376943D01*
X14515000Y48000000D01*
X14515000Y35234000D01*
X14589979Y34857057D01*
X14803500Y34537500D01*
X16914992Y32426008D01*
X16914760Y32159715D01*
X17042542Y31850458D01*
X13196500Y35696500D01*
X12876943Y35910021D01*
X12500000Y35985000D01*
X9397440Y35985000D01*
X9397440Y36250000D01*
X9353162Y36485317D01*
X9214090Y36701441D01*
X9001890Y36846431D01*
X8750000Y36897440D01*
X6250000Y36897440D01*
X6014683Y36853162D01*
X5798559Y36714090D01*
X5653569Y36501890D01*
X5602560Y36250000D01*
X5602560Y33750000D01*
X5646838Y33514683D01*
X5785910Y33298559D01*
X5998110Y33153569D01*
X6250000Y33102560D01*
X8750000Y33102560D01*
X8985317Y33146838D01*
X9201441Y33285910D01*
X9346431Y33498110D01*
X9397440Y33750000D01*
X9397440Y34015000D01*
X12092000Y34015000D01*
X16803500Y29303500D01*
X17123057Y29089979D01*
X17500000Y29015000D01*
X19500000Y29015000D01*
X19876943Y29089979D01*
X20196500Y29303500D01*
X22196500Y31303500D01*
X22410021Y31623057D01*
X22485000Y32000000D01*
X22485000Y36226000D01*
X25307993Y39048992D01*
X25574285Y39048760D01*
X26083515Y39259169D01*
X26273677Y39449000D01*
X28684000Y39449000D01*
X29060943Y39523979D01*
X29380500Y39737500D01*
X31515000Y41872000D01*
X31515000Y40408000D01*
X24856197Y33749197D01*
X24516485Y33608831D01*
X24126539Y33219564D01*
X23915241Y32710702D01*
X23914760Y32159715D01*
X24017665Y31910666D01*
X21092000Y28985000D01*
X13908000Y28985000D01*
X12276500Y30616500D01*
X11956943Y30830021D01*
X11580000Y30905000D01*
X9132579Y30905000D01*
X9098957Y30986372D01*
X8569161Y31517093D01*
X7876595Y31804672D01*
X7126695Y31805326D01*
X6433628Y31518957D01*
X5902907Y30989161D01*
X5615328Y30296595D01*
X5614674Y29546695D01*
X5901043Y28853628D01*
X6430839Y28322907D01*
X7123405Y28035328D01*
X7873305Y28034674D01*
X8566372Y28321043D01*
X9097093Y28850839D01*
X9132040Y28935000D01*
X11172000Y28935000D01*
X12803500Y27303500D01*
X13123057Y27089979D01*
X13500000Y27015000D01*
X21500000Y27015000D01*
X21876943Y27089979D01*
X22196500Y27303500D01*
X23619309Y28726309D01*
X28215000Y28726309D01*
X28215000Y28135750D01*
X28373750Y27977000D01*
X29373000Y27977000D01*
X29373000Y29076250D01*
X29627000Y29076250D01*
X29627000Y27977000D01*
X30626250Y27977000D01*
X30785000Y28135750D01*
X30785000Y28726309D01*
X30688327Y28959698D01*
X30509699Y29138327D01*
X30276310Y29235000D01*
X29785750Y29235000D01*
X29627000Y29076250D01*
X29373000Y29076250D01*
X29214250Y29235000D01*
X28723690Y29235000D01*
X28490301Y29138327D01*
X28311673Y28959698D01*
X28215000Y28726309D01*
X23619309Y28726309D01*
X25996501Y31103500D01*
X26134568Y31310133D01*
X26473461Y31648436D01*
X26684759Y32157298D01*
X26685240Y32708285D01*
X26660693Y32767693D01*
X33196500Y39303500D01*
X33410021Y39623057D01*
X33485000Y40000000D01*
X33485000Y41592000D01*
X33947232Y42054232D01*
X34126943Y42089979D01*
X34446500Y42303500D01*
X36408001Y44265000D01*
X36872000Y44265000D01*
X34982182Y42375182D01*
X34915715Y42375240D01*
X34406485Y42164831D01*
X34016539Y41775564D01*
X33805241Y41266702D01*
X33804760Y40715715D01*
X34015169Y40206485D01*
X34404436Y39816539D01*
X34913298Y39605241D01*
X35464285Y39604760D01*
X35973515Y39815169D01*
X36363461Y40204436D01*
X36574759Y40713298D01*
X36575168Y41182168D01*
X38158000Y42765000D01*
X86742000Y42765000D01*
X89015297Y40491703D01*
X89014699Y39806401D01*
X89278281Y39168485D01*
X89765000Y38680916D01*
X89765000Y38658000D01*
X82527916Y31420916D01*
X64308436Y31584564D01*
X61735000Y34158000D01*
X61735000Y38681760D01*
X62220004Y39165918D01*
X62484699Y39803373D01*
X62484701Y39806401D01*
X64014699Y39806401D01*
X64278281Y39168485D01*
X64765918Y38679996D01*
X65403373Y38415301D01*
X66093599Y38414699D01*
X66731515Y38678281D01*
X67219084Y39165000D01*
X84281760Y39165000D01*
X84765918Y38679996D01*
X85403373Y38415301D01*
X86093599Y38414699D01*
X86731515Y38678281D01*
X87220004Y39165918D01*
X87484699Y39803373D01*
X87485301Y40493599D01*
X87221719Y41131515D01*
X86734082Y41620004D01*
X86096627Y41884699D01*
X85406401Y41885301D01*
X84768485Y41621719D01*
X84280916Y41135000D01*
X67218240Y41135000D01*
X66734082Y41620004D01*
X66096627Y41884699D01*
X65406401Y41885301D01*
X64768485Y41621719D01*
X64279996Y41134082D01*
X64015301Y40496627D01*
X64014699Y39806401D01*
X62484701Y39806401D01*
X62485301Y40493599D01*
X62221719Y41131515D01*
X61734082Y41620004D01*
X61096627Y41884699D01*
X60406401Y41885301D01*
X59768485Y41621719D01*
X59519666Y41373334D01*
X58986500Y41906500D01*
X58666943Y42120021D01*
X58290000Y42195000D01*
X40793697Y42195000D01*
X40605564Y42383461D01*
X40096702Y42594759D01*
X39545715Y42595240D01*
X39036485Y42384831D01*
X38646539Y41995564D01*
X38435241Y41486702D01*
X38434760Y40935715D01*
X38645169Y40426485D01*
X39034436Y40036539D01*
X39543298Y39825241D01*
X40094285Y39824760D01*
X40603515Y40035169D01*
X40793677Y40225000D01*
X57882000Y40225000D01*
X58653500Y39453500D01*
X58973057Y39239979D01*
X59273428Y39180231D01*
X59278281Y39168485D01*
X59765000Y38680916D01*
X59765000Y33750000D01*
X59839979Y33373057D01*
X60053500Y33053500D01*
X61497185Y31609815D01*
X40863943Y31795143D01*
X40993461Y31924436D01*
X41204759Y32433298D01*
X41205240Y32984285D01*
X40994831Y33493515D01*
X40605564Y33883461D01*
X40096702Y34094759D01*
X39545715Y34095240D01*
X39036485Y33884831D01*
X38646539Y33495564D01*
X38435241Y32986702D01*
X38434760Y32435715D01*
X38645169Y31926485D01*
X38757394Y31814065D01*
X36417709Y31835080D01*
X36574759Y32213298D01*
X36575240Y32764285D01*
X36364831Y33273515D01*
X35975564Y33663461D01*
X35466702Y33874759D01*
X34915715Y33875240D01*
X34406485Y33664831D01*
X34016539Y33275564D01*
X33805241Y32766702D01*
X33804760Y32215715D01*
X33952887Y31857219D01*
X31751141Y31876995D01*
X31701643Y31867433D01*
X31659764Y31839367D01*
X31625243Y31773763D01*
X30785000Y27362488D01*
X30785000Y27564250D01*
X30626250Y27723000D01*
X29627000Y27723000D01*
X29627000Y27703000D01*
X29373000Y27703000D01*
X29373000Y27723000D01*
X28373750Y27723000D01*
X28215000Y27564250D01*
X28215000Y26973691D01*
X28311673Y26740302D01*
X28424974Y26627000D01*
X710000Y26627000D01*
X710000Y41506680D01*
X6346285Y41506680D01*
X6475533Y41213877D01*
X7175806Y40945612D01*
X7925435Y40965750D01*
X8524467Y41213877D01*
X8653715Y41506680D01*
X7500000Y42660395D01*
X6346285Y41506680D01*
X710000Y41506680D01*
X710000Y43164194D01*
X5605612Y43164194D01*
X5625750Y42414565D01*
X5873877Y41815533D01*
X6166680Y41686285D01*
X7320395Y42840000D01*
X7679605Y42840000D01*
X8833320Y41686285D01*
X9126123Y41815533D01*
X9394388Y42515806D01*
X9374250Y43265435D01*
X9126123Y43864467D01*
X8833320Y43993715D01*
X7679605Y42840000D01*
X7320395Y42840000D01*
X6166680Y43993715D01*
X5873877Y43864467D01*
X5605612Y43164194D01*
X710000Y43164194D01*
X710000Y44173320D01*
X6346285Y44173320D01*
X7500000Y43019605D01*
X8653715Y44173320D01*
X8524467Y44466123D01*
X7824194Y44734388D01*
X7074565Y44714250D01*
X6475533Y44466123D01*
X6346285Y44173320D01*
X710000Y44173320D01*
X710000Y54250000D01*
X5602560Y54250000D01*
X5602560Y51750000D01*
X5646838Y51514683D01*
X5785910Y51298559D01*
X5998110Y51153569D01*
X6250000Y51102560D01*
X8750000Y51102560D01*
X8985317Y51146838D01*
X9201441Y51285910D01*
X9346431Y51498110D01*
X9397440Y51750000D01*
X9397440Y52015000D01*
X11500000Y52015000D01*
X11876943Y52089979D01*
X12196500Y52303500D01*
X16440500Y56547500D01*
X16654021Y56867057D01*
X16699851Y57097461D01*
X16729000Y57244000D01*
X16729000Y71868921D01*
X16951800Y71960980D01*
X17552909Y72561041D01*
X17646735Y72787000D01*
X18920921Y72787000D01*
X19012980Y72564200D01*
X19613041Y71963091D01*
X20397459Y71637372D01*
X21246815Y71636630D01*
X22031800Y71960980D01*
X22632909Y72561041D01*
X22958628Y73345459D01*
X22959370Y74194815D01*
X22635020Y74979800D01*
X22034959Y75580909D01*
X21250541Y75906628D01*
X20401185Y75907370D01*
X19616200Y75583020D01*
X19015091Y74982959D01*
X18921265Y74757000D01*
X17647079Y74757000D01*
X17555020Y74979800D01*
X16954959Y75580909D01*
X16170541Y75906628D01*
X15321185Y75907370D01*
X14536200Y75583020D01*
X13935091Y74982959D01*
X13609372Y74198541D01*
X13608630Y73349185D01*
X13932980Y72564200D01*
X14533041Y71963091D01*
X14759000Y71869265D01*
X14759000Y57652000D01*
X11092000Y53985000D01*
X9397440Y53985000D01*
X9397440Y54250000D01*
X9353162Y54485317D01*
X9214090Y54701441D01*
X9001890Y54846431D01*
X8750000Y54897440D01*
X6250000Y54897440D01*
X6014683Y54853162D01*
X5798559Y54714090D01*
X5653569Y54501890D01*
X5602560Y54250000D01*
X710000Y54250000D01*
X710000Y81790000D01*
X106790000Y81790000D01*
X106790000Y31202993D01*
X106790000Y31202993D01*
G37*
X106790000Y31202993D02*
X85289115Y31396115D01*
X91446500Y37553500D01*
X91660021Y37873057D01*
X91735000Y38250000D01*
X91735000Y38681760D01*
X92220004Y39165918D01*
X92484699Y39803373D01*
X92485301Y40493599D01*
X92221719Y41131515D01*
X91734082Y41620004D01*
X91096627Y41884699D01*
X90407700Y41885300D01*
X87846500Y44446500D01*
X87526943Y44660021D01*
X87150000Y44735000D01*
X40628000Y44735000D01*
X44196500Y48303500D01*
X44410021Y48623057D01*
X44485000Y49000000D01*
X44485000Y51250000D01*
X44410021Y51626943D01*
X44196500Y51946500D01*
X40651008Y55491992D01*
X40651240Y55758285D01*
X40540336Y56026695D01*
X48864674Y56026695D01*
X49151043Y55333628D01*
X49680839Y54802907D01*
X50373405Y54515328D01*
X51123305Y54514674D01*
X51816372Y54801043D01*
X52347093Y55330839D01*
X52634672Y56023405D01*
X52634674Y56026695D01*
X98864674Y56026695D01*
X99151043Y55333628D01*
X99680839Y54802907D01*
X100373405Y54515328D01*
X101123305Y54514674D01*
X101816372Y54801043D01*
X102347093Y55330839D01*
X102634672Y56023405D01*
X102635326Y56773305D01*
X102348957Y57466372D01*
X101819161Y57997093D01*
X101126595Y58284672D01*
X100376695Y58285326D01*
X99683628Y57998957D01*
X99152907Y57469161D01*
X98865328Y56776595D01*
X98864674Y56026695D01*
X52634674Y56026695D01*
X52635326Y56773305D01*
X52348957Y57466372D01*
X51819161Y57997093D01*
X51126595Y58284672D01*
X50376695Y58285326D01*
X49683628Y57998957D01*
X49152907Y57469161D01*
X48865328Y56776595D01*
X48864674Y56026695D01*
X40540336Y56026695D01*
X40440831Y56267515D01*
X40251000Y56457677D01*
X40251000Y60608000D01*
X41508211Y61865210D01*
X42073795Y61864716D01*
X42674943Y62113106D01*
X43135278Y62572637D01*
X43254601Y62860000D01*
X61329286Y62860000D01*
X61329286Y56490000D01*
X82670715Y56490000D01*
X82670715Y62860000D01*
X61329286Y62860000D01*
X43254601Y62860000D01*
X43384716Y63173352D01*
X43385213Y63742213D01*
X51308000Y71665000D01*
X59281760Y71665000D01*
X59765918Y71179996D01*
X60403373Y70915301D01*
X61093599Y70914699D01*
X61731515Y71178281D01*
X62220004Y71665918D01*
X62484699Y72303373D01*
X62485301Y72993599D01*
X62221719Y73631515D01*
X61734082Y74120004D01*
X61384894Y74265000D01*
X87742000Y74265000D01*
X89015297Y72991703D01*
X89014699Y72306401D01*
X89278281Y71668485D01*
X89765918Y71179996D01*
X90403373Y70915301D01*
X91093599Y70914699D01*
X91731515Y71178281D01*
X92220004Y71665918D01*
X92484699Y72303373D01*
X92485301Y72993599D01*
X92221719Y73631515D01*
X91734082Y74120004D01*
X91096627Y74384699D01*
X90407700Y74385300D01*
X88846500Y75946500D01*
X88526943Y76160021D01*
X88150000Y76235000D01*
X41750000Y76235000D01*
X41373057Y76160021D01*
X41053500Y75946500D01*
X37881577Y72774577D01*
X38118628Y73345459D01*
X38119370Y74194815D01*
X37795020Y74979800D01*
X37194959Y75580909D01*
X36410541Y75906628D01*
X35561185Y75907370D01*
X34776200Y75583020D01*
X34175091Y74982959D01*
X34081265Y74757000D01*
X32807079Y74757000D01*
X32715020Y74979800D01*
X32114959Y75580909D01*
X31330541Y75906628D01*
X30481185Y75907370D01*
X29696200Y75583020D01*
X29095091Y74982959D01*
X28769372Y74198541D01*
X28769088Y73872987D01*
X28749000Y73772000D01*
X28768912Y73671897D01*
X28768630Y73349185D01*
X28862062Y73123063D01*
X20848072Y65109072D01*
X20723722Y65233640D01*
X20104638Y65490707D01*
X19434303Y65491292D01*
X18814771Y65235306D01*
X18340360Y64761722D01*
X18083293Y64142638D01*
X18082708Y63472303D01*
X18338694Y62852771D01*
X18783000Y62407689D01*
X18783000Y60732000D01*
X18857979Y60355057D01*
X19071500Y60035500D01*
X21515000Y57592000D01*
X21515000Y45042000D01*
X18292008Y41819008D01*
X18025715Y41819240D01*
X17516485Y41608831D01*
X17126539Y41219564D01*
X16915241Y40710702D01*
X16914760Y40159715D01*
X17125169Y39650485D01*
X17514436Y39260539D01*
X18023298Y39049241D01*
X18574285Y39048760D01*
X19083515Y39259169D01*
X19473461Y39648436D01*
X19684759Y40157298D01*
X19684994Y40425994D01*
X23196500Y43937500D01*
X23410021Y44257057D01*
X23485000Y44634000D01*
X23485000Y50372000D01*
X24879000Y48978000D01*
X24879000Y48397697D01*
X24690539Y48209564D01*
X24479241Y47700702D01*
X24478952Y47370101D01*
X24389979Y47236943D01*
X24315000Y46860000D01*
X24315000Y41407697D01*
X24126539Y41219564D01*
X23915241Y40710702D01*
X23915006Y40442007D01*
X20803500Y37330500D01*
X20589979Y37010943D01*
X20515000Y36634000D01*
X20515000Y32408000D01*
X19092000Y30985000D01*
X17908000Y30985000D01*
X17716270Y31176730D01*
X18023298Y31049241D01*
X18574285Y31048760D01*
X19083515Y31259169D01*
X19473461Y31648436D01*
X19684759Y32157298D01*
X19685240Y32708285D01*
X19474831Y33217515D01*
X19085564Y33607461D01*
X18576702Y33818759D01*
X18308006Y33818994D01*
X16485000Y35642000D01*
X16485000Y47592000D01*
X20464500Y51571499D01*
X20678021Y51891057D01*
X20717589Y52089979D01*
X20753000Y52268000D01*
X20753000Y54908410D01*
X21195640Y55350278D01*
X21452707Y55969362D01*
X21453292Y56639697D01*
X21197306Y57259229D01*
X20723722Y57733640D01*
X20104638Y57990707D01*
X19434303Y57991292D01*
X18814771Y57735306D01*
X18340360Y57261722D01*
X18083293Y56642638D01*
X18082744Y56013744D01*
X10974000Y48905000D01*
X9132579Y48905000D01*
X9098957Y48986372D01*
X8569161Y49517093D01*
X7876595Y49804672D01*
X7126695Y49805326D01*
X6433628Y49518957D01*
X5902907Y48989161D01*
X5615328Y48296595D01*
X5614674Y47546695D01*
X5901043Y46853628D01*
X6430839Y46322907D01*
X7123405Y46035328D01*
X7873305Y46034674D01*
X8566372Y46321043D01*
X9097093Y46850839D01*
X9132040Y46935000D01*
X11382000Y46935000D01*
X11758943Y47009979D01*
X12078500Y47223500D01*
X18783000Y53928000D01*
X18783000Y52676001D01*
X14803500Y48696500D01*
X14589979Y48376943D01*
X14515000Y48000000D01*
X14515000Y35234000D01*
X14589979Y34857057D01*
X14803500Y34537500D01*
X16914992Y32426008D01*
X16914760Y32159715D01*
X17042542Y31850458D01*
X13196500Y35696500D01*
X12876943Y35910021D01*
X12500000Y35985000D01*
X9397440Y35985000D01*
X9397440Y36250000D01*
X9353162Y36485317D01*
X9214090Y36701441D01*
X9001890Y36846431D01*
X8750000Y36897440D01*
X6250000Y36897440D01*
X6014683Y36853162D01*
X5798559Y36714090D01*
X5653569Y36501890D01*
X5602560Y36250000D01*
X5602560Y33750000D01*
X5646838Y33514683D01*
X5785910Y33298559D01*
X5998110Y33153569D01*
X6250000Y33102560D01*
X8750000Y33102560D01*
X8985317Y33146838D01*
X9201441Y33285910D01*
X9346431Y33498110D01*
X9397440Y33750000D01*
X9397440Y34015000D01*
X12092000Y34015000D01*
X16803500Y29303500D01*
X17123057Y29089979D01*
X17500000Y29015000D01*
X19500000Y29015000D01*
X19876943Y29089979D01*
X20196500Y29303500D01*
X22196500Y31303500D01*
X22410021Y31623057D01*
X22485000Y32000000D01*
X22485000Y36226000D01*
X25307993Y39048992D01*
X25574285Y39048760D01*
X26083515Y39259169D01*
X26273677Y39449000D01*
X28684000Y39449000D01*
X29060943Y39523979D01*
X29380500Y39737500D01*
X31515000Y41872000D01*
X31515000Y40408000D01*
X24856197Y33749197D01*
X24516485Y33608831D01*
X24126539Y33219564D01*
X23915241Y32710702D01*
X23914760Y32159715D01*
X24017665Y31910666D01*
X21092000Y28985000D01*
X13908000Y28985000D01*
X12276500Y30616500D01*
X11956943Y30830021D01*
X11580000Y30905000D01*
X9132579Y30905000D01*
X9098957Y30986372D01*
X8569161Y31517093D01*
X7876595Y31804672D01*
X7126695Y31805326D01*
X6433628Y31518957D01*
X5902907Y30989161D01*
X5615328Y30296595D01*
X5614674Y29546695D01*
X5901043Y28853628D01*
X6430839Y28322907D01*
X7123405Y28035328D01*
X7873305Y28034674D01*
X8566372Y28321043D01*
X9097093Y28850839D01*
X9132040Y28935000D01*
X11172000Y28935000D01*
X12803500Y27303500D01*
X13123057Y27089979D01*
X13500000Y27015000D01*
X21500000Y27015000D01*
X21876943Y27089979D01*
X22196500Y27303500D01*
X23619309Y28726309D01*
X28215000Y28726309D01*
X28215000Y28135750D01*
X28373750Y27977000D01*
X29373000Y27977000D01*
X29373000Y29076250D01*
X29627000Y29076250D01*
X29627000Y27977000D01*
X30626250Y27977000D01*
X30785000Y28135750D01*
X30785000Y28726309D01*
X30688327Y28959698D01*
X30509699Y29138327D01*
X30276310Y29235000D01*
X29785750Y29235000D01*
X29627000Y29076250D01*
X29373000Y29076250D01*
X29214250Y29235000D01*
X28723690Y29235000D01*
X28490301Y29138327D01*
X28311673Y28959698D01*
X28215000Y28726309D01*
X23619309Y28726309D01*
X25996501Y31103500D01*
X26134568Y31310133D01*
X26473461Y31648436D01*
X26684759Y32157298D01*
X26685240Y32708285D01*
X26660693Y32767693D01*
X33196500Y39303500D01*
X33410021Y39623057D01*
X33485000Y40000000D01*
X33485000Y41592000D01*
X33947232Y42054232D01*
X34126943Y42089979D01*
X34446500Y42303500D01*
X36408001Y44265000D01*
X36872000Y44265000D01*
X34982182Y42375182D01*
X34915715Y42375240D01*
X34406485Y42164831D01*
X34016539Y41775564D01*
X33805241Y41266702D01*
X33804760Y40715715D01*
X34015169Y40206485D01*
X34404436Y39816539D01*
X34913298Y39605241D01*
X35464285Y39604760D01*
X35973515Y39815169D01*
X36363461Y40204436D01*
X36574759Y40713298D01*
X36575168Y41182168D01*
X38158000Y42765000D01*
X86742000Y42765000D01*
X89015297Y40491703D01*
X89014699Y39806401D01*
X89278281Y39168485D01*
X89765000Y38680916D01*
X89765000Y38658000D01*
X82527916Y31420916D01*
X64308436Y31584564D01*
X61735000Y34158000D01*
X61735000Y38681760D01*
X62220004Y39165918D01*
X62484699Y39803373D01*
X62484701Y39806401D01*
X64014699Y39806401D01*
X64278281Y39168485D01*
X64765918Y38679996D01*
X65403373Y38415301D01*
X66093599Y38414699D01*
X66731515Y38678281D01*
X67219084Y39165000D01*
X84281760Y39165000D01*
X84765918Y38679996D01*
X85403373Y38415301D01*
X86093599Y38414699D01*
X86731515Y38678281D01*
X87220004Y39165918D01*
X87484699Y39803373D01*
X87485301Y40493599D01*
X87221719Y41131515D01*
X86734082Y41620004D01*
X86096627Y41884699D01*
X85406401Y41885301D01*
X84768485Y41621719D01*
X84280916Y41135000D01*
X67218240Y41135000D01*
X66734082Y41620004D01*
X66096627Y41884699D01*
X65406401Y41885301D01*
X64768485Y41621719D01*
X64279996Y41134082D01*
X64015301Y40496627D01*
X64014699Y39806401D01*
X62484701Y39806401D01*
X62485301Y40493599D01*
X62221719Y41131515D01*
X61734082Y41620004D01*
X61096627Y41884699D01*
X60406401Y41885301D01*
X59768485Y41621719D01*
X59519666Y41373334D01*
X58986500Y41906500D01*
X58666943Y42120021D01*
X58290000Y42195000D01*
X40793697Y42195000D01*
X40605564Y42383461D01*
X40096702Y42594759D01*
X39545715Y42595240D01*
X39036485Y42384831D01*
X38646539Y41995564D01*
X38435241Y41486702D01*
X38434760Y40935715D01*
X38645169Y40426485D01*
X39034436Y40036539D01*
X39543298Y39825241D01*
X40094285Y39824760D01*
X40603515Y40035169D01*
X40793677Y40225000D01*
X57882000Y40225000D01*
X58653500Y39453500D01*
X58973057Y39239979D01*
X59273428Y39180231D01*
X59278281Y39168485D01*
X59765000Y38680916D01*
X59765000Y33750000D01*
X59839979Y33373057D01*
X60053500Y33053500D01*
X61497185Y31609815D01*
X40863943Y31795143D01*
X40993461Y31924436D01*
X41204759Y32433298D01*
X41205240Y32984285D01*
X40994831Y33493515D01*
X40605564Y33883461D01*
X40096702Y34094759D01*
X39545715Y34095240D01*
X39036485Y33884831D01*
X38646539Y33495564D01*
X38435241Y32986702D01*
X38434760Y32435715D01*
X38645169Y31926485D01*
X38757394Y31814065D01*
X36417709Y31835080D01*
X36574759Y32213298D01*
X36575240Y32764285D01*
X36364831Y33273515D01*
X35975564Y33663461D01*
X35466702Y33874759D01*
X34915715Y33875240D01*
X34406485Y33664831D01*
X34016539Y33275564D01*
X33805241Y32766702D01*
X33804760Y32215715D01*
X33952887Y31857219D01*
X31751141Y31876995D01*
X31701643Y31867433D01*
X31659764Y31839367D01*
X31625243Y31773763D01*
X30785000Y27362488D01*
X30785000Y27564250D01*
X30626250Y27723000D01*
X29627000Y27723000D01*
X29627000Y27703000D01*
X29373000Y27703000D01*
X29373000Y27723000D01*
X28373750Y27723000D01*
X28215000Y27564250D01*
X28215000Y26973691D01*
X28311673Y26740302D01*
X28424974Y26627000D01*
X710000Y26627000D01*
X710000Y41506680D01*
X6346285Y41506680D01*
X6475533Y41213877D01*
X7175806Y40945612D01*
X7925435Y40965750D01*
X8524467Y41213877D01*
X8653715Y41506680D01*
X7500000Y42660395D01*
X6346285Y41506680D01*
X710000Y41506680D01*
X710000Y43164194D01*
X5605612Y43164194D01*
X5625750Y42414565D01*
X5873877Y41815533D01*
X6166680Y41686285D01*
X7320395Y42840000D01*
X7679605Y42840000D01*
X8833320Y41686285D01*
X9126123Y41815533D01*
X9394388Y42515806D01*
X9374250Y43265435D01*
X9126123Y43864467D01*
X8833320Y43993715D01*
X7679605Y42840000D01*
X7320395Y42840000D01*
X6166680Y43993715D01*
X5873877Y43864467D01*
X5605612Y43164194D01*
X710000Y43164194D01*
X710000Y44173320D01*
X6346285Y44173320D01*
X7500000Y43019605D01*
X8653715Y44173320D01*
X8524467Y44466123D01*
X7824194Y44734388D01*
X7074565Y44714250D01*
X6475533Y44466123D01*
X6346285Y44173320D01*
X710000Y44173320D01*
X710000Y54250000D01*
X5602560Y54250000D01*
X5602560Y51750000D01*
X5646838Y51514683D01*
X5785910Y51298559D01*
X5998110Y51153569D01*
X6250000Y51102560D01*
X8750000Y51102560D01*
X8985317Y51146838D01*
X9201441Y51285910D01*
X9346431Y51498110D01*
X9397440Y51750000D01*
X9397440Y52015000D01*
X11500000Y52015000D01*
X11876943Y52089979D01*
X12196500Y52303500D01*
X16440500Y56547500D01*
X16654021Y56867057D01*
X16699851Y57097461D01*
X16729000Y57244000D01*
X16729000Y71868921D01*
X16951800Y71960980D01*
X17552909Y72561041D01*
X17646735Y72787000D01*
X18920921Y72787000D01*
X19012980Y72564200D01*
X19613041Y71963091D01*
X20397459Y71637372D01*
X21246815Y71636630D01*
X22031800Y71960980D01*
X22632909Y72561041D01*
X22958628Y73345459D01*
X22959370Y74194815D01*
X22635020Y74979800D01*
X22034959Y75580909D01*
X21250541Y75906628D01*
X20401185Y75907370D01*
X19616200Y75583020D01*
X19015091Y74982959D01*
X18921265Y74757000D01*
X17647079Y74757000D01*
X17555020Y74979800D01*
X16954959Y75580909D01*
X16170541Y75906628D01*
X15321185Y75907370D01*
X14536200Y75583020D01*
X13935091Y74982959D01*
X13609372Y74198541D01*
X13608630Y73349185D01*
X13932980Y72564200D01*
X14533041Y71963091D01*
X14759000Y71869265D01*
X14759000Y57652000D01*
X11092000Y53985000D01*
X9397440Y53985000D01*
X9397440Y54250000D01*
X9353162Y54485317D01*
X9214090Y54701441D01*
X9001890Y54846431D01*
X8750000Y54897440D01*
X6250000Y54897440D01*
X6014683Y54853162D01*
X5798559Y54714090D01*
X5653569Y54501890D01*
X5602560Y54250000D01*
X710000Y54250000D01*
X710000Y81790000D01*
X106790000Y81790000D01*
X106790000Y31202993D01*
G36*
X38569500Y61712500D02*
X38355979Y61392943D01*
X38281000Y61016000D01*
X38281000Y56457697D01*
X38092539Y56269564D01*
X37881241Y55760702D01*
X37880760Y55209715D01*
X38091169Y54700485D01*
X38480436Y54310539D01*
X38989298Y54099241D01*
X39257994Y54099006D01*
X42515000Y50842000D01*
X42515000Y49408000D01*
X39342000Y46235000D01*
X36000000Y46235000D01*
X35847707Y46204707D01*
X36776000Y47133000D01*
X37784303Y47133000D01*
X37972436Y46944539D01*
X38481298Y46733241D01*
X39032285Y46732760D01*
X39541515Y46943169D01*
X39931461Y47332436D01*
X40142759Y47841298D01*
X40143240Y48392285D01*
X39932831Y48901515D01*
X39543564Y49291461D01*
X39034702Y49502759D01*
X38483715Y49503240D01*
X37974485Y49292831D01*
X37784323Y49103000D01*
X36368000Y49103000D01*
X35991057Y49028021D01*
X35671500Y48814500D01*
X28276000Y41419000D01*
X26285000Y41419000D01*
X26285000Y46099381D01*
X26647515Y46249169D01*
X27037461Y46638436D01*
X27248420Y47146483D01*
X30466088Y47146483D01*
X30534077Y46905540D01*
X31053171Y46720799D01*
X31603448Y46748770D01*
X31981923Y46905540D01*
X32049912Y47146483D01*
X31258000Y47938395D01*
X30466088Y47146483D01*
X27248420Y47146483D01*
X27248759Y47147298D01*
X27249240Y47698285D01*
X27038831Y48207515D01*
X26923718Y48322829D01*
X29860799Y48322829D01*
X29888770Y47772552D01*
X30045540Y47394077D01*
X30286483Y47326088D01*
X31078395Y48118000D01*
X31437605Y48118000D01*
X32229517Y47326088D01*
X32470460Y47394077D01*
X32655201Y47913171D01*
X32627230Y48463448D01*
X32470460Y48841923D01*
X32229517Y48909912D01*
X31437605Y48118000D01*
X31078395Y48118000D01*
X30286483Y48909912D01*
X30045540Y48841923D01*
X29860799Y48322829D01*
X26923718Y48322829D01*
X26849000Y48397677D01*
X26849000Y49089517D01*
X30466088Y49089517D01*
X31258000Y48297605D01*
X32049912Y49089517D01*
X31981923Y49330460D01*
X31462829Y49515201D01*
X30912552Y49487230D01*
X30534077Y49330460D01*
X30466088Y49089517D01*
X26849000Y49089517D01*
X26849000Y49386000D01*
X26774021Y49762943D01*
X26560500Y50082500D01*
X24985000Y51658000D01*
X24985000Y54512483D01*
X30974088Y54512483D01*
X31042077Y54271540D01*
X31561171Y54086799D01*
X32111448Y54114770D01*
X32489923Y54271540D01*
X32557912Y54512483D01*
X31766000Y55304395D01*
X30974088Y54512483D01*
X24985000Y54512483D01*
X24985000Y54844138D01*
X25078436Y54750539D01*
X25587298Y54539241D01*
X26138285Y54538760D01*
X26647515Y54749169D01*
X26837677Y54939000D01*
X27424000Y54939000D01*
X27800943Y55013979D01*
X28120500Y55227500D01*
X28581829Y55688829D01*
X30368799Y55688829D01*
X30396770Y55138552D01*
X30553540Y54760077D01*
X30794483Y54692088D01*
X31586395Y55484000D01*
X31945605Y55484000D01*
X32737517Y54692088D01*
X32978460Y54760077D01*
X33163201Y55279171D01*
X33135230Y55829448D01*
X32978460Y56207923D01*
X32737517Y56275912D01*
X31945605Y55484000D01*
X31586395Y55484000D01*
X30794483Y56275912D01*
X30553540Y56207923D01*
X30368799Y55688829D01*
X28581829Y55688829D01*
X29348517Y56455517D01*
X30974088Y56455517D01*
X31766000Y55663605D01*
X32557912Y56455517D01*
X32489923Y56696460D01*
X31970829Y56881201D01*
X31420552Y56853230D01*
X31042077Y56696460D01*
X30974088Y56455517D01*
X29348517Y56455517D01*
X35408000Y62515000D01*
X39372000Y62515000D01*
X38569500Y61712500D01*
X38569500Y61712500D01*
G37*
X38569500Y61712500D02*
X38355979Y61392943D01*
X38281000Y61016000D01*
X38281000Y56457697D01*
X38092539Y56269564D01*
X37881241Y55760702D01*
X37880760Y55209715D01*
X38091169Y54700485D01*
X38480436Y54310539D01*
X38989298Y54099241D01*
X39257994Y54099006D01*
X42515000Y50842000D01*
X42515000Y49408000D01*
X39342000Y46235000D01*
X36000000Y46235000D01*
X35847707Y46204707D01*
X36776000Y47133000D01*
X37784303Y47133000D01*
X37972436Y46944539D01*
X38481298Y46733241D01*
X39032285Y46732760D01*
X39541515Y46943169D01*
X39931461Y47332436D01*
X40142759Y47841298D01*
X40143240Y48392285D01*
X39932831Y48901515D01*
X39543564Y49291461D01*
X39034702Y49502759D01*
X38483715Y49503240D01*
X37974485Y49292831D01*
X37784323Y49103000D01*
X36368000Y49103000D01*
X35991057Y49028021D01*
X35671500Y48814500D01*
X28276000Y41419000D01*
X26285000Y41419000D01*
X26285000Y46099381D01*
X26647515Y46249169D01*
X27037461Y46638436D01*
X27248420Y47146483D01*
X30466088Y47146483D01*
X30534077Y46905540D01*
X31053171Y46720799D01*
X31603448Y46748770D01*
X31981923Y46905540D01*
X32049912Y47146483D01*
X31258000Y47938395D01*
X30466088Y47146483D01*
X27248420Y47146483D01*
X27248759Y47147298D01*
X27249240Y47698285D01*
X27038831Y48207515D01*
X26923718Y48322829D01*
X29860799Y48322829D01*
X29888770Y47772552D01*
X30045540Y47394077D01*
X30286483Y47326088D01*
X31078395Y48118000D01*
X31437605Y48118000D01*
X32229517Y47326088D01*
X32470460Y47394077D01*
X32655201Y47913171D01*
X32627230Y48463448D01*
X32470460Y48841923D01*
X32229517Y48909912D01*
X31437605Y48118000D01*
X31078395Y48118000D01*
X30286483Y48909912D01*
X30045540Y48841923D01*
X29860799Y48322829D01*
X26923718Y48322829D01*
X26849000Y48397677D01*
X26849000Y49089517D01*
X30466088Y49089517D01*
X31258000Y48297605D01*
X32049912Y49089517D01*
X31981923Y49330460D01*
X31462829Y49515201D01*
X30912552Y49487230D01*
X30534077Y49330460D01*
X30466088Y49089517D01*
X26849000Y49089517D01*
X26849000Y49386000D01*
X26774021Y49762943D01*
X26560500Y50082500D01*
X24985000Y51658000D01*
X24985000Y54512483D01*
X30974088Y54512483D01*
X31042077Y54271540D01*
X31561171Y54086799D01*
X32111448Y54114770D01*
X32489923Y54271540D01*
X32557912Y54512483D01*
X31766000Y55304395D01*
X30974088Y54512483D01*
X24985000Y54512483D01*
X24985000Y54844138D01*
X25078436Y54750539D01*
X25587298Y54539241D01*
X26138285Y54538760D01*
X26647515Y54749169D01*
X26837677Y54939000D01*
X27424000Y54939000D01*
X27800943Y55013979D01*
X28120500Y55227500D01*
X28581829Y55688829D01*
X30368799Y55688829D01*
X30396770Y55138552D01*
X30553540Y54760077D01*
X30794483Y54692088D01*
X31586395Y55484000D01*
X31945605Y55484000D01*
X32737517Y54692088D01*
X32978460Y54760077D01*
X33163201Y55279171D01*
X33135230Y55829448D01*
X32978460Y56207923D01*
X32737517Y56275912D01*
X31945605Y55484000D01*
X31586395Y55484000D01*
X30794483Y56275912D01*
X30553540Y56207923D01*
X30368799Y55688829D01*
X28581829Y55688829D01*
X29348517Y56455517D01*
X30974088Y56455517D01*
X31766000Y55663605D01*
X32557912Y56455517D01*
X32489923Y56696460D01*
X31970829Y56881201D01*
X31420552Y56853230D01*
X31042077Y56696460D01*
X30974088Y56455517D01*
X29348517Y56455517D01*
X35408000Y62515000D01*
X39372000Y62515000D01*
X38569500Y61712500D01*
G36*
X106790000Y710000D02*
X710000Y710000D01*
X710000Y4767468D01*
X6527073Y4767468D01*
X6625736Y4500613D01*
X7235461Y4274092D01*
X7885460Y4298144D01*
X8105409Y4389250D01*
X41590000Y4389250D01*
X41590000Y4173690D01*
X41686673Y3940301D01*
X41865302Y3761673D01*
X42098691Y3665000D01*
X42539250Y3665000D01*
X42698000Y3823750D01*
X42698000Y4548000D01*
X41748750Y4548000D01*
X41590000Y4389250D01*
X8105409Y4389250D01*
X8374264Y4500613D01*
X8472927Y4767468D01*
X7500000Y5740395D01*
X6527073Y4767468D01*
X710000Y4767468D01*
X710000Y6184539D01*
X5854092Y6184539D01*
X5878144Y5534540D01*
X6080613Y5045736D01*
X6347468Y4947073D01*
X7320395Y5920000D01*
X7679605Y5920000D01*
X8652532Y4947073D01*
X8919387Y5045736D01*
X9145908Y5655461D01*
X9121856Y6305460D01*
X8919387Y6794264D01*
X8652532Y6892927D01*
X7679605Y5920000D01*
X7320395Y5920000D01*
X6347468Y6892927D01*
X6080613Y6794264D01*
X5854092Y6184539D01*
X710000Y6184539D01*
X710000Y24864250D01*
X28215000Y24864250D01*
X28215000Y24273691D01*
X28311673Y24040302D01*
X28490301Y23861673D01*
X28723690Y23765000D01*
X29214250Y23765000D01*
X29373000Y23923750D01*
X29373000Y25023000D01*
X29627000Y25023000D01*
X29627000Y23923750D01*
X29785750Y23765000D01*
X30276310Y23765000D01*
X30509699Y23861673D01*
X30688327Y24040302D01*
X30785000Y24273691D01*
X30785000Y24864250D01*
X30626250Y25023000D01*
X29627000Y25023000D01*
X29373000Y25023000D01*
X28373750Y25023000D01*
X28215000Y24864250D01*
X710000Y24864250D01*
X710000Y25623000D01*
X28215000Y25623000D01*
X28215000Y25435750D01*
X28373750Y25277000D01*
X29373000Y25277000D01*
X29373000Y25297000D01*
X29627000Y25297000D01*
X29627000Y25277000D01*
X30626250Y25277000D01*
X30785000Y25435750D01*
X30785000Y25623000D01*
X30790000Y25623000D01*
X30790000Y23000000D01*
X30844046Y22728295D01*
X30873000Y22684962D01*
X30873000Y21022250D01*
X30777000Y20926250D01*
X30777000Y20127000D01*
X30797000Y20127000D01*
X30797000Y19873000D01*
X30777000Y19873000D01*
X30777000Y19853000D01*
X30523000Y19853000D01*
X30523000Y19873000D01*
X29573750Y19873000D01*
X29415000Y19714250D01*
X29415000Y19485000D01*
X27358147Y19485000D01*
X27310021Y19726943D01*
X27096500Y20046500D01*
X26566690Y20576310D01*
X29415000Y20576310D01*
X29415000Y20285750D01*
X29573750Y20127000D01*
X30523000Y20127000D01*
X30523000Y20926250D01*
X30364250Y21085000D01*
X29923691Y21085000D01*
X29690302Y20988327D01*
X29511673Y20809699D01*
X29415000Y20576310D01*
X26566690Y20576310D01*
X24946500Y22196500D01*
X24626943Y22410021D01*
X24250000Y22485000D01*
X5500000Y22485000D01*
X5123057Y22410021D01*
X4803500Y22196500D01*
X3553500Y20946500D01*
X3339979Y20626943D01*
X3265000Y20250000D01*
X3265000Y10000000D01*
X3339979Y9623057D01*
X3553500Y9303500D01*
X5093500Y7763500D01*
X5413057Y7549979D01*
X5790000Y7475000D01*
X6173058Y7475000D01*
X6539978Y7107438D01*
X6527073Y7072532D01*
X7500000Y6099605D01*
X8472927Y7072532D01*
X8459836Y7107938D01*
X8885278Y7532637D01*
X9134716Y8133352D01*
X9135284Y8783795D01*
X8886894Y9384943D01*
X8820379Y9451574D01*
X8951441Y9535910D01*
X9096431Y9748110D01*
X9147440Y10000000D01*
X9147440Y12000000D01*
X9103162Y12235317D01*
X8964090Y12451441D01*
X8751890Y12596431D01*
X8500000Y12647440D01*
X6500000Y12647440D01*
X6264683Y12603162D01*
X6235000Y12584062D01*
X6235000Y12912527D01*
X6248110Y12903569D01*
X6500000Y12852560D01*
X8500000Y12852560D01*
X8735317Y12896838D01*
X8951441Y13035910D01*
X9096431Y13248110D01*
X9147440Y13500000D01*
X9147440Y13515000D01*
X16284623Y13515000D01*
X16363106Y13325057D01*
X16822637Y12864722D01*
X17423352Y12615284D01*
X18073795Y12614716D01*
X18674943Y12863106D01*
X18965000Y13152656D01*
X18965000Y13123690D01*
X19061673Y12890301D01*
X19240302Y12711673D01*
X19473691Y12615000D01*
X19914250Y12615000D01*
X20073000Y12773750D01*
X20073000Y13573000D01*
X20053000Y13573000D01*
X20053000Y13827000D01*
X20073000Y13827000D01*
X20073000Y15173000D01*
X20053000Y15173000D01*
X20053000Y15427000D01*
X20073000Y15427000D01*
X20073000Y16773000D01*
X19123750Y16773000D01*
X18965000Y16614250D01*
X18965000Y16323690D01*
X19057656Y16100000D01*
X18965000Y15876310D01*
X18965000Y15585750D01*
X19123748Y15427002D01*
X18965000Y15427002D01*
X18965000Y15347138D01*
X18677363Y15635278D01*
X18338223Y15776101D01*
X18635278Y16072637D01*
X18884716Y16673352D01*
X18885284Y17323795D01*
X18636894Y17924943D01*
X18348093Y18214250D01*
X18965000Y18214250D01*
X18965000Y17923690D01*
X19057656Y17700000D01*
X18965000Y17476310D01*
X18965000Y17185750D01*
X19123750Y17027000D01*
X20073000Y17027000D01*
X20073000Y18373000D01*
X19123750Y18373000D01*
X18965000Y18214250D01*
X18348093Y18214250D01*
X18177363Y18385278D01*
X17576648Y18634716D01*
X16926205Y18635284D01*
X16325057Y18386894D01*
X15962530Y18025000D01*
X8826942Y18025000D01*
X8460022Y18392562D01*
X8472927Y18427468D01*
X7500000Y19400395D01*
X6527073Y18427468D01*
X6540164Y18392062D01*
X6143210Y17995802D01*
X5913057Y17950021D01*
X5593500Y17736500D01*
X5235000Y17378000D01*
X5235000Y19842000D01*
X5908000Y20515000D01*
X6244886Y20515000D01*
X6080613Y20454264D01*
X5854092Y19844539D01*
X5878144Y19194540D01*
X6080613Y18705736D01*
X6347468Y18607073D01*
X7320395Y19580000D01*
X7306253Y19594142D01*
X7485858Y19773747D01*
X7500000Y19759605D01*
X7514143Y19773747D01*
X7693748Y19594142D01*
X7679605Y19580000D01*
X8652532Y18607073D01*
X8919387Y18705736D01*
X9057060Y19076310D01*
X18965000Y19076310D01*
X18965000Y18785750D01*
X19123750Y18627000D01*
X20073000Y18627000D01*
X20073000Y19426250D01*
X19914250Y19585000D01*
X19473691Y19585000D01*
X19240302Y19488327D01*
X19061673Y19309699D01*
X18965000Y19076310D01*
X9057060Y19076310D01*
X9145908Y19315461D01*
X9121856Y19965460D01*
X8919387Y20454264D01*
X8755114Y20515000D01*
X23842000Y20515000D01*
X24759560Y19597440D01*
X23600000Y19597440D01*
X23364683Y19553162D01*
X23301522Y19512519D01*
X23251890Y19546431D01*
X23000000Y19597440D01*
X21800000Y19597440D01*
X21564683Y19553162D01*
X21348559Y19414090D01*
X21302031Y19345994D01*
X21159698Y19488327D01*
X20926309Y19585000D01*
X20485750Y19585000D01*
X20327000Y19426250D01*
X20327000Y18627000D01*
X20347000Y18627000D01*
X20347000Y18373000D01*
X20327000Y18373000D01*
X20327000Y17027000D01*
X20347000Y17027000D01*
X20347000Y16773000D01*
X20327000Y16773000D01*
X20327000Y15427000D01*
X20347000Y15427000D01*
X20347000Y15173000D01*
X20327000Y15173000D01*
X20327000Y13827000D01*
X20347000Y13827000D01*
X20347000Y13573000D01*
X20327000Y13573000D01*
X20327000Y12773750D01*
X20485750Y12615000D01*
X20926309Y12615000D01*
X21159698Y12711673D01*
X21300936Y12852910D01*
X21335910Y12798559D01*
X21548110Y12653569D01*
X21800000Y12602560D01*
X23000000Y12602560D01*
X23235317Y12646838D01*
X23298478Y12687481D01*
X23348110Y12653569D01*
X23600000Y12602560D01*
X24209560Y12602560D01*
X21603500Y9996500D01*
X21389979Y9676943D01*
X21315000Y9300000D01*
X21315000Y8247440D01*
X21300000Y8247440D01*
X21064683Y8203162D01*
X20848559Y8064090D01*
X20703569Y7851890D01*
X20652560Y7600000D01*
X20652560Y5600000D01*
X20696838Y5364683D01*
X20835910Y5148559D01*
X21048110Y5003569D01*
X21300000Y4952560D01*
X23300000Y4952560D01*
X23535317Y4996838D01*
X23751441Y5135910D01*
X23848910Y5278561D01*
X23912637Y5214722D01*
X24513352Y4965284D01*
X25163795Y4964716D01*
X25764943Y5213106D01*
X26110199Y5557759D01*
X26452637Y5214722D01*
X27053352Y4965284D01*
X27703795Y4964716D01*
X28304943Y5213106D01*
X28539715Y5447468D01*
X28947073Y5447468D01*
X29045736Y5180613D01*
X29655461Y4954092D01*
X30305460Y4978144D01*
X30783875Y5176310D01*
X41590000Y5176310D01*
X41590000Y4960750D01*
X41748750Y4802000D01*
X42698000Y4802000D01*
X42698000Y5526250D01*
X42539250Y5685000D01*
X42098691Y5685000D01*
X41865302Y5588327D01*
X41686673Y5409699D01*
X41590000Y5176310D01*
X30783875Y5176310D01*
X30794264Y5180613D01*
X30892927Y5447468D01*
X29920000Y6420395D01*
X28947073Y5447468D01*
X28539715Y5447468D01*
X28732562Y5639978D01*
X28767468Y5627073D01*
X29740395Y6600000D01*
X30099605Y6600000D01*
X31072532Y5627073D01*
X31339387Y5725736D01*
X31565908Y6335461D01*
X31541856Y6985460D01*
X31339387Y7474264D01*
X31072532Y7572927D01*
X30099605Y6600000D01*
X29740395Y6600000D01*
X28767468Y7572927D01*
X28732062Y7559836D01*
X28539703Y7752532D01*
X28947073Y7752532D01*
X29920000Y6779605D01*
X30892927Y7752532D01*
X30794264Y8019387D01*
X30184539Y8245908D01*
X29534540Y8221856D01*
X29045736Y8019387D01*
X28947073Y7752532D01*
X28539703Y7752532D01*
X28307363Y7985278D01*
X27706648Y8234716D01*
X27056205Y8235284D01*
X26455057Y7986894D01*
X26109801Y7642241D01*
X25767363Y7985278D01*
X25166648Y8234716D01*
X24516205Y8235284D01*
X23915057Y7986894D01*
X23848426Y7920379D01*
X23764090Y8051441D01*
X23551890Y8196431D01*
X23300000Y8247440D01*
X23285000Y8247440D01*
X23285000Y8892000D01*
X25932250Y11539250D01*
X36900000Y11539250D01*
X36900000Y11323690D01*
X36996673Y11090301D01*
X37175302Y10911673D01*
X37408691Y10815000D01*
X37849250Y10815000D01*
X38008000Y10973750D01*
X38008000Y11698000D01*
X37058750Y11698000D01*
X36900000Y11539250D01*
X25932250Y11539250D01*
X26908000Y12515000D01*
X35750000Y12515000D01*
X36126943Y12589979D01*
X36446500Y12803500D01*
X36890000Y13247000D01*
X36890000Y12978690D01*
X36986673Y12745301D01*
X37084475Y12647500D01*
X36996673Y12559699D01*
X36900000Y12326310D01*
X36900000Y12110750D01*
X37058750Y11952000D01*
X38008000Y11952000D01*
X38008000Y12676250D01*
X37998000Y12686250D01*
X37998000Y13428000D01*
X37978000Y13428000D01*
X37978000Y13682000D01*
X37998000Y13682000D01*
X37998000Y13702000D01*
X38252000Y13702000D01*
X38252000Y13682000D01*
X38272000Y13682000D01*
X38272000Y13428000D01*
X38252000Y13428000D01*
X38252000Y12628750D01*
X38262000Y12618750D01*
X38262000Y11952000D01*
X38282000Y11952000D01*
X38282000Y11698000D01*
X38262000Y11698000D01*
X38262000Y10973750D01*
X38420750Y10815000D01*
X38861309Y10815000D01*
X39094698Y10911673D01*
X39096068Y10913043D01*
X39183110Y10853569D01*
X39199247Y10850301D01*
X39162069Y10795890D01*
X39111060Y10544000D01*
X39111060Y10076088D01*
X39055000Y10087440D01*
X37855000Y10087440D01*
X37619683Y10043162D01*
X37505022Y9969380D01*
X37406890Y10036431D01*
X37155000Y10087440D01*
X35955000Y10087440D01*
X35719683Y10043162D01*
X35503559Y9904090D01*
X35358569Y9691890D01*
X35307560Y9440000D01*
X35307560Y8953826D01*
X35270000Y8765000D01*
X35270000Y8461844D01*
X35203559Y8419090D01*
X35058569Y8206890D01*
X35007560Y7955000D01*
X35007560Y7055000D01*
X35051838Y6819683D01*
X35190910Y6603559D01*
X35403110Y6458569D01*
X35655000Y6407560D01*
X36855000Y6407560D01*
X37090317Y6451838D01*
X37306441Y6590910D01*
X37352969Y6659006D01*
X37495302Y6516673D01*
X37728691Y6420000D01*
X38169250Y6420000D01*
X38328000Y6578750D01*
X38328000Y7378000D01*
X38308000Y7378000D01*
X38308000Y7632000D01*
X38328000Y7632000D01*
X38328000Y7652000D01*
X38582000Y7652000D01*
X38582000Y7632000D01*
X38602000Y7632000D01*
X38602000Y7378000D01*
X38582000Y7378000D01*
X38582000Y6578750D01*
X38740750Y6420000D01*
X39123500Y6420000D01*
X39123500Y6352998D01*
X39282248Y6352998D01*
X39123500Y6194250D01*
X39123500Y6099691D01*
X39220173Y5866302D01*
X39398801Y5687673D01*
X39632190Y5591000D01*
X40044250Y5591000D01*
X40203000Y5749750D01*
X40203000Y6353000D01*
X40457000Y6353000D01*
X40457000Y5749750D01*
X40615750Y5591000D01*
X41027810Y5591000D01*
X41261199Y5687673D01*
X41439827Y5866302D01*
X41536500Y6099691D01*
X41536500Y6194250D01*
X41377750Y6353000D01*
X40457000Y6353000D01*
X40203000Y6353000D01*
X40183000Y6353000D01*
X40183000Y6607000D01*
X40203000Y6607000D01*
X40203000Y7623000D01*
X40457000Y7623000D01*
X40457000Y6607000D01*
X41377750Y6607000D01*
X41536500Y6765750D01*
X41536500Y6860309D01*
X41439827Y7093698D01*
X41418525Y7115000D01*
X41439827Y7136302D01*
X41536500Y7369691D01*
X41536500Y7464250D01*
X41377750Y7623000D01*
X40457000Y7623000D01*
X40203000Y7623000D01*
X40183000Y7623000D01*
X40183000Y7877000D01*
X40203000Y7877000D01*
X40203000Y7897000D01*
X40457000Y7897000D01*
X40457000Y7877000D01*
X41377750Y7877000D01*
X41536500Y8035750D01*
X41536500Y8130309D01*
X41439827Y8363698D01*
X41413291Y8390235D01*
X41497931Y8514110D01*
X41548940Y8766000D01*
X41548940Y9274000D01*
X41504662Y9509317D01*
X41410334Y9655907D01*
X41497931Y9784110D01*
X41548940Y10036000D01*
X41548940Y10544000D01*
X41504662Y10779317D01*
X41365590Y10995441D01*
X41315000Y11030008D01*
X41315000Y11530000D01*
X41282440Y11693689D01*
X41282440Y12200000D01*
X41238162Y12435317D01*
X41185096Y12517783D01*
X41376441Y12640910D01*
X41441871Y12736670D01*
X41635000Y12697560D01*
X42835000Y12697560D01*
X43070317Y12741838D01*
X43286441Y12880910D01*
X43334134Y12950711D01*
X43370910Y12893559D01*
X43434625Y12850024D01*
X43408569Y12811890D01*
X43357560Y12560000D01*
X43357560Y11810000D01*
X43401838Y11574683D01*
X43540910Y11358559D01*
X43620000Y11304519D01*
X43620000Y10145000D01*
X43694979Y9768057D01*
X43908500Y9448500D01*
X45033500Y8323500D01*
X45353057Y8109979D01*
X45477508Y8085224D01*
X45461060Y8004000D01*
X45461060Y7496000D01*
X45505338Y7260683D01*
X45599666Y7114093D01*
X45512069Y6985890D01*
X45461060Y6734000D01*
X45461060Y6654060D01*
X44803502Y5996502D01*
X44803499Y5996500D01*
X44504439Y5697440D01*
X44125000Y5697440D01*
X43889683Y5653162D01*
X43786354Y5586671D01*
X43784698Y5588327D01*
X43551309Y5685000D01*
X43110750Y5685000D01*
X42952000Y5526250D01*
X42952000Y4802000D01*
X42972000Y4802000D01*
X42972000Y4548000D01*
X42952000Y4548000D01*
X42952000Y3823750D01*
X43110750Y3665000D01*
X43551309Y3665000D01*
X43784698Y3761673D01*
X43786068Y3763043D01*
X43873110Y3703569D01*
X44125000Y3652560D01*
X44354440Y3652560D01*
X44453500Y3553500D01*
X44773057Y3339979D01*
X45150000Y3265000D01*
X49500000Y3265000D01*
X49876943Y3339979D01*
X50138881Y3515000D01*
X71250000Y3515000D01*
X71626943Y3589979D01*
X71946500Y3803500D01*
X78646500Y10503500D01*
X78653682Y10514250D01*
X82805000Y10514250D01*
X82805000Y10073691D01*
X82901673Y9840302D01*
X83080301Y9661673D01*
X83313690Y9565000D01*
X83604250Y9565000D01*
X83763000Y9723750D01*
X83763000Y10673000D01*
X84017000Y10673000D01*
X84017000Y9723750D01*
X84175750Y9565000D01*
X84466310Y9565000D01*
X84699699Y9661673D01*
X84878327Y9840302D01*
X84975000Y10073691D01*
X84975000Y10514250D01*
X84816250Y10673000D01*
X84017000Y10673000D01*
X83763000Y10673000D01*
X82963750Y10673000D01*
X82805000Y10514250D01*
X78653682Y10514250D01*
X78860021Y10823057D01*
X78935000Y11200000D01*
X78935000Y11358554D01*
X79085317Y11386838D01*
X79301441Y11525910D01*
X79446431Y11738110D01*
X79497440Y11990000D01*
X79497440Y15390000D01*
X79453162Y15625317D01*
X79314090Y15841441D01*
X79101890Y15986431D01*
X78850000Y16037440D01*
X77050000Y16037440D01*
X76814683Y15993162D01*
X76598559Y15854090D01*
X76453569Y15641890D01*
X76402560Y15390000D01*
X76402560Y14675000D01*
X75933328Y14675000D01*
X75903162Y14835317D01*
X75764090Y15051441D01*
X75551890Y15196431D01*
X75300000Y15247440D01*
X74285561Y15247440D01*
X72676500Y16856500D01*
X72356943Y17070021D01*
X71980000Y17145000D01*
X68660000Y17145000D01*
X68283057Y17070021D01*
X67963500Y16856500D01*
X66908922Y15801922D01*
X66890021Y15896943D01*
X66676500Y16216500D01*
X65760000Y17133000D01*
X65760000Y18495000D01*
X65685021Y18871943D01*
X65471500Y19191500D01*
X64822440Y19840560D01*
X64822440Y19896303D01*
X73824708Y19896303D01*
X74080694Y19276771D01*
X74554278Y18802360D01*
X75173362Y18545293D01*
X75802256Y18544744D01*
X76663500Y17683500D01*
X76983057Y17469979D01*
X77360000Y17395000D01*
X86445000Y17395000D01*
X86445000Y17070000D01*
X86519979Y16693057D01*
X86733500Y16373500D01*
X87805000Y15302000D01*
X87805000Y13449018D01*
X87688559Y13374090D01*
X87543569Y13161890D01*
X87540919Y13148803D01*
X87404090Y13361441D01*
X87191890Y13506431D01*
X86940000Y13557440D01*
X86478826Y13557440D01*
X86290000Y13595000D01*
X84987440Y13595000D01*
X84987440Y13600000D01*
X84943162Y13835317D01*
X84804090Y14051441D01*
X84591890Y14196431D01*
X84340000Y14247440D01*
X83440000Y14247440D01*
X83204683Y14203162D01*
X82988559Y14064090D01*
X82934519Y13985000D01*
X82697440Y13985000D01*
X82697440Y15390000D01*
X82653162Y15625317D01*
X82514090Y15841441D01*
X82301890Y15986431D01*
X82050000Y16037440D01*
X80250000Y16037440D01*
X80014683Y15993162D01*
X79798559Y15854090D01*
X79653569Y15641890D01*
X79602560Y15390000D01*
X79602560Y11990000D01*
X79646838Y11754683D01*
X79785910Y11538559D01*
X79998110Y11393569D01*
X80250000Y11342560D01*
X82050000Y11342560D01*
X82285317Y11386838D01*
X82501441Y11525910D01*
X82646431Y11738110D01*
X82697440Y11990000D01*
X82697440Y12015000D01*
X82933156Y12015000D01*
X82975910Y11948559D01*
X83044006Y11902031D01*
X82901673Y11759698D01*
X82805000Y11526309D01*
X82805000Y11085750D01*
X82963750Y10927000D01*
X83763000Y10927000D01*
X83763000Y10947000D01*
X84017000Y10947000D01*
X84017000Y10927000D01*
X84816250Y10927000D01*
X84975000Y11085750D01*
X84975000Y11526309D01*
X84934121Y11625000D01*
X86290000Y11625000D01*
X86478826Y11662560D01*
X86940000Y11662560D01*
X87175317Y11706838D01*
X87391441Y11845910D01*
X87536431Y12058110D01*
X87539081Y12071197D01*
X87675910Y11858559D01*
X87888110Y11713569D01*
X88140000Y11662560D01*
X88601174Y11662560D01*
X88790000Y11625000D01*
X88978826Y11662560D01*
X89440000Y11662560D01*
X89675317Y11706838D01*
X89891441Y11845910D01*
X90036431Y12058110D01*
X90087440Y12310000D01*
X90087440Y12910000D01*
X90043162Y13145317D01*
X89904090Y13361441D01*
X89775000Y13449644D01*
X89775000Y15710000D01*
X89700021Y16086943D01*
X89486500Y16406500D01*
X88450880Y17442120D01*
X88603461Y17594436D01*
X88814759Y18103298D01*
X88815240Y18654285D01*
X88604831Y19163515D01*
X88215564Y19553461D01*
X87706702Y19764759D01*
X87155715Y19765240D01*
X86646485Y19554831D01*
X86456323Y19365000D01*
X77768000Y19365000D01*
X77194746Y19938254D01*
X77195292Y20563697D01*
X76939306Y21183229D01*
X76465722Y21657640D01*
X75846638Y21914707D01*
X75176303Y21915292D01*
X74556771Y21659306D01*
X74082360Y21185722D01*
X73825293Y20566638D01*
X73824708Y19896303D01*
X64822440Y19896303D01*
X64822440Y20070000D01*
X64778162Y20305317D01*
X64711671Y20408646D01*
X64713327Y20410302D01*
X64810000Y20643691D01*
X64810000Y21084250D01*
X64651250Y21243000D01*
X63927000Y21243000D01*
X63927000Y21223000D01*
X63673000Y21223000D01*
X63673000Y21243000D01*
X62948750Y21243000D01*
X62790000Y21084250D01*
X62790000Y20643691D01*
X62886673Y20410302D01*
X62888043Y20408932D01*
X62828569Y20321890D01*
X62777560Y20070000D01*
X62777560Y18870000D01*
X62809144Y18702144D01*
X62750000Y18643000D01*
X62750000Y18835000D01*
X62675021Y19211943D01*
X62567440Y19372949D01*
X62567440Y19630000D01*
X62523162Y19865317D01*
X62384090Y20081441D01*
X62171890Y20226431D01*
X62138510Y20233191D01*
X62279699Y20291673D01*
X62458327Y20470302D01*
X62555000Y20703691D01*
X62555000Y21194250D01*
X62396250Y21353000D01*
X61747000Y21353000D01*
X61747000Y21333000D01*
X61493000Y21333000D01*
X61493000Y21353000D01*
X60843750Y21353000D01*
X60685000Y21194250D01*
X60685000Y20703691D01*
X60781673Y20470302D01*
X60960301Y20291673D01*
X61096287Y20235346D01*
X61084683Y20233162D01*
X60868559Y20094090D01*
X60780356Y19965000D01*
X60067440Y19965000D01*
X60067440Y21560000D01*
X60023162Y21795317D01*
X59884090Y22011441D01*
X59671890Y22156431D01*
X59420000Y22207440D01*
X57620000Y22207440D01*
X57465000Y22178275D01*
X57465000Y22256309D01*
X60685000Y22256309D01*
X60685000Y21765750D01*
X60843750Y21607000D01*
X61493000Y21607000D01*
X61493000Y22606250D01*
X61747000Y22606250D01*
X61747000Y21607000D01*
X62396250Y21607000D01*
X62555000Y21765750D01*
X62555000Y22096309D01*
X62790000Y22096309D01*
X62790000Y21655750D01*
X62948750Y21497000D01*
X63673000Y21497000D01*
X63673000Y22446250D01*
X63927000Y22446250D01*
X63927000Y21497000D01*
X64651250Y21497000D01*
X64810000Y21655750D01*
X64810000Y22096309D01*
X64713327Y22329698D01*
X64534699Y22508327D01*
X64301310Y22605000D01*
X64085750Y22605000D01*
X63927000Y22446250D01*
X63673000Y22446250D01*
X63514250Y22605000D01*
X63298690Y22605000D01*
X63065301Y22508327D01*
X62886673Y22329698D01*
X62790000Y22096309D01*
X62555000Y22096309D01*
X62555000Y22256309D01*
X62458327Y22489698D01*
X62279699Y22668327D01*
X62046310Y22765000D01*
X61905750Y22765000D01*
X61747000Y22606250D01*
X61493000Y22606250D01*
X61334250Y22765000D01*
X61193690Y22765000D01*
X60960301Y22668327D01*
X60781673Y22489698D01*
X60685000Y22256309D01*
X57465000Y22256309D01*
X57465000Y23375000D01*
X57567370Y23375000D01*
X57576838Y23324683D01*
X57715910Y23108559D01*
X57928110Y22963569D01*
X58180000Y22912560D01*
X59780000Y22912560D01*
X60015317Y22956838D01*
X60231441Y23095910D01*
X60376431Y23308110D01*
X60385370Y23352255D01*
X60651861Y23352255D01*
X60725995Y23106136D01*
X61263223Y22913035D01*
X61833454Y22940222D01*
X62234005Y23106136D01*
X62308139Y23352255D01*
X61480000Y24180395D01*
X60651861Y23352255D01*
X60385370Y23352255D01*
X60424646Y23546201D01*
X60472255Y23531861D01*
X61300395Y24360000D01*
X61659605Y24360000D01*
X62487745Y23531861D01*
X62733864Y23605995D01*
X62926965Y24143223D01*
X62899778Y24713454D01*
X62733864Y25114005D01*
X62487745Y25188139D01*
X61659605Y24360000D01*
X61300395Y24360000D01*
X60472255Y25188139D01*
X60424833Y25173855D01*
X60388351Y25367745D01*
X60651861Y25367745D01*
X61480000Y24539605D01*
X62308139Y25367745D01*
X62234005Y25613864D01*
X61696777Y25806965D01*
X61126546Y25779778D01*
X60725995Y25613864D01*
X60651861Y25367745D01*
X60388351Y25367745D01*
X60383162Y25395317D01*
X60244090Y25611441D01*
X60031890Y25756431D01*
X59780000Y25807440D01*
X58180000Y25807440D01*
X57944683Y25763162D01*
X57728559Y25624090D01*
X57583569Y25411890D01*
X57570023Y25345000D01*
X57048000Y25345000D01*
X55916500Y26476500D01*
X55596943Y26690021D01*
X55220000Y26765000D01*
X54985000Y26765000D01*
X54985000Y27250000D01*
X54910021Y27626943D01*
X54696500Y27946500D01*
X54446500Y28196500D01*
X54126943Y28410021D01*
X53750000Y28485000D01*
X49827379Y28485000D01*
X49677363Y28635278D01*
X49076648Y28884716D01*
X48426205Y28885284D01*
X47825057Y28636894D01*
X47364722Y28177363D01*
X47115284Y27576648D01*
X47114716Y26926205D01*
X47337121Y26387946D01*
X47236890Y26456431D01*
X46985000Y26507440D01*
X46235000Y26507440D01*
X45999683Y26463162D01*
X45783559Y26324090D01*
X45724725Y26237983D01*
X45383057Y26170021D01*
X45063500Y25956500D01*
X44553500Y25446500D01*
X44339979Y25126943D01*
X44265000Y24750000D01*
X44265000Y24158000D01*
X43710996Y23603996D01*
X43873345Y29123878D01*
X63840500Y29266500D01*
X69535098Y23571902D01*
X69325293Y23066638D01*
X69324708Y22396303D01*
X69580694Y21776771D01*
X70054278Y21302360D01*
X70673362Y21045293D01*
X71343697Y21044708D01*
X71963229Y21300694D01*
X72437640Y21774278D01*
X72694707Y22393362D01*
X72695292Y23063697D01*
X72439306Y23683229D01*
X71965722Y24157640D01*
X71571781Y24321219D01*
X69851703Y26041297D01*
X72500902Y26041297D01*
X72605687Y25769255D01*
X73233526Y25534381D01*
X73903456Y25557651D01*
X74414313Y25769255D01*
X74519098Y26041297D01*
X73510000Y27050395D01*
X72500902Y26041297D01*
X69851703Y26041297D01*
X68386526Y27506474D01*
X71814381Y27506474D01*
X71837651Y26836544D01*
X72049255Y26325687D01*
X72321297Y26220902D01*
X73330395Y27230000D01*
X73689605Y27230000D01*
X74698703Y26220902D01*
X74970745Y26325687D01*
X75205619Y26953526D01*
X75182349Y27623456D01*
X74970745Y28134313D01*
X74698703Y28239098D01*
X73689605Y27230000D01*
X73330395Y27230000D01*
X72321297Y28239098D01*
X72049255Y28134313D01*
X71814381Y27506474D01*
X68386526Y27506474D01*
X67474297Y28418703D01*
X72500902Y28418703D01*
X73510000Y27409605D01*
X74519098Y28418703D01*
X74414313Y28690745D01*
X73786474Y28925619D01*
X73116544Y28902349D01*
X72605687Y28690745D01*
X72500902Y28418703D01*
X67474297Y28418703D01*
X66606741Y29286259D01*
X80492443Y29385443D01*
X77413847Y26306847D01*
X77056771Y26159306D01*
X76582360Y25685722D01*
X76325293Y25066638D01*
X76324708Y24396303D01*
X76580694Y23776771D01*
X77054278Y23302360D01*
X77673362Y23045293D01*
X78343697Y23044708D01*
X78463597Y23094250D01*
X86045000Y23094250D01*
X86045000Y22503691D01*
X86141673Y22270302D01*
X86320301Y22091673D01*
X86553690Y21995000D01*
X87144250Y21995000D01*
X87303000Y22153750D01*
X87303000Y23253000D01*
X87557000Y23253000D01*
X87557000Y22153750D01*
X87715750Y21995000D01*
X88306310Y21995000D01*
X88539699Y22091673D01*
X88718327Y22270302D01*
X88815000Y22503691D01*
X88815000Y23094250D01*
X88656250Y23253000D01*
X87557000Y23253000D01*
X87303000Y23253000D01*
X86203750Y23253000D01*
X86045000Y23094250D01*
X78463597Y23094250D01*
X78963229Y23300694D01*
X79437640Y23774278D01*
X79637797Y24256309D01*
X86045000Y24256309D01*
X86045000Y23665750D01*
X86203750Y23507000D01*
X87303000Y23507000D01*
X87303000Y24606250D01*
X87557000Y24606250D01*
X87557000Y23507000D01*
X88656250Y23507000D01*
X88815000Y23665750D01*
X88815000Y24256309D01*
X88718327Y24489698D01*
X88539699Y24668327D01*
X88306310Y24765000D01*
X87715750Y24765000D01*
X87557000Y24606250D01*
X87303000Y24606250D01*
X87144250Y24765000D01*
X86553690Y24765000D01*
X86320301Y24668327D01*
X86141673Y24489698D01*
X86045000Y24256309D01*
X79637797Y24256309D01*
X79694707Y24393362D01*
X79695292Y25063697D01*
X79479340Y25586340D01*
X83298486Y29405486D01*
X106790000Y29573282D01*
X106790000Y710000D01*
X106790000Y710000D01*
G37*
X106790000Y710000D02*
X710000Y710000D01*
X710000Y4767468D01*
X6527073Y4767468D01*
X6625736Y4500613D01*
X7235461Y4274092D01*
X7885460Y4298144D01*
X8105409Y4389250D01*
X41590000Y4389250D01*
X41590000Y4173690D01*
X41686673Y3940301D01*
X41865302Y3761673D01*
X42098691Y3665000D01*
X42539250Y3665000D01*
X42698000Y3823750D01*
X42698000Y4548000D01*
X41748750Y4548000D01*
X41590000Y4389250D01*
X8105409Y4389250D01*
X8374264Y4500613D01*
X8472927Y4767468D01*
X7500000Y5740395D01*
X6527073Y4767468D01*
X710000Y4767468D01*
X710000Y6184539D01*
X5854092Y6184539D01*
X5878144Y5534540D01*
X6080613Y5045736D01*
X6347468Y4947073D01*
X7320395Y5920000D01*
X7679605Y5920000D01*
X8652532Y4947073D01*
X8919387Y5045736D01*
X9145908Y5655461D01*
X9121856Y6305460D01*
X8919387Y6794264D01*
X8652532Y6892927D01*
X7679605Y5920000D01*
X7320395Y5920000D01*
X6347468Y6892927D01*
X6080613Y6794264D01*
X5854092Y6184539D01*
X710000Y6184539D01*
X710000Y24864250D01*
X28215000Y24864250D01*
X28215000Y24273691D01*
X28311673Y24040302D01*
X28490301Y23861673D01*
X28723690Y23765000D01*
X29214250Y23765000D01*
X29373000Y23923750D01*
X29373000Y25023000D01*
X29627000Y25023000D01*
X29627000Y23923750D01*
X29785750Y23765000D01*
X30276310Y23765000D01*
X30509699Y23861673D01*
X30688327Y24040302D01*
X30785000Y24273691D01*
X30785000Y24864250D01*
X30626250Y25023000D01*
X29627000Y25023000D01*
X29373000Y25023000D01*
X28373750Y25023000D01*
X28215000Y24864250D01*
X710000Y24864250D01*
X710000Y25623000D01*
X28215000Y25623000D01*
X28215000Y25435750D01*
X28373750Y25277000D01*
X29373000Y25277000D01*
X29373000Y25297000D01*
X29627000Y25297000D01*
X29627000Y25277000D01*
X30626250Y25277000D01*
X30785000Y25435750D01*
X30785000Y25623000D01*
X30790000Y25623000D01*
X30790000Y23000000D01*
X30844046Y22728295D01*
X30873000Y22684962D01*
X30873000Y21022250D01*
X30777000Y20926250D01*
X30777000Y20127000D01*
X30797000Y20127000D01*
X30797000Y19873000D01*
X30777000Y19873000D01*
X30777000Y19853000D01*
X30523000Y19853000D01*
X30523000Y19873000D01*
X29573750Y19873000D01*
X29415000Y19714250D01*
X29415000Y19485000D01*
X27358147Y19485000D01*
X27310021Y19726943D01*
X27096500Y20046500D01*
X26566690Y20576310D01*
X29415000Y20576310D01*
X29415000Y20285750D01*
X29573750Y20127000D01*
X30523000Y20127000D01*
X30523000Y20926250D01*
X30364250Y21085000D01*
X29923691Y21085000D01*
X29690302Y20988327D01*
X29511673Y20809699D01*
X29415000Y20576310D01*
X26566690Y20576310D01*
X24946500Y22196500D01*
X24626943Y22410021D01*
X24250000Y22485000D01*
X5500000Y22485000D01*
X5123057Y22410021D01*
X4803500Y22196500D01*
X3553500Y20946500D01*
X3339979Y20626943D01*
X3265000Y20250000D01*
X3265000Y10000000D01*
X3339979Y9623057D01*
X3553500Y9303500D01*
X5093500Y7763500D01*
X5413057Y7549979D01*
X5790000Y7475000D01*
X6173058Y7475000D01*
X6539978Y7107438D01*
X6527073Y7072532D01*
X7500000Y6099605D01*
X8472927Y7072532D01*
X8459836Y7107938D01*
X8885278Y7532637D01*
X9134716Y8133352D01*
X9135284Y8783795D01*
X8886894Y9384943D01*
X8820379Y9451574D01*
X8951441Y9535910D01*
X9096431Y9748110D01*
X9147440Y10000000D01*
X9147440Y12000000D01*
X9103162Y12235317D01*
X8964090Y12451441D01*
X8751890Y12596431D01*
X8500000Y12647440D01*
X6500000Y12647440D01*
X6264683Y12603162D01*
X6235000Y12584062D01*
X6235000Y12912527D01*
X6248110Y12903569D01*
X6500000Y12852560D01*
X8500000Y12852560D01*
X8735317Y12896838D01*
X8951441Y13035910D01*
X9096431Y13248110D01*
X9147440Y13500000D01*
X9147440Y13515000D01*
X16284623Y13515000D01*
X16363106Y13325057D01*
X16822637Y12864722D01*
X17423352Y12615284D01*
X18073795Y12614716D01*
X18674943Y12863106D01*
X18965000Y13152656D01*
X18965000Y13123690D01*
X19061673Y12890301D01*
X19240302Y12711673D01*
X19473691Y12615000D01*
X19914250Y12615000D01*
X20073000Y12773750D01*
X20073000Y13573000D01*
X20053000Y13573000D01*
X20053000Y13827000D01*
X20073000Y13827000D01*
X20073000Y15173000D01*
X20053000Y15173000D01*
X20053000Y15427000D01*
X20073000Y15427000D01*
X20073000Y16773000D01*
X19123750Y16773000D01*
X18965000Y16614250D01*
X18965000Y16323690D01*
X19057656Y16100000D01*
X18965000Y15876310D01*
X18965000Y15585750D01*
X19123748Y15427002D01*
X18965000Y15427002D01*
X18965000Y15347138D01*
X18677363Y15635278D01*
X18338223Y15776101D01*
X18635278Y16072637D01*
X18884716Y16673352D01*
X18885284Y17323795D01*
X18636894Y17924943D01*
X18348093Y18214250D01*
X18965000Y18214250D01*
X18965000Y17923690D01*
X19057656Y17700000D01*
X18965000Y17476310D01*
X18965000Y17185750D01*
X19123750Y17027000D01*
X20073000Y17027000D01*
X20073000Y18373000D01*
X19123750Y18373000D01*
X18965000Y18214250D01*
X18348093Y18214250D01*
X18177363Y18385278D01*
X17576648Y18634716D01*
X16926205Y18635284D01*
X16325057Y18386894D01*
X15962530Y18025000D01*
X8826942Y18025000D01*
X8460022Y18392562D01*
X8472927Y18427468D01*
X7500000Y19400395D01*
X6527073Y18427468D01*
X6540164Y18392062D01*
X6143210Y17995802D01*
X5913057Y17950021D01*
X5593500Y17736500D01*
X5235000Y17378000D01*
X5235000Y19842000D01*
X5908000Y20515000D01*
X6244886Y20515000D01*
X6080613Y20454264D01*
X5854092Y19844539D01*
X5878144Y19194540D01*
X6080613Y18705736D01*
X6347468Y18607073D01*
X7320395Y19580000D01*
X7306253Y19594142D01*
X7485858Y19773747D01*
X7500000Y19759605D01*
X7514143Y19773747D01*
X7693748Y19594142D01*
X7679605Y19580000D01*
X8652532Y18607073D01*
X8919387Y18705736D01*
X9057060Y19076310D01*
X18965000Y19076310D01*
X18965000Y18785750D01*
X19123750Y18627000D01*
X20073000Y18627000D01*
X20073000Y19426250D01*
X19914250Y19585000D01*
X19473691Y19585000D01*
X19240302Y19488327D01*
X19061673Y19309699D01*
X18965000Y19076310D01*
X9057060Y19076310D01*
X9145908Y19315461D01*
X9121856Y19965460D01*
X8919387Y20454264D01*
X8755114Y20515000D01*
X23842000Y20515000D01*
X24759560Y19597440D01*
X23600000Y19597440D01*
X23364683Y19553162D01*
X23301522Y19512519D01*
X23251890Y19546431D01*
X23000000Y19597440D01*
X21800000Y19597440D01*
X21564683Y19553162D01*
X21348559Y19414090D01*
X21302031Y19345994D01*
X21159698Y19488327D01*
X20926309Y19585000D01*
X20485750Y19585000D01*
X20327000Y19426250D01*
X20327000Y18627000D01*
X20347000Y18627000D01*
X20347000Y18373000D01*
X20327000Y18373000D01*
X20327000Y17027000D01*
X20347000Y17027000D01*
X20347000Y16773000D01*
X20327000Y16773000D01*
X20327000Y15427000D01*
X20347000Y15427000D01*
X20347000Y15173000D01*
X20327000Y15173000D01*
X20327000Y13827000D01*
X20347000Y13827000D01*
X20347000Y13573000D01*
X20327000Y13573000D01*
X20327000Y12773750D01*
X20485750Y12615000D01*
X20926309Y12615000D01*
X21159698Y12711673D01*
X21300936Y12852910D01*
X21335910Y12798559D01*
X21548110Y12653569D01*
X21800000Y12602560D01*
X23000000Y12602560D01*
X23235317Y12646838D01*
X23298478Y12687481D01*
X23348110Y12653569D01*
X23600000Y12602560D01*
X24209560Y12602560D01*
X21603500Y9996500D01*
X21389979Y9676943D01*
X21315000Y9300000D01*
X21315000Y8247440D01*
X21300000Y8247440D01*
X21064683Y8203162D01*
X20848559Y8064090D01*
X20703569Y7851890D01*
X20652560Y7600000D01*
X20652560Y5600000D01*
X20696838Y5364683D01*
X20835910Y5148559D01*
X21048110Y5003569D01*
X21300000Y4952560D01*
X23300000Y4952560D01*
X23535317Y4996838D01*
X23751441Y5135910D01*
X23848910Y5278561D01*
X23912637Y5214722D01*
X24513352Y4965284D01*
X25163795Y4964716D01*
X25764943Y5213106D01*
X26110199Y5557759D01*
X26452637Y5214722D01*
X27053352Y4965284D01*
X27703795Y4964716D01*
X28304943Y5213106D01*
X28539715Y5447468D01*
X28947073Y5447468D01*
X29045736Y5180613D01*
X29655461Y4954092D01*
X30305460Y4978144D01*
X30783875Y5176310D01*
X41590000Y5176310D01*
X41590000Y4960750D01*
X41748750Y4802000D01*
X42698000Y4802000D01*
X42698000Y5526250D01*
X42539250Y5685000D01*
X42098691Y5685000D01*
X41865302Y5588327D01*
X41686673Y5409699D01*
X41590000Y5176310D01*
X30783875Y5176310D01*
X30794264Y5180613D01*
X30892927Y5447468D01*
X29920000Y6420395D01*
X28947073Y5447468D01*
X28539715Y5447468D01*
X28732562Y5639978D01*
X28767468Y5627073D01*
X29740395Y6600000D01*
X30099605Y6600000D01*
X31072532Y5627073D01*
X31339387Y5725736D01*
X31565908Y6335461D01*
X31541856Y6985460D01*
X31339387Y7474264D01*
X31072532Y7572927D01*
X30099605Y6600000D01*
X29740395Y6600000D01*
X28767468Y7572927D01*
X28732062Y7559836D01*
X28539703Y7752532D01*
X28947073Y7752532D01*
X29920000Y6779605D01*
X30892927Y7752532D01*
X30794264Y8019387D01*
X30184539Y8245908D01*
X29534540Y8221856D01*
X29045736Y8019387D01*
X28947073Y7752532D01*
X28539703Y7752532D01*
X28307363Y7985278D01*
X27706648Y8234716D01*
X27056205Y8235284D01*
X26455057Y7986894D01*
X26109801Y7642241D01*
X25767363Y7985278D01*
X25166648Y8234716D01*
X24516205Y8235284D01*
X23915057Y7986894D01*
X23848426Y7920379D01*
X23764090Y8051441D01*
X23551890Y8196431D01*
X23300000Y8247440D01*
X23285000Y8247440D01*
X23285000Y8892000D01*
X25932250Y11539250D01*
X36900000Y11539250D01*
X36900000Y11323690D01*
X36996673Y11090301D01*
X37175302Y10911673D01*
X37408691Y10815000D01*
X37849250Y10815000D01*
X38008000Y10973750D01*
X38008000Y11698000D01*
X37058750Y11698000D01*
X36900000Y11539250D01*
X25932250Y11539250D01*
X26908000Y12515000D01*
X35750000Y12515000D01*
X36126943Y12589979D01*
X36446500Y12803500D01*
X36890000Y13247000D01*
X36890000Y12978690D01*
X36986673Y12745301D01*
X37084475Y12647500D01*
X36996673Y12559699D01*
X36900000Y12326310D01*
X36900000Y12110750D01*
X37058750Y11952000D01*
X38008000Y11952000D01*
X38008000Y12676250D01*
X37998000Y12686250D01*
X37998000Y13428000D01*
X37978000Y13428000D01*
X37978000Y13682000D01*
X37998000Y13682000D01*
X37998000Y13702000D01*
X38252000Y13702000D01*
X38252000Y13682000D01*
X38272000Y13682000D01*
X38272000Y13428000D01*
X38252000Y13428000D01*
X38252000Y12628750D01*
X38262000Y12618750D01*
X38262000Y11952000D01*
X38282000Y11952000D01*
X38282000Y11698000D01*
X38262000Y11698000D01*
X38262000Y10973750D01*
X38420750Y10815000D01*
X38861309Y10815000D01*
X39094698Y10911673D01*
X39096068Y10913043D01*
X39183110Y10853569D01*
X39199247Y10850301D01*
X39162069Y10795890D01*
X39111060Y10544000D01*
X39111060Y10076088D01*
X39055000Y10087440D01*
X37855000Y10087440D01*
X37619683Y10043162D01*
X37505022Y9969380D01*
X37406890Y10036431D01*
X37155000Y10087440D01*
X35955000Y10087440D01*
X35719683Y10043162D01*
X35503559Y9904090D01*
X35358569Y9691890D01*
X35307560Y9440000D01*
X35307560Y8953826D01*
X35270000Y8765000D01*
X35270000Y8461844D01*
X35203559Y8419090D01*
X35058569Y8206890D01*
X35007560Y7955000D01*
X35007560Y7055000D01*
X35051838Y6819683D01*
X35190910Y6603559D01*
X35403110Y6458569D01*
X35655000Y6407560D01*
X36855000Y6407560D01*
X37090317Y6451838D01*
X37306441Y6590910D01*
X37352969Y6659006D01*
X37495302Y6516673D01*
X37728691Y6420000D01*
X38169250Y6420000D01*
X38328000Y6578750D01*
X38328000Y7378000D01*
X38308000Y7378000D01*
X38308000Y7632000D01*
X38328000Y7632000D01*
X38328000Y7652000D01*
X38582000Y7652000D01*
X38582000Y7632000D01*
X38602000Y7632000D01*
X38602000Y7378000D01*
X38582000Y7378000D01*
X38582000Y6578750D01*
X38740750Y6420000D01*
X39123500Y6420000D01*
X39123500Y6352998D01*
X39282248Y6352998D01*
X39123500Y6194250D01*
X39123500Y6099691D01*
X39220173Y5866302D01*
X39398801Y5687673D01*
X39632190Y5591000D01*
X40044250Y5591000D01*
X40203000Y5749750D01*
X40203000Y6353000D01*
X40457000Y6353000D01*
X40457000Y5749750D01*
X40615750Y5591000D01*
X41027810Y5591000D01*
X41261199Y5687673D01*
X41439827Y5866302D01*
X41536500Y6099691D01*
X41536500Y6194250D01*
X41377750Y6353000D01*
X40457000Y6353000D01*
X40203000Y6353000D01*
X40183000Y6353000D01*
X40183000Y6607000D01*
X40203000Y6607000D01*
X40203000Y7623000D01*
X40457000Y7623000D01*
X40457000Y6607000D01*
X41377750Y6607000D01*
X41536500Y6765750D01*
X41536500Y6860309D01*
X41439827Y7093698D01*
X41418525Y7115000D01*
X41439827Y7136302D01*
X41536500Y7369691D01*
X41536500Y7464250D01*
X41377750Y7623000D01*
X40457000Y7623000D01*
X40203000Y7623000D01*
X40183000Y7623000D01*
X40183000Y7877000D01*
X40203000Y7877000D01*
X40203000Y7897000D01*
X40457000Y7897000D01*
X40457000Y7877000D01*
X41377750Y7877000D01*
X41536500Y8035750D01*
X41536500Y8130309D01*
X41439827Y8363698D01*
X41413291Y8390235D01*
X41497931Y8514110D01*
X41548940Y8766000D01*
X41548940Y9274000D01*
X41504662Y9509317D01*
X41410334Y9655907D01*
X41497931Y9784110D01*
X41548940Y10036000D01*
X41548940Y10544000D01*
X41504662Y10779317D01*
X41365590Y10995441D01*
X41315000Y11030008D01*
X41315000Y11530000D01*
X41282440Y11693689D01*
X41282440Y12200000D01*
X41238162Y12435317D01*
X41185096Y12517783D01*
X41376441Y12640910D01*
X41441871Y12736670D01*
X41635000Y12697560D01*
X42835000Y12697560D01*
X43070317Y12741838D01*
X43286441Y12880910D01*
X43334134Y12950711D01*
X43370910Y12893559D01*
X43434625Y12850024D01*
X43408569Y12811890D01*
X43357560Y12560000D01*
X43357560Y11810000D01*
X43401838Y11574683D01*
X43540910Y11358559D01*
X43620000Y11304519D01*
X43620000Y10145000D01*
X43694979Y9768057D01*
X43908500Y9448500D01*
X45033500Y8323500D01*
X45353057Y8109979D01*
X45477508Y8085224D01*
X45461060Y8004000D01*
X45461060Y7496000D01*
X45505338Y7260683D01*
X45599666Y7114093D01*
X45512069Y6985890D01*
X45461060Y6734000D01*
X45461060Y6654060D01*
X44803502Y5996502D01*
X44803499Y5996500D01*
X44504439Y5697440D01*
X44125000Y5697440D01*
X43889683Y5653162D01*
X43786354Y5586671D01*
X43784698Y5588327D01*
X43551309Y5685000D01*
X43110750Y5685000D01*
X42952000Y5526250D01*
X42952000Y4802000D01*
X42972000Y4802000D01*
X42972000Y4548000D01*
X42952000Y4548000D01*
X42952000Y3823750D01*
X43110750Y3665000D01*
X43551309Y3665000D01*
X43784698Y3761673D01*
X43786068Y3763043D01*
X43873110Y3703569D01*
X44125000Y3652560D01*
X44354440Y3652560D01*
X44453500Y3553500D01*
X44773057Y3339979D01*
X45150000Y3265000D01*
X49500000Y3265000D01*
X49876943Y3339979D01*
X50138881Y3515000D01*
X71250000Y3515000D01*
X71626943Y3589979D01*
X71946500Y3803500D01*
X78646500Y10503500D01*
X78653682Y10514250D01*
X82805000Y10514250D01*
X82805000Y10073691D01*
X82901673Y9840302D01*
X83080301Y9661673D01*
X83313690Y9565000D01*
X83604250Y9565000D01*
X83763000Y9723750D01*
X83763000Y10673000D01*
X84017000Y10673000D01*
X84017000Y9723750D01*
X84175750Y9565000D01*
X84466310Y9565000D01*
X84699699Y9661673D01*
X84878327Y9840302D01*
X84975000Y10073691D01*
X84975000Y10514250D01*
X84816250Y10673000D01*
X84017000Y10673000D01*
X83763000Y10673000D01*
X82963750Y10673000D01*
X82805000Y10514250D01*
X78653682Y10514250D01*
X78860021Y10823057D01*
X78935000Y11200000D01*
X78935000Y11358554D01*
X79085317Y11386838D01*
X79301441Y11525910D01*
X79446431Y11738110D01*
X79497440Y11990000D01*
X79497440Y15390000D01*
X79453162Y15625317D01*
X79314090Y15841441D01*
X79101890Y15986431D01*
X78850000Y16037440D01*
X77050000Y16037440D01*
X76814683Y15993162D01*
X76598559Y15854090D01*
X76453569Y15641890D01*
X76402560Y15390000D01*
X76402560Y14675000D01*
X75933328Y14675000D01*
X75903162Y14835317D01*
X75764090Y15051441D01*
X75551890Y15196431D01*
X75300000Y15247440D01*
X74285561Y15247440D01*
X72676500Y16856500D01*
X72356943Y17070021D01*
X71980000Y17145000D01*
X68660000Y17145000D01*
X68283057Y17070021D01*
X67963500Y16856500D01*
X66908922Y15801922D01*
X66890021Y15896943D01*
X66676500Y16216500D01*
X65760000Y17133000D01*
X65760000Y18495000D01*
X65685021Y18871943D01*
X65471500Y19191500D01*
X64822440Y19840560D01*
X64822440Y19896303D01*
X73824708Y19896303D01*
X74080694Y19276771D01*
X74554278Y18802360D01*
X75173362Y18545293D01*
X75802256Y18544744D01*
X76663500Y17683500D01*
X76983057Y17469979D01*
X77360000Y17395000D01*
X86445000Y17395000D01*
X86445000Y17070000D01*
X86519979Y16693057D01*
X86733500Y16373500D01*
X87805000Y15302000D01*
X87805000Y13449018D01*
X87688559Y13374090D01*
X87543569Y13161890D01*
X87540919Y13148803D01*
X87404090Y13361441D01*
X87191890Y13506431D01*
X86940000Y13557440D01*
X86478826Y13557440D01*
X86290000Y13595000D01*
X84987440Y13595000D01*
X84987440Y13600000D01*
X84943162Y13835317D01*
X84804090Y14051441D01*
X84591890Y14196431D01*
X84340000Y14247440D01*
X83440000Y14247440D01*
X83204683Y14203162D01*
X82988559Y14064090D01*
X82934519Y13985000D01*
X82697440Y13985000D01*
X82697440Y15390000D01*
X82653162Y15625317D01*
X82514090Y15841441D01*
X82301890Y15986431D01*
X82050000Y16037440D01*
X80250000Y16037440D01*
X80014683Y15993162D01*
X79798559Y15854090D01*
X79653569Y15641890D01*
X79602560Y15390000D01*
X79602560Y11990000D01*
X79646838Y11754683D01*
X79785910Y11538559D01*
X79998110Y11393569D01*
X80250000Y11342560D01*
X82050000Y11342560D01*
X82285317Y11386838D01*
X82501441Y11525910D01*
X82646431Y11738110D01*
X82697440Y11990000D01*
X82697440Y12015000D01*
X82933156Y12015000D01*
X82975910Y11948559D01*
X83044006Y11902031D01*
X82901673Y11759698D01*
X82805000Y11526309D01*
X82805000Y11085750D01*
X82963750Y10927000D01*
X83763000Y10927000D01*
X83763000Y10947000D01*
X84017000Y10947000D01*
X84017000Y10927000D01*
X84816250Y10927000D01*
X84975000Y11085750D01*
X84975000Y11526309D01*
X84934121Y11625000D01*
X86290000Y11625000D01*
X86478826Y11662560D01*
X86940000Y11662560D01*
X87175317Y11706838D01*
X87391441Y11845910D01*
X87536431Y12058110D01*
X87539081Y12071197D01*
X87675910Y11858559D01*
X87888110Y11713569D01*
X88140000Y11662560D01*
X88601174Y11662560D01*
X88790000Y11625000D01*
X88978826Y11662560D01*
X89440000Y11662560D01*
X89675317Y11706838D01*
X89891441Y11845910D01*
X90036431Y12058110D01*
X90087440Y12310000D01*
X90087440Y12910000D01*
X90043162Y13145317D01*
X89904090Y13361441D01*
X89775000Y13449644D01*
X89775000Y15710000D01*
X89700021Y16086943D01*
X89486500Y16406500D01*
X88450880Y17442120D01*
X88603461Y17594436D01*
X88814759Y18103298D01*
X88815240Y18654285D01*
X88604831Y19163515D01*
X88215564Y19553461D01*
X87706702Y19764759D01*
X87155715Y19765240D01*
X86646485Y19554831D01*
X86456323Y19365000D01*
X77768000Y19365000D01*
X77194746Y19938254D01*
X77195292Y20563697D01*
X76939306Y21183229D01*
X76465722Y21657640D01*
X75846638Y21914707D01*
X75176303Y21915292D01*
X74556771Y21659306D01*
X74082360Y21185722D01*
X73825293Y20566638D01*
X73824708Y19896303D01*
X64822440Y19896303D01*
X64822440Y20070000D01*
X64778162Y20305317D01*
X64711671Y20408646D01*
X64713327Y20410302D01*
X64810000Y20643691D01*
X64810000Y21084250D01*
X64651250Y21243000D01*
X63927000Y21243000D01*
X63927000Y21223000D01*
X63673000Y21223000D01*
X63673000Y21243000D01*
X62948750Y21243000D01*
X62790000Y21084250D01*
X62790000Y20643691D01*
X62886673Y20410302D01*
X62888043Y20408932D01*
X62828569Y20321890D01*
X62777560Y20070000D01*
X62777560Y18870000D01*
X62809144Y18702144D01*
X62750000Y18643000D01*
X62750000Y18835000D01*
X62675021Y19211943D01*
X62567440Y19372949D01*
X62567440Y19630000D01*
X62523162Y19865317D01*
X62384090Y20081441D01*
X62171890Y20226431D01*
X62138510Y20233191D01*
X62279699Y20291673D01*
X62458327Y20470302D01*
X62555000Y20703691D01*
X62555000Y21194250D01*
X62396250Y21353000D01*
X61747000Y21353000D01*
X61747000Y21333000D01*
X61493000Y21333000D01*
X61493000Y21353000D01*
X60843750Y21353000D01*
X60685000Y21194250D01*
X60685000Y20703691D01*
X60781673Y20470302D01*
X60960301Y20291673D01*
X61096287Y20235346D01*
X61084683Y20233162D01*
X60868559Y20094090D01*
X60780356Y19965000D01*
X60067440Y19965000D01*
X60067440Y21560000D01*
X60023162Y21795317D01*
X59884090Y22011441D01*
X59671890Y22156431D01*
X59420000Y22207440D01*
X57620000Y22207440D01*
X57465000Y22178275D01*
X57465000Y22256309D01*
X60685000Y22256309D01*
X60685000Y21765750D01*
X60843750Y21607000D01*
X61493000Y21607000D01*
X61493000Y22606250D01*
X61747000Y22606250D01*
X61747000Y21607000D01*
X62396250Y21607000D01*
X62555000Y21765750D01*
X62555000Y22096309D01*
X62790000Y22096309D01*
X62790000Y21655750D01*
X62948750Y21497000D01*
X63673000Y21497000D01*
X63673000Y22446250D01*
X63927000Y22446250D01*
X63927000Y21497000D01*
X64651250Y21497000D01*
X64810000Y21655750D01*
X64810000Y22096309D01*
X64713327Y22329698D01*
X64534699Y22508327D01*
X64301310Y22605000D01*
X64085750Y22605000D01*
X63927000Y22446250D01*
X63673000Y22446250D01*
X63514250Y22605000D01*
X63298690Y22605000D01*
X63065301Y22508327D01*
X62886673Y22329698D01*
X62790000Y22096309D01*
X62555000Y22096309D01*
X62555000Y22256309D01*
X62458327Y22489698D01*
X62279699Y22668327D01*
X62046310Y22765000D01*
X61905750Y22765000D01*
X61747000Y22606250D01*
X61493000Y22606250D01*
X61334250Y22765000D01*
X61193690Y22765000D01*
X60960301Y22668327D01*
X60781673Y22489698D01*
X60685000Y22256309D01*
X57465000Y22256309D01*
X57465000Y23375000D01*
X57567370Y23375000D01*
X57576838Y23324683D01*
X57715910Y23108559D01*
X57928110Y22963569D01*
X58180000Y22912560D01*
X59780000Y22912560D01*
X60015317Y22956838D01*
X60231441Y23095910D01*
X60376431Y23308110D01*
X60385370Y23352255D01*
X60651861Y23352255D01*
X60725995Y23106136D01*
X61263223Y22913035D01*
X61833454Y22940222D01*
X62234005Y23106136D01*
X62308139Y23352255D01*
X61480000Y24180395D01*
X60651861Y23352255D01*
X60385370Y23352255D01*
X60424646Y23546201D01*
X60472255Y23531861D01*
X61300395Y24360000D01*
X61659605Y24360000D01*
X62487745Y23531861D01*
X62733864Y23605995D01*
X62926965Y24143223D01*
X62899778Y24713454D01*
X62733864Y25114005D01*
X62487745Y25188139D01*
X61659605Y24360000D01*
X61300395Y24360000D01*
X60472255Y25188139D01*
X60424833Y25173855D01*
X60388351Y25367745D01*
X60651861Y25367745D01*
X61480000Y24539605D01*
X62308139Y25367745D01*
X62234005Y25613864D01*
X61696777Y25806965D01*
X61126546Y25779778D01*
X60725995Y25613864D01*
X60651861Y25367745D01*
X60388351Y25367745D01*
X60383162Y25395317D01*
X60244090Y25611441D01*
X60031890Y25756431D01*
X59780000Y25807440D01*
X58180000Y25807440D01*
X57944683Y25763162D01*
X57728559Y25624090D01*
X57583569Y25411890D01*
X57570023Y25345000D01*
X57048000Y25345000D01*
X55916500Y26476500D01*
X55596943Y26690021D01*
X55220000Y26765000D01*
X54985000Y26765000D01*
X54985000Y27250000D01*
X54910021Y27626943D01*
X54696500Y27946500D01*
X54446500Y28196500D01*
X54126943Y28410021D01*
X53750000Y28485000D01*
X49827379Y28485000D01*
X49677363Y28635278D01*
X49076648Y28884716D01*
X48426205Y28885284D01*
X47825057Y28636894D01*
X47364722Y28177363D01*
X47115284Y27576648D01*
X47114716Y26926205D01*
X47337121Y26387946D01*
X47236890Y26456431D01*
X46985000Y26507440D01*
X46235000Y26507440D01*
X45999683Y26463162D01*
X45783559Y26324090D01*
X45724725Y26237983D01*
X45383057Y26170021D01*
X45063500Y25956500D01*
X44553500Y25446500D01*
X44339979Y25126943D01*
X44265000Y24750000D01*
X44265000Y24158000D01*
X43710996Y23603996D01*
X43873345Y29123878D01*
X63840500Y29266500D01*
X69535098Y23571902D01*
X69325293Y23066638D01*
X69324708Y22396303D01*
X69580694Y21776771D01*
X70054278Y21302360D01*
X70673362Y21045293D01*
X71343697Y21044708D01*
X71963229Y21300694D01*
X72437640Y21774278D01*
X72694707Y22393362D01*
X72695292Y23063697D01*
X72439306Y23683229D01*
X71965722Y24157640D01*
X71571781Y24321219D01*
X69851703Y26041297D01*
X72500902Y26041297D01*
X72605687Y25769255D01*
X73233526Y25534381D01*
X73903456Y25557651D01*
X74414313Y25769255D01*
X74519098Y26041297D01*
X73510000Y27050395D01*
X72500902Y26041297D01*
X69851703Y26041297D01*
X68386526Y27506474D01*
X71814381Y27506474D01*
X71837651Y26836544D01*
X72049255Y26325687D01*
X72321297Y26220902D01*
X73330395Y27230000D01*
X73689605Y27230000D01*
X74698703Y26220902D01*
X74970745Y26325687D01*
X75205619Y26953526D01*
X75182349Y27623456D01*
X74970745Y28134313D01*
X74698703Y28239098D01*
X73689605Y27230000D01*
X73330395Y27230000D01*
X72321297Y28239098D01*
X72049255Y28134313D01*
X71814381Y27506474D01*
X68386526Y27506474D01*
X67474297Y28418703D01*
X72500902Y28418703D01*
X73510000Y27409605D01*
X74519098Y28418703D01*
X74414313Y28690745D01*
X73786474Y28925619D01*
X73116544Y28902349D01*
X72605687Y28690745D01*
X72500902Y28418703D01*
X67474297Y28418703D01*
X66606741Y29286259D01*
X80492443Y29385443D01*
X77413847Y26306847D01*
X77056771Y26159306D01*
X76582360Y25685722D01*
X76325293Y25066638D01*
X76324708Y24396303D01*
X76580694Y23776771D01*
X77054278Y23302360D01*
X77673362Y23045293D01*
X78343697Y23044708D01*
X78463597Y23094250D01*
X86045000Y23094250D01*
X86045000Y22503691D01*
X86141673Y22270302D01*
X86320301Y22091673D01*
X86553690Y21995000D01*
X87144250Y21995000D01*
X87303000Y22153750D01*
X87303000Y23253000D01*
X87557000Y23253000D01*
X87557000Y22153750D01*
X87715750Y21995000D01*
X88306310Y21995000D01*
X88539699Y22091673D01*
X88718327Y22270302D01*
X88815000Y22503691D01*
X88815000Y23094250D01*
X88656250Y23253000D01*
X87557000Y23253000D01*
X87303000Y23253000D01*
X86203750Y23253000D01*
X86045000Y23094250D01*
X78463597Y23094250D01*
X78963229Y23300694D01*
X79437640Y23774278D01*
X79637797Y24256309D01*
X86045000Y24256309D01*
X86045000Y23665750D01*
X86203750Y23507000D01*
X87303000Y23507000D01*
X87303000Y24606250D01*
X87557000Y24606250D01*
X87557000Y23507000D01*
X88656250Y23507000D01*
X88815000Y23665750D01*
X88815000Y24256309D01*
X88718327Y24489698D01*
X88539699Y24668327D01*
X88306310Y24765000D01*
X87715750Y24765000D01*
X87557000Y24606250D01*
X87303000Y24606250D01*
X87144250Y24765000D01*
X86553690Y24765000D01*
X86320301Y24668327D01*
X86141673Y24489698D01*
X86045000Y24256309D01*
X79637797Y24256309D01*
X79694707Y24393362D01*
X79695292Y25063697D01*
X79479340Y25586340D01*
X83298486Y29405486D01*
X106790000Y29573282D01*
X106790000Y710000D01*
G36*
X46737000Y23487000D02*
X46757000Y23487000D01*
X46757000Y23233000D01*
X46737000Y23233000D01*
X46737000Y22283750D01*
X46895750Y22125000D01*
X47111310Y22125000D01*
X47344699Y22221673D01*
X47523327Y22400302D01*
X47573484Y22521391D01*
X47658110Y22463569D01*
X47857096Y22423273D01*
X47700302Y22358327D01*
X47521673Y22179699D01*
X47425000Y21946310D01*
X47425000Y21655750D01*
X47583750Y21497000D01*
X48533000Y21497000D01*
X48533000Y21517000D01*
X48787000Y21517000D01*
X48787000Y21497000D01*
X48807000Y21497000D01*
X48807000Y21243000D01*
X48787000Y21243000D01*
X48787000Y20443750D01*
X48945750Y20285000D01*
X49386309Y20285000D01*
X49619698Y20381673D01*
X49760936Y20522910D01*
X49795910Y20468559D01*
X50008110Y20323569D01*
X50260000Y20272560D01*
X50564440Y20272560D01*
X51673499Y19163500D01*
X51895746Y19015000D01*
X51993057Y18949979D01*
X52370000Y18875000D01*
X53772560Y18875000D01*
X53772560Y18160000D01*
X53816838Y17924683D01*
X53955910Y17708559D01*
X54168110Y17563569D01*
X54420000Y17512560D01*
X56015000Y17512560D01*
X56015000Y13750000D01*
X56089979Y13373057D01*
X56303500Y13053500D01*
X59602845Y9754155D01*
X59637838Y9568183D01*
X59776910Y9352059D01*
X59989110Y9207069D01*
X60241000Y9156060D01*
X60708787Y9156060D01*
X60707560Y9150000D01*
X60707560Y7950000D01*
X60751838Y7714683D01*
X60825620Y7600022D01*
X60758569Y7501890D01*
X60707560Y7250000D01*
X60707560Y6050000D01*
X60751838Y5814683D01*
X60890910Y5598559D01*
X61057109Y5485000D01*
X50158000Y5485000D01*
X50153000Y5490000D01*
X50414250Y5490000D01*
X50573000Y5648750D01*
X50573000Y6373000D01*
X50827000Y6373000D01*
X50827000Y5648750D01*
X50985750Y5490000D01*
X51426309Y5490000D01*
X51659698Y5586673D01*
X51838327Y5765301D01*
X51935000Y5998690D01*
X51935000Y6214250D01*
X51856995Y6292255D01*
X52271861Y6292255D01*
X52345995Y6046136D01*
X52883223Y5853035D01*
X53453454Y5880222D01*
X53854005Y6046136D01*
X53928139Y6292255D01*
X53100000Y7120395D01*
X52271861Y6292255D01*
X51856995Y6292255D01*
X51776250Y6373000D01*
X50827000Y6373000D01*
X50573000Y6373000D01*
X50553000Y6373000D01*
X50553000Y6627000D01*
X50573000Y6627000D01*
X50573000Y7351250D01*
X50414250Y7510000D01*
X49973691Y7510000D01*
X49740302Y7413327D01*
X49738932Y7411957D01*
X49720276Y7424705D01*
X49685021Y7601943D01*
X49480474Y7908070D01*
X49601441Y7985910D01*
X49746431Y8198110D01*
X49753191Y8231490D01*
X49811673Y8090301D01*
X49990302Y7911673D01*
X50223691Y7815000D01*
X50714250Y7815000D01*
X50873000Y7973750D01*
X50873000Y8623000D01*
X50853000Y8623000D01*
X50853000Y8877000D01*
X50873000Y8877000D01*
X50873000Y8897000D01*
X51127000Y8897000D01*
X51127000Y8877000D01*
X51147000Y8877000D01*
X51147000Y8623000D01*
X51127000Y8623000D01*
X51127000Y7973750D01*
X51285750Y7815000D01*
X51760228Y7815000D01*
X51653035Y7516777D01*
X51657932Y7414058D01*
X51426309Y7510000D01*
X50985750Y7510000D01*
X50827000Y7351250D01*
X50827000Y6627000D01*
X51776250Y6627000D01*
X51801941Y6652691D01*
X51846136Y6545995D01*
X52092255Y6471861D01*
X52920395Y7300000D01*
X52906252Y7314142D01*
X53085858Y7493748D01*
X53100000Y7479605D01*
X53928139Y8307745D01*
X53913855Y8355167D01*
X54135317Y8396838D01*
X54240000Y8464200D01*
X54240000Y8088302D01*
X54107745Y8128139D01*
X53279605Y7300000D01*
X54107745Y6471861D01*
X54353864Y6545995D01*
X54427134Y6749840D01*
X54515301Y6661673D01*
X54748690Y6565000D01*
X54964250Y6565000D01*
X55123000Y6723750D01*
X55123000Y7673000D01*
X55377000Y7673000D01*
X55377000Y6723750D01*
X55535750Y6565000D01*
X55751310Y6565000D01*
X55984699Y6661673D01*
X56163327Y6840302D01*
X56260000Y7073691D01*
X56260000Y7514250D01*
X56101250Y7673000D01*
X55377000Y7673000D01*
X55123000Y7673000D01*
X55103000Y7673000D01*
X55103000Y7927000D01*
X55123000Y7927000D01*
X55123000Y7947000D01*
X55377000Y7947000D01*
X55377000Y7927000D01*
X56101250Y7927000D01*
X56260000Y8085750D01*
X56260000Y8526309D01*
X56163327Y8759698D01*
X56161957Y8761068D01*
X56221431Y8848110D01*
X56272440Y9100000D01*
X56272440Y10300000D01*
X56235000Y10498976D01*
X56235000Y12500000D01*
X56160021Y12876943D01*
X55946500Y13196500D01*
X52196500Y16946500D01*
X51876943Y17160021D01*
X51500000Y17235000D01*
X48000000Y17235000D01*
X47623057Y17160021D01*
X47303500Y16946500D01*
X46842000Y16485000D01*
X43378000Y16485000D01*
X45758211Y18865210D01*
X46323795Y18864716D01*
X46924943Y19113106D01*
X47385278Y19572637D01*
X47634716Y20173352D01*
X47634955Y20447020D01*
X47700302Y20381673D01*
X47933691Y20285000D01*
X48374250Y20285000D01*
X48533000Y20443750D01*
X48533000Y21243000D01*
X47583750Y21243000D01*
X47497648Y21156898D01*
X47386894Y21424943D01*
X46927363Y21885278D01*
X46331819Y22132569D01*
X46483000Y22283750D01*
X46483000Y23233000D01*
X46463000Y23233000D01*
X46463000Y23487000D01*
X46483000Y23487000D01*
X46483000Y23507000D01*
X46737000Y23507000D01*
X46737000Y23487000D01*
X46737000Y23487000D01*
G37*
X46737000Y23487000D02*
X46757000Y23487000D01*
X46757000Y23233000D01*
X46737000Y23233000D01*
X46737000Y22283750D01*
X46895750Y22125000D01*
X47111310Y22125000D01*
X47344699Y22221673D01*
X47523327Y22400302D01*
X47573484Y22521391D01*
X47658110Y22463569D01*
X47857096Y22423273D01*
X47700302Y22358327D01*
X47521673Y22179699D01*
X47425000Y21946310D01*
X47425000Y21655750D01*
X47583750Y21497000D01*
X48533000Y21497000D01*
X48533000Y21517000D01*
X48787000Y21517000D01*
X48787000Y21497000D01*
X48807000Y21497000D01*
X48807000Y21243000D01*
X48787000Y21243000D01*
X48787000Y20443750D01*
X48945750Y20285000D01*
X49386309Y20285000D01*
X49619698Y20381673D01*
X49760936Y20522910D01*
X49795910Y20468559D01*
X50008110Y20323569D01*
X50260000Y20272560D01*
X50564440Y20272560D01*
X51673499Y19163500D01*
X51895746Y19015000D01*
X51993057Y18949979D01*
X52370000Y18875000D01*
X53772560Y18875000D01*
X53772560Y18160000D01*
X53816838Y17924683D01*
X53955910Y17708559D01*
X54168110Y17563569D01*
X54420000Y17512560D01*
X56015000Y17512560D01*
X56015000Y13750000D01*
X56089979Y13373057D01*
X56303500Y13053500D01*
X59602845Y9754155D01*
X59637838Y9568183D01*
X59776910Y9352059D01*
X59989110Y9207069D01*
X60241000Y9156060D01*
X60708787Y9156060D01*
X60707560Y9150000D01*
X60707560Y7950000D01*
X60751838Y7714683D01*
X60825620Y7600022D01*
X60758569Y7501890D01*
X60707560Y7250000D01*
X60707560Y6050000D01*
X60751838Y5814683D01*
X60890910Y5598559D01*
X61057109Y5485000D01*
X50158000Y5485000D01*
X50153000Y5490000D01*
X50414250Y5490000D01*
X50573000Y5648750D01*
X50573000Y6373000D01*
X50827000Y6373000D01*
X50827000Y5648750D01*
X50985750Y5490000D01*
X51426309Y5490000D01*
X51659698Y5586673D01*
X51838327Y5765301D01*
X51935000Y5998690D01*
X51935000Y6214250D01*
X51856995Y6292255D01*
X52271861Y6292255D01*
X52345995Y6046136D01*
X52883223Y5853035D01*
X53453454Y5880222D01*
X53854005Y6046136D01*
X53928139Y6292255D01*
X53100000Y7120395D01*
X52271861Y6292255D01*
X51856995Y6292255D01*
X51776250Y6373000D01*
X50827000Y6373000D01*
X50573000Y6373000D01*
X50553000Y6373000D01*
X50553000Y6627000D01*
X50573000Y6627000D01*
X50573000Y7351250D01*
X50414250Y7510000D01*
X49973691Y7510000D01*
X49740302Y7413327D01*
X49738932Y7411957D01*
X49720276Y7424705D01*
X49685021Y7601943D01*
X49480474Y7908070D01*
X49601441Y7985910D01*
X49746431Y8198110D01*
X49753191Y8231490D01*
X49811673Y8090301D01*
X49990302Y7911673D01*
X50223691Y7815000D01*
X50714250Y7815000D01*
X50873000Y7973750D01*
X50873000Y8623000D01*
X50853000Y8623000D01*
X50853000Y8877000D01*
X50873000Y8877000D01*
X50873000Y8897000D01*
X51127000Y8897000D01*
X51127000Y8877000D01*
X51147000Y8877000D01*
X51147000Y8623000D01*
X51127000Y8623000D01*
X51127000Y7973750D01*
X51285750Y7815000D01*
X51760228Y7815000D01*
X51653035Y7516777D01*
X51657932Y7414058D01*
X51426309Y7510000D01*
X50985750Y7510000D01*
X50827000Y7351250D01*
X50827000Y6627000D01*
X51776250Y6627000D01*
X51801941Y6652691D01*
X51846136Y6545995D01*
X52092255Y6471861D01*
X52920395Y7300000D01*
X52906252Y7314142D01*
X53085858Y7493748D01*
X53100000Y7479605D01*
X53928139Y8307745D01*
X53913855Y8355167D01*
X54135317Y8396838D01*
X54240000Y8464200D01*
X54240000Y8088302D01*
X54107745Y8128139D01*
X53279605Y7300000D01*
X54107745Y6471861D01*
X54353864Y6545995D01*
X54427134Y6749840D01*
X54515301Y6661673D01*
X54748690Y6565000D01*
X54964250Y6565000D01*
X55123000Y6723750D01*
X55123000Y7673000D01*
X55377000Y7673000D01*
X55377000Y6723750D01*
X55535750Y6565000D01*
X55751310Y6565000D01*
X55984699Y6661673D01*
X56163327Y6840302D01*
X56260000Y7073691D01*
X56260000Y7514250D01*
X56101250Y7673000D01*
X55377000Y7673000D01*
X55123000Y7673000D01*
X55103000Y7673000D01*
X55103000Y7927000D01*
X55123000Y7927000D01*
X55123000Y7947000D01*
X55377000Y7947000D01*
X55377000Y7927000D01*
X56101250Y7927000D01*
X56260000Y8085750D01*
X56260000Y8526309D01*
X56163327Y8759698D01*
X56161957Y8761068D01*
X56221431Y8848110D01*
X56272440Y9100000D01*
X56272440Y10300000D01*
X56235000Y10498976D01*
X56235000Y12500000D01*
X56160021Y12876943D01*
X55946500Y13196500D01*
X52196500Y16946500D01*
X51876943Y17160021D01*
X51500000Y17235000D01*
X48000000Y17235000D01*
X47623057Y17160021D01*
X47303500Y16946500D01*
X46842000Y16485000D01*
X43378000Y16485000D01*
X45758211Y18865210D01*
X46323795Y18864716D01*
X46924943Y19113106D01*
X47385278Y19572637D01*
X47634716Y20173352D01*
X47634955Y20447020D01*
X47700302Y20381673D01*
X47933691Y20285000D01*
X48374250Y20285000D01*
X48533000Y20443750D01*
X48533000Y21243000D01*
X47583750Y21243000D01*
X47497648Y21156898D01*
X47386894Y21424943D01*
X46927363Y21885278D01*
X46331819Y22132569D01*
X46483000Y22283750D01*
X46483000Y23233000D01*
X46463000Y23233000D01*
X46463000Y23487000D01*
X46483000Y23487000D01*
X46483000Y23507000D01*
X46737000Y23507000D01*
X46737000Y23487000D01*
G36*
X63799110Y15557069D02*
X64051000Y15506060D01*
X64559000Y15506060D01*
X64594298Y15512702D01*
X64957560Y15149440D01*
X64957560Y14010000D01*
X65001838Y13774683D01*
X65068329Y13671354D01*
X65066673Y13669698D01*
X64970000Y13436309D01*
X64970000Y12995750D01*
X65128750Y12837000D01*
X65853000Y12837000D01*
X65853000Y12857000D01*
X66107000Y12857000D01*
X66107000Y12837000D01*
X66831250Y12837000D01*
X66990000Y12995750D01*
X66990000Y13436309D01*
X66911842Y13625000D01*
X67110000Y13625000D01*
X67486943Y13699979D01*
X67806500Y13913500D01*
X69068000Y15175000D01*
X71572000Y15175000D01*
X73052560Y13694439D01*
X73052560Y13000000D01*
X73096838Y12764683D01*
X73235910Y12548559D01*
X73448110Y12403569D01*
X73686201Y12355354D01*
X73671861Y12307745D01*
X74500000Y11479605D01*
X75328139Y12307745D01*
X75313855Y12355167D01*
X75535317Y12396838D01*
X75751441Y12535910D01*
X75866975Y12705000D01*
X76402560Y12705000D01*
X76402560Y11990000D01*
X76446838Y11754683D01*
X76585910Y11538559D01*
X76769867Y11412867D01*
X70842000Y5485000D01*
X64489977Y5485000D01*
X64527440Y5670000D01*
X64527440Y6870000D01*
X64483162Y7105317D01*
X64344090Y7321441D01*
X64275994Y7367969D01*
X64418327Y7510302D01*
X64515000Y7743691D01*
X64515000Y8184250D01*
X64356250Y8343000D01*
X63557000Y8343000D01*
X63557000Y8323000D01*
X63303000Y8323000D01*
X63303000Y8343000D01*
X63283000Y8343000D01*
X63283000Y8597000D01*
X63303000Y8597000D01*
X63303000Y8617000D01*
X63557000Y8617000D01*
X63557000Y8597000D01*
X64356250Y8597000D01*
X64515000Y8755750D01*
X64515000Y9196309D01*
X64481101Y9278149D01*
X64590750Y9168500D01*
X64685309Y9168500D01*
X64918698Y9265173D01*
X65097327Y9443801D01*
X65194000Y9677190D01*
X65194000Y10089250D01*
X65035250Y10248000D01*
X64432000Y10248000D01*
X64432000Y10228000D01*
X64178000Y10228000D01*
X64178000Y10248000D01*
X63162000Y10248000D01*
X63162000Y10228000D01*
X62908000Y10228000D01*
X62908000Y10248000D01*
X62888000Y10248000D01*
X62888000Y10292255D01*
X73671861Y10292255D01*
X73745995Y10046136D01*
X74283223Y9853035D01*
X74853454Y9880222D01*
X75254005Y10046136D01*
X75328139Y10292255D01*
X74500000Y11120395D01*
X73671861Y10292255D01*
X62888000Y10292255D01*
X62888000Y10502000D01*
X62908000Y10502000D01*
X62908000Y11422750D01*
X63162000Y11422750D01*
X63162000Y10502000D01*
X64178000Y10502000D01*
X64178000Y11422750D01*
X64432000Y11422750D01*
X64432000Y10502000D01*
X65035250Y10502000D01*
X65194000Y10660750D01*
X65194000Y11072810D01*
X65097327Y11306199D01*
X64918698Y11484827D01*
X64685309Y11581500D01*
X64590750Y11581500D01*
X64432000Y11422750D01*
X64178000Y11422750D01*
X64019250Y11581500D01*
X63924691Y11581500D01*
X63691302Y11484827D01*
X63670000Y11463525D01*
X63648698Y11484827D01*
X63415309Y11581500D01*
X63320750Y11581500D01*
X63162000Y11422750D01*
X62908000Y11422750D01*
X62749250Y11581500D01*
X62654691Y11581500D01*
X62421302Y11484827D01*
X62394765Y11458291D01*
X62270890Y11542931D01*
X62019000Y11593940D01*
X61511000Y11593940D01*
X61275683Y11549662D01*
X61129093Y11455334D01*
X61000890Y11542931D01*
X60749000Y11593940D01*
X60549060Y11593940D01*
X59718750Y12424250D01*
X64970000Y12424250D01*
X64970000Y11983691D01*
X65066673Y11750302D01*
X65245301Y11571673D01*
X65478690Y11475000D01*
X65694250Y11475000D01*
X65853000Y11633750D01*
X65853000Y12583000D01*
X66107000Y12583000D01*
X66107000Y11633750D01*
X66265750Y11475000D01*
X66481310Y11475000D01*
X66582168Y11516777D01*
X73053035Y11516777D01*
X73080222Y10946546D01*
X73246136Y10545995D01*
X73492255Y10471861D01*
X74320395Y11300000D01*
X74679605Y11300000D01*
X75507745Y10471861D01*
X75753864Y10545995D01*
X75946965Y11083223D01*
X75919778Y11653454D01*
X75753864Y12054005D01*
X75507745Y12128139D01*
X74679605Y11300000D01*
X74320395Y11300000D01*
X73492255Y12128139D01*
X73246136Y12054005D01*
X73053035Y11516777D01*
X66582168Y11516777D01*
X66714699Y11571673D01*
X66893327Y11750302D01*
X66990000Y11983691D01*
X66990000Y12424250D01*
X66831250Y12583000D01*
X66107000Y12583000D01*
X65853000Y12583000D01*
X65128750Y12583000D01*
X64970000Y12424250D01*
X59718750Y12424250D01*
X58840440Y13302560D01*
X58975000Y13302560D01*
X59210317Y13346838D01*
X59426441Y13485910D01*
X59480481Y13565000D01*
X60800000Y13565000D01*
X61176943Y13639979D01*
X61496500Y13853500D01*
X62461500Y14818500D01*
X62675021Y15138057D01*
X62749491Y15512441D01*
X62781000Y15506060D01*
X63289000Y15506060D01*
X63524317Y15550338D01*
X63670907Y15644666D01*
X63799110Y15557069D01*
X63799110Y15557069D01*
G37*
X63799110Y15557069D02*
X64051000Y15506060D01*
X64559000Y15506060D01*
X64594298Y15512702D01*
X64957560Y15149440D01*
X64957560Y14010000D01*
X65001838Y13774683D01*
X65068329Y13671354D01*
X65066673Y13669698D01*
X64970000Y13436309D01*
X64970000Y12995750D01*
X65128750Y12837000D01*
X65853000Y12837000D01*
X65853000Y12857000D01*
X66107000Y12857000D01*
X66107000Y12837000D01*
X66831250Y12837000D01*
X66990000Y12995750D01*
X66990000Y13436309D01*
X66911842Y13625000D01*
X67110000Y13625000D01*
X67486943Y13699979D01*
X67806500Y13913500D01*
X69068000Y15175000D01*
X71572000Y15175000D01*
X73052560Y13694439D01*
X73052560Y13000000D01*
X73096838Y12764683D01*
X73235910Y12548559D01*
X73448110Y12403569D01*
X73686201Y12355354D01*
X73671861Y12307745D01*
X74500000Y11479605D01*
X75328139Y12307745D01*
X75313855Y12355167D01*
X75535317Y12396838D01*
X75751441Y12535910D01*
X75866975Y12705000D01*
X76402560Y12705000D01*
X76402560Y11990000D01*
X76446838Y11754683D01*
X76585910Y11538559D01*
X76769867Y11412867D01*
X70842000Y5485000D01*
X64489977Y5485000D01*
X64527440Y5670000D01*
X64527440Y6870000D01*
X64483162Y7105317D01*
X64344090Y7321441D01*
X64275994Y7367969D01*
X64418327Y7510302D01*
X64515000Y7743691D01*
X64515000Y8184250D01*
X64356250Y8343000D01*
X63557000Y8343000D01*
X63557000Y8323000D01*
X63303000Y8323000D01*
X63303000Y8343000D01*
X63283000Y8343000D01*
X63283000Y8597000D01*
X63303000Y8597000D01*
X63303000Y8617000D01*
X63557000Y8617000D01*
X63557000Y8597000D01*
X64356250Y8597000D01*
X64515000Y8755750D01*
X64515000Y9196309D01*
X64481101Y9278149D01*
X64590750Y9168500D01*
X64685309Y9168500D01*
X64918698Y9265173D01*
X65097327Y9443801D01*
X65194000Y9677190D01*
X65194000Y10089250D01*
X65035250Y10248000D01*
X64432000Y10248000D01*
X64432000Y10228000D01*
X64178000Y10228000D01*
X64178000Y10248000D01*
X63162000Y10248000D01*
X63162000Y10228000D01*
X62908000Y10228000D01*
X62908000Y10248000D01*
X62888000Y10248000D01*
X62888000Y10292255D01*
X73671861Y10292255D01*
X73745995Y10046136D01*
X74283223Y9853035D01*
X74853454Y9880222D01*
X75254005Y10046136D01*
X75328139Y10292255D01*
X74500000Y11120395D01*
X73671861Y10292255D01*
X62888000Y10292255D01*
X62888000Y10502000D01*
X62908000Y10502000D01*
X62908000Y11422750D01*
X63162000Y11422750D01*
X63162000Y10502000D01*
X64178000Y10502000D01*
X64178000Y11422750D01*
X64432000Y11422750D01*
X64432000Y10502000D01*
X65035250Y10502000D01*
X65194000Y10660750D01*
X65194000Y11072810D01*
X65097327Y11306199D01*
X64918698Y11484827D01*
X64685309Y11581500D01*
X64590750Y11581500D01*
X64432000Y11422750D01*
X64178000Y11422750D01*
X64019250Y11581500D01*
X63924691Y11581500D01*
X63691302Y11484827D01*
X63670000Y11463525D01*
X63648698Y11484827D01*
X63415309Y11581500D01*
X63320750Y11581500D01*
X63162000Y11422750D01*
X62908000Y11422750D01*
X62749250Y11581500D01*
X62654691Y11581500D01*
X62421302Y11484827D01*
X62394765Y11458291D01*
X62270890Y11542931D01*
X62019000Y11593940D01*
X61511000Y11593940D01*
X61275683Y11549662D01*
X61129093Y11455334D01*
X61000890Y11542931D01*
X60749000Y11593940D01*
X60549060Y11593940D01*
X59718750Y12424250D01*
X64970000Y12424250D01*
X64970000Y11983691D01*
X65066673Y11750302D01*
X65245301Y11571673D01*
X65478690Y11475000D01*
X65694250Y11475000D01*
X65853000Y11633750D01*
X65853000Y12583000D01*
X66107000Y12583000D01*
X66107000Y11633750D01*
X66265750Y11475000D01*
X66481310Y11475000D01*
X66582168Y11516777D01*
X73053035Y11516777D01*
X73080222Y10946546D01*
X73246136Y10545995D01*
X73492255Y10471861D01*
X74320395Y11300000D01*
X74679605Y11300000D01*
X75507745Y10471861D01*
X75753864Y10545995D01*
X75946965Y11083223D01*
X75919778Y11653454D01*
X75753864Y12054005D01*
X75507745Y12128139D01*
X74679605Y11300000D01*
X74320395Y11300000D01*
X73492255Y12128139D01*
X73246136Y12054005D01*
X73053035Y11516777D01*
X66582168Y11516777D01*
X66714699Y11571673D01*
X66893327Y11750302D01*
X66990000Y11983691D01*
X66990000Y12424250D01*
X66831250Y12583000D01*
X66107000Y12583000D01*
X65853000Y12583000D01*
X65128750Y12583000D01*
X64970000Y12424250D01*
X59718750Y12424250D01*
X58840440Y13302560D01*
X58975000Y13302560D01*
X59210317Y13346838D01*
X59426441Y13485910D01*
X59480481Y13565000D01*
X60800000Y13565000D01*
X61176943Y13639979D01*
X61496500Y13853500D01*
X62461500Y14818500D01*
X62675021Y15138057D01*
X62749491Y15512441D01*
X62781000Y15506060D01*
X63289000Y15506060D01*
X63524317Y15550338D01*
X63670907Y15644666D01*
X63799110Y15557069D01*
G36*
X55495000Y24112000D02*
X55495000Y22207440D01*
X54420000Y22207440D01*
X54184683Y22163162D01*
X53968559Y22024090D01*
X53823569Y21811890D01*
X53772560Y21560000D01*
X53772560Y20845000D01*
X52778001Y20845000D01*
X52107440Y21515560D01*
X52107440Y21820000D01*
X52063162Y22055317D01*
X51924090Y22271441D01*
X51845000Y22325481D01*
X51845000Y22585331D01*
X51861441Y22595910D01*
X51900212Y22652654D01*
X51918690Y22645000D01*
X52134250Y22645000D01*
X52293000Y22803750D01*
X52293000Y23753000D01*
X52547000Y23753000D01*
X52547000Y22803750D01*
X52705750Y22645000D01*
X52921310Y22645000D01*
X53154699Y22741673D01*
X53210000Y22796974D01*
X53265301Y22741673D01*
X53498690Y22645000D01*
X53714250Y22645000D01*
X53873000Y22803750D01*
X53873000Y23753000D01*
X54127000Y23753000D01*
X54127000Y22803750D01*
X54285750Y22645000D01*
X54501310Y22645000D01*
X54734699Y22741673D01*
X54913327Y22920302D01*
X55010000Y23153691D01*
X55010000Y23594250D01*
X54851250Y23753000D01*
X54127000Y23753000D01*
X53873000Y23753000D01*
X52547000Y23753000D01*
X52293000Y23753000D01*
X52273000Y23753000D01*
X52273000Y24007000D01*
X52293000Y24007000D01*
X52293000Y24027000D01*
X52547000Y24027000D01*
X52547000Y24007000D01*
X53873000Y24007000D01*
X53873000Y24027000D01*
X54127000Y24027000D01*
X54127000Y24007000D01*
X54851250Y24007000D01*
X55010000Y24165750D01*
X55010000Y24597000D01*
X55495000Y24112000D01*
X55495000Y24112000D01*
G37*
X55495000Y24112000D02*
X55495000Y22207440D01*
X54420000Y22207440D01*
X54184683Y22163162D01*
X53968559Y22024090D01*
X53823569Y21811890D01*
X53772560Y21560000D01*
X53772560Y20845000D01*
X52778001Y20845000D01*
X52107440Y21515560D01*
X52107440Y21820000D01*
X52063162Y22055317D01*
X51924090Y22271441D01*
X51845000Y22325481D01*
X51845000Y22585331D01*
X51861441Y22595910D01*
X51900212Y22652654D01*
X51918690Y22645000D01*
X52134250Y22645000D01*
X52293000Y22803750D01*
X52293000Y23753000D01*
X52547000Y23753000D01*
X52547000Y22803750D01*
X52705750Y22645000D01*
X52921310Y22645000D01*
X53154699Y22741673D01*
X53210000Y22796974D01*
X53265301Y22741673D01*
X53498690Y22645000D01*
X53714250Y22645000D01*
X53873000Y22803750D01*
X53873000Y23753000D01*
X54127000Y23753000D01*
X54127000Y22803750D01*
X54285750Y22645000D01*
X54501310Y22645000D01*
X54734699Y22741673D01*
X54913327Y22920302D01*
X55010000Y23153691D01*
X55010000Y23594250D01*
X54851250Y23753000D01*
X54127000Y23753000D01*
X53873000Y23753000D01*
X52547000Y23753000D01*
X52293000Y23753000D01*
X52273000Y23753000D01*
X52273000Y24007000D01*
X52293000Y24007000D01*
X52293000Y24027000D01*
X52547000Y24027000D01*
X52547000Y24007000D01*
X53873000Y24007000D01*
X53873000Y24027000D01*
X54127000Y24027000D01*
X54127000Y24007000D01*
X54851250Y24007000D01*
X55010000Y24165750D01*
X55010000Y24597000D01*
X55495000Y24112000D01*
M02*
