%TF.GenerationSoftware,KiCad,Pcbnew,4.0.4+dfsg1-stable*%
%TF.CreationDate,2017-06-27T11:27:39+02:00*%
%TF.ProjectId,power,706F7765722E6B696361645F70636200,rev?*%
%TF.FileFunction,Copper,L1,Top,Signal*%
%FSLAX46Y46*%
G04 Gerber Fmt 4.6, Leading zero omitted, Abs format (unit mm)*
G04 Created by KiCad (PCBNEW 4.0.4+dfsg1-stable) date Tue Jun 27 11:27:39 2017*
%MOMM*%
%LPD*%
G01*
G04 APERTURE LIST*
%ADD10C,0.100000*%
%ADD11C,1.500000*%
%ADD12R,1.500000X1.500000*%
%ADD13C,2.100000*%
%ADD14C,3.000000*%
%ADD15R,2.500000X2.500000*%
%ADD16C,2.500000*%
%ADD17R,2.000000X2.000000*%
%ADD18C,2.000000*%
%ADD19C,2.200000*%
%ADD20C,1.600000*%
%ADD21R,1.600000X1.600000*%
%ADD22C,0.700000*%
%ADD23C,0.254000*%
G04 APERTURE END LIST*
D10*
D11*
X87430000Y18380000D03*
D12*
X87430000Y23380000D03*
D13*
X71010000Y22730000D03*
X73510000Y27230000D03*
X75510000Y20230000D03*
X78010000Y24730000D03*
D14*
X35984000Y73772000D03*
X30904000Y73772000D03*
X15744000Y73772000D03*
X20824000Y73772000D03*
D15*
X7500000Y53000000D03*
D16*
X7500000Y47920000D03*
X7500000Y42840000D03*
D15*
X7500000Y35000000D03*
D16*
X7500000Y29920000D03*
D17*
X22300000Y6600000D03*
D18*
X24840000Y6600000D03*
X27380000Y6600000D03*
X29920000Y6600000D03*
D13*
X19768000Y63806000D03*
X19768000Y56306000D03*
D11*
X35190000Y32490000D03*
X35190000Y40990000D03*
X39820000Y32710000D03*
X39820000Y41210000D03*
X25864000Y55924000D03*
X25864000Y47424000D03*
D19*
X60750000Y72650000D03*
X90750000Y72650000D03*
X65750000Y40150000D03*
X60750000Y40150000D03*
X85750000Y40150000D03*
X90750000Y40150000D03*
D18*
X26750000Y63500000D03*
X41750000Y63500000D03*
D11*
X38758000Y48118000D03*
X31258000Y48118000D03*
X31766000Y55484000D03*
X39266000Y55484000D03*
X18300000Y40434000D03*
X25300000Y40434000D03*
X18300000Y32434000D03*
X25300000Y32434000D03*
D17*
X7500000Y14500000D03*
D18*
X7500000Y17040000D03*
X7500000Y19580000D03*
D17*
X7500000Y11000000D03*
D18*
X7500000Y8460000D03*
X7500000Y5920000D03*
D20*
X74500000Y11300000D03*
D21*
X74500000Y13800000D03*
D20*
X61480000Y24360000D03*
D21*
X58980000Y24360000D03*
D20*
X53100000Y7300000D03*
D21*
X53100000Y9800000D03*
D18*
X19000000Y12000000D03*
X35500000Y11750000D03*
X53000000Y21500000D03*
X17750000Y14250000D03*
X29750000Y15300000D03*
X48750000Y27250000D03*
X46000000Y20500000D03*
X17250000Y17000000D03*
X32250000Y17000000D03*
D22*
X19250000Y12250000D02*
X19250000Y12000000D01*
X19000000Y12000000D02*
X19250000Y12250000D01*
X29750000Y15300000D02*
X18800000Y15300000D01*
X18800000Y15300000D02*
X17750000Y14250000D01*
X24840000Y6600000D02*
X24840000Y8590000D01*
X28250000Y12000000D02*
X24840000Y8590000D01*
X28250000Y13800000D02*
X28250000Y12000000D01*
X28250000Y13800000D02*
X29750000Y15300000D01*
X48750000Y27250000D02*
X46000000Y24500000D01*
X46000000Y24500000D02*
X46000000Y20500000D01*
X32250000Y17000000D02*
X17250000Y17000000D01*
X27380000Y6600000D02*
X27380000Y8380000D01*
X32250000Y13250000D02*
X32250000Y17000000D01*
X27380000Y8380000D02*
X32250000Y13250000D01*
D23*
G36*
X106790000Y31202993D02*
X40863943Y31795143D01*
X40993461Y31924436D01*
X41204759Y32433298D01*
X41205240Y32984285D01*
X40994831Y33493515D01*
X40605564Y33883461D01*
X40096702Y34094759D01*
X39545715Y34095240D01*
X39036485Y33884831D01*
X38646539Y33495564D01*
X38435241Y32986702D01*
X38434760Y32435715D01*
X38645169Y31926485D01*
X38757394Y31814065D01*
X36417709Y31835080D01*
X36574759Y32213298D01*
X36575240Y32764285D01*
X36364831Y33273515D01*
X35975564Y33663461D01*
X35466702Y33874759D01*
X34915715Y33875240D01*
X34406485Y33664831D01*
X34016539Y33275564D01*
X33805241Y32766702D01*
X33804760Y32215715D01*
X33952887Y31857219D01*
X31751141Y31876995D01*
X31701643Y31867433D01*
X31659764Y31839367D01*
X31625243Y31773763D01*
X30644907Y26627000D01*
X710000Y26627000D01*
X710000Y29546695D01*
X5614674Y29546695D01*
X5901043Y28853628D01*
X6430839Y28322907D01*
X7123405Y28035328D01*
X7873305Y28034674D01*
X8566372Y28321043D01*
X9097093Y28850839D01*
X9384672Y29543405D01*
X9385326Y30293305D01*
X9098957Y30986372D01*
X8569161Y31517093D01*
X7876595Y31804672D01*
X7126695Y31805326D01*
X6433628Y31518957D01*
X5902907Y30989161D01*
X5615328Y30296595D01*
X5614674Y29546695D01*
X710000Y29546695D01*
X710000Y32159715D01*
X16914760Y32159715D01*
X17125169Y31650485D01*
X17514436Y31260539D01*
X18023298Y31049241D01*
X18574285Y31048760D01*
X19083515Y31259169D01*
X19473461Y31648436D01*
X19684759Y32157298D01*
X19684761Y32159715D01*
X23914760Y32159715D01*
X24125169Y31650485D01*
X24514436Y31260539D01*
X25023298Y31049241D01*
X25574285Y31048760D01*
X26083515Y31259169D01*
X26473461Y31648436D01*
X26684759Y32157298D01*
X26685240Y32708285D01*
X26474831Y33217515D01*
X26085564Y33607461D01*
X25576702Y33818759D01*
X25025715Y33819240D01*
X24516485Y33608831D01*
X24126539Y33219564D01*
X23915241Y32710702D01*
X23914760Y32159715D01*
X19684761Y32159715D01*
X19685240Y32708285D01*
X19474831Y33217515D01*
X19085564Y33607461D01*
X18576702Y33818759D01*
X18025715Y33819240D01*
X17516485Y33608831D01*
X17126539Y33219564D01*
X16915241Y32710702D01*
X16914760Y32159715D01*
X710000Y32159715D01*
X710000Y36250000D01*
X5602560Y36250000D01*
X5602560Y33750000D01*
X5646838Y33514683D01*
X5785910Y33298559D01*
X5998110Y33153569D01*
X6250000Y33102560D01*
X8750000Y33102560D01*
X8985317Y33146838D01*
X9201441Y33285910D01*
X9346431Y33498110D01*
X9397440Y33750000D01*
X9397440Y36250000D01*
X9353162Y36485317D01*
X9214090Y36701441D01*
X9001890Y36846431D01*
X8750000Y36897440D01*
X6250000Y36897440D01*
X6014683Y36853162D01*
X5798559Y36714090D01*
X5653569Y36501890D01*
X5602560Y36250000D01*
X710000Y36250000D01*
X710000Y40159715D01*
X16914760Y40159715D01*
X17125169Y39650485D01*
X17514436Y39260539D01*
X18023298Y39049241D01*
X18574285Y39048760D01*
X19083515Y39259169D01*
X19473461Y39648436D01*
X19684759Y40157298D01*
X19684761Y40159715D01*
X23914760Y40159715D01*
X24125169Y39650485D01*
X24514436Y39260539D01*
X25023298Y39049241D01*
X25574285Y39048760D01*
X26083515Y39259169D01*
X26473461Y39648436D01*
X26684759Y40157298D01*
X26685240Y40708285D01*
X26682170Y40715715D01*
X33804760Y40715715D01*
X34015169Y40206485D01*
X34404436Y39816539D01*
X34913298Y39605241D01*
X35464285Y39604760D01*
X35952294Y39806401D01*
X59014699Y39806401D01*
X59278281Y39168485D01*
X59765918Y38679996D01*
X60403373Y38415301D01*
X61093599Y38414699D01*
X61731515Y38678281D01*
X62220004Y39165918D01*
X62484699Y39803373D01*
X62484701Y39806401D01*
X64014699Y39806401D01*
X64278281Y39168485D01*
X64765918Y38679996D01*
X65403373Y38415301D01*
X66093599Y38414699D01*
X66731515Y38678281D01*
X67220004Y39165918D01*
X67484699Y39803373D01*
X67484701Y39806401D01*
X84014699Y39806401D01*
X84278281Y39168485D01*
X84765918Y38679996D01*
X85403373Y38415301D01*
X86093599Y38414699D01*
X86731515Y38678281D01*
X87220004Y39165918D01*
X87484699Y39803373D01*
X87484701Y39806401D01*
X89014699Y39806401D01*
X89278281Y39168485D01*
X89765918Y38679996D01*
X90403373Y38415301D01*
X91093599Y38414699D01*
X91731515Y38678281D01*
X92220004Y39165918D01*
X92484699Y39803373D01*
X92485301Y40493599D01*
X92221719Y41131515D01*
X91734082Y41620004D01*
X91096627Y41884699D01*
X90406401Y41885301D01*
X89768485Y41621719D01*
X89279996Y41134082D01*
X89015301Y40496627D01*
X89014699Y39806401D01*
X87484701Y39806401D01*
X87485301Y40493599D01*
X87221719Y41131515D01*
X86734082Y41620004D01*
X86096627Y41884699D01*
X85406401Y41885301D01*
X84768485Y41621719D01*
X84279996Y41134082D01*
X84015301Y40496627D01*
X84014699Y39806401D01*
X67484701Y39806401D01*
X67485301Y40493599D01*
X67221719Y41131515D01*
X66734082Y41620004D01*
X66096627Y41884699D01*
X65406401Y41885301D01*
X64768485Y41621719D01*
X64279996Y41134082D01*
X64015301Y40496627D01*
X64014699Y39806401D01*
X62484701Y39806401D01*
X62485301Y40493599D01*
X62221719Y41131515D01*
X61734082Y41620004D01*
X61096627Y41884699D01*
X60406401Y41885301D01*
X59768485Y41621719D01*
X59279996Y41134082D01*
X59015301Y40496627D01*
X59014699Y39806401D01*
X35952294Y39806401D01*
X35973515Y39815169D01*
X36363461Y40204436D01*
X36574759Y40713298D01*
X36574953Y40935715D01*
X38434760Y40935715D01*
X38645169Y40426485D01*
X39034436Y40036539D01*
X39543298Y39825241D01*
X40094285Y39824760D01*
X40603515Y40035169D01*
X40993461Y40424436D01*
X41204759Y40933298D01*
X41205240Y41484285D01*
X40994831Y41993515D01*
X40605564Y42383461D01*
X40096702Y42594759D01*
X39545715Y42595240D01*
X39036485Y42384831D01*
X38646539Y41995564D01*
X38435241Y41486702D01*
X38434760Y40935715D01*
X36574953Y40935715D01*
X36575240Y41264285D01*
X36364831Y41773515D01*
X35975564Y42163461D01*
X35466702Y42374759D01*
X34915715Y42375240D01*
X34406485Y42164831D01*
X34016539Y41775564D01*
X33805241Y41266702D01*
X33804760Y40715715D01*
X26682170Y40715715D01*
X26474831Y41217515D01*
X26085564Y41607461D01*
X25576702Y41818759D01*
X25025715Y41819240D01*
X24516485Y41608831D01*
X24126539Y41219564D01*
X23915241Y40710702D01*
X23914760Y40159715D01*
X19684761Y40159715D01*
X19685240Y40708285D01*
X19474831Y41217515D01*
X19085564Y41607461D01*
X18576702Y41818759D01*
X18025715Y41819240D01*
X17516485Y41608831D01*
X17126539Y41219564D01*
X16915241Y40710702D01*
X16914760Y40159715D01*
X710000Y40159715D01*
X710000Y41506680D01*
X6346285Y41506680D01*
X6475533Y41213877D01*
X7175806Y40945612D01*
X7925435Y40965750D01*
X8524467Y41213877D01*
X8653715Y41506680D01*
X7500000Y42660395D01*
X6346285Y41506680D01*
X710000Y41506680D01*
X710000Y43164194D01*
X5605612Y43164194D01*
X5625750Y42414565D01*
X5873877Y41815533D01*
X6166680Y41686285D01*
X7320395Y42840000D01*
X7679605Y42840000D01*
X8833320Y41686285D01*
X9126123Y41815533D01*
X9394388Y42515806D01*
X9374250Y43265435D01*
X9126123Y43864467D01*
X8833320Y43993715D01*
X7679605Y42840000D01*
X7320395Y42840000D01*
X6166680Y43993715D01*
X5873877Y43864467D01*
X5605612Y43164194D01*
X710000Y43164194D01*
X710000Y44173320D01*
X6346285Y44173320D01*
X7500000Y43019605D01*
X8653715Y44173320D01*
X8524467Y44466123D01*
X7824194Y44734388D01*
X7074565Y44714250D01*
X6475533Y44466123D01*
X6346285Y44173320D01*
X710000Y44173320D01*
X710000Y47546695D01*
X5614674Y47546695D01*
X5901043Y46853628D01*
X6430839Y46322907D01*
X7123405Y46035328D01*
X7873305Y46034674D01*
X8566372Y46321043D01*
X9097093Y46850839D01*
X9221197Y47149715D01*
X24478760Y47149715D01*
X24689169Y46640485D01*
X25078436Y46250539D01*
X25587298Y46039241D01*
X26138285Y46038760D01*
X26647515Y46249169D01*
X27037461Y46638436D01*
X27248420Y47146483D01*
X30466088Y47146483D01*
X30534077Y46905540D01*
X31053171Y46720799D01*
X31603448Y46748770D01*
X31981923Y46905540D01*
X32049912Y47146483D01*
X31258000Y47938395D01*
X30466088Y47146483D01*
X27248420Y47146483D01*
X27248759Y47147298D01*
X27249240Y47698285D01*
X27038831Y48207515D01*
X26923718Y48322829D01*
X29860799Y48322829D01*
X29888770Y47772552D01*
X30045540Y47394077D01*
X30286483Y47326088D01*
X31078395Y48118000D01*
X31437605Y48118000D01*
X32229517Y47326088D01*
X32470460Y47394077D01*
X32630482Y47843715D01*
X37372760Y47843715D01*
X37583169Y47334485D01*
X37972436Y46944539D01*
X38481298Y46733241D01*
X39032285Y46732760D01*
X39541515Y46943169D01*
X39931461Y47332436D01*
X40142759Y47841298D01*
X40143240Y48392285D01*
X39932831Y48901515D01*
X39543564Y49291461D01*
X39034702Y49502759D01*
X38483715Y49503240D01*
X37974485Y49292831D01*
X37584539Y48903564D01*
X37373241Y48394702D01*
X37372760Y47843715D01*
X32630482Y47843715D01*
X32655201Y47913171D01*
X32627230Y48463448D01*
X32470460Y48841923D01*
X32229517Y48909912D01*
X31437605Y48118000D01*
X31078395Y48118000D01*
X30286483Y48909912D01*
X30045540Y48841923D01*
X29860799Y48322829D01*
X26923718Y48322829D01*
X26649564Y48597461D01*
X26140702Y48808759D01*
X25589715Y48809240D01*
X25080485Y48598831D01*
X24690539Y48209564D01*
X24479241Y47700702D01*
X24478760Y47149715D01*
X9221197Y47149715D01*
X9384672Y47543405D01*
X9385326Y48293305D01*
X9098957Y48986372D01*
X8995992Y49089517D01*
X30466088Y49089517D01*
X31258000Y48297605D01*
X32049912Y49089517D01*
X31981923Y49330460D01*
X31462829Y49515201D01*
X30912552Y49487230D01*
X30534077Y49330460D01*
X30466088Y49089517D01*
X8995992Y49089517D01*
X8569161Y49517093D01*
X7876595Y49804672D01*
X7126695Y49805326D01*
X6433628Y49518957D01*
X5902907Y48989161D01*
X5615328Y48296595D01*
X5614674Y47546695D01*
X710000Y47546695D01*
X710000Y54250000D01*
X5602560Y54250000D01*
X5602560Y51750000D01*
X5646838Y51514683D01*
X5785910Y51298559D01*
X5998110Y51153569D01*
X6250000Y51102560D01*
X8750000Y51102560D01*
X8985317Y51146838D01*
X9201441Y51285910D01*
X9346431Y51498110D01*
X9397440Y51750000D01*
X9397440Y54250000D01*
X9353162Y54485317D01*
X9335682Y54512483D01*
X30974088Y54512483D01*
X31042077Y54271540D01*
X31561171Y54086799D01*
X32111448Y54114770D01*
X32489923Y54271540D01*
X32557912Y54512483D01*
X31766000Y55304395D01*
X30974088Y54512483D01*
X9335682Y54512483D01*
X9214090Y54701441D01*
X9001890Y54846431D01*
X8750000Y54897440D01*
X6250000Y54897440D01*
X6014683Y54853162D01*
X5798559Y54714090D01*
X5653569Y54501890D01*
X5602560Y54250000D01*
X710000Y54250000D01*
X710000Y55972303D01*
X18082708Y55972303D01*
X18338694Y55352771D01*
X18812278Y54878360D01*
X19431362Y54621293D01*
X20101697Y54620708D01*
X20721229Y54876694D01*
X21195640Y55350278D01*
X21319977Y55649715D01*
X24478760Y55649715D01*
X24689169Y55140485D01*
X25078436Y54750539D01*
X25587298Y54539241D01*
X26138285Y54538760D01*
X26647515Y54749169D01*
X27037461Y55138436D01*
X27248759Y55647298D01*
X27248795Y55688829D01*
X30368799Y55688829D01*
X30396770Y55138552D01*
X30553540Y54760077D01*
X30794483Y54692088D01*
X31586395Y55484000D01*
X31945605Y55484000D01*
X32737517Y54692088D01*
X32978460Y54760077D01*
X33138482Y55209715D01*
X37880760Y55209715D01*
X38091169Y54700485D01*
X38480436Y54310539D01*
X38989298Y54099241D01*
X39540285Y54098760D01*
X40049515Y54309169D01*
X40439461Y54698436D01*
X40650759Y55207298D01*
X40651240Y55758285D01*
X40540336Y56026695D01*
X48864674Y56026695D01*
X49151043Y55333628D01*
X49680839Y54802907D01*
X50373405Y54515328D01*
X51123305Y54514674D01*
X51816372Y54801043D01*
X52347093Y55330839D01*
X52634672Y56023405D01*
X52634674Y56026695D01*
X98864674Y56026695D01*
X99151043Y55333628D01*
X99680839Y54802907D01*
X100373405Y54515328D01*
X101123305Y54514674D01*
X101816372Y54801043D01*
X102347093Y55330839D01*
X102634672Y56023405D01*
X102635326Y56773305D01*
X102348957Y57466372D01*
X101819161Y57997093D01*
X101126595Y58284672D01*
X100376695Y58285326D01*
X99683628Y57998957D01*
X99152907Y57469161D01*
X98865328Y56776595D01*
X98864674Y56026695D01*
X52634674Y56026695D01*
X52635326Y56773305D01*
X52348957Y57466372D01*
X51819161Y57997093D01*
X51126595Y58284672D01*
X50376695Y58285326D01*
X49683628Y57998957D01*
X49152907Y57469161D01*
X48865328Y56776595D01*
X48864674Y56026695D01*
X40540336Y56026695D01*
X40440831Y56267515D01*
X40051564Y56657461D01*
X39542702Y56868759D01*
X38991715Y56869240D01*
X38482485Y56658831D01*
X38092539Y56269564D01*
X37881241Y55760702D01*
X37880760Y55209715D01*
X33138482Y55209715D01*
X33163201Y55279171D01*
X33135230Y55829448D01*
X32978460Y56207923D01*
X32737517Y56275912D01*
X31945605Y55484000D01*
X31586395Y55484000D01*
X30794483Y56275912D01*
X30553540Y56207923D01*
X30368799Y55688829D01*
X27248795Y55688829D01*
X27249240Y56198285D01*
X27142955Y56455517D01*
X30974088Y56455517D01*
X31766000Y55663605D01*
X32557912Y56455517D01*
X32489923Y56696460D01*
X31970829Y56881201D01*
X31420552Y56853230D01*
X31042077Y56696460D01*
X30974088Y56455517D01*
X27142955Y56455517D01*
X27038831Y56707515D01*
X26649564Y57097461D01*
X26140702Y57308759D01*
X25589715Y57309240D01*
X25080485Y57098831D01*
X24690539Y56709564D01*
X24479241Y56200702D01*
X24478760Y55649715D01*
X21319977Y55649715D01*
X21452707Y55969362D01*
X21453292Y56639697D01*
X21197306Y57259229D01*
X20723722Y57733640D01*
X20104638Y57990707D01*
X19434303Y57991292D01*
X18814771Y57735306D01*
X18340360Y57261722D01*
X18083293Y56642638D01*
X18082708Y55972303D01*
X710000Y55972303D01*
X710000Y63472303D01*
X18082708Y63472303D01*
X18338694Y62852771D01*
X18812278Y62378360D01*
X19431362Y62121293D01*
X20101697Y62120708D01*
X20721229Y62376694D01*
X21195640Y62850278D01*
X21330977Y63176205D01*
X25114716Y63176205D01*
X25363106Y62575057D01*
X25822637Y62114722D01*
X26423352Y61865284D01*
X27073795Y61864716D01*
X27674943Y62113106D01*
X28135278Y62572637D01*
X28384716Y63173352D01*
X28384718Y63176205D01*
X40114716Y63176205D01*
X40363106Y62575057D01*
X40822637Y62114722D01*
X41423352Y61865284D01*
X42073795Y61864716D01*
X42674943Y62113106D01*
X43135278Y62572637D01*
X43384716Y63173352D01*
X43385284Y63823795D01*
X43136894Y64424943D01*
X42677363Y64885278D01*
X42076648Y65134716D01*
X41426205Y65135284D01*
X40825057Y64886894D01*
X40364722Y64427363D01*
X40115284Y63826648D01*
X40114716Y63176205D01*
X28384718Y63176205D01*
X28385284Y63823795D01*
X28136894Y64424943D01*
X27677363Y64885278D01*
X27076648Y65134716D01*
X26426205Y65135284D01*
X25825057Y64886894D01*
X25364722Y64427363D01*
X25115284Y63826648D01*
X25114716Y63176205D01*
X21330977Y63176205D01*
X21452707Y63469362D01*
X21453292Y64139697D01*
X21197306Y64759229D01*
X20723722Y65233640D01*
X20104638Y65490707D01*
X19434303Y65491292D01*
X18814771Y65235306D01*
X18340360Y64761722D01*
X18083293Y64142638D01*
X18082708Y63472303D01*
X710000Y63472303D01*
X710000Y73349185D01*
X13608630Y73349185D01*
X13932980Y72564200D01*
X14533041Y71963091D01*
X15317459Y71637372D01*
X16166815Y71636630D01*
X16951800Y71960980D01*
X17552909Y72561041D01*
X17878628Y73345459D01*
X17878631Y73349185D01*
X18688630Y73349185D01*
X19012980Y72564200D01*
X19613041Y71963091D01*
X20397459Y71637372D01*
X21246815Y71636630D01*
X22031800Y71960980D01*
X22632909Y72561041D01*
X22958628Y73345459D01*
X22958631Y73349185D01*
X28768630Y73349185D01*
X29092980Y72564200D01*
X29693041Y71963091D01*
X30477459Y71637372D01*
X31326815Y71636630D01*
X32111800Y71960980D01*
X32712909Y72561041D01*
X33038628Y73345459D01*
X33038631Y73349185D01*
X33848630Y73349185D01*
X34172980Y72564200D01*
X34773041Y71963091D01*
X35557459Y71637372D01*
X36406815Y71636630D01*
X37191800Y71960980D01*
X37537824Y72306401D01*
X59014699Y72306401D01*
X59278281Y71668485D01*
X59765918Y71179996D01*
X60403373Y70915301D01*
X61093599Y70914699D01*
X61731515Y71178281D01*
X62220004Y71665918D01*
X62484699Y72303373D01*
X62484701Y72306401D01*
X89014699Y72306401D01*
X89278281Y71668485D01*
X89765918Y71179996D01*
X90403373Y70915301D01*
X91093599Y70914699D01*
X91731515Y71178281D01*
X92220004Y71665918D01*
X92484699Y72303373D01*
X92485301Y72993599D01*
X92221719Y73631515D01*
X91734082Y74120004D01*
X91096627Y74384699D01*
X90406401Y74385301D01*
X89768485Y74121719D01*
X89279996Y73634082D01*
X89015301Y72996627D01*
X89014699Y72306401D01*
X62484701Y72306401D01*
X62485301Y72993599D01*
X62221719Y73631515D01*
X61734082Y74120004D01*
X61096627Y74384699D01*
X60406401Y74385301D01*
X59768485Y74121719D01*
X59279996Y73634082D01*
X59015301Y72996627D01*
X59014699Y72306401D01*
X37537824Y72306401D01*
X37792909Y72561041D01*
X38118628Y73345459D01*
X38119370Y74194815D01*
X37795020Y74979800D01*
X37194959Y75580909D01*
X36410541Y75906628D01*
X35561185Y75907370D01*
X34776200Y75583020D01*
X34175091Y74982959D01*
X33849372Y74198541D01*
X33848630Y73349185D01*
X33038631Y73349185D01*
X33039370Y74194815D01*
X32715020Y74979800D01*
X32114959Y75580909D01*
X31330541Y75906628D01*
X30481185Y75907370D01*
X29696200Y75583020D01*
X29095091Y74982959D01*
X28769372Y74198541D01*
X28768630Y73349185D01*
X22958631Y73349185D01*
X22959370Y74194815D01*
X22635020Y74979800D01*
X22034959Y75580909D01*
X21250541Y75906628D01*
X20401185Y75907370D01*
X19616200Y75583020D01*
X19015091Y74982959D01*
X18689372Y74198541D01*
X18688630Y73349185D01*
X17878631Y73349185D01*
X17879370Y74194815D01*
X17555020Y74979800D01*
X16954959Y75580909D01*
X16170541Y75906628D01*
X15321185Y75907370D01*
X14536200Y75583020D01*
X13935091Y74982959D01*
X13609372Y74198541D01*
X13608630Y73349185D01*
X710000Y73349185D01*
X710000Y81790000D01*
X106790000Y81790000D01*
X106790000Y31202993D01*
X106790000Y31202993D01*
G37*
X106790000Y31202993D02*
X40863943Y31795143D01*
X40993461Y31924436D01*
X41204759Y32433298D01*
X41205240Y32984285D01*
X40994831Y33493515D01*
X40605564Y33883461D01*
X40096702Y34094759D01*
X39545715Y34095240D01*
X39036485Y33884831D01*
X38646539Y33495564D01*
X38435241Y32986702D01*
X38434760Y32435715D01*
X38645169Y31926485D01*
X38757394Y31814065D01*
X36417709Y31835080D01*
X36574759Y32213298D01*
X36575240Y32764285D01*
X36364831Y33273515D01*
X35975564Y33663461D01*
X35466702Y33874759D01*
X34915715Y33875240D01*
X34406485Y33664831D01*
X34016539Y33275564D01*
X33805241Y32766702D01*
X33804760Y32215715D01*
X33952887Y31857219D01*
X31751141Y31876995D01*
X31701643Y31867433D01*
X31659764Y31839367D01*
X31625243Y31773763D01*
X30644907Y26627000D01*
X710000Y26627000D01*
X710000Y29546695D01*
X5614674Y29546695D01*
X5901043Y28853628D01*
X6430839Y28322907D01*
X7123405Y28035328D01*
X7873305Y28034674D01*
X8566372Y28321043D01*
X9097093Y28850839D01*
X9384672Y29543405D01*
X9385326Y30293305D01*
X9098957Y30986372D01*
X8569161Y31517093D01*
X7876595Y31804672D01*
X7126695Y31805326D01*
X6433628Y31518957D01*
X5902907Y30989161D01*
X5615328Y30296595D01*
X5614674Y29546695D01*
X710000Y29546695D01*
X710000Y32159715D01*
X16914760Y32159715D01*
X17125169Y31650485D01*
X17514436Y31260539D01*
X18023298Y31049241D01*
X18574285Y31048760D01*
X19083515Y31259169D01*
X19473461Y31648436D01*
X19684759Y32157298D01*
X19684761Y32159715D01*
X23914760Y32159715D01*
X24125169Y31650485D01*
X24514436Y31260539D01*
X25023298Y31049241D01*
X25574285Y31048760D01*
X26083515Y31259169D01*
X26473461Y31648436D01*
X26684759Y32157298D01*
X26685240Y32708285D01*
X26474831Y33217515D01*
X26085564Y33607461D01*
X25576702Y33818759D01*
X25025715Y33819240D01*
X24516485Y33608831D01*
X24126539Y33219564D01*
X23915241Y32710702D01*
X23914760Y32159715D01*
X19684761Y32159715D01*
X19685240Y32708285D01*
X19474831Y33217515D01*
X19085564Y33607461D01*
X18576702Y33818759D01*
X18025715Y33819240D01*
X17516485Y33608831D01*
X17126539Y33219564D01*
X16915241Y32710702D01*
X16914760Y32159715D01*
X710000Y32159715D01*
X710000Y36250000D01*
X5602560Y36250000D01*
X5602560Y33750000D01*
X5646838Y33514683D01*
X5785910Y33298559D01*
X5998110Y33153569D01*
X6250000Y33102560D01*
X8750000Y33102560D01*
X8985317Y33146838D01*
X9201441Y33285910D01*
X9346431Y33498110D01*
X9397440Y33750000D01*
X9397440Y36250000D01*
X9353162Y36485317D01*
X9214090Y36701441D01*
X9001890Y36846431D01*
X8750000Y36897440D01*
X6250000Y36897440D01*
X6014683Y36853162D01*
X5798559Y36714090D01*
X5653569Y36501890D01*
X5602560Y36250000D01*
X710000Y36250000D01*
X710000Y40159715D01*
X16914760Y40159715D01*
X17125169Y39650485D01*
X17514436Y39260539D01*
X18023298Y39049241D01*
X18574285Y39048760D01*
X19083515Y39259169D01*
X19473461Y39648436D01*
X19684759Y40157298D01*
X19684761Y40159715D01*
X23914760Y40159715D01*
X24125169Y39650485D01*
X24514436Y39260539D01*
X25023298Y39049241D01*
X25574285Y39048760D01*
X26083515Y39259169D01*
X26473461Y39648436D01*
X26684759Y40157298D01*
X26685240Y40708285D01*
X26682170Y40715715D01*
X33804760Y40715715D01*
X34015169Y40206485D01*
X34404436Y39816539D01*
X34913298Y39605241D01*
X35464285Y39604760D01*
X35952294Y39806401D01*
X59014699Y39806401D01*
X59278281Y39168485D01*
X59765918Y38679996D01*
X60403373Y38415301D01*
X61093599Y38414699D01*
X61731515Y38678281D01*
X62220004Y39165918D01*
X62484699Y39803373D01*
X62484701Y39806401D01*
X64014699Y39806401D01*
X64278281Y39168485D01*
X64765918Y38679996D01*
X65403373Y38415301D01*
X66093599Y38414699D01*
X66731515Y38678281D01*
X67220004Y39165918D01*
X67484699Y39803373D01*
X67484701Y39806401D01*
X84014699Y39806401D01*
X84278281Y39168485D01*
X84765918Y38679996D01*
X85403373Y38415301D01*
X86093599Y38414699D01*
X86731515Y38678281D01*
X87220004Y39165918D01*
X87484699Y39803373D01*
X87484701Y39806401D01*
X89014699Y39806401D01*
X89278281Y39168485D01*
X89765918Y38679996D01*
X90403373Y38415301D01*
X91093599Y38414699D01*
X91731515Y38678281D01*
X92220004Y39165918D01*
X92484699Y39803373D01*
X92485301Y40493599D01*
X92221719Y41131515D01*
X91734082Y41620004D01*
X91096627Y41884699D01*
X90406401Y41885301D01*
X89768485Y41621719D01*
X89279996Y41134082D01*
X89015301Y40496627D01*
X89014699Y39806401D01*
X87484701Y39806401D01*
X87485301Y40493599D01*
X87221719Y41131515D01*
X86734082Y41620004D01*
X86096627Y41884699D01*
X85406401Y41885301D01*
X84768485Y41621719D01*
X84279996Y41134082D01*
X84015301Y40496627D01*
X84014699Y39806401D01*
X67484701Y39806401D01*
X67485301Y40493599D01*
X67221719Y41131515D01*
X66734082Y41620004D01*
X66096627Y41884699D01*
X65406401Y41885301D01*
X64768485Y41621719D01*
X64279996Y41134082D01*
X64015301Y40496627D01*
X64014699Y39806401D01*
X62484701Y39806401D01*
X62485301Y40493599D01*
X62221719Y41131515D01*
X61734082Y41620004D01*
X61096627Y41884699D01*
X60406401Y41885301D01*
X59768485Y41621719D01*
X59279996Y41134082D01*
X59015301Y40496627D01*
X59014699Y39806401D01*
X35952294Y39806401D01*
X35973515Y39815169D01*
X36363461Y40204436D01*
X36574759Y40713298D01*
X36574953Y40935715D01*
X38434760Y40935715D01*
X38645169Y40426485D01*
X39034436Y40036539D01*
X39543298Y39825241D01*
X40094285Y39824760D01*
X40603515Y40035169D01*
X40993461Y40424436D01*
X41204759Y40933298D01*
X41205240Y41484285D01*
X40994831Y41993515D01*
X40605564Y42383461D01*
X40096702Y42594759D01*
X39545715Y42595240D01*
X39036485Y42384831D01*
X38646539Y41995564D01*
X38435241Y41486702D01*
X38434760Y40935715D01*
X36574953Y40935715D01*
X36575240Y41264285D01*
X36364831Y41773515D01*
X35975564Y42163461D01*
X35466702Y42374759D01*
X34915715Y42375240D01*
X34406485Y42164831D01*
X34016539Y41775564D01*
X33805241Y41266702D01*
X33804760Y40715715D01*
X26682170Y40715715D01*
X26474831Y41217515D01*
X26085564Y41607461D01*
X25576702Y41818759D01*
X25025715Y41819240D01*
X24516485Y41608831D01*
X24126539Y41219564D01*
X23915241Y40710702D01*
X23914760Y40159715D01*
X19684761Y40159715D01*
X19685240Y40708285D01*
X19474831Y41217515D01*
X19085564Y41607461D01*
X18576702Y41818759D01*
X18025715Y41819240D01*
X17516485Y41608831D01*
X17126539Y41219564D01*
X16915241Y40710702D01*
X16914760Y40159715D01*
X710000Y40159715D01*
X710000Y41506680D01*
X6346285Y41506680D01*
X6475533Y41213877D01*
X7175806Y40945612D01*
X7925435Y40965750D01*
X8524467Y41213877D01*
X8653715Y41506680D01*
X7500000Y42660395D01*
X6346285Y41506680D01*
X710000Y41506680D01*
X710000Y43164194D01*
X5605612Y43164194D01*
X5625750Y42414565D01*
X5873877Y41815533D01*
X6166680Y41686285D01*
X7320395Y42840000D01*
X7679605Y42840000D01*
X8833320Y41686285D01*
X9126123Y41815533D01*
X9394388Y42515806D01*
X9374250Y43265435D01*
X9126123Y43864467D01*
X8833320Y43993715D01*
X7679605Y42840000D01*
X7320395Y42840000D01*
X6166680Y43993715D01*
X5873877Y43864467D01*
X5605612Y43164194D01*
X710000Y43164194D01*
X710000Y44173320D01*
X6346285Y44173320D01*
X7500000Y43019605D01*
X8653715Y44173320D01*
X8524467Y44466123D01*
X7824194Y44734388D01*
X7074565Y44714250D01*
X6475533Y44466123D01*
X6346285Y44173320D01*
X710000Y44173320D01*
X710000Y47546695D01*
X5614674Y47546695D01*
X5901043Y46853628D01*
X6430839Y46322907D01*
X7123405Y46035328D01*
X7873305Y46034674D01*
X8566372Y46321043D01*
X9097093Y46850839D01*
X9221197Y47149715D01*
X24478760Y47149715D01*
X24689169Y46640485D01*
X25078436Y46250539D01*
X25587298Y46039241D01*
X26138285Y46038760D01*
X26647515Y46249169D01*
X27037461Y46638436D01*
X27248420Y47146483D01*
X30466088Y47146483D01*
X30534077Y46905540D01*
X31053171Y46720799D01*
X31603448Y46748770D01*
X31981923Y46905540D01*
X32049912Y47146483D01*
X31258000Y47938395D01*
X30466088Y47146483D01*
X27248420Y47146483D01*
X27248759Y47147298D01*
X27249240Y47698285D01*
X27038831Y48207515D01*
X26923718Y48322829D01*
X29860799Y48322829D01*
X29888770Y47772552D01*
X30045540Y47394077D01*
X30286483Y47326088D01*
X31078395Y48118000D01*
X31437605Y48118000D01*
X32229517Y47326088D01*
X32470460Y47394077D01*
X32630482Y47843715D01*
X37372760Y47843715D01*
X37583169Y47334485D01*
X37972436Y46944539D01*
X38481298Y46733241D01*
X39032285Y46732760D01*
X39541515Y46943169D01*
X39931461Y47332436D01*
X40142759Y47841298D01*
X40143240Y48392285D01*
X39932831Y48901515D01*
X39543564Y49291461D01*
X39034702Y49502759D01*
X38483715Y49503240D01*
X37974485Y49292831D01*
X37584539Y48903564D01*
X37373241Y48394702D01*
X37372760Y47843715D01*
X32630482Y47843715D01*
X32655201Y47913171D01*
X32627230Y48463448D01*
X32470460Y48841923D01*
X32229517Y48909912D01*
X31437605Y48118000D01*
X31078395Y48118000D01*
X30286483Y48909912D01*
X30045540Y48841923D01*
X29860799Y48322829D01*
X26923718Y48322829D01*
X26649564Y48597461D01*
X26140702Y48808759D01*
X25589715Y48809240D01*
X25080485Y48598831D01*
X24690539Y48209564D01*
X24479241Y47700702D01*
X24478760Y47149715D01*
X9221197Y47149715D01*
X9384672Y47543405D01*
X9385326Y48293305D01*
X9098957Y48986372D01*
X8995992Y49089517D01*
X30466088Y49089517D01*
X31258000Y48297605D01*
X32049912Y49089517D01*
X31981923Y49330460D01*
X31462829Y49515201D01*
X30912552Y49487230D01*
X30534077Y49330460D01*
X30466088Y49089517D01*
X8995992Y49089517D01*
X8569161Y49517093D01*
X7876595Y49804672D01*
X7126695Y49805326D01*
X6433628Y49518957D01*
X5902907Y48989161D01*
X5615328Y48296595D01*
X5614674Y47546695D01*
X710000Y47546695D01*
X710000Y54250000D01*
X5602560Y54250000D01*
X5602560Y51750000D01*
X5646838Y51514683D01*
X5785910Y51298559D01*
X5998110Y51153569D01*
X6250000Y51102560D01*
X8750000Y51102560D01*
X8985317Y51146838D01*
X9201441Y51285910D01*
X9346431Y51498110D01*
X9397440Y51750000D01*
X9397440Y54250000D01*
X9353162Y54485317D01*
X9335682Y54512483D01*
X30974088Y54512483D01*
X31042077Y54271540D01*
X31561171Y54086799D01*
X32111448Y54114770D01*
X32489923Y54271540D01*
X32557912Y54512483D01*
X31766000Y55304395D01*
X30974088Y54512483D01*
X9335682Y54512483D01*
X9214090Y54701441D01*
X9001890Y54846431D01*
X8750000Y54897440D01*
X6250000Y54897440D01*
X6014683Y54853162D01*
X5798559Y54714090D01*
X5653569Y54501890D01*
X5602560Y54250000D01*
X710000Y54250000D01*
X710000Y55972303D01*
X18082708Y55972303D01*
X18338694Y55352771D01*
X18812278Y54878360D01*
X19431362Y54621293D01*
X20101697Y54620708D01*
X20721229Y54876694D01*
X21195640Y55350278D01*
X21319977Y55649715D01*
X24478760Y55649715D01*
X24689169Y55140485D01*
X25078436Y54750539D01*
X25587298Y54539241D01*
X26138285Y54538760D01*
X26647515Y54749169D01*
X27037461Y55138436D01*
X27248759Y55647298D01*
X27248795Y55688829D01*
X30368799Y55688829D01*
X30396770Y55138552D01*
X30553540Y54760077D01*
X30794483Y54692088D01*
X31586395Y55484000D01*
X31945605Y55484000D01*
X32737517Y54692088D01*
X32978460Y54760077D01*
X33138482Y55209715D01*
X37880760Y55209715D01*
X38091169Y54700485D01*
X38480436Y54310539D01*
X38989298Y54099241D01*
X39540285Y54098760D01*
X40049515Y54309169D01*
X40439461Y54698436D01*
X40650759Y55207298D01*
X40651240Y55758285D01*
X40540336Y56026695D01*
X48864674Y56026695D01*
X49151043Y55333628D01*
X49680839Y54802907D01*
X50373405Y54515328D01*
X51123305Y54514674D01*
X51816372Y54801043D01*
X52347093Y55330839D01*
X52634672Y56023405D01*
X52634674Y56026695D01*
X98864674Y56026695D01*
X99151043Y55333628D01*
X99680839Y54802907D01*
X100373405Y54515328D01*
X101123305Y54514674D01*
X101816372Y54801043D01*
X102347093Y55330839D01*
X102634672Y56023405D01*
X102635326Y56773305D01*
X102348957Y57466372D01*
X101819161Y57997093D01*
X101126595Y58284672D01*
X100376695Y58285326D01*
X99683628Y57998957D01*
X99152907Y57469161D01*
X98865328Y56776595D01*
X98864674Y56026695D01*
X52634674Y56026695D01*
X52635326Y56773305D01*
X52348957Y57466372D01*
X51819161Y57997093D01*
X51126595Y58284672D01*
X50376695Y58285326D01*
X49683628Y57998957D01*
X49152907Y57469161D01*
X48865328Y56776595D01*
X48864674Y56026695D01*
X40540336Y56026695D01*
X40440831Y56267515D01*
X40051564Y56657461D01*
X39542702Y56868759D01*
X38991715Y56869240D01*
X38482485Y56658831D01*
X38092539Y56269564D01*
X37881241Y55760702D01*
X37880760Y55209715D01*
X33138482Y55209715D01*
X33163201Y55279171D01*
X33135230Y55829448D01*
X32978460Y56207923D01*
X32737517Y56275912D01*
X31945605Y55484000D01*
X31586395Y55484000D01*
X30794483Y56275912D01*
X30553540Y56207923D01*
X30368799Y55688829D01*
X27248795Y55688829D01*
X27249240Y56198285D01*
X27142955Y56455517D01*
X30974088Y56455517D01*
X31766000Y55663605D01*
X32557912Y56455517D01*
X32489923Y56696460D01*
X31970829Y56881201D01*
X31420552Y56853230D01*
X31042077Y56696460D01*
X30974088Y56455517D01*
X27142955Y56455517D01*
X27038831Y56707515D01*
X26649564Y57097461D01*
X26140702Y57308759D01*
X25589715Y57309240D01*
X25080485Y57098831D01*
X24690539Y56709564D01*
X24479241Y56200702D01*
X24478760Y55649715D01*
X21319977Y55649715D01*
X21452707Y55969362D01*
X21453292Y56639697D01*
X21197306Y57259229D01*
X20723722Y57733640D01*
X20104638Y57990707D01*
X19434303Y57991292D01*
X18814771Y57735306D01*
X18340360Y57261722D01*
X18083293Y56642638D01*
X18082708Y55972303D01*
X710000Y55972303D01*
X710000Y63472303D01*
X18082708Y63472303D01*
X18338694Y62852771D01*
X18812278Y62378360D01*
X19431362Y62121293D01*
X20101697Y62120708D01*
X20721229Y62376694D01*
X21195640Y62850278D01*
X21330977Y63176205D01*
X25114716Y63176205D01*
X25363106Y62575057D01*
X25822637Y62114722D01*
X26423352Y61865284D01*
X27073795Y61864716D01*
X27674943Y62113106D01*
X28135278Y62572637D01*
X28384716Y63173352D01*
X28384718Y63176205D01*
X40114716Y63176205D01*
X40363106Y62575057D01*
X40822637Y62114722D01*
X41423352Y61865284D01*
X42073795Y61864716D01*
X42674943Y62113106D01*
X43135278Y62572637D01*
X43384716Y63173352D01*
X43385284Y63823795D01*
X43136894Y64424943D01*
X42677363Y64885278D01*
X42076648Y65134716D01*
X41426205Y65135284D01*
X40825057Y64886894D01*
X40364722Y64427363D01*
X40115284Y63826648D01*
X40114716Y63176205D01*
X28384718Y63176205D01*
X28385284Y63823795D01*
X28136894Y64424943D01*
X27677363Y64885278D01*
X27076648Y65134716D01*
X26426205Y65135284D01*
X25825057Y64886894D01*
X25364722Y64427363D01*
X25115284Y63826648D01*
X25114716Y63176205D01*
X21330977Y63176205D01*
X21452707Y63469362D01*
X21453292Y64139697D01*
X21197306Y64759229D01*
X20723722Y65233640D01*
X20104638Y65490707D01*
X19434303Y65491292D01*
X18814771Y65235306D01*
X18340360Y64761722D01*
X18083293Y64142638D01*
X18082708Y63472303D01*
X710000Y63472303D01*
X710000Y73349185D01*
X13608630Y73349185D01*
X13932980Y72564200D01*
X14533041Y71963091D01*
X15317459Y71637372D01*
X16166815Y71636630D01*
X16951800Y71960980D01*
X17552909Y72561041D01*
X17878628Y73345459D01*
X17878631Y73349185D01*
X18688630Y73349185D01*
X19012980Y72564200D01*
X19613041Y71963091D01*
X20397459Y71637372D01*
X21246815Y71636630D01*
X22031800Y71960980D01*
X22632909Y72561041D01*
X22958628Y73345459D01*
X22958631Y73349185D01*
X28768630Y73349185D01*
X29092980Y72564200D01*
X29693041Y71963091D01*
X30477459Y71637372D01*
X31326815Y71636630D01*
X32111800Y71960980D01*
X32712909Y72561041D01*
X33038628Y73345459D01*
X33038631Y73349185D01*
X33848630Y73349185D01*
X34172980Y72564200D01*
X34773041Y71963091D01*
X35557459Y71637372D01*
X36406815Y71636630D01*
X37191800Y71960980D01*
X37537824Y72306401D01*
X59014699Y72306401D01*
X59278281Y71668485D01*
X59765918Y71179996D01*
X60403373Y70915301D01*
X61093599Y70914699D01*
X61731515Y71178281D01*
X62220004Y71665918D01*
X62484699Y72303373D01*
X62484701Y72306401D01*
X89014699Y72306401D01*
X89278281Y71668485D01*
X89765918Y71179996D01*
X90403373Y70915301D01*
X91093599Y70914699D01*
X91731515Y71178281D01*
X92220004Y71665918D01*
X92484699Y72303373D01*
X92485301Y72993599D01*
X92221719Y73631515D01*
X91734082Y74120004D01*
X91096627Y74384699D01*
X90406401Y74385301D01*
X89768485Y74121719D01*
X89279996Y73634082D01*
X89015301Y72996627D01*
X89014699Y72306401D01*
X62484701Y72306401D01*
X62485301Y72993599D01*
X62221719Y73631515D01*
X61734082Y74120004D01*
X61096627Y74384699D01*
X60406401Y74385301D01*
X59768485Y74121719D01*
X59279996Y73634082D01*
X59015301Y72996627D01*
X59014699Y72306401D01*
X37537824Y72306401D01*
X37792909Y72561041D01*
X38118628Y73345459D01*
X38119370Y74194815D01*
X37795020Y74979800D01*
X37194959Y75580909D01*
X36410541Y75906628D01*
X35561185Y75907370D01*
X34776200Y75583020D01*
X34175091Y74982959D01*
X33849372Y74198541D01*
X33848630Y73349185D01*
X33038631Y73349185D01*
X33039370Y74194815D01*
X32715020Y74979800D01*
X32114959Y75580909D01*
X31330541Y75906628D01*
X30481185Y75907370D01*
X29696200Y75583020D01*
X29095091Y74982959D01*
X28769372Y74198541D01*
X28768630Y73349185D01*
X22958631Y73349185D01*
X22959370Y74194815D01*
X22635020Y74979800D01*
X22034959Y75580909D01*
X21250541Y75906628D01*
X20401185Y75907370D01*
X19616200Y75583020D01*
X19015091Y74982959D01*
X18689372Y74198541D01*
X18688630Y73349185D01*
X17878631Y73349185D01*
X17879370Y74194815D01*
X17555020Y74979800D01*
X16954959Y75580909D01*
X16170541Y75906628D01*
X15321185Y75907370D01*
X14536200Y75583020D01*
X13935091Y74982959D01*
X13609372Y74198541D01*
X13608630Y73349185D01*
X710000Y73349185D01*
X710000Y81790000D01*
X106790000Y81790000D01*
X106790000Y31202993D01*
G36*
X106790000Y710000D02*
X710000Y710000D01*
X710000Y4767468D01*
X6527073Y4767468D01*
X6625736Y4500613D01*
X7235461Y4274092D01*
X7885460Y4298144D01*
X8374264Y4500613D01*
X8472927Y4767468D01*
X7500000Y5740395D01*
X6527073Y4767468D01*
X710000Y4767468D01*
X710000Y6184539D01*
X5854092Y6184539D01*
X5878144Y5534540D01*
X6080613Y5045736D01*
X6347468Y4947073D01*
X7320395Y5920000D01*
X7679605Y5920000D01*
X8652532Y4947073D01*
X8919387Y5045736D01*
X9145908Y5655461D01*
X9121856Y6305460D01*
X8919387Y6794264D01*
X8652532Y6892927D01*
X7679605Y5920000D01*
X7320395Y5920000D01*
X6347468Y6892927D01*
X6080613Y6794264D01*
X5854092Y6184539D01*
X710000Y6184539D01*
X710000Y12000000D01*
X5852560Y12000000D01*
X5852560Y10000000D01*
X5896838Y9764683D01*
X6035910Y9548559D01*
X6178561Y9451090D01*
X6114722Y9387363D01*
X5865284Y8786648D01*
X5864716Y8136205D01*
X6113106Y7535057D01*
X6539978Y7107438D01*
X6527073Y7072532D01*
X7500000Y6099605D01*
X8472927Y7072532D01*
X8459836Y7107938D01*
X8885278Y7532637D01*
X9134716Y8133352D01*
X9135284Y8783795D01*
X8886894Y9384943D01*
X8820379Y9451574D01*
X8951441Y9535910D01*
X9096431Y9748110D01*
X9147440Y10000000D01*
X9147440Y12000000D01*
X9103162Y12235317D01*
X8964090Y12451441D01*
X8751890Y12596431D01*
X8500000Y12647440D01*
X6500000Y12647440D01*
X6264683Y12603162D01*
X6048559Y12464090D01*
X5903569Y12251890D01*
X5852560Y12000000D01*
X710000Y12000000D01*
X710000Y15500000D01*
X5852560Y15500000D01*
X5852560Y13500000D01*
X5896838Y13264683D01*
X6035910Y13048559D01*
X6248110Y12903569D01*
X6500000Y12852560D01*
X8500000Y12852560D01*
X8735317Y12896838D01*
X8951441Y13035910D01*
X9096431Y13248110D01*
X9147440Y13500000D01*
X9147440Y15500000D01*
X9103162Y15735317D01*
X8964090Y15951441D01*
X8821439Y16048910D01*
X8885278Y16112637D01*
X9119291Y16676205D01*
X15614716Y16676205D01*
X15863106Y16075057D01*
X16322637Y15614722D01*
X16661777Y15473899D01*
X16364722Y15177363D01*
X16115284Y14576648D01*
X16114716Y13926205D01*
X16363106Y13325057D01*
X16822637Y12864722D01*
X17423352Y12615284D01*
X18073795Y12614716D01*
X18674943Y12863106D01*
X19135278Y13322637D01*
X19384716Y13923352D01*
X19385058Y14315000D01*
X27432226Y14315000D01*
X27339979Y14176943D01*
X27265000Y13800000D01*
X27265000Y12408000D01*
X24143500Y9286500D01*
X23929979Y8966943D01*
X23855000Y8590000D01*
X23855000Y7926942D01*
X23848426Y7920379D01*
X23764090Y8051441D01*
X23551890Y8196431D01*
X23300000Y8247440D01*
X21300000Y8247440D01*
X21064683Y8203162D01*
X20848559Y8064090D01*
X20703569Y7851890D01*
X20652560Y7600000D01*
X20652560Y5600000D01*
X20696838Y5364683D01*
X20835910Y5148559D01*
X21048110Y5003569D01*
X21300000Y4952560D01*
X23300000Y4952560D01*
X23535317Y4996838D01*
X23751441Y5135910D01*
X23848910Y5278561D01*
X23912637Y5214722D01*
X24513352Y4965284D01*
X25163795Y4964716D01*
X25764943Y5213106D01*
X26110199Y5557759D01*
X26452637Y5214722D01*
X27053352Y4965284D01*
X27703795Y4964716D01*
X28304943Y5213106D01*
X28539715Y5447468D01*
X28947073Y5447468D01*
X29045736Y5180613D01*
X29655461Y4954092D01*
X30305460Y4978144D01*
X30794264Y5180613D01*
X30892927Y5447468D01*
X29920000Y6420395D01*
X28947073Y5447468D01*
X28539715Y5447468D01*
X28732562Y5639978D01*
X28767468Y5627073D01*
X29740395Y6600000D01*
X30099605Y6600000D01*
X31072532Y5627073D01*
X31339387Y5725736D01*
X31549856Y6292255D01*
X52271861Y6292255D01*
X52345995Y6046136D01*
X52883223Y5853035D01*
X53453454Y5880222D01*
X53854005Y6046136D01*
X53928139Y6292255D01*
X53100000Y7120395D01*
X52271861Y6292255D01*
X31549856Y6292255D01*
X31565908Y6335461D01*
X31541856Y6985460D01*
X31339387Y7474264D01*
X31224402Y7516777D01*
X51653035Y7516777D01*
X51680222Y6946546D01*
X51846136Y6545995D01*
X52092255Y6471861D01*
X52920395Y7300000D01*
X53279605Y7300000D01*
X54107745Y6471861D01*
X54353864Y6545995D01*
X54546965Y7083223D01*
X54519778Y7653454D01*
X54353864Y8054005D01*
X54107745Y8128139D01*
X53279605Y7300000D01*
X52920395Y7300000D01*
X52092255Y8128139D01*
X51846136Y8054005D01*
X51653035Y7516777D01*
X31224402Y7516777D01*
X31072532Y7572927D01*
X30099605Y6600000D01*
X29740395Y6600000D01*
X28767468Y7572927D01*
X28732062Y7559836D01*
X28539703Y7752532D01*
X28947073Y7752532D01*
X29920000Y6779605D01*
X30892927Y7752532D01*
X30794264Y8019387D01*
X30184539Y8245908D01*
X29534540Y8221856D01*
X29045736Y8019387D01*
X28947073Y7752532D01*
X28539703Y7752532D01*
X28365000Y7927540D01*
X28365000Y7972000D01*
X30993000Y10600000D01*
X51652560Y10600000D01*
X51652560Y9000000D01*
X51696838Y8764683D01*
X51835910Y8548559D01*
X52048110Y8403569D01*
X52286201Y8355354D01*
X52271861Y8307745D01*
X53100000Y7479605D01*
X53928139Y8307745D01*
X53913855Y8355167D01*
X54135317Y8396838D01*
X54351441Y8535910D01*
X54496431Y8748110D01*
X54547440Y9000000D01*
X54547440Y10292255D01*
X73671861Y10292255D01*
X73745995Y10046136D01*
X74283223Y9853035D01*
X74853454Y9880222D01*
X75254005Y10046136D01*
X75328139Y10292255D01*
X74500000Y11120395D01*
X73671861Y10292255D01*
X54547440Y10292255D01*
X54547440Y10600000D01*
X54503162Y10835317D01*
X54364090Y11051441D01*
X54151890Y11196431D01*
X53900000Y11247440D01*
X52300000Y11247440D01*
X52064683Y11203162D01*
X51848559Y11064090D01*
X51703569Y10851890D01*
X51652560Y10600000D01*
X30993000Y10600000D01*
X31909777Y11516777D01*
X73053035Y11516777D01*
X73080222Y10946546D01*
X73246136Y10545995D01*
X73492255Y10471861D01*
X74320395Y11300000D01*
X74679605Y11300000D01*
X75507745Y10471861D01*
X75753864Y10545995D01*
X75946965Y11083223D01*
X75919778Y11653454D01*
X75753864Y12054005D01*
X75507745Y12128139D01*
X74679605Y11300000D01*
X74320395Y11300000D01*
X73492255Y12128139D01*
X73246136Y12054005D01*
X73053035Y11516777D01*
X31909777Y11516777D01*
X32946500Y12553500D01*
X33160021Y12873057D01*
X33235000Y13250000D01*
X33235000Y14600000D01*
X73052560Y14600000D01*
X73052560Y13000000D01*
X73096838Y12764683D01*
X73235910Y12548559D01*
X73448110Y12403569D01*
X73686201Y12355354D01*
X73671861Y12307745D01*
X74500000Y11479605D01*
X75328139Y12307745D01*
X75313855Y12355167D01*
X75535317Y12396838D01*
X75751441Y12535910D01*
X75896431Y12748110D01*
X75947440Y13000000D01*
X75947440Y14600000D01*
X75903162Y14835317D01*
X75764090Y15051441D01*
X75551890Y15196431D01*
X75300000Y15247440D01*
X73700000Y15247440D01*
X73464683Y15203162D01*
X73248559Y15064090D01*
X73103569Y14851890D01*
X73052560Y14600000D01*
X33235000Y14600000D01*
X33235000Y15673058D01*
X33635278Y16072637D01*
X33884716Y16673352D01*
X33885284Y17323795D01*
X33636894Y17924943D01*
X33456438Y18105715D01*
X86044760Y18105715D01*
X86255169Y17596485D01*
X86644436Y17206539D01*
X87153298Y16995241D01*
X87704285Y16994760D01*
X88213515Y17205169D01*
X88603461Y17594436D01*
X88814759Y18103298D01*
X88815240Y18654285D01*
X88604831Y19163515D01*
X88215564Y19553461D01*
X87706702Y19764759D01*
X87155715Y19765240D01*
X86646485Y19554831D01*
X86256539Y19165564D01*
X86045241Y18656702D01*
X86044760Y18105715D01*
X33456438Y18105715D01*
X33177363Y18385278D01*
X32576648Y18634716D01*
X31926205Y18635284D01*
X31325057Y18386894D01*
X30922460Y17985000D01*
X18576942Y17985000D01*
X18177363Y18385278D01*
X17576648Y18634716D01*
X16926205Y18635284D01*
X16325057Y18386894D01*
X15864722Y17927363D01*
X15615284Y17326648D01*
X15614716Y16676205D01*
X9119291Y16676205D01*
X9134716Y16713352D01*
X9135284Y17363795D01*
X8886894Y17964943D01*
X8460022Y18392562D01*
X8472927Y18427468D01*
X7500000Y19400395D01*
X6527073Y18427468D01*
X6540164Y18392062D01*
X6114722Y17967363D01*
X5865284Y17366648D01*
X5864716Y16716205D01*
X6113106Y16115057D01*
X6179621Y16048426D01*
X6048559Y15964090D01*
X5903569Y15751890D01*
X5852560Y15500000D01*
X710000Y15500000D01*
X710000Y19844539D01*
X5854092Y19844539D01*
X5878144Y19194540D01*
X6080613Y18705736D01*
X6347468Y18607073D01*
X7320395Y19580000D01*
X7679605Y19580000D01*
X8652532Y18607073D01*
X8919387Y18705736D01*
X9145908Y19315461D01*
X9121856Y19965460D01*
X9034563Y20176205D01*
X44364716Y20176205D01*
X44613106Y19575057D01*
X45072637Y19114722D01*
X45673352Y18865284D01*
X46323795Y18864716D01*
X46924943Y19113106D01*
X47385278Y19572637D01*
X47519675Y19896303D01*
X73824708Y19896303D01*
X74080694Y19276771D01*
X74554278Y18802360D01*
X75173362Y18545293D01*
X75843697Y18544708D01*
X76463229Y18800694D01*
X76937640Y19274278D01*
X77194707Y19893362D01*
X77195292Y20563697D01*
X76939306Y21183229D01*
X76465722Y21657640D01*
X75846638Y21914707D01*
X75176303Y21915292D01*
X74556771Y21659306D01*
X74082360Y21185722D01*
X73825293Y20566638D01*
X73824708Y19896303D01*
X47519675Y19896303D01*
X47634716Y20173352D01*
X47635284Y20823795D01*
X47386894Y21424943D01*
X46985000Y21827540D01*
X46985000Y22396303D01*
X69324708Y22396303D01*
X69580694Y21776771D01*
X70054278Y21302360D01*
X70673362Y21045293D01*
X71343697Y21044708D01*
X71963229Y21300694D01*
X72437640Y21774278D01*
X72694707Y22393362D01*
X72695292Y23063697D01*
X72439306Y23683229D01*
X71965722Y24157640D01*
X71390960Y24396303D01*
X76324708Y24396303D01*
X76580694Y23776771D01*
X77054278Y23302360D01*
X77673362Y23045293D01*
X78343697Y23044708D01*
X78463597Y23094250D01*
X86045000Y23094250D01*
X86045000Y22503691D01*
X86141673Y22270302D01*
X86320301Y22091673D01*
X86553690Y21995000D01*
X87144250Y21995000D01*
X87303000Y22153750D01*
X87303000Y23253000D01*
X87557000Y23253000D01*
X87557000Y22153750D01*
X87715750Y21995000D01*
X88306310Y21995000D01*
X88539699Y22091673D01*
X88718327Y22270302D01*
X88815000Y22503691D01*
X88815000Y23094250D01*
X88656250Y23253000D01*
X87557000Y23253000D01*
X87303000Y23253000D01*
X86203750Y23253000D01*
X86045000Y23094250D01*
X78463597Y23094250D01*
X78963229Y23300694D01*
X79437640Y23774278D01*
X79637797Y24256309D01*
X86045000Y24256309D01*
X86045000Y23665750D01*
X86203750Y23507000D01*
X87303000Y23507000D01*
X87303000Y24606250D01*
X87557000Y24606250D01*
X87557000Y23507000D01*
X88656250Y23507000D01*
X88815000Y23665750D01*
X88815000Y24256309D01*
X88718327Y24489698D01*
X88539699Y24668327D01*
X88306310Y24765000D01*
X87715750Y24765000D01*
X87557000Y24606250D01*
X87303000Y24606250D01*
X87144250Y24765000D01*
X86553690Y24765000D01*
X86320301Y24668327D01*
X86141673Y24489698D01*
X86045000Y24256309D01*
X79637797Y24256309D01*
X79694707Y24393362D01*
X79695292Y25063697D01*
X79439306Y25683229D01*
X78965722Y26157640D01*
X78346638Y26414707D01*
X77676303Y26415292D01*
X77056771Y26159306D01*
X76582360Y25685722D01*
X76325293Y25066638D01*
X76324708Y24396303D01*
X71390960Y24396303D01*
X71346638Y24414707D01*
X70676303Y24415292D01*
X70056771Y24159306D01*
X69582360Y23685722D01*
X69325293Y23066638D01*
X69324708Y22396303D01*
X46985000Y22396303D01*
X46985000Y24092000D01*
X48053000Y25160000D01*
X57532560Y25160000D01*
X57532560Y23560000D01*
X57576838Y23324683D01*
X57715910Y23108559D01*
X57928110Y22963569D01*
X58180000Y22912560D01*
X59780000Y22912560D01*
X60015317Y22956838D01*
X60231441Y23095910D01*
X60376431Y23308110D01*
X60385370Y23352255D01*
X60651861Y23352255D01*
X60725995Y23106136D01*
X61263223Y22913035D01*
X61833454Y22940222D01*
X62234005Y23106136D01*
X62308139Y23352255D01*
X61480000Y24180395D01*
X60651861Y23352255D01*
X60385370Y23352255D01*
X60424646Y23546201D01*
X60472255Y23531861D01*
X61300395Y24360000D01*
X61659605Y24360000D01*
X62487745Y23531861D01*
X62733864Y23605995D01*
X62926965Y24143223D01*
X62899778Y24713454D01*
X62733864Y25114005D01*
X62487745Y25188139D01*
X61659605Y24360000D01*
X61300395Y24360000D01*
X60472255Y25188139D01*
X60424833Y25173855D01*
X60388351Y25367745D01*
X60651861Y25367745D01*
X61480000Y24539605D01*
X62308139Y25367745D01*
X62234005Y25613864D01*
X61696777Y25806965D01*
X61126546Y25779778D01*
X60725995Y25613864D01*
X60651861Y25367745D01*
X60388351Y25367745D01*
X60383162Y25395317D01*
X60244090Y25611441D01*
X60031890Y25756431D01*
X59780000Y25807440D01*
X58180000Y25807440D01*
X57944683Y25763162D01*
X57728559Y25624090D01*
X57583569Y25411890D01*
X57532560Y25160000D01*
X48053000Y25160000D01*
X48508210Y25615210D01*
X49073795Y25614716D01*
X49674943Y25863106D01*
X49853445Y26041297D01*
X72500902Y26041297D01*
X72605687Y25769255D01*
X73233526Y25534381D01*
X73903456Y25557651D01*
X74414313Y25769255D01*
X74519098Y26041297D01*
X73510000Y27050395D01*
X72500902Y26041297D01*
X49853445Y26041297D01*
X50135278Y26322637D01*
X50384716Y26923352D01*
X50385225Y27506474D01*
X71814381Y27506474D01*
X71837651Y26836544D01*
X72049255Y26325687D01*
X72321297Y26220902D01*
X73330395Y27230000D01*
X73689605Y27230000D01*
X74698703Y26220902D01*
X74970745Y26325687D01*
X75205619Y26953526D01*
X75182349Y27623456D01*
X74970745Y28134313D01*
X74698703Y28239098D01*
X73689605Y27230000D01*
X73330395Y27230000D01*
X72321297Y28239098D01*
X72049255Y28134313D01*
X71814381Y27506474D01*
X50385225Y27506474D01*
X50385284Y27573795D01*
X50136894Y28174943D01*
X49893560Y28418703D01*
X72500902Y28418703D01*
X73510000Y27409605D01*
X74519098Y28418703D01*
X74414313Y28690745D01*
X73786474Y28925619D01*
X73116544Y28902349D01*
X72605687Y28690745D01*
X72500902Y28418703D01*
X49893560Y28418703D01*
X49677363Y28635278D01*
X49076648Y28884716D01*
X48426205Y28885284D01*
X47825057Y28636894D01*
X47364722Y28177363D01*
X47115284Y27576648D01*
X47114787Y27007787D01*
X45303500Y25196500D01*
X45089979Y24876943D01*
X45015000Y24500000D01*
X45015000Y21826942D01*
X44614722Y21427363D01*
X44365284Y20826648D01*
X44364716Y20176205D01*
X9034563Y20176205D01*
X8919387Y20454264D01*
X8652532Y20552927D01*
X7679605Y19580000D01*
X7320395Y19580000D01*
X6347468Y20552927D01*
X6080613Y20454264D01*
X5854092Y19844539D01*
X710000Y19844539D01*
X710000Y20732532D01*
X6527073Y20732532D01*
X7500000Y19759605D01*
X8472927Y20732532D01*
X8374264Y20999387D01*
X7764539Y21225908D01*
X7114540Y21201856D01*
X6625736Y20999387D01*
X6527073Y20732532D01*
X710000Y20732532D01*
X710000Y25623000D01*
X30790000Y25623000D01*
X30790000Y23000000D01*
X30844046Y22728295D01*
X30873000Y22684962D01*
X30873000Y20750000D01*
X30883006Y20700590D01*
X30911447Y20658965D01*
X30953841Y20631685D01*
X31000000Y20623000D01*
X43500000Y20623000D01*
X43549410Y20633006D01*
X43591035Y20661447D01*
X43618315Y20703841D01*
X43626945Y20746266D01*
X43873332Y29123440D01*
X106790000Y29348143D01*
X106790000Y710000D01*
X106790000Y710000D01*
G37*
X106790000Y710000D02*
X710000Y710000D01*
X710000Y4767468D01*
X6527073Y4767468D01*
X6625736Y4500613D01*
X7235461Y4274092D01*
X7885460Y4298144D01*
X8374264Y4500613D01*
X8472927Y4767468D01*
X7500000Y5740395D01*
X6527073Y4767468D01*
X710000Y4767468D01*
X710000Y6184539D01*
X5854092Y6184539D01*
X5878144Y5534540D01*
X6080613Y5045736D01*
X6347468Y4947073D01*
X7320395Y5920000D01*
X7679605Y5920000D01*
X8652532Y4947073D01*
X8919387Y5045736D01*
X9145908Y5655461D01*
X9121856Y6305460D01*
X8919387Y6794264D01*
X8652532Y6892927D01*
X7679605Y5920000D01*
X7320395Y5920000D01*
X6347468Y6892927D01*
X6080613Y6794264D01*
X5854092Y6184539D01*
X710000Y6184539D01*
X710000Y12000000D01*
X5852560Y12000000D01*
X5852560Y10000000D01*
X5896838Y9764683D01*
X6035910Y9548559D01*
X6178561Y9451090D01*
X6114722Y9387363D01*
X5865284Y8786648D01*
X5864716Y8136205D01*
X6113106Y7535057D01*
X6539978Y7107438D01*
X6527073Y7072532D01*
X7500000Y6099605D01*
X8472927Y7072532D01*
X8459836Y7107938D01*
X8885278Y7532637D01*
X9134716Y8133352D01*
X9135284Y8783795D01*
X8886894Y9384943D01*
X8820379Y9451574D01*
X8951441Y9535910D01*
X9096431Y9748110D01*
X9147440Y10000000D01*
X9147440Y12000000D01*
X9103162Y12235317D01*
X8964090Y12451441D01*
X8751890Y12596431D01*
X8500000Y12647440D01*
X6500000Y12647440D01*
X6264683Y12603162D01*
X6048559Y12464090D01*
X5903569Y12251890D01*
X5852560Y12000000D01*
X710000Y12000000D01*
X710000Y15500000D01*
X5852560Y15500000D01*
X5852560Y13500000D01*
X5896838Y13264683D01*
X6035910Y13048559D01*
X6248110Y12903569D01*
X6500000Y12852560D01*
X8500000Y12852560D01*
X8735317Y12896838D01*
X8951441Y13035910D01*
X9096431Y13248110D01*
X9147440Y13500000D01*
X9147440Y15500000D01*
X9103162Y15735317D01*
X8964090Y15951441D01*
X8821439Y16048910D01*
X8885278Y16112637D01*
X9119291Y16676205D01*
X15614716Y16676205D01*
X15863106Y16075057D01*
X16322637Y15614722D01*
X16661777Y15473899D01*
X16364722Y15177363D01*
X16115284Y14576648D01*
X16114716Y13926205D01*
X16363106Y13325057D01*
X16822637Y12864722D01*
X17423352Y12615284D01*
X18073795Y12614716D01*
X18674943Y12863106D01*
X19135278Y13322637D01*
X19384716Y13923352D01*
X19385058Y14315000D01*
X27432226Y14315000D01*
X27339979Y14176943D01*
X27265000Y13800000D01*
X27265000Y12408000D01*
X24143500Y9286500D01*
X23929979Y8966943D01*
X23855000Y8590000D01*
X23855000Y7926942D01*
X23848426Y7920379D01*
X23764090Y8051441D01*
X23551890Y8196431D01*
X23300000Y8247440D01*
X21300000Y8247440D01*
X21064683Y8203162D01*
X20848559Y8064090D01*
X20703569Y7851890D01*
X20652560Y7600000D01*
X20652560Y5600000D01*
X20696838Y5364683D01*
X20835910Y5148559D01*
X21048110Y5003569D01*
X21300000Y4952560D01*
X23300000Y4952560D01*
X23535317Y4996838D01*
X23751441Y5135910D01*
X23848910Y5278561D01*
X23912637Y5214722D01*
X24513352Y4965284D01*
X25163795Y4964716D01*
X25764943Y5213106D01*
X26110199Y5557759D01*
X26452637Y5214722D01*
X27053352Y4965284D01*
X27703795Y4964716D01*
X28304943Y5213106D01*
X28539715Y5447468D01*
X28947073Y5447468D01*
X29045736Y5180613D01*
X29655461Y4954092D01*
X30305460Y4978144D01*
X30794264Y5180613D01*
X30892927Y5447468D01*
X29920000Y6420395D01*
X28947073Y5447468D01*
X28539715Y5447468D01*
X28732562Y5639978D01*
X28767468Y5627073D01*
X29740395Y6600000D01*
X30099605Y6600000D01*
X31072532Y5627073D01*
X31339387Y5725736D01*
X31549856Y6292255D01*
X52271861Y6292255D01*
X52345995Y6046136D01*
X52883223Y5853035D01*
X53453454Y5880222D01*
X53854005Y6046136D01*
X53928139Y6292255D01*
X53100000Y7120395D01*
X52271861Y6292255D01*
X31549856Y6292255D01*
X31565908Y6335461D01*
X31541856Y6985460D01*
X31339387Y7474264D01*
X31224402Y7516777D01*
X51653035Y7516777D01*
X51680222Y6946546D01*
X51846136Y6545995D01*
X52092255Y6471861D01*
X52920395Y7300000D01*
X53279605Y7300000D01*
X54107745Y6471861D01*
X54353864Y6545995D01*
X54546965Y7083223D01*
X54519778Y7653454D01*
X54353864Y8054005D01*
X54107745Y8128139D01*
X53279605Y7300000D01*
X52920395Y7300000D01*
X52092255Y8128139D01*
X51846136Y8054005D01*
X51653035Y7516777D01*
X31224402Y7516777D01*
X31072532Y7572927D01*
X30099605Y6600000D01*
X29740395Y6600000D01*
X28767468Y7572927D01*
X28732062Y7559836D01*
X28539703Y7752532D01*
X28947073Y7752532D01*
X29920000Y6779605D01*
X30892927Y7752532D01*
X30794264Y8019387D01*
X30184539Y8245908D01*
X29534540Y8221856D01*
X29045736Y8019387D01*
X28947073Y7752532D01*
X28539703Y7752532D01*
X28365000Y7927540D01*
X28365000Y7972000D01*
X30993000Y10600000D01*
X51652560Y10600000D01*
X51652560Y9000000D01*
X51696838Y8764683D01*
X51835910Y8548559D01*
X52048110Y8403569D01*
X52286201Y8355354D01*
X52271861Y8307745D01*
X53100000Y7479605D01*
X53928139Y8307745D01*
X53913855Y8355167D01*
X54135317Y8396838D01*
X54351441Y8535910D01*
X54496431Y8748110D01*
X54547440Y9000000D01*
X54547440Y10292255D01*
X73671861Y10292255D01*
X73745995Y10046136D01*
X74283223Y9853035D01*
X74853454Y9880222D01*
X75254005Y10046136D01*
X75328139Y10292255D01*
X74500000Y11120395D01*
X73671861Y10292255D01*
X54547440Y10292255D01*
X54547440Y10600000D01*
X54503162Y10835317D01*
X54364090Y11051441D01*
X54151890Y11196431D01*
X53900000Y11247440D01*
X52300000Y11247440D01*
X52064683Y11203162D01*
X51848559Y11064090D01*
X51703569Y10851890D01*
X51652560Y10600000D01*
X30993000Y10600000D01*
X31909777Y11516777D01*
X73053035Y11516777D01*
X73080222Y10946546D01*
X73246136Y10545995D01*
X73492255Y10471861D01*
X74320395Y11300000D01*
X74679605Y11300000D01*
X75507745Y10471861D01*
X75753864Y10545995D01*
X75946965Y11083223D01*
X75919778Y11653454D01*
X75753864Y12054005D01*
X75507745Y12128139D01*
X74679605Y11300000D01*
X74320395Y11300000D01*
X73492255Y12128139D01*
X73246136Y12054005D01*
X73053035Y11516777D01*
X31909777Y11516777D01*
X32946500Y12553500D01*
X33160021Y12873057D01*
X33235000Y13250000D01*
X33235000Y14600000D01*
X73052560Y14600000D01*
X73052560Y13000000D01*
X73096838Y12764683D01*
X73235910Y12548559D01*
X73448110Y12403569D01*
X73686201Y12355354D01*
X73671861Y12307745D01*
X74500000Y11479605D01*
X75328139Y12307745D01*
X75313855Y12355167D01*
X75535317Y12396838D01*
X75751441Y12535910D01*
X75896431Y12748110D01*
X75947440Y13000000D01*
X75947440Y14600000D01*
X75903162Y14835317D01*
X75764090Y15051441D01*
X75551890Y15196431D01*
X75300000Y15247440D01*
X73700000Y15247440D01*
X73464683Y15203162D01*
X73248559Y15064090D01*
X73103569Y14851890D01*
X73052560Y14600000D01*
X33235000Y14600000D01*
X33235000Y15673058D01*
X33635278Y16072637D01*
X33884716Y16673352D01*
X33885284Y17323795D01*
X33636894Y17924943D01*
X33456438Y18105715D01*
X86044760Y18105715D01*
X86255169Y17596485D01*
X86644436Y17206539D01*
X87153298Y16995241D01*
X87704285Y16994760D01*
X88213515Y17205169D01*
X88603461Y17594436D01*
X88814759Y18103298D01*
X88815240Y18654285D01*
X88604831Y19163515D01*
X88215564Y19553461D01*
X87706702Y19764759D01*
X87155715Y19765240D01*
X86646485Y19554831D01*
X86256539Y19165564D01*
X86045241Y18656702D01*
X86044760Y18105715D01*
X33456438Y18105715D01*
X33177363Y18385278D01*
X32576648Y18634716D01*
X31926205Y18635284D01*
X31325057Y18386894D01*
X30922460Y17985000D01*
X18576942Y17985000D01*
X18177363Y18385278D01*
X17576648Y18634716D01*
X16926205Y18635284D01*
X16325057Y18386894D01*
X15864722Y17927363D01*
X15615284Y17326648D01*
X15614716Y16676205D01*
X9119291Y16676205D01*
X9134716Y16713352D01*
X9135284Y17363795D01*
X8886894Y17964943D01*
X8460022Y18392562D01*
X8472927Y18427468D01*
X7500000Y19400395D01*
X6527073Y18427468D01*
X6540164Y18392062D01*
X6114722Y17967363D01*
X5865284Y17366648D01*
X5864716Y16716205D01*
X6113106Y16115057D01*
X6179621Y16048426D01*
X6048559Y15964090D01*
X5903569Y15751890D01*
X5852560Y15500000D01*
X710000Y15500000D01*
X710000Y19844539D01*
X5854092Y19844539D01*
X5878144Y19194540D01*
X6080613Y18705736D01*
X6347468Y18607073D01*
X7320395Y19580000D01*
X7679605Y19580000D01*
X8652532Y18607073D01*
X8919387Y18705736D01*
X9145908Y19315461D01*
X9121856Y19965460D01*
X9034563Y20176205D01*
X44364716Y20176205D01*
X44613106Y19575057D01*
X45072637Y19114722D01*
X45673352Y18865284D01*
X46323795Y18864716D01*
X46924943Y19113106D01*
X47385278Y19572637D01*
X47519675Y19896303D01*
X73824708Y19896303D01*
X74080694Y19276771D01*
X74554278Y18802360D01*
X75173362Y18545293D01*
X75843697Y18544708D01*
X76463229Y18800694D01*
X76937640Y19274278D01*
X77194707Y19893362D01*
X77195292Y20563697D01*
X76939306Y21183229D01*
X76465722Y21657640D01*
X75846638Y21914707D01*
X75176303Y21915292D01*
X74556771Y21659306D01*
X74082360Y21185722D01*
X73825293Y20566638D01*
X73824708Y19896303D01*
X47519675Y19896303D01*
X47634716Y20173352D01*
X47635284Y20823795D01*
X47386894Y21424943D01*
X46985000Y21827540D01*
X46985000Y22396303D01*
X69324708Y22396303D01*
X69580694Y21776771D01*
X70054278Y21302360D01*
X70673362Y21045293D01*
X71343697Y21044708D01*
X71963229Y21300694D01*
X72437640Y21774278D01*
X72694707Y22393362D01*
X72695292Y23063697D01*
X72439306Y23683229D01*
X71965722Y24157640D01*
X71390960Y24396303D01*
X76324708Y24396303D01*
X76580694Y23776771D01*
X77054278Y23302360D01*
X77673362Y23045293D01*
X78343697Y23044708D01*
X78463597Y23094250D01*
X86045000Y23094250D01*
X86045000Y22503691D01*
X86141673Y22270302D01*
X86320301Y22091673D01*
X86553690Y21995000D01*
X87144250Y21995000D01*
X87303000Y22153750D01*
X87303000Y23253000D01*
X87557000Y23253000D01*
X87557000Y22153750D01*
X87715750Y21995000D01*
X88306310Y21995000D01*
X88539699Y22091673D01*
X88718327Y22270302D01*
X88815000Y22503691D01*
X88815000Y23094250D01*
X88656250Y23253000D01*
X87557000Y23253000D01*
X87303000Y23253000D01*
X86203750Y23253000D01*
X86045000Y23094250D01*
X78463597Y23094250D01*
X78963229Y23300694D01*
X79437640Y23774278D01*
X79637797Y24256309D01*
X86045000Y24256309D01*
X86045000Y23665750D01*
X86203750Y23507000D01*
X87303000Y23507000D01*
X87303000Y24606250D01*
X87557000Y24606250D01*
X87557000Y23507000D01*
X88656250Y23507000D01*
X88815000Y23665750D01*
X88815000Y24256309D01*
X88718327Y24489698D01*
X88539699Y24668327D01*
X88306310Y24765000D01*
X87715750Y24765000D01*
X87557000Y24606250D01*
X87303000Y24606250D01*
X87144250Y24765000D01*
X86553690Y24765000D01*
X86320301Y24668327D01*
X86141673Y24489698D01*
X86045000Y24256309D01*
X79637797Y24256309D01*
X79694707Y24393362D01*
X79695292Y25063697D01*
X79439306Y25683229D01*
X78965722Y26157640D01*
X78346638Y26414707D01*
X77676303Y26415292D01*
X77056771Y26159306D01*
X76582360Y25685722D01*
X76325293Y25066638D01*
X76324708Y24396303D01*
X71390960Y24396303D01*
X71346638Y24414707D01*
X70676303Y24415292D01*
X70056771Y24159306D01*
X69582360Y23685722D01*
X69325293Y23066638D01*
X69324708Y22396303D01*
X46985000Y22396303D01*
X46985000Y24092000D01*
X48053000Y25160000D01*
X57532560Y25160000D01*
X57532560Y23560000D01*
X57576838Y23324683D01*
X57715910Y23108559D01*
X57928110Y22963569D01*
X58180000Y22912560D01*
X59780000Y22912560D01*
X60015317Y22956838D01*
X60231441Y23095910D01*
X60376431Y23308110D01*
X60385370Y23352255D01*
X60651861Y23352255D01*
X60725995Y23106136D01*
X61263223Y22913035D01*
X61833454Y22940222D01*
X62234005Y23106136D01*
X62308139Y23352255D01*
X61480000Y24180395D01*
X60651861Y23352255D01*
X60385370Y23352255D01*
X60424646Y23546201D01*
X60472255Y23531861D01*
X61300395Y24360000D01*
X61659605Y24360000D01*
X62487745Y23531861D01*
X62733864Y23605995D01*
X62926965Y24143223D01*
X62899778Y24713454D01*
X62733864Y25114005D01*
X62487745Y25188139D01*
X61659605Y24360000D01*
X61300395Y24360000D01*
X60472255Y25188139D01*
X60424833Y25173855D01*
X60388351Y25367745D01*
X60651861Y25367745D01*
X61480000Y24539605D01*
X62308139Y25367745D01*
X62234005Y25613864D01*
X61696777Y25806965D01*
X61126546Y25779778D01*
X60725995Y25613864D01*
X60651861Y25367745D01*
X60388351Y25367745D01*
X60383162Y25395317D01*
X60244090Y25611441D01*
X60031890Y25756431D01*
X59780000Y25807440D01*
X58180000Y25807440D01*
X57944683Y25763162D01*
X57728559Y25624090D01*
X57583569Y25411890D01*
X57532560Y25160000D01*
X48053000Y25160000D01*
X48508210Y25615210D01*
X49073795Y25614716D01*
X49674943Y25863106D01*
X49853445Y26041297D01*
X72500902Y26041297D01*
X72605687Y25769255D01*
X73233526Y25534381D01*
X73903456Y25557651D01*
X74414313Y25769255D01*
X74519098Y26041297D01*
X73510000Y27050395D01*
X72500902Y26041297D01*
X49853445Y26041297D01*
X50135278Y26322637D01*
X50384716Y26923352D01*
X50385225Y27506474D01*
X71814381Y27506474D01*
X71837651Y26836544D01*
X72049255Y26325687D01*
X72321297Y26220902D01*
X73330395Y27230000D01*
X73689605Y27230000D01*
X74698703Y26220902D01*
X74970745Y26325687D01*
X75205619Y26953526D01*
X75182349Y27623456D01*
X74970745Y28134313D01*
X74698703Y28239098D01*
X73689605Y27230000D01*
X73330395Y27230000D01*
X72321297Y28239098D01*
X72049255Y28134313D01*
X71814381Y27506474D01*
X50385225Y27506474D01*
X50385284Y27573795D01*
X50136894Y28174943D01*
X49893560Y28418703D01*
X72500902Y28418703D01*
X73510000Y27409605D01*
X74519098Y28418703D01*
X74414313Y28690745D01*
X73786474Y28925619D01*
X73116544Y28902349D01*
X72605687Y28690745D01*
X72500902Y28418703D01*
X49893560Y28418703D01*
X49677363Y28635278D01*
X49076648Y28884716D01*
X48426205Y28885284D01*
X47825057Y28636894D01*
X47364722Y28177363D01*
X47115284Y27576648D01*
X47114787Y27007787D01*
X45303500Y25196500D01*
X45089979Y24876943D01*
X45015000Y24500000D01*
X45015000Y21826942D01*
X44614722Y21427363D01*
X44365284Y20826648D01*
X44364716Y20176205D01*
X9034563Y20176205D01*
X8919387Y20454264D01*
X8652532Y20552927D01*
X7679605Y19580000D01*
X7320395Y19580000D01*
X6347468Y20552927D01*
X6080613Y20454264D01*
X5854092Y19844539D01*
X710000Y19844539D01*
X710000Y20732532D01*
X6527073Y20732532D01*
X7500000Y19759605D01*
X8472927Y20732532D01*
X8374264Y20999387D01*
X7764539Y21225908D01*
X7114540Y21201856D01*
X6625736Y20999387D01*
X6527073Y20732532D01*
X710000Y20732532D01*
X710000Y25623000D01*
X30790000Y25623000D01*
X30790000Y23000000D01*
X30844046Y22728295D01*
X30873000Y22684962D01*
X30873000Y20750000D01*
X30883006Y20700590D01*
X30911447Y20658965D01*
X30953841Y20631685D01*
X31000000Y20623000D01*
X43500000Y20623000D01*
X43549410Y20633006D01*
X43591035Y20661447D01*
X43618315Y20703841D01*
X43626945Y20746266D01*
X43873332Y29123440D01*
X106790000Y29348143D01*
X106790000Y710000D01*
M02*
