G04 #@! TF.FileFunction,Other,Fab,Top*
%FSLAX46Y46*%
G04 Gerber Fmt 4.6, Leading zero omitted, Abs format (unit mm)*
G04 Created by KiCad (PCBNEW 4.0.4+dfsg1-stable) date Fri Mar  3 13:36:28 2017*
%MOMM*%
%LPD*%
G01*
G04 APERTURE LIST*
%ADD10C,0.100000*%
%ADD11C,0.150000*%
G04 APERTURE END LIST*
D10*
D11*
X21100000Y41200000D02*
X21100000Y42200000D01*
X20600000Y41700000D02*
X21600000Y41700000D01*
X21050000Y46400000D02*
X21050000Y47400000D01*
X20550000Y46900000D02*
X21550000Y46900000D01*
X42800000Y30200000D02*
X42800000Y31200000D01*
X42300000Y30700000D02*
X43300000Y30700000D01*
X38750000Y6500000D02*
X38750000Y7500000D01*
X38250000Y7000000D02*
X39250000Y7000000D01*
X40832762Y19746095D02*
X40880381Y19888952D01*
X40880381Y20127048D01*
X40832762Y20222286D01*
X40785143Y20269905D01*
X40689905Y20317524D01*
X40594667Y20317524D01*
X40499429Y20269905D01*
X40451810Y20222286D01*
X40404190Y20127048D01*
X40356571Y19936571D01*
X40308952Y19841333D01*
X40261333Y19793714D01*
X40166095Y19746095D01*
X40070857Y19746095D01*
X39975619Y19793714D01*
X39928000Y19841333D01*
X39880381Y19936571D01*
X39880381Y20174667D01*
X39928000Y20317524D01*
X39880381Y20650857D02*
X40880381Y20888952D01*
X40166095Y21079429D01*
X40880381Y21269905D01*
X39880381Y21508000D01*
X40975619Y21650857D02*
X40975619Y22412762D01*
X40880381Y22650857D02*
X39880381Y22650857D01*
X39880381Y23031810D01*
X39928000Y23127048D01*
X39975619Y23174667D01*
X40070857Y23222286D01*
X40213714Y23222286D01*
X40308952Y23174667D01*
X40356571Y23127048D01*
X40404190Y23031810D01*
X40404190Y22650857D01*
X39880381Y23650857D02*
X40689905Y23650857D01*
X40785143Y23698476D01*
X40832762Y23746095D01*
X40880381Y23841333D01*
X40880381Y24031810D01*
X40832762Y24127048D01*
X40785143Y24174667D01*
X40689905Y24222286D01*
X39880381Y24222286D01*
X40832762Y24650857D02*
X40880381Y24793714D01*
X40880381Y25031810D01*
X40832762Y25127048D01*
X40785143Y25174667D01*
X40689905Y25222286D01*
X40594667Y25222286D01*
X40499429Y25174667D01*
X40451810Y25127048D01*
X40404190Y25031810D01*
X40356571Y24841333D01*
X40308952Y24746095D01*
X40261333Y24698476D01*
X40166095Y24650857D01*
X40070857Y24650857D01*
X39975619Y24698476D01*
X39928000Y24746095D01*
X39880381Y24841333D01*
X39880381Y25079429D01*
X39928000Y25222286D01*
X40880381Y25650857D02*
X39880381Y25650857D01*
X40356571Y25650857D02*
X40356571Y26222286D01*
X40880381Y26222286D02*
X39880381Y26222286D01*
X12378571Y69671429D02*
X12521428Y69623810D01*
X12569047Y69576190D01*
X12616666Y69480952D01*
X12616666Y69338095D01*
X12569047Y69242857D01*
X12521428Y69195238D01*
X12426190Y69147619D01*
X12045237Y69147619D01*
X12045237Y70147619D01*
X12378571Y70147619D01*
X12473809Y70100000D01*
X12521428Y70052381D01*
X12569047Y69957143D01*
X12569047Y69861905D01*
X12521428Y69766667D01*
X12473809Y69719048D01*
X12378571Y69671429D01*
X12045237Y69671429D01*
X13473809Y69147619D02*
X13473809Y69671429D01*
X13426190Y69766667D01*
X13330952Y69814286D01*
X13140475Y69814286D01*
X13045237Y69766667D01*
X13473809Y69195238D02*
X13378571Y69147619D01*
X13140475Y69147619D01*
X13045237Y69195238D01*
X12997618Y69290476D01*
X12997618Y69385714D01*
X13045237Y69480952D01*
X13140475Y69528571D01*
X13378571Y69528571D01*
X13473809Y69576190D01*
X13807142Y69814286D02*
X14188094Y69814286D01*
X13949999Y70147619D02*
X13949999Y69290476D01*
X13997618Y69195238D01*
X14092856Y69147619D01*
X14188094Y69147619D01*
X14378571Y69814286D02*
X14759523Y69814286D01*
X14521428Y70147619D02*
X14521428Y69290476D01*
X14569047Y69195238D01*
X14664285Y69147619D01*
X14759523Y69147619D01*
X15473810Y69195238D02*
X15378572Y69147619D01*
X15188095Y69147619D01*
X15092857Y69195238D01*
X15045238Y69290476D01*
X15045238Y69671429D01*
X15092857Y69766667D01*
X15188095Y69814286D01*
X15378572Y69814286D01*
X15473810Y69766667D01*
X15521429Y69671429D01*
X15521429Y69576190D01*
X15045238Y69480952D01*
X15950000Y69147619D02*
X15950000Y69814286D01*
X15950000Y69623810D02*
X15997619Y69719048D01*
X16045238Y69766667D01*
X16140476Y69814286D01*
X16235715Y69814286D01*
X16473810Y69814286D02*
X16711905Y69147619D01*
X16950001Y69814286D02*
X16711905Y69147619D01*
X16616667Y68909524D01*
X16569048Y68861905D01*
X16473810Y68814286D01*
X14984381Y38140571D02*
X14984381Y37664380D01*
X13984381Y37664380D01*
X14936762Y38854857D02*
X14984381Y38759619D01*
X14984381Y38569142D01*
X14936762Y38473904D01*
X14841524Y38426285D01*
X14460571Y38426285D01*
X14365333Y38473904D01*
X14317714Y38569142D01*
X14317714Y38759619D01*
X14365333Y38854857D01*
X14460571Y38902476D01*
X14555810Y38902476D01*
X14651048Y38426285D01*
X14984381Y39759619D02*
X13984381Y39759619D01*
X14936762Y39759619D02*
X14984381Y39664381D01*
X14984381Y39473904D01*
X14936762Y39378666D01*
X14889143Y39331047D01*
X14793905Y39283428D01*
X14508190Y39283428D01*
X14412952Y39331047D01*
X14365333Y39378666D01*
X14317714Y39473904D01*
X14317714Y39664381D01*
X14365333Y39759619D01*
X15079619Y39997714D02*
X15079619Y40759619D01*
X14936762Y40950095D02*
X14984381Y41092952D01*
X14984381Y41331048D01*
X14936762Y41426286D01*
X14889143Y41473905D01*
X14793905Y41521524D01*
X14698667Y41521524D01*
X14603429Y41473905D01*
X14555810Y41426286D01*
X14508190Y41331048D01*
X14460571Y41140571D01*
X14412952Y41045333D01*
X14365333Y40997714D01*
X14270095Y40950095D01*
X14174857Y40950095D01*
X14079619Y40997714D01*
X14032000Y41045333D01*
X13984381Y41140571D01*
X13984381Y41378667D01*
X14032000Y41521524D01*
X14984381Y41950095D02*
X14317714Y41950095D01*
X14412952Y41950095D02*
X14365333Y41997714D01*
X14317714Y42092952D01*
X14317714Y42235810D01*
X14365333Y42331048D01*
X14460571Y42378667D01*
X14984381Y42378667D01*
X14460571Y42378667D02*
X14365333Y42426286D01*
X14317714Y42521524D01*
X14317714Y42664381D01*
X14365333Y42759619D01*
X14460571Y42807238D01*
X14984381Y42807238D01*
X14984381Y43712000D02*
X14460571Y43712000D01*
X14365333Y43664381D01*
X14317714Y43569143D01*
X14317714Y43378666D01*
X14365333Y43283428D01*
X14936762Y43712000D02*
X14984381Y43616762D01*
X14984381Y43378666D01*
X14936762Y43283428D01*
X14841524Y43235809D01*
X14746286Y43235809D01*
X14651048Y43283428D01*
X14603429Y43378666D01*
X14603429Y43616762D01*
X14555810Y43712000D01*
X14984381Y44331047D02*
X14936762Y44235809D01*
X14841524Y44188190D01*
X13984381Y44188190D01*
X14984381Y44854857D02*
X14936762Y44759619D01*
X14841524Y44712000D01*
X13984381Y44712000D01*
X14934381Y43340571D02*
X14934381Y42864380D01*
X13934381Y42864380D01*
X14886762Y44054857D02*
X14934381Y43959619D01*
X14934381Y43769142D01*
X14886762Y43673904D01*
X14791524Y43626285D01*
X14410571Y43626285D01*
X14315333Y43673904D01*
X14267714Y43769142D01*
X14267714Y43959619D01*
X14315333Y44054857D01*
X14410571Y44102476D01*
X14505810Y44102476D01*
X14601048Y43626285D01*
X14934381Y44959619D02*
X13934381Y44959619D01*
X14886762Y44959619D02*
X14934381Y44864381D01*
X14934381Y44673904D01*
X14886762Y44578666D01*
X14839143Y44531047D01*
X14743905Y44483428D01*
X14458190Y44483428D01*
X14362952Y44531047D01*
X14315333Y44578666D01*
X14267714Y44673904D01*
X14267714Y44864381D01*
X14315333Y44959619D01*
X15029619Y45197714D02*
X15029619Y45959619D01*
X14886762Y46150095D02*
X14934381Y46292952D01*
X14934381Y46531048D01*
X14886762Y46626286D01*
X14839143Y46673905D01*
X14743905Y46721524D01*
X14648667Y46721524D01*
X14553429Y46673905D01*
X14505810Y46626286D01*
X14458190Y46531048D01*
X14410571Y46340571D01*
X14362952Y46245333D01*
X14315333Y46197714D01*
X14220095Y46150095D01*
X14124857Y46150095D01*
X14029619Y46197714D01*
X13982000Y46245333D01*
X13934381Y46340571D01*
X13934381Y46578667D01*
X13982000Y46721524D01*
X14934381Y47150095D02*
X14267714Y47150095D01*
X14362952Y47150095D02*
X14315333Y47197714D01*
X14267714Y47292952D01*
X14267714Y47435810D01*
X14315333Y47531048D01*
X14410571Y47578667D01*
X14934381Y47578667D01*
X14410571Y47578667D02*
X14315333Y47626286D01*
X14267714Y47721524D01*
X14267714Y47864381D01*
X14315333Y47959619D01*
X14410571Y48007238D01*
X14934381Y48007238D01*
X14934381Y48912000D02*
X14410571Y48912000D01*
X14315333Y48864381D01*
X14267714Y48769143D01*
X14267714Y48578666D01*
X14315333Y48483428D01*
X14886762Y48912000D02*
X14934381Y48816762D01*
X14934381Y48578666D01*
X14886762Y48483428D01*
X14791524Y48435809D01*
X14696286Y48435809D01*
X14601048Y48483428D01*
X14553429Y48578666D01*
X14553429Y48816762D01*
X14505810Y48912000D01*
X14934381Y49531047D02*
X14886762Y49435809D01*
X14791524Y49388190D01*
X13934381Y49388190D01*
X14934381Y50054857D02*
X14886762Y49959619D01*
X14791524Y49912000D01*
X13934381Y49912000D01*
X36684381Y27140571D02*
X36684381Y26664380D01*
X35684381Y26664380D01*
X36636762Y27854857D02*
X36684381Y27759619D01*
X36684381Y27569142D01*
X36636762Y27473904D01*
X36541524Y27426285D01*
X36160571Y27426285D01*
X36065333Y27473904D01*
X36017714Y27569142D01*
X36017714Y27759619D01*
X36065333Y27854857D01*
X36160571Y27902476D01*
X36255810Y27902476D01*
X36351048Y27426285D01*
X36684381Y28759619D02*
X35684381Y28759619D01*
X36636762Y28759619D02*
X36684381Y28664381D01*
X36684381Y28473904D01*
X36636762Y28378666D01*
X36589143Y28331047D01*
X36493905Y28283428D01*
X36208190Y28283428D01*
X36112952Y28331047D01*
X36065333Y28378666D01*
X36017714Y28473904D01*
X36017714Y28664381D01*
X36065333Y28759619D01*
X36779619Y28997714D02*
X36779619Y29759619D01*
X36636762Y29950095D02*
X36684381Y30092952D01*
X36684381Y30331048D01*
X36636762Y30426286D01*
X36589143Y30473905D01*
X36493905Y30521524D01*
X36398667Y30521524D01*
X36303429Y30473905D01*
X36255810Y30426286D01*
X36208190Y30331048D01*
X36160571Y30140571D01*
X36112952Y30045333D01*
X36065333Y29997714D01*
X35970095Y29950095D01*
X35874857Y29950095D01*
X35779619Y29997714D01*
X35732000Y30045333D01*
X35684381Y30140571D01*
X35684381Y30378667D01*
X35732000Y30521524D01*
X36684381Y30950095D02*
X36017714Y30950095D01*
X36112952Y30950095D02*
X36065333Y30997714D01*
X36017714Y31092952D01*
X36017714Y31235810D01*
X36065333Y31331048D01*
X36160571Y31378667D01*
X36684381Y31378667D01*
X36160571Y31378667D02*
X36065333Y31426286D01*
X36017714Y31521524D01*
X36017714Y31664381D01*
X36065333Y31759619D01*
X36160571Y31807238D01*
X36684381Y31807238D01*
X36684381Y32712000D02*
X36160571Y32712000D01*
X36065333Y32664381D01*
X36017714Y32569143D01*
X36017714Y32378666D01*
X36065333Y32283428D01*
X36636762Y32712000D02*
X36684381Y32616762D01*
X36684381Y32378666D01*
X36636762Y32283428D01*
X36541524Y32235809D01*
X36446286Y32235809D01*
X36351048Y32283428D01*
X36303429Y32378666D01*
X36303429Y32616762D01*
X36255810Y32712000D01*
X36684381Y33331047D02*
X36636762Y33235809D01*
X36541524Y33188190D01*
X35684381Y33188190D01*
X36684381Y33854857D02*
X36636762Y33759619D01*
X36541524Y33712000D01*
X35684381Y33712000D01*
X81079381Y36434762D02*
X81079381Y35958571D01*
X80079381Y35958571D01*
X80984143Y37339524D02*
X81031762Y37291905D01*
X81079381Y37149048D01*
X81079381Y37053810D01*
X81031762Y36910952D01*
X80936524Y36815714D01*
X80841286Y36768095D01*
X80650810Y36720476D01*
X80507952Y36720476D01*
X80317476Y36768095D01*
X80222238Y36815714D01*
X80127000Y36910952D01*
X80079381Y37053810D01*
X80079381Y37149048D01*
X80127000Y37291905D01*
X80174619Y37339524D01*
X81079381Y37768095D02*
X80079381Y37768095D01*
X80079381Y38006190D01*
X80127000Y38149048D01*
X80222238Y38244286D01*
X80317476Y38291905D01*
X80507952Y38339524D01*
X80650810Y38339524D01*
X80841286Y38291905D01*
X80936524Y38244286D01*
X81031762Y38149048D01*
X81079381Y38006190D01*
X81079381Y37768095D01*
X80507952Y38910952D02*
X80460333Y38815714D01*
X80412714Y38768095D01*
X80317476Y38720476D01*
X80269857Y38720476D01*
X80174619Y38768095D01*
X80127000Y38815714D01*
X80079381Y38910952D01*
X80079381Y39101429D01*
X80127000Y39196667D01*
X80174619Y39244286D01*
X80269857Y39291905D01*
X80317476Y39291905D01*
X80412714Y39244286D01*
X80460333Y39196667D01*
X80507952Y39101429D01*
X80507952Y38910952D01*
X80555571Y38815714D01*
X80603190Y38768095D01*
X80698429Y38720476D01*
X80888905Y38720476D01*
X80984143Y38768095D01*
X81031762Y38815714D01*
X81079381Y38910952D01*
X81079381Y39101429D01*
X81031762Y39196667D01*
X80984143Y39244286D01*
X80888905Y39291905D01*
X80698429Y39291905D01*
X80603190Y39244286D01*
X80555571Y39196667D01*
X80507952Y39101429D01*
X80079381Y39625238D02*
X81079381Y40291905D01*
X80079381Y40291905D02*
X81079381Y39625238D01*
X80174619Y40625238D02*
X80127000Y40672857D01*
X80079381Y40768095D01*
X80079381Y41006191D01*
X80127000Y41101429D01*
X80174619Y41149048D01*
X80269857Y41196667D01*
X80365095Y41196667D01*
X80507952Y41149048D01*
X81079381Y40577619D01*
X81079381Y41196667D01*
X81174619Y41387143D02*
X81174619Y42149048D01*
X81079381Y42910953D02*
X81079381Y42339524D01*
X81079381Y42625238D02*
X80079381Y42625238D01*
X80222238Y42530000D01*
X80317476Y42434762D01*
X80365095Y42339524D01*
X80412714Y43768096D02*
X81079381Y43768096D01*
X80031762Y43530000D02*
X80746048Y43291905D01*
X80746048Y43910953D01*
X80412714Y44291905D02*
X81412714Y44291905D01*
X80460333Y44291905D02*
X80412714Y44387143D01*
X80412714Y44577620D01*
X80460333Y44672858D01*
X80507952Y44720477D01*
X80603190Y44768096D01*
X80888905Y44768096D01*
X80984143Y44720477D01*
X81031762Y44672858D01*
X81079381Y44577620D01*
X81079381Y44387143D01*
X81031762Y44291905D01*
X81079381Y45196667D02*
X80412714Y45196667D01*
X80079381Y45196667D02*
X80127000Y45149048D01*
X80174619Y45196667D01*
X80127000Y45244286D01*
X80079381Y45196667D01*
X80174619Y45196667D01*
X80412714Y45672857D02*
X81079381Y45672857D01*
X80507952Y45672857D02*
X80460333Y45720476D01*
X80412714Y45815714D01*
X80412714Y45958572D01*
X80460333Y46053810D01*
X80555571Y46101429D01*
X81079381Y46101429D01*
X92285714Y7847619D02*
X92285714Y8847619D01*
X92285714Y8466667D02*
X92380952Y8514286D01*
X92571429Y8514286D01*
X92666667Y8466667D01*
X92714286Y8419048D01*
X92761905Y8323810D01*
X92761905Y8038095D01*
X92714286Y7942857D01*
X92666667Y7895238D01*
X92571429Y7847619D01*
X92380952Y7847619D01*
X92285714Y7895238D01*
X93619048Y8514286D02*
X93619048Y7847619D01*
X93190476Y8514286D02*
X93190476Y7990476D01*
X93238095Y7895238D01*
X93333333Y7847619D01*
X93476191Y7847619D01*
X93571429Y7895238D01*
X93619048Y7942857D01*
X94000000Y8514286D02*
X94523810Y8514286D01*
X94000000Y7847619D01*
X94523810Y7847619D01*
X94809524Y8514286D02*
X95333334Y8514286D01*
X94809524Y7847619D01*
X95333334Y7847619D01*
X96095239Y7895238D02*
X96000001Y7847619D01*
X95809524Y7847619D01*
X95714286Y7895238D01*
X95666667Y7990476D01*
X95666667Y8371429D01*
X95714286Y8466667D01*
X95809524Y8514286D01*
X96000001Y8514286D01*
X96095239Y8466667D01*
X96142858Y8371429D01*
X96142858Y8276190D01*
X95666667Y8180952D01*
X96571429Y7847619D02*
X96571429Y8514286D01*
X96571429Y8323810D02*
X96619048Y8419048D01*
X96666667Y8466667D01*
X96761905Y8514286D01*
X96857144Y8514286D01*
X59051191Y1497857D02*
X59003572Y1450238D01*
X58860715Y1402619D01*
X58765477Y1402619D01*
X58622619Y1450238D01*
X58527381Y1545476D01*
X58479762Y1640714D01*
X58432143Y1831190D01*
X58432143Y1974048D01*
X58479762Y2164524D01*
X58527381Y2259762D01*
X58622619Y2355000D01*
X58765477Y2402619D01*
X58860715Y2402619D01*
X59003572Y2355000D01*
X59051191Y2307381D01*
X59670238Y2402619D02*
X59860715Y2402619D01*
X59955953Y2355000D01*
X60051191Y2259762D01*
X60098810Y2069286D01*
X60098810Y1735952D01*
X60051191Y1545476D01*
X59955953Y1450238D01*
X59860715Y1402619D01*
X59670238Y1402619D01*
X59575000Y1450238D01*
X59479762Y1545476D01*
X59432143Y1735952D01*
X59432143Y2069286D01*
X59479762Y2259762D01*
X59575000Y2355000D01*
X59670238Y2402619D01*
X60527381Y1402619D02*
X60527381Y2402619D01*
X61098810Y1402619D01*
X61098810Y2402619D01*
X61575000Y1402619D02*
X61575000Y2402619D01*
X62146429Y1402619D01*
X62146429Y2402619D01*
X62384524Y1307381D02*
X63146429Y1307381D01*
X63575000Y2402619D02*
X63670239Y2402619D01*
X63765477Y2355000D01*
X63813096Y2307381D01*
X63860715Y2212143D01*
X63908334Y2021667D01*
X63908334Y1783571D01*
X63860715Y1593095D01*
X63813096Y1497857D01*
X63765477Y1450238D01*
X63670239Y1402619D01*
X63575000Y1402619D01*
X63479762Y1450238D01*
X63432143Y1497857D01*
X63384524Y1593095D01*
X63336905Y1783571D01*
X63336905Y2021667D01*
X63384524Y2212143D01*
X63432143Y2307381D01*
X63479762Y2355000D01*
X63575000Y2402619D01*
X64289286Y2307381D02*
X64336905Y2355000D01*
X64432143Y2402619D01*
X64670239Y2402619D01*
X64765477Y2355000D01*
X64813096Y2307381D01*
X64860715Y2212143D01*
X64860715Y2116905D01*
X64813096Y1974048D01*
X64241667Y1402619D01*
X64860715Y1402619D01*
X65194048Y2402619D02*
X65860715Y1402619D01*
X65860715Y2402619D02*
X65194048Y1402619D01*
X66432143Y2402619D02*
X66527382Y2402619D01*
X66622620Y2355000D01*
X66670239Y2307381D01*
X66717858Y2212143D01*
X66765477Y2021667D01*
X66765477Y1783571D01*
X66717858Y1593095D01*
X66670239Y1497857D01*
X66622620Y1450238D01*
X66527382Y1402619D01*
X66432143Y1402619D01*
X66336905Y1450238D01*
X66289286Y1497857D01*
X66241667Y1593095D01*
X66194048Y1783571D01*
X66194048Y2021667D01*
X66241667Y2212143D01*
X66289286Y2307381D01*
X66336905Y2355000D01*
X66432143Y2402619D01*
X67098810Y2402619D02*
X67717858Y2402619D01*
X67384524Y2021667D01*
X67527382Y2021667D01*
X67622620Y1974048D01*
X67670239Y1926429D01*
X67717858Y1831190D01*
X67717858Y1593095D01*
X67670239Y1497857D01*
X67622620Y1450238D01*
X67527382Y1402619D01*
X67241667Y1402619D01*
X67146429Y1450238D01*
X67098810Y1497857D01*
X2707143Y20026191D02*
X2754762Y19978572D01*
X2802381Y19835715D01*
X2802381Y19740477D01*
X2754762Y19597619D01*
X2659524Y19502381D01*
X2564286Y19454762D01*
X2373810Y19407143D01*
X2230952Y19407143D01*
X2040476Y19454762D01*
X1945238Y19502381D01*
X1850000Y19597619D01*
X1802381Y19740477D01*
X1802381Y19835715D01*
X1850000Y19978572D01*
X1897619Y20026191D01*
X1802381Y20645238D02*
X1802381Y20835715D01*
X1850000Y20930953D01*
X1945238Y21026191D01*
X2135714Y21073810D01*
X2469048Y21073810D01*
X2659524Y21026191D01*
X2754762Y20930953D01*
X2802381Y20835715D01*
X2802381Y20645238D01*
X2754762Y20550000D01*
X2659524Y20454762D01*
X2469048Y20407143D01*
X2135714Y20407143D01*
X1945238Y20454762D01*
X1850000Y20550000D01*
X1802381Y20645238D01*
X2802381Y21502381D02*
X1802381Y21502381D01*
X2802381Y22073810D01*
X1802381Y22073810D01*
X2802381Y22550000D02*
X1802381Y22550000D01*
X2802381Y23121429D01*
X1802381Y23121429D01*
X2897619Y23359524D02*
X2897619Y24121429D01*
X1802381Y24550000D02*
X1802381Y24645239D01*
X1850000Y24740477D01*
X1897619Y24788096D01*
X1992857Y24835715D01*
X2183333Y24883334D01*
X2421429Y24883334D01*
X2611905Y24835715D01*
X2707143Y24788096D01*
X2754762Y24740477D01*
X2802381Y24645239D01*
X2802381Y24550000D01*
X2754762Y24454762D01*
X2707143Y24407143D01*
X2611905Y24359524D01*
X2421429Y24311905D01*
X2183333Y24311905D01*
X1992857Y24359524D01*
X1897619Y24407143D01*
X1850000Y24454762D01*
X1802381Y24550000D01*
X2802381Y25835715D02*
X2802381Y25264286D01*
X2802381Y25550000D02*
X1802381Y25550000D01*
X1945238Y25454762D01*
X2040476Y25359524D01*
X2088095Y25264286D01*
X1802381Y26169048D02*
X2802381Y26835715D01*
X1802381Y26835715D02*
X2802381Y26169048D01*
X1802381Y27407143D02*
X1802381Y27502382D01*
X1850000Y27597620D01*
X1897619Y27645239D01*
X1992857Y27692858D01*
X2183333Y27740477D01*
X2421429Y27740477D01*
X2611905Y27692858D01*
X2707143Y27645239D01*
X2754762Y27597620D01*
X2802381Y27502382D01*
X2802381Y27407143D01*
X2754762Y27311905D01*
X2707143Y27264286D01*
X2611905Y27216667D01*
X2421429Y27169048D01*
X2183333Y27169048D01*
X1992857Y27216667D01*
X1897619Y27264286D01*
X1850000Y27311905D01*
X1802381Y27407143D01*
X1897619Y28121429D02*
X1850000Y28169048D01*
X1802381Y28264286D01*
X1802381Y28502382D01*
X1850000Y28597620D01*
X1897619Y28645239D01*
X1992857Y28692858D01*
X2088095Y28692858D01*
X2230952Y28645239D01*
X2802381Y28073810D01*
X2802381Y28692858D01*
X8757143Y15026191D02*
X8804762Y14978572D01*
X8852381Y14835715D01*
X8852381Y14740477D01*
X8804762Y14597619D01*
X8709524Y14502381D01*
X8614286Y14454762D01*
X8423810Y14407143D01*
X8280952Y14407143D01*
X8090476Y14454762D01*
X7995238Y14502381D01*
X7900000Y14597619D01*
X7852381Y14740477D01*
X7852381Y14835715D01*
X7900000Y14978572D01*
X7947619Y15026191D01*
X7852381Y15645238D02*
X7852381Y15835715D01*
X7900000Y15930953D01*
X7995238Y16026191D01*
X8185714Y16073810D01*
X8519048Y16073810D01*
X8709524Y16026191D01*
X8804762Y15930953D01*
X8852381Y15835715D01*
X8852381Y15645238D01*
X8804762Y15550000D01*
X8709524Y15454762D01*
X8519048Y15407143D01*
X8185714Y15407143D01*
X7995238Y15454762D01*
X7900000Y15550000D01*
X7852381Y15645238D01*
X8852381Y16502381D02*
X7852381Y16502381D01*
X8852381Y17073810D01*
X7852381Y17073810D01*
X8852381Y17550000D02*
X7852381Y17550000D01*
X8852381Y18121429D01*
X7852381Y18121429D01*
X8947619Y18359524D02*
X8947619Y19121429D01*
X7852381Y19550000D02*
X7852381Y19645239D01*
X7900000Y19740477D01*
X7947619Y19788096D01*
X8042857Y19835715D01*
X8233333Y19883334D01*
X8471429Y19883334D01*
X8661905Y19835715D01*
X8757143Y19788096D01*
X8804762Y19740477D01*
X8852381Y19645239D01*
X8852381Y19550000D01*
X8804762Y19454762D01*
X8757143Y19407143D01*
X8661905Y19359524D01*
X8471429Y19311905D01*
X8233333Y19311905D01*
X8042857Y19359524D01*
X7947619Y19407143D01*
X7900000Y19454762D01*
X7852381Y19550000D01*
X8852381Y20835715D02*
X8852381Y20264286D01*
X8852381Y20550000D02*
X7852381Y20550000D01*
X7995238Y20454762D01*
X8090476Y20359524D01*
X8138095Y20264286D01*
X7852381Y21169048D02*
X8852381Y21835715D01*
X7852381Y21835715D02*
X8852381Y21169048D01*
X7852381Y22407143D02*
X7852381Y22502382D01*
X7900000Y22597620D01*
X7947619Y22645239D01*
X8042857Y22692858D01*
X8233333Y22740477D01*
X8471429Y22740477D01*
X8661905Y22692858D01*
X8757143Y22645239D01*
X8804762Y22597620D01*
X8852381Y22502382D01*
X8852381Y22407143D01*
X8804762Y22311905D01*
X8757143Y22264286D01*
X8661905Y22216667D01*
X8471429Y22169048D01*
X8233333Y22169048D01*
X8042857Y22216667D01*
X7947619Y22264286D01*
X7900000Y22311905D01*
X7852381Y22407143D01*
X7947619Y23121429D02*
X7900000Y23169048D01*
X7852381Y23264286D01*
X7852381Y23502382D01*
X7900000Y23597620D01*
X7947619Y23645239D01*
X8042857Y23692858D01*
X8138095Y23692858D01*
X8280952Y23645239D01*
X8852381Y23073810D01*
X8852381Y23692858D01*
X65047619Y44047619D02*
X64714285Y44523810D01*
X64476190Y44047619D02*
X64476190Y45047619D01*
X64857143Y45047619D01*
X64952381Y45000000D01*
X65000000Y44952381D01*
X65047619Y44857143D01*
X65047619Y44714286D01*
X65000000Y44619048D01*
X64952381Y44571429D01*
X64857143Y44523810D01*
X64476190Y44523810D01*
X65666666Y45047619D02*
X65857143Y45047619D01*
X65952381Y45000000D01*
X66047619Y44904762D01*
X66095238Y44714286D01*
X66095238Y44380952D01*
X66047619Y44190476D01*
X65952381Y44095238D01*
X65857143Y44047619D01*
X65666666Y44047619D01*
X65571428Y44095238D01*
X65476190Y44190476D01*
X65428571Y44380952D01*
X65428571Y44714286D01*
X65476190Y44904762D01*
X65571428Y45000000D01*
X65666666Y45047619D01*
X66380952Y45047619D02*
X66952381Y45047619D01*
X66666666Y44047619D02*
X66666666Y45047619D01*
X67047619Y43952381D02*
X67809524Y43952381D01*
X68047619Y44571429D02*
X68380953Y44571429D01*
X68523810Y44047619D02*
X68047619Y44047619D01*
X68047619Y45047619D01*
X68523810Y45047619D01*
X68952381Y44047619D02*
X68952381Y45047619D01*
X69523810Y44047619D01*
X69523810Y45047619D01*
X70571429Y44142857D02*
X70523810Y44095238D01*
X70380953Y44047619D01*
X70285715Y44047619D01*
X70142857Y44095238D01*
X70047619Y44190476D01*
X70000000Y44285714D01*
X69952381Y44476190D01*
X69952381Y44619048D01*
X70000000Y44809524D01*
X70047619Y44904762D01*
X70142857Y45000000D01*
X70285715Y45047619D01*
X70380953Y45047619D01*
X70523810Y45000000D01*
X70571429Y44952381D01*
X44628571Y15009524D02*
X44628571Y15342858D01*
X45152381Y15485715D02*
X45152381Y15009524D01*
X44152381Y15009524D01*
X44152381Y15485715D01*
X45104762Y15866667D02*
X45152381Y16009524D01*
X45152381Y16247620D01*
X45104762Y16342858D01*
X45057143Y16390477D01*
X44961905Y16438096D01*
X44866667Y16438096D01*
X44771429Y16390477D01*
X44723810Y16342858D01*
X44676190Y16247620D01*
X44628571Y16057143D01*
X44580952Y15961905D01*
X44533333Y15914286D01*
X44438095Y15866667D01*
X44342857Y15866667D01*
X44247619Y15914286D01*
X44200000Y15961905D01*
X44152381Y16057143D01*
X44152381Y16295239D01*
X44200000Y16438096D01*
X45152381Y16866667D02*
X44152381Y16866667D01*
X44152381Y17247620D01*
X44200000Y17342858D01*
X44247619Y17390477D01*
X44342857Y17438096D01*
X44485714Y17438096D01*
X44580952Y17390477D01*
X44628571Y17342858D01*
X44676190Y17247620D01*
X44676190Y16866667D01*
X51186524Y14765619D02*
X51186524Y15765619D01*
X51567477Y15765619D01*
X51662715Y15718000D01*
X51710334Y15670381D01*
X51757953Y15575143D01*
X51757953Y15432286D01*
X51710334Y15337048D01*
X51662715Y15289429D01*
X51567477Y15241810D01*
X51186524Y15241810D01*
X52138905Y15051333D02*
X52615096Y15051333D01*
X52043667Y14765619D02*
X52377000Y15765619D01*
X52710334Y14765619D01*
X53043667Y14765619D02*
X53043667Y15765619D01*
X53281762Y15765619D01*
X53424620Y15718000D01*
X53519858Y15622762D01*
X53567477Y15527524D01*
X53615096Y15337048D01*
X53615096Y15194190D01*
X53567477Y15003714D01*
X53519858Y14908476D01*
X53424620Y14813238D01*
X53281762Y14765619D01*
X53043667Y14765619D01*
X25486524Y20515619D02*
X25486524Y21515619D01*
X25867477Y21515619D01*
X25962715Y21468000D01*
X26010334Y21420381D01*
X26057953Y21325143D01*
X26057953Y21182286D01*
X26010334Y21087048D01*
X25962715Y21039429D01*
X25867477Y20991810D01*
X25486524Y20991810D01*
X26438905Y20801333D02*
X26915096Y20801333D01*
X26343667Y20515619D02*
X26677000Y21515619D01*
X27010334Y20515619D01*
X27343667Y20515619D02*
X27343667Y21515619D01*
X27581762Y21515619D01*
X27724620Y21468000D01*
X27819858Y21372762D01*
X27867477Y21277524D01*
X27915096Y21087048D01*
X27915096Y20944190D01*
X27867477Y20753714D01*
X27819858Y20658476D01*
X27724620Y20563238D01*
X27581762Y20515619D01*
X27343667Y20515619D01*
X32634381Y3440571D02*
X32634381Y2964380D01*
X31634381Y2964380D01*
X32586762Y4154857D02*
X32634381Y4059619D01*
X32634381Y3869142D01*
X32586762Y3773904D01*
X32491524Y3726285D01*
X32110571Y3726285D01*
X32015333Y3773904D01*
X31967714Y3869142D01*
X31967714Y4059619D01*
X32015333Y4154857D01*
X32110571Y4202476D01*
X32205810Y4202476D01*
X32301048Y3726285D01*
X32634381Y5059619D02*
X31634381Y5059619D01*
X32586762Y5059619D02*
X32634381Y4964381D01*
X32634381Y4773904D01*
X32586762Y4678666D01*
X32539143Y4631047D01*
X32443905Y4583428D01*
X32158190Y4583428D01*
X32062952Y4631047D01*
X32015333Y4678666D01*
X31967714Y4773904D01*
X31967714Y4964381D01*
X32015333Y5059619D01*
X32729619Y5297714D02*
X32729619Y6059619D01*
X32586762Y6250095D02*
X32634381Y6392952D01*
X32634381Y6631048D01*
X32586762Y6726286D01*
X32539143Y6773905D01*
X32443905Y6821524D01*
X32348667Y6821524D01*
X32253429Y6773905D01*
X32205810Y6726286D01*
X32158190Y6631048D01*
X32110571Y6440571D01*
X32062952Y6345333D01*
X32015333Y6297714D01*
X31920095Y6250095D01*
X31824857Y6250095D01*
X31729619Y6297714D01*
X31682000Y6345333D01*
X31634381Y6440571D01*
X31634381Y6678667D01*
X31682000Y6821524D01*
X32634381Y7250095D02*
X31967714Y7250095D01*
X32062952Y7250095D02*
X32015333Y7297714D01*
X31967714Y7392952D01*
X31967714Y7535810D01*
X32015333Y7631048D01*
X32110571Y7678667D01*
X32634381Y7678667D01*
X32110571Y7678667D02*
X32015333Y7726286D01*
X31967714Y7821524D01*
X31967714Y7964381D01*
X32015333Y8059619D01*
X32110571Y8107238D01*
X32634381Y8107238D01*
X32634381Y9012000D02*
X32110571Y9012000D01*
X32015333Y8964381D01*
X31967714Y8869143D01*
X31967714Y8678666D01*
X32015333Y8583428D01*
X32586762Y9012000D02*
X32634381Y8916762D01*
X32634381Y8678666D01*
X32586762Y8583428D01*
X32491524Y8535809D01*
X32396286Y8535809D01*
X32301048Y8583428D01*
X32253429Y8678666D01*
X32253429Y8916762D01*
X32205810Y9012000D01*
X32634381Y9631047D02*
X32586762Y9535809D01*
X32491524Y9488190D01*
X31634381Y9488190D01*
X32634381Y10154857D02*
X32586762Y10059619D01*
X32491524Y10012000D01*
X31634381Y10012000D01*
X7957143Y31626191D02*
X8004762Y31578572D01*
X8052381Y31435715D01*
X8052381Y31340477D01*
X8004762Y31197619D01*
X7909524Y31102381D01*
X7814286Y31054762D01*
X7623810Y31007143D01*
X7480952Y31007143D01*
X7290476Y31054762D01*
X7195238Y31102381D01*
X7100000Y31197619D01*
X7052381Y31340477D01*
X7052381Y31435715D01*
X7100000Y31578572D01*
X7147619Y31626191D01*
X7052381Y32245238D02*
X7052381Y32435715D01*
X7100000Y32530953D01*
X7195238Y32626191D01*
X7385714Y32673810D01*
X7719048Y32673810D01*
X7909524Y32626191D01*
X8004762Y32530953D01*
X8052381Y32435715D01*
X8052381Y32245238D01*
X8004762Y32150000D01*
X7909524Y32054762D01*
X7719048Y32007143D01*
X7385714Y32007143D01*
X7195238Y32054762D01*
X7100000Y32150000D01*
X7052381Y32245238D01*
X8052381Y33102381D02*
X7052381Y33102381D01*
X8052381Y33673810D01*
X7052381Y33673810D01*
X8052381Y34150000D02*
X7052381Y34150000D01*
X8052381Y34721429D01*
X7052381Y34721429D01*
X8147619Y34959524D02*
X8147619Y35721429D01*
X7052381Y36150000D02*
X7052381Y36245239D01*
X7100000Y36340477D01*
X7147619Y36388096D01*
X7242857Y36435715D01*
X7433333Y36483334D01*
X7671429Y36483334D01*
X7861905Y36435715D01*
X7957143Y36388096D01*
X8004762Y36340477D01*
X8052381Y36245239D01*
X8052381Y36150000D01*
X8004762Y36054762D01*
X7957143Y36007143D01*
X7861905Y35959524D01*
X7671429Y35911905D01*
X7433333Y35911905D01*
X7242857Y35959524D01*
X7147619Y36007143D01*
X7100000Y36054762D01*
X7052381Y36150000D01*
X8052381Y37435715D02*
X8052381Y36864286D01*
X8052381Y37150000D02*
X7052381Y37150000D01*
X7195238Y37054762D01*
X7290476Y36959524D01*
X7338095Y36864286D01*
X7052381Y37769048D02*
X8052381Y38435715D01*
X7052381Y38435715D02*
X8052381Y37769048D01*
X7052381Y39007143D02*
X7052381Y39102382D01*
X7100000Y39197620D01*
X7147619Y39245239D01*
X7242857Y39292858D01*
X7433333Y39340477D01*
X7671429Y39340477D01*
X7861905Y39292858D01*
X7957143Y39245239D01*
X8004762Y39197620D01*
X8052381Y39102382D01*
X8052381Y39007143D01*
X8004762Y38911905D01*
X7957143Y38864286D01*
X7861905Y38816667D01*
X7671429Y38769048D01*
X7433333Y38769048D01*
X7242857Y38816667D01*
X7147619Y38864286D01*
X7100000Y38911905D01*
X7052381Y39007143D01*
X7052381Y39673810D02*
X7052381Y40292858D01*
X7433333Y39959524D01*
X7433333Y40102382D01*
X7480952Y40197620D01*
X7528571Y40245239D01*
X7623810Y40292858D01*
X7861905Y40292858D01*
X7957143Y40245239D01*
X8004762Y40197620D01*
X8052381Y40102382D01*
X8052381Y39816667D01*
X8004762Y39721429D01*
X7957143Y39673810D01*
X83730095Y64023238D02*
X83872952Y63975619D01*
X84111048Y63975619D01*
X84206286Y64023238D01*
X84253905Y64070857D01*
X84301524Y64166095D01*
X84301524Y64261333D01*
X84253905Y64356571D01*
X84206286Y64404190D01*
X84111048Y64451810D01*
X83920571Y64499429D01*
X83825333Y64547048D01*
X83777714Y64594667D01*
X83730095Y64689905D01*
X83730095Y64785143D01*
X83777714Y64880381D01*
X83825333Y64928000D01*
X83920571Y64975619D01*
X84158667Y64975619D01*
X84301524Y64928000D01*
X84634857Y64975619D02*
X84872952Y63975619D01*
X85063429Y64689905D01*
X85253905Y63975619D01*
X85492000Y64975619D01*
X85634857Y63880381D02*
X86396762Y63880381D01*
X86634857Y63975619D02*
X86634857Y64975619D01*
X87015810Y64975619D01*
X87111048Y64928000D01*
X87158667Y64880381D01*
X87206286Y64785143D01*
X87206286Y64642286D01*
X87158667Y64547048D01*
X87111048Y64499429D01*
X87015810Y64451810D01*
X86634857Y64451810D01*
X87634857Y64975619D02*
X87634857Y64166095D01*
X87682476Y64070857D01*
X87730095Y64023238D01*
X87825333Y63975619D01*
X88015810Y63975619D01*
X88111048Y64023238D01*
X88158667Y64070857D01*
X88206286Y64166095D01*
X88206286Y64975619D01*
X88634857Y64023238D02*
X88777714Y63975619D01*
X89015810Y63975619D01*
X89111048Y64023238D01*
X89158667Y64070857D01*
X89206286Y64166095D01*
X89206286Y64261333D01*
X89158667Y64356571D01*
X89111048Y64404190D01*
X89015810Y64451810D01*
X88825333Y64499429D01*
X88730095Y64547048D01*
X88682476Y64594667D01*
X88634857Y64689905D01*
X88634857Y64785143D01*
X88682476Y64880381D01*
X88730095Y64928000D01*
X88825333Y64975619D01*
X89063429Y64975619D01*
X89206286Y64928000D01*
X89634857Y63975619D02*
X89634857Y64975619D01*
X89634857Y64499429D02*
X90206286Y64499429D01*
X90206286Y63975619D02*
X90206286Y64975619D01*
X66230095Y64023238D02*
X66372952Y63975619D01*
X66611048Y63975619D01*
X66706286Y64023238D01*
X66753905Y64070857D01*
X66801524Y64166095D01*
X66801524Y64261333D01*
X66753905Y64356571D01*
X66706286Y64404190D01*
X66611048Y64451810D01*
X66420571Y64499429D01*
X66325333Y64547048D01*
X66277714Y64594667D01*
X66230095Y64689905D01*
X66230095Y64785143D01*
X66277714Y64880381D01*
X66325333Y64928000D01*
X66420571Y64975619D01*
X66658667Y64975619D01*
X66801524Y64928000D01*
X67134857Y64975619D02*
X67372952Y63975619D01*
X67563429Y64689905D01*
X67753905Y63975619D01*
X67992000Y64975619D01*
X68134857Y63880381D02*
X68896762Y63880381D01*
X69134857Y63975619D02*
X69134857Y64975619D01*
X69515810Y64975619D01*
X69611048Y64928000D01*
X69658667Y64880381D01*
X69706286Y64785143D01*
X69706286Y64642286D01*
X69658667Y64547048D01*
X69611048Y64499429D01*
X69515810Y64451810D01*
X69134857Y64451810D01*
X70134857Y64975619D02*
X70134857Y64166095D01*
X70182476Y64070857D01*
X70230095Y64023238D01*
X70325333Y63975619D01*
X70515810Y63975619D01*
X70611048Y64023238D01*
X70658667Y64070857D01*
X70706286Y64166095D01*
X70706286Y64975619D01*
X71134857Y64023238D02*
X71277714Y63975619D01*
X71515810Y63975619D01*
X71611048Y64023238D01*
X71658667Y64070857D01*
X71706286Y64166095D01*
X71706286Y64261333D01*
X71658667Y64356571D01*
X71611048Y64404190D01*
X71515810Y64451810D01*
X71325333Y64499429D01*
X71230095Y64547048D01*
X71182476Y64594667D01*
X71134857Y64689905D01*
X71134857Y64785143D01*
X71182476Y64880381D01*
X71230095Y64928000D01*
X71325333Y64975619D01*
X71563429Y64975619D01*
X71706286Y64928000D01*
X72134857Y63975619D02*
X72134857Y64975619D01*
X72134857Y64499429D02*
X72706286Y64499429D01*
X72706286Y63975619D02*
X72706286Y64975619D01*
X48230095Y64023238D02*
X48372952Y63975619D01*
X48611048Y63975619D01*
X48706286Y64023238D01*
X48753905Y64070857D01*
X48801524Y64166095D01*
X48801524Y64261333D01*
X48753905Y64356571D01*
X48706286Y64404190D01*
X48611048Y64451810D01*
X48420571Y64499429D01*
X48325333Y64547048D01*
X48277714Y64594667D01*
X48230095Y64689905D01*
X48230095Y64785143D01*
X48277714Y64880381D01*
X48325333Y64928000D01*
X48420571Y64975619D01*
X48658667Y64975619D01*
X48801524Y64928000D01*
X49134857Y64975619D02*
X49372952Y63975619D01*
X49563429Y64689905D01*
X49753905Y63975619D01*
X49992000Y64975619D01*
X50134857Y63880381D02*
X50896762Y63880381D01*
X51134857Y63975619D02*
X51134857Y64975619D01*
X51515810Y64975619D01*
X51611048Y64928000D01*
X51658667Y64880381D01*
X51706286Y64785143D01*
X51706286Y64642286D01*
X51658667Y64547048D01*
X51611048Y64499429D01*
X51515810Y64451810D01*
X51134857Y64451810D01*
X52134857Y64975619D02*
X52134857Y64166095D01*
X52182476Y64070857D01*
X52230095Y64023238D01*
X52325333Y63975619D01*
X52515810Y63975619D01*
X52611048Y64023238D01*
X52658667Y64070857D01*
X52706286Y64166095D01*
X52706286Y64975619D01*
X53134857Y64023238D02*
X53277714Y63975619D01*
X53515810Y63975619D01*
X53611048Y64023238D01*
X53658667Y64070857D01*
X53706286Y64166095D01*
X53706286Y64261333D01*
X53658667Y64356571D01*
X53611048Y64404190D01*
X53515810Y64451810D01*
X53325333Y64499429D01*
X53230095Y64547048D01*
X53182476Y64594667D01*
X53134857Y64689905D01*
X53134857Y64785143D01*
X53182476Y64880381D01*
X53230095Y64928000D01*
X53325333Y64975619D01*
X53563429Y64975619D01*
X53706286Y64928000D01*
X54134857Y63975619D02*
X54134857Y64975619D01*
X54134857Y64499429D02*
X54706286Y64499429D01*
X54706286Y63975619D02*
X54706286Y64975619D01*
X31230095Y64023238D02*
X31372952Y63975619D01*
X31611048Y63975619D01*
X31706286Y64023238D01*
X31753905Y64070857D01*
X31801524Y64166095D01*
X31801524Y64261333D01*
X31753905Y64356571D01*
X31706286Y64404190D01*
X31611048Y64451810D01*
X31420571Y64499429D01*
X31325333Y64547048D01*
X31277714Y64594667D01*
X31230095Y64689905D01*
X31230095Y64785143D01*
X31277714Y64880381D01*
X31325333Y64928000D01*
X31420571Y64975619D01*
X31658667Y64975619D01*
X31801524Y64928000D01*
X32134857Y64975619D02*
X32372952Y63975619D01*
X32563429Y64689905D01*
X32753905Y63975619D01*
X32992000Y64975619D01*
X33134857Y63880381D02*
X33896762Y63880381D01*
X34134857Y63975619D02*
X34134857Y64975619D01*
X34515810Y64975619D01*
X34611048Y64928000D01*
X34658667Y64880381D01*
X34706286Y64785143D01*
X34706286Y64642286D01*
X34658667Y64547048D01*
X34611048Y64499429D01*
X34515810Y64451810D01*
X34134857Y64451810D01*
X35134857Y64975619D02*
X35134857Y64166095D01*
X35182476Y64070857D01*
X35230095Y64023238D01*
X35325333Y63975619D01*
X35515810Y63975619D01*
X35611048Y64023238D01*
X35658667Y64070857D01*
X35706286Y64166095D01*
X35706286Y64975619D01*
X36134857Y64023238D02*
X36277714Y63975619D01*
X36515810Y63975619D01*
X36611048Y64023238D01*
X36658667Y64070857D01*
X36706286Y64166095D01*
X36706286Y64261333D01*
X36658667Y64356571D01*
X36611048Y64404190D01*
X36515810Y64451810D01*
X36325333Y64499429D01*
X36230095Y64547048D01*
X36182476Y64594667D01*
X36134857Y64689905D01*
X36134857Y64785143D01*
X36182476Y64880381D01*
X36230095Y64928000D01*
X36325333Y64975619D01*
X36563429Y64975619D01*
X36706286Y64928000D01*
X37134857Y63975619D02*
X37134857Y64975619D01*
X37134857Y64499429D02*
X37706286Y64499429D01*
X37706286Y63975619D02*
X37706286Y64975619D01*
X67696095Y28117238D02*
X67838952Y28069619D01*
X68077048Y28069619D01*
X68172286Y28117238D01*
X68219905Y28164857D01*
X68267524Y28260095D01*
X68267524Y28355333D01*
X68219905Y28450571D01*
X68172286Y28498190D01*
X68077048Y28545810D01*
X67886571Y28593429D01*
X67791333Y28641048D01*
X67743714Y28688667D01*
X67696095Y28783905D01*
X67696095Y28879143D01*
X67743714Y28974381D01*
X67791333Y29022000D01*
X67886571Y29069619D01*
X68124667Y29069619D01*
X68267524Y29022000D01*
X68600857Y29069619D02*
X68838952Y28069619D01*
X69029429Y28783905D01*
X69219905Y28069619D01*
X69458000Y29069619D01*
X69600857Y27974381D02*
X70362762Y27974381D01*
X70600857Y28069619D02*
X70600857Y29069619D01*
X70981810Y29069619D01*
X71077048Y29022000D01*
X71124667Y28974381D01*
X71172286Y28879143D01*
X71172286Y28736286D01*
X71124667Y28641048D01*
X71077048Y28593429D01*
X70981810Y28545810D01*
X70600857Y28545810D01*
X71600857Y29069619D02*
X71600857Y28260095D01*
X71648476Y28164857D01*
X71696095Y28117238D01*
X71791333Y28069619D01*
X71981810Y28069619D01*
X72077048Y28117238D01*
X72124667Y28164857D01*
X72172286Y28260095D01*
X72172286Y29069619D01*
X72600857Y28117238D02*
X72743714Y28069619D01*
X72981810Y28069619D01*
X73077048Y28117238D01*
X73124667Y28164857D01*
X73172286Y28260095D01*
X73172286Y28355333D01*
X73124667Y28450571D01*
X73077048Y28498190D01*
X72981810Y28545810D01*
X72791333Y28593429D01*
X72696095Y28641048D01*
X72648476Y28688667D01*
X72600857Y28783905D01*
X72600857Y28879143D01*
X72648476Y28974381D01*
X72696095Y29022000D01*
X72791333Y29069619D01*
X73029429Y29069619D01*
X73172286Y29022000D01*
X73600857Y28069619D02*
X73600857Y29069619D01*
X73600857Y28593429D02*
X74172286Y28593429D01*
X74172286Y28069619D02*
X74172286Y29069619D01*
X45980095Y7023238D02*
X46122952Y6975619D01*
X46361048Y6975619D01*
X46456286Y7023238D01*
X46503905Y7070857D01*
X46551524Y7166095D01*
X46551524Y7261333D01*
X46503905Y7356571D01*
X46456286Y7404190D01*
X46361048Y7451810D01*
X46170571Y7499429D01*
X46075333Y7547048D01*
X46027714Y7594667D01*
X45980095Y7689905D01*
X45980095Y7785143D01*
X46027714Y7880381D01*
X46075333Y7928000D01*
X46170571Y7975619D01*
X46408667Y7975619D01*
X46551524Y7928000D01*
X46884857Y7975619D02*
X47122952Y6975619D01*
X47313429Y7689905D01*
X47503905Y6975619D01*
X47742000Y7975619D01*
X47884857Y6880381D02*
X48646762Y6880381D01*
X48884857Y6975619D02*
X48884857Y7975619D01*
X49265810Y7975619D01*
X49361048Y7928000D01*
X49408667Y7880381D01*
X49456286Y7785143D01*
X49456286Y7642286D01*
X49408667Y7547048D01*
X49361048Y7499429D01*
X49265810Y7451810D01*
X48884857Y7451810D01*
X49884857Y7975619D02*
X49884857Y7166095D01*
X49932476Y7070857D01*
X49980095Y7023238D01*
X50075333Y6975619D01*
X50265810Y6975619D01*
X50361048Y7023238D01*
X50408667Y7070857D01*
X50456286Y7166095D01*
X50456286Y7975619D01*
X50884857Y7023238D02*
X51027714Y6975619D01*
X51265810Y6975619D01*
X51361048Y7023238D01*
X51408667Y7070857D01*
X51456286Y7166095D01*
X51456286Y7261333D01*
X51408667Y7356571D01*
X51361048Y7404190D01*
X51265810Y7451810D01*
X51075333Y7499429D01*
X50980095Y7547048D01*
X50932476Y7594667D01*
X50884857Y7689905D01*
X50884857Y7785143D01*
X50932476Y7880381D01*
X50980095Y7928000D01*
X51075333Y7975619D01*
X51313429Y7975619D01*
X51456286Y7928000D01*
X51884857Y6975619D02*
X51884857Y7975619D01*
X51884857Y7499429D02*
X52456286Y7499429D01*
X52456286Y6975619D02*
X52456286Y7975619D01*
X27136524Y48915619D02*
X27136524Y49915619D01*
X27517477Y49915619D01*
X27612715Y49868000D01*
X27660334Y49820381D01*
X27707953Y49725143D01*
X27707953Y49582286D01*
X27660334Y49487048D01*
X27612715Y49439429D01*
X27517477Y49391810D01*
X27136524Y49391810D01*
X28088905Y49201333D02*
X28565096Y49201333D01*
X27993667Y48915619D02*
X28327000Y49915619D01*
X28660334Y48915619D01*
X28993667Y48915619D02*
X28993667Y49915619D01*
X29231762Y49915619D01*
X29374620Y49868000D01*
X29469858Y49772762D01*
X29517477Y49677524D01*
X29565096Y49487048D01*
X29565096Y49344190D01*
X29517477Y49153714D01*
X29469858Y49058476D01*
X29374620Y48963238D01*
X29231762Y48915619D01*
X28993667Y48915619D01*
X29536524Y47115619D02*
X29536524Y48115619D01*
X29917477Y48115619D01*
X30012715Y48068000D01*
X30060334Y48020381D01*
X30107953Y47925143D01*
X30107953Y47782286D01*
X30060334Y47687048D01*
X30012715Y47639429D01*
X29917477Y47591810D01*
X29536524Y47591810D01*
X30488905Y47401333D02*
X30965096Y47401333D01*
X30393667Y47115619D02*
X30727000Y48115619D01*
X31060334Y47115619D01*
X31393667Y47115619D02*
X31393667Y48115619D01*
X31631762Y48115619D01*
X31774620Y48068000D01*
X31869858Y47972762D01*
X31917477Y47877524D01*
X31965096Y47687048D01*
X31965096Y47544190D01*
X31917477Y47353714D01*
X31869858Y47258476D01*
X31774620Y47163238D01*
X31631762Y47115619D01*
X31393667Y47115619D01*
M02*
